<svg width="136" height="69" viewBox="0 0 136 69" fill="none" xmlns="http://www.w3.org/2000/svg">
<path d="M34.9974 33.3125C35.2776 33.3125 35.6739 33.6255 36.1875 34.2491C36.4986 34.578 36.3435 35.9771 36.0769 36.403C35.4997 37.3251 36.0769 36.403 35.5952 37.0435C35.0817 37.684 34.9355 38.742 34.4375 39.3169C35.2152 39.136 35.7798 39.8384 36.097 40.0956C37.0201 40.8462 37.0201 40.8462 37.051 41.3714C37.0201 41.7004 36.7479 42.2424 36.2343 42.9977C35.6116 43.8524 35.0827 43.2981 34.6469 43.8725C35.472 43.9217 36.0085 44.0126 36.2578 44.1433C36.522 44.2914 36.6546 44.4887 36.6546 44.7346C36.6546 45.0223 36.0179 45.9739 35.3699 46.673C35.1033 46.9602 34.675 47.6935 34.4534 48.0721C33.7646 49.25 31.1324 49.5855 30.4783 49.8366L31.8272 48.914C32.2114 48.6095 33.648 47.1879 33.9019 46.636C34.0589 46.2949 34.1578 46.0297 34.1578 45.9917C34.1578 45.8605 34.0954 45.7945 33.9713 45.7945C33.2558 45.9261 32.7812 45.9917 32.5479 45.9917C31.9256 45.9917 31.6145 45.8034 31.6145 45.4248C31.6145 45.0804 31.793 44.6611 32.1515 44.1682C32.6331 43.5605 34.8844 42.0405 34.899 41.6479C34.8774 42.2195 34.2402 40.469 33.7262 40.7155C33.2446 40.8804 32.9409 40.9624 32.8168 40.9624C32.1941 40.9624 31.883 40.6996 31.883 40.1734C31.883 39.8126 31.6332 40.2685 32.442 39.1679C32.9883 38.4046 33.4039 37.6967 33.7267 37.0477C34.542 35.4036 34.7626 34.1371 34.9974 33.3125Z" fill="url(#paint0_linear_65_3693)"/>
<path d="M29.2158 51.7154C29.5943 51.8701 29.89 51.9469 30.1036 51.9469C30.411 51.9469 30.8018 51.7375 31.2759 51.3181C31.5365 50.9869 31.737 50.821 31.8794 50.821C32.0687 50.821 32.258 50.8988 32.4478 51.0525C32.6605 51.1195 32.8029 51.1523 32.8737 51.1523C33.703 51.1523 34.6143 50.2363 35.6086 48.4033C35.7979 48.4033 35.8925 48.4483 35.8925 48.5359C35.8925 51.6274 35.4539 53.1721 34.5782 53.1721C34.2231 53.1721 33.8909 53.0063 33.5835 52.676C33.3 52.3227 32.8259 52.1451 32.1634 52.1451C31.8312 52.1451 31.6428 52.3775 31.595 52.8404C31.5243 53.9438 31.3467 54.4967 31.0623 54.4967C30.4939 54.4967 30.0085 54.2203 29.6065 53.6683C29.1324 52.9838 28.8958 52.4318 28.8958 52.013C28.8958 51.8143 29.0026 51.7154 29.2158 51.7154Z" fill="url(#paint1_linear_65_3693)"/>
<path d="M43.9143 43.4343C44.3266 43.4343 44.6555 43.5215 44.9001 43.6939C45.2056 44.0233 45.3588 44.4225 45.3588 44.8901C45.3588 45.3755 45.1067 45.7395 44.6021 45.9822C44.0061 46.2423 43.4706 46.4072 42.9964 46.4761C43.0578 46.6673 43.0878 46.8664 43.0878 47.0744C43.0878 47.4905 42.9734 48.0279 42.7438 48.6857C42.6066 49.1543 42.4384 49.5788 42.2397 49.9607C43.3408 49.717 44.1275 49.5188 44.6021 49.3623C44.8921 49.2588 45.1372 49.2068 45.3354 49.2068C45.8859 49.2414 46.4669 49.441 47.0788 49.8042C47.7816 50.2034 48.1335 50.7497 48.1335 51.4431C48.1335 51.7542 47.7053 51.9107 46.8492 51.9107C45.7641 51.7716 45.0149 51.7022 44.6021 51.7022C42.5382 51.7022 40.2521 51.8067 37.7445 52.0143C36.9189 52.1188 36.3459 52.1708 36.025 52.1708C35.6426 52.1708 35.4285 52.0236 35.3826 51.7289C35.3826 51.6418 35.5203 51.5898 35.7953 51.5734C37.9666 51.0177 39.7096 50.5758 41.0243 50.2474C41.1925 49.7962 41.3457 49.2499 41.483 48.6084C41.6203 47.9679 41.6887 47.4563 41.6887 47.0749C41.6887 46.8842 41.6428 46.6935 41.5514 46.5028C40.5267 46.4339 39.7161 46.2343 39.1201 45.9045C38.6464 45.6444 38.4094 45.3675 38.4094 45.0728C38.4094 45.0044 38.5242 44.9688 38.7533 44.9688C40.1444 44.9688 41.1382 44.7261 41.7346 44.2407C42.4234 43.7028 43.1496 43.4343 43.9143 43.4343ZM39.4884 36.8817C39.6716 36.8817 39.8473 37.0293 40.016 37.3241C40.1683 37.6356 40.2446 38.0348 40.2446 38.5198C40.2446 38.9363 40.0614 39.3692 39.6946 39.82C39.6182 39.924 39.5798 40.0191 39.5798 40.1058C39.5798 40.1934 39.6027 40.2445 39.6482 40.2618C39.9087 40.5218 40.1453 40.8953 40.3594 41.3802C40.5122 41.727 40.5886 42.0994 40.5886 42.4977C40.5581 42.8618 40.3824 43.0614 40.0614 43.096C39.9542 43.096 39.8239 42.9395 39.6711 42.6279C39.0902 41.5878 38.6469 40.9899 38.3414 40.8339C38.2037 40.7992 38.1348 40.661 38.1348 40.4174C38.1348 40.1747 38.3789 39.7422 38.869 39.1181C39.2204 38.6158 39.3966 38.0695 39.3966 37.4801C39.3966 37.2898 39.3731 37.1249 39.3277 36.9857C39.3277 36.9164 39.3806 36.8817 39.4884 36.8817ZM43.9143 32.7998C45.1985 32.8167 45.8405 33.3457 45.8405 34.3863C45.81 34.8539 45.5345 35.0877 45.0149 35.0877C43.8829 35.0877 42.8052 35.1317 41.7815 35.2179C41.2618 35.2699 40.8027 35.2957 40.4054 35.2957C39.9771 35.2957 39.6023 35.2006 39.2813 35.0104C38.9758 34.8712 38.8001 34.733 38.7542 34.5938C38.7542 34.5254 38.8151 34.4898 38.9379 34.4898C39.427 34.4898 40.1762 34.2213 41.185 33.6839C42.2402 33.1292 43.1496 32.8349 43.9143 32.7998ZM42.0795 36.9857C42.2477 36.9857 42.4079 37.1329 42.5611 37.4276C42.7134 37.7396 42.7898 38.1388 42.7898 38.6238C42.7898 38.9705 42.6675 39.3172 42.4234 39.6635C42.3624 39.7511 42.3315 39.82 42.3315 39.872C42.3315 39.9591 42.3545 40.0107 42.4004 40.0275C42.6141 40.2351 42.8282 40.5392 43.0423 40.9379C43.1951 41.2495 43.2719 41.5531 43.2719 41.8474C43.2255 42.2288 43.0348 42.4457 42.6979 42.4972C42.6066 42.4972 42.4838 42.3506 42.3311 42.0554C41.781 41.1886 41.3603 40.6952 41.0702 40.5739C40.9475 40.5219 40.8865 40.401 40.8865 40.2098C40.8865 39.9849 41.1007 39.5946 41.5289 39.0399C41.8344 38.5891 41.9876 38.1037 41.9876 37.5841C41.9876 37.3939 41.9572 37.2289 41.8958 37.0893C41.8958 37.0204 41.9572 36.9857 42.0795 36.9857ZM45.5429 36.2319C45.6647 36.2319 45.7266 36.2665 45.7266 36.3364C45.3134 37.5499 45.1076 38.3122 45.1076 38.6242C45.1076 38.9363 45.2679 39.1963 45.5889 39.4039C46.0016 39.6991 46.2078 40.0374 46.2078 40.4178C46.2078 40.8517 45.6188 41.3633 44.4419 41.9518C44.3805 41.9518 44.35 41.883 44.35 41.7438C44.7933 41.2242 45.0154 40.878 45.0154 40.7041C45.0154 40.5139 44.8312 40.2271 44.4648 39.8457C44.098 39.5 43.9143 39.0919 43.9143 38.6242C43.9143 38.1393 44.1054 37.6103 44.4878 37.0382C44.8546 36.5008 45.206 36.2319 45.5429 36.2319Z" fill="url(#paint2_linear_65_3693)"/>
<path fill-rule="evenodd" clip-rule="evenodd" d="M60.1968 29.4226C60.4671 28.7535 60.6232 27.9495 61.0303 27.444C61.9815 26.2632 61.9768 24.8361 61.9847 23.3808C61.9885 22.7459 61.9304 22.1096 61.936 21.4747C61.9388 21.1983 62.0325 20.9228 62.1103 20.5128C62.3942 20.9771 62.5976 21.3234 62.8131 21.6584C63.1505 22.1808 63.5473 22.2609 63.9015 21.791C64.2398 21.3426 64.5088 20.8141 64.7834 20.301C64.833 20.2087 64.7913 20.0054 64.7426 19.8812C64.6625 19.6788 64.5359 19.504 64.4399 19.3096C63.4948 17.3909 63.4967 17.4167 61.6563 17.5277C61.1193 17.5596 60.5754 17.3975 59.8857 17.3033C60.5763 15.9651 61.5902 15.587 62.5086 14.91C62.279 14.0881 61.2683 12.4679 60.6827 10.0015C60.3467 8.58745 59.3717 6.17633 59.3871 3.64245C59.3904 3.11627 59.4902 2.5231 59.6481 2.00255C59.7887 1.53775 60.1654 1.39578 60.4507 1.79404C60.7712 2.2415 60.3847 2.83795 60.4484 3.40723C60.6906 5.57987 61.7523 7.69534 62.2443 9.3849C62.8178 11.3542 63.9109 13.1525 64.0168 13.6187C64.8063 13.1253 65.0856 13.01 64.8185 11.0665C65.8732 11.0665 66.9148 11.0665 68.1311 11.0665C67.8167 10.3417 67.574 9.84408 67.3842 9.31744C67.2858 9.04428 67.2825 8.72005 67.2366 8.41878C67.4676 8.41222 67.6986 8.39019 67.9291 8.40378C68.7496 8.4511 69.3015 9.0649 69.7996 9.76209C70.2283 10.3632 70.2395 10.9672 69.8647 11.6278C69.6243 12.0495 69.3746 12.4642 69.13 12.8812C68.7716 12.2252 68.4783 12.0584 67.9371 12.5073C67.2025 13.1159 66.5432 13.8614 65.8661 14.5684C65.6553 14.7891 65.4974 15.0824 65.3039 15.3288C64.7018 16.0977 64.9473 15.9089 65.4079 17.07C65.6989 17.8032 66.5104 18.1457 67.0998 17.487C67.485 17.0564 67.8369 16.5817 68.2131 16.138C68.4085 15.9084 68.6235 15.7032 68.9281 15.3832C69.2608 18.3866 71.2938 20.1384 72.1643 22.6512C72.1076 22.7098 72.0509 22.7688 71.9942 22.8274C71.7103 22.5627 71.3856 22.3411 71.1504 22.0225C70.701 21.4143 70.2737 20.7752 69.8923 20.1028C69.5995 19.586 69.1174 17.6125 68.7683 17.9588C68.3021 18.4203 66.9977 19.0317 66.7896 20.0222C66.4865 21.27 66.7897 21.872 67.7469 23.9219C67.8148 24.136 68.0547 24.3408 68.2487 24.4111C68.7627 24.598 69.2945 24.7091 69.8071 24.8464C69.7804 25.5098 68.802 27.0701 68.4891 26.8976C68.0692 26.6667 68.0027 27.0696 67.813 27.2069C67.0787 27.7382 66.3647 28.3108 65.6478 28.8763C65.4009 29.0712 65.1652 29.2881 64.9352 29.4863C65.5991 30.7781 65.5949 32.4316 66.695 33.3888C67.1687 31.6848 67.6382 29.9985 68.1091 28.3042C69.1951 28.1861 69.9308 29.1349 69.7438 30.4487C69.4763 32.3342 68.632 33.9 67.8444 35.4996C67.7399 35.7109 67.6194 36.0221 67.6738 36.2198C68.2267 38.2397 68.9229 40.1687 70.2175 41.6811C71.529 43.2137 73.0958 42.8206 73.6069 40.6873C73.926 39.3567 73.9509 37.9173 74.0661 36.5215C74.1495 35.516 74.164 34.5016 74.2709 33.4854C74.8401 34.4159 75.0646 35.4659 75.1817 36.5763C75.29 37.6071 75.5135 38.6239 75.5791 39.657C75.6329 40.5055 75.5851 41.378 75.4849 42.2228C75.2843 43.9081 75.0173 45.5813 74.7774 47.2596C74.6987 47.8106 74.3782 48.0064 73.9963 47.8546C73.4879 47.6517 72.9543 47.4241 72.5312 47.0436C70.2236 44.9689 68.2135 42.5432 66.7606 39.4982C66.5943 39.1496 66.4631 38.7752 66.2977 38.3671C65.8961 38.8324 65.564 39.3365 65.1432 39.6814C64.1087 40.529 63.0413 42.458 61.9688 43.2329C61.7219 43.4115 61.4042 43.4719 61.1114 43.5267C60.3341 43.6724 59.9592 43.3646 59.7414 42.4504C59.4481 41.2201 59.8056 42.1037 60.1968 41.1638C60.2732 41.2023 60.3584 41.2299 60.4311 41.2828C61.1596 41.8081 61.9032 41.7781 62.5184 41.1175C63.3571 40.2179 64.3584 37.9365 65.1376 36.9577C65.4707 36.5384 64.9305 33.8354 64.7585 33.2937C64.4488 32.3145 64.1761 31.3179 63.8753 30.2866C63.6837 30.4778 63.4386 30.7477 63.173 30.9829C62.041 31.9851 60.916 33.0018 59.7573 33.9572C59.4129 34.2416 58.973 34.3672 58.5667 34.5246C58.258 34.6445 58.0865 34.4782 58.0237 34.0706C57.8428 32.9011 58.2078 31.9448 58.9673 31.2106C59.4213 30.772 59.7428 30.1311 60.1237 29.5815C59.9859 30.8845 60.2811 31.4069 61.102 31.0925C61.9524 30.7664 62.7442 30.2117 63.4625 29.8125C63.277 29.1068 63.121 28.6083 63.0165 28.0934C62.9115 27.5775 62.8586 27.0462 62.749 26.2834C61.8344 27.4074 61.0158 28.4148 60.1968 29.4226ZM64.7613 24.9434C64.3078 24.8562 63.8758 24.7737 63.3815 24.6786C63.448 25.9231 63.7783 26.9726 64.201 27.9795C64.2638 28.1285 64.5772 28.277 64.6957 28.2119C65.2688 27.8989 65.8404 27.5597 66.3614 27.1366C66.702 26.8592 66.904 26.3321 66.6247 25.8846C66.3352 25.4213 66.4902 24.9677 66.4631 24.5081C66.4542 24.3619 66.5151 24.1731 66.4598 24.0733C66.1431 23.504 65.801 22.9549 65.4693 22.402C64.0421 23.6122 63.9414 23.9885 64.7613 24.9434Z" fill="url(#paint3_linear_65_3693)"/>
<path fill-rule="evenodd" clip-rule="evenodd" d="M48.4189 42.6157C50.5269 40.2603 52.2352 37.5808 53.6188 34.5305C52.8542 33.6436 52.0994 32.7679 51.3445 31.8926C51.3595 31.82 51.3745 31.7465 51.3895 31.6738C52.4049 31.9222 53.4202 32.171 54.5044 32.4366C55.1468 31.0675 55.836 29.616 56.1532 27.9555C56.2685 27.3529 55.9775 27.0259 55.568 27.0531C55.0994 27.083 54.63 27.2897 54.1802 27.4841C53.7585 27.6664 53.3832 27.8421 53.1072 28.4301C52.6204 29.4684 51.9846 30.42 51.3319 31.3229C50.6862 32.2164 49.9422 33.0045 49.1307 33.9706C49.1307 33.1807 49.1124 32.5331 49.1433 31.8879C49.1513 31.7197 49.2919 31.4489 49.4076 31.4175C50.1352 31.217 50.5592 30.5371 50.9313 29.8891C51.9799 28.0651 52.9695 26.19 53.9454 24.3079C54.2865 23.651 54.116 23.2593 53.4905 23.0807C52.6143 22.8301 51.9658 22.1849 51.3684 21.4151C52.351 21.0951 53.3101 20.8322 54.2411 20.4658C55.2011 20.0882 56.0393 19.4613 56.6021 18.3822C56.6855 18.2215 56.909 18.0439 57.0434 18.0687C57.6268 18.1774 58.2279 18.2754 58.7714 18.5354C59.3051 18.7903 59.3243 19.488 58.8136 19.8441C56.8902 21.1836 55.9728 23.5113 54.8324 25.6184C55.4846 26.3774 55.9691 26.3891 56.5407 25.6741C57.0336 25.058 57.5818 25.3686 58.107 25.5336C58.6519 25.7051 59.0282 26.1689 59.1744 26.815C59.2114 26.9781 58.9762 27.2695 58.8253 27.4518C57.444 29.1184 56.3795 31.061 55.4457 33.0851C55.8866 33.9589 56.3134 34.8056 56.7403 35.6522C56.7112 35.7202 56.6831 35.7886 56.6541 35.8574C56.1237 35.7281 55.5549 35.7038 55.0727 35.4428C54.4964 35.1317 54.2729 35.4484 54.0087 35.9516C53.4366 37.0433 52.8879 38.1613 52.2394 39.1827C51.3113 40.6441 50.1235 41.747 48.7188 42.4836C48.6209 42.5347 48.5187 42.5721 48.4189 42.6157Z" fill="url(#paint4_linear_65_3693)"/>
<path d="M98.1015 63.414C95.9434 64.0053 90.8714 61.8233 89.9699 61.0741C87.3414 58.8898 87.3414 58.8898 87.2168 57.3183C87.2815 56.3325 87.6197 53.6229 89.44 51.6602C90.1105 50.9381 92.9101 52.4197 93.9554 51.7408C94.6577 51.2839 95.3123 50.799 95.7419 50.2334C95.7419 50.2334 95.8108 49.83 95.3999 49.57C95.1179 49.3915 94.2398 48.7894 93.8809 48.5645C92.9977 48.0126 92.2101 48.0266 91.8582 47.8378C91.1099 47.4123 90.7267 46.8313 90.7098 46.0934C90.699 45.6469 90.4769 45.7134 91.0893 44.1157C91.4801 43.099 91.9524 42.0944 92.4528 41.4108C92.9161 40.7787 93.707 40.7576 94.4797 40.5219C94.8573 40.4067 95.2312 40.239 95.5606 39.9246C96.5174 39.0067 97.0988 37.8803 98.3021 37.1171C99.0339 36.6541 99.3586 37.3973 100.17 37.0412L100.43 37.0346C98.7289 38.5499 96.9536 43.5647 96.9611 43.8589C96.9705 44.2525 97.1485 44.4455 97.4962 44.4371C99.4842 43.9962 100.804 43.769 101.454 43.7535C103.191 43.7123 102.915 45.1812 102.942 46.3122C102.966 47.3444 103.655 47.686 102.69 49.1848C101.388 51.0351 93.2207 55.1733 93.2066 56.3503C93.2282 54.6382 97.2492 60.1178 98.6694 60.8801" fill="url(#paint5_linear_65_3693)"/>
<path d="M93.0381 55.0723C93.0104 56.0389 93.747 56.7863 94.3167 57.2862C94.744 57.6203 95.9257 58.5124 96.4823 59.0105C97.8655 60.246 101.339 61.5289 102.773 61.8283C107.979 62.9125 115.914 61.8418 118.18 61.5846C120.442 61.3236 124.494 58.786 125.821 58.1811C127.002 57.5725 128.232 55.4716 128.636 54.8887C130.117 52.7526 129.643 53.7895 130.143 51.8183C130.36 50.9646 131.453 45.6246 131.855 42.3205C131.909 41.8768 132.142 39.0383 132.183 38.8982C132.343 38.3664 132.374 40.4266 132.451 41.8337C132.473 42.209 132.491 42.5969 132.511 42.9647C132.535 43.4295 132.559 43.8643 132.585 44.2082C132.647 45.039 132.745 45.2423 132.857 45.1809C133.043 45.0783 133.268 44.241 133.425 44.3629C133.611 44.5058 133.648 46.1297 133.78 46.4605C133.86 46.6582 133.974 46.3912 134.175 45.0577C134.362 43.817 134.465 42.6546 134.55 42.8396C134.961 43.7402 135.948 52.9517 135.92 53.9188C136.026 55.2148 136.027 56.5005 135.919 57.7899C135.808 59.0756 136.201 61.154 135.301 62.0963C134.406 62.8759 132.805 64.4629 131.3 65.8657C130.329 66.7719 124.405 67.1982 123.091 67.3224C119.182 67.9273 115.959 68.4516 110.88 68.3007C107.965 68.2126 99.9003 65.5902 97.0291 64.2183C94.3059 62.689 88.6389 60.4048 88.2856 57.4914" fill="url(#paint6_linear_65_3693)"/>
<path fill-rule="evenodd" clip-rule="evenodd" d="M84.9775 38.8244C84.971 38.8282 84.9645 38.8319 84.958 38.8356C83.5134 39.6695 82.3858 40.3203 81.6097 41.2261C80.9046 42.2142 79.9764 42.2859 78.8229 41.4402C76.9745 39.7146 75.968 38.7812 75.8035 38.6379C75.4564 38.197 75.7441 37.8648 76.661 37.6366C78.1706 37.0528 79.8227 36.2253 81.6093 35.1528C84.7406 33.3564 86.841 32.3369 87.9135 32.0975C88.088 31.4967 88.2848 31.1903 88.4816 30.884C88.7019 30.5413 88.9221 30.1986 89.1106 29.4436C87.6099 30.1839 86.119 31.076 84.6459 32.1242C84.1816 32.1598 83.6315 32.126 83.0023 32.0169C82.1903 31.6125 81.5193 30.9636 80.9833 30.0706C80.4468 29.1775 80.4824 28.6312 81.0906 28.4269C83.3766 27.7836 85.1927 27.1 86.5379 26.3714C87.4309 25.8349 88.6332 25.275 90.1457 24.6921L90.1279 24.4597C90.7951 20.9846 91.3409 17.9821 91.7701 15.4562C91.0771 16.6009 90.3232 17.9034 89.5019 19.3686C87.0378 23.763 85.2616 26.0027 84.1802 26.0861C83.8574 25.9582 83.4418 25.5992 82.9296 25.0145C82.3458 23.5039 82.4114 21.3168 83.125 18.4591C83.8021 17.1622 84.1848 17.0563 84.2678 18.1368C84.339 19.0654 84.6136 19.5916 85.0896 19.7087C85.4223 19.9959 87.7688 18.0997 92.1271 14.0267C92.1239 12.0045 92.1201 10.9142 92.1084 10.7577C91.9167 10.3055 91.5166 10.1828 90.9113 10.3824C90.3153 10.7422 90.0126 10.8425 90.0009 10.686C89.977 10.3777 90.0234 9.98317 90.1433 9.50713C90.5608 8.85445 91.071 8.42433 91.6797 8.22051C92.2729 7.86442 92.8871 7.7412 93.5192 7.84521C95.257 8.17835 96.4012 8.87085 96.9494 9.91711C97.5093 11.1213 97.3847 12.5325 96.575 14.1504C96.158 14.8063 95.4322 17.5089 94.3968 22.2604L94.6118 22.0107C99.2668 17.761 101.176 14.2633 100.343 11.5242C100.128 10.7628 100.254 10.3627 100.718 10.3271C101.171 10.1387 101.647 10.2549 102.147 10.6841C103.636 11.817 104.529 13.3033 104.828 15.1489C104.912 16.2331 103.803 18.0304 101.506 20.5446C101.983 20.6645 102.471 20.9372 102.972 21.3655C104.281 22.199 104.973 23.0804 105.044 24.0099C104.948 24.798 104.437 25.2244 103.508 25.2956C101.507 25.6067 98.7275 26.9126 95.167 29.2098L94.7205 29.4778C94.5528 29.3368 94.5406 29.1812 94.6849 29.013C95.1019 28.3604 95.5236 27.7803 95.9528 27.2799C96.2259 26.7921 96.3576 26.4717 96.3454 26.3152C96.1899 26.3269 95.8071 26.4379 95.2026 26.6375C94.594 26.8418 93.9854 27.0456 93.3805 27.2452C93.2151 27.7322 93.058 27.9524 92.9276 28.1352C92.7578 28.3734 92.6332 28.5481 92.5943 29.1663C92.5719 29.2552 92.5495 29.3441 92.5271 29.433C92.4294 29.8209 92.3318 30.2085 92.2372 30.5958C92.3773 30.4318 92.5282 30.3395 92.6838 30.3278C94.3494 29.7323 96.1833 29.2811 98.1854 28.969C102.899 27.5184 105.817 26.9796 106.937 27.36C108.831 27.6814 110.158 28.7464 110.921 30.5564C111.123 31.1651 110.913 31.4916 110.296 31.5394C107.37 31.7651 105.045 32.0403 103.403 32.2721C103.782 32.6065 104.092 33.0703 104.334 33.6632C104.618 34.366 105.111 34.9882 105.81 35.5299C106.509 36.0724 107.37 36.6417 108.394 37.2349C109.418 37.829 110.615 38.6705 111.991 39.7599C113.365 40.8497 114.61 41.4705 115.727 41.6228C116.844 41.7755 117.572 42.0941 117.91 42.58C118.249 43.065 118.45 43.3943 118.516 43.564C118.582 43.734 118.678 43.9664 118.807 44.2583C118.399 44.2096 118.094 44.2096 117.892 44.2583C117.691 44.3071 117.44 44.3268 117.141 44.3197C116.841 44.3132 116.537 44.3253 116.228 44.3553C115.918 44.3872 115.391 44.3839 114.648 44.3469L114.403 44.4996C114.331 44.4889 114.276 44.4565 114.238 44.4017C114.2 44.3488 114.038 44.323 113.751 44.3249C113.465 44.3286 112.997 44.278 112.348 44.1759C112.348 44.1759 110.275 43.2168 109.906 42.9731C106.852 40.9715 104.827 39.519 103.828 38.6166C102.831 37.7142 101.977 36.824 101.268 35.9417C100.558 35.0613 100.104 34.3412 99.9069 33.7813C99.8146 33.5201 99.6823 33.1976 99.5102 32.8143C97.0614 33.1263 93.463 34.5974 90.6356 35.9036C90.6266 35.9201 90.6176 35.9365 90.6087 35.9529C90.2078 36.697 90.0787 37.3713 89.9538 38.0241L89.9538 38.0241C89.8903 38.3562 89.8278 38.6828 89.7311 39.0102C89.5492 39.3707 89.3634 39.8632 89.1588 40.4053C88.9069 41.0728 88.6267 41.8153 88.2908 42.4788C87.6826 43.682 86.4653 45.6644 85.4031 47.3409C84.518 48.7342 81.3069 52.5644 79.7227 54.4541L79.7226 54.4543C79.4007 54.8383 79.146 55.1421 78.9916 55.329C78.4776 55.9492 77.9347 56.2295 77.4197 56.4954C77.016 56.7039 76.6294 56.9035 76.2872 57.251C76.0304 57.401 75.7118 57.6334 75.3257 57.9482C74.9457 58.0949 74.4997 58.3226 73.9904 58.6318C73.4862 58.7728 73.0172 58.8384 72.5824 58.8211C72.1453 58.8038 71.747 58.7021 71.3811 58.5273L71.0671 57.0411C71.0873 56.5506 71.1646 56.1434 71.3033 55.822C71.5708 55.3417 71.8955 55.025 72.2741 54.8783C72.6536 54.7284 73.0299 54.6633 73.4024 54.6778L73.4219 54.6786C73.784 54.6936 74.0254 54.7036 74.1483 54.7078C74.9275 53.9187 75.8069 52.9325 76.789 51.7447L76.8255 51.7005C77.8741 50.4307 82.1517 45.2512 83.0234 43.5049C83.8966 41.7529 84.5481 40.193 84.9775 38.8244Z" fill="url(#paint7_linear_65_3693)"/>
<path fill-rule="evenodd" clip-rule="evenodd" d="M13.6301 0C14.5499 0.629722 14.2453 0.936147 15.0372 1.72236C15.8056 2.48468 15.9119 3.42833 15.68 4.52613C15.263 6.49916 14.8249 7.69816 14.6263 9.704C14.3151 12.8512 14.1446 16.012 13.9155 19.1672C13.907 19.2777 13.9145 19.3907 13.9145 19.5757C16.6864 16.221 20.156 13.6679 22.9874 10.4607C23.0314 10.5033 23.075 10.546 23.1186 10.5877C22.4926 11.3434 21.8278 12.0715 21.2486 12.862C19.6992 14.9751 18.1994 17.1238 16.6536 19.2393C15.8716 20.3104 15.0625 21.3651 14.206 22.3767C13.8808 22.7604 13.7519 23.1367 13.6887 23.6169C13.4549 25.3946 13.1836 27.1675 12.8936 28.9368C12.8355 29.2919 12.6326 29.6232 12.4494 30.0847C11.5015 28.8515 11.1698 27.4941 10.713 26.1157C10.3962 26.4483 10.1175 26.7444 9.8354 27.0377C7.622 29.3383 5.19542 31.3961 2.66669 33.3368C2.17144 33.7178 1.67853 33.6911 1.19968 33.2881C0.641642 32.8196 -0.0133798 32.3946 0.000207912 31.5578C0.00957877 30.9885 0.750811 28.1407 0.793448 27.7968C1.47471 27.496 1.38382 29.6143 1.83878 29.3303C4.19133 27.8643 6.11939 25.8828 8.1702 24.0499C8.81164 23.4768 9.50414 22.9614 10.1526 22.3964C10.3166 22.2534 10.4965 22.0248 10.5078 21.8271C10.6877 18.5004 10.8423 15.1724 11.0002 11.8438C11.0049 11.7567 10.9843 11.6691 10.9688 11.5196C7.77287 13.2326 5.75298 16.0181 3.67311 18.7834C4.15431 17.9396 4.54602 17.0254 5.13685 16.2669C6.30774 14.7633 7.56672 13.3268 8.83881 11.9062C9.1593 11.5491 9.64751 11.3172 10.0954 11.1054C10.772 10.784 11.1464 10.2231 11.1037 9.26825C11.0297 7.60586 10.5382 9.4955 10.363 7.84295C10.1929 6.23725 12.1064 2.60136 12.1064 1.55604L13.6301 0Z" fill="url(#paint8_linear_65_3693)"/>
<path d="M12.3542 10.9795C12.3266 10.9551 12.2343 10.9893 12.074 11.0821C11.9152 11.1758 11.6495 11.2901 11.2766 11.4269L10.8507 11.4921L9.78756 11.3824C7.87262 10.9851 6.58881 10.6374 5.93613 10.338C5.28392 10.0386 4.71323 9.70224 4.22361 9.32506C3.73351 8.94882 3.40459 8.60209 3.23404 8.2816C3.0649 7.96206 2.64181 7.03528 2.74161 7.0559C2.84141 7.07745 3.00398 7.00062 3.22935 6.82491C3.45425 6.65015 3.71055 6.46366 3.9987 6.26593C4.28545 6.06821 4.58063 6.00918 4.88284 6.0893C5.18552 6.16989 5.4526 6.40416 5.6878 6.79258C5.92161 7.18148 6.26317 7.44994 6.7097 7.59846C7.15762 7.74699 7.69786 7.86227 8.3318 7.94145C8.9662 8.0211 9.72289 8.21507 10.6061 8.52197C11.4884 8.8298 12.2483 8.85791 12.886 8.60677C13.5251 8.35563 13.9646 8.34159 14.2045 8.56555C14.4453 8.78998 14.5929 8.95069 14.6473 9.04533C14.7016 9.14091 14.7803 9.2693 14.8844 9.4272C14.6515 9.52418 14.4814 9.62117 14.3741 9.71816C14.2673 9.81562 14.1295 9.90886 13.9623 9.99929C13.795 10.0907 13.6259 10.1951 13.4576 10.3151C13.288 10.435 12.9947 10.6004 12.5768 10.8113L12.3542 10.9795Z" fill="url(#paint9_linear_65_3693)"/>
<path fill-rule="evenodd" clip-rule="evenodd" d="M42.3727 19.2116C41.0696 17.8472 39.6874 16.6079 37.7172 16.2452C36.5608 16.0325 35.3858 15.9154 34.228 15.7097C32.7624 15.4492 31.4444 15.7359 30.2079 16.5259C29.737 16.8267 29.2071 17.045 28.6921 17.2755C27.5531 17.7839 26.3808 18.1335 25.0951 18.0491C24.6734 18.0205 24.4743 17.9203 24.3553 17.4986C23.8872 15.8376 24.1145 14.1677 24.3455 12.5273C24.6406 10.4287 24.0985 8.5077 23.3714 6.5937C23.2664 6.31726 23.0902 6.06613 22.9417 5.79297C22.8621 5.85341 22.8114 5.87216 22.8016 5.90261C21.9906 8.46601 21.1903 11.0327 20.3713 13.5942C19.6478 15.861 19.5879 18.1414 20.0667 20.4649C20.3127 21.6597 21.083 22.5513 21.7263 23.5161C22.1864 24.2072 22.699 24.8917 23.3086 25.4582C24.2878 26.3676 26.6034 26.1657 27.5049 25.17C28.3778 24.2058 29.2483 23.2392 30.1095 22.2655C30.6361 21.67 31.226 21.1879 31.9963 20.8824C33.4971 20.2869 34.2683 20.3417 35.4921 19.6885C35.4921 19.6885 36.7028 19.779 36.7384 20.0831C36.9563 21.4062 36.3894 22.4478 35.6374 23.4669C32.7033 27.4425 29.8096 31.4471 26.8484 35.4044C25.209 37.5953 23.5611 39.7933 21.7427 41.8422C20.4327 43.3176 18.9488 44.6488 17.4996 46.0094C17.5019 46.0099 17.5057 46.008 17.5118 46.0038C17.5216 45.9968 17.5352 45.9841 17.5483 45.9734C17.5427 45.9809 17.5371 45.9879 17.5356 45.9916C17.5174 46.008 17.5005 46.0235 17.4855 46.0371C17.4715 46.0521 17.4574 46.0675 17.4462 46.0825C17.4218 46.1106 17.3993 46.1378 17.3763 46.1668C17.3721 46.1842 17.3375 46.2193 17.3061 46.2521C17.2808 46.277 17.27 46.2934 17.2587 46.3079C17.255 46.3135 17.2676 46.3055 17.2723 46.3032C17.2414 46.3444 17.2133 46.3819 17.1655 46.4316C17.1552 46.4428 17.1444 46.4588 17.1355 46.4714C17.1257 46.4841 17.1168 46.4972 17.1065 46.5103C17.1083 46.5108 17.1079 46.5136 17.1074 46.5155C17.098 46.5272 17.0887 46.5394 17.0723 46.5604C17.1032 46.529 17.1275 46.5037 17.1458 46.4869C17.1646 46.4695 17.1777 46.4602 17.1945 46.4461C17.1842 46.4597 17.1744 46.4709 17.1693 46.4784C17.165 46.4841 17.1627 46.4906 17.1655 46.4878C17.1875 46.4695 17.1749 46.4878 17.1796 46.4864C17.2091 46.4517 17.2377 46.4185 17.2667 46.3847C17.278 46.3819 17.278 46.3838 17.314 46.3468C17.3337 46.3271 17.3548 46.3032 17.3735 46.2821C17.382 46.2723 17.3852 46.2648 17.3927 46.2554C17.4077 46.2353 17.4246 46.2132 17.4396 46.1936C17.4537 46.1743 17.4771 46.1462 17.4691 46.1491C17.4602 46.1519 17.4771 46.128 17.4954 46.1041C17.516 46.0783 17.5117 46.0802 17.5052 46.0821C17.4949 46.0867 17.4621 46.1177 17.4438 46.1308C17.479 46.0877 17.4471 46.1106 17.4635 46.0853C17.471 46.0783 17.4804 46.0694 17.4841 46.0638C17.5 46.0455 17.5094 46.0333 17.5286 46.0179C17.538 46.0104 17.5652 45.9823 17.5792 45.9612C17.5816 45.9574 17.5895 45.9485 17.5905 45.9476C17.6111 45.9293 17.6242 45.911 17.6401 45.8928C17.6668 45.8632 17.6921 45.837 17.7132 45.8197C17.7249 45.8089 17.7306 45.807 17.7409 45.8014C17.747 45.7934 17.753 45.7869 17.7596 45.7798C17.769 45.7714 17.7784 45.7639 17.7887 45.756C17.7929 45.7475 17.7971 45.7414 17.8037 45.7302C17.8182 45.7203 17.8294 45.7147 17.8393 45.7077C17.8477 45.6992 17.8538 45.6908 17.8608 45.6829C17.8688 45.6791 17.8758 45.6744 17.8828 45.6716C17.8856 45.6683 17.8894 45.6646 17.8917 45.6613C17.8988 45.6515 17.9044 45.6411 17.911 45.6313C17.9433 45.5985 17.9194 45.6304 17.9311 45.6205C17.9527 45.6023 17.9733 45.5831 17.9892 45.5685C17.9897 45.5751 17.9901 45.5774 17.9906 45.5821C17.9873 45.5873 17.9597 45.614 17.9667 45.6121C17.9686 45.6121 17.9541 45.6304 17.9437 45.644C17.9545 45.6337 17.9709 45.6163 17.9714 45.621C17.9714 45.6233 17.9976 45.5962 17.9953 45.6041C17.9953 45.6041 18.0117 45.5826 18.0178 45.5803C18.0225 45.5788 18.0239 45.5802 18.0286 45.576C18.0337 45.5737 18.0426 45.5662 18.0501 45.561C18.0511 45.5596 18.0506 45.5601 18.052 45.5596C18.0454 45.5671 18.0407 45.5742 18.0356 45.5807C18.0464 45.5737 18.0618 45.5634 18.0665 45.5634C18.0726 45.5648 18.0904 45.5493 18.1143 45.5278C18.1152 45.5268 18.1157 45.5273 18.1157 45.5273C18.1199 45.5301 18.1326 45.525 18.1035 45.5596C18.0665 45.6056 18.0698 45.6093 18.0721 45.6145C18.0735 45.6173 18.0679 45.6262 18.066 45.6318C18.0637 45.6365 18.0618 45.6412 18.0595 45.6454C18.0571 45.6519 18.0543 45.658 18.052 45.6655C18.0487 45.6739 18.0421 45.6852 18.0436 45.6899C18.0445 45.6978 18.0361 45.7175 18.0112 45.7508C17.9798 45.7939 17.9414 45.8431 17.9161 45.8796C17.9119 45.8862 17.9063 45.8942 17.9007 45.9017C17.8777 45.9326 17.8543 45.9635 17.8322 45.9944C17.851 45.9762 17.8711 45.956 17.8889 45.9396C17.9222 45.9082 17.9545 45.8773 17.9925 45.8384C18.0211 45.8094 18.0464 45.7855 18.0679 45.7681C18.0979 45.7433 18.1326 45.7138 18.1813 45.666C18.2179 45.6299 18.2511 45.5995 18.2567 45.6037C18.2605 45.607 18.2853 45.5868 18.2989 45.5793C18.3073 45.5751 18.3186 45.5685 18.3176 45.5737C18.3139 45.5896 18.342 45.5709 18.3997 45.5151C18.4456 45.4715 18.4901 45.4298 18.521 45.4055C18.5491 45.383 18.5805 45.3544 18.6199 45.3146C18.6424 45.2987 18.6442 45.3052 18.6812 45.2729C18.6915 45.263 18.6878 45.2743 18.6864 45.2794C18.6845 45.2888 18.6841 45.2893 18.7225 45.2499C18.7276 45.2434 18.7323 45.2396 18.7454 45.226C18.7473 45.2279 18.7576 45.2218 18.7492 45.233C18.7375 45.248 18.7393 45.248 18.7403 45.2494C18.7417 45.2518 18.7426 45.2546 18.7361 45.2644C18.7276 45.278 18.7328 45.2743 18.745 45.2663C18.7586 45.2565 18.7745 45.2448 18.7403 45.2846C18.7286 45.2982 18.7253 45.3057 18.7178 45.3174C18.7665 45.2668 18.7834 45.2471 18.7567 45.2912C18.7689 45.2809 18.7806 45.2715 18.7956 45.2598C18.7628 45.2954 18.7375 45.3235 18.7108 45.3516C18.6466 45.42 18.5828 45.4884 18.5182 45.5563C18.4863 45.5901 18.4606 45.6201 18.4376 45.6477C18.4268 45.6594 18.4254 45.6664 18.4146 45.6777C18.3734 45.7236 18.3575 45.7475 18.3284 45.7831C18.3111 45.7995 18.2956 45.814 18.2764 45.8319C18.2591 45.8539 18.2413 45.8764 18.2268 45.8942C18.2347 45.8885 18.2422 45.8815 18.2427 45.8824C18.2436 45.8838 18.2333 45.8965 18.2357 45.896C18.2455 45.8946 18.2249 45.9227 18.1958 45.9583C18.1658 45.9958 18.1452 46.024 18.1626 46.0151C18.1672 46.0122 18.1687 46.0146 18.1635 46.0216C18.1523 46.0394 18.1359 46.061 18.1274 46.0736C18.133 46.0713 18.1401 46.0666 18.1382 46.0713C18.1302 46.0863 18.1307 46.0928 18.1462 46.0839C18.1532 46.0802 18.1574 46.0792 18.1565 46.0839C18.1555 46.0919 18.1391 46.1153 18.1007 46.1575C18.0984 46.1645 18.096 46.1706 18.0937 46.1772C18.0909 46.1856 18.0853 46.1931 18.0534 46.2236C18.0318 46.2446 18.0014 46.277 17.9761 46.3051C17.9653 46.3168 17.9578 46.329 17.9466 46.3425C17.9231 46.3664 17.8978 46.3913 17.8777 46.4114C17.8543 46.4381 17.8346 46.4606 17.8158 46.4822C17.8135 46.4878 17.8112 46.4925 17.8088 46.4972C17.7868 46.5201 17.768 46.5394 17.7502 46.5576C17.7493 46.559 17.7488 46.56 17.7479 46.5614C18.0421 46.4517 18.3364 46.3412 18.6302 46.2306C18.655 46.2142 18.6737 46.2043 18.7201 46.1612C18.7604 46.1317 18.8138 46.0872 18.8405 46.0727C18.8532 46.0652 18.871 46.0535 18.8869 46.0441C18.8996 46.0324 18.9122 46.0193 18.9258 46.0076C18.9492 45.9865 18.9521 45.9865 18.9492 45.9925C18.9488 45.9939 18.9652 45.9827 18.9741 45.9752C18.9924 45.9598 19.0116 45.9429 19.0317 45.9256C19.1001 45.882 19.0565 45.9373 19.0987 45.9162C19.1488 45.8787 19.206 45.8347 19.2126 45.8407C19.2182 45.845 19.2351 45.8384 19.2037 45.8735C19.1966 45.8815 19.2065 45.8778 19.2135 45.874C19.2243 45.8689 19.2407 45.8595 19.2571 45.8501C19.2805 45.829 19.3049 45.807 19.333 45.7817C19.34 45.7784 19.3466 45.7752 19.355 45.7719C19.3822 45.7499 19.4122 45.7259 19.4459 45.6983C19.4717 45.6739 19.5026 45.6449 19.5321 45.6173C19.5504 45.6041 19.5668 45.5943 19.5818 45.5817C19.6169 45.5517 19.6581 45.5156 19.6844 45.4903C19.7214 45.4537 19.7327 45.4462 19.7444 45.442C19.7537 45.4387 19.7631 45.435 19.7734 45.4317C19.8264 45.3863 19.8587 45.3657 19.8709 45.3633C19.877 45.3619 19.8774 45.3661 19.8737 45.3736C19.8643 45.3895 19.8751 45.3891 19.8962 45.3788C19.9032 45.3759 19.8976 45.3844 19.8962 45.39C19.913 45.3792 19.9416 45.3595 19.965 45.3446C19.9749 45.338 19.9777 45.3389 19.9758 45.3441C19.9665 45.3628 20.0044 45.3371 20.0536 45.3005C20.1009 45.2658 20.1375 45.2401 20.1384 45.2499C20.1384 45.2523 20.1543 45.2401 20.1567 45.2401C20.1581 45.2406 20.1497 45.2499 20.1436 45.2584C20.167 45.2406 20.196 45.219 20.2246 45.1974C20.2466 45.1754 20.2649 45.1572 20.2846 45.1375C20.331 45.1023 20.3642 45.0822 20.4223 45.0325C20.4364 45.0203 20.4472 45.0175 20.4631 45.0044C20.4992 44.9768 20.5371 44.9458 20.5802 44.9079C20.666 44.8325 20.7527 44.7561 20.8398 44.6806C20.8759 44.6497 20.9115 44.6193 20.9574 44.5799C20.9424 44.5972 20.9312 44.6099 20.919 44.6239C20.9804 44.5902 20.9546 44.6104 20.8904 44.668C20.9068 44.6581 20.9171 44.6534 20.9349 44.6394C20.9865 44.5982 20.9734 44.6155 20.9621 44.631C20.9523 44.6436 20.9495 44.6502 20.9668 44.6394C20.9813 44.631 20.986 44.631 20.9893 44.6324C20.9921 44.6333 20.993 44.6357 21.0127 44.6207C21.0268 44.6104 21.0216 44.6216 21.024 44.623C21.008 44.638 21.0024 44.6441 20.9944 44.6502C20.9452 44.6956 20.9457 44.6947 20.9593 44.6914C20.9668 44.6891 20.9832 44.6825 20.9705 44.6956C20.9312 44.7378 20.9424 44.7383 20.9242 44.7636C20.875 44.8095 20.8393 44.846 20.8122 44.8779C20.7836 44.9126 20.7321 44.9646 20.6786 45.0171C20.6102 45.0845 20.5891 45.115 20.6116 45.1089C20.621 45.1065 20.613 45.1192 20.6093 45.1286C20.6013 45.1431 20.5788 45.1712 20.5845 45.1745C20.5929 45.1792 20.5549 45.2176 20.5104 45.2602C20.4509 45.3174 20.4148 45.3567 20.3858 45.3905C20.3657 45.4153 20.3361 45.4448 20.2986 45.4786C20.2499 45.5235 20.2115 45.5606 20.1731 45.5994C20.1525 45.6201 20.1272 45.6435 20.1047 45.6655C20.1459 45.6374 20.1871 45.6088 20.2284 45.5803C20.2382 45.5728 20.249 45.5662 20.2579 45.561C20.3071 45.5296 20.3727 45.4823 20.4303 45.443C20.4748 45.4125 20.5015 45.3999 20.5146 45.3999C20.5217 45.4008 20.5381 45.3914 20.5493 45.3872C20.5601 45.3834 20.569 45.3797 20.5788 45.3764C20.5849 45.3732 20.5915 45.3708 20.5985 45.3675C20.607 45.3642 20.6187 45.3572 20.6229 45.3577C20.6318 45.3596 20.6393 45.3614 20.6993 45.3164C20.7447 45.2818 20.7395 45.2944 20.7452 45.2982C20.7461 45.2982 20.7466 45.2991 20.7452 45.3001C20.7185 45.3277 20.7002 45.3478 20.7039 45.353C20.7058 45.3581 20.6941 45.375 20.6861 45.3867C20.695 45.3806 20.7044 45.3745 20.7142 45.3666C20.7142 45.368 20.7152 45.3675 20.7128 45.3689C20.7067 45.3773 20.6974 45.3872 20.695 45.3928C20.6913 45.3989 20.6932 45.3998 20.6927 45.4041C20.6913 45.4106 20.6613 45.4308 20.6627 45.4308C20.6725 45.4275 20.651 45.4481 20.6473 45.4537C20.6637 45.4462 20.6805 45.4397 20.6974 45.4327L20.6988 45.4312L20.7007 45.4308C22.1344 44.824 23.3732 43.9591 24.4167 42.8009C26.5593 40.4216 28.7301 38.0653 30.9168 35.724C32.3458 34.1942 33.9403 32.8574 35.7465 31.7273C36.0975 31.5075 36.4353 31.2634 36.7609 31.0025C36.7609 31.0025 38.1937 29.7276 38.539 29.3691C40.2834 27.5582 41.6754 25.4976 43.03 23.4121C43.2479 23.0766 43.4283 22.6839 43.4925 22.2969C43.6958 21.0867 43.217 20.0957 42.3727 19.2116Z" fill="url(#paint10_linear_65_3693)"/>
<defs>
<linearGradient id="paint0_linear_65_3693" x1="34.9433" y1="33.3125" x2="33.9591" y2="48.9188" gradientUnits="userSpaceOnUse">
<stop stop-color="#D3BA65"/>
<stop offset="0.538541" stop-color="#9D894D"/>
</linearGradient>
<linearGradient id="paint1_linear_65_3693" x1="33.6488" y1="48.4033" x2="33.5227" y2="54.1784" gradientUnits="userSpaceOnUse">
<stop stop-color="#D3BA65"/>
<stop offset="0.538541" stop-color="#9D894D"/>
</linearGradient>
<linearGradient id="paint2_linear_65_3693" x1="44.0446" y1="32.7998" x2="43.3457" y2="51.141" gradientUnits="userSpaceOnUse">
<stop stop-color="#D3BA65"/>
<stop offset="0.538541" stop-color="#9D894D"/>
</linearGradient>
<linearGradient id="paint3_linear_65_3693" x1="69.9501" y1="1.56152" x2="67.064" y2="45.314" gradientUnits="userSpaceOnUse">
<stop stop-color="#DECE98"/>
<stop offset="0.215625" stop-color="#D3BA65"/>
<stop offset="0.913541" stop-color="#9D894D"/>
</linearGradient>
<linearGradient id="paint4_linear_65_3693" x1="55.7323" y1="18.0664" x2="54.405" y2="41.2685" gradientUnits="userSpaceOnUse">
<stop stop-color="#DECE98"/>
<stop offset="0.215625" stop-color="#D3BA65"/>
<stop offset="0.913541" stop-color="#9D894D"/>
</linearGradient>
<linearGradient id="paint5_linear_65_3693" x1="98.0766" y1="36.96" x2="97.0292" y2="62.0957" gradientUnits="userSpaceOnUse">
<stop stop-color="#DECE98"/>
<stop offset="0.507291" stop-color="#9D894D"/>
</linearGradient>
<linearGradient id="paint6_linear_65_3693" x1="120.699" y1="38.8125" x2="120.265" y2="66.7918" gradientUnits="userSpaceOnUse">
<stop stop-color="#DECE98"/>
<stop offset="0.507291" stop-color="#9D894D"/>
</linearGradient>
<linearGradient id="paint7_linear_65_3693" x1="99.6652" y1="7.80957" x2="98.8776" y2="40.2342" gradientUnits="userSpaceOnUse">
<stop offset="0.325" stop-color="#DECE98"/>
<stop offset="0.621875" stop-color="#D3BA65"/>
<stop offset="1" stop-color="#9D894D"/>
</linearGradient>
<linearGradient id="paint8_linear_65_3693" x1="15.7051" y1="-2.48774e-08" x2="14.5446" y2="31.8245" gradientUnits="userSpaceOnUse">
<stop offset="0.226041" stop-color="#DECE98"/>
<stop offset="0.611458" stop-color="#D3BA65"/>
<stop offset="1" stop-color="#9D894D"/>
</linearGradient>
<linearGradient id="paint9_linear_65_3693" x1="10.9857" y1="6.05469" x2="10.9278" y2="11.2098" gradientUnits="userSpaceOnUse">
<stop offset="0.226041" stop-color="#DECE98"/>
<stop offset="0.611458" stop-color="#D3BA65"/>
<stop offset="1" stop-color="#9D894D"/>
</linearGradient>
<linearGradient id="paint10_linear_65_3693" x1="35.0518" y1="5.79297" x2="33.5603" y2="44.3926" gradientUnits="userSpaceOnUse">
<stop offset="0.226041" stop-color="#DECE98"/>
<stop offset="0.611458" stop-color="#D3BA65"/>
<stop offset="1" stop-color="#9D894D"/>
</linearGradient>
</defs>
</svg>
