<svg width="196" height="69" viewBox="0 0 196 69" fill="none" xmlns="http://www.w3.org/2000/svg">
<circle cx="24" cy="34.1631" r="23.5" stroke="url(#paint0_linear_65_3693)"/>
<path d="M41.0054 34.163C41.0054 43.3595 33.6067 50.814 24.481 50.814C15.3552 50.814 7.95653 43.3595 7.95653 34.163C7.95653 24.9664 15.3552 17.512 24.481 17.512C33.6067 17.512 41.0054 24.9664 41.0054 34.163Z" fill="url(#paint1_radial_65_3693)" stroke="url(#paint2_radial_65_3693)" stroke-width="0.115703"/>
<path d="M36.6795 34.8895C36.6795 39.6726 32.8315 43.5494 28.0857 43.5494C23.3399 43.5494 19.4919 39.6726 19.4919 34.8895C19.4919 30.1064 23.3399 26.2297 28.0857 26.2297C32.8315 26.2297 36.6795 30.1064 36.6795 34.8895Z" fill="url(#paint3_linear_65_3693)" stroke="url(#paint4_radial_65_3693)" stroke-width="0.115703"/>
<g filter="url(#filter0_f_65_3693)">
<ellipse cx="22.318" cy="39.2487" rx="2.88388" ry="2.90589" fill="url(#paint5_radial_65_3693)"/>
</g>
<path d="M94.9974 33.3125C95.2776 33.3125 95.6739 33.6255 96.1875 34.2491C96.4986 34.578 96.3435 35.9771 96.0769 36.403C95.4997 37.3251 96.0769 36.403 95.5952 37.0435C95.0817 37.684 94.9355 38.742 94.4375 39.3169C95.2152 39.136 95.7798 39.8384 96.097 40.0956C97.0201 40.8462 97.0201 40.8462 97.051 41.3714C97.0201 41.7004 96.7479 42.2424 96.2343 42.9977C95.6116 43.8524 95.0827 43.2981 94.6469 43.8725C95.472 43.9217 96.0085 44.0126 96.2578 44.1433C96.522 44.2914 96.6546 44.4887 96.6546 44.7346C96.6546 45.0223 96.0179 45.9739 95.3699 46.673C95.1033 46.9602 94.675 47.6935 94.4534 48.0721C93.7646 49.25 91.1324 49.5855 90.4783 49.8366L91.8272 48.914C92.2114 48.6095 93.648 47.1879 93.9019 46.636C94.0589 46.2949 94.1578 46.0297 94.1578 45.9917C94.1578 45.8605 94.0954 45.7945 93.9713 45.7945C93.2558 45.9261 92.7812 45.9917 92.5479 45.9917C91.9256 45.9917 91.6145 45.8034 91.6145 45.4248C91.6145 45.0804 91.793 44.6611 92.1515 44.1682C92.6331 43.5605 94.8844 42.0405 94.899 41.6479C94.8774 42.2195 94.2402 40.469 93.7262 40.7155C93.2446 40.8804 92.9409 40.9624 92.8168 40.9624C92.1941 40.9624 91.883 40.6996 91.883 40.1734C91.883 39.8126 91.6332 40.2685 92.442 39.1679C92.9883 38.4046 93.4039 37.6967 93.7267 37.0477C94.542 35.4036 94.7626 34.1371 94.9974 33.3125Z" fill="url(#paint6_linear_65_3693)"/>
<path d="M89.2158 51.7154C89.5943 51.8701 89.89 51.9469 90.1036 51.9469C90.411 51.9469 90.8018 51.7375 91.2759 51.3181C91.5365 50.9869 91.737 50.821 91.8794 50.821C92.0687 50.821 92.258 50.8988 92.4478 51.0525C92.6605 51.1195 92.8029 51.1523 92.8737 51.1523C93.703 51.1523 94.6143 50.2363 95.6086 48.4033C95.7979 48.4033 95.8925 48.4483 95.8925 48.5359C95.8925 51.6274 95.4539 53.1721 94.5782 53.1721C94.2231 53.1721 93.8909 53.0063 93.5835 52.676C93.3 52.3227 92.8259 52.1451 92.1634 52.1451C91.8312 52.1451 91.6428 52.3775 91.595 52.8404C91.5243 53.9438 91.3467 54.4967 91.0623 54.4967C90.4939 54.4967 90.0085 54.2203 89.6065 53.6683C89.1324 52.9838 88.8958 52.4318 88.8958 52.013C88.8958 51.8143 89.0026 51.7154 89.2158 51.7154Z" fill="url(#paint7_linear_65_3693)"/>
<path d="M103.914 43.4343C104.327 43.4343 104.655 43.5215 104.9 43.6939C105.206 44.0233 105.359 44.4225 105.359 44.8901C105.359 45.3755 105.107 45.7395 104.602 45.9822C104.006 46.2423 103.471 46.4072 102.996 46.4761C103.058 46.6673 103.088 46.8664 103.088 47.0744C103.088 47.4905 102.973 48.0279 102.744 48.6857C102.607 49.1543 102.438 49.5788 102.24 49.9607C103.341 49.717 104.127 49.5188 104.602 49.3623C104.892 49.2588 105.137 49.2068 105.335 49.2068C105.886 49.2414 106.467 49.441 107.079 49.8042C107.782 50.2034 108.133 50.7497 108.133 51.4431C108.133 51.7542 107.705 51.9107 106.849 51.9107C105.764 51.7716 105.015 51.7022 104.602 51.7022C102.538 51.7022 100.252 51.8067 97.7445 52.0143C96.9189 52.1188 96.3459 52.1708 96.025 52.1708C95.6426 52.1708 95.4285 52.0236 95.3826 51.7289C95.3826 51.6418 95.5203 51.5898 95.7953 51.5734C97.9666 51.0177 99.7096 50.5758 101.024 50.2474C101.193 49.7962 101.346 49.2499 101.483 48.6084C101.62 47.9679 101.689 47.4563 101.689 47.0749C101.689 46.8842 101.643 46.6935 101.551 46.5028C100.527 46.4339 99.7161 46.2343 99.1201 45.9045C98.6464 45.6444 98.4094 45.3675 98.4094 45.0728C98.4094 45.0044 98.5242 44.9688 98.7533 44.9688C100.144 44.9688 101.138 44.7261 101.735 44.2407C102.423 43.7028 103.15 43.4343 103.914 43.4343ZM99.4884 36.8817C99.6716 36.8817 99.8473 37.0293 100.016 37.3241C100.168 37.6356 100.245 38.0348 100.245 38.5198C100.245 38.9363 100.061 39.3692 99.6946 39.82C99.6182 39.924 99.5798 40.0191 99.5798 40.1058C99.5798 40.1934 99.6027 40.2445 99.6482 40.2618C99.9087 40.5218 100.145 40.8953 100.359 41.3802C100.512 41.727 100.589 42.0994 100.589 42.4977C100.558 42.8618 100.382 43.0614 100.061 43.096C99.9542 43.096 99.8239 42.9395 99.6711 42.6279C99.0902 41.5878 98.6469 40.9899 98.3414 40.8339C98.2037 40.7992 98.1348 40.661 98.1348 40.4174C98.1348 40.1747 98.3789 39.7422 98.869 39.1181C99.2204 38.6158 99.3966 38.0695 99.3966 37.4801C99.3966 37.2898 99.3731 37.1249 99.3277 36.9857C99.3277 36.9164 99.3806 36.8817 99.4884 36.8817ZM103.914 32.7998C105.199 32.8167 105.84 33.3457 105.84 34.3863C105.81 34.8539 105.534 35.0877 105.015 35.0877C103.883 35.0877 102.805 35.1317 101.781 35.2179C101.262 35.2699 100.803 35.2957 100.405 35.2957C99.9771 35.2957 99.6023 35.2006 99.2813 35.0104C98.9758 34.8712 98.8001 34.733 98.7542 34.5938C98.7542 34.5254 98.8151 34.4898 98.9379 34.4898C99.427 34.4898 100.176 34.2213 101.185 33.6839C102.24 33.1292 103.15 32.8349 103.914 32.7998ZM102.079 36.9857C102.248 36.9857 102.408 37.1329 102.561 37.4276C102.713 37.7396 102.79 38.1388 102.79 38.6238C102.79 38.9705 102.667 39.3172 102.423 39.6635C102.362 39.7511 102.332 39.82 102.332 39.872C102.332 39.9591 102.355 40.0107 102.4 40.0275C102.614 40.2351 102.828 40.5392 103.042 40.9379C103.195 41.2495 103.272 41.5531 103.272 41.8474C103.226 42.2288 103.035 42.4457 102.698 42.4972C102.607 42.4972 102.484 42.3506 102.331 42.0554C101.781 41.1886 101.36 40.6952 101.07 40.5739C100.947 40.5219 100.887 40.401 100.887 40.2098C100.887 39.9849 101.101 39.5946 101.529 39.0399C101.834 38.5891 101.988 38.1037 101.988 37.5841C101.988 37.3939 101.957 37.2289 101.896 37.0893C101.896 37.0204 101.957 36.9857 102.079 36.9857ZM105.543 36.2319C105.665 36.2319 105.727 36.2665 105.727 36.3364C105.313 37.5499 105.108 38.3122 105.108 38.6242C105.108 38.9363 105.268 39.1963 105.589 39.4039C106.002 39.6991 106.208 40.0374 106.208 40.4178C106.208 40.8517 105.619 41.3633 104.442 41.9518C104.38 41.9518 104.35 41.883 104.35 41.7438C104.793 41.2242 105.015 40.878 105.015 40.7041C105.015 40.5139 104.831 40.2271 104.465 39.8457C104.098 39.5 103.914 39.0919 103.914 38.6242C103.914 38.1393 104.105 37.6103 104.488 37.0382C104.855 36.5008 105.206 36.2319 105.543 36.2319Z" fill="url(#paint8_linear_65_3693)"/>
<path fill-rule="evenodd" clip-rule="evenodd" d="M120.197 29.4226C120.467 28.7535 120.623 27.9495 121.03 27.444C121.981 26.2632 121.977 24.8361 121.985 23.3808C121.988 22.7459 121.93 22.1096 121.936 21.4747C121.939 21.1983 122.033 20.9228 122.11 20.5128C122.394 20.9771 122.598 21.3234 122.813 21.6584C123.15 22.1808 123.547 22.2609 123.902 21.791C124.24 21.3426 124.509 20.8141 124.783 20.301C124.833 20.2087 124.791 20.0054 124.743 19.8812C124.662 19.6788 124.536 19.504 124.44 19.3096C123.495 17.3909 123.497 17.4167 121.656 17.5277C121.119 17.5596 120.575 17.3975 119.886 17.3033C120.576 15.9651 121.59 15.587 122.509 14.91C122.279 14.0881 121.268 12.4679 120.683 10.0015C120.347 8.58745 119.372 6.17633 119.387 3.64245C119.39 3.11627 119.49 2.5231 119.648 2.00255C119.789 1.53775 120.165 1.39578 120.451 1.79404C120.771 2.2415 120.385 2.83795 120.448 3.40723C120.691 5.57987 121.752 7.69534 122.244 9.3849C122.818 11.3542 123.911 13.1525 124.017 13.6187C124.806 13.1253 125.086 13.01 124.819 11.0665C125.873 11.0665 126.915 11.0665 128.131 11.0665C127.817 10.3417 127.574 9.84408 127.384 9.31744C127.286 9.04428 127.283 8.72005 127.237 8.41878C127.468 8.41222 127.699 8.39019 127.929 8.40378C128.75 8.4511 129.302 9.0649 129.8 9.76209C130.228 10.3632 130.24 10.9672 129.865 11.6278C129.624 12.0495 129.375 12.4642 129.13 12.8812C128.772 12.2252 128.478 12.0584 127.937 12.5073C127.202 13.1159 126.543 13.8614 125.866 14.5684C125.655 14.7891 125.497 15.0824 125.304 15.3288C124.702 16.0977 124.947 15.9089 125.408 17.07C125.699 17.8032 126.51 18.1457 127.1 17.487C127.485 17.0564 127.837 16.5817 128.213 16.138C128.408 15.9084 128.624 15.7032 128.928 15.3832C129.261 18.3866 131.294 20.1384 132.164 22.6512C132.108 22.7098 132.051 22.7688 131.994 22.8274C131.71 22.5627 131.386 22.3411 131.15 22.0225C130.701 21.4143 130.274 20.7752 129.892 20.1028C129.6 19.586 129.117 17.6125 128.768 17.9588C128.302 18.4203 126.998 19.0317 126.79 20.0222C126.487 21.27 126.79 21.872 127.747 23.9219C127.815 24.136 128.055 24.3408 128.249 24.4111C128.763 24.598 129.294 24.7091 129.807 24.8464C129.78 25.5098 128.802 27.0701 128.489 26.8976C128.069 26.6667 128.003 27.0696 127.813 27.2069C127.079 27.7382 126.365 28.3108 125.648 28.8763C125.401 29.0712 125.165 29.2882 124.935 29.4863C125.599 30.7781 125.595 32.4316 126.695 33.3888C127.169 31.6848 127.638 29.9985 128.109 28.3042C129.195 28.1861 129.931 29.1349 129.744 30.4487C129.476 32.3342 128.632 33.9 127.844 35.4996C127.74 35.7109 127.619 36.022 127.674 36.2198C128.227 38.2397 128.923 40.1687 130.217 41.6811C131.529 43.2137 133.096 42.8206 133.607 40.6873C133.926 39.3567 133.951 37.9173 134.066 36.5215C134.15 35.516 134.164 34.5016 134.271 33.4854C134.84 34.4159 135.065 35.4659 135.182 36.5763C135.29 37.6071 135.513 38.6239 135.579 39.657C135.633 40.5055 135.585 41.378 135.485 42.2228C135.284 43.9081 135.017 45.5813 134.777 47.2596C134.699 47.8106 134.378 48.0064 133.996 47.8546C133.488 47.6517 132.954 47.4241 132.531 47.0436C130.224 44.9689 128.214 42.5432 126.761 39.4982C126.594 39.1496 126.463 38.7752 126.298 38.3671C125.896 38.8324 125.564 39.3365 125.143 39.6814C124.109 40.529 123.041 42.458 121.969 43.2329C121.722 43.4115 121.404 43.4719 121.111 43.5267C120.334 43.6724 119.959 43.3646 119.741 42.4505C119.448 41.2201 119.806 42.1037 120.197 41.1638C120.273 41.2023 120.358 41.2299 120.431 41.2828C121.16 41.8081 121.903 41.7781 122.518 41.1175C123.357 40.2179 124.358 37.9365 125.138 36.9577C125.471 36.5384 124.93 33.8354 124.759 33.2937C124.449 32.3145 124.176 31.3179 123.875 30.2866C123.684 30.4778 123.439 30.7477 123.173 30.9829C122.041 31.9851 120.916 33.0018 119.757 33.9572C119.413 34.2416 118.973 34.3672 118.567 34.5246C118.258 34.6445 118.086 34.4782 118.024 34.0706C117.843 32.9011 118.208 31.9448 118.967 31.2106C119.421 30.772 119.743 30.1311 120.124 29.5815C119.986 30.8845 120.281 31.4069 121.102 31.0925C121.952 30.7664 122.744 30.2117 123.463 29.8125C123.277 29.1068 123.121 28.6083 123.016 28.0934C122.912 27.5775 122.859 27.0462 122.749 26.2834C121.834 27.4074 121.016 28.4148 120.197 29.4226ZM124.761 24.9434C124.308 24.8562 123.876 24.7737 123.381 24.6786C123.448 25.9231 123.778 26.9726 124.201 27.9795C124.264 28.1285 124.577 28.277 124.696 28.2119C125.269 27.8989 125.84 27.5597 126.361 27.1366C126.702 26.8592 126.904 26.3321 126.625 25.8846C126.335 25.4213 126.49 24.9677 126.463 24.5081C126.454 24.3619 126.515 24.1731 126.46 24.0733C126.143 23.504 125.801 22.9549 125.469 22.402C124.042 23.6122 123.941 23.9885 124.761 24.9434Z" fill="url(#paint9_linear_65_3693)"/>
<path fill-rule="evenodd" clip-rule="evenodd" d="M108.419 42.6157C110.527 40.2603 112.235 37.5808 113.619 34.5305C112.854 33.6436 112.099 32.7679 111.345 31.8926C111.36 31.82 111.375 31.7465 111.39 31.6738C112.405 31.9222 113.42 32.171 114.504 32.4366C115.147 31.0675 115.836 29.616 116.153 27.9555C116.268 27.3529 115.977 27.0259 115.568 27.0531C115.099 27.083 114.63 27.2897 114.18 27.4841C113.758 27.6664 113.383 27.8421 113.107 28.4301C112.62 29.4684 111.985 30.42 111.332 31.3229C110.686 32.2164 109.942 33.0045 109.131 33.9706C109.131 33.1807 109.112 32.5331 109.143 31.8879C109.151 31.7197 109.292 31.4489 109.408 31.4175C110.135 31.217 110.559 30.5371 110.931 29.8891C111.98 28.0651 112.969 26.19 113.945 24.3079C114.287 23.651 114.116 23.2593 113.49 23.0807C112.614 22.8301 111.966 22.1849 111.368 21.4151C112.351 21.0951 113.31 20.8322 114.241 20.4658C115.201 20.0882 116.039 19.4613 116.602 18.3822C116.685 18.2215 116.909 18.0439 117.043 18.0687C117.627 18.1774 118.228 18.2754 118.771 18.5354C119.305 18.7903 119.324 19.488 118.814 19.8441C116.89 21.1836 115.973 23.5113 114.832 25.6184C115.485 26.3774 115.969 26.3891 116.541 25.6741C117.034 25.058 117.582 25.3686 118.107 25.5336C118.652 25.7051 119.028 26.1689 119.174 26.815C119.211 26.9781 118.976 27.2695 118.825 27.4518C117.444 29.1184 116.379 31.061 115.446 33.0851C115.887 33.9589 116.313 34.8056 116.74 35.6522C116.711 35.7202 116.683 35.7886 116.654 35.8574C116.124 35.7281 115.555 35.7038 115.073 35.4428C114.496 35.1317 114.273 35.4484 114.009 35.9516C113.437 37.0433 112.888 38.1613 112.239 39.1827C111.311 40.6441 110.124 41.747 108.719 42.4836C108.621 42.5347 108.519 42.5721 108.419 42.6157Z" fill="url(#paint10_linear_65_3693)"/>
<path d="M158.102 63.414C155.943 64.0053 150.871 61.8233 149.97 61.0741C147.341 58.8898 147.341 58.8898 147.217 57.3183C147.281 56.3325 147.62 53.6229 149.44 51.6602C150.111 50.9381 152.91 52.4197 153.955 51.7408C154.658 51.2839 155.312 50.799 155.742 50.2334C155.742 50.2334 155.811 49.83 155.4 49.57C155.118 49.3915 154.24 48.7894 153.881 48.5645C152.998 48.0126 152.21 48.0266 151.858 47.8378C151.11 47.4123 150.727 46.8313 150.71 46.0934C150.699 45.6469 150.477 45.7134 151.089 44.1157C151.48 43.099 151.952 42.0944 152.453 41.4108C152.916 40.7787 153.707 40.7576 154.48 40.5219C154.857 40.4067 155.231 40.239 155.561 39.9246C156.517 39.0067 157.099 37.8803 158.302 37.1171C159.034 36.6541 159.359 37.3973 160.17 37.0412L160.43 37.0346C158.729 38.5499 156.954 43.5647 156.961 43.8589C156.97 44.2525 157.149 44.4455 157.496 44.4371C159.484 43.9962 160.804 43.769 161.454 43.7535C163.191 43.7123 162.915 45.1812 162.942 46.3122C162.966 47.3444 163.655 47.686 162.69 49.1848C161.388 51.0351 153.221 55.1733 153.207 56.3503C153.228 54.6382 157.249 60.1178 158.669 60.8801" fill="url(#paint11_linear_65_3693)"/>
<path d="M153.038 55.0723C153.01 56.0389 153.747 56.7863 154.317 57.2862C154.744 57.6203 155.926 58.5124 156.482 59.0105C157.865 60.246 161.339 61.5289 162.773 61.8283C167.979 62.9125 175.914 61.8418 178.18 61.5846C180.442 61.3236 184.494 58.786 185.821 58.1811C187.002 57.5725 188.232 55.4716 188.636 54.8887C190.117 52.7526 189.643 53.7895 190.143 51.8183C190.36 50.9646 191.453 45.6246 191.855 42.3205C191.909 41.8768 192.142 39.0383 192.183 38.8982C192.343 38.3664 192.374 40.4266 192.451 41.8337C192.473 42.209 192.491 42.5969 192.511 42.9647C192.535 43.4295 192.559 43.8643 192.585 44.2082C192.647 45.039 192.745 45.2423 192.857 45.1809C193.043 45.0783 193.268 44.241 193.425 44.3629C193.611 44.5058 193.648 46.1297 193.78 46.4605C193.86 46.6582 193.974 46.3912 194.175 45.0577C194.362 43.817 194.465 42.6546 194.55 42.8396C194.961 43.7402 195.948 52.9517 195.92 53.9188C196.026 55.2148 196.027 56.5005 195.919 57.7899C195.808 59.0756 196.201 61.154 195.301 62.0963C194.406 62.8759 192.805 64.4629 191.3 65.8657C190.329 66.7719 184.405 67.1982 183.091 67.3224C179.182 67.9273 175.959 68.4516 170.88 68.3007C167.965 68.2126 159.9 65.5902 157.029 64.2183C154.306 62.689 148.639 60.4048 148.286 57.4914" fill="url(#paint12_linear_65_3693)"/>
<path fill-rule="evenodd" clip-rule="evenodd" d="M144.977 38.8244C144.971 38.8282 144.964 38.8319 144.958 38.8356C143.513 39.6695 142.386 40.3203 141.61 41.2261C140.905 42.2142 139.976 42.2859 138.823 41.4402C136.974 39.7146 135.968 38.7812 135.804 38.6379C135.456 38.197 135.744 37.8648 136.661 37.6366C138.171 37.0528 139.823 36.2253 141.609 35.1528C144.741 33.3564 146.841 32.3369 147.914 32.0975C148.088 31.4967 148.285 31.1903 148.482 30.884C148.702 30.5413 148.922 30.1986 149.111 29.4436C147.61 30.1839 146.119 31.076 144.646 32.1242C144.182 32.1598 143.632 32.126 143.002 32.0169C142.19 31.6125 141.519 30.9636 140.983 30.0706C140.447 29.1775 140.482 28.6312 141.091 28.4269C143.377 27.7836 145.193 27.1 146.538 26.3714C147.431 25.8349 148.633 25.275 150.146 24.6921L150.128 24.4597C150.795 20.9846 151.341 17.9821 151.77 15.4562C151.077 16.6009 150.323 17.9034 149.502 19.3686C147.038 23.763 145.262 26.0027 144.18 26.0861C143.857 25.9582 143.442 25.5992 142.93 25.0145C142.346 23.5039 142.411 21.3168 143.125 18.4591C143.802 17.1622 144.185 17.0563 144.268 18.1368C144.339 19.0654 144.614 19.5916 145.09 19.7087C145.422 19.9959 147.769 18.0997 152.127 14.0267C152.124 12.0045 152.12 10.9142 152.108 10.7577C151.917 10.3055 151.517 10.1828 150.911 10.3824C150.315 10.7422 150.013 10.8425 150.001 10.686C149.977 10.3777 150.023 9.98317 150.143 9.50713C150.561 8.85445 151.071 8.42433 151.68 8.22051C152.273 7.86442 152.887 7.7412 153.519 7.84521C155.257 8.17835 156.401 8.87085 156.949 9.91711C157.509 11.1213 157.385 12.5325 156.575 14.1504C156.158 14.8063 155.432 17.5089 154.397 22.2604L154.612 22.0107C159.267 17.761 161.176 14.2633 160.343 11.5242C160.128 10.7628 160.254 10.3627 160.718 10.3271C161.171 10.1387 161.647 10.2549 162.147 10.6841C163.636 11.817 164.529 13.3033 164.828 15.1489C164.912 16.2331 163.803 18.0304 161.506 20.5446C161.983 20.6645 162.471 20.9372 162.972 21.3655C164.281 22.199 164.973 23.0804 165.044 24.0099C164.948 24.798 164.437 25.2244 163.508 25.2956C161.507 25.6067 158.727 26.9126 155.167 29.2098L154.721 29.4778C154.553 29.3368 154.541 29.1812 154.685 29.013C155.102 28.3604 155.524 27.7803 155.953 27.2799C156.226 26.7921 156.358 26.4717 156.345 26.3152C156.19 26.3269 155.807 26.4379 155.203 26.6375C154.594 26.8418 153.985 27.0456 153.38 27.2452C153.215 27.7322 153.058 27.9524 152.928 28.1352C152.758 28.3734 152.633 28.5481 152.594 29.1663C152.572 29.2552 152.55 29.3441 152.527 29.433C152.429 29.8209 152.332 30.2085 152.237 30.5958C152.377 30.4318 152.528 30.3395 152.684 30.3278C154.349 29.7323 156.183 29.2811 158.185 28.969C162.899 27.5184 165.817 26.9796 166.937 27.36C168.831 27.6814 170.158 28.7464 170.921 30.5564C171.123 31.1651 170.913 31.4916 170.296 31.5394C167.37 31.7651 165.045 32.0403 163.403 32.2721C163.782 32.6065 164.092 33.0703 164.334 33.6632C164.618 34.366 165.111 34.9882 165.81 35.5299C166.509 36.0724 167.37 36.6417 168.394 37.2349C169.418 37.829 170.615 38.6705 171.991 39.7599C173.365 40.8497 174.61 41.4705 175.727 41.6228C176.844 41.7755 177.572 42.0941 177.91 42.58C178.249 43.065 178.45 43.3943 178.516 43.564C178.582 43.734 178.678 43.9664 178.807 44.2583C178.399 44.2096 178.094 44.2096 177.892 44.2583C177.691 44.3071 177.44 44.3268 177.141 44.3197C176.841 44.3132 176.537 44.3253 176.228 44.3553C175.918 44.3872 175.391 44.3839 174.648 44.3469L174.403 44.4996C174.331 44.4889 174.276 44.4565 174.238 44.4017C174.2 44.3488 174.038 44.323 173.751 44.3249C173.465 44.3286 172.997 44.278 172.348 44.1759C172.348 44.1759 170.275 43.2168 169.906 42.9731C166.852 40.9715 164.827 39.519 163.828 38.6166C162.831 37.7142 161.977 36.824 161.268 35.9417C160.558 35.0613 160.104 34.3412 159.907 33.7813C159.815 33.5201 159.682 33.1976 159.51 32.8143C157.061 33.1263 153.463 34.5974 150.636 35.9036C150.627 35.9201 150.618 35.9365 150.609 35.9529C150.208 36.697 150.079 37.3713 149.954 38.0241L149.954 38.0241C149.89 38.3562 149.828 38.6828 149.731 39.0102C149.549 39.3707 149.363 39.8632 149.159 40.4053C148.907 41.0728 148.627 41.8153 148.291 42.4788C147.683 43.682 146.465 45.6644 145.403 47.3409C144.518 48.7342 141.307 52.5644 139.723 54.4541L139.723 54.4541L139.722 54.4552C139.4 54.8387 139.146 55.1422 138.992 55.329C138.478 55.9492 137.935 56.2295 137.42 56.4954C137.016 56.7039 136.629 56.9035 136.287 57.251C136.03 57.401 135.712 57.6334 135.326 57.9482C134.946 58.0949 134.5 58.3226 133.99 58.6318C133.486 58.7728 133.017 58.8384 132.582 58.8211C132.145 58.8038 131.747 58.7021 131.381 58.5273L131.067 57.0411C131.087 56.5506 131.165 56.1434 131.303 55.822C131.571 55.3417 131.896 55.025 132.274 54.8783C132.654 54.7284 133.03 54.6633 133.402 54.6778L133.422 54.6786C133.784 54.6936 134.025 54.7036 134.148 54.7078C134.927 53.9187 135.807 52.9325 136.789 51.7447L136.826 51.7005C137.874 50.4305 142.152 45.2512 143.023 43.5049C143.897 41.7529 144.548 40.193 144.977 38.8244Z" fill="url(#paint13_linear_65_3693)"/>
<path fill-rule="evenodd" clip-rule="evenodd" d="M73.6301 0C74.5499 0.629722 74.2453 0.936147 75.0372 1.72236C75.8056 2.48468 75.9119 3.42833 75.68 4.52613C75.263 6.49916 74.8249 7.69816 74.6263 9.70399C74.3151 12.8512 74.1446 16.012 73.9155 19.1672C73.907 19.2777 73.9145 19.3907 73.9145 19.5757C76.6864 16.221 80.156 13.6679 82.9874 10.4607C83.0314 10.5033 83.075 10.546 83.1186 10.5877C82.4926 11.3434 81.8278 12.0715 81.2486 12.862C79.6992 14.9751 78.1994 17.1238 76.6536 19.2393C75.8716 20.3104 75.0625 21.3651 74.206 22.3767C73.8808 22.7604 73.7519 23.1367 73.6887 23.6169C73.4549 25.3946 73.1836 27.1675 72.8936 28.9368C72.8355 29.2919 72.6326 29.6232 72.4494 30.0847C71.5015 28.8515 71.1698 27.4941 70.713 26.1157C70.3962 26.4483 70.1175 26.7444 69.8354 27.0377C67.622 29.3383 65.1954 31.3961 62.6667 33.3368C62.1714 33.7178 61.6785 33.6911 61.1997 33.2881C60.6416 32.8196 59.9866 32.3946 60.0002 31.5578C60.0096 30.9885 60.7508 28.1407 60.7934 27.7968C61.4747 27.496 61.3838 29.6143 61.8388 29.3303C64.1913 27.8643 66.1194 25.8828 68.1702 24.0499C68.8116 23.4768 69.5041 22.9614 70.1526 22.3964C70.3166 22.2534 70.4965 22.0248 70.5078 21.8271C70.6877 18.5004 70.8423 15.1724 71.0002 11.8438C71.0049 11.7567 70.9843 11.6691 70.9688 11.5196C67.7729 13.2326 65.753 16.0181 63.6731 18.7834C64.1543 17.9396 64.546 17.0254 65.1369 16.2669C66.3077 14.7633 67.5667 13.3268 68.8388 11.9062C69.1593 11.5491 69.6475 11.3172 70.0954 11.1054C70.772 10.784 71.1464 10.2231 71.1037 9.26825C71.0297 7.60586 70.5382 9.4955 70.363 7.84295C70.1929 6.23725 72.1064 2.60136 72.1064 1.55604L73.6301 0Z" fill="url(#paint14_linear_65_3693)"/>
<path d="M72.3542 10.9795C72.3266 10.9551 72.2343 10.9893 72.074 11.0821C71.9152 11.1758 71.6495 11.2901 71.2766 11.4269L70.8507 11.4921L69.7876 11.3824C67.8726 10.9851 66.5888 10.6374 65.9361 10.338C65.2839 10.0386 64.7132 9.70224 64.2236 9.32506C63.7335 8.94882 63.4046 8.60209 63.234 8.2816C63.0649 7.96206 62.6418 7.03528 62.7416 7.0559C62.8414 7.07745 63.004 7.00062 63.2294 6.82491C63.4543 6.65015 63.7105 6.46366 63.9987 6.26593C64.2854 6.06821 64.5806 6.00918 64.8828 6.0893C65.1855 6.16989 65.4526 6.40416 65.6878 6.79258C65.9216 7.18148 66.2632 7.44994 66.7097 7.59846C67.1576 7.74699 67.6979 7.86227 68.3318 7.94145C68.9662 8.0211 69.7229 8.21507 70.6061 8.52197C71.4884 8.8298 72.2483 8.85791 72.886 8.60677C73.5251 8.35563 73.9646 8.34159 74.2045 8.56555C74.4453 8.78998 74.5929 8.95069 74.6473 9.04533C74.7016 9.14091 74.7803 9.2693 74.8844 9.4272C74.6515 9.52418 74.4814 9.62117 74.3741 9.71816C74.2673 9.81562 74.1295 9.90886 73.9623 9.99929C73.795 10.0907 73.6259 10.1951 73.4576 10.3151C73.288 10.435 72.9947 10.6004 72.5768 10.8113L72.3542 10.9795Z" fill="url(#paint15_linear_65_3693)"/>
<path fill-rule="evenodd" clip-rule="evenodd" d="M102.373 19.2116C101.07 17.8472 99.6874 16.6079 97.7172 16.2452C96.5608 16.0325 95.3857 15.9154 94.228 15.7097C92.7624 15.4492 91.4444 15.7359 90.2079 16.5259C89.737 16.8267 89.2071 17.045 88.6921 17.2755C87.5531 17.7839 86.3808 18.1335 85.0951 18.0491C84.6734 18.0205 84.4743 17.9203 84.3553 17.4986C83.8872 15.8376 84.1145 14.1677 84.3455 12.5273C84.6406 10.4287 84.0985 8.5077 83.3714 6.5937C83.2664 6.31726 83.0902 6.06613 82.9417 5.79297C82.8621 5.85341 82.8114 5.87216 82.8016 5.90261C81.9906 8.46601 81.1903 11.0327 80.3713 13.5942C79.6478 15.861 79.5879 18.1414 80.0667 20.4649C80.3127 21.6597 81.083 22.5513 81.7263 23.5161C82.1864 24.2072 82.699 24.8917 83.3086 25.4582C84.2878 26.3676 86.6034 26.1657 87.5049 25.17C88.3778 24.2058 89.2483 23.2392 90.1095 22.2655C90.6361 21.67 91.226 21.1879 91.9963 20.8824C93.4971 20.2869 94.2683 20.3417 95.4921 19.6885C95.4921 19.6885 96.7028 19.779 96.7384 20.0831C96.9563 21.4062 96.3894 22.4478 95.6374 23.4669C92.7033 27.4425 89.8096 31.4471 86.8484 35.4044C85.209 37.5953 83.5611 39.7933 81.7427 41.8422C80.4327 43.3176 78.9488 44.6488 77.4996 46.0094C77.5019 46.0099 77.5057 46.008 77.5118 46.0038C77.5216 45.9968 77.5352 45.9841 77.5483 45.9734C77.5427 45.9809 77.5371 45.9879 77.5356 45.9916C77.5174 46.008 77.5005 46.0235 77.4855 46.0371C77.4715 46.0521 77.4574 46.0675 77.4462 46.0825C77.4218 46.1106 77.3993 46.1378 77.3763 46.1668C77.3721 46.1842 77.3375 46.2193 77.3061 46.2521C77.2808 46.277 77.27 46.2934 77.2587 46.3079C77.255 46.3135 77.2676 46.3055 77.2723 46.3032C77.2414 46.3444 77.2133 46.3819 77.1655 46.4316C77.1552 46.4428 77.1444 46.4588 77.1355 46.4714C77.1257 46.4841 77.1168 46.4972 77.1065 46.5103C77.1083 46.5108 77.1079 46.5136 77.1074 46.5154C77.098 46.5272 77.0887 46.5394 77.0723 46.5604C77.1032 46.529 77.1275 46.5037 77.1458 46.4869C77.1646 46.4695 77.1777 46.4602 77.1945 46.4461C77.1842 46.4597 77.1744 46.4709 77.1693 46.4784C77.165 46.4841 77.1627 46.4906 77.1655 46.4878C77.1875 46.4695 77.1749 46.4878 77.1796 46.4864C77.2091 46.4517 77.2377 46.4185 77.2667 46.3847C77.278 46.3819 77.278 46.3838 77.314 46.3468C77.3337 46.3271 77.3548 46.3032 77.3735 46.2821C77.382 46.2723 77.3852 46.2648 77.3927 46.2554C77.4077 46.2353 77.4246 46.2132 77.4396 46.1936C77.4537 46.1743 77.4771 46.1462 77.4691 46.1491C77.4602 46.1519 77.4771 46.128 77.4954 46.1041C77.516 46.0783 77.5118 46.0802 77.5052 46.0821C77.4949 46.0867 77.4621 46.1177 77.4438 46.1308C77.479 46.0877 77.4471 46.1106 77.4635 46.0853C77.471 46.0783 77.4804 46.0694 77.4841 46.0638C77.5 46.0455 77.5094 46.0333 77.5286 46.0179C77.538 46.0104 77.5652 45.9823 77.5792 45.9612C77.5816 45.9574 77.5895 45.9485 77.5905 45.9476C77.6111 45.9293 77.6242 45.911 77.6401 45.8928C77.6668 45.8632 77.6921 45.837 77.7132 45.8197C77.7249 45.8089 77.7306 45.807 77.7409 45.8014C77.747 45.7934 77.753 45.7869 77.7596 45.7798C77.769 45.7714 77.7784 45.7639 77.7887 45.756C77.7929 45.7475 77.7971 45.7414 77.8037 45.7302C77.8182 45.7203 77.8294 45.7147 77.8393 45.7077C77.8477 45.6992 77.8538 45.6908 77.8608 45.6829C77.8688 45.6791 77.8758 45.6744 77.8828 45.6716C77.8856 45.6683 77.8894 45.6646 77.8917 45.6613C77.8988 45.6515 77.9044 45.6411 77.911 45.6313C77.9433 45.5985 77.9194 45.6304 77.9311 45.6205C77.9527 45.6023 77.9733 45.5831 77.9892 45.5685C77.9897 45.5751 77.9901 45.5774 77.9906 45.5821C77.9873 45.5873 77.9597 45.614 77.9667 45.6121C77.9686 45.6121 77.9541 45.6304 77.9437 45.644C77.9545 45.6337 77.9709 45.6163 77.9714 45.621C77.9714 45.6233 77.9976 45.5962 77.9953 45.6041C77.9953 45.6041 78.0117 45.5826 78.0178 45.5803C78.0225 45.5788 78.0239 45.5802 78.0286 45.576C78.0337 45.5737 78.0426 45.5662 78.0501 45.561C78.0511 45.5596 78.0506 45.5601 78.052 45.5596C78.0454 45.5671 78.0407 45.5742 78.0356 45.5807C78.0464 45.5737 78.0618 45.5634 78.0665 45.5634C78.0726 45.5648 78.0904 45.5493 78.1143 45.5278C78.1152 45.5268 78.1157 45.5273 78.1157 45.5273C78.1199 45.5301 78.1326 45.525 78.1035 45.5596C78.0665 45.6055 78.0698 45.6093 78.0721 45.6145C78.0735 45.6173 78.0679 45.6262 78.066 45.6318C78.0637 45.6365 78.0618 45.6412 78.0595 45.6454C78.0571 45.6519 78.0543 45.658 78.052 45.6655C78.0487 45.6739 78.0421 45.6852 78.0436 45.6899C78.0445 45.6978 78.0361 45.7175 78.0112 45.7508C77.9798 45.7939 77.9414 45.8431 77.9161 45.8796C77.9119 45.8862 77.9063 45.8942 77.9007 45.9017C77.8777 45.9326 77.8543 45.9635 77.8322 45.9944C77.851 45.9762 77.8711 45.956 77.8889 45.9396C77.9222 45.9082 77.9545 45.8773 77.9925 45.8384C78.0211 45.8094 78.0464 45.7855 78.0679 45.7681C78.0979 45.7433 78.1326 45.7138 78.1813 45.666C78.2179 45.6299 78.2511 45.5995 78.2567 45.6037C78.2605 45.607 78.2853 45.5868 78.2989 45.5793C78.3073 45.5751 78.3186 45.5685 78.3176 45.5737C78.3139 45.5896 78.342 45.5709 78.3997 45.5151C78.4456 45.4715 78.4901 45.4298 78.521 45.4055C78.5491 45.383 78.5805 45.3544 78.6199 45.3146C78.6424 45.2986 78.6442 45.3052 78.6812 45.2729C78.6915 45.263 78.6878 45.2743 78.6864 45.2794C78.6845 45.2888 78.6841 45.2893 78.7225 45.2499C78.7276 45.2434 78.7323 45.2396 78.7454 45.226C78.7473 45.2279 78.7576 45.2218 78.7492 45.233C78.7375 45.248 78.7393 45.248 78.7403 45.2494C78.7417 45.2518 78.7426 45.2546 78.7361 45.2645C78.7276 45.278 78.7328 45.2743 78.745 45.2663C78.7586 45.2565 78.7745 45.2448 78.7403 45.2846C78.7286 45.2982 78.7253 45.3057 78.7178 45.3174C78.7665 45.2668 78.7834 45.2471 78.7567 45.2912C78.7689 45.2808 78.7806 45.2715 78.7956 45.2598C78.7628 45.2954 78.7375 45.3235 78.7108 45.3516C78.6466 45.42 78.5828 45.4884 78.5182 45.5563C78.4863 45.5901 78.4606 45.6201 78.4376 45.6477C78.4268 45.6594 78.4254 45.6664 78.4146 45.6777C78.3734 45.7236 78.3575 45.7475 78.3284 45.7831C78.3111 45.7995 78.2956 45.814 78.2764 45.8319C78.2591 45.8539 78.2413 45.8764 78.2268 45.8942C78.2347 45.8885 78.2422 45.8815 78.2427 45.8824C78.2436 45.8839 78.2333 45.8965 78.2357 45.896C78.2455 45.8946 78.2249 45.9227 78.1958 45.9583C78.1658 45.9958 78.1452 46.024 78.1626 46.015C78.1672 46.0122 78.1687 46.0146 78.1635 46.0216C78.1523 46.0394 78.1359 46.061 78.1274 46.0736C78.133 46.0713 78.1401 46.0666 78.1382 46.0713C78.1302 46.0863 78.1307 46.0928 78.1462 46.0839C78.1532 46.0802 78.1574 46.0792 78.1565 46.0839C78.1555 46.0919 78.1391 46.1153 78.1007 46.1575C78.0984 46.1645 78.096 46.1706 78.0937 46.1772C78.0909 46.1856 78.0853 46.1931 78.0534 46.2236C78.0318 46.2446 78.0014 46.277 77.9761 46.3051C77.9653 46.3168 77.9578 46.329 77.9466 46.3425C77.9231 46.3664 77.8978 46.3913 77.8777 46.4114C77.8543 46.4381 77.8346 46.4606 77.8158 46.4822C77.8135 46.4878 77.8112 46.4925 77.8088 46.4972C77.7868 46.5201 77.768 46.5394 77.7502 46.5576C77.7493 46.559 77.7488 46.56 77.7479 46.5614C78.0421 46.4517 78.3364 46.3412 78.6302 46.2306C78.655 46.2142 78.6737 46.2043 78.7201 46.1612C78.7604 46.1317 78.8138 46.0872 78.8405 46.0727C78.8532 46.0652 78.871 46.0535 78.8869 46.0441C78.8996 46.0324 78.9122 46.0193 78.9258 46.0076C78.9492 45.9865 78.9521 45.9865 78.9492 45.9925C78.9488 45.9939 78.9652 45.9827 78.9741 45.9752C78.9924 45.9598 79.0116 45.9429 79.0317 45.9256C79.1001 45.882 79.0565 45.9373 79.0987 45.9162C79.1488 45.8787 79.206 45.8347 79.2126 45.8407C79.2182 45.845 79.2351 45.8384 79.2037 45.8736C79.1966 45.8815 79.2065 45.8778 79.2135 45.874C79.2243 45.8689 79.2407 45.8595 79.2571 45.8501C79.2805 45.829 79.3049 45.807 79.333 45.7817C79.34 45.7784 79.3466 45.7752 79.355 45.7719C79.3822 45.7499 79.4122 45.7259 79.4459 45.6983C79.4717 45.6739 79.5026 45.6449 79.5321 45.6173C79.5504 45.6041 79.5668 45.5943 79.5818 45.5817C79.6169 45.5517 79.6581 45.5156 79.6844 45.4903C79.7214 45.4537 79.7327 45.4462 79.7444 45.442C79.7537 45.4387 79.7631 45.435 79.7734 45.4317C79.8264 45.3863 79.8587 45.3657 79.8709 45.3633C79.877 45.3619 79.8774 45.3661 79.8737 45.3736C79.8643 45.3895 79.8751 45.3891 79.8962 45.3788C79.9032 45.3759 79.8976 45.3844 79.8962 45.39C79.913 45.3792 79.9416 45.3595 79.965 45.3446C79.9749 45.338 79.9777 45.3389 79.9758 45.3441C79.9665 45.3628 80.0044 45.3371 80.0536 45.3005C80.1009 45.2658 80.1375 45.2401 80.1384 45.2499C80.1384 45.2523 80.1543 45.2401 80.1567 45.2401C80.1581 45.2406 80.1497 45.2499 80.1436 45.2584C80.167 45.2406 80.196 45.219 80.2246 45.1974C80.2466 45.1754 80.2649 45.1572 80.2846 45.1375C80.331 45.1023 80.3642 45.0822 80.4223 45.0325C80.4364 45.0203 80.4472 45.0175 80.4631 45.0044C80.4992 44.9768 80.5371 44.9458 80.5802 44.9079C80.666 44.8325 80.7527 44.7561 80.8398 44.6806C80.8759 44.6497 80.9115 44.6193 80.9574 44.5799C80.9424 44.5972 80.9312 44.6099 80.919 44.6239C80.9804 44.5902 80.9546 44.6104 80.8904 44.668C80.9068 44.6581 80.9171 44.6534 80.9349 44.6394C80.9865 44.5982 80.9734 44.6155 80.9621 44.631C80.9523 44.6436 80.9495 44.6502 80.9668 44.6394C80.9813 44.631 80.986 44.631 80.9893 44.6324C80.9921 44.6333 80.993 44.6357 81.0127 44.6207C81.0268 44.6104 81.0216 44.6216 81.024 44.623C81.008 44.638 81.0024 44.6441 80.9944 44.6502C80.9452 44.6956 80.9457 44.6947 80.9593 44.6914C80.9668 44.6891 80.9832 44.6825 80.9705 44.6956C80.9312 44.7378 80.9424 44.7383 80.9242 44.7636C80.875 44.8095 80.8393 44.846 80.8122 44.8779C80.7836 44.9126 80.7321 44.9646 80.6786 45.0171C80.6102 45.0845 80.5891 45.115 80.6116 45.1089C80.621 45.1065 80.613 45.1192 80.6093 45.1286C80.6013 45.1431 80.5788 45.1712 80.5845 45.1745C80.5929 45.1792 80.5549 45.2176 80.5104 45.2602C80.4509 45.3174 80.4148 45.3567 80.3858 45.3905C80.3657 45.4153 80.3361 45.4448 80.2986 45.4786C80.2499 45.5235 80.2115 45.5606 80.1731 45.5994C80.1525 45.6201 80.1272 45.6435 80.1047 45.6655C80.1459 45.6374 80.1871 45.6088 80.2284 45.5803C80.2382 45.5728 80.249 45.5662 80.2579 45.561C80.3071 45.5296 80.3727 45.4823 80.4303 45.443C80.4748 45.4125 80.5015 45.3999 80.5146 45.3999C80.5217 45.4008 80.5381 45.3914 80.5493 45.3872C80.5601 45.3834 80.569 45.3797 80.5788 45.3764C80.5849 45.3732 80.5915 45.3708 80.5985 45.3675C80.607 45.3642 80.6187 45.3572 80.6229 45.3577C80.6318 45.3596 80.6393 45.3614 80.6993 45.3164C80.7447 45.2818 80.7395 45.2944 80.7452 45.2982C80.7461 45.2982 80.7466 45.2991 80.7452 45.3001C80.7185 45.3277 80.7002 45.3478 80.7039 45.353C80.7058 45.3581 80.6941 45.375 80.6861 45.3867C80.695 45.3806 80.7044 45.3745 80.7142 45.3666C80.7142 45.368 80.7152 45.3675 80.7128 45.3689C80.7067 45.3773 80.6974 45.3872 80.695 45.3928C80.6913 45.3989 80.6932 45.3998 80.6927 45.4041C80.6913 45.4106 80.6613 45.4308 80.6627 45.4308C80.6725 45.4275 80.651 45.4481 80.6473 45.4537C80.6637 45.4462 80.6805 45.4397 80.6974 45.4327L80.6988 45.4312L80.7007 45.4308C82.1344 44.824 83.3732 43.9591 84.4167 42.8008C86.5593 40.4216 88.7301 38.0653 90.9168 35.724C92.3458 34.1942 93.9403 32.8574 95.7465 31.7273C96.0975 31.5075 96.4353 31.2634 96.7609 31.0025C96.7609 31.0025 98.1937 29.7276 98.539 29.3691C100.283 27.5582 101.675 25.4976 103.03 23.4121C103.248 23.0766 103.428 22.6839 103.492 22.2969C103.696 21.0867 103.217 20.0957 102.373 19.2116Z" fill="url(#paint16_linear_65_3693)"/>
<defs>
<filter id="filter0_f_65_3693" x="19.3184" y="36.2271" width="5.99923" height="6.04293" filterUnits="userSpaceOnUse" color-interpolation-filters="sRGB">
<feFlood flood-opacity="0" result="BackgroundImageFix"/>
<feBlend mode="normal" in="SourceGraphic" in2="BackgroundImageFix" result="shape"/>
<feGaussianBlur stdDeviation="0.0578516" result="effect1_foregroundBlur_65_3693"/>
</filter>
<linearGradient id="paint0_linear_65_3693" x1="32.6077" y1="10.1631" x2="31.4667" y2="55.6488" gradientUnits="userSpaceOnUse">
<stop stop-color="#DECE98"/>
<stop offset="0.215625" stop-color="#D3BA65"/>
<stop offset="0.913541" stop-color="#9D894D"/>
</linearGradient>
<radialGradient id="paint1_radial_65_3693" cx="0" cy="0" r="1" gradientUnits="userSpaceOnUse" gradientTransform="translate(21.583 39.0814) rotate(-48.1309) scale(37.4746 93.1197)">
<stop offset="0.139365"/>
<stop offset="0.50953" stop-color="#413B47"/>
<stop offset="0.753125" stop-color="#625664"/>
<stop offset="1" stop-color="#968387"/>
</radialGradient>
<radialGradient id="paint2_radial_65_3693" cx="0" cy="0" r="1" gradientUnits="userSpaceOnUse" gradientTransform="translate(21.583 39.0814) rotate(-48.1309) scale(37.4746 93.1197)">
<stop offset="0.139365"/>
<stop offset="0.50953" stop-color="#413B47"/>
<stop offset="0.753125" stop-color="#625664"/>
<stop offset="1" stop-color="#968387"/>
</radialGradient>
<linearGradient id="paint3_linear_65_3693" x1="31.1886" y1="26.1719" x2="30.771" y2="42.6938" gradientUnits="userSpaceOnUse">
<stop stop-color="#DECE98"/>
<stop offset="0.215625" stop-color="#D3BA65"/>
<stop offset="0.913541" stop-color="#9D894D"/>
</linearGradient>
<radialGradient id="paint4_radial_65_3693" cx="0" cy="0" r="1" gradientUnits="userSpaceOnUse" gradientTransform="translate(26.5737 37.4557) rotate(-48.1309) scale(19.552 48.5842)">
<stop offset="0.139365"/>
<stop offset="0.50953" stop-color="#413B47"/>
<stop offset="0.753125" stop-color="#625664"/>
<stop offset="1" stop-color="#968387"/>
</radialGradient>
<radialGradient id="paint5_radial_65_3693" cx="0" cy="0" r="1" gradientUnits="userSpaceOnUse" gradientTransform="translate(22.318 39.2487) rotate(90) scale(3.34245 3.31713)">
<stop stop-color="#A8B3B3"/>
<stop offset="0.387755" stop-color="#C9CACA"/>
<stop offset="0.675" stop-color="#E3E1DD"/>
<stop offset="1" stop-color="#FFFBF2"/>
</radialGradient>
<linearGradient id="paint6_linear_65_3693" x1="94.9433" y1="33.3125" x2="93.9591" y2="48.9188" gradientUnits="userSpaceOnUse">
<stop stop-color="#D3BA65"/>
<stop offset="0.538541" stop-color="#9D894D"/>
</linearGradient>
<linearGradient id="paint7_linear_65_3693" x1="93.6488" y1="48.4033" x2="93.5227" y2="54.1784" gradientUnits="userSpaceOnUse">
<stop stop-color="#D3BA65"/>
<stop offset="0.538541" stop-color="#9D894D"/>
</linearGradient>
<linearGradient id="paint8_linear_65_3693" x1="104.045" y1="32.7998" x2="103.346" y2="51.141" gradientUnits="userSpaceOnUse">
<stop stop-color="#D3BA65"/>
<stop offset="0.538541" stop-color="#9D894D"/>
</linearGradient>
<linearGradient id="paint9_linear_65_3693" x1="129.95" y1="1.56152" x2="127.064" y2="45.314" gradientUnits="userSpaceOnUse">
<stop stop-color="#DECE98"/>
<stop offset="0.215625" stop-color="#D3BA65"/>
<stop offset="0.913541" stop-color="#9D894D"/>
</linearGradient>
<linearGradient id="paint10_linear_65_3693" x1="115.732" y1="18.0664" x2="114.405" y2="41.2685" gradientUnits="userSpaceOnUse">
<stop stop-color="#DECE98"/>
<stop offset="0.215625" stop-color="#D3BA65"/>
<stop offset="0.913541" stop-color="#9D894D"/>
</linearGradient>
<linearGradient id="paint11_linear_65_3693" x1="158.077" y1="36.96" x2="157.029" y2="62.0957" gradientUnits="userSpaceOnUse">
<stop stop-color="#DECE98"/>
<stop offset="0.507291" stop-color="#9D894D"/>
</linearGradient>
<linearGradient id="paint12_linear_65_3693" x1="180.699" y1="38.8125" x2="180.265" y2="66.7918" gradientUnits="userSpaceOnUse">
<stop stop-color="#DECE98"/>
<stop offset="0.507291" stop-color="#9D894D"/>
</linearGradient>
<linearGradient id="paint13_linear_65_3693" x1="159.665" y1="7.80957" x2="158.878" y2="40.2342" gradientUnits="userSpaceOnUse">
<stop offset="0.325" stop-color="#DECE98"/>
<stop offset="0.621875" stop-color="#D3BA65"/>
<stop offset="1" stop-color="#9D894D"/>
</linearGradient>
<linearGradient id="paint14_linear_65_3693" x1="75.7051" y1="-2.48774e-08" x2="74.5446" y2="31.8245" gradientUnits="userSpaceOnUse">
<stop offset="0.226041" stop-color="#DECE98"/>
<stop offset="0.611458" stop-color="#D3BA65"/>
<stop offset="1" stop-color="#9D894D"/>
</linearGradient>
<linearGradient id="paint15_linear_65_3693" x1="70.9857" y1="6.05469" x2="70.9278" y2="11.2098" gradientUnits="userSpaceOnUse">
<stop offset="0.226041" stop-color="#DECE98"/>
<stop offset="0.611458" stop-color="#D3BA65"/>
<stop offset="1" stop-color="#9D894D"/>
</linearGradient>
<linearGradient id="paint16_linear_65_3693" x1="95.0518" y1="5.79297" x2="93.5603" y2="44.3926" gradientUnits="userSpaceOnUse">
<stop offset="0.226041" stop-color="#DECE98"/>
<stop offset="0.611458" stop-color="#D3BA65"/>
<stop offset="1" stop-color="#9D894D"/>
</linearGradient>
</defs>
</svg>
