<svg width="72" height="24" viewBox="0 0 72 24" fill="none" xmlns="http://www.w3.org/2000/svg">
<path d="M6.39826 3.70379C6.23104 4.1452 6.06302 4.58869 6.20154 4.89236L8.07145 8.8141L5.47432 15.6694L5.97025 16.3621L9.36093 12.0847L11.5124 15.7843L10.9367 17.5204L11.3487 18.4347L11.9462 17.0413L12.6094 17.2925C12.8532 17.3683 13.1348 17.238 13.218 17.0183L13.4692 16.3552L14.9025 16.9177L14.4906 16.0033L12.7297 15.2359L8.02953 4.0706C7.89179 3.76485 7.45038 3.59762 7.0069 3.42961C6.78723 3.34639 6.48148 3.48413 6.39826 3.70379Z" fill="#FFD600"/>
<path d="M17.9318 6.06308C18.1317 6.06308 18.3037 6.13108 18.4477 6.26708C18.5997 6.39508 18.6757 6.55908 18.6757 6.75908C18.6757 6.86308 18.6517 6.97108 18.6037 7.08308L15.6397 14.0191C15.5677 14.1791 15.4637 14.2991 15.3277 14.3791C15.1997 14.4511 15.0677 14.4871 14.9318 14.4871C14.8038 14.4791 14.6797 14.4391 14.5597 14.3671C14.4397 14.2871 14.3477 14.1751 14.2837 14.0311L11.3197 7.07108C11.2957 7.02308 11.2797 6.97508 11.2717 6.92708C11.2637 6.87108 11.2597 6.81908 11.2597 6.77108C11.2597 6.53908 11.3437 6.36308 11.5117 6.24308C11.6797 6.11508 11.8397 6.05108 11.9917 6.05108C12.2957 6.05108 12.5157 6.20708 12.6517 6.51908L15.2797 12.6991L14.8597 12.7111L17.2717 6.51908C17.4078 6.21508 17.6278 6.06308 17.9318 6.06308Z" fill="#FFD600"/>
<path d="M20.8447 7.97108L18.2527 14.0671C18.1967 14.2191 18.1087 14.3391 17.9887 14.4271C17.8767 14.5071 17.7527 14.5471 17.6167 14.5471C17.4007 14.5471 17.2407 14.4871 17.1367 14.3671C17.0327 14.2471 16.9807 14.0991 16.9807 13.9231C16.9807 13.8511 16.9927 13.7751 17.0167 13.6951L20.0047 6.51908C20.0687 6.35908 20.1647 6.23508 20.2927 6.14708C20.4287 6.05908 20.5727 6.02308 20.7247 6.03908C20.8687 6.03908 21.0007 6.08308 21.1207 6.17108C21.2487 6.25108 21.3407 6.36708 21.3967 6.51908L24.3487 13.5511C24.3887 13.6551 24.4087 13.7511 24.4087 13.8391C24.4087 14.0551 24.3367 14.2271 24.1927 14.3551C24.0567 14.4831 23.9047 14.5471 23.7367 14.5471C23.5927 14.5471 23.4607 14.5031 23.3407 14.4151C23.2287 14.3271 23.1407 14.2071 23.0767 14.0551L20.4967 8.04308L20.8447 7.97108ZM18.6247 12.6031L19.2847 11.2231H22.5247L22.7527 12.6031H18.6247Z" fill="white"/>
<path d="M30.6407 6.49508C30.8487 6.59908 30.9687 6.76308 31.0007 6.98708C31.0407 7.21108 30.9847 7.41508 30.8327 7.59908C30.7287 7.74308 30.5927 7.82308 30.4247 7.83908C30.2647 7.85508 30.1007 7.82308 29.9327 7.74308C29.7407 7.65508 29.5367 7.58708 29.3207 7.53908C29.1127 7.49108 28.8927 7.46708 28.6607 7.46708C28.2287 7.46708 27.8407 7.53508 27.4967 7.67108C27.1607 7.80708 26.8727 8.00308 26.6327 8.25908C26.3927 8.50708 26.2087 8.80308 26.0807 9.14708C25.9607 9.49108 25.9007 9.87108 25.9007 10.2871C25.9007 10.7751 25.9687 11.1991 26.1047 11.5591C26.2487 11.9191 26.4447 12.2191 26.6927 12.4591C26.9407 12.6991 27.2327 12.8791 27.5687 12.9991C27.9047 13.1111 28.2687 13.1671 28.6607 13.1671C28.8767 13.1671 29.0927 13.1471 29.3087 13.1071C29.5247 13.0671 29.7327 12.9951 29.9327 12.8911C30.1007 12.8111 30.2647 12.7831 30.4247 12.8071C30.5927 12.8311 30.7327 12.9151 30.8447 13.0591C31.0047 13.2591 31.0607 13.4671 31.0127 13.6831C30.9727 13.8911 30.8527 14.0431 30.6527 14.1391C30.4447 14.2431 30.2287 14.3311 30.0047 14.4031C29.7887 14.4671 29.5687 14.5151 29.3447 14.5471C29.1207 14.5871 28.8927 14.6071 28.6607 14.6071C28.0847 14.6071 27.5367 14.5151 27.0167 14.3311C26.5047 14.1471 26.0447 13.8751 25.6367 13.5151C25.2367 13.1551 24.9207 12.7071 24.6887 12.1711C24.4567 11.6271 24.3407 10.9991 24.3407 10.2871C24.3407 9.67108 24.4447 9.10308 24.6527 8.58308C24.8687 8.06308 25.1687 7.61508 25.5527 7.23908C25.9447 6.85508 26.4047 6.55908 26.9327 6.35108C27.4607 6.13508 28.0367 6.02708 28.6607 6.02708C29.0127 6.02708 29.3567 6.06708 29.6927 6.14708C30.0287 6.22708 30.3447 6.34308 30.6407 6.49508Z" fill="white"/>
<path d="M33.8447 7.97108L31.2527 14.0671C31.1967 14.2191 31.1087 14.3391 30.9887 14.4271C30.8767 14.5071 30.7527 14.5471 30.6167 14.5471C30.4007 14.5471 30.2407 14.4871 30.1367 14.3671C30.0327 14.2471 29.9807 14.0991 29.9807 13.9231C29.9807 13.8511 29.9927 13.7751 30.0167 13.6951L33.0047 6.51908C33.0687 6.35908 33.1647 6.23508 33.2927 6.14708C33.4287 6.05908 33.5727 6.02308 33.7247 6.03908C33.8687 6.03908 34.0007 6.08308 34.1207 6.17108C34.2487 6.25108 34.3407 6.36708 34.3967 6.51908L37.3487 13.5511C37.3887 13.6551 37.4087 13.7511 37.4087 13.8391C37.4087 14.0551 37.3367 14.2271 37.1927 14.3551C37.0567 14.4831 36.9047 14.5471 36.7367 14.5471C36.5927 14.5471 36.4607 14.5031 36.3407 14.4151C36.2287 14.3271 36.1407 14.2071 36.0767 14.0551L33.4967 8.04308L33.8447 7.97108ZM31.6247 12.6031L32.2847 11.2231H35.5247L35.7527 12.6031H31.6247Z" fill="white"/>
<path d="M39.6047 14.4871C39.3807 14.4871 39.1967 14.4191 39.0527 14.2831C38.9087 14.1391 38.8367 13.9631 38.8367 13.7551V6.79508H40.3967V13.7551C40.3967 13.9631 40.3207 14.1391 40.1687 14.2831C40.0247 14.4191 39.8367 14.4871 39.6047 14.4871ZM36.9527 7.46708C36.7447 7.46708 36.5687 7.40308 36.4247 7.27508C36.2887 7.14708 36.2207 6.97908 36.2207 6.77108C36.2207 6.56308 36.2887 6.39908 36.4247 6.27908C36.5687 6.15108 36.7447 6.08708 36.9527 6.08708H42.2807C42.4887 6.08708 42.6607 6.15108 42.7967 6.27908C42.9407 6.40708 43.0127 6.57508 43.0127 6.78308C43.0127 6.99108 42.9407 7.15908 42.7967 7.28708C42.6607 7.40708 42.4887 7.46708 42.2807 7.46708H36.9527Z" fill="white"/>
<path d="M46.2607 13.7551C46.2607 13.9631 46.1847 14.1391 46.0327 14.2831C45.8807 14.4191 45.7047 14.4871 45.5047 14.4871C45.2807 14.4871 45.1007 14.4191 44.9647 14.2831C44.8287 14.1391 44.7607 13.9631 44.7607 13.7551V6.81908C44.7607 6.61108 44.8327 6.43908 44.9767 6.30308C45.1207 6.15908 45.3047 6.08708 45.5287 6.08708C45.7207 6.08708 45.8887 6.15908 46.0327 6.30308C46.1847 6.43908 46.2607 6.61108 46.2607 6.81908V13.7551Z" fill="white"/>
<path d="M68.1327 6.08708C68.3247 6.08708 68.4807 6.15108 68.6007 6.27908C68.7207 6.40708 68.7807 6.56708 68.7807 6.75908V13.7551C68.7807 13.9631 68.7087 14.1391 68.5647 14.2831C68.4287 14.4191 68.2567 14.4871 68.0487 14.4871C67.9447 14.4871 67.8367 14.4711 67.7247 14.4391C67.6207 14.3991 67.5407 14.3471 67.4847 14.2831L62.7687 8.29508L63.0807 8.10308V13.8151C63.0807 14.0071 63.0167 14.1671 62.8887 14.2951C62.7687 14.4231 62.6087 14.4871 62.4087 14.4871C62.2167 14.4871 62.0607 14.4231 61.9407 14.2951C61.8207 14.1671 61.7607 14.0071 61.7607 13.8151V6.81908C61.7607 6.61108 61.8287 6.43908 61.9647 6.30308C62.1087 6.15908 62.2847 6.08708 62.4927 6.08708C62.6047 6.08708 62.7207 6.11108 62.8407 6.15908C62.9607 6.19908 63.0487 6.26308 63.1047 6.35108L67.6767 12.1831L67.4727 12.3271V6.75908C67.4727 6.56708 67.5327 6.40708 67.6527 6.27908C67.7727 6.15108 67.9327 6.08708 68.1327 6.08708Z" fill="white"/>
<mask id="mask0_5_178" style="mask-type:alpha" maskUnits="userSpaceOnUse" x="47" y="2" width="13" height="17">
<rect x="47.8607" y="2.48708" width="12" height="16" rx="6" fill="#D9D9D9"/>
</mask>
<g mask="url(#mask0_5_178)">
<path d="M55.2318 7.32334C54.9737 7.38685 54.7482 7.54032 54.5977 7.75492C54.4471 7.96952 54.3819 8.23049 54.4143 8.48879C54.4467 8.74708 54.5744 8.98493 54.7735 9.15764C54.9725 9.33036 55.2293 9.42605 55.4954 9.42674H58.4972C58.6899 9.42661 58.8803 9.38658 59.0561 9.3093C59.2318 9.23201 59.3887 9.11921 59.5167 8.97833C59.6446 8.83745 59.7405 8.67167 59.7982 8.49192C59.8559 8.31217 59.8739 8.12251 59.8512 7.93543C59.8285 7.74835 59.7656 7.5681 59.6665 7.40652C59.5674 7.24495 59.4345 7.10573 59.2764 6.99803C59.1183 6.89032 58.9387 6.81657 58.7494 6.78162C58.56 6.74668 58.3653 6.75134 58.1779 6.79529L57.815 6.89189" fill="white"/>
<path d="M58.1779 6.7953C58.0847 6.43417 57.8544 6.12123 57.5339 5.91991C57.2134 5.7186 56.8266 5.64397 56.452 5.71116C56.0773 5.77835 55.7427 5.98233 55.5162 6.28175C55.2896 6.58117 55.1879 6.95363 55.2318 7.32362C55.2318 7.32362 55.2735 7.55896 55.359 7.69237" fill="white"/>
<path d="M57.3432 13.5839C57.1071 13.642 56.9009 13.7824 56.7632 13.9787C56.6255 14.175 56.5658 14.4137 56.5954 14.65C56.625 14.8863 56.7419 15.1039 56.924 15.2618C57.1061 15.4198 57.3409 15.5074 57.5844 15.508H60.3303C60.5066 15.5079 60.6808 15.4713 60.8416 15.4006C61.0023 15.3299 61.1459 15.2267 61.2629 15.0978C61.3799 14.9689 61.4677 14.8173 61.5204 14.6529C61.5732 14.4884 61.5897 14.3149 61.569 14.1438C61.5482 13.9727 61.4906 13.8078 61.4 13.66C61.3093 13.5122 61.1877 13.3848 61.0431 13.2863C60.8985 13.1878 60.7342 13.1203 60.561 13.0883C60.3878 13.0564 60.2097 13.0606 60.0383 13.1008L59.7063 13.1892" fill="white"/>
<path d="M60.0383 13.1008C59.953 12.7705 59.7424 12.4842 59.4492 12.3001C59.156 12.1159 58.8022 12.0476 58.4594 12.1091C58.1167 12.1706 57.8106 12.3572 57.6034 12.6311C57.3961 12.905 57.3031 13.2457 57.3432 13.5841C57.3432 13.5841 57.3814 13.7994 57.4596 13.9215" fill="white"/>
<path d="M48.8515 11.9173C48.5417 11.9935 48.2711 12.1776 48.0905 12.4352C47.9099 12.6927 47.8316 13.0058 47.8705 13.3158C47.9093 13.6258 48.0626 13.9112 48.3015 14.1184C48.5404 14.3257 48.8484 14.4405 49.1678 14.4413H52.77C53.0012 14.4412 53.2297 14.3932 53.4406 14.3004C53.6514 14.2077 53.8398 14.0723 53.9933 13.9032C54.1468 13.7342 54.2619 13.5353 54.3311 13.3196C54.4003 13.1038 54.422 12.8763 54.3948 12.6518C54.3675 12.4273 54.292 12.211 54.1731 12.0171C54.0542 11.8232 53.8946 11.6561 53.705 11.5269C53.5153 11.3976 53.2997 11.3091 53.0725 11.2672C52.8453 11.2253 52.6116 11.2309 52.3868 11.2836L51.9513 11.3995" stroke="white" stroke-width="0.8" stroke-linecap="round" stroke-linejoin="round"/>
<path d="M52.3868 11.2836C52.2749 10.8503 51.9986 10.4747 51.614 10.2331C51.2294 9.99156 50.7653 9.90201 50.3157 9.98264C49.866 10.0633 49.4646 10.308 49.1927 10.6673C48.9208 11.0267 48.7988 11.4736 48.8515 11.9176C48.8515 11.9176 48.9016 12.2 49.0041 12.3601" stroke="white" stroke-width="0.8" stroke-linecap="round" stroke-linejoin="round"/>
<rect x="48.3607" y="2.98708" width="11" height="15" rx="5.5" stroke="white"/>
</g>
<path d="M14 18.5206C15.52 20.8016 22.1333 23.1269 28.0533 19.9914C37.5467 14.9633 43.9467 16.0929 48 18.9442" stroke="#FFD600" stroke-width="0.8" stroke-linecap="round"/>
</svg>
