<svg width="20" height="24" viewBox="0 0 20 24" fill="none" xmlns="http://www.w3.org/2000/svg">
<g clip-path="url(#clip0_3_139)">
<path d="M17.6178 8.39934C17.7125 8.86177 17.8076 9.32638 17.6224 9.60407L15.1509 13.1773L16.6211 20.3591L16.021 20.9638L13.3561 16.2003L10.642 19.5093L10.9334 21.3149L10.3809 22.1519L10.0132 20.6809L9.3185 20.8232C9.06571 20.8591 8.8085 20.6855 8.76139 20.4554L8.61917 19.7607L7.11453 20.0873L7.66704 19.2503L9.52783 18.7737L15.949 8.50121C16.1337 8.22135 16.5961 8.12668 17.0607 8.03157C17.2909 7.98446 17.5707 8.1692 17.6178 8.39934Z" fill="#FFD600"/>
<mask id="mask0_3_139" style="mask-type:alpha" maskUnits="userSpaceOnUse" x="2" y="1" width="16" height="19">
<path d="M5.64587 1.05621L10.6459 1.05621L17.2258 5.24695L8.09351 19.5857L2.06617 14.9369L2.06617 5.66939L5.64587 1.05621Z" fill="#D9D9D9"/>
</mask>
<g mask="url(#mask0_3_139)">
<mask id="mask1_3_139" style="mask-type:alpha" maskUnits="userSpaceOnUse" x="2" y="1" width="13" height="17">
<rect width="12" height="16" rx="6" transform="matrix(-1 0 0 1 14.5799 1.93689)" fill="#D9D9D9"/>
</mask>
<g mask="url(#mask1_3_139)">
<path d="M7.20888 6.77315C7.46697 6.83666 7.69247 6.99013 7.84301 7.20473C7.99354 7.41933 8.05875 7.6803 8.02637 7.9386C7.994 8.19689 7.86628 8.43474 7.66721 8.60745C7.46813 8.78017 7.21141 8.87586 6.94526 8.87655H3.94346C3.75079 8.87642 3.56033 8.83639 3.38462 8.75911C3.20891 8.68182 3.05193 8.56902 2.92402 8.42814C2.79611 8.28726 2.70016 8.12148 2.64249 7.94173C2.58482 7.76198 2.56674 7.57232 2.58944 7.38524C2.61214 7.19816 2.6751 7.01791 2.77418 6.85633C2.87327 6.69476 3.00622 6.55554 3.1643 6.44784C3.32237 6.34013 3.50199 6.26638 3.69131 6.23143C3.88064 6.19649 4.07539 6.20115 4.26275 6.2451L4.62569 6.3417" fill="white"/>
<path d="M4.26275 6.24511C4.35603 5.88398 4.58624 5.57104 4.90674 5.36972C5.22724 5.1684 5.61404 5.09378 5.98872 5.16097C6.3634 5.22816 6.69794 5.43214 6.92451 5.73156C7.15109 6.03098 7.25275 6.40343 7.20888 6.77343C7.20888 6.77343 7.16713 7.00877 7.08172 7.14218" fill="white"/>
<path d="M5.09742 13.0337C5.33352 13.0918 5.5398 13.2322 5.6775 13.4285C5.8152 13.6248 5.87485 13.8635 5.84524 14.0998C5.81563 14.3361 5.69879 14.5537 5.51669 14.7117C5.33458 14.8697 5.09973 14.9572 4.85627 14.9578H2.11032C1.93407 14.9577 1.75984 14.9211 1.59911 14.8504C1.43837 14.7797 1.29477 14.6765 1.17776 14.5476C1.06075 14.4187 0.972981 14.2671 0.920228 14.1027C0.867475 13.9382 0.850937 13.7647 0.871701 13.5936C0.892465 13.4225 0.950061 13.2576 1.0407 13.1098C1.13134 12.962 1.25296 12.8346 1.39756 12.7361C1.54216 12.6376 1.70647 12.5701 1.87966 12.5381C2.05285 12.5062 2.231 12.5104 2.40239 12.5507L2.7344 12.639" fill="white"/>
<path d="M2.4024 12.5507C2.48772 12.2203 2.69832 11.934 2.9915 11.7499C3.28468 11.5657 3.63851 11.4975 3.98126 11.5589C4.32401 11.6204 4.63003 11.807 4.8373 12.0809C5.04456 12.3548 5.13756 12.6955 5.09743 13.034C5.09743 13.034 5.05924 13.2492 4.9811 13.3713" fill="white"/>
<path d="M13.5892 11.3671C13.8989 11.4433 14.1695 11.6275 14.3502 11.885C14.5308 12.1425 14.6091 12.4557 14.5702 12.7656C14.5314 13.0756 14.3781 13.361 14.1392 13.5682C13.9003 13.7755 13.5922 13.8903 13.2729 13.8912H9.67072C9.43951 13.891 9.21096 13.843 9.00011 13.7502C8.78925 13.6575 8.60088 13.5221 8.44738 13.3531C8.29389 13.184 8.17875 12.9851 8.10955 12.7694C8.04035 12.5537 8.01865 12.3261 8.04589 12.1016C8.07313 11.8771 8.14868 11.6608 8.26758 11.4669C8.38648 11.273 8.54602 11.106 8.73572 10.9767C8.92541 10.8475 9.14094 10.759 9.36814 10.717C9.59533 10.6751 9.82903 10.6807 10.0539 10.7334L10.4894 10.8493" stroke="white" stroke-width="0.8" stroke-linecap="round" stroke-linejoin="round"/>
<path d="M10.0539 10.7334C10.1658 10.3001 10.442 9.92454 10.8266 9.68296C11.2112 9.44138 11.6754 9.35183 12.125 9.43246C12.5746 9.51309 12.9761 9.75787 13.248 10.1172C13.5199 10.4765 13.6418 10.9234 13.5892 11.3674C13.5892 11.3674 13.5391 11.6498 13.4366 11.8099" stroke="white" stroke-width="0.8" stroke-linecap="round" stroke-linejoin="round"/>
<rect x="-0.5" y="0.5" width="11" height="15" rx="5.5" transform="matrix(-1 0 0 1 13.5799 1.93689)" stroke="#FFD600"/>
</g>
</g>
</g>
<defs>
<clipPath id="clip0_3_139">
<rect width="19" height="23" fill="white" transform="translate(0.5 0.5)"/>
</clipPath>
</defs>
</svg>
