<svg width="36" height="32" viewBox="0 0 36 32" fill="none" xmlns="http://www.w3.org/2000/svg">
<mask id="mask0_5_164" style="mask-type:alpha" maskUnits="userSpaceOnUse" x="12" y="3" width="12" height="16">
<rect x="12" y="3" width="12" height="16" rx="6" fill="#D9D9D9"/>
</mask>
<g mask="url(#mask0_5_164)">
<path d="M18.8447 7.83627C18.5944 7.89977 18.3757 8.05324 18.2298 8.26784C18.0838 8.48245 18.0206 8.74341 18.0519 9.00171C18.0833 9.26001 18.2072 9.49786 18.4002 9.67057C18.5933 9.84328 18.8422 9.93897 19.1003 9.93966H22.0111C22.198 9.93953 22.3826 9.89951 22.553 9.82222C22.7234 9.74493 22.8756 9.63214 22.9997 9.49125C23.1237 9.35037 23.2168 9.1846 23.2727 9.00484C23.3286 8.82509 23.3461 8.63543 23.3241 8.44835C23.3021 8.26128 23.2411 8.08102 23.145 7.91945C23.0489 7.75788 22.92 7.61866 22.7667 7.51095C22.6134 7.40324 22.4392 7.32949 22.2556 7.29455C22.072 7.2596 21.8832 7.26426 21.7015 7.30822L21.3496 7.40481" fill="white"/>
<path d="M21.7015 7.30823C21.6111 6.9471 21.3878 6.63415 21.077 6.43284C20.7663 6.23152 20.3912 6.15689 20.0279 6.22408C19.6645 6.29128 19.3401 6.49526 19.1204 6.79468C18.9007 7.0941 18.8021 7.46655 18.8447 7.83654C18.8447 7.83654 18.8852 8.07188 18.968 8.2053" fill="white"/>
<path d="M20.8921 14.0968C20.6632 14.1549 20.4632 14.2953 20.3296 14.4916C20.1961 14.6879 20.1383 14.9266 20.167 15.1629C20.1957 15.3992 20.309 15.6168 20.4856 15.7748C20.6622 15.9328 20.8899 16.0203 21.126 16.0209H23.7887C23.9596 16.0208 24.1286 15.9842 24.2844 15.9135C24.4403 15.8428 24.5795 15.7396 24.693 15.6107C24.8065 15.4819 24.8916 15.3302 24.9427 15.1658C24.9939 15.0013 25.0099 14.8279 24.9898 14.6567C24.9697 14.4856 24.9138 14.3207 24.8259 14.1729C24.738 14.0251 24.6201 13.8977 24.4799 13.7992C24.3397 13.7007 24.1803 13.6332 24.0124 13.6013C23.8444 13.5693 23.6717 13.5736 23.5055 13.6138L23.1835 13.7021" fill="white"/>
<path d="M23.5055 13.6138C23.4228 13.2834 23.2185 12.9971 22.9342 12.813C22.6499 12.6288 22.3068 12.5606 21.9745 12.622C21.6421 12.6835 21.3454 12.8701 21.1444 13.144C20.9434 13.4179 20.8532 13.7586 20.8921 14.0971C20.8921 14.0971 20.9292 14.3123 21.0049 14.4344" fill="white"/>
<path d="M12.6577 12.4302C12.3573 12.5064 12.0949 12.6906 11.9198 12.9481C11.7446 13.2056 11.6687 13.5188 11.7064 13.8287C11.7441 14.1387 11.8927 14.4241 12.1243 14.6313C12.356 14.8386 12.6547 14.9534 12.9644 14.9543H16.4574C16.6816 14.9541 16.9033 14.9061 17.1077 14.8133C17.3122 14.7206 17.4948 14.5852 17.6437 14.4162C17.7925 14.2471 17.9042 14.0482 17.9713 13.8325C18.0384 13.6168 18.0594 13.3892 18.033 13.1647C18.0066 12.9402 17.9333 12.7239 17.818 12.53C17.7028 12.3361 17.548 12.1691 17.3641 12.0398C17.1802 11.9106 16.9712 11.8221 16.7508 11.7801C16.5305 11.7382 16.3039 11.7438 16.0859 11.7965L15.6636 11.9124" stroke="white" stroke-width="0.8" stroke-linecap="round" stroke-linejoin="round"/>
<path d="M16.0859 11.7965C15.9774 11.3632 15.7095 10.9876 15.3365 10.7461C14.9636 10.5045 14.5135 10.4149 14.0775 10.4956C13.6415 10.5762 13.2522 10.821 12.9886 11.1803C12.7249 11.5396 12.6066 11.9865 12.6577 12.4305C12.6577 12.4305 12.7063 12.7129 12.8057 12.873" stroke="white" stroke-width="0.8" stroke-linecap="round" stroke-linejoin="round"/>
<rect x="12.5" y="3.5" width="11" height="15" rx="5.5" stroke="#FFD600"/>
</g>
<path d="M7.546 22.788C7.63 22.788 7.702 22.816 7.762 22.872C7.822 22.928 7.852 22.996 7.852 23.076C7.852 23.12 7.842 23.166 7.822 23.214L6.304 26.802C6.272 26.87 6.228 26.92 6.172 26.952C6.12 26.984 6.066 27 6.01 27C5.954 26.996 5.9 26.978 5.848 26.946C5.8 26.914 5.762 26.868 5.734 26.808L4.216 23.214C4.208 23.194 4.202 23.174 4.198 23.154C4.194 23.13 4.192 23.106 4.192 23.082C4.192 22.99 4.226 22.918 4.294 22.866C4.362 22.814 4.428 22.788 4.492 22.788C4.62 22.788 4.714 22.854 4.774 22.986L6.148 26.244H5.974L7.27 22.98C7.326 22.852 7.418 22.788 7.546 22.788ZM9.52389 23.58L8.17389 26.82C8.14989 26.884 8.11389 26.934 8.06589 26.97C8.01789 27.006 7.96389 27.024 7.90389 27.024C7.81589 27.024 7.74989 27 7.70589 26.952C7.66189 26.9 7.63789 26.836 7.63389 26.76C7.63389 26.732 7.63989 26.7 7.65189 26.664L9.17589 22.98C9.20389 22.912 9.24389 22.86 9.29589 22.824C9.35189 22.788 9.41189 22.772 9.47589 22.776C9.53589 22.776 9.59189 22.794 9.64389 22.83C9.69589 22.866 9.73389 22.916 9.75789 22.98L11.2639 26.61C11.2799 26.65 11.2879 26.69 11.2879 26.73C11.2879 26.818 11.2579 26.89 11.1979 26.946C11.1419 26.998 11.0779 27.024 11.0059 27.024C10.9459 27.024 10.8899 27.006 10.8379 26.97C10.7899 26.93 10.7539 26.88 10.7299 26.82L9.36789 23.598L9.52389 23.58ZM8.41389 25.968L8.68389 25.392H10.3819L10.4839 25.968H8.41389ZM14.5262 23.04C14.6142 23.084 14.6642 23.152 14.6762 23.244C14.6922 23.336 14.6702 23.42 14.6102 23.496C14.5662 23.556 14.5082 23.59 14.4362 23.598C14.3682 23.606 14.3002 23.592 14.2322 23.556C14.1162 23.496 13.9942 23.448 13.8662 23.412C13.7382 23.376 13.6022 23.358 13.4582 23.358C13.2302 23.358 13.0242 23.396 12.8402 23.472C12.6602 23.544 12.5042 23.65 12.3722 23.79C12.2402 23.926 12.1382 24.088 12.0662 24.276C11.9982 24.464 11.9642 24.672 11.9642 24.9C11.9642 25.152 12.0022 25.376 12.0782 25.572C12.1542 25.764 12.2582 25.928 12.3902 26.064C12.5262 26.196 12.6842 26.296 12.8642 26.364C13.0482 26.428 13.2462 26.46 13.4582 26.46C13.5942 26.46 13.7262 26.444 13.8542 26.412C13.9862 26.38 14.1102 26.332 14.2262 26.268C14.2982 26.232 14.3682 26.22 14.4362 26.232C14.5082 26.24 14.5662 26.274 14.6102 26.334C14.6782 26.418 14.7022 26.504 14.6822 26.592C14.6662 26.676 14.6162 26.74 14.5322 26.784C14.4322 26.84 14.3222 26.888 14.2022 26.928C14.0822 26.968 13.9602 27 13.8362 27.024C13.7122 27.048 13.5862 27.06 13.4582 27.06C13.1702 27.06 12.8982 27.012 12.6422 26.916C12.3862 26.82 12.1582 26.68 11.9582 26.496C11.7582 26.312 11.6002 26.086 11.4842 25.818C11.3722 25.55 11.3162 25.244 11.3162 24.9C11.3162 24.592 11.3682 24.308 11.4722 24.048C11.5802 23.784 11.7302 23.558 11.9222 23.37C12.1182 23.178 12.3462 23.03 12.6062 22.926C12.8662 22.818 13.1502 22.764 13.4582 22.764C13.6502 22.764 13.8362 22.788 14.0162 22.836C14.2002 22.884 14.3702 22.952 14.5262 23.04ZM16.5587 23.58L15.2087 26.82C15.1847 26.884 15.1487 26.934 15.1007 26.97C15.0527 27.006 14.9987 27.024 14.9387 27.024C14.8507 27.024 14.7847 27 14.7407 26.952C14.6967 26.9 14.6727 26.836 14.6687 26.76C14.6687 26.732 14.6747 26.7 14.6867 26.664L16.2107 22.98C16.2387 22.912 16.2787 22.86 16.3307 22.824C16.3867 22.788 16.4467 22.772 16.5107 22.776C16.5707 22.776 16.6267 22.794 16.6787 22.83C16.7307 22.866 16.7687 22.916 16.7927 22.98L18.2987 26.61C18.3147 26.65 18.3227 26.69 18.3227 26.73C18.3227 26.818 18.2927 26.89 18.2327 26.946C18.1767 26.998 18.1127 27.024 18.0407 27.024C17.9807 27.024 17.9247 27.006 17.8727 26.97C17.8247 26.93 17.7887 26.88 17.7647 26.82L16.4027 23.598L16.5587 23.58ZM15.4487 25.968L15.7187 25.392H17.4167L17.5187 25.968H15.4487ZM19.6774 27C19.5814 27 19.5034 26.972 19.4434 26.916C19.3874 26.856 19.3594 26.782 19.3594 26.694V23.1H20.0014V26.694C20.0014 26.782 19.9694 26.856 19.9054 26.916C19.8454 26.972 19.7694 27 19.6774 27ZM18.3154 23.376C18.2314 23.376 18.1594 23.35 18.0994 23.298C18.0394 23.242 18.0094 23.17 18.0094 23.082C18.0094 22.998 18.0394 22.93 18.0994 22.878C18.1594 22.826 18.2314 22.8 18.3154 22.8H21.0454C21.1294 22.8 21.1994 22.828 21.2554 22.884C21.3154 22.936 21.3454 23.004 21.3454 23.088C21.3454 23.176 21.3154 23.246 21.2554 23.298C21.1994 23.35 21.1294 23.376 21.0454 23.376H18.3154ZM22.3543 26.694C22.3503 26.782 22.3163 26.856 22.2523 26.916C22.1923 26.972 22.1203 27 22.0363 27C21.9443 27 21.8683 26.972 21.8083 26.916C21.7523 26.856 21.7243 26.782 21.7243 26.694V23.106C21.7243 23.018 21.7543 22.946 21.8143 22.89C21.8743 22.83 21.9523 22.8 22.0483 22.8C22.1283 22.8 22.1983 22.83 22.2583 22.89C22.3223 22.946 22.3543 23.018 22.3543 23.106V26.694ZM26.8519 24.9C26.8519 25.204 26.8019 25.488 26.7019 25.752C26.6019 26.012 26.4599 26.24 26.2759 26.436C26.0959 26.632 25.8819 26.786 25.6339 26.898C25.3859 27.006 25.1139 27.06 24.8179 27.06C24.5259 27.06 24.2559 27.006 24.0079 26.898C23.7599 26.786 23.5439 26.632 23.3599 26.436C23.1799 26.24 23.0399 26.012 22.9399 25.752C22.8439 25.488 22.7959 25.204 22.7959 24.9C22.7959 24.596 22.8439 24.314 22.9399 24.054C23.0399 23.79 23.1799 23.56 23.3599 23.364C23.5439 23.168 23.7599 23.016 24.0079 22.908C24.2559 22.796 24.5259 22.74 24.8179 22.74C25.1139 22.74 25.3859 22.796 25.6339 22.908C25.8819 23.016 26.0959 23.168 26.2759 23.364C26.4599 23.56 26.6019 23.79 26.7019 24.054C26.8019 24.314 26.8519 24.596 26.8519 24.9ZM26.2039 24.9C26.2039 24.604 26.1439 24.338 26.0239 24.102C25.9079 23.866 25.7459 23.68 25.5379 23.544C25.3299 23.408 25.0899 23.34 24.8179 23.34C24.5499 23.34 24.3119 23.408 24.1039 23.544C23.8959 23.68 23.7339 23.866 23.6179 24.102C23.5019 24.334 23.4439 24.6 23.4439 24.9C23.4439 25.196 23.5019 25.462 23.6179 25.698C23.7339 25.934 23.8959 26.12 24.1039 26.256C24.3119 26.392 24.5499 26.46 24.8179 26.46C25.0899 26.46 25.3299 26.392 25.5379 26.256C25.7459 26.12 25.9079 25.934 26.0239 25.698C26.1439 25.462 26.2039 25.196 26.2039 24.9ZM30.4383 22.8C30.5183 22.8 30.5823 22.828 30.6303 22.884C30.6823 22.936 30.7083 23.002 30.7083 23.082V26.694C30.7083 26.782 30.6783 26.856 30.6183 26.916C30.5623 26.972 30.4903 27 30.4023 27C30.3623 27 30.3183 26.992 30.2703 26.976C30.2263 26.96 30.1923 26.938 30.1683 26.91L27.7023 23.712L27.8403 23.634V26.724C27.8403 26.8 27.8143 26.866 27.7623 26.922C27.7103 26.974 27.6443 27 27.5643 27C27.4803 27 27.4123 26.974 27.3603 26.922C27.3123 26.866 27.2883 26.8 27.2883 26.724V23.106C27.2883 23.014 27.3183 22.94 27.3783 22.884C27.4383 22.828 27.5103 22.8 27.5943 22.8C27.6383 22.8 27.6843 22.81 27.7323 22.83C27.7843 22.846 27.8223 22.872 27.8463 22.908L30.2523 26.04L30.1623 26.124V23.082C30.1623 23.002 30.1883 22.936 30.2403 22.884C30.2923 22.828 30.3583 22.8 30.4383 22.8Z" fill="white"/>
</svg>
