<svg width="731" height="399" viewBox="0 0 731 399" fill="none" xmlns="http://www.w3.org/2000/svg">
<path d="M223.981 118.496C227.691 111.733 241.581 99.8008 267.45 106.178C299.788 114.15 288.125 131.249 340.077 131.469C350.444 130.108 361.03 129.287 365.523 131.689C377.362 126.02 406.342 116.17 427.546 122.122C434.615 124.425 450.024 130.095 455.113 134.346C470.487 147.357 492.104 151.612 513.426 151.491C502.293 150.914 481.513 145.401 487.45 127.968C494.872 106.178 540.992 95.5488 562.197 102.989C567.746 104.936 574.238 108.412 580.221 112.844C583.402 102.989 605.349 95.8373 618.92 112.844C620.435 114.743 621.663 116.638 622.631 118.521C626.695 118.046 635.035 120.497 635.884 134.103C635.914 134.588 635.913 135.088 635.884 135.602C643.482 124.731 663.238 101.395 681.474 95.0174C699.71 88.6398 715.623 69.6841 721.3 61.0035C713.72 76.6118 701.94 93.4009 688.365 102.989C665.04 119.465 658.679 144.975 653.378 157.199C649.137 166.978 628.639 185.013 618.92 192.807C597.892 204.145 545.763 226.396 505.474 224.696C475.94 223.449 451.622 206.118 427.546 193.39C399.98 242.927 354.567 236.483 335.306 227.069C333.569 228.554 330.552 229.479 325.761 229.479C332.07 242.6 311.289 247.549 304.559 247.549C301.814 247.549 298.248 247.042 295.017 245.92C287.383 252.27 244.125 255.675 223.45 256.584C219.21 257.824 212.636 260.942 220.27 263.493C229.812 266.682 243.595 253.926 253.667 263.493C263.74 273.059 248.366 291.661 229.812 286.346C211.258 281.031 222.92 269.87 229.812 270.402C236.704 270.933 239.354 274.654 236.704 277.842C235.428 279.376 232.804 280.418 230.542 280.613C241.568 284.531 245.959 277.21 246.776 273.059C247.836 260.845 226.631 267.745 220.27 270.402C213.908 273.059 208.607 277.842 198.005 277.311C189.523 276.886 187.756 274.299 187.933 273.059C186.872 274.122 182.843 275.929 175.21 274.654C165.668 273.059 151.756 270.402 152.945 281.031C154.133 291.661 169.909 284.751 173.619 290.598C177.33 296.444 179.177 307.605 154.133 305.479C129.089 303.353 127.499 310.793 114.246 315.045C100.993 319.297 79.2581 329.395 64.4148 327.269C48.6879 325.852 24.9739 319.722 55.9329 306.542C70.4228 303.353 102.371 296.763 114.246 295.912C129.089 294.849 135.451 288.472 126.969 284.22C120.183 280.819 112.832 279.614 110.005 279.437C102.937 278.728 93.0411 275.291 110.005 267.213C115.77 264.932 129.195 261.073 140.5 262.142C120.478 258.937 109.472 251.777 106.173 248.049C70.8765 244.622 70.6955 233.994 75.0172 229.108C59.2383 233.518 19.7387 235.95 6.1016 224.164C-6.19718 213.535 6.60185 204.5 14.5387 201.311C18.2204 195.43 26.9876 191.001 33.6678 191.001C32.0774 183.277 34.8341 166.659 58.5834 161.982C60.1158 152.854 74.5599 134.361 120.077 133.409C122.188 132.291 131.618 129.457 135.451 128.194C161.957 119.465 194.294 125.763 201.716 128.194C207.53 124.705 215.027 121.157 223.981 118.496Z" fill="url(#paint0_linear_334_1871)"/>
<path d="M234.053 202.374C231.049 200.425 226.843 195.465 234.053 191.213C243.065 185.899 252.077 191.213 253.667 195.465C255.258 199.717 248.366 220.976 223.45 213.535C198.535 206.095 204.366 170.486 229.812 171.018C255.258 171.549 262.679 183.241 263.74 191.213C264.8 199.185 262.679 216.192 236.704 221.507M236.704 221.507C215.923 225.759 202.953 211.941 199.065 204.5M236.704 221.507C224.806 226.004 214.368 225.054 205.957 221.818M199.065 204.5C200.655 204.5 204.26 204.181 205.957 202.906M199.065 204.5C193.764 204.677 182.737 202.693 181.041 193.339C179.919 187.153 182.6 182.485 185.618 179.521M281.764 164.64C279.643 161.664 271.338 155.959 267.45 153.479C232.25 133.071 210.728 149.582 204.366 160.388C192.916 161.238 190.053 171.372 190.053 176.332C188.796 176.932 187.163 178.003 185.618 179.521M365.523 131.689C361.03 129.287 350.444 130.108 340.077 131.469M365.523 131.689L337.956 143.381C316.752 150.29 293.956 145.507 286.535 139.661C280.597 134.984 267.097 132.397 261.089 131.689C212.742 126.587 201.362 144.09 201.716 153.479C195.408 154.542 183.359 161.238 185.618 179.521M365.523 131.689C377.362 126.02 406.342 116.17 427.546 122.122C434.615 124.425 450.024 130.095 455.113 134.346M223.981 118.496C232.043 116.099 241.286 114.421 251.547 114.15C257.378 113.265 270.631 113.725 276.993 122.654C284.944 133.815 308.27 135.409 319.402 134.346C324.245 133.884 332.096 132.516 340.077 131.469M223.981 118.496C227.691 111.733 241.581 99.8008 267.45 106.178C299.788 114.15 288.125 131.249 340.077 131.469M223.981 118.496C215.027 121.157 207.53 124.705 201.716 128.194M455.113 134.346C442.567 126.551 410.583 115.638 383.016 134.346M455.113 134.346C470.487 147.357 492.104 151.612 513.426 151.491M154.535 188.024C155.219 192.251 156.741 195.605 158.776 198.244M154.535 188.024C143.084 185.473 137.041 174.738 135.451 169.689M154.535 188.024C154.292 186.523 154.163 185.107 154.133 183.773M201.716 191.213C201.539 179.344 209.243 154.861 241.475 160.388C246.776 162.514 255.682 166.128 263.74 180.584C267.398 187.147 279.589 192.801 295.017 192.322M317.282 187.493C345.378 203.968 357.041 180.584 353.33 172.08C349.619 163.577 344.848 164.64 337.956 164.64C331.065 164.64 324.173 172.08 330.535 180.584C336.896 189.087 346.438 180.584 344.848 175.269C343.576 171.017 339.723 171.372 337.956 172.08M317.282 187.493C312.864 182.178 307.103 169.317 319.402 160.388C334.776 149.227 348.559 157.731 383.016 134.346M317.282 187.493C311.84 189.712 306.484 191.089 301.378 191.787M383.016 134.346C395.209 130.98 425.108 128.606 447.161 146.038C474.727 167.828 549.474 159.325 574.92 140.724C564.31 144.507 548.101 148.693 530.39 150.535M301.378 191.787C301.908 194.45 303.711 199.869 306.679 200.248M301.378 191.787C299.208 192.084 297.083 192.258 295.017 192.322M369.233 160.388C374.559 167.329 375.922 174.326 375.226 180.584M297.137 235.325C296.607 236.919 297.349 240.214 304.559 240.64C313.571 241.171 313.571 233.199 308.27 229.479C302.968 225.759 294.487 220.975 288.125 232.136C283.959 239.444 288.886 243.79 295.017 245.92M295.017 245.92C298.248 247.042 301.814 247.549 304.559 247.549C311.289 247.549 332.07 242.6 325.761 229.479M295.017 245.92C292.118 245.647 287.99 244.912 283.884 243.56M295.017 245.92C287.383 252.269 244.125 255.675 223.45 256.584C219.21 257.824 212.636 260.942 220.27 263.493C229.812 266.682 243.595 253.926 253.667 263.493C263.74 273.059 248.366 291.661 229.812 286.346C211.258 281.031 222.92 269.87 229.812 270.402C236.704 270.933 239.354 274.654 236.704 277.842C235.428 279.376 232.804 280.418 230.542 280.613M279.113 217.255C283.531 210.75 297.349 195.206 317.282 202.374C320.745 203.507 328.245 206.495 330.535 209.388M330.535 209.388C339.78 209.694 351.35 207.277 365.523 200.248C369.324 196.54 374.26 189.275 375.226 180.584M330.535 209.388C332.208 211.254 333.994 213.64 335.306 216.111M325.761 229.479C324.616 227.097 322.578 224.446 319.402 221.507C302.862 206.201 288.832 215.129 283.884 221.507C278.053 221.153 267.026 222.782 269.571 232.136C271.122 237.837 277.477 241.45 283.884 243.56M325.761 229.479C330.552 229.479 333.569 228.554 335.306 227.069M295.017 192.322C288.125 192.661 272.964 196.953 267.45 211.409C263.386 210.7 254.94 212.791 253.667 226.821C252.395 240.852 273.282 243.826 283.884 243.56M335.306 227.069C354.567 236.483 399.98 242.927 427.546 193.39M335.306 227.069C336.988 225.631 337.468 223.666 337.193 221.507M375.226 180.584C389.763 178.336 403.295 181.993 416.671 188.024M427.546 193.39C451.623 206.118 475.94 223.449 505.474 224.696C545.763 226.396 597.892 204.145 618.92 192.807C628.639 185.013 649.137 166.978 653.378 157.199C658.679 144.975 665.04 119.465 688.365 102.989C701.94 93.4009 713.72 76.6118 721.3 61.0035M427.546 193.39C426.132 192.642 424.719 191.91 423.306 191.199M337.193 221.507C352.997 229.647 392.347 234.98 423.306 191.199M337.193 221.507C336.972 219.776 336.266 217.921 335.306 216.111M423.306 191.199C421.096 190.086 418.886 189.023 416.671 188.024M335.306 216.111C351.558 222.693 390.583 226.29 416.671 188.024M431.787 172.08C472.501 227.778 569.089 205.917 612.558 183.773C619.45 179.521 636.611 169.011 643.305 150.535C649.243 134.149 665.924 114.845 673.522 107.241M526.149 127.968C531.273 128.677 539.296 132.221 530.39 140.724C519.257 151.352 484.799 135.409 505.474 122.122C526.149 108.836 544.173 110.961 553.715 119.465C563.257 127.968 546.823 149.583 530.39 150.535M530.39 150.535C524.84 151.112 519.144 151.459 513.426 151.491M513.426 151.491C502.293 150.914 481.513 145.401 487.45 127.968C494.872 106.178 540.992 95.5488 562.197 102.989C567.746 104.936 574.238 108.412 580.221 112.844M580.221 112.844C597.102 125.351 609.928 145.477 586.052 160.388C553.715 180.584 490.101 174.738 455.113 160.388C420.125 146.038 454.052 186 492.221 193.39C530.39 200.78 563.787 194.373 574.92 191.199C599.64 186.782 634.866 153.112 635.884 135.602M580.221 112.844C583.402 102.989 605.349 95.8373 618.92 112.844C620.435 114.743 621.663 116.638 622.631 118.521M513.426 186.43C548.414 189.087 580.221 180.584 596.655 171.017C611.62 162.305 632.495 137.717 622.631 118.521M622.631 118.521C626.695 118.046 635.035 120.497 635.884 134.103C635.914 134.588 635.913 135.088 635.884 135.602M730.245 32.3042C730.023 39.1912 726.745 49.7928 721.3 61.0035M721.3 61.0035C715.623 69.6841 699.71 88.6398 681.474 95.0174C663.238 101.395 643.482 124.731 635.884 135.602M158.776 198.244C154.535 217.255 133.86 214.066 132.8 206.094C132.623 203.968 133.436 200.035 138.101 201.311C142.766 202.587 141.812 206.449 140.752 208.22C143.579 208.574 149.446 207.689 150.294 201.311C151.142 194.934 146.407 193.339 143.933 193.339C144.168 192.749 144.247 191.914 143.933 191.001M158.776 198.244C162.071 202.518 166.71 204.914 171.301 206.094M187.933 209.103C187.032 208.053 186.258 207.038 185.618 206.094C182.753 207.139 177.064 207.575 171.301 206.094M187.933 209.103C182.419 216.613 169.833 222.762 160.366 224.696C131.74 230.542 115.836 216.724 114.246 204.5C112.656 192.276 124.848 183.773 135.451 185.898C141.105 187.032 143.304 189.174 143.933 191.001M187.933 209.103C190.59 212.203 194.354 215.616 199.065 218.446M143.933 191.001C138.985 189.123 124.848 185.898 122.728 201.311C120.387 218.322 144.463 220.975 152.945 217.255C159.73 214.279 168.009 208.574 171.301 206.094M192.173 224.696C183.144 237.343 173.497 244.032 164.077 246.788M164.077 246.788C143.412 252.833 123.835 239.944 114.246 229.479C111.478 226.214 108.02 220.497 106.173 213.535M164.077 246.788C168.433 247.73 175.589 247.688 183.161 244.608M205.957 221.818C203.479 220.866 201.177 219.714 199.065 218.446M205.957 221.818C199.822 234.555 191.254 241.316 183.161 244.608M199.065 218.446C198.535 223.529 194.612 235.878 183.161 244.608M135.451 169.898C129.619 171.116 116.366 176.022 110.005 185.898C104.059 195.528 104.012 205.385 106.173 213.535M142.872 159.857C140.904 165.88 140.4 179.096 154.133 183.773M154.133 183.773C153.992 177.456 156.066 172.958 158.776 169.898C161.496 166.826 164.856 165.202 167.258 164.64C166.038 152.41 170.959 145.222 176.974 141.255M176.974 141.255C181.414 138.327 186.451 137.154 190.053 137.004C192.372 134.62 196.32 131.432 201.716 128.194M176.974 141.255C147.003 129.35 135.037 146.216 132.8 156.136C118.133 153.438 87.3158 153.062 81.3785 173.143C79.258 178.316 77.6677 189.13 88.2701 191.001C87.0944 192.912 86.1172 195.495 86.0267 198.244M106.173 213.535C90.0138 211.307 85.8254 204.362 86.0267 198.244M86.0267 198.244C84.4773 198.735 79.364 197.973 71.3062 191.001C63.2484 184.028 67.9488 171.939 71.3062 166.766C77.3882 151.319 100.251 146.137 117.427 145.08M129.089 144.975C125.821 144.81 121.809 144.811 117.427 145.08M117.427 145.08C114.991 142.34 113.177 137.066 120.077 133.409M201.716 128.194C194.294 125.763 161.957 119.465 135.451 128.194C131.618 129.457 122.188 132.291 120.077 133.409M120.077 133.409C74.5599 134.361 60.1158 152.854 58.5834 161.982C34.8341 166.659 32.0775 183.277 33.6678 191.001C26.9876 191.001 18.2204 195.43 14.5387 201.311M62.8244 169.689C54.5192 170.309 38.5449 175.907 41.0895 193.339C36.4951 193.87 27.3064 196.209 27.3064 201.311C27.3064 207.689 32.0774 209.283 41.0895 210.346C50.1015 211.409 54.8726 207.689 54.3425 204.5C53.8123 201.311 47.9812 201.842 47.4509 206.094C46.214 202.987 45.8605 197.066 54.3425 198.244C64.9448 199.717 60.7039 210.877 57.5232 214.066C54.3425 217.255 31.5473 226.821 17.7642 215.661C11.8758 210.893 11.7927 205.698 14.5387 201.311M14.5387 201.311C6.60185 204.5 -6.19718 213.535 6.1016 224.164C19.7387 235.95 59.2383 233.518 75.0172 229.108M79.7882 227.353C78.6506 227.953 77.0262 228.547 75.0172 229.108M117.427 246.788C113.365 247.535 109.62 247.935 106.173 248.049M106.173 248.049C109.656 251.985 121.729 259.746 143.933 262.64M106.173 248.049C70.8765 244.622 70.6955 233.994 75.0172 229.108M241.475 235.325C237.587 238.07 228.646 244.205 223.981 246.788C218.149 250.016 187.933 265.619 152.945 263.493C149.773 263.3 146.77 263.01 143.933 262.64M226.631 277.842C226.081 280.049 228.101 280.824 230.542 280.613M187.933 273.059C187.756 274.299 189.523 276.886 198.005 277.311C208.607 277.842 213.908 273.059 220.27 270.402C226.631 267.745 247.836 260.845 246.776 273.059C245.959 277.21 241.568 284.531 230.542 280.613M187.933 273.059C187.049 270.175 188.569 264.224 201.716 263.493M187.933 273.059C186.872 274.122 182.843 275.929 175.21 274.654C165.668 273.059 151.756 270.402 152.945 281.031C154.133 291.661 169.909 284.751 173.619 290.598C177.33 296.444 179.177 307.605 154.133 305.479C129.089 303.353 127.499 310.793 114.246 315.045C100.993 319.297 79.2581 329.395 64.4148 327.269C48.6879 325.852 24.9739 319.722 55.9329 306.542C70.4228 303.353 102.371 296.763 114.246 295.912C129.089 294.849 135.451 288.472 126.969 284.22C120.183 280.819 112.832 279.614 110.005 279.437C102.937 278.728 93.0411 275.291 110.005 267.213C116.366 264.696 132.058 260.257 143.933 262.64" stroke="#8E7561" stroke-opacity="0.9" stroke-width="0.355729"/>
<path d="M312.558 67.157C313.603 60.631 318.45 56.0417 321.655 54.1604C323.821 52.7163 328.845 49.5682 331.617 48.5285C335.081 47.2288 340.278 16.0368 386.62 26.8675C393.838 21.8033 416.33 16.7466 448.552 37.0333C462.989 36.6846 495.067 42.18 507.886 66.9514C513.521 66.0976 515.249 66.9514 522.178 66.9514C526.942 66.9514 536.904 71.7848 539.502 75.8215C547.298 75.0995 564.102 77.9876 568.953 95.3165C572.273 95.6053 579.607 97.4826 582.378 102.681C584.544 107.199 585.583 118.647 572.417 128.303C566.165 138.733 553.661 149.04 533.851 152.502L529.541 155.967C522.611 174.596 455.049 182.827 442.056 176.543C429.063 170.258 427.764 176.543 402.644 182.827C382.549 187.855 369.151 180.732 364.965 176.543C356.631 179.6 342.606 181.662 319.923 180.661C272.802 178.581 263.133 165.065 264.188 158.567C260.5 157.157 257.319 154.828 254.959 151.202C234.17 139.418 241.966 124.92 248.462 119.144C246.383 103.894 263.765 97.7713 272.716 96.616C273.871 94.5944 277.393 91.1577 282.244 93.5836C285.815 89.6655 294.829 83.5589 306.6 84.2457C301.923 78.6272 307.76 71.1036 312.558 67.157Z" fill="url(#paint1_linear_334_1871)"/>
<path d="M351.106 65.4242C353.56 64.8466 358.209 64.8177 357.169 69.3232C355.87 74.9551 348.507 78.8541 343.743 78.8541C338.979 78.8541 328.585 74.5218 333.349 65.4242C338.113 56.3266 345.476 53.7273 355.87 56.3266C358.324 53.4385 365.744 48.3553 375.792 51.1279M375.792 51.1279C376.966 51.4518 377.97 51.8459 378.824 52.295M375.792 51.1279C378.68 47.0845 389.651 40.0374 410.44 44.1963C411.45 44.4851 414.164 45.496 416.936 47.2288C420.401 49.3949 466.309 38.1312 494.027 64.1244L498.791 69.1594M380.989 65.4242C383.157 62.2358 385.279 55.6907 378.824 52.295M375.792 73.6553C373.627 75.3882 368.43 78.8541 364.965 78.8541C360.634 78.8541 355.87 82.7529 353.271 84.0526C351.463 84.957 347.557 85.232 343.743 84.8777M386.62 65.4242C385.032 64.7021 381.249 64.0378 378.824 67.157C377.113 69.3572 375.816 73.2127 378.824 76.8554M421.7 81.8865C419.968 83.9082 412.259 87.1718 395.281 84.0526C386.035 82.3537 381.146 79.668 378.824 76.8554M421.7 81.8865C418.669 88.818 404.81 91.4173 389.218 87.5184C382.094 85.7369 379.152 83.2476 378.262 81.02M421.7 81.8865C422.566 79.2872 422.48 73.3954 415.204 70.6228C406.109 67.157 400.046 68.4564 400.479 73.6553C400.912 78.8541 413.038 77.9875 414.771 75.8214C411.739 79.9764 404.03 86.0003 397.447 76.8554C389.908 66.382 403.455 58.9584 419.102 62.7858M378.824 76.8554C378.081 77.8223 377.593 79.3474 378.262 81.02M429.929 87.5184C435.126 84.4858 440.756 70.6228 423.433 64.1244C421.981 63.58 420.533 63.1358 419.102 62.7858M429.929 87.5184C415.031 88.2115 405.531 94.7387 402.644 97.9157C400.334 94.8831 391.73 90.1177 375.792 95.3163C355.87 101.815 349.374 111.779 357.169 116.111C359.046 117.266 363.233 119.23 364.965 117.844C363.521 120.443 363.232 125.642 373.627 125.642C386.62 125.642 390.951 123.909 392.25 120.01M429.929 87.5184C433.013 87.5184 435.712 88.3968 437.988 89.6846M378.824 52.295C382.289 50.0287 391.124 45.8425 398.746 47.2288C408.274 48.9617 407.841 53.2939 414.771 55.0268C421.7 56.7597 436.425 49.8282 455.049 53.7271C462.989 54.935 481.554 60.2375 492.295 71.7848M445.954 97.9157C443.875 100.688 442.489 103.403 442.056 104.414C440.035 104.414 435.386 104.414 432.961 104.414M445.954 97.9157C450.429 91.5618 463.537 79.0274 480.168 79.7205C482.653 77.4005 486.862 74.3705 492.295 71.7848M445.954 97.9157C444.838 95.6837 442.106 92.0143 437.988 89.6846M392.25 120.01C397.88 118.71 400.479 113.078 397.88 110.912C395.281 108.746 387.919 107.447 386.62 111.779C385.58 115.244 389.074 114.956 390.951 114.378M392.25 120.01C382.841 122.501 379.444 118.979 379.121 116.111M380.989 113.078C379.738 113.078 378.939 114.49 379.121 116.111M379.121 116.111C375.846 115.967 370.595 114.291 375.792 108.746C382.289 101.815 392.683 101.381 400.479 106.147C405.82 100.804 419.188 92.1971 429.929 100.515C430.795 101.237 432.614 103.028 432.961 104.414M432.961 104.414C416.33 106.147 407.841 114.667 405.676 118.71M343.743 84.8777C342.077 84.7228 340.428 84.4478 338.979 84.0526C335.168 83.0128 331.905 83.6193 330.75 84.0526C322.522 84.0526 316.025 75.8214 319.923 64.1244C323.041 54.7668 335.659 50.4058 341.578 49.3949C346.342 41.3081 361.327 27.214 383.155 35.5318C391.672 30.7665 413.991 24.5282 435.126 37.6982C438.76 37.1654 443.378 36.868 448.552 37.0333M343.743 84.8777C338.113 90.9012 319.923 91.4173 313.86 76.8554C312.375 73.29 312.097 70.0351 312.558 67.157M312.558 67.157C313.603 60.631 318.45 56.0417 321.655 54.1604C323.821 52.7163 328.845 49.5682 331.617 48.5285C335.081 47.2288 340.278 16.0368 386.62 26.8675C393.838 21.8033 416.33 16.7466 448.552 37.0333M312.558 67.157C307.76 71.1036 301.923 78.6272 306.6 84.2457M378.262 81.02C370.203 90.0048 361.842 91.3692 355.87 91.2428M448.552 37.0333C462.989 36.6846 495.067 42.18 507.886 66.9514M507.886 66.9514C513.521 66.0976 515.249 66.9514 522.178 66.9514C526.942 66.9514 536.903 71.7848 539.502 75.8215C547.298 75.0995 564.102 77.9876 568.953 95.3165C572.273 95.6053 579.607 97.4826 582.378 102.681C584.544 107.199 585.583 118.647 572.417 128.303M507.886 66.9514C504.673 67.4384 501.626 68.2099 498.791 69.1594M498.791 69.1594C496.475 69.9351 494.302 70.8297 492.295 71.7848M545.565 102.681C547.531 101.245 551.38 99.5069 556.393 99.1229M490.129 149.902C484.066 152.068 473.239 152.502 470.207 152.502C467.175 152.502 452.883 149.902 447.686 142.104C444.642 137.537 446.52 132.536 448.934 129.108M490.129 149.902C531.013 136.732 528.53 118.71 522.178 111.346M490.129 149.902C501.24 152.65 511.181 153.795 520.013 153.719M572.417 128.303C579.068 117.206 578.645 105.969 572.417 102.681C566.475 99.5443 560.953 98.7735 556.393 99.1229M572.417 128.303C566.165 138.733 553.661 149.04 533.851 152.502M556.393 99.1229C543.977 88.1171 512.997 72.709 488.397 99.1229C478.003 99.2981 456.088 104.934 451.584 126.075M451.584 126.075C452.883 124.053 456.261 120.01 459.38 120.01M451.584 126.075C450.772 126.81 449.817 127.854 448.934 129.108M522.178 111.346C519.396 109.017 516.48 107.425 513.516 106.434M522.178 111.346C525.354 119.222 524.257 136.402 494.46 142.104C457.214 149.233 446.284 140.805 448.934 129.108M513.516 106.434C493.877 99.8668 472.166 119.676 473.672 126.075C475.058 131.967 482.911 130.552 486.664 129.108C481.9 130.066 475.231 129.327 486.664 118.71C500.957 105.439 508.319 105.856 513.516 106.434ZM485.365 87.5184C475.837 87.0852 454.269 91.5041 444.221 112.645C436.714 112.068 422.047 112.992 423.433 121.31C424.01 122.465 426.464 125.035 431.661 126.075C438.158 127.375 425.165 134.306 423.433 137.339C421.7 140.371 410.007 149.469 423.433 155.967M423.433 155.967C436.859 162.466 483.633 172.698 520.013 153.719M423.433 155.967C413.038 148.689 394.56 156.689 386.62 161.599M520.013 153.719C524.972 153.676 529.581 153.248 533.851 152.502M405.676 118.71C405.552 120.687 406.527 124.226 410.931 124.775M405.676 118.71C382.722 132.573 352.405 142.104 353.271 132.573C353.624 128.69 358.901 129.974 358.901 123.476C358.901 120.01 351.818 119.866 348.276 121.31M337.68 142.971C334.562 146.09 336.381 148.314 337.68 149.036C342.444 153.801 361.933 153.801 379.121 144.27C396.31 134.74 408.707 132.573 415.204 130.841C421.7 129.108 421.7 123.909 413.471 124.775C412.519 124.876 411.676 124.868 410.931 124.775M337.68 142.971C341.578 139.072 335.947 136.039 319.923 139.505M337.68 142.971C329.711 138.119 323.676 143.548 321.655 146.87M338.979 129.974C343.166 129.108 350.759 128.934 347.641 135.173C345.043 136.472 340.625 139.852 343.743 142.971C347.641 146.87 373.194 143.837 382.722 136.472C390.344 130.581 404.704 126.22 410.931 124.775M338.979 129.974C336.381 132.429 327.979 136.992 315.159 135.606M338.979 129.974C343.773 126.915 346.707 124.009 348.276 121.31M337.68 103.548C336.423 101.956 333.948 99.719 330.278 97.5717C321.1 98.3749 317.411 95.3309 316.331 92.2677M337.68 103.548C337.125 101.328 336.807 99.1874 335.041 96.8896C338.086 96.5095 344.869 94.7964 347.641 90.9841C348.375 90.2496 351.476 91.1497 355.87 91.2428M337.68 103.548C339.648 104.322 341.805 105.43 343.743 106.826M348.276 121.31C351.814 115.222 348.411 110.188 343.743 106.826M306.93 151.202C311.117 148.314 321.915 143.404 331.617 146.87C332.483 147.592 333.522 149.816 330.75 152.935C327.286 156.834 340.711 158.567 345.909 158.567C351.106 158.567 377.525 153.368 384.887 151.202C392.25 149.036 399.612 155.101 386.62 161.599M386.62 161.599C383.422 163.198 379.753 164.614 375.792 165.775M254.959 151.202C262.033 152.646 277.393 154.668 282.244 151.202M254.959 151.202C234.17 139.418 241.966 124.92 248.462 119.144M254.959 151.202C257.319 154.828 260.5 157.157 264.188 158.567M248.462 119.144C248.462 122.956 250.195 126.22 251.061 127.375M248.462 119.144C246.383 103.894 263.765 97.7713 272.716 96.616C273.871 94.5944 277.393 91.1577 282.244 93.5836M282.244 93.5836C280.078 95.6053 275.747 100.428 275.747 103.548C272.716 103.692 265.959 105.714 263.187 112.645C259.723 121.31 261.888 138.205 282.244 138.422C294.404 138.551 303.456 135.387 308.643 132.573M282.244 93.5836C285.815 89.6655 294.829 83.5589 306.6 84.2457M312.558 129.974C311.717 130.706 310.403 131.619 308.643 132.573M308.643 132.573C316.012 133.729 330.75 133.093 330.75 121.31C329.746 117.988 325.828 112.125 318.191 115.245C312.56 108.602 298.615 99.3021 287.874 115.245C286.863 118.133 286.661 124.082 293.937 124.775C301.213 125.469 301.3 121.31 300.434 119.144C299.134 117.988 296.016 116.371 293.937 119.144C294.515 116.544 297.229 112.125 303.465 115.245C311.261 119.144 310.828 133.44 287.008 131.707C263.187 129.974 269.251 111.346 275.747 107.447C277.624 105.714 282.244 102.508 285.708 103.548C284.554 99.1919 286.834 90.5812 305.198 90.9841C309.276 91.0736 312.988 91.5448 316.331 92.2677M306.6 84.2457C308.255 86.2337 311.226 87.9831 316.025 89.2512C315.896 90.1546 315.959 91.2123 316.331 92.2677M343.743 106.826C344.754 102.873 348.594 94.2223 355.87 91.2428M419.102 62.7858C420.69 60.0551 426.551 55.98 437.292 61.5253C450.718 68.4568 444.315 85.7856 437.988 89.6846M264.188 158.567C279.448 164.399 303.396 154.487 313.86 155.534C326.852 156.834 319.923 162.899 336.381 167.231C348.788 170.497 363.658 169.331 375.792 165.775M264.188 158.567C263.133 165.065 272.802 178.581 319.923 180.661C342.606 181.662 356.631 179.6 364.965 176.543M375.792 165.775C376.316 168.797 373.944 173.248 364.965 176.543M364.965 176.543C369.151 180.732 382.549 187.855 402.644 182.827C427.764 176.543 429.063 170.258 442.056 176.543C455.049 182.827 522.611 174.596 529.541 155.967L533.851 152.502" stroke="#8E7561" stroke-opacity="0.9" stroke-width="0.355729"/>
<path d="M720.488 84.7966C713.215 129.117 660.314 123.825 649.734 122.502C644.723 121.875 636.302 120.359 627.912 116.126C623.503 116.928 614.422 119.326 613.364 122.502C612.042 126.471 617.332 135.07 631.879 133.086C646.427 131.101 672.878 152.931 645.766 190.636C624.077 220.8 599.257 225.37 589.559 223.884C585.645 225.789 578.317 227.68 569.721 228.341C561.125 229.003 548.957 229.929 537.319 228.341C532.911 227.9 533.352 232.972 541.287 242.233C550.544 253.037 535.335 257.447 522.771 257.447C510.207 257.447 488.386 247.648 467.887 259.431C451.487 268.858 434.603 272.434 428.211 273.043C438.216 270.572 448.365 266.207 455.984 259.431C473.838 243.556 504.256 247.525 512.191 248.847C520.126 250.17 526.078 246.202 526.078 242.233C526.078 239.057 520.347 234.736 517.481 232.972C497.908 222.388 529.164 219.742 547.238 219.742C592.865 211.142 604.768 188.651 604.768 179.391C604.768 170.13 589.559 155.577 565.092 155.577C540.625 155.577 508.885 153.592 496.982 126.471C487.46 104.774 500.95 91.4118 508.885 87.4428C506.681 76.4179 511.001 51.4575 545.916 39.8152C551.084 28.909 567.868 10.9216 598.155 10.0541C620.197 0.0802281 670.894 -10.0625 697.344 29.1572C714.165 45.2717 723.314 67.5796 720.488 84.7966Z" fill="url(#paint2_linear_334_1871)"/>
<path d="M575.672 64.2905C584.93 55.0294 581.403 47.9734 577.656 43.1224C592.829 27.4294 607.777 17.7396 621.961 12.6374C652.382 1.69401 679.285 11.8559 697.344 29.1572M575.672 64.2905C583.607 64.2905 590 67.8183 592.204 69.5822C595.51 54.3679 612.967 25.3944 656.346 31.2156C699.725 37.0367 708.365 67.5978 707.263 82.1507C705.941 91.4116 696.551 110.727 669.571 113.902M575.672 64.2905C547.27 65.8781 535.624 83.0328 533.352 91.4118C529.42 93.1423 524.608 96.1973 520.788 100.421M547.238 144.993C532.955 144.464 523.653 137.275 520.788 133.747C510.239 119.45 513.9 108.036 520.788 100.421M610.058 100.536C607.945 97.3246 606.138 93.6447 604.768 89.4271C596.171 62.9673 639.815 25.2621 674.2 55.0294C708.586 84.7966 676.845 99.3495 669.571 102.657C662.297 105.964 627.912 105.964 624.606 89.4271C621.961 76.1972 634.965 70.6847 641.798 69.5822C645.766 69.1413 654.759 68.9208 658.991 71.5668C664.281 74.8742 666.926 93.3961 645.766 91.4116M610.058 100.536C598.596 99.0382 576.069 100.408 577.656 117.872C578.713 129.504 592.914 130.993 606.752 134.35M610.058 100.536C612.566 104.349 615.504 107.502 618.654 110.111M618.654 110.111C606.014 111.777 585.937 118.957 606.752 134.35M618.654 110.111C621.614 112.564 624.761 114.536 627.912 116.126M606.752 134.35C614.108 136.135 621.361 138.448 626.481 143.093M627.912 116.126C636.302 120.359 644.723 121.875 649.734 122.502C660.314 123.825 713.215 129.117 720.488 84.7966C723.314 67.5796 714.165 45.2717 697.344 29.1572M627.912 116.126C623.503 116.928 614.422 119.326 613.364 122.502C612.042 126.471 617.332 135.07 631.879 133.086C646.427 131.101 672.878 152.931 645.766 190.636C624.077 220.8 599.257 225.37 589.559 223.884M589.559 223.884C615.447 211.287 637.797 181.435 633.202 155.577C632.229 150.105 629.804 146.108 626.481 143.093M589.559 223.884C585.645 225.789 578.317 227.68 569.721 228.341C561.125 229.003 548.957 229.929 537.319 228.341C532.911 227.9 533.352 232.972 541.287 242.233C550.544 253.037 535.335 257.447 522.771 257.447C510.207 257.447 488.386 247.648 467.887 259.431C451.487 268.858 434.603 272.434 428.211 273.043M555.173 100.536C546.577 105.653 535.203 119.327 558.479 133.086C575.163 142.948 593.298 145.471 606.752 145.439M626.481 143.093C624.179 143.976 616.761 145.414 606.752 145.439M606.752 145.439C621.74 165.576 631.483 209.952 550.544 226.357M395.148 273.984C401.592 276.259 414.772 276.361 428.211 273.043M428.211 273.043C438.216 270.572 448.365 266.207 455.984 259.431C473.838 243.556 504.256 247.524 512.191 248.847C520.126 250.17 526.078 246.202 526.078 242.233C526.078 239.057 520.347 234.736 517.481 232.972C497.908 222.388 529.164 219.742 547.238 219.742C592.865 211.142 604.768 188.651 604.768 179.391C604.768 170.13 589.559 155.577 565.092 155.577C540.625 155.577 508.885 153.592 496.982 126.471C487.46 104.774 500.95 91.4118 508.885 87.4428C506.681 76.4179 511.001 51.4575 545.916 39.8152C551.084 28.909 567.868 10.9216 598.155 10.0541M598.155 10.0541C584.709 15.785 557.289 32.671 555.173 54.368C540.625 55.4946 513.381 66.2824 520.788 100.421M598.155 10.0541C620.197 0.0802281 670.894 -10.0625 697.344 29.1572" stroke="#8E7561" stroke-opacity="0.9" stroke-width="0.355729"/>
<path d="M462.212 206.538C467.69 204.518 480.201 203.768 486.428 216.927C488.446 215.773 493.607 214.157 498.104 216.927C503.726 220.39 510.26 233.809 494.236 244.198C493.499 247.195 492.164 249.62 491.618 250.258C490.58 263.117 471.582 271.777 462.212 274.499C455.539 283.028 445.722 286.573 435.401 287.23C425.455 299.96 348.483 303.934 332.901 291.381C320.435 281.338 301.761 278.743 293.982 278.7C281.056 282.617 273.584 287.677 267.171 291.381C263.037 293.769 257.77 299.023 256.344 301.739L258.955 306.965C275.82 306.965 284.468 303.934 284.468 303.934C300.431 303.934 311.659 312.207 308.276 333.222C308.27 333.274 308.262 333.323 308.252 333.37C304.793 354.494 277.693 360.577 264.576 360.978C252.055 369.854 230.926 364.537 213.117 364.537C192.793 364.537 171.604 377.09 171.604 380.12C171.604 382.544 167.279 386.036 165.117 387.479C145.225 399.599 83.3878 400.898 69.55 396.136C58.4797 392.327 51.9644 385.603 50.0906 382.717C53.6942 386.902 72.231 393.712 117.55 387.479C174.198 379.687 141.334 375.358 165.117 364.537C188.901 353.715 223.063 343.759 251.603 344.624C274.436 345.317 269.766 332.215 264.576 325.578C253.333 326.011 217.441 311.726 241.658 278.7C265.874 245.674 303.928 258.05 338.955 261.946C360.554 264.348 368.987 262.276 371.456 260.01C353.765 253.674 348.698 238.685 348.483 231.212C332.223 227.056 329.6 218.514 330.321 214.763C323.861 208.703 320.375 189.223 344.158 189.223C345.312 181.864 353.24 168.012 375.726 171.475C374.74 170.465 373.359 166.974 375.726 161.087C378.684 153.728 412.915 145.07 419.834 144.637C426.753 144.204 443.618 144.637 445.347 151.13C445.601 152.429 445.513 155.459 443.133 157.19C440.158 159.355 435.297 164.116 443.133 166.714C450.969 169.311 479.942 164.982 486.428 159.355C492.915 153.728 489.888 145.936 482.969 148.533C476.05 151.13 472.158 142.906 495.509 135.114C518.861 127.322 515.834 137.711 537.888 129.92C555.531 123.686 566.284 113.47 569.455 109.142C568.294 110.956 566.524 113.435 564.357 116.068C564.471 120.973 559.682 132.344 539.617 138.577C514.536 146.369 505.023 140.308 501.563 140.308C498.104 140.308 494.212 144.637 501.563 145.936C503.726 146.657 507.531 148.707 505.455 151.13C503.462 153.458 496.62 162.172 482.969 168.638C471.702 180.086 441.023 189.223 419.834 184.894C402.883 181.431 405.564 170.032 409.888 165.415C411.618 163.568 418.981 157.97 428.05 159.355C428.915 158.201 428.742 155.892 421.131 155.892C413.52 155.892 405.788 159.355 402.874 161.087C395.429 164.764 394.226 170.127 395.21 173.64C398.806 175.003 402.47 176.008 404.699 181.864C406.714 187.158 407.262 192.645 406.429 197.744C432.72 182.398 454.573 197.213 462.212 206.538Z" fill="url(#paint3_linear_334_1871)"/>
<path d="M480.374 229.048C480.028 212.772 464.663 211.3 457.023 212.598C438.031 196.956 417.383 200.476 402.537 207.905C404.523 204.86 405.831 201.402 406.429 197.744M480.374 229.048C474.493 224.199 463.509 225.072 458.753 226.114M480.374 229.048C476.223 229.048 472.591 231.933 471.293 233.376M480.374 229.048C494.79 229.913 495.71 238.202 494.236 244.198M411.618 227.749C412.483 224.719 417.585 218.312 431.077 216.927C442.054 215.8 452.629 221.473 458.753 226.114M462.212 229.048C461.325 228.187 460.156 227.178 458.753 226.114M449.672 270.603C450.537 270.603 472.158 268.439 478.212 259.782C484.266 251.124 486.428 256.319 491.618 250.258M491.618 250.258C492.164 249.62 493.499 247.195 494.236 244.198M491.618 250.258C490.58 263.117 471.582 271.777 462.212 274.499M494.236 244.198C510.26 233.809 503.726 220.39 498.104 216.927C493.607 214.157 488.446 215.773 486.428 216.927C480.201 203.768 467.69 204.518 462.212 206.538C454.573 197.213 432.72 182.398 406.429 197.744M462.212 274.499C444.223 284.078 420.987 277.625 411.618 273.201M462.212 274.499C455.539 283.028 445.722 286.573 435.401 287.23M432.807 261.946C430.212 268.439 439.293 268.439 441.888 266.275C443.434 264.985 444.674 261.387 443.133 258.05M443.133 258.05C442.089 255.789 439.768 253.647 435.401 252.423C424.591 249.393 418.104 270.603 434.104 273.201C450.104 275.798 453.131 257.617 450.969 252.423C448.807 247.228 440.158 236.406 425.023 244.198C412.915 250.432 413.636 261.513 415.51 266.275C389.91 272.162 383.654 257.184 382.645 248.527C382.789 243.765 385.585 234.329 395.618 234.675C408.158 235.108 409.023 245.93 406.429 250.691C404.353 254.501 401.239 255.453 399.942 255.453C401.528 252.856 403.315 247.401 397.78 246.363C396.05 245.93 392.504 246.189 392.158 250.691C391.726 256.319 402.104 261.513 408.158 255.453C414.212 249.393 418.104 231.645 399.942 227.749C385.05 224.555 375.391 237.367 374.78 248.527M443.133 258.05C441.853 253.144 437.045 244.804 428.05 250.691C416.807 258.05 422.861 270.171 425.456 272.335M348.483 231.212C348.725 239.618 355.105 257.532 378.684 261.946M348.483 231.212C332.223 227.056 329.6 218.514 330.321 214.763M348.483 231.212H361.888M378.684 261.946C377.588 259.962 376.596 257.803 375.726 255.453C374.947 253.349 374.645 250.978 374.78 248.527M378.684 261.946C383.042 269.829 389.054 274.956 395.618 278.395C398.996 280.165 403.31 281.97 408.158 283.491M361.888 231.212C363.131 235.119 367.45 244.051 374.78 248.527M361.888 231.212C386.104 224.286 397.78 213.464 397.78 199.612C397.78 185.76 388.699 184.462 375.726 185.327C365.348 186.02 363.33 193.408 363.618 197.015C360.735 197.448 355.402 199.872 357.131 206.105C359.294 213.897 372.266 213.464 375.726 207.905C378.494 203.457 374.573 201.966 372.266 201.777C374.284 202.552 376.85 204.863 370.969 207.905C363.618 211.707 360.591 202.21 367.077 199.612C367.023 197.736 368.488 193.812 374.78 193.119C382.645 192.253 392.158 194.851 387.402 204.807C382.645 214.763 368.375 216.927 367.077 216.927C365.78 216.927 352.375 231.212 335.51 216.061M330.321 214.763L335.51 216.061M330.321 214.763C323.861 208.703 320.375 189.223 344.158 189.223C345.312 181.864 353.24 168.012 375.726 171.475C374.74 170.465 373.359 166.974 375.726 161.087C378.684 153.728 412.915 145.07 419.834 144.637C426.753 144.204 443.618 144.637 445.347 151.13C445.601 152.429 445.513 155.459 443.133 157.19C440.158 159.355 435.297 164.116 443.133 166.714C450.969 169.311 479.942 164.982 486.428 159.355C492.915 153.728 489.888 145.936 482.969 148.533C476.05 151.13 472.158 142.906 495.509 135.114C518.861 127.322 515.834 137.711 537.888 129.92C555.531 123.686 566.284 113.47 569.455 109.142C568.293 110.956 566.524 113.435 564.357 116.068M335.51 216.061C336.951 216.783 340.699 216.321 344.158 213.897C348.483 210.867 351.51 201.777 345.023 197.015C338.537 192.253 331.618 198.314 335.51 203.508C338.623 207.664 341.708 205.24 342.861 203.508M547.401 129.92C553.496 127.808 559.803 121.601 564.357 116.068M564.357 116.068C564.471 120.973 559.682 132.344 539.617 138.577C514.536 146.369 505.023 140.308 501.563 140.308C498.104 140.308 494.212 144.637 501.563 145.936C503.726 146.657 507.531 148.707 505.455 151.13C503.462 153.458 496.62 162.172 482.969 168.638M468.699 173.64C474.111 172.335 478.85 170.589 482.969 168.638M482.969 168.638C471.702 180.086 441.023 189.223 419.834 184.894C402.883 181.431 405.564 170.032 409.888 165.415C411.618 163.568 418.981 157.97 428.05 159.355C428.915 158.201 428.742 155.892 421.131 155.892C413.52 155.892 405.788 159.355 402.874 161.087C395.429 164.764 394.226 170.127 395.21 173.64M475.618 168.638C468.555 173.381 449.758 182.234 431.077 179.7C412.396 177.166 414.356 169.987 417.672 166.714C418.537 165.126 421.218 162.125 425.023 162.818C429.78 163.684 434.537 163.251 432.807 157.19C431.077 151.13 416.375 148.1 394.321 158.489C391.149 160.653 385.758 166.021 389.564 170.177C391.256 172.025 393.223 172.887 395.21 173.64M395.21 173.64C398.806 175.003 402.47 176.008 404.699 181.864C406.713 187.158 407.262 192.645 406.429 197.744M258.955 306.965C275.82 306.965 284.468 303.934 284.468 303.934C300.468 303.934 311.711 312.246 308.252 333.37M258.955 306.965L256.344 301.739M258.955 306.965C262.558 309.129 272.706 313.544 284.468 313.89C299.171 314.323 308.936 330.34 308.252 333.37M293.982 278.7C281.056 282.617 273.584 287.677 267.171 291.381C263.037 293.769 257.77 299.023 256.344 301.739M293.982 278.7C303.716 275.75 332.385 279.005 345.023 282.724C361.744 286.409 397.78 291.723 408.158 283.491M293.982 278.7C301.761 278.743 320.435 281.338 332.901 291.381C348.483 303.934 425.455 299.96 435.401 287.23M435.401 287.23C426.085 287.823 416.358 286.063 408.158 283.491M372.266 258.05C372.838 260.647 366.976 265.063 338.955 261.946C303.928 258.05 265.874 245.674 241.658 278.7C217.441 311.726 253.333 326.011 264.576 325.578M264.576 325.578C270.486 325.578 281.009 328.262 275.82 338.997C270.63 349.732 247.135 351.55 236.036 351.118M264.576 325.578C269.766 332.215 274.436 345.317 251.603 344.624C223.063 343.759 188.901 353.715 165.117 364.537C141.334 375.358 174.198 379.687 117.55 387.479C72.231 393.712 53.6942 386.902 50.0906 382.717C51.9644 385.603 58.4797 392.327 69.55 396.136C83.3878 400.898 145.225 399.599 165.117 387.479C167.279 386.036 171.604 382.544 171.604 380.12C171.604 377.09 192.793 364.537 213.117 364.537C230.926 364.537 252.055 369.854 264.576 360.978M264.576 325.578C269.031 325.407 272.671 324.623 275.82 324.198M264.576 360.978C266.345 359.724 267.942 358.187 269.333 356.312C293.982 350.685 293.982 335.534 287.928 328.175C284.272 323.732 280.617 323.55 275.82 324.198M264.576 360.978C277.693 360.577 304.793 354.494 308.252 333.37M256.344 301.739C253.461 290.71 260.5 267.916 311.711 264.976M378.684 270.17C370.486 271.613 345.614 272.594 311.711 264.976M311.711 264.976C269.333 255.453 246.847 277.096 245.549 295.71C244.252 314.323 263.712 322.818 275.82 324.198" stroke="#8E7561" stroke-opacity="0.9" stroke-width="0.355729"/>
<defs>
<linearGradient id="paint0_linear_334_1871" x1="365.722" y1="243.828" x2="97.9078" y2="-6.34552" gradientUnits="userSpaceOnUse">
<stop offset="0.310417"/>
<stop offset="1" stop-color="#413B47"/>
</linearGradient>
<linearGradient id="paint1_linear_334_1871" x1="421.7" y1="147.736" x2="361.04" y2="36.8465" gradientUnits="userSpaceOnUse">
<stop/>
<stop offset="1" stop-color="#413B47"/>
</linearGradient>
<linearGradient id="paint2_linear_334_1871" x1="614.025" y1="176.083" x2="545.211" y2="-23.6735" gradientUnits="userSpaceOnUse">
<stop/>
<stop offset="0.847023" stop-color="#413B47"/>
</linearGradient>
<linearGradient id="paint3_linear_334_1871" x1="428.05" y1="270.17" x2="352.673" y2="71.0997" gradientUnits="userSpaceOnUse">
<stop offset="0.0583451"/>
<stop offset="0.601273" stop-color="#413B47"/>
</linearGradient>
</defs>
</svg>
