<svg width="630" height="600" viewBox="0 0 630 600" fill="none" xmlns="http://www.w3.org/2000/svg">
<path d="M596.303 285.695C596.303 443.202 467.944 570.891 309.6 570.891C151.256 570.891 22.8978 443.202 22.8978 285.695C22.8978 128.189 151.256 0.5 309.6 0.5C467.944 0.5 596.303 128.189 596.303 285.695Z" fill="url(#paint0_radial_328_1872)" stroke="url(#paint1_linear_328_1872)"/>
<path d="M290.54 541.491C255.83 538.671 240.338 517.96 236.93 507.957C210.439 475.876 232.189 442.275 246.376 429.484C219.498 453.252 182.354 444.463 167.142 437.097C183.553 430.764 182.915 430.764 194.114 419.834C201.58 430.764 267.484 423.159 299.594 370.035C298.636 383.605 306.437 412.573 345.306 419.883C393.893 429.021 404.617 388.497 402.989 373.309C401.361 358.121 394.921 342.285 412.935 325.214C397.276 315.418 373.458 290.602 403.468 269.698C400.093 279.395 398.091 298.925 417.074 299.463C415.1 308.462 415.926 328.029 435.025 334.308C423.053 344.138 408.396 373.857 445.54 414.095C444.472 419.724 446.853 434.281 464.923 447.474C458.277 448.984 452.806 462.723 450.901 469.404C427.09 447.424 416.014 449.943 403.714 446.972C391.415 444.002 378.472 464.245 385.378 475.65C390.904 484.774 401.183 480.026 405.632 476.511C395.949 517.686 362.852 510.366 347.514 501.559C342.985 516.044 325.25 544.31 290.54 541.491Z" fill="url(#paint2_linear_328_1872)"/>
<path d="M299.685 464.555C299.024 459.419 295.734 450.748 287.852 457.153C277.999 465.16 271.673 482.457 297.351 486.711C311.266 489.016 320.722 480.904 323.484 469.996C324.696 465.211 324.619 459.887 323.065 454.669M314.784 440.939C296.045 422.132 276.662 426.538 270.045 429.484C263.428 432.43 230.635 461.511 251.968 498.471C265.577 522.05 287.599 524.939 304.562 519.561M314.784 440.939C318.914 445.083 321.624 449.831 323.065 454.669M314.784 440.939C298.311 433.906 263.748 429.619 257.278 468.73M326.088 504.687C331.53 498.644 342.663 482.465 343.667 466.089C344.17 457.882 350.784 446.663 362.204 437.097C369.68 429.862 385.949 421.228 405.223 426.662M326.088 504.687C322.183 510.794 314.187 516.509 304.562 519.561M326.088 504.687C332.94 501.888 348.147 491.563 354.162 472.654M304.562 519.561C295.434 528.021 269.129 537.544 236.93 507.957M236.93 507.957C240.338 517.96 255.83 538.671 290.54 541.491C325.25 544.31 342.985 516.044 347.514 501.559M236.93 507.957C210.439 475.876 232.189 442.275 246.376 429.484M347.514 501.559C362.852 510.366 395.949 517.686 405.632 476.511C401.183 480.026 390.904 484.774 385.378 475.65M347.514 501.559C387.247 507.519 389.312 486.77 385.378 475.65M385.378 475.65C378.472 464.245 391.415 444.002 403.714 446.972C416.014 449.943 427.09 447.424 450.901 469.404C452.806 462.723 458.277 448.984 464.923 447.474C446.853 434.281 444.472 419.724 445.54 414.095C408.396 373.857 423.053 344.138 435.025 334.308C415.926 328.029 415.1 308.462 417.074 299.463C398.091 298.925 400.093 279.395 403.468 269.698C373.458 290.602 397.276 315.418 412.935 325.214C394.921 342.285 401.361 358.121 402.989 373.309C404.617 388.497 393.893 429.021 345.306 419.883C306.437 412.573 298.636 383.605 299.594 370.035C267.484 423.159 201.58 430.764 194.114 419.834C182.915 430.764 183.553 430.764 167.142 437.097C182.354 444.463 219.498 453.252 246.376 429.484M323.065 454.669C324.592 448.837 323.611 433.707 307.474 419.834C291.337 405.961 252.982 422.596 246.376 429.484M354.162 472.654C361.681 449.019 371.378 429.107 405.223 426.662M354.162 472.654C389.247 419.148 420.684 430.871 432.016 443.421C422.832 434.204 413.735 429.061 405.223 426.662" stroke="url(#paint3_linear_328_1872)" stroke-linecap="round" stroke-linejoin="round"/>
<path d="M529.862 240.199C529.023 232.886 530.916 217.427 545.203 214.094C563.061 209.927 585.515 216.174 590.002 242.575C590.706 261.754 581.233 297.369 537.715 286.401C532.454 283.949 520.791 275.641 516.217 262.03C502.406 259.136 477.665 246.083 489.193 217.019C493.96 210.238 507.197 196.141 522.01 193.997C524.53 195.184 529.87 196.175 536.457 194.275C540.128 193.215 544.187 191.258 548.359 187.935C560.02 178.651 559.124 164.987 557.218 159.315C563.163 167.376 568.827 187.247 543.93 202.245C519.033 217.244 524.178 233.797 529.862 240.199Z" fill="url(#paint4_linear_328_1872)"/>
<path d="M547.612 252.019C536.427 255.076 531.832 244.662 529.862 240.199M547.612 252.019C553.216 250.487 555.992 246.62 556.658 242.557M547.612 252.019C539.535 247.24 527.744 232.965 545.203 214.094M529.862 240.199C529.023 232.886 530.916 217.427 545.203 214.094M529.862 240.199C524.178 233.797 519.033 217.244 543.93 202.245C568.827 187.247 563.163 167.376 557.218 159.315C559.124 164.987 560.02 178.651 548.359 187.935C544.187 191.258 540.128 193.215 536.457 194.275M545.203 214.094C563.061 209.927 585.515 216.174 590.002 242.575M590.002 242.575C590.706 261.754 581.233 297.369 537.715 286.401C532.454 283.949 520.791 275.641 516.217 262.03C502.406 259.136 477.665 246.083 489.193 217.019C493.96 210.238 507.197 196.141 522.01 193.997M590.002 242.575C586.243 255.415 572.28 277.856 546.506 264.895M522.01 193.997C508.833 204.998 488.046 231.329 510.308 248.64M522.01 193.997C524.53 195.184 529.87 196.175 536.457 194.275M556.658 242.557C557.321 238.51 555.892 234.268 553.081 231.947C548.573 228.225 544.748 232.001 543.399 234.355C543.145 238.435 545.44 245.787 556.658 242.557ZM536.457 194.275C525.965 200.256 506.933 216.641 514.738 234.33" stroke="url(#paint5_linear_328_1872)" stroke-linecap="round" stroke-linejoin="round"/>
<path d="M355.118 340.843C370.236 354.948 350.2 374.96 338.131 367.411C360.541 398.167 382.313 371.027 390.398 353.613C391.995 336.015 409.023 325.744 414.02 324.22C410.26 328.842 396.592 343.925 402.467 361.162C411.698 388.25 393.646 431.581 341.696 418.459C279.357 402.713 303.387 338.704 315.456 346.253C323.287 330.23 340.001 326.737 355.118 340.843Z" fill="url(#paint6_linear_328_1872)"/>
<path d="M341.453 350.892C336.323 353.882 328.477 361.372 338.131 367.411M338.131 367.411C350.2 374.96 370.236 354.948 355.118 340.843C340.001 326.737 323.287 330.23 315.456 346.253M338.131 367.411C360.541 398.167 382.313 371.027 390.398 353.613M315.456 346.253C307.624 362.276 307.615 392.49 341.57 399.782C350.102 402.795 369.928 404.503 380.97 387.233M315.456 346.253C303.387 338.704 279.357 402.713 341.696 418.459M380.97 387.233C383.447 383.359 388.8 371.211 390.398 353.613M380.97 387.233C369.769 394.949 342.673 401.866 323.902 367.808M390.398 353.613C391.995 336.015 409.023 325.744 414.02 324.22C410.26 328.842 396.592 343.925 402.467 361.162C411.698 388.25 393.646 431.581 341.696 418.459M390.398 353.613C408.452 400.242 365.452 416.272 341.696 418.459" stroke="url(#paint7_linear_328_1872)" stroke-linecap="round" stroke-linejoin="round"/>
<path d="M451.364 320.196C431.189 321.728 430.595 296.648 435.545 286.714C425.442 296.905 406.951 318.36 444.656 341.945C444.656 341.945 435.206 345.467 428.35 341.179C421.494 336.891 415.839 330.726 415.839 330.726C405.221 327.319 383.74 315.635 382.761 296.153C382.467 274.741 392.741 228.805 436.182 216.353C479.624 203.901 488.969 232.403 488.212 248.21C496.529 251.542 505.528 257.05 515.02 265.667C556.791 303.589 526.871 329.688 510.32 340.563C497.08 349.264 486.065 343.475 482.213 339.493C467.836 322.952 478.704 313.711 485.934 311.158C466.766 310.489 464.076 325.788 465.127 333.522C469.679 345 479.963 355.689 487.664 361.772C479.398 371.697 484.318 383.265 487.812 387.809C475.59 400.919 483.372 417.267 488.792 423.802C505.558 445.611 532.928 449.837 544.517 449.224C516.86 456.454 489.673 442.436 479.537 434.523C443.928 397.153 456.113 364.836 466.657 353.348C451.067 341.708 449.965 326.396 451.364 320.196Z" fill="url(#paint8_linear_328_1872)"/>
<path d="M456.603 285.734C459.606 286.04 465.573 285.213 465.417 279.454C465.221 272.255 456.651 266.895 447.837 273.175C444.345 275.663 438.793 280.195 435.545 286.714M451.364 320.196C431.189 321.728 430.595 296.648 435.545 286.714M451.364 320.196C464.814 290.871 485.509 282.586 510.222 295.686M451.364 320.196C449.965 326.396 451.067 341.708 466.657 353.348C456.113 364.836 443.928 397.153 479.537 434.523C489.673 442.436 516.86 456.454 544.517 449.224C532.928 449.837 505.558 445.611 488.792 423.802C483.373 417.267 475.59 400.919 487.812 387.809C484.318 383.265 479.398 371.697 487.664 361.772C479.964 355.689 469.679 345 465.127 333.522M435.545 286.714C425.442 296.905 406.951 318.36 444.656 341.945C444.656 341.945 435.206 345.467 428.35 341.179C421.494 336.891 415.839 330.726 415.839 330.726M494.7 323.716C497.213 319.785 498.979 311.77 485.934 311.158M485.934 311.158C478.704 313.711 467.836 322.952 482.213 339.493C486.065 343.475 497.08 349.264 510.32 340.563M485.934 311.158C466.766 310.489 464.076 325.788 465.127 333.522M510.32 340.563C526.871 329.688 556.791 303.589 515.02 265.667C505.528 257.05 496.529 251.542 488.212 248.21M510.32 340.563C518.525 329.971 529.993 306.166 510.222 295.686M415.839 330.726C392.87 288.681 428.313 255.606 434.371 252.958C439.517 250.709 459.926 236.88 488.212 248.21M415.839 330.726C405.221 327.319 383.74 315.635 382.761 296.153C382.467 274.741 392.741 228.805 436.182 216.353C479.624 203.901 488.969 232.403 488.212 248.21M510.222 295.686C498.967 288.646 479.721 298.621 471.504 304.489C461.541 313.118 461.198 323.614 465.127 333.522" stroke="url(#paint9_linear_328_1872)" stroke-linecap="round" stroke-linejoin="round"/>
<path d="M35.5276 290.571C35.5276 445.667 159.704 571.396 312.883 571.396C466.062 571.396 590.239 445.667 590.239 290.571C590.239 135.475 466.062 9.74512 312.883 9.74512C294.35 9.74512 276.241 11.5857 258.725 15.0962" stroke="url(#paint10_linear_328_1872)"/>
<g filter="url(#filter0_d_328_1872)">
<path d="M491.791 352.511C528.688 348.424 538.821 316.032 539.275 300.347C545.275 303.744 551.411 304.221 557.261 302.93C570.315 300.049 581.946 288.368 587.459 280.684C596.34 336.816 561.778 411.454 543.387 441.757C521.04 440.199 506.696 434.704 497.886 427.397C480.857 413.274 484.504 392.386 490.992 380.095C483.381 370.772 488.354 357.821 491.791 352.511Z" fill="url(#paint11_radial_328_1872)"/>
<path d="M523.566 389.194C525.081 393.57 525.196 400.935 513.535 395.388C504.638 391.156 506.935 380.604 514.126 374.993M497.886 427.397C480.857 413.274 484.504 392.386 490.992 380.095C483.381 370.772 488.354 357.821 491.791 352.511C528.688 348.424 538.821 316.032 539.275 300.347C545.275 303.744 551.411 304.221 557.261 302.93M497.886 427.397C506.696 434.704 521.04 440.199 543.387 441.757C561.778 411.454 596.34 336.816 587.459 280.684C581.946 288.368 570.315 300.049 557.261 302.93M497.886 427.397C527.376 431.532 535.702 423.662 544.233 412.551C549.961 405.091 550.619 393.819 545.043 384.597M514.126 374.993C518.716 371.411 525.3 369.843 532.238 373.215C538.091 376.059 542.314 380.082 545.043 384.597M514.126 374.993C508.212 371.334 502.027 361.913 524.6 353.497C547.174 345.082 555.78 316.279 557.261 302.93M566.646 319.034C562.964 332.765 555.11 354.505 532.521 363.479C540.239 361.546 555.581 360.925 555.205 373.905M582.021 298.385C578.604 321.853 566.426 371.951 545.043 384.597" stroke="url(#paint12_linear_328_1872)" stroke-linecap="round" stroke-linejoin="round"/>
</g>
<path d="M508.09 367.417C522.263 370.694 545.982 400.28 533.779 431.592C524.539 455.301 505.775 464.15 495.188 465.509C501.569 476.339 500.311 485.703 496.443 492.811C493.157 498.85 487.986 503.261 484.017 505.559C483.454 509.658 478.469 518.848 463.036 522.825C457.918 524.144 453.902 524.122 450.793 523.335C431.619 548.759 394.064 532.69 377.614 521.419C372.42 523.689 355.163 519.508 346.176 488.787C338.986 464.21 349.679 451.19 355.924 447.752C353.133 442.25 351.193 436.213 350.392 433.034C345.956 412.449 358.118 403.983 364.753 402.323C366.033 398.216 374.546 389.546 398.363 387.725C408.345 363.932 433.633 359.922 445.03 360.891C463.926 345.682 482.819 358.467 490.46 367.646C496.282 365.958 502.036 366.017 508.09 367.417Z" fill="url(#paint13_linear_328_1872)"/>
<path d="M387.508 477.55C389.754 476.996 392.886 475.214 387.445 472.516C382.005 469.818 381.766 476.891 382.326 480.764C383.275 482.955 386.4 487.131 391.305 486.312C397.436 485.288 405.856 468.826 391.005 462.4C389.713 461.841 388.48 461.496 387.305 461.333M369.693 477.782C369.132 477.789 375 459.619 387.305 461.333M372.537 484.038C373.797 486.539 372.057 494.744 377.361 501.283C382.666 507.822 396.035 520.55 416.903 518.705C437.77 516.86 451.71 501.574 453.627 482.983M379.759 496.532C378.922 495.074 377.232 491.026 377.176 486.496C377.105 480.832 373.387 478.363 375.195 475.507C377.002 472.652 372.327 467.335 387.305 461.333M372.789 504.175C367.357 495.644 360.201 475.388 375.033 462.608M443.412 476.823C444.238 485.518 441.106 503.6 421.97 506.367C420.359 508.486 415.53 512.115 409.109 509.681C401.084 506.638 396.157 505.759 396.098 501.039C396.051 497.264 392.928 493.213 391.372 491.66M435.178 506.195C439.393 503.876 446.983 496.838 448.07 485.573M448.07 485.573C448.242 483.79 448.252 481.902 448.059 479.909L448.07 485.573ZM448.07 485.573C457.245 484.468 472.4 480.048 483.021 470.329M482.778 406.766C486.246 405.42 488.167 407.683 487.426 410.167M487.426 410.167C487.092 411.287 486.219 412.45 484.704 413.35C479.824 416.245 477.273 408.726 476.599 404.015C475.925 399.303 483.777 388.502 491.126 386.518C498.474 384.535 520.629 387.393 522.732 408.135C524.415 424.728 514.193 429.434 508.871 429.713C511.168 436.48 500.551 443.982 494.955 446.887C494.329 453.942 491.786 459.846 488.11 464.747M487.426 410.167C488.959 410.043 491.131 411.819 487.548 419.921C484.021 424.372 475.458 430.651 469.428 420.157C468.031 423.007 464.528 426.262 461.702 416.481C458.563 405.617 457.61 394.972 466.811 384.003M488.11 464.747C489.24 465.61 491.793 465.944 495.188 465.509M488.11 464.747C486.589 466.776 484.874 468.633 483.021 470.329M466.811 384.003C467.965 382.627 469.278 381.247 470.766 379.86C471.998 378.713 473.213 377.646 474.413 376.658M466.811 384.003C464.667 379.394 458.766 371.884 448.956 368.186M407.584 388.121C410.104 373.487 425.354 367.864 432.501 366.198C434.992 365.945 437.347 365.928 439.569 366.106M395.151 425.529C393.933 426.384 392.239 428.525 395.21 430.248C398.924 432.402 402.869 428.575 402.499 423.545C402.129 418.515 397.103 409.769 386.747 416.827C376.39 423.885 377.58 445.267 393.025 451.989C408.47 458.711 427.12 451.546 433.349 433.843C439.579 416.14 428.134 385.45 398.363 387.725M398.363 387.725C374.546 389.546 366.033 398.216 364.753 402.323C358.118 403.983 345.956 412.449 350.392 433.034C351.193 436.213 353.133 442.25 355.924 447.752M398.363 387.725C408.345 363.932 433.633 359.922 445.03 360.891M360.498 454.93C358.798 452.911 357.263 450.393 355.924 447.752M355.924 447.752C349.679 451.19 338.986 464.21 346.176 488.787C355.163 519.508 372.42 523.689 377.614 521.419C394.14 532.742 431.966 548.907 451.057 522.981M441.42 513.981C442.195 518.586 447.602 526.802 463.036 522.825C478.469 518.848 483.454 509.658 484.017 505.559C487.986 503.261 493.157 498.85 496.443 492.811M495.188 465.509C505.775 464.15 524.539 455.301 533.779 431.592C545.982 400.28 522.263 370.694 508.09 367.417C502.036 366.017 496.282 365.958 490.46 367.646M495.188 465.509C501.569 476.339 500.311 485.703 496.443 492.811M496.443 492.811C497.283 486.017 497.605 471.986 492.175 470.209M474.227 508.834C476.889 508.799 482.555 506.586 483.922 498.008C485.551 497.253 489.164 494.668 490.585 490.37C492.361 484.997 494.198 474.845 483.021 470.329M455.006 519.468C452.972 520.543 448.4 521.82 446.39 518.321C443.877 513.949 441.621 505.482 449.902 504.43C449.852 500.445 457.412 490.801 464.571 498.26C466.867 501.692 469.315 509.086 460.74 511.212C457.364 511.472 451.821 510.461 456.66 504.342M474.413 376.658C473.093 369.755 466.155 358.396 448.956 368.186M474.413 376.658C477.116 374.431 479.746 372.6 482.331 371.133M448.956 368.186C446.148 367.128 443.02 366.382 439.569 366.106M482.331 371.133C480.302 364.788 470.773 354.246 448.889 362.838M482.331 371.133C485.079 369.573 487.776 368.424 490.46 367.646M490.46 367.646C482.819 358.467 463.926 345.682 445.03 360.891M439.569 366.106C441.382 364.088 443.206 362.359 445.03 360.891" stroke="url(#paint14_linear_328_1872)" stroke-linecap="round" stroke-linejoin="round"/>
<path d="M92.5828 361.108C65.9128 358.305 16.0351 309.474 31.571 249.374C43.3344 203.867 75.7744 183.424 94.8674 178.546C80.8247 160.151 81.0914 142.718 86.6286 128.827C91.3334 117.024 99.843 107.778 106.613 102.673C106.752 95.0404 113.881 77.0832 141.282 66.3156C150.368 62.7449 157.727 61.8789 163.594 62.6176C193.177 11.7275 265.453 32.6792 298.034 49.6086C307.053 44.2782 339.566 48.0401 362.711 102.276C381.226 145.666 364.477 171.925 353.788 179.63C360.095 189.077 364.962 199.696 367.121 205.337C379.724 242.036 359.293 260.286 347.502 264.824C346.578 269.798 340.685 278.824 325.363 286.973C317.625 322.329 289.034 380.695 231.286 382.246C158.686 418.778 108.567 383.375 92.5828 361.108Z" fill="url(#paint15_linear_328_1872)"/>
<path d="M289.458 132.186C285.465 133.707 280.117 137.678 290.669 141.391C301.221 145.105 300.119 132.098 298.25 125.13C296.035 121.332 289.404 114.389 280.598 116.997C269.592 120.256 257.754 152.306 286.351 160.722C288.839 161.454 291.172 161.807 293.359 161.842M322.035 127.74C323.061 127.6 316.269 162.202 293.359 161.842M315.466 116.923C312.614 112.627 314.016 97.2088 302.878 86.4299C291.74 75.651 264.485 55.3585 226.669 63.4477C188.853 71.5368 166.649 102.679 167.183 137.16M299.52 95.6731C301.371 98.1536 305.346 105.186 306.436 113.47C307.798 123.826 315.144 127.51 312.455 133.147C309.766 138.785 319.485 147.467 293.359 161.842M310.622 80.1021C322.427 94.4992 339.94 129.982 315.558 156.736M187.232 146.137C183.827 130.398 185.629 96.5747 220.072 87.1888C222.563 82.9444 230.618 75.2077 242.906 78.216C258.267 81.9763 267.48 82.4758 268.616 91.1058C269.524 98.0098 276.125 104.723 279.312 107.216M195.92 90.485C188.706 95.6831 176.336 110.287 176.796 131.163M176.796 131.163C176.869 134.467 177.263 137.928 178.05 141.534L176.796 131.163ZM176.796 131.163C160.234 135.258 133.44 146.774 116.102 166.972M130.379 283.328C124.32 286.577 120.31 282.866 121.126 278.148M121.126 278.148C121.493 276.023 122.84 273.694 125.419 271.706C133.725 265.301 140.035 278.496 142.294 286.973C144.552 295.449 132.522 317.004 119.496 322.295C106.469 327.587 65.2718 327.353 56.9064 289.841C50.214 259.831 67.9116 248.904 77.5968 247.192C71.9179 235.317 89.7307 219.181 99.347 212.598C98.9573 199.535 102.332 188.148 107.996 178.342M121.126 278.148C118.344 278.723 113.981 275.961 118.78 260.313C124.271 251.364 138.586 237.931 151.914 255.791C153.854 250.255 159.56 243.503 166.864 260.779C174.977 279.968 179.039 299.247 164.574 321.414M92.5828 361.108C65.9128 358.305 16.0351 309.474 31.571 249.374C43.3344 203.867 75.7744 183.424 94.8674 178.546M92.5828 361.108C103.974 362.305 114.526 361.114 124.822 356.708M92.5828 361.108C108.567 383.375 158.686 418.778 231.286 382.246M107.996 178.342C105.741 177.018 100.99 176.982 94.8674 178.546M107.996 178.342C110.341 174.283 113.078 170.496 116.102 166.972M164.574 321.414C162.761 324.193 160.656 327.018 158.232 329.893C156.225 332.273 154.233 334.501 152.25 336.582M164.574 321.414C169.504 329.371 181.945 341.793 200.717 346.351M272.149 300.504C270.718 327.874 244.013 341.613 231.286 346.278C226.779 347.304 222.469 347.866 218.361 348.042M286.781 229.186C288.826 227.345 291.461 223.042 285.645 220.556C278.375 217.448 271.982 225.349 273.754 234.478C275.527 243.606 286.634 258.489 304.065 243.225C321.497 227.962 314.665 189.069 284.916 180.245C255.167 171.42 222.57 188.753 215.013 222.582C207.456 256.41 235.094 310.033 289.123 299.146M289.123 299.146C276.019 344.976 230.577 358.028 209.494 358.825M289.123 299.146C304.821 295.982 316.625 291.62 325.363 286.973M343.849 167.517C347.4 170.831 350.76 175.096 353.788 179.63M353.788 179.63C360.095 189.077 364.962 199.696 367.121 205.337C379.724 242.036 359.293 260.286 347.502 264.824C346.578 269.798 340.685 278.824 325.363 286.973M353.788 179.63C364.477 171.925 381.226 145.666 362.711 102.276C339.567 48.0401 307.053 44.2782 298.034 49.6086C265.303 32.6011 192.509 11.5342 163.187 63.3261M182.794 77.6344C180.374 69.375 168.682 55.5481 141.282 66.3156C113.881 77.0832 106.752 95.0404 106.613 102.673C99.843 107.778 91.3334 117.024 86.6286 128.827M94.8674 178.546C80.8247 160.151 81.0914 142.718 86.6286 128.827M86.6286 128.827C86.5693 141.458 89.0331 167.228 99.3629 169.256M123.83 94.4668C118.962 95.131 109.067 100.464 108.429 116.481C105.61 118.232 99.5555 123.783 97.8889 131.975C95.8057 142.216 94.6498 161.224 116.102 166.972M156.718 70.6512C160.21 68.2226 168.305 64.8536 172.748 70.8065C178.301 78.2476 184.276 93.2451 169.338 97.0407C170.296 104.328 158.55 123.696 143.815 111.651C138.864 105.885 132.771 92.8948 148.014 87.0663C154.14 85.8285 164.511 86.4277 156.981 98.7271M152.25 336.582C156.168 348.926 171.347 368.163 200.717 346.351M152.25 336.582C147.783 341.271 143.366 345.217 138.951 348.488M200.717 346.351C206.089 347.655 211.98 348.315 218.361 348.042M138.951 348.488C144.048 359.651 163.794 376.807 202.003 356.131M138.951 348.488C134.257 351.965 129.567 354.678 124.822 356.708M124.822 356.708C137.129 368.32 162.108 382.338 187.232 373.537M218.361 348.042C215.479 352.147 212.515 355.725 209.494 358.825M209.494 358.825C202.284 366.224 194.752 370.903 187.232 373.537M325.363 286.973C317.625 322.329 289.034 380.695 231.286 382.246M187.232 373.537C203.492 380.01 218.144 382.599 231.286 382.246" stroke="url(#paint16_linear_328_1872)" stroke-linecap="round" stroke-linejoin="round"/>
<path d="M326.132 233.928C326.132 259.646 305.053 280.503 279.039 280.503C253.025 280.503 231.945 259.646 231.945 233.928C231.945 208.211 253.025 187.354 279.039 187.354C305.053 187.354 326.132 208.211 326.132 233.928Z" fill="url(#paint17_radial_328_1872)" stroke="url(#paint18_linear_328_1872)"/>
<path d="M105.796 412.007C118.529 363.605 168.988 335.3 218.519 348.818C268.049 362.335 297.853 412.545 285.12 460.947C272.387 509.348 221.927 537.653 172.397 524.135C122.867 510.618 93.0625 460.408 105.796 412.007Z" fill="url(#paint19_radial_328_1872)" stroke="url(#paint20_linear_328_1872)"/>
<defs>
<filter id="filter0_d_328_1872" x="481.078" y="280.184" width="112.315" height="170.073" filterUnits="userSpaceOnUse" color-interpolation-filters="sRGB">
<feFlood flood-opacity="0" result="BackgroundImageFix"/>
<feColorMatrix in="SourceAlpha" type="matrix" values="0 0 0 0 0 0 0 0 0 0 0 0 0 0 0 0 0 0 127 0" result="hardAlpha"/>
<feOffset dy="4"/>
<feGaussianBlur stdDeviation="2"/>
<feColorMatrix type="matrix" values="0 0 0 0 0 0 0 0 0 0 0 0 0 0 0 0 0 0 0.25 0"/>
<feBlend mode="normal" in2="BackgroundImageFix" result="effect1_dropShadow_328_1872"/>
<feBlend mode="normal" in="SourceGraphic" in2="effect1_dropShadow_328_1872" result="shape"/>
</filter>
<radialGradient id="paint0_radial_328_1872" cx="0" cy="0" r="1" gradientUnits="userSpaceOnUse" gradientTransform="translate(376.888 236.997) rotate(6.96199) scale(401.764 399.785)">
<stop offset="0.09375"/>
<stop offset="0.817708" stop-color="#413B47"/>
<stop offset="1" stop-color="#625664"/>
</radialGradient>
<linearGradient id="paint1_linear_328_1872" x1="412.607" y1="0" x2="412.607" y2="297.34" gradientUnits="userSpaceOnUse">
<stop stop-color="#857800"/>
<stop offset="1" stop-color="#F4E347"/>
</linearGradient>
<linearGradient id="paint2_linear_328_1872" x1="447.98" y1="473.973" x2="231.899" y2="335.815" gradientUnits="userSpaceOnUse">
<stop/>
<stop offset="0.404167" stop-color="#413B47"/>
<stop offset="0.753125" stop-color="#625664"/>
<stop offset="1" stop-color="#968387"/>
</linearGradient>
<linearGradient id="paint3_linear_328_1872" x1="219.682" y1="507.599" x2="302.239" y2="375.618" gradientUnits="userSpaceOnUse">
<stop stop-color="#857800"/>
<stop offset="1" stop-color="#F4E347"/>
</linearGradient>
<linearGradient id="paint4_linear_328_1872" x1="582.004" y1="214.057" x2="493.365" y2="253.17" gradientUnits="userSpaceOnUse">
<stop/>
<stop offset="0.404167" stop-color="#413B47"/>
<stop offset="0.753125" stop-color="#625664"/>
<stop offset="1" stop-color="#968387"/>
</linearGradient>
<linearGradient id="paint5_linear_328_1872" x1="545.832" y1="295.114" x2="521.048" y2="237.704" gradientUnits="userSpaceOnUse">
<stop stop-color="#857800"/>
<stop offset="1" stop-color="#F4E347"/>
</linearGradient>
<linearGradient id="paint6_linear_328_1872" x1="404.63" y1="390.226" x2="317.094" y2="334.257" gradientUnits="userSpaceOnUse">
<stop/>
<stop offset="0.404167" stop-color="#413B47"/>
<stop offset="0.753125" stop-color="#625664"/>
<stop offset="1" stop-color="#968387"/>
</linearGradient>
<linearGradient id="paint7_linear_328_1872" x1="311.96" y1="404.138" x2="345.594" y2="350.368" gradientUnits="userSpaceOnUse">
<stop stop-color="#857800"/>
<stop offset="1" stop-color="#F4E347"/>
</linearGradient>
<linearGradient id="paint8_linear_328_1872" x1="581.254" y1="391.765" x2="384.298" y2="265.835" gradientUnits="userSpaceOnUse">
<stop/>
<stop offset="0.404167" stop-color="#413B47"/>
<stop offset="0.753125" stop-color="#625664"/>
<stop offset="1" stop-color="#968387"/>
</linearGradient>
<linearGradient id="paint9_linear_328_1872" x1="397.864" y1="383.781" x2="447.806" y2="303.941" gradientUnits="userSpaceOnUse">
<stop stop-color="#857800"/>
<stop offset="1" stop-color="#F4E347"/>
</linearGradient>
<linearGradient id="paint10_linear_328_1872" x1="412.358" y1="9.74512" x2="412.358" y2="302.017" gradientUnits="userSpaceOnUse">
<stop stop-color="#857800"/>
<stop offset="1" stop-color="#F4E347"/>
</linearGradient>
<radialGradient id="paint11_radial_328_1872" cx="0" cy="0" r="1" gradientUnits="userSpaceOnUse" gradientTransform="translate(523.707 384.326) rotate(-22.9539) scale(101.092 86.3693)">
<stop/>
<stop offset="0.369792" stop-color="#413B47"/>
<stop offset="0.753125" stop-color="#625664"/>
<stop offset="1" stop-color="#968387"/>
</radialGradient>
<linearGradient id="paint12_linear_328_1872" x1="557.324" y1="279.778" x2="554.786" y2="364.21" gradientUnits="userSpaceOnUse">
<stop stop-color="#857800"/>
<stop offset="1" stop-color="#F4E347"/>
</linearGradient>
<linearGradient id="paint13_linear_328_1872" x1="405.548" y1="446.162" x2="521.485" y2="557.706" gradientUnits="userSpaceOnUse">
<stop/>
<stop offset="0.404167" stop-color="#413B47"/>
<stop offset="0.753125" stop-color="#625664"/>
<stop offset="1" stop-color="#968387"/>
</linearGradient>
<linearGradient id="paint14_linear_328_1872" x1="406.829" y1="537.098" x2="405.594" y2="442.135" gradientUnits="userSpaceOnUse">
<stop stop-color="#857800"/>
<stop offset="1" stop-color="#F4E347"/>
</linearGradient>
<linearGradient id="paint15_linear_328_1872" x1="263.25" y1="193.743" x2="26.7695" y2="15.462" gradientUnits="userSpaceOnUse">
<stop/>
<stop offset="0.404167" stop-color="#413B47"/>
<stop offset="0.753125" stop-color="#625664"/>
<stop offset="1" stop-color="#968387"/>
</linearGradient>
<linearGradient id="paint16_linear_328_1872" x1="241.116" y1="27.4891" x2="266.348" y2="212.378" gradientUnits="userSpaceOnUse">
<stop stop-color="#857800"/>
<stop offset="1" stop-color="#F4E347"/>
</linearGradient>
<radialGradient id="paint17_radial_328_1872" cx="0" cy="0" r="1" gradientUnits="userSpaceOnUse" gradientTransform="translate(291.455 216.19) rotate(48.1084) scale(68.5986 81.7197)">
<stop stop-color="#968387"/>
<stop offset="0.28125" stop-color="#625664"/>
<stop offset="0.416667" stop-color="#413B47"/>
<stop offset="1"/>
</radialGradient>
<linearGradient id="paint18_linear_328_1872" x1="296.108" y1="186.854" x2="296.108" y2="235.847" gradientUnits="userSpaceOnUse">
<stop stop-color="#857800"/>
<stop offset="1" stop-color="#F4E347"/>
</linearGradient>
<radialGradient id="paint19_radial_328_1872" cx="0" cy="0" r="1" gradientUnits="userSpaceOnUse" gradientTransform="translate(163.204 463.272) rotate(-117.312) scale(134.259 158.708)">
<stop stop-color="#968387"/>
<stop offset="0.28125" stop-color="#625664"/>
<stop offset="0.416667" stop-color="#413B47"/>
<stop offset="1"/>
</radialGradient>
<linearGradient id="paint20_linear_328_1872" x1="139.939" y1="515.795" x2="164.912" y2="424.29" gradientUnits="userSpaceOnUse">
<stop stop-color="#857800"/>
<stop offset="1" stop-color="#F4E347"/>
</linearGradient>
</defs>
</svg>
