<svg width="48" height="51" viewBox="0 0 48 51" fill="none" xmlns="http://www.w3.org/2000/svg">
<path d="M11.8939 29.262H9.09669L8.76384 30.0328C8.65483 30.2897 8.60033 30.5019 8.60033 30.6693C8.60033 30.8912 8.68987 31.0547 8.86895 31.1598C8.97406 31.2221 9.23295 31.2689 9.64561 31.3V31.5161H7.01196V31.3C7.29616 31.2572 7.52974 31.1404 7.71271 30.9496C7.89569 30.755 8.12148 30.3559 8.3901 29.7525L11.2223 23.4341H11.3333L14.1888 29.9277C14.4613 30.5428 14.6852 30.9302 14.8604 31.0898C14.9927 31.2105 15.1796 31.2805 15.421 31.3V31.5161H11.5902V31.3H11.7479C12.0554 31.3 12.2715 31.2572 12.3961 31.1715C12.4817 31.1092 12.5245 31.0197 12.5245 30.9029C12.5245 30.8328 12.5128 30.7608 12.4895 30.6868C12.4817 30.6518 12.4233 30.5058 12.3143 30.2489L11.8939 29.262ZM11.6953 28.8299L10.5157 26.1028L9.30108 28.8299H11.6953Z" fill="url(#paint0_linear_313_2079)"/>
<path d="M21.2722 23.5976V29.881C21.2722 30.3053 21.2839 30.5564 21.3073 30.6343C21.3384 30.7628 21.3968 30.8581 21.4824 30.9204C21.572 30.9827 21.7258 31.0216 21.9438 31.0372V31.2299L19.6371 31.6796V30.8153C19.3607 31.1501 19.1135 31.3779 18.8955 31.4985C18.6814 31.6192 18.4381 31.6796 18.1656 31.6796C17.4687 31.6796 16.9178 31.3681 16.513 30.7452C16.1859 30.2391 16.0224 29.6182 16.0224 28.8824C16.0224 28.2946 16.1237 27.769 16.3261 27.3057C16.5285 26.8386 16.8049 26.4862 17.1553 26.2488C17.5096 26.0113 17.8892 25.8925 18.294 25.8925C18.5549 25.8925 18.7865 25.9432 18.9889 26.0444C19.1914 26.1456 19.4074 26.3227 19.6371 26.5758V24.929C19.6371 24.5125 19.6196 24.2614 19.5846 24.1757C19.5379 24.0628 19.4678 23.9791 19.3744 23.9246C19.2809 23.8701 19.1057 23.8429 18.8488 23.8429V23.5976H21.2722ZM19.6371 27.2999C19.349 26.7471 18.9967 26.4707 18.5802 26.4707C18.4361 26.4707 18.3174 26.5096 18.224 26.5875C18.0799 26.7081 17.9612 26.9203 17.8677 27.224C17.7782 27.5276 17.7334 27.9928 17.7334 28.6196C17.7334 29.3087 17.784 29.8187 17.8853 30.1496C17.9865 30.4805 18.1247 30.7199 18.2999 30.8679C18.3894 30.9418 18.512 30.9788 18.6678 30.9788C19.0104 30.9788 19.3335 30.7102 19.6371 30.173V27.2999Z" fill="url(#paint1_linear_313_2079)"/>
<path d="M25.1964 25.8925C25.6714 25.8925 26.1132 26.0152 26.522 26.2604C26.9308 26.5057 27.2403 26.8541 27.4505 27.3057C27.6646 27.7573 27.7717 28.2517 27.7717 28.789C27.7717 29.5637 27.5751 30.2119 27.1819 30.7336C26.7069 31.3642 26.0509 31.6796 25.2139 31.6796C24.3925 31.6796 23.7599 31.3915 23.3161 30.8153C22.8723 30.2391 22.6504 29.5715 22.6504 28.8123C22.6504 28.0298 22.8762 27.3485 23.3278 26.7685C23.7832 26.1845 24.4061 25.8925 25.1964 25.8925ZM25.2198 26.3072C25.0212 26.3072 24.8499 26.3831 24.7059 26.5349C24.5657 26.6828 24.4723 26.9787 24.4256 27.4225C24.3828 27.8624 24.3614 28.4756 24.3614 29.262C24.3614 29.6785 24.3886 30.0678 24.4431 30.4299C24.4859 30.7063 24.5774 30.9165 24.7176 31.0606C24.8577 31.2046 25.0173 31.2766 25.1964 31.2766C25.3716 31.2766 25.5176 31.228 25.6344 31.1306C25.7862 30.9983 25.8874 30.8134 25.938 30.5759C26.0159 30.206 26.0548 29.4586 26.0548 28.3335C26.0548 27.6717 26.0179 27.2181 25.9439 26.9729C25.8699 26.7237 25.7609 26.5427 25.6169 26.4298C25.5156 26.348 25.3833 26.3072 25.2198 26.3072Z" fill="url(#paint2_linear_313_2079)"/>
<path d="M30.7148 23.5976V26.605C31.1742 26.13 31.6764 25.8925 32.2214 25.8925C32.5952 25.8925 32.9475 26.0035 33.2784 26.2254C33.6093 26.4434 33.8682 26.7549 34.0551 27.1597C34.2419 27.5646 34.3354 28.0318 34.3354 28.5612C34.3354 29.1569 34.2166 29.698 33.9791 30.1846C33.7417 30.6713 33.4244 31.0431 33.0273 31.3C32.6302 31.553 32.1767 31.6796 31.6667 31.6796C31.3708 31.6796 31.108 31.6329 30.8783 31.5394C30.6486 31.446 30.4228 31.2942 30.2009 31.0839L29.2958 31.6737H29.0973V24.7305C29.0973 24.4151 29.0836 24.2205 29.0564 24.1465C29.0174 24.0375 28.9552 23.9577 28.8695 23.9071C28.7878 23.8526 28.6476 23.8214 28.4491 23.8137V23.5976H30.7148ZM30.7148 27.1247V29.554C30.7148 30.0484 30.7265 30.3637 30.7499 30.5C30.7888 30.7297 30.8822 30.9165 31.0302 31.0606C31.1781 31.2007 31.3669 31.2708 31.5966 31.2708C31.7951 31.2708 31.9645 31.2144 32.1046 31.1015C32.2487 30.9886 32.3674 30.7647 32.4609 30.4299C32.5582 30.0951 32.6068 29.4917 32.6068 28.6196C32.6068 27.7826 32.5017 27.2084 32.2915 26.897C32.1397 26.6712 31.9353 26.5583 31.6784 26.5583C31.3435 26.5583 31.0224 26.7471 30.7148 27.1247Z" fill="url(#paint3_linear_313_2079)"/>
<path d="M39.883 28.5904H36.8873C36.9223 29.3145 37.115 29.8868 37.4654 30.3073C37.734 30.6304 38.0571 30.792 38.4347 30.792C38.6683 30.792 38.8805 30.7277 39.0713 30.5992C39.262 30.4669 39.4664 30.2314 39.6844 29.8927L39.883 30.0211C39.5871 30.6246 39.2601 31.0528 38.9019 31.3058C38.5438 31.555 38.1291 31.6796 37.6581 31.6796C36.8483 31.6796 36.2352 31.3681 35.8186 30.7452C35.4838 30.243 35.3164 29.6201 35.3164 28.8766C35.3164 27.9656 35.5617 27.2415 36.0522 26.7042C36.5466 26.1631 37.1247 25.8925 37.7866 25.8925C38.3394 25.8925 38.8182 26.1203 39.2231 26.5758C39.6319 27.0274 39.8518 27.6989 39.883 28.5904ZM38.4464 28.1992C38.4464 27.5724 38.4114 27.1422 38.3413 26.9086C38.2751 26.675 38.17 26.4979 38.026 26.3772C37.9442 26.3072 37.8352 26.2721 37.699 26.2721C37.4965 26.2721 37.3311 26.3714 37.2026 26.5699C36.9729 26.9164 36.8581 27.3914 36.8581 27.9948V28.1992H38.4464Z" fill="url(#paint4_linear_313_2079)"/>
<path d="M15.4875 7.43164L23.9104 21.3046" stroke="url(#paint5_linear_313_2079)" stroke-width="0.883281"/>
<path d="M23.9104 21.3052L32.8287 7.43224" stroke="url(#paint6_linear_313_2079)" stroke-width="0.883281"/>
<circle cx="15.488" cy="7.43204" r="1.98185" fill="url(#paint7_linear_313_2079)"/>
<circle cx="32.3332" cy="7.92716" r="1.98185" fill="url(#paint8_linear_313_2079)"/>
<path d="M23.9104 6.19336V21.305" stroke="url(#paint9_linear_313_2079)" stroke-width="0.883281"/>
<path fill-rule="evenodd" clip-rule="evenodd" d="M1.24799 25.2681C1.24799 12.7519 11.3944 2.60541 23.9107 2.60541C36.427 2.60541 46.5734 12.7519 46.5734 25.2681C46.5734 36.7791 37.9915 46.2856 26.8769 47.7385C26.8834 47.8234 26.8867 47.9093 26.8867 47.996C26.8867 48.3527 26.8308 48.6954 26.7279 49.0146C38.6058 47.6205 47.8214 37.5205 47.8214 25.2681C47.8214 12.0626 37.1162 1.35742 23.9107 1.35742C10.7052 1.35742 0 12.0626 0 25.2681C0 37.5662 9.28444 47.6957 21.2264 49.0299C21.1204 48.7063 21.0627 48.3584 21.0627 47.996C21.0627 47.9148 21.0656 47.8343 21.0713 47.7547C9.89521 46.3577 1.24799 36.8228 1.24799 25.2681Z" fill="url(#paint10_linear_313_2079)"/>
<circle cx="23.9747" cy="48.204" r="2.49598" fill="url(#paint11_linear_313_2079)"/>
<path fill-rule="evenodd" clip-rule="evenodd" d="M24.0939 5.44541L23.9077 5.31055L23.7237 5.44851L9.85078 15.8532L9.64746 16.0057L9.75568 16.2357L12.075 21.1641H12.7646L10.4285 16.1999L23.9142 6.08567L37.884 16.2018L35.4654 21.1641H36.1595L38.5598 16.2395L38.6746 16.0039L38.4623 15.8501L24.0939 5.44541ZM29.0631 35.724H28.369L23.9159 44.8606L19.6163 35.724H18.9267L23.6286 45.7157L23.906 46.3051L24.1914 45.7195L29.0631 35.724Z" fill="url(#paint12_linear_313_2079)"/>
<circle cx="23.9102" cy="3.9637" r="3.52206" stroke="url(#paint13_linear_313_2079)" stroke-width="0.883281"/>
<circle cx="9.54215" cy="16.3505" r="1.98185" fill="url(#paint14_linear_313_2079)"/>
<circle cx="38.279" cy="16.3505" r="1.98185" fill="url(#paint15_linear_313_2079)"/>
<circle cx="23.9106" cy="3.96329" r="1.98185" fill="url(#paint16_linear_313_2079)"/>
<defs>
<linearGradient id="paint0_linear_313_2079" x1="29.3421" y1="23.4341" x2="29.2929" y2="31.2523" gradientUnits="userSpaceOnUse">
<stop stop-color="#DECE98"/>
<stop offset="0.215625" stop-color="#D3BA65"/>
<stop offset="0.913541" stop-color="#9D894D"/>
</linearGradient>
<linearGradient id="paint1_linear_313_2079" x1="29.3421" y1="23.4341" x2="29.2929" y2="31.2523" gradientUnits="userSpaceOnUse">
<stop stop-color="#DECE98"/>
<stop offset="0.215625" stop-color="#D3BA65"/>
<stop offset="0.913541" stop-color="#9D894D"/>
</linearGradient>
<linearGradient id="paint2_linear_313_2079" x1="29.3421" y1="23.4341" x2="29.2929" y2="31.2523" gradientUnits="userSpaceOnUse">
<stop stop-color="#DECE98"/>
<stop offset="0.215625" stop-color="#D3BA65"/>
<stop offset="0.913541" stop-color="#9D894D"/>
</linearGradient>
<linearGradient id="paint3_linear_313_2079" x1="29.3421" y1="23.4341" x2="29.2929" y2="31.2523" gradientUnits="userSpaceOnUse">
<stop stop-color="#DECE98"/>
<stop offset="0.215625" stop-color="#D3BA65"/>
<stop offset="0.913541" stop-color="#9D894D"/>
</linearGradient>
<linearGradient id="paint4_linear_313_2079" x1="29.3421" y1="23.4341" x2="29.2929" y2="31.2523" gradientUnits="userSpaceOnUse">
<stop stop-color="#DECE98"/>
<stop offset="0.215625" stop-color="#D3BA65"/>
<stop offset="0.913541" stop-color="#9D894D"/>
</linearGradient>
<linearGradient id="paint5_linear_313_2079" x1="21.2094" y1="7.43164" x2="20.6668" y2="20.5638" gradientUnits="userSpaceOnUse">
<stop stop-color="#DECE98"/>
<stop offset="0.215625" stop-color="#D3BA65"/>
<stop offset="0.913541" stop-color="#9D894D"/>
</linearGradient>
<linearGradient id="paint6_linear_313_2079" x1="29.9689" y1="21.3052" x2="29.4563" y2="8.17064" gradientUnits="userSpaceOnUse">
<stop stop-color="#DECE98"/>
<stop offset="0.215625" stop-color="#D3BA65"/>
<stop offset="0.913541" stop-color="#9D894D"/>
</linearGradient>
<linearGradient id="paint7_linear_313_2079" x1="16.1987" y1="5.4502" x2="16.1045" y2="9.20627" gradientUnits="userSpaceOnUse">
<stop stop-color="#DECE98"/>
<stop offset="0.215625" stop-color="#D3BA65"/>
<stop offset="0.913541" stop-color="#9D894D"/>
</linearGradient>
<linearGradient id="paint8_linear_313_2079" x1="33.044" y1="5.94531" x2="32.9497" y2="9.70139" gradientUnits="userSpaceOnUse">
<stop stop-color="#DECE98"/>
<stop offset="0.215625" stop-color="#D3BA65"/>
<stop offset="0.913541" stop-color="#9D894D"/>
</linearGradient>
<linearGradient id="paint9_linear_313_2079" x1="24.5897" y1="6.19336" x2="19.8404" y2="18.722" gradientUnits="userSpaceOnUse">
<stop stop-color="#DECE98"/>
<stop offset="0.215625" stop-color="#D3BA65"/>
<stop offset="0.913541" stop-color="#9D894D"/>
</linearGradient>
<linearGradient id="paint10_linear_313_2079" x1="32.4864" y1="1.35742" x2="31.3567" y2="46.5329" gradientUnits="userSpaceOnUse">
<stop stop-color="#DECE98"/>
<stop offset="0.215625" stop-color="#D3BA65"/>
<stop offset="0.913541" stop-color="#9D894D"/>
</linearGradient>
<linearGradient id="paint11_linear_313_2079" x1="24.8699" y1="45.708" x2="24.7513" y2="50.4385" gradientUnits="userSpaceOnUse">
<stop stop-color="#DECE98"/>
<stop offset="0.215625" stop-color="#D3BA65"/>
<stop offset="0.913541" stop-color="#9D894D"/>
</linearGradient>
<linearGradient id="paint12_linear_313_2079" x1="29.3664" y1="5.31055" x2="27.991" y2="44.1334" gradientUnits="userSpaceOnUse">
<stop stop-color="#DECE98"/>
<stop offset="0.215625" stop-color="#D3BA65"/>
<stop offset="0.913541" stop-color="#9D894D"/>
</linearGradient>
<linearGradient id="paint13_linear_313_2079" x1="25.3318" y1="-5.8682e-09" x2="25.1434" y2="7.51215" gradientUnits="userSpaceOnUse">
<stop stop-color="#DECE98"/>
<stop offset="0.215625" stop-color="#D3BA65"/>
<stop offset="0.913541" stop-color="#9D894D"/>
</linearGradient>
<linearGradient id="paint14_linear_313_2079" x1="10.2529" y1="14.3687" x2="10.1587" y2="18.1247" gradientUnits="userSpaceOnUse">
<stop stop-color="#DECE98"/>
<stop offset="0.215625" stop-color="#D3BA65"/>
<stop offset="0.913541" stop-color="#9D894D"/>
</linearGradient>
<linearGradient id="paint15_linear_313_2079" x1="38.9898" y1="14.3687" x2="38.8955" y2="18.1247" gradientUnits="userSpaceOnUse">
<stop stop-color="#DECE98"/>
<stop offset="0.215625" stop-color="#D3BA65"/>
<stop offset="0.913541" stop-color="#9D894D"/>
</linearGradient>
<linearGradient id="paint16_linear_313_2079" x1="24.6214" y1="1.98145" x2="24.5271" y2="5.73752" gradientUnits="userSpaceOnUse">
<stop stop-color="#DECE98"/>
<stop offset="0.215625" stop-color="#D3BA65"/>
<stop offset="0.913541" stop-color="#9D894D"/>
</linearGradient>
</defs>
</svg>
