<svg width="107" height="107" viewBox="0 0 107 107" fill="none" xmlns="http://www.w3.org/2000/svg">
<path d="M33.9533 44.3763H27.6692L26.9214 46.1081C26.6765 46.6854 26.554 47.162 26.554 47.5381C26.554 48.0367 26.7552 48.404 27.1575 48.6401C27.3937 48.7801 27.9753 48.885 28.9024 48.955V49.4404H22.9855V48.955C23.624 48.8588 24.1488 48.5964 24.5599 48.1678C24.9709 47.7305 25.4782 46.834 26.0817 45.4784L32.4446 31.2832H32.6939L39.1093 45.872C39.7215 47.2539 40.2244 48.1241 40.618 48.4827C40.9154 48.7538 41.3352 48.9113 41.8775 48.955V49.4404H33.2711V48.955H33.6254C34.3163 48.955 34.8017 48.8588 35.0816 48.6664C35.274 48.5264 35.3702 48.3253 35.3702 48.0629C35.3702 47.9055 35.344 47.7437 35.2915 47.5775C35.274 47.4988 35.1428 47.1708 34.8979 46.5935L33.9533 44.3763ZM33.5073 43.4055L30.8572 37.2788L28.1283 43.4055H33.5073ZM48.4765 38.4595V46.974C48.4765 47.7961 48.564 48.3122 48.7389 48.5221C49.0188 48.8457 49.5348 48.9944 50.287 48.9681V49.4404H43.0582V48.9681C43.6092 48.9594 43.9984 48.8982 44.2258 48.7845C44.462 48.662 44.6238 48.4958 44.7112 48.2859C44.7987 48.076 44.8424 47.6387 44.8424 46.974V38.4595H43.0582V37.1738H44.8424V36.2686L44.8293 35.652C44.8293 34.3925 45.2885 33.3429 46.2069 32.5033C47.134 31.6637 48.3847 31.2438 49.959 31.2438C51.0348 31.2438 51.8307 31.445 52.3467 31.8473C52.8715 32.2497 53.1339 32.6957 53.1339 33.1855C53.1339 33.5791 52.9721 33.9202 52.6485 34.2088C52.3249 34.4975 51.8963 34.6418 51.3628 34.6418C50.908 34.6418 50.545 34.5237 50.2739 34.2875C50.0115 34.0514 49.8803 33.789 49.8803 33.5004C49.8803 33.4217 49.9065 33.2599 49.959 33.015C49.994 32.8663 50.0115 32.7263 50.0115 32.5951C50.0115 32.4115 49.959 32.2759 49.854 32.1884C49.7141 32.0572 49.5436 31.9916 49.3424 31.9916C49.0887 31.9916 48.8745 32.0966 48.6995 32.3065C48.5334 32.5164 48.4503 32.8532 48.4503 33.3167L48.4765 35.6126V37.1738H50.287V38.4595H48.4765ZM56.9123 32.687V37.1738H59.8248V38.4726H56.9123V46.0425C56.9123 46.751 56.9429 47.2101 57.0041 47.42C57.0741 47.6212 57.1921 47.7874 57.3583 47.9186C57.5245 48.041 57.6776 48.1023 57.8175 48.1023C58.386 48.1023 58.9239 47.6693 59.4312 46.8034L59.8248 47.0921C59.1163 48.7713 57.9662 49.611 56.3744 49.611C55.596 49.611 54.9356 49.3967 54.3933 48.9681C53.8598 48.5308 53.5187 48.0454 53.37 47.5119C53.2826 47.2145 53.2388 46.4099 53.2388 45.0979V38.4726H51.6383V38.0134C52.7403 37.235 53.6762 36.4173 54.4458 35.5601C55.2242 34.703 55.9021 33.7453 56.4793 32.687H56.9123ZM71.383 42.8676H64.6527C64.7314 44.4944 65.1644 45.7801 65.9515 46.7247C66.555 47.4507 67.281 47.8136 68.1293 47.8136C68.6541 47.8136 69.1308 47.6693 69.5594 47.3807C69.9879 47.0833 70.4471 46.5542 70.9369 45.7932L71.383 46.0819C70.7182 47.4375 69.9836 48.3996 69.1789 48.9681C68.3742 49.5279 67.4428 49.8078 66.3845 49.8078C64.5652 49.8078 63.1877 49.1081 62.2519 47.7087C61.4997 46.5804 61.1236 45.181 61.1236 43.5105C61.1236 41.4638 61.6746 39.837 62.7766 38.6301C63.8874 37.4143 65.1862 36.8065 66.6731 36.8065C67.9151 36.8065 68.9909 37.3181 69.9005 38.3414C70.8188 39.356 71.313 40.8647 71.383 42.8676ZM68.1556 41.9886C68.1556 40.5805 68.0769 39.614 67.9194 39.0892C67.7708 38.5645 67.5346 38.1665 67.211 37.8954C67.0273 37.7379 66.7824 37.6592 66.4763 37.6592C66.0215 37.6592 65.6498 37.8823 65.3612 38.3283C64.8451 39.1067 64.5871 40.1738 64.5871 41.5294V41.9886H68.1556ZM78.0214 37.1738V39.9551C78.8348 38.6869 79.5476 37.8473 80.1598 37.4362C80.7721 37.0164 81.3624 36.8065 81.9309 36.8065C82.4207 36.8065 82.8099 36.9595 83.0986 37.2656C83.3959 37.563 83.5446 37.9872 83.5446 38.5382C83.5446 39.1242 83.4003 39.579 83.1117 39.9026C82.8318 40.2262 82.4907 40.3881 82.0884 40.3881C81.6248 40.3881 81.2225 40.2394 80.8814 39.942C80.5403 39.6446 80.3391 39.4784 80.2779 39.4435C80.1904 39.391 80.0899 39.3647 79.9761 39.3647C79.7225 39.3647 79.482 39.461 79.2546 39.6534C78.896 39.9507 78.6249 40.3749 78.4412 40.9259C78.1613 41.7743 78.0214 42.7102 78.0214 43.7335V46.5542L78.0345 47.2889C78.0345 47.7874 78.0651 48.1066 78.1263 48.2466C78.2313 48.4827 78.3843 48.6576 78.5855 48.7713C78.7954 48.8763 79.1453 48.9419 79.635 48.9681V49.4404H73.0098V48.9681C73.5433 48.9244 73.9019 48.7801 74.0855 48.5352C74.278 48.2816 74.3742 47.6212 74.3742 46.5542V39.7714C74.3742 39.0717 74.3392 38.6257 74.2692 38.4333C74.1818 38.1884 74.0549 38.0091 73.8888 37.8954C73.7226 37.7817 73.4296 37.703 73.0098 37.6592V37.1738H78.0214ZM21.1357 52.6739V59.9158H21.4899C22.6182 59.9158 23.436 59.5615 23.9433 58.8531C24.4505 58.1446 24.7742 57.0995 24.9141 55.7176H25.4126V65.0323H24.9141C24.8091 64.0178 24.5861 63.1869 24.245 62.5396C23.9126 61.8924 23.5234 61.4595 23.0774 61.2408C22.6313 61.0134 21.9841 60.8997 21.1357 60.8997V65.9113C21.1357 66.8909 21.1751 67.49 21.2538 67.7087C21.3412 67.9273 21.4987 68.1066 21.7261 68.2466C21.9535 68.3865 22.3208 68.4565 22.8281 68.4565H23.8908C25.5526 68.4565 26.882 68.0716 27.8791 67.302C28.8849 66.5323 29.6065 65.3603 30.0438 63.786H30.5292L29.7289 69.4404H14.353V68.955H14.9434C15.4594 68.955 15.8748 68.8632 16.1897 68.6795C16.4171 68.5571 16.592 68.3471 16.7145 68.0498C16.8107 67.8399 16.8588 67.2889 16.8588 66.3967V54.6942C16.8588 53.8896 16.8369 53.3954 16.7932 53.2118C16.7057 52.9056 16.5439 52.6695 16.3078 52.5033C15.9754 52.2584 15.5206 52.136 14.9434 52.136H14.353V51.6505H29.2435V56.9114H28.745C28.4913 55.6257 28.1327 54.703 27.6692 54.1432C27.2144 53.5835 26.5671 53.1724 25.7275 52.91C25.2377 52.7526 24.3193 52.6739 22.9724 52.6739H21.1357ZM38.0204 58.4595V66.974C38.0204 67.7961 38.1078 68.3122 38.2827 68.5221C38.5626 68.8457 39.0787 68.9944 39.8308 68.9681V69.4404H32.6021V68.9681C33.1531 68.9594 33.5423 68.8982 33.7697 68.7845C34.0058 68.662 34.1676 68.4958 34.2551 68.2859C34.3426 68.076 34.3863 67.6387 34.3863 66.974V58.4595H32.6021V57.1738H34.3863V56.2686L34.3732 55.652C34.3732 54.3925 34.8323 53.3429 35.7507 52.5033C36.6778 51.6637 37.9285 51.2438 39.5028 51.2438C40.5786 51.2438 41.3745 51.445 41.8906 51.8473C42.4154 52.2497 42.6777 52.6957 42.6777 53.1855C42.6777 53.5791 42.5159 53.9202 42.1923 54.2088C41.8687 54.4975 41.4401 54.6418 40.9066 54.6418C40.4518 54.6418 40.0888 54.5237 39.8177 54.2875C39.5553 54.0514 39.4241 53.789 39.4241 53.5004C39.4241 53.4217 39.4504 53.2599 39.5028 53.015C39.5378 52.8663 39.5553 52.7263 39.5553 52.5951C39.5553 52.4115 39.5028 52.2759 39.3979 52.1884C39.258 52.0572 39.0874 51.9916 38.8862 51.9916C38.6326 51.9916 38.4183 52.0966 38.2434 52.3065C38.0772 52.5164 37.9941 52.8532 37.9941 53.3167L38.0204 55.6126V57.1738H39.8308V58.4595H38.0204ZM46.9678 58.4595V66.974C46.9678 67.7961 47.0552 68.3122 47.2302 68.5221C47.51 68.8457 48.0261 68.9944 48.7783 68.9681V69.4404H41.5495V68.9681C42.1005 68.9594 42.4897 68.8982 42.7171 68.7845C42.9532 68.662 43.1151 68.4958 43.2025 68.2859C43.29 68.076 43.3337 67.6387 43.3337 66.974V58.4595H41.5495V57.1738H43.3337V56.2686L43.3206 55.652C43.3206 54.3925 43.7798 53.3429 44.6981 52.5033C45.6252 51.6637 46.8759 51.2438 48.4503 51.2438C49.5261 51.2438 50.322 51.445 50.838 51.8473C51.3628 52.2497 51.6252 52.6957 51.6252 53.1855C51.6252 53.5791 51.4634 53.9202 51.1397 54.2088C50.8161 54.4975 50.3876 54.6418 49.854 54.6418C49.3992 54.6418 49.0363 54.5237 48.7651 54.2875C48.5027 54.0514 48.3716 53.789 48.3716 53.5004C48.3716 53.4217 48.3978 53.2599 48.4503 53.015C48.4853 52.8663 48.5027 52.7263 48.5027 52.5951C48.5027 52.4115 48.4503 52.2759 48.3453 52.1884C48.2054 52.0572 48.0348 51.9916 47.8337 51.9916C47.58 51.9916 47.3657 52.0966 47.1908 52.3065C47.0246 52.5164 46.9415 52.8532 46.9415 53.3167L46.9678 55.6126V57.1738H48.7783V58.4595H46.9678ZM60.9268 62.8676H54.1966C54.2753 64.4944 54.7082 65.7801 55.4954 66.7247C56.0989 67.4507 56.8248 67.8136 57.6732 67.8136C58.198 67.8136 58.6746 67.6693 59.1032 67.3807C59.5318 67.0833 59.991 66.5542 60.4807 65.7932L60.9268 66.0819C60.2621 67.4375 59.5274 68.3996 58.7227 68.9681C57.9181 69.5279 56.9866 69.8078 55.9283 69.8078C54.1091 69.8078 52.7316 69.1081 51.7957 67.7087C51.0435 66.5804 50.6674 65.181 50.6674 63.5105C50.6674 61.4638 51.2185 59.837 52.3205 58.6301C53.4313 57.4143 54.7301 56.8065 56.2169 56.8065C57.4589 56.8065 58.5347 57.3181 59.4443 58.3414C60.3627 59.356 60.8568 60.8647 60.9268 62.8676ZM57.6994 61.9886C57.6994 60.5805 57.6207 59.614 57.4633 59.0892C57.3146 58.5645 57.0784 58.1665 56.7548 57.8954C56.5712 57.7379 56.3263 57.6592 56.0202 57.6592C55.5653 57.6592 55.1936 57.8823 54.905 58.3283C54.389 59.1067 54.131 60.1738 54.131 61.5294V61.9886H57.6994ZM72.485 66.2787L72.8917 66.5935C72.3144 67.6781 71.5929 68.4871 70.727 69.0206C69.8698 69.5454 68.9559 69.8078 67.985 69.8078C66.3495 69.8078 65.0419 69.1912 64.0623 67.9579C63.0828 66.7247 62.593 65.2422 62.593 63.5105C62.593 61.8399 63.039 60.3706 63.9311 59.1024C65.0069 57.5718 66.4894 56.8065 68.3786 56.8065C69.6468 56.8065 70.6526 57.1257 71.3961 57.7642C72.1482 58.4027 72.5243 59.1155 72.5243 59.9026C72.5243 60.4012 72.3713 60.7991 72.0652 61.0965C71.7678 61.3939 71.3742 61.5426 70.8844 61.5426C70.3684 61.5426 69.9398 61.372 69.5987 61.0309C69.2664 60.6898 69.0608 60.0819 68.9821 59.2073C68.9296 58.6563 68.8028 58.2715 68.6016 58.0528C68.4005 57.8341 68.1643 57.7248 67.8932 57.7248C67.4734 57.7248 67.1148 57.9478 66.8174 58.3939C66.3626 59.0674 66.1352 60.0994 66.1352 61.4901C66.1352 62.6446 66.3189 63.751 66.6862 64.8093C67.0536 65.8588 67.5565 66.6416 68.1949 67.1577C68.676 67.5337 69.2445 67.7218 69.9005 67.7218C70.329 67.7218 70.7357 67.6212 71.1206 67.42C71.5054 67.2189 71.9602 66.8384 72.485 66.2787ZM79.2808 52.687V57.1738H82.1933V58.4726H79.2808V66.0425C79.2808 66.751 79.3114 67.2101 79.3727 67.42C79.4426 67.6212 79.5607 67.7874 79.7269 67.9186C79.8931 68.041 80.0461 68.1023 80.1861 68.1023C80.7546 68.1023 81.2925 67.6693 81.7997 66.8034L82.1933 67.0921C81.4849 68.7713 80.3347 69.611 78.7429 69.611C77.9645 69.611 77.3042 69.3967 76.7619 68.9681C76.2284 68.5308 75.8873 68.0454 75.7386 67.5119C75.6511 67.2145 75.6074 66.4099 75.6074 65.0979V58.4726H74.0068V58.0134C75.1089 57.235 76.0447 56.4173 76.8144 55.5601C77.5928 54.703 78.2706 53.7453 78.8479 52.687H79.2808ZM91.1145 56.8327L91.3113 61.0178H90.8652C90.3317 59.7758 89.7763 58.9274 89.1991 58.4726C88.6306 58.0178 88.0621 57.7904 87.4936 57.7904C87.135 57.7904 86.8288 57.9129 86.5752 58.1578C86.3216 58.3939 86.1947 58.6694 86.1947 58.9843C86.1947 59.2204 86.2822 59.4478 86.4571 59.6665C86.737 60.0251 87.5198 60.6417 88.8055 61.5163C90.0912 62.3822 90.9352 63.1213 91.3375 63.7335C91.7486 64.337 91.9541 65.0148 91.9541 65.767C91.9541 66.4492 91.7836 67.1183 91.4425 67.7743C91.1014 68.4302 90.6203 68.9331 89.9994 69.283C89.3784 69.6328 88.6918 69.8078 87.9396 69.8078C87.3536 69.8078 86.5708 69.6241 85.5912 69.2568C85.3289 69.1605 85.1496 69.1124 85.0533 69.1124C84.7647 69.1124 84.5242 69.3311 84.3318 69.7684H83.8988L83.6889 65.3603H84.135C84.5286 66.5148 85.0665 67.3807 85.7487 67.9579C86.4396 68.5352 87.0912 68.8238 87.7035 68.8238C88.1233 68.8238 88.4644 68.697 88.7268 68.4434C88.9979 68.181 89.1335 67.8661 89.1335 67.4988C89.1335 67.0789 89.0023 66.716 88.7399 66.4099C88.4775 66.1037 87.8915 65.6402 86.9819 65.0192C85.6437 64.0921 84.7778 63.3836 84.3843 62.8939C83.807 62.1767 83.5184 61.3851 83.5184 60.5192C83.5184 59.5747 83.842 58.7219 84.4892 57.961C85.1452 57.1913 86.0898 56.8065 87.323 56.8065C87.9877 56.8065 88.6306 56.9683 89.2516 57.2919C89.4877 57.4231 89.6801 57.4887 89.8288 57.4887C89.9862 57.4887 90.1131 57.4581 90.2093 57.3968C90.3055 57.3269 90.4585 57.1388 90.6684 56.8327H91.1145Z" fill="url(#paint0_linear_415_1826)"/>
<circle cx="53.3692" cy="53.3692" r="52.8014" stroke="url(#paint1_linear_415_1826)" stroke-width="1.13551"/>
<circle cx="32.9306" cy="14.7622" r="7.38096" stroke="url(#paint2_linear_415_1826)" stroke-width="1.13551"/>
<circle cx="82.894" cy="22.7104" r="7.38096" stroke="url(#paint3_linear_415_1826)" stroke-width="1.13551"/>
<circle cx="23.8462" cy="79.4878" r="7.38096" stroke="url(#paint4_linear_415_1826)" stroke-width="1.13551"/>
<circle cx="73.8086" cy="90.8413" r="7.38096" stroke="url(#paint5_linear_415_1826)" stroke-width="1.13551"/>
<circle cx="62.4544" cy="20.4398" r="3.40659" fill="url(#paint6_linear_415_1826)"/>
<circle cx="96.5184" cy="46.556" r="3.40659" fill="url(#paint7_linear_415_1826)"/>
<circle cx="44.285" cy="96.5189" r="3.40659" fill="url(#paint8_linear_415_1826)"/>
<circle cx="14.7621" cy="38.6087" r="3.40659" fill="url(#paint9_linear_415_1826)"/>
<circle cx="23.8461" cy="79.4872" r="5.1099" stroke="url(#paint10_linear_415_1826)" stroke-width="1.13551"/>
<circle cx="48.828" cy="79.4872" r="5.1099" stroke="url(#paint11_linear_415_1826)" stroke-width="1.13551"/>
<circle cx="73.8085" cy="90.8407" r="5.1099" stroke="url(#paint12_linear_415_1826)" stroke-width="1.13551"/>
<circle cx="32.9306" cy="14.7616" r="5.1099" stroke="url(#paint13_linear_415_1826)" stroke-width="1.13551"/>
<defs>
<linearGradient id="paint0_linear_415_1826" x1="67.6242" y1="20.4404" x2="66.571" y2="76.6835" gradientUnits="userSpaceOnUse">
<stop stop-color="#DECE98"/>
<stop offset="0.215625" stop-color="#D3BA65"/>
<stop offset="0.913541" stop-color="#9D894D"/>
</linearGradient>
<linearGradient id="paint1_linear_415_1826" x1="72.5102" y1="-7.90124e-08" x2="69.9729" y2="101.147" gradientUnits="userSpaceOnUse">
<stop stop-color="#DECE98"/>
<stop offset="0.215625" stop-color="#D3BA65"/>
<stop offset="0.913541" stop-color="#9D894D"/>
</linearGradient>
<linearGradient id="paint2_linear_415_1826" x1="35.7815" y1="6.81348" x2="35.4036" y2="21.8782" gradientUnits="userSpaceOnUse">
<stop stop-color="#DECE98"/>
<stop offset="0.215625" stop-color="#D3BA65"/>
<stop offset="0.913541" stop-color="#9D894D"/>
</linearGradient>
<linearGradient id="paint3_linear_415_1826" x1="85.7449" y1="14.7617" x2="85.367" y2="29.8264" gradientUnits="userSpaceOnUse">
<stop stop-color="#DECE98"/>
<stop offset="0.215625" stop-color="#D3BA65"/>
<stop offset="0.913541" stop-color="#9D894D"/>
</linearGradient>
<linearGradient id="paint4_linear_415_1826" x1="26.697" y1="71.5391" x2="26.3191" y2="86.6038" gradientUnits="userSpaceOnUse">
<stop stop-color="#DECE98"/>
<stop offset="0.215625" stop-color="#D3BA65"/>
<stop offset="0.913541" stop-color="#9D894D"/>
</linearGradient>
<linearGradient id="paint5_linear_415_1826" x1="76.6594" y1="82.8926" x2="76.2815" y2="97.9573" gradientUnits="userSpaceOnUse">
<stop stop-color="#DECE98"/>
<stop offset="0.215625" stop-color="#D3BA65"/>
<stop offset="0.913541" stop-color="#9D894D"/>
</linearGradient>
<linearGradient id="paint6_linear_415_1826" x1="63.6762" y1="17.0332" x2="63.5143" y2="23.4895" gradientUnits="userSpaceOnUse">
<stop stop-color="#DECE98"/>
<stop offset="0.215625" stop-color="#D3BA65"/>
<stop offset="0.913541" stop-color="#9D894D"/>
</linearGradient>
<linearGradient id="paint7_linear_415_1826" x1="97.7402" y1="43.1494" x2="97.5782" y2="49.6057" gradientUnits="userSpaceOnUse">
<stop stop-color="#DECE98"/>
<stop offset="0.215625" stop-color="#D3BA65"/>
<stop offset="0.913541" stop-color="#9D894D"/>
</linearGradient>
<linearGradient id="paint8_linear_415_1826" x1="45.5068" y1="93.1123" x2="45.3448" y2="99.5686" gradientUnits="userSpaceOnUse">
<stop stop-color="#DECE98"/>
<stop offset="0.215625" stop-color="#D3BA65"/>
<stop offset="0.913541" stop-color="#9D894D"/>
</linearGradient>
<linearGradient id="paint9_linear_415_1826" x1="15.9838" y1="35.2021" x2="15.8219" y2="41.6585" gradientUnits="userSpaceOnUse">
<stop stop-color="#DECE98"/>
<stop offset="0.215625" stop-color="#D3BA65"/>
<stop offset="0.913541" stop-color="#9D894D"/>
</linearGradient>
<linearGradient id="paint10_linear_415_1826" x1="25.8824" y1="73.8096" x2="25.6125" y2="84.5701" gradientUnits="userSpaceOnUse">
<stop stop-color="#DECE98"/>
<stop offset="0.215625" stop-color="#D3BA65"/>
<stop offset="0.913541" stop-color="#9D894D"/>
</linearGradient>
<linearGradient id="paint11_linear_415_1826" x1="50.8644" y1="73.8096" x2="50.5944" y2="84.5701" gradientUnits="userSpaceOnUse">
<stop stop-color="#DECE98"/>
<stop offset="0.215625" stop-color="#D3BA65"/>
<stop offset="0.913541" stop-color="#9D894D"/>
</linearGradient>
<linearGradient id="paint12_linear_415_1826" x1="75.8448" y1="85.1631" x2="75.5749" y2="95.9236" gradientUnits="userSpaceOnUse">
<stop stop-color="#DECE98"/>
<stop offset="0.215625" stop-color="#D3BA65"/>
<stop offset="0.913541" stop-color="#9D894D"/>
</linearGradient>
<linearGradient id="paint13_linear_415_1826" x1="34.9669" y1="9.08398" x2="34.697" y2="19.8445" gradientUnits="userSpaceOnUse">
<stop stop-color="#DECE98"/>
<stop offset="0.215625" stop-color="#D3BA65"/>
<stop offset="0.913541" stop-color="#9D894D"/>
</linearGradient>
</defs>
</svg>
