<svg width="983" height="435" viewBox="0 0 983 435" fill="none" xmlns="http://www.w3.org/2000/svg">
<path d="M733.972 206.182C725.356 217.931 704.13 240.487 688.152 246.127C668.179 253.177 645.857 255.527 627.059 248.477C619.358 245.59 607.086 236.729 603.561 233.204C600.037 229.68 598.862 244.954 577.714 255.527C564.616 262.076 555.391 264.926 547.167 264.926C540.246 264.926 500.036 273.248 473.465 249.968C483.679 260.776 497.171 283.888 489.37 312.34C488.232 321.971 485.507 330.678 482.55 336.593C476.584 348.524 454.954 377.013 402.659 386.25C397.833 387.102 392.746 387.79 387.386 388.287C323.943 394.161 298.096 355.744 300.446 332.657C296.529 335.654 286.112 339.848 275.773 332.657C270.5 328.99 267.217 319.663 268 316.139C259.613 314.348 251.989 310.976 246.402 306.046C230.423 291.948 231.128 275.891 233.478 269.625C184.701 219.106 207.024 136.11 282.823 113.368C271.074 101.227 253.451 69.1927 276.948 38.1762C306.32 -0.594429 359.189 -1.7693 377.987 2.93017C396.785 7.62964 434.38 32.3015 428.506 62.8481C423.807 87.2853 409.317 96.5282 402.659 98.095V91.0449C398.351 96.136 386.211 103.263 372.113 91.0449C357.825 90.5133 330.069 81.7799 333.342 51.0994C327.468 67.5475 327.468 93.3936 372.113 103.968C416.757 114.543 450.829 99.2689 453.178 96.9192C455.528 94.5695 481.375 78.121 482.55 58.1486C483.725 38.1762 459.052 51.0994 470.801 67.5475C464.143 61.6734 455.763 47.5754 475.501 38.1762C479.809 37.7845 489.835 38.6458 495.474 45.225C512.036 32.9567 547.623 18.4304 581.239 35.7342C590.546 40.5248 599.702 47.7552 608.261 58.1486C613.503 57.4496 622.675 59.3081 621.916 71.0721C625.589 72.247 632.463 76.2415 630.583 82.8208C634.108 84.3879 640.452 89.6366 637.633 98.095C634.813 106.553 625.98 108.668 621.916 108.668C622.847 108.276 626.451 104.602 626.451 100.844C624.937 101.549 623.403 102.418 621.916 103.478C619.977 104.86 618.118 106.569 616.485 108.668C608.261 119.242 609.436 132.165 611.785 142.739C614.135 153.313 623.534 167.412 630.583 174.461C634.891 177.594 648.676 182.685 669.354 177.985C695.201 172.111 711.649 149.787 710.474 132.165C709.299 114.543 699.901 92.2197 674.053 92.2197C666.936 92.2197 661.601 94.0904 657.605 96.8506C662.696 88.6491 680.868 74.831 712.824 85.1705C752.77 98.095 771.568 142.738 752.77 192.083L749.245 186.209C750.027 183.906 750.823 181.123 751.547 177.985L745.72 176.81C743.762 184.151 738.671 200.302 733.972 206.182Z" fill="url(#paint0_linear_329_1884)"/>
<path d="M521.32 193.259C516.621 193.259 516.621 196.784 516.621 199.134C516.621 203.833 523.67 205.007 527.195 202.658C530.719 200.308 536.594 189.735 527.195 181.51C523.67 179.552 514.741 177.046 507.222 182.685C500.956 187.385 491.244 201.248 502.522 219.106C516.621 241.429 543.643 228.505 547.167 222.631M547.167 222.631C550.692 216.757 561.266 197.958 547.167 182.685C533.069 167.412 530.719 160.363 516.621 155.663C502.522 150.964 479.038 164.152 470.801 182.685C466.101 193.259 461.402 247.303 521.32 252.003M547.167 222.631C554.217 217.54 566.2 202.187 557.741 181.51C547.167 155.663 526.02 143.915 514.271 139.216C502.522 134.516 456.703 148.613 455.528 181.51M594.162 182.685C591.812 196.784 580.064 228.27 551.867 241.429C547.951 242.604 537.533 244.954 527.195 244.954C514.271 244.954 517.796 259.052 544.818 255.527C571.84 252.003 589.463 230.855 591.812 221.456M436.73 174.461C435.555 126.291 494.298 101.62 521.32 98.095C542.938 95.2753 553.042 106.319 555.391 112.194C565.73 108.434 574.581 112.194 577.714 114.543C587.113 118.459 604.971 131.46 601.212 152.138C596.512 177.985 585.938 176.81 583.589 177.985M460.227 189.734C453.961 176.419 422.632 155.663 387.386 211.338M460.227 206.182C448.479 196.391 416.757 184.329 383.861 214.406C374.854 222.239 358.014 245.658 362.713 276.674C361.147 277.458 356.839 281.609 352.139 291.948C348.927 299.014 349.228 317.323 359.189 332.657M476.675 309.571C463.752 332.676 414.408 368.314 369.762 323.669M476.675 309.571C480.2 291.948 474.893 258.297 440.822 261.821C413.565 264.64 410.883 289.206 414.408 302.521M476.675 309.571C473.542 318.969 465.781 333.278 451.461 343.642M476.675 309.571C476.284 326.227 460.932 364.882 402.659 386.25M460.227 222.631C448.087 214.407 418.402 202.658 396.785 221.456M359.189 332.657C367.444 345.366 382.334 356.033 407.358 356.565C426.291 356.968 440.721 351.415 451.461 343.642M359.189 332.657C347.91 302.253 363.888 282.667 373.287 276.674C364.828 254.117 376.812 235.162 383.861 228.505C409.238 209.706 434.772 227.33 444.954 237.904C450.829 228.505 457.094 232.812 460.227 233.204C463.038 238.404 466.302 242.813 469.886 246.547M434.38 294.297C436.338 292.731 440.725 291.008 442.604 296.647C444.954 303.696 432.031 318.97 414.408 302.521M414.408 302.521C396.785 286.073 421.456 240.255 460.227 255.527C486.799 265.994 491.849 291.361 489.37 312.34M335.692 306.046C329.034 316.228 322.533 341.057 349.79 358.915C383.861 381.238 435.645 370.664 451.461 343.642M402.659 386.25C454.954 377.013 476.584 348.524 482.55 336.593C485.507 330.678 488.232 321.971 489.37 312.34M402.659 386.25C397.833 387.102 392.746 387.79 387.386 388.287C323.943 394.161 298.096 355.744 300.446 332.657C296.529 335.654 286.112 339.848 275.773 332.657C270.5 328.99 267.217 319.663 268 316.139M314.544 309.571C295 321.5 262.38 320.144 246.402 306.046C230.423 291.948 231.128 275.891 233.478 269.625C184.701 219.106 207.024 136.11 282.823 113.368C271.074 101.227 253.451 69.1927 276.948 38.1762C306.32 -0.594429 359.189 -1.7693 377.987 2.93017C396.785 7.62964 434.38 32.3015 428.506 62.8481M246.402 269.625C245.618 276.674 248.896 287.363 260.5 296.647C272.249 306.046 302.796 307.221 327.468 286.073L330 273.309M343.916 259.051C337.201 269.233 316.287 288.893 286.347 286.073C256.407 283.254 256.641 264.534 260.5 255.527M428.506 62.8481C423.807 87.2853 409.317 96.5282 402.659 98.095V91.0449C398.351 96.136 386.211 103.263 372.113 91.0449M428.506 62.8481C424.293 73.7908 414.219 77.5897 409.708 78.1213C417.932 65.5894 423.102 38.1758 377.987 28.7769C376.42 31.1269 372.113 36.2967 367.413 38.1762C362.714 40.0557 359.972 36.6093 359.189 34.6512C352.531 34.6512 338.041 37.9409 333.342 51.0994M372.113 91.0449C354.489 75.7716 368.588 58.1486 377.987 58.1486C383.861 57.757 394.905 60.0284 392.085 72.247C390.519 74.9884 386.446 80.0011 382.686 78.1213C377.987 75.7716 377.987 72.247 379.162 69.8973C380.102 68.0175 381.903 67.5475 382.686 67.5475M372.113 91.0449C357.825 90.5133 330.069 81.7799 333.342 51.0994M333.342 51.0994C327.468 67.5475 327.468 93.3936 372.113 103.968C416.757 114.543 450.829 99.2689 453.178 96.9192C455.528 94.5695 481.375 78.121 482.55 58.1486C483.725 38.1762 459.052 51.0994 470.801 67.5475C464.143 61.6734 455.763 47.5754 475.501 38.1762C479.809 37.7845 489.835 38.6458 495.474 45.225C512.036 32.9567 547.623 18.4304 581.239 35.7342M608.261 58.1486C613.503 57.4496 622.675 59.3081 621.916 71.0721M608.261 58.1486C614.338 68.3952 620.025 91.8063 594.162 103.478C587.883 104.424 573.33 103.263 565.358 91.0449C555.391 75.7716 569.449 62.8481 573.582 62.8481C577.714 62.8481 591.812 62.8481 591.812 75.7716C591.812 92.2197 575.432 86.9288 577.714 82.8208C583.589 72.247 578.889 79.2962 581.239 75.7716M608.261 58.1486C599.702 47.7552 590.546 40.5248 581.239 35.7342M617.66 82.8208L621.184 75.7716C621.589 74.0526 621.825 72.4904 621.916 71.0721M621.916 71.0721C625.589 72.247 632.463 76.2415 630.583 82.8208M630.583 82.8208C628.704 89.4001 625.884 91.8281 624.709 92.2197M630.583 82.8208C634.108 84.3879 640.452 89.6366 637.633 98.095M637.633 98.095C634.813 106.553 625.98 108.668 621.916 108.668C622.847 108.276 626.451 104.602 626.451 100.844M637.633 98.095C634.394 98.0947 627.79 99.2897 621.916 103.478M621.916 103.478C619.977 104.86 618.118 106.569 616.485 108.668C608.261 119.242 609.436 132.165 611.785 142.739C614.135 153.313 623.534 167.412 630.583 174.461C634.891 177.594 648.676 182.685 669.354 177.985C695.201 172.111 711.649 149.787 710.474 132.165C709.299 114.543 699.901 92.2197 674.053 92.2197C666.936 92.2197 661.601 94.0904 657.605 96.8506M621.916 103.478C622.456 101.683 622.359 98.095 617.66 98.095C611.785 98.095 604.736 103.971 601.212 112.194C598.392 118.772 598.47 130.599 598.862 135.69M555.391 226.155C567.14 218.714 588.758 196.313 581.239 166.236C573.72 136.16 546.776 121.591 534.244 118.067M672.879 132.165C671.939 123.706 677.97 124.724 681.103 126.291C688.152 132.165 682.521 150.777 665.829 147.439C642.332 142.739 645.857 121.591 645.857 119.242C645.857 117.539 647.091 104.114 657.605 96.8506M657.605 96.8506C662.696 88.6491 680.868 74.831 712.824 85.1705C752.77 98.095 771.568 142.738 752.77 192.083L749.245 186.209C750.027 183.906 750.823 181.123 751.547 177.985M742.196 114.542C757.311 132.601 755.536 160.688 751.547 177.985M751.547 177.985L745.72 176.81M745.72 176.81C748.853 166.628 752.77 142.504 743.371 127.466M745.72 176.81C743.762 184.151 738.671 200.302 733.972 206.182C725.356 217.931 704.13 240.487 688.152 246.127C668.179 253.177 645.857 255.527 627.059 248.477C619.358 245.59 607.086 236.729 603.561 233.204C600.037 229.68 598.862 244.954 577.714 255.527C564.616 262.076 555.391 264.926 547.167 264.926C539.927 264.926 496.262 274.032 469.886 246.547M665.829 220.28C683.061 219.889 720.108 206.417 730.447 155.663M581.239 35.7342C591.813 43.6202 611.081 63.1379 603.561 78.1213C594.162 96.8506 588.896 92.2197 581.239 92.2197C585.938 96.1825 596.982 100.321 603.561 85.1705M555.391 45.225C543.643 42.4834 515.212 43.1096 495.474 67.5475C499.39 65.5894 507.222 63.318 507.222 69.8973M507.222 69.8973C510.355 65.981 520.146 58.1486 534.244 58.1486M507.222 69.8973C505.467 71.0721 500.66 75.3016 495.474 82.8208C488.991 92.2197 456.703 127.886 414.408 126.711C380.572 125.771 358.797 114.291 352.139 108.668M340.958 171.356C338.405 170.573 335.712 164.639 339.958 159C345.265 151.951 356 157.039 356 167C356 176.961 343.916 183.86 335.692 182.685C327.468 181.51 313.043 170.463 318.5 153C323.5 137 345.426 137.475 356 141C366.574 144.525 394.435 163.888 372.113 193.259C369.434 196.784 366.713 199.903 363.982 202.658M363.982 202.658C343.952 222.862 323.35 223.524 314.544 221.456C302.39 217.008 283.608 202.792 305.712 181.51M363.982 202.658C366.503 208.784 366.652 219.689 359.189 228.505C343.916 246.547 319.81 256.701 296.313 237.904C277.515 222.866 281.837 208.141 286.347 202.658M469.886 246.547C480.031 255.163 498.132 280.384 489.37 312.34" stroke="url(#paint1_radial_329_1884)" stroke-width="0.5" stroke-linecap="round" stroke-linejoin="round"/>
<path d="M319.058 154.915C308.007 152.619 294.101 156.056 288.53 158.062C272.47 164.418 235.769 169.666 217.452 139.806C213.853 142.136 202.903 145.434 187.891 139.991C161.11 130.281 148.089 78.1594 185.416 59.2038C209.158 47.1468 224.664 57.8655 231.81 69.5527C237.005 59.0686 258.067 43.355 300.755 64.373C325.208 69.8162 334.985 80.3412 337.782 90.7474C343.493 94.2934 350.504 101.52 349.91 110.38C351.736 119.244 351.928 137.39 338.083 139.053C324.239 140.716 319.631 150.321 319.058 154.915Z" fill="url(#paint2_linear_329_1884)"/>
<path d="M288.53 158.062C294.802 152.505 285.826 145.926 280.555 143.331C242.336 147.271 232.199 134.432 230.429 121.615M288.53 158.062C294.101 156.056 308.007 152.619 319.058 154.915C319.631 150.321 324.239 140.716 338.083 139.053C351.928 137.39 351.736 119.244 349.91 110.38M288.53 158.062C272.47 164.418 235.769 169.666 217.452 139.806C213.853 142.136 202.903 145.434 187.891 139.991C161.11 130.281 148.089 78.1594 185.416 59.2038C209.158 47.1468 224.664 57.8655 231.81 69.5527M301.026 107.729C302.672 108.376 306.156 108.682 306.919 104.736C307.874 99.8032 303.902 94.901 294.067 97.9186C288.684 99.57 283.621 105.056 282.246 110.802M300.755 64.373C325.208 69.8162 334.985 80.3412 337.782 90.7474M300.755 64.373C258.067 43.355 237.005 59.0686 231.81 69.5527M300.755 64.373C268.248 57.1368 248.879 72.5614 239.31 86.4584C234.937 92.8104 232.611 98.8433 232.014 102.247C231.302 106.306 229.372 113.956 230.429 121.615M282.246 110.802C281.109 115.556 282.496 120.488 288.315 123.574C301.167 130.392 326.762 126.29 333.592 115.409C336.896 110.145 340.403 100.498 337.782 90.7474M282.246 110.802C277.029 112.805 269.372 119.948 280.487 132.492C294.381 148.171 304.203 143.183 315.042 143.115C317.307 137.517 324.795 126.894 336.634 129.185C345.916 122.601 349.523 116.145 349.91 110.38M337.782 90.7474C343.493 94.2934 350.504 101.52 349.91 110.38M195.327 98.5352C215.145 116.149 231.971 95.3728 235.841 86.48C237.25 83.2437 235.898 76.2397 231.81 69.5527M195.327 98.5352C178.537 83.6127 201.047 67.7054 209.167 75.5605C216.014 82.1828 211.858 85.6443 209.237 86.6462M195.327 98.5352C192.706 99.6113 188.264 103.685 191.466 111.369C195.467 120.974 211.257 132.223 230.429 121.615" stroke="url(#paint3_radial_329_1884)" stroke-width="0.5" stroke-linecap="round" stroke-linejoin="round"/>
<path d="M794.068 209.55C793.677 213.466 791.014 221.534 783.495 222.474C781.512 222.722 779.975 222.267 778.795 221.376C773.312 229.966 756.943 247.616 735.325 249.496C730.275 249.935 724.569 250.046 718.512 249.813C692.162 248.801 659.19 241.284 644.86 225.999C627.237 207.201 608.439 176.654 628.412 130.835C648.385 85.0147 699.714 60.394 739.66 87.416C770.377 108.195 772.545 127.83 774.367 137.937C775.843 131.653 785.302 118.392 811.327 115.614C837.352 112.837 849.044 126.954 851.637 134.359C849.287 137.884 850.462 146.108 853.987 150.807C857.511 155.507 871.61 160.206 879.834 150.807C886.413 143.288 895.107 134.359 898.632 130.835C912.923 119.906 926.613 118.602 940.562 118.744C946.108 118.801 951.694 119.086 957.375 119.086C973.353 119.086 980.481 113.603 982.047 110.862C981.656 114.778 973.353 124.725 943.277 133.184C913.2 141.643 917.43 153.157 923.304 157.857C901.686 194.512 867.302 198.194 853.987 193.103C844.588 216.6 826.573 210.657 818.741 204.748C821.765 206.645 825.952 207.387 830.489 206.026C842.238 202.502 843.413 187.228 839.888 179.004C837.069 172.425 829.314 169.996 825.79 169.605C812.866 167.255 796.418 179.004 789.369 190.752C783.73 200.151 785.453 207.2 787.019 209.55H794.068Z" fill="url(#paint4_linear_329_1884)"/>
<path d="M775.271 209.55C774.982 213.01 775.501 218.89 778.795 221.376M821.09 195.452C824.85 197.332 827.356 194.669 828.14 193.103C830.489 190.753 823.44 182.529 816.391 190.752C812.064 195.8 813.934 201.733 818.741 204.748M818.741 204.748C821.765 206.645 825.952 207.387 830.489 206.026C842.238 202.502 843.413 187.228 839.888 179.004C837.069 172.425 829.315 169.996 825.79 169.605C812.866 167.255 796.418 179.004 789.369 190.752C783.73 200.151 785.453 207.2 787.019 209.55H794.068C793.677 213.466 791.014 221.534 783.495 222.474C781.512 222.722 779.975 222.267 778.795 221.376M818.741 204.748C826.573 210.657 844.588 216.6 853.987 193.103C867.302 198.194 901.686 194.512 923.304 157.857C917.43 153.157 913.2 141.643 943.277 133.184C973.353 124.725 981.656 114.778 982.047 110.862C980.481 113.603 973.353 119.086 957.375 119.086C951.694 119.086 946.108 118.801 940.562 118.744M853.987 150.807C857.511 155.507 871.61 160.206 879.834 150.807C886.413 143.288 895.107 134.359 898.632 130.835C912.923 119.906 926.613 118.602 940.562 118.744M853.987 150.807C850.462 146.108 849.287 137.884 851.637 134.359C849.044 126.954 837.352 112.837 811.327 115.614C785.302 118.392 775.843 131.653 774.367 137.937M853.987 150.807C852.299 155.133 853.387 164.019 871.245 164.959C893.568 166.133 901.792 146.213 906.491 140.286C911.191 134.359 917.065 118.753 940.562 118.744M778.795 221.376C773.312 229.966 756.943 247.616 735.325 249.496C730.275 249.935 724.569 250.046 718.512 249.813M775.271 144.986C777.107 157.892 773.966 184.968 751.409 204.748C744.088 211.167 735.501 214.343 726.737 215.053C701.741 217.078 675.302 199.05 672.693 179.004C669.168 151.929 686.791 134.359 702.064 134.359C711.342 133.558 727.911 137.937 731.436 150.807C736.235 168.331 722.037 180.205 713.813 176.707M775.271 144.986C775.039 143.357 774.914 140.973 774.367 137.937M775.271 144.986C775.994 150.625 779.245 155.168 780.78 156.734C781.956 152.473 784.195 148.898 787.019 145.922M775.271 144.986C784.548 133.611 809.447 114.856 834.824 130.835M713.813 176.707C708.33 174.375 702.064 169.605 709.114 160.259M713.813 176.707C720.471 182.99 737.31 191.08 751.409 173.181C761.591 153.208 761.983 112.993 718.512 99.1644C704.414 94.6794 686.791 97.2018 662.119 118.744C637.447 140.286 627.217 226.028 702.064 231.591M774.367 137.937C772.545 127.83 770.377 108.195 739.66 87.416C699.714 60.394 648.385 85.0147 628.412 130.835C608.439 176.654 627.237 207.201 644.86 225.999C659.19 241.284 692.162 248.801 718.512 249.813M813.677 133.237C806.982 134.099 794.786 137.74 787.019 145.922M787.019 145.922C786.055 148.065 785.043 152.578 786.064 157.857M855.972 179.004C855.032 169.606 848.531 162.591 845.398 160.259C820.021 139.581 797.472 155.56 789.369 166.133C787.588 163.317 786.573 160.491 786.064 157.857M718.512 249.813C735.325 222.474 757.283 237.854 769.032 214.303M726.737 230.75C717.581 231.901 709.385 232.135 702.064 231.591M786.064 157.857C796.294 147.947 821.382 131.687 839.888 145.922M702.064 231.591C698.931 231.642 693.605 229.67 697.365 221.376C690.316 220.499 674.337 215.945 666.818 204.748C657.419 190.752 651.545 151.931 678.567 130.835" stroke="url(#paint5_radial_329_1884)" stroke-width="0.5" stroke-linecap="round" stroke-linejoin="round"/>
<path d="M170.082 246.132C170.082 269.658 153.634 276.678 143.06 277.853C137.481 278.473 132.229 277.13 127.477 274.343C128.807 275.18 116.038 277.034 116.038 287.252C110.825 304.875 139.535 336.596 138.361 365.968C137.186 395.339 110.164 414.137 101.94 414.137C95.3604 414.137 83.5334 417.903 78.4423 419.786C85.2278 414.09 91.422 411.923 101.94 405.913C104.201 403.369 106.263 400.818 108.139 398.269C111.078 392.016 112.712 383.145 112.743 374.192C112.812 354.147 104.845 333.692 85.4915 341.296C59.1745 351.634 37.3219 337.379 30.2727 329.547C33.0277 323.119 32.3731 318.664 30.2727 315.623C26.9988 310.882 20.212 309.574 17.3492 309.574L6.77552 296.651C-0.273687 279.028 -3.79829 257.88 13.8247 239.083C27.9231 224.045 44.7628 227.334 51.4204 230.858C49.8539 225.767 49.3056 213.94 59.6445 207.361C69.9833 200.781 73.3512 206.969 73.7428 210.886C72.8029 182.689 106.247 180.339 123.087 182.689C148.464 186.448 157.158 199.137 153.634 210.886C170.082 216.76 170.082 230.858 170.082 246.132Z" fill="url(#paint6_linear_329_1884)"/>
<path d="M123.087 239.083C113.688 242.607 108.989 254.356 116.038 263.755C119.361 268.186 123.206 271.833 127.451 274.328M51.4204 230.858C49.8539 225.767 49.3056 213.94 59.6445 207.361C69.9833 200.781 73.3512 206.969 73.7428 210.886C72.8029 182.689 106.247 180.339 123.087 182.689C148.464 186.448 157.158 199.137 153.634 210.886C170.082 216.76 170.082 230.858 170.082 246.132C170.082 269.658 153.634 276.678 143.06 277.853C137.471 278.474 132.21 277.126 127.451 274.328M51.4204 230.858C44.7628 227.334 27.9231 224.045 13.8247 239.083C-3.79829 257.88 -0.273686 279.028 6.77552 296.651L17.3492 309.574C20.212 309.574 26.9988 310.882 30.2727 315.623M51.4204 230.858C8.18533 255.295 29.4895 291.168 45.546 306.049C53.0652 313.708 65.5188 318.973 78.4423 318.973C91.3658 318.973 106.908 313.804 116.038 326.022C127.451 341.296 130.137 374.192 101.94 405.913M101.94 405.913C91.422 411.923 85.2278 414.09 78.4423 419.786M101.94 405.913C108.711 402.044 112.695 388.218 112.743 374.192M65.5188 434.11C70.602 427.332 74.6162 422.998 78.4423 419.786M78.4423 419.786C83.5334 417.903 95.3604 414.137 101.94 414.137C110.164 414.137 137.186 395.339 138.361 365.968C139.535 336.596 110.825 304.875 116.038 287.252C116.038 276.972 128.962 275.158 127.451 274.328M30.2727 315.623C32.3731 318.664 33.0277 323.119 30.2727 329.547C37.3219 337.379 59.1745 351.634 85.4915 341.296C104.845 333.692 112.812 354.147 112.743 374.192M30.2727 315.623C37.7136 321.439 55.1799 333.071 65.5188 333.071C78.4423 333.071 90.191 326.022 99.5899 329.547C108.989 333.071 123.547 349.52 112.743 374.192" stroke="url(#paint7_radial_329_1884)" stroke-width="0.5" stroke-linecap="round" stroke-linejoin="round"/>
<path d="M156.698 208.198C173.146 214.073 173.146 228.171 173.146 243.444C173.146 249.823 171.937 254.989 169.963 259.153C177.479 248.05 192.106 231.579 209.666 226.731C225.292 216.013 247.69 211.245 277.808 226.813C280.825 227.505 283.957 228.346 287.207 229.346C295.5 236.395 301.5 243.444 315.5 246.5C300.5 252.843 291.574 249.319 281 239.92C270.426 230.521 257.836 232.87 235.513 249.319C217.655 262.478 228.072 272.033 235.513 275.166C233.617 280.492 207.245 310.113 177.945 327.528C170.932 331.696 163.751 335.165 156.698 337.434C127.482 346.833 108.561 334.68 102.753 327.428C100.152 326.966 97.4142 326.388 94.5289 325.685C55.9933 316.286 59.6746 291.222 66.3321 279.865C60.4578 273.599 51.5288 257.543 62.8075 243.444C74.0862 229.346 88.6546 225.038 94.5289 224.647C100.403 212.898 107.452 199.974 130.851 203.499C146.75 196.92 154.707 203.891 156.698 208.198Z" fill="url(#paint8_linear_329_1884)"/>
<path d="M130.851 249.319C132.026 250.885 135.08 253.079 137.9 249.319C141.425 244.619 135.55 232.871 126.151 236.395C116.752 239.92 112.053 251.668 119.102 261.067C121.246 263.925 123.606 266.457 126.151 268.565M126.151 268.565C131.976 273.387 138.766 275.983 146.124 275.166C152.46 274.462 160.905 271.659 166.656 264.465M126.151 268.565C136.367 271.157 157.737 271.641 161.496 252.843C163.879 245.794 164.865 230.286 149.748 224.647M149.748 224.647C151.248 218.772 149.57 206.319 130.851 203.499M149.748 224.647C147.332 219.164 139.231 209.843 126.151 216.422C109.802 224.647 108.627 237.57 109.802 243.444C100.436 249.71 87.3239 266.707 109.802 284.565C108.236 281.282 106.043 274.102 109.802 271.641C112.544 279.865 122.961 295.608 142.698 292.789C167.371 289.264 175.595 278.69 182.644 261.067C186.079 252.48 194.814 236.918 209.666 226.731M130.851 203.499C107.452 199.974 100.403 212.898 94.5289 224.647C88.6546 225.038 74.0862 229.346 62.8075 243.444C51.5288 257.543 60.4578 273.599 66.3321 279.865M130.851 203.499C146.75 196.92 154.707 203.891 156.698 208.198C173.146 214.073 173.146 228.171 173.146 243.444C173.146 252.874 170.504 259.652 166.656 264.465M66.3321 279.865C59.6746 291.222 55.9933 316.286 94.5289 325.685C97.4142 326.388 100.152 326.966 102.753 327.428M66.3321 279.865L83.9551 284.565C79.2556 281.432 71.0316 271.406 75.731 256.368C80.4305 241.329 95.7038 239.136 102.753 239.92C98.9934 224.881 110.585 217.205 116.851 215.247M209.666 279.865C194.393 316.285 173.146 306.887 161.496 310.411C150.544 313.725 143.571 334.69 102.753 327.428M277.808 226.813C247.69 211.245 225.292 216.013 209.666 226.731M102.753 327.428C108.561 334.68 127.482 346.833 156.698 337.434C163.751 335.165 170.932 331.696 177.945 327.528M177.945 327.528C207.245 310.113 233.617 280.492 235.513 275.166C228.072 272.033 217.655 262.478 235.513 249.319C257.836 232.87 270.426 230.521 281 239.92C291.574 249.319 300.5 252.843 315.5 246.5C301.5 243.444 295.5 236.395 287.207 229.346C241.387 215.247 219.065 232.87 213.191 249.319C208.491 262.478 217.498 272.033 221.415 275.166C217.107 284.618 202.382 308.324 177.945 327.528ZM166.656 264.465C172.377 254.265 188.988 232.44 209.666 226.731" stroke="url(#paint9_radial_329_1884)" stroke-width="0.5" stroke-linecap="round" stroke-linejoin="round"/>
<path d="M549.43 155.697C559.389 159.839 558.944 168.534 558.463 177.953C558.261 181.888 557.353 185.035 556.004 187.541C560.989 180.931 570.53 171.234 581.513 168.798C591.489 162.68 605.453 160.446 623.537 170.998C625.375 171.52 627.28 172.137 629.254 172.856C632.146 177.848 640.396 187.956 650.25 188.46C642.28 188.053 635.034 187.682 628.809 181.552C622.584 175.421 611.028 174.104 596.742 183.544C585.313 191.096 591.436 197.318 595.926 199.485C594.589 202.71 577.389 220.147 558.769 229.963C554.313 232.312 549.775 234.225 545.353 235.402C527.038 240.277 515.752 232.185 512.399 227.529C510.809 227.162 509.139 226.719 507.382 226.194C483.912 219.182 486.973 203.84 491.437 197.046C488.012 192.996 483.011 182.812 490.412 174.473C497.813 166.133 506.934 163.936 510.569 163.88C514.563 156.819 519.318 149.071 533.637 151.983C543.65 148.427 548.338 152.977 549.43 155.697Z" fill="url(#paint10_linear_329_1884)"/>
<path d="M532.192 180.242C532.867 181.245 534.682 182.694 536.539 180.465C538.861 177.677 535.609 170.246 529.701 172.124C523.793 174.001 520.524 181.098 524.575 187.117C525.807 188.948 527.183 190.584 528.686 191.964M528.686 191.964C532.127 195.122 536.232 196.937 540.796 196.665C544.726 196.431 550.023 194.969 553.797 190.713M528.686 191.964C534.905 193.885 548.069 194.858 550.981 183.383C552.673 179.11 553.77 169.577 544.625 165.622M544.625 165.622C545.735 162.046 545.093 154.313 533.637 151.983M544.625 165.622C543.308 162.164 538.605 156.16 530.331 159.805C519.989 164.362 518.856 172.295 519.396 175.955C513.422 179.524 504.798 189.593 518.098 201.316C517.236 199.242 516.11 194.745 518.506 193.345C519.937 198.504 525.865 208.542 538.128 207.426C553.455 206.03 558.861 199.768 563.764 189.122C566.154 183.934 572.032 174.612 581.513 168.798M533.637 151.983C519.318 149.071 514.563 156.819 510.569 163.88C506.934 163.936 497.813 166.133 490.412 174.473C483.011 182.812 488.012 192.996 491.437 197.046M533.637 151.983C543.65 148.427 548.338 152.977 549.43 155.697C559.389 159.839 558.944 168.534 558.463 177.953C558.165 183.769 556.322 187.866 553.797 190.713M491.437 197.046C486.973 203.84 483.912 219.182 507.382 226.194C509.139 226.719 510.809 227.162 512.399 227.529M491.437 197.046L502.157 200.5C499.358 198.42 494.602 191.977 497.975 182.851C501.348 173.724 510.836 172.853 515.159 173.559C513.315 164.166 520.706 159.797 524.633 158.787M579.837 201.567C569.268 223.548 556.461 217.081 549.165 218.887C542.306 220.585 537.344 233.296 512.399 227.529M623.537 170.998C605.453 160.446 591.489 162.68 581.513 168.798M512.399 227.529C515.752 232.185 527.038 240.277 545.353 235.402C549.775 234.225 554.313 232.312 558.769 229.963M558.769 229.963C577.389 220.147 594.589 202.71 595.926 199.485C591.436 197.318 585.313 191.096 596.742 183.544C611.028 174.104 622.584 175.421 628.809 181.552C635.034 187.682 642.28 188.053 650.25 188.46C640.396 187.956 632.146 177.848 629.254 172.856C601.439 162.716 587.116 172.881 582.974 182.84C579.661 190.807 584.915 196.984 587.231 199.04C584.276 204.734 574.447 218.89 558.769 229.963ZM553.797 190.713C557.647 184.603 568.58 171.666 581.513 168.798" stroke="url(#paint11_radial_329_1884)" stroke-width="0.5" stroke-linecap="round" stroke-linejoin="round"/>
<defs>
<linearGradient id="paint0_linear_329_1884" x1="207.62" y1="194.945" x2="760.1" y2="194.945" gradientUnits="userSpaceOnUse">
<stop/>
<stop offset="0.404167" stop-color="#413B47"/>
<stop offset="0.753125" stop-color="#625664"/>
<stop offset="1" stop-color="#968387"/>
</linearGradient>
<radialGradient id="paint1_radial_329_1884" cx="0" cy="0" r="1" gradientUnits="userSpaceOnUse" gradientTransform="translate(582.934 101.925) rotate(90) scale(100.925 177.166)">
<stop stop-color="#857800"/>
<stop offset="1" stop-color="#FFF065"/>
</radialGradient>
<linearGradient id="paint2_linear_329_1884" x1="162.342" y1="108.889" x2="350.717" y2="107.713" gradientUnits="userSpaceOnUse">
<stop/>
<stop offset="0.404167" stop-color="#413B47"/>
<stop offset="0.753125" stop-color="#625664"/>
<stop offset="1" stop-color="#968387"/>
</linearGradient>
<radialGradient id="paint3_radial_329_1884" cx="0" cy="0" r="1" gradientUnits="userSpaceOnUse" gradientTransform="translate(290.146 81.8486) rotate(89.6422) scale(28.4719 60.4083)">
<stop stop-color="#857800"/>
<stop offset="1" stop-color="#FFF065"/>
</radialGradient>
<linearGradient id="paint4_linear_329_1884" x1="619.824" y1="163.062" x2="982.047" y2="163.062" gradientUnits="userSpaceOnUse">
<stop/>
<stop offset="0.404167" stop-color="#413B47"/>
<stop offset="0.753125" stop-color="#625664"/>
<stop offset="1" stop-color="#968387"/>
</linearGradient>
<radialGradient id="paint5_radial_329_1884" cx="0" cy="0" r="1" gradientUnits="userSpaceOnUse" gradientTransform="translate(865.892 121.397) rotate(90) scale(45.2056 116.156)">
<stop stop-color="#857800"/>
<stop offset="1" stop-color="#FFF065"/>
</radialGradient>
<linearGradient id="paint6_linear_329_1884" x1="1" y1="308.055" x2="170.082" y2="308.055" gradientUnits="userSpaceOnUse">
<stop/>
<stop offset="0.404167" stop-color="#413B47"/>
<stop offset="0.753125" stop-color="#625664"/>
<stop offset="1" stop-color="#968387"/>
</linearGradient>
<radialGradient id="paint7_radial_329_1884" cx="0" cy="0" r="1" gradientUnits="userSpaceOnUse" gradientTransform="translate(115.862 247.596) rotate(90) scale(65.5964 54.2202)">
<stop stop-color="#857800"/>
<stop offset="1" stop-color="#FFF065"/>
</radialGradient>
<linearGradient id="paint8_linear_329_1884" x1="57.3938" y1="270.828" x2="315.5" y2="270.828" gradientUnits="userSpaceOnUse">
<stop/>
<stop offset="0.404167" stop-color="#413B47"/>
<stop offset="0.753125" stop-color="#625664"/>
<stop offset="1" stop-color="#968387"/>
</linearGradient>
<radialGradient id="paint9_radial_329_1884" cx="0" cy="0" r="1" gradientUnits="userSpaceOnUse" gradientTransform="translate(232.732 237.24) rotate(90) scale(36.4425 82.768)">
<stop stop-color="#857800"/>
<stop offset="1" stop-color="#FFF065"/>
</radialGradient>
<linearGradient id="paint10_linear_329_1884" x1="486.209" y1="191.191" x2="649.683" y2="199.552" gradientUnits="userSpaceOnUse">
<stop/>
<stop offset="0.404167" stop-color="#413B47"/>
<stop offset="0.753125" stop-color="#625664"/>
<stop offset="1" stop-color="#968387"/>
</linearGradient>
<radialGradient id="paint11_radial_329_1884" cx="0" cy="0" r="1" gradientUnits="userSpaceOnUse" gradientTransform="translate(598.321 176.156) rotate(92.9281) scale(22.505 52.4902)">
<stop stop-color="#857800"/>
<stop offset="1" stop-color="#FFF065"/>
</radialGradient>
</defs>
</svg>
