<svg width="104" height="104" viewBox="0 0 104 104" fill="none" xmlns="http://www.w3.org/2000/svg">
<path d="M42.6631 16.7793V24.4607H42.0257C41.5463 22.4559 40.6529 20.9196 39.3454 19.8519C38.0379 18.7841 36.5561 18.2502 34.9 18.2502C33.5163 18.2502 32.2469 18.6479 31.092 19.4433C29.9371 20.2386 29.0926 21.2792 28.5588 22.5649C27.8723 24.2101 27.5291 26.0406 27.5291 28.0562C27.5291 30.0392 27.7797 31.8479 28.2809 33.4822C28.7821 35.1057 29.5666 36.3369 30.6344 37.1758C31.7021 38.0039 33.0859 38.4179 34.7856 38.4179C36.1802 38.4179 37.455 38.1129 38.6099 37.5027C39.7758 36.8926 41.0015 35.8411 42.2872 34.3484V36.2606C41.0451 37.5572 39.7485 38.4997 38.3975 39.088C37.0573 39.6655 35.4884 39.9542 33.6906 39.9542C31.3262 39.9542 29.2234 39.4803 27.382 38.5324C25.5516 37.5844 24.1352 36.2225 23.1328 34.4465C22.1413 32.6705 21.6455 30.7801 21.6455 28.7753C21.6455 26.6616 22.1957 24.6568 23.2962 22.761C24.4075 20.8651 25.9002 19.3942 27.7743 18.3483C29.6592 17.3023 31.6586 16.7793 33.7723 16.7793C35.3304 16.7793 36.9756 17.1171 38.708 17.7926C39.7104 18.1848 40.3478 18.3809 40.6202 18.3809C40.9688 18.3809 41.2685 18.2556 41.5191 18.0051C41.7806 17.7436 41.9494 17.335 42.0257 16.7793H42.6631Z" fill="url(#paint0_linear_410_6442)"/>
<path d="M60.2323 16.7793L60.412 24.1665H59.742C59.426 22.3143 58.6469 20.827 57.4049 19.7048C56.1736 18.5716 54.8389 18.0051 53.4007 18.0051C52.2894 18.0051 51.4068 18.3047 50.7531 18.9039C50.1102 19.4923 49.7888 20.1733 49.7888 20.9469C49.7888 21.4372 49.9032 21.873 50.132 22.2543C50.448 22.7664 50.9547 23.2731 51.652 23.7743C52.1641 24.1338 53.3462 24.7712 55.1985 25.6864C57.7916 26.9612 59.5404 28.1652 60.4447 29.2983C61.3382 30.4315 61.7849 31.7281 61.7849 33.1881C61.7849 35.0403 61.0603 36.6365 59.6112 37.9767C58.173 39.3059 56.3425 39.9706 54.1198 39.9706C53.4225 39.9706 52.7633 39.8997 52.1423 39.7581C51.5212 39.6165 50.7422 39.3495 49.8052 38.9573C49.2822 38.7394 48.8518 38.6304 48.514 38.6304C48.2308 38.6304 47.9311 38.7394 47.6152 38.9573C47.2992 39.1752 47.0431 39.5075 46.847 39.9542H46.2423V31.5864H46.847C47.3264 33.9399 48.2471 35.7376 49.6091 36.9797C50.9819 38.2109 52.4583 38.8265 54.0381 38.8265C55.2584 38.8265 56.2281 38.4942 56.9472 37.8296C57.6772 37.165 58.0422 36.3914 58.0422 35.5088C58.0422 34.9858 57.9006 34.4792 57.6173 33.9889C57.3449 33.4986 56.9254 33.0355 56.3589 32.5997C55.7923 32.153 54.7899 31.5755 53.3517 30.8673C51.336 29.8758 49.8869 29.0314 49.0043 28.3341C48.1218 27.6368 47.4408 26.8577 46.9614 25.997C46.4929 25.1362 46.2587 24.1883 46.2587 23.1532C46.2587 21.3881 46.9069 19.8845 48.2035 18.6424C49.5001 17.4003 51.1344 16.7793 53.1065 16.7793C53.8256 16.7793 54.523 16.8665 55.1985 17.0408C55.7106 17.1715 56.3316 17.4167 57.0616 17.7762C57.8025 18.1249 58.3201 18.2992 58.6143 18.2992C58.8975 18.2992 59.1209 18.2121 59.2843 18.0377C59.4478 17.8634 59.6003 17.4439 59.742 16.7793H60.2323Z" fill="url(#paint1_linear_410_6442)"/>
<path d="M78.8637 16.7793L79.0435 24.1665H78.3734C78.0574 22.3143 77.2784 20.827 76.0363 19.7048C74.8051 18.5716 73.4704 18.0051 72.0322 18.0051C70.9208 18.0051 70.0383 18.3047 69.3846 18.9039C68.7417 19.4923 68.4203 20.1733 68.4203 20.9469C68.4203 21.4372 68.5347 21.873 68.7635 22.2543C69.0795 22.7664 69.5861 23.2731 70.2834 23.7743C70.7955 24.1338 71.9777 24.7712 73.83 25.6864C76.4231 26.9612 78.1719 28.1652 79.0762 29.2983C79.9696 30.4315 80.4163 31.7281 80.4163 33.1881C80.4163 35.0403 79.6918 36.6365 78.2427 37.9767C76.8045 39.3059 74.974 39.9706 72.7513 39.9706C72.054 39.9706 71.3948 39.8997 70.7737 39.7581C70.1527 39.6165 69.3737 39.3495 68.4366 38.9573C67.9137 38.7394 67.4833 38.6304 67.1455 38.6304C66.8622 38.6304 66.5626 38.7394 66.2466 38.9573C65.9307 39.1752 65.6746 39.5075 65.4785 39.9542H64.8738V31.5864H65.4785C65.9579 33.9399 66.8786 35.7376 68.2405 36.9797C69.6134 38.2109 71.0897 38.8265 72.6696 38.8265C73.8899 38.8265 74.8596 38.4942 75.5787 37.8296C76.3087 37.165 76.6737 36.3914 76.6737 35.5088C76.6737 34.9858 76.5321 34.4792 76.2488 33.9889C75.9764 33.4986 75.5569 33.0355 74.9903 32.5997C74.4238 32.153 73.4214 31.5755 71.9832 30.8673C69.9675 29.8758 68.5184 29.0314 67.6358 28.3341C66.7533 27.6368 66.0723 26.8577 65.5929 25.997C65.1244 25.1362 64.8901 24.1883 64.8901 23.1532C64.8901 21.3881 65.5384 19.8845 66.835 18.6424C68.1316 17.4003 69.7659 16.7793 71.738 16.7793C72.4571 16.7793 73.1544 16.8665 73.83 17.0408C74.3421 17.1715 74.9631 17.4167 75.6931 17.7762C76.434 18.1249 76.9515 18.2992 77.2457 18.2992C77.529 18.2992 77.7524 18.2121 77.9158 18.0377C78.0792 17.8634 78.2318 17.4439 78.3734 16.7793H78.8637Z" fill="url(#paint2_linear_410_6442)"/>
<path d="M18.4023 83.4768L52.0143 43.2167L85.6264 83.4768H18.4023Z" stroke="url(#paint3_linear_410_6442)"/>
<path d="M76.001 42.9365C75.7382 55.9692 65.2215 66.4423 52.2992 66.4423C39.3768 66.4423 28.8602 55.9692 28.5973 42.9365H76.001Z" stroke="url(#paint4_linear_410_6442)"/>
<path d="M84.8736 42.4365C84.8736 60.5921 70.2894 75.3101 52.2988 75.3101C34.3083 75.3101 19.7241 60.5921 19.7241 42.4365" stroke="url(#paint5_linear_410_6442)"/>
<circle cx="14.3449" cy="85.4704" r="7.96552" stroke="url(#paint6_linear_410_6442)" stroke-width="2"/>
<circle cx="90.2531" cy="86.069" r="7.96552" stroke="url(#paint7_linear_410_6442)" stroke-width="2"/>
<path fill-rule="evenodd" clip-rule="evenodd" d="M103 52C103 61.167 100.581 69.769 96.3476 77.2029C96.6119 77.4189 96.866 77.6468 97.1092 77.8859C101.493 70.2632 104 61.4244 104 52C104 23.2812 80.7188 0 52 0C23.2812 0 0 23.2812 0 52C0 61.4246 2.50724 70.2635 6.89109 77.8863C7.1342 77.6472 7.38831 77.4193 7.65261 77.2033C3.41864 69.7693 1 61.1671 1 52C1 23.8335 23.8335 1 52 1C80.1665 1 103 23.8335 103 52ZM9.83609 75.8101C5.85731 68.7795 3.58621 60.655 3.58621 52C3.58621 25.2618 25.2618 3.58621 52 3.58621C78.7382 3.58621 100.414 25.2618 100.414 52C100.414 60.6548 98.1428 68.7792 94.1641 75.8098C93.5601 75.5177 92.9255 75.2789 92.2663 75.0996C96.1772 68.297 98.4138 60.4097 98.4138 52C98.4138 26.3664 77.6336 5.58621 52 5.58621C26.3664 5.58621 5.58621 26.3664 5.58621 52C5.58621 60.4098 7.82289 68.2973 11.7338 75.0999C11.0747 75.2792 10.4401 75.518 9.83609 75.8101ZM22.4677 93.5844C22.2268 93.8256 21.9748 94.0557 21.7126 94.2739C30.2419 100.396 40.7 104 52 104C63.3001 104 73.7584 100.396 82.2878 94.2736C82.0256 94.0554 81.7736 93.8253 81.5327 93.5841C73.199 99.5133 63.0067 103 52 103C40.9935 103 30.8013 99.5134 22.4677 93.5844ZM24.0719 91.5512C24.424 90.9783 24.7253 90.3707 24.9696 89.7349C32.582 95.1976 41.9154 98.4138 52 98.4138C62.0848 98.4138 71.4183 95.1975 79.0308 89.7346C79.2751 90.3705 79.5764 90.978 79.9285 91.551C72.0372 97.1335 62.4017 100.414 52 100.414C41.5985 100.414 31.9631 97.1336 24.0719 91.5512Z" fill="url(#paint8_linear_410_6442)"/>
<defs>
<linearGradient id="paint0_linear_410_6442" x1="61.5701" y1="16.7793" x2="61.3525" y2="38.7675" gradientUnits="userSpaceOnUse">
<stop stop-color="#DECE98"/>
<stop offset="0.215625" stop-color="#D3BA65"/>
<stop offset="0.913541" stop-color="#9D894D"/>
</linearGradient>
<linearGradient id="paint1_linear_410_6442" x1="61.5701" y1="16.7793" x2="61.3525" y2="38.7675" gradientUnits="userSpaceOnUse">
<stop stop-color="#DECE98"/>
<stop offset="0.215625" stop-color="#D3BA65"/>
<stop offset="0.913541" stop-color="#9D894D"/>
</linearGradient>
<linearGradient id="paint2_linear_410_6442" x1="61.5701" y1="16.7793" x2="61.3525" y2="38.7675" gradientUnits="userSpaceOnUse">
<stop stop-color="#DECE98"/>
<stop offset="0.215625" stop-color="#D3BA65"/>
<stop offset="0.913541" stop-color="#9D894D"/>
</linearGradient>
<linearGradient id="paint3_linear_410_6442" x1="64.4527" y1="42.4365" x2="63.8611" y2="81.8167" gradientUnits="userSpaceOnUse">
<stop stop-color="#DECE98"/>
<stop offset="0.215625" stop-color="#D3BA65"/>
<stop offset="0.913541" stop-color="#9D894D"/>
</linearGradient>
<linearGradient id="paint4_linear_410_6442" x1="60.9811" y1="42.4365" x2="60.6861" y2="65.6695" gradientUnits="userSpaceOnUse">
<stop stop-color="#DECE98"/>
<stop offset="0.215625" stop-color="#D3BA65"/>
<stop offset="0.913541" stop-color="#9D894D"/>
</linearGradient>
<linearGradient id="paint5_linear_410_6442" x1="63.9819" y1="42.4365" x2="63.5874" y2="73.6028" gradientUnits="userSpaceOnUse">
<stop stop-color="#DECE98"/>
<stop offset="0.215625" stop-color="#D3BA65"/>
<stop offset="0.913541" stop-color="#9D894D"/>
</linearGradient>
<linearGradient id="paint6_linear_410_6442" x1="17.5604" y1="76.5049" x2="17.1342" y2="93.4967" gradientUnits="userSpaceOnUse">
<stop stop-color="#DECE98"/>
<stop offset="0.215625" stop-color="#D3BA65"/>
<stop offset="0.913541" stop-color="#9D894D"/>
</linearGradient>
<linearGradient id="paint7_linear_410_6442" x1="93.4686" y1="77.1035" x2="93.0424" y2="94.0953" gradientUnits="userSpaceOnUse">
<stop stop-color="#DECE98"/>
<stop offset="0.215625" stop-color="#D3BA65"/>
<stop offset="0.913541" stop-color="#9D894D"/>
</linearGradient>
<linearGradient id="paint8_linear_410_6442" x1="70.65" y1="-7.69853e-08" x2="68.1778" y2="98.5524" gradientUnits="userSpaceOnUse">
<stop stop-color="#DECE98"/>
<stop offset="0.215625" stop-color="#D3BA65"/>
<stop offset="0.913541" stop-color="#9D894D"/>
</linearGradient>
</defs>
</svg>
