<svg width="156" height="154" viewBox="0 0 156 154" fill="none" xmlns="http://www.w3.org/2000/svg">
<path d="M35.1954 60.1829V70.9991H35.9527C37.1179 70.9991 38.0694 70.8244 38.8073 70.4748C39.5452 70.1253 40.1666 69.5363 40.6715 68.7077C41.1893 67.8792 41.5259 66.7594 41.6812 65.3483H42.3609V78.5724H41.6812C41.4353 76.0739 40.7621 74.4298 39.6617 73.6401C38.5743 72.8374 37.3379 72.4361 35.9527 72.4361H35.1954V80.4949C35.1954 81.8412 35.2666 82.6827 35.409 83.0193C35.5644 83.3559 35.8556 83.6536 36.2829 83.9126C36.723 84.1585 37.312 84.2815 38.05 84.2815H38.9238V85H25.156V84.2815H26.0298C26.7936 84.2815 27.4085 84.1456 27.8746 83.8737C28.2112 83.6925 28.4701 83.3818 28.6513 82.9416C28.7937 82.6309 28.8649 81.8153 28.8649 80.4949V63.1734C28.8649 61.827 28.7937 60.9856 28.6513 60.649C28.5089 60.3124 28.2176 60.0211 27.7775 59.7751C27.3503 59.5162 26.7677 59.3868 26.0298 59.3868H25.156V58.6683H47.3709V66.2221H46.5748C46.3935 64.4486 45.9275 63.1346 45.1766 62.2801C44.4387 61.4257 43.3642 60.8237 41.9531 60.4742C41.1764 60.28 39.7394 60.1829 37.6422 60.1829H35.1954ZM54.284 58.0469C55.1254 58.0469 55.8375 58.3446 56.42 58.9401C57.0026 59.5227 57.2939 60.2282 57.2939 61.0568C57.2939 61.8853 56.9961 62.5908 56.4006 63.1734C55.818 63.756 55.1125 64.0472 54.284 64.0472C53.4554 64.0472 52.7499 63.756 52.1673 63.1734C51.5848 62.5908 51.2935 61.8853 51.2935 61.0568C51.2935 60.2282 51.5848 59.5227 52.1673 58.9401C52.7499 58.3446 53.4554 58.0469 54.284 58.0469ZM57.0026 66.8435V81.2328C57.0026 82.5144 57.1515 83.3365 57.4492 83.6989C57.747 84.0485 58.3295 84.2491 59.1969 84.3009V85H49.3905V84.3009C50.1931 84.275 50.7886 84.042 51.177 83.6019C51.4359 83.3041 51.5654 82.5144 51.5654 81.2328V70.6302C51.5654 69.3485 51.4165 68.533 51.1187 68.1834C50.821 67.8209 50.2449 67.6138 49.3905 67.562V66.8435H57.0026ZM72.6346 67.0571H78.7515V69.1932H75.2756C75.9099 69.8275 76.3501 70.4036 76.596 70.9215C76.9067 71.6205 77.0621 72.352 77.0621 73.1158C77.0621 74.4103 76.6996 75.5366 75.9746 76.4946C75.2626 77.4397 74.2852 78.184 73.0424 78.7278C71.8126 79.2585 70.7186 79.5239 69.7607 79.5239C69.683 79.5239 68.9062 79.4916 67.4304 79.4268C66.8479 79.4268 66.3559 79.621 65.9546 80.0094C65.5662 80.3848 65.372 80.8379 65.372 81.3687C65.372 81.8348 65.5468 82.2167 65.8963 82.5144C66.2588 82.8122 66.8414 82.961 67.644 82.961L71.0035 82.9222C73.7221 82.9222 75.5927 83.22 76.6154 83.8155C78.0783 84.644 78.8098 85.9192 78.8098 87.6409C78.8098 88.7413 78.4732 89.7382 77.8 90.6314C77.1268 91.5376 76.24 92.2043 75.1396 92.6315C73.4696 93.2659 71.5472 93.5831 69.3723 93.5831C67.7411 93.5831 66.2523 93.4212 64.906 93.0976C63.5596 92.7869 62.5952 92.3467 62.0126 91.7771C61.43 91.2204 61.1388 90.6314 61.1388 90.01C61.1388 89.4145 61.3588 88.8773 61.799 88.3983C62.2521 87.9322 63.0871 87.5374 64.304 87.2137C62.6211 86.3852 61.7796 85.233 61.7796 83.7572C61.7796 82.8639 62.1226 81.9966 62.8088 81.1551C63.4949 80.3136 64.5823 79.5822 66.0711 78.9608C64.3364 78.3264 63.0806 77.4914 62.3039 76.4558C61.5271 75.4201 61.1388 74.2226 61.1388 72.8633C61.1388 71.0898 61.8637 69.5557 63.3137 68.2611C64.7636 66.9536 66.6278 66.2998 68.9062 66.2998C70.1102 66.2998 71.353 66.5523 72.6346 67.0571ZM69.2752 67.5038C68.5243 67.5038 67.89 67.8857 67.3722 68.6495C66.8543 69.4003 66.5954 70.9668 66.5954 73.3488C66.5954 75.2777 66.8479 76.6047 67.3527 77.3296C67.8706 78.0416 68.479 78.3976 69.1781 78.3976C69.9548 78.3976 70.6021 78.0416 71.12 77.3296C71.6378 76.6176 71.8967 75.2324 71.8967 73.174C71.8967 70.8567 71.6054 69.2773 71.0229 68.4359C70.6086 67.8145 70.026 67.5038 69.2752 67.5038ZM68.1295 87.6798C66.809 87.6798 65.9352 87.7898 65.508 88.0099C64.7701 88.4112 64.4011 88.9549 64.4011 89.6411C64.4011 90.3013 64.783 90.8968 65.5468 91.4276C66.3106 91.9713 67.7476 92.2432 69.8577 92.2432C71.6572 92.2432 73.0683 92.0037 74.091 91.5247C75.1267 91.0457 75.6445 90.3725 75.6445 89.5051C75.6445 89.1815 75.5474 88.9096 75.3532 88.6895C75.0037 88.3012 74.4729 88.0358 73.7609 87.8934C73.0618 87.751 71.1847 87.6798 68.1295 87.6798ZM88.4026 66.8435V69.232C89.3994 68.1446 90.3186 67.3873 91.16 66.96C92.0145 66.5199 92.9466 66.2998 93.9563 66.2998C95.1214 66.2998 96.0989 66.5717 96.8885 67.1154C97.6782 67.6591 98.2867 68.4877 98.7139 69.601C99.7496 68.4359 100.74 67.5944 101.685 67.0766C102.643 66.5587 103.64 66.2998 104.675 66.2998C105.931 66.2998 106.928 66.5911 107.666 67.1737C108.417 67.7433 108.935 68.4747 109.219 69.368C109.517 70.2483 109.666 71.6594 109.666 73.6012V81.0386C109.666 82.4367 109.789 83.3041 110.035 83.6407C110.294 83.9773 110.825 84.1974 111.627 84.3009V85H102.248V84.3009C102.986 84.2362 103.53 83.9514 103.879 83.4465C104.112 83.097 104.229 82.2943 104.229 81.0386V73.2323C104.229 71.6141 104.164 70.5849 104.035 70.1447C103.905 69.7046 103.698 69.3809 103.413 69.1738C103.141 68.9537 102.818 68.8437 102.442 68.8437C101.886 68.8437 101.322 69.0508 100.753 69.4651C100.183 69.8664 99.6072 70.4748 99.0246 71.2904V81.0386C99.0246 82.3461 99.1346 83.1682 99.3547 83.5048C99.6525 83.9838 100.222 84.2491 101.064 84.3009V85H91.6649V84.3009C92.1698 84.275 92.5647 84.1521 92.8495 83.932C93.1472 83.6989 93.3414 83.4271 93.432 83.1164C93.5356 82.7927 93.5874 82.1001 93.5874 81.0386V73.2323C93.5874 71.5882 93.5226 70.559 93.3932 70.1447C93.2637 69.7304 93.0437 69.4068 92.733 69.1738C92.4352 68.9408 92.1116 68.8242 91.762 68.8242C91.2442 68.8242 90.7717 68.9602 90.3445 69.232C89.736 69.6334 89.0887 70.3195 88.4026 71.2904V81.0386C88.4026 82.3202 88.5256 83.1682 88.7715 83.5824C89.0305 83.9838 89.5612 84.2233 90.3639 84.3009V85H81.0041V84.3009C81.7679 84.2233 82.3116 83.9773 82.6352 83.563C82.8553 83.2782 82.9654 82.4367 82.9654 81.0386V70.7855C82.9654 69.4133 82.8359 68.5589 82.577 68.2223C82.331 67.8857 81.8067 67.6656 81.0041 67.562V66.8435H88.4026ZM124.016 82.3202C121.803 84.275 119.816 85.2524 118.055 85.2524C117.019 85.2524 116.158 84.9159 115.472 84.2427C114.786 83.5565 114.443 82.7021 114.443 81.6794C114.443 80.2942 115.039 79.0514 116.23 77.951C117.421 76.8377 120.016 75.3619 124.016 73.5236V71.6982C124.016 70.326 123.939 69.4651 123.783 69.1155C123.641 68.753 123.363 68.4423 122.948 68.1834C122.534 67.9116 122.068 67.7756 121.55 67.7756C120.709 67.7756 120.016 67.9633 119.472 68.3388C119.136 68.5718 118.968 68.8437 118.968 69.1544C118.968 69.4262 119.149 69.7628 119.511 70.1641C120.003 70.7208 120.249 71.258 120.249 71.7759C120.249 72.4102 120.01 72.9539 119.531 73.407C119.065 73.8472 118.45 74.0673 117.686 74.0673C116.87 74.0673 116.184 73.8213 115.628 73.3294C115.084 72.8374 114.812 72.2613 114.812 71.6011C114.812 70.669 115.181 69.7822 115.919 68.9408C116.657 68.0863 117.686 67.4326 119.006 66.9795C120.327 66.5264 121.699 66.2998 123.123 66.2998C124.845 66.2998 126.204 66.6688 127.201 67.4067C128.211 68.1316 128.865 68.9213 129.162 69.7758C129.344 70.3195 129.434 71.5687 129.434 73.5236V80.5725C129.434 81.4011 129.467 81.9254 129.531 82.1455C129.596 82.3526 129.693 82.5079 129.823 82.6115C129.952 82.7151 130.101 82.7669 130.269 82.7669C130.606 82.7669 130.949 82.5274 131.298 82.0484L131.881 82.5144C131.234 83.4724 130.561 84.1715 129.861 84.6116C129.175 85.0388 128.392 85.2524 127.512 85.2524C126.476 85.2524 125.667 85.0129 125.084 84.534C124.502 84.042 124.146 83.3041 124.016 82.3202ZM124.016 80.9027V74.8246C122.45 75.7438 121.285 76.7276 120.521 77.7763C120.016 78.4753 119.764 79.1809 119.764 79.8929C119.764 80.4884 119.977 81.0127 120.405 81.4658C120.728 81.8153 121.181 81.9901 121.764 81.9901C122.411 81.9901 123.162 81.6276 124.016 80.9027Z" fill="url(#paint0_linear_425_1707)"/>
<circle cx="78.8512" cy="77.6378" r="46.9496" stroke="url(#paint1_linear_425_1707)" stroke-width="0.722222"/>
<path fill-rule="evenodd" clip-rule="evenodd" d="M83.7768 10.9681C83.2345 5.36742 77.7514 -0.908432 69.9404 0.109404C59.9156 1.41574 67.8874 7.64874 69.9414 8.82908C69.6045 10.0256 66.8503 13.2006 64.9376 13.2136C64.3313 13.2178 63.5063 13.4538 62.6534 13.8425C61.0762 7.50106 53.3098 2.48341 45.3751 7.66931C35.8405 13.9009 42.7404 18.1276 48.0879 14.9567C48.1067 16.2918 46.4693 22.1918 44.7307 23.8226C40.5249 21.3658 32.9359 18.4864 29.855 18.4863C23.1353 18.4861 24.5081 29.937 29.8556 26.7661C29.876 28.2117 28.5897 33.0381 26.7007 33.9737C26.1195 34.2616 25.5247 34.9425 25.0059 35.8253C20.091 32.6151 11.781 33.2797 8.11878 40.7789C3.41654 50.4077 13.1305 47.5407 15.2836 46.5216C16.0726 47.6044 17.0945 52.1047 16.0033 53.7863C15.8512 54.0206 15.7116 54.3214 15.5883 54.6701C10.8769 52.5466 1.84492 57.1694 0.276892 64.8399C-1.65319 74.2815 7.09408 69.6169 8.37995 66.9009C9.26198 67.4179 9.43011 70.5076 9.06225 72.438C4.58721 74.2112 -0.0361095 80.7014 0.958234 87.0788C2.40107 96.3327 10.7619 94.5661 10.7618 87.0813C11.5709 87.1831 12.1865 91.0836 12.4843 93.8975C8.38855 95.8315 4.34952 101.764 5.25896 107.597C6.62912 116.384 14.5691 114.175 12.4411 105.267C12.9235 105.328 14.4398 106.091 15.9506 107.066C11.3491 108.976 12.5498 121.696 18.2922 126.974C24.8407 132.992 28.5687 123.376 21.3526 117.736C22.262 117.181 27.3737 119.999 28.4819 121.302C28.6952 121.553 29.0379 122.223 29.4465 123.022L29.447 123.023C29.5487 123.221 29.6545 123.428 29.7634 123.638C27.1015 127.664 34.1105 141.043 39.4774 143.634C45.2656 146.429 47.75 138.29 41.2591 136.506C41.9376 135.73 46.1908 135.021 47.9212 135.51C48.8858 141.186 55.7164 150.575 60.4501 152.373C66.6021 154.708 68.0287 146.031 61.3054 144.811C61.9027 143.912 66.0096 141.838 67.6922 142.294C68.2783 142.453 68.8798 142.638 69.4768 142.832C71.2431 147.726 83.87 154.349 89.5579 153.653C96.1129 152.851 93.2619 144.486 86.7299 146.545C86.8326 145.468 89.4858 141.709 91.1921 141.328C92.2228 141.098 93.508 141.083 94.7812 141.126C98.2409 145.211 107.379 148.387 116.728 142.466C122.307 138.932 116.844 132.579 111.508 136.873C111.212 135.833 112.317 131.366 113.768 130.391C114.69 129.77 116.163 129.205 117.669 128.687C119.224 133.403 130.217 135.446 138.404 129.198C143.653 125.191 137.051 119.404 132.412 124.442C131.965 123.457 132.911 119.265 133.683 117.696C133.926 117.203 134.165 116.824 134.478 116.489C139.01 118.622 149.677 114.162 149.677 105.262C149.677 99.4123 144.421 97.2316 143.592 104.03C142.654 103.491 142.094 100.901 141.806 99.1768C141.642 98.1971 141.685 96.7012 142.069 95.0189C149.055 96.4656 156.596 83.2458 153.241 73.1826C152.663 71.4466 145.55 70.1607 147.894 76.5959C146.83 76.5414 145.357 74.5468 144.321 73.143L144.274 73.0802C143.68 72.2756 143.036 70.909 142.615 69.2192C147.935 66.7131 151.962 59.1553 149.676 50.0133C147.894 42.8842 138.03 45.7719 142.545 51.7871C141.241 51.7871 139.734 50.4372 138.47 49.3043L138.47 49.3041L138.469 49.3037C138.006 48.8884 137.575 48.5022 137.198 48.2225L137.118 48.1631C136.714 47.8633 136.324 47.5742 135.953 47.2291C140.277 44.5018 142.351 41.0141 138.978 32.1424C136.639 25.9898 128.289 25.0604 130.071 30.4072C129.043 30.85 127.865 30.173 126.71 29.5087C126.538 29.4096 126.366 29.3107 126.195 29.2159C130.578 24.9811 132.459 16.4526 124.724 12.5855C116.169 8.30803 113.436 11.9913 114.03 14.3677C112.891 14.9376 110.329 15.7262 108.864 14.5306C108.842 9.79196 106.001 4.84162 99.5535 3.03885C89.0788 0.109929 91.0656 6.96717 92.6434 9.02128C91.8391 10.0802 87.856 12.1034 85.9503 11.3074C85.416 11.0843 84.6407 10.9709 83.7768 10.9681ZM24.0787 37.8524C23.2233 37.8033 21.9567 37.9005 20.1221 38.2444C14.6871 39.2632 16.4845 43.8495 18.0626 46.0154C26.1666 61.1122 21.0716 62.0673 17.675 62.704C15.244 63.1597 14.7377 59.4716 15.1465 56.5673C14.3739 56.6793 13.0256 57.2004 10.7782 58.4994C6.86779 60.7596 8.74205 62.9635 10.0819 64.539L10.082 64.5391C10.3825 64.8924 10.6561 65.2142 10.8315 65.4978C17.788 76.7458 17.2154 78.5814 14.2235 80.3108C12.1855 81.4887 10.1018 78.7631 9.21234 76.2156C8.9432 76.5354 8.65463 76.891 8.34542 77.2858C5.56051 80.8417 8.00765 82.098 9.75704 82.996C10.1494 83.1975 10.5067 83.3809 10.7619 83.5682C20.8829 90.9941 24.9173 101.697 21.3538 103.477C18.6699 104.818 14.1618 100.155 12.9728 97.4294C12.7532 97.6935 12.5205 97.982 12.2741 98.2967C9.03627 102.431 12.9454 104.022 14.5689 104.263C21.3528 105.269 28.302 110.714 24.918 112.404C21.9821 113.871 19.6384 112.753 19.5706 110.615C19.5414 109.695 17.7861 108.256 16.0058 107.101L16.0059 108.827C16.0059 108.827 14.3453 109.191 16.0058 114.172C16.6 115.955 19.9326 116.779 21.3522 115.955C27.2843 112.514 37.3935 121.085 37.3931 124.867C37.3927 128.433 33.5943 127.854 32.0464 126.974C31.4971 126.661 30.8589 125.662 30.2642 124.581V124.867C30.2642 124.867 31.1281 128.261 33.8288 131.996C34.9297 133.519 38.3917 135.235 39.3457 133.899C44.5228 126.653 55.8658 131.955 56.9987 135.564C58.0667 138.966 55.1745 139.502 53.4338 139.126C52.7937 138.987 52.157 138.428 51.4097 137.772L51.4094 137.772C51.0904 137.491 50.7513 137.194 50.3832 136.903C51.0879 138.065 52.0448 139.447 53.2882 140.856C54.5871 142.327 58.2725 143.771 59.053 142.294C63.2886 134.281 75.0011 135.495 76.6034 139.126C77.7808 141.795 76.6107 144.695 74.8209 144.473C74.0909 144.383 72.9589 144.011 71.6703 143.572C72.9023 144.438 75.0075 145.743 77.7554 146.782C79.6035 147.481 83.5512 147.039 83.5422 145.365C83.4934 136.276 97.9802 131.994 101.556 133.781C104.825 135.415 104.981 138.549 100.963 140.579C102.298 140.784 103.73 140.921 105.12 140.906C107.095 140.885 111.197 138.969 110.466 136.873C106.902 126.648 115.668 121.901 119.665 121.902C124.725 121.903 124.284 125.438 122.942 126.648C122.436 127.105 120.897 127.614 119.165 128.186L119.165 128.186C118.924 128.266 118.678 128.347 118.432 128.429L119.376 128.429C119.376 128.429 121.908 130.15 126.692 129.379C128.643 129.065 132.415 126.561 131.381 124.597C125.901 114.184 130.797 109.23 135.418 108.829C140.459 108.39 140.356 113.255 138.404 114.184L138.186 114.288C138.906 114.141 140.065 113.565 141.806 111.834C142.85 110.795 145.598 107.044 143.592 106.042C133.067 100.782 135.464 88.6728 138.983 85.6507C142.821 82.3541 144.634 89.1101 143.591 91.0035C143.379 91.3884 143.188 91.7763 143.017 92.1638C144.758 91.4829 147.017 90.1115 147.894 87.4408C148.355 86.0408 148.276 79.1164 146.112 78.5294C138.983 76.5959 133.859 66.5938 135.625 62.3045C137.551 57.6258 142.23 62.8254 142.16 64.9858C142.155 65.1215 142.153 65.2565 142.152 65.3908C143.274 63.8751 144.265 61.7451 144.327 58.9162C144.33 58.7795 144.336 58.6185 144.343 58.439V58.4388V58.4385C144.408 56.683 144.54 53.1704 142.545 53.5694C133.636 55.3517 130.072 49.297 130.071 44.6584C130.07 41.0989 131.854 41.1015 133.633 42.8745C133.774 43.3972 133.922 43.8605 134.077 44.2739C137.233 41.5267 135.45 35.7541 133.302 35.7541C122.942 35.7541 119.43 29.3143 117.595 25.0538C116.187 21.7846 119.379 17.4638 121.16 19.7125C122.028 20.809 122.501 22.3468 122.858 23.8354C122.912 23.1833 122.942 22.41 122.942 21.4965C122.942 15.7932 118.189 16.7438 115.813 17.9319C112.36 19.0828 109.65 19.7382 107.524 20.0226C107.481 20.1034 107.436 20.1836 107.39 20.2632L106.974 20.0893C99.7726 20.8711 99.7726 17.0969 99.7726 14.3677C99.7726 13.1176 100.649 12.5252 101.865 12.3597C99.357 6.8725 95.5189 9.72678 93.9118 11.8425C81.8758 23.5557 79.5248 18.3888 77.9575 14.9442C77.0212 12.8864 79.2058 11.6343 81.6246 11.1717C81.1373 10.4767 80.3226 9.55336 79.0367 8.34031C75.0143 4.54586 72.6609 8.38367 71.987 10.7769C65.5525 25.1521 61.7818 21.5951 59.268 19.2237C57.9339 17.9652 58.9395 16.3542 60.5345 15.1169C59.7733 14.5849 58.1048 13.7916 55.2162 12.5849C50.1139 10.4535 49.8288 16.8224 49.8694 19.7139C51.6517 33.3127 43.6528 34.6447 40.4641 33.3126C38.0371 32.2987 40.1578 28.1889 42.3505 25.7676C41.2059 25.5432 39.8713 25.175 38.4138 24.5662C33.3114 22.4347 32.0078 27.5174 32.0484 30.4089C33.8307 44.0078 28.1327 45.4617 24.944 44.1296C23.0755 43.3491 23.1892 40.3978 24.0787 37.8524Z" fill="url(#paint2_linear_425_1707)"/>
<defs>
<linearGradient id="paint0_linear_425_1707" x1="113.707" y1="45" x2="113.194" y2="95.5058" gradientUnits="userSpaceOnUse">
<stop stop-color="#DECE98"/>
<stop offset="0.215625" stop-color="#D3BA65"/>
<stop offset="0.913541" stop-color="#9D894D"/>
</linearGradient>
<linearGradient id="paint1_linear_425_1707" x1="95.8194" y1="30.3272" x2="93.5701" y2="119.992" gradientUnits="userSpaceOnUse">
<stop stop-color="#DECE98"/>
<stop offset="0.215625" stop-color="#D3BA65"/>
<stop offset="0.913541" stop-color="#9D894D"/>
</linearGradient>
<linearGradient id="paint2_linear_425_1707" x1="104.66" y1="-1.13778e-07" x2="101.014" y2="145.653" gradientUnits="userSpaceOnUse">
<stop stop-color="#DECE98"/>
<stop offset="0.215625" stop-color="#D3BA65"/>
<stop offset="0.913541" stop-color="#9D894D"/>
</linearGradient>
</defs>
</svg>
