<svg width="82" height="82" viewBox="0 0 82 82" fill="none" xmlns="http://www.w3.org/2000/svg">
<path d="M11.7325 46.3399V46.6201H6.36231V46.3399H6.70315C7.00108 46.3399 7.24093 46.2868 7.42272 46.1808C7.554 46.1101 7.655 45.9889 7.72569 45.8172C7.78123 45.696 7.80901 45.3779 7.80901 44.8629V38.1065C7.80901 37.5814 7.78123 37.2532 7.72569 37.1219C7.67014 36.9906 7.55653 36.877 7.38484 36.781C7.21821 36.68 6.99098 36.6295 6.70315 36.6295H6.36231V36.3493H11.7325V36.6295H11.3917C11.0938 36.6295 10.8539 36.6826 10.6721 36.7886C10.5408 36.8593 10.4373 36.9805 10.3616 37.1522C10.306 37.2734 10.2782 37.5915 10.2782 38.1065V44.8629C10.2782 45.388 10.306 45.7162 10.3616 45.8475C10.4222 45.9788 10.5358 46.095 10.7024 46.196C10.8741 46.2919 11.1038 46.3399 11.3917 46.3399H11.7325ZM15.3909 36.3493V45.1507C15.3909 45.6506 15.449 45.9712 15.5651 46.1126C15.6813 46.249 15.9085 46.3272 16.2468 46.3474V46.6201H12.4218V46.3474C12.7349 46.3373 12.9671 46.2464 13.1186 46.0748C13.2196 45.9586 13.2701 45.6506 13.2701 45.1507V37.8187C13.2701 37.3239 13.212 37.0083 13.0959 36.8719C12.9798 36.7305 12.7551 36.6497 12.4218 36.6295V36.3493H15.3909ZM19.7083 36.3493V45.1507C19.7083 45.6506 19.7664 45.9712 19.8825 46.1126C19.9987 46.249 20.2259 46.3272 20.5642 46.3474V46.6201H16.7392V46.3474C17.0522 46.3373 17.2845 46.2464 17.436 46.0748C17.537 45.9586 17.5875 45.6506 17.5875 45.1507V37.8187C17.5875 37.3239 17.5294 37.0083 17.4133 36.8719C17.2971 36.7305 17.0724 36.6497 16.7392 36.6295V36.3493H19.7083ZM28.0931 39.5381V45.0825C28.0931 45.6228 28.1436 45.9611 28.2446 46.0975C28.3456 46.2288 28.5501 46.3121 28.8581 46.3474V46.6201H25.9723V45.6733C25.634 46.0773 25.2957 46.3727 24.9573 46.5595C24.619 46.7413 24.2403 46.8322 23.8212 46.8322C23.4223 46.8322 23.0663 46.711 22.7532 46.4686C22.4452 46.2212 22.2381 45.9334 22.1321 45.6052C22.0261 45.2769 21.973 44.7038 21.973 43.8858V41.0757C21.973 40.5404 21.9225 40.2072 21.8216 40.0759C21.7256 39.9446 21.5211 39.8587 21.208 39.8183V39.5381H24.0939V44.3781C24.0939 44.8831 24.1166 45.2088 24.162 45.3552C24.2125 45.5016 24.2883 45.6127 24.3893 45.6885C24.4953 45.7642 24.6165 45.8021 24.7528 45.8021C24.9346 45.8021 25.0987 45.7541 25.2452 45.6582C25.4471 45.5269 25.6895 45.2618 25.9723 44.8629V41.0757C25.9723 40.5404 25.9218 40.2072 25.8208 40.0759C25.7249 39.9446 25.5204 39.8587 25.2073 39.8183V39.5381H28.0931ZM34.3647 39.3412L34.4783 41.7574H34.2208C33.9127 41.0403 33.5921 40.5505 33.2588 40.288C32.9306 40.0254 32.6024 39.8941 32.2742 39.8941C32.0671 39.8941 31.8904 39.9648 31.744 40.1062C31.5975 40.2425 31.5243 40.4016 31.5243 40.5834C31.5243 40.7197 31.5748 40.851 31.6758 40.9772C31.8374 41.1843 32.2893 41.5403 33.0316 42.0452C33.7739 42.5451 34.2612 42.9718 34.4934 43.3253C34.7308 43.6737 34.8494 44.065 34.8494 44.4993C34.8494 44.8932 34.751 45.2795 34.554 45.6582C34.3571 46.0369 34.0794 46.3272 33.7209 46.5292C33.3623 46.7312 32.966 46.8322 32.5317 46.8322C32.1934 46.8322 31.7414 46.7262 31.1759 46.5141C31.0244 46.4585 30.9209 46.4308 30.8653 46.4308C30.6987 46.4308 30.5598 46.557 30.4487 46.8095H30.1988L30.0776 44.2645H30.3351C30.5624 44.931 30.8729 45.4309 31.2668 45.7642C31.6657 46.0975 32.0419 46.2641 32.3954 46.2641C32.6377 46.2641 32.8347 46.1909 32.9861 46.0445C33.1427 45.893 33.221 45.7112 33.221 45.4991C33.221 45.2567 33.1452 45.0472 32.9937 44.8704C32.8422 44.6937 32.5039 44.4261 31.9788 44.0676C31.2062 43.5323 30.7063 43.1233 30.479 42.8405C30.1458 42.4265 29.9791 41.9695 29.9791 41.4696C29.9791 40.9242 30.166 40.4319 30.5396 39.9926C30.9184 39.5482 31.4637 39.326 32.1757 39.326C32.5595 39.326 32.9306 39.4194 33.2891 39.6063C33.4255 39.682 33.5366 39.7199 33.6224 39.7199C33.7133 39.7199 33.7865 39.7022 33.8421 39.6669C33.8976 39.6265 33.986 39.5179 34.1072 39.3412H34.3647ZM38.7427 36.9477V39.5381H40.4242V40.288H38.7427V44.6584C38.7427 45.0674 38.7603 45.3325 38.7957 45.4537C38.8361 45.5698 38.9042 45.6657 39.0002 45.7415C39.0961 45.8122 39.1845 45.8475 39.2653 45.8475C39.5935 45.8475 39.9041 45.5976 40.1969 45.0977L40.4242 45.2643C40.0151 46.2338 39.3511 46.7186 38.4321 46.7186C37.9827 46.7186 37.6015 46.5949 37.2884 46.3474C36.9804 46.095 36.7834 45.8147 36.6976 45.5067C36.6471 45.335 36.6218 44.8704 36.6218 44.113V40.288H35.6978V40.0229C36.334 39.5734 36.8743 39.1013 37.3187 38.6065C37.7681 38.1116 38.1594 37.5587 38.4927 36.9477H38.7427ZM44.0371 39.5381V41.1439C44.5067 40.4117 44.9183 39.9269 45.2717 39.6896C45.6252 39.4472 45.9661 39.326 46.2943 39.326C46.5771 39.326 46.8018 39.4144 46.9684 39.5911C47.1401 39.7628 47.2259 40.0077 47.2259 40.3258C47.2259 40.6642 47.1426 40.9267 46.976 41.1136C46.8144 41.3004 46.6175 41.3938 46.3852 41.3938C46.1175 41.3938 45.8853 41.308 45.6883 41.1363C45.4914 40.9646 45.3753 40.8687 45.3399 40.8485C45.2894 40.8182 45.2314 40.803 45.1657 40.803C45.0193 40.803 44.8804 40.8586 44.7491 40.9697C44.5421 41.1413 44.3855 41.3862 44.2795 41.7044C44.1179 42.1942 44.0371 42.7345 44.0371 43.3253V44.9538L44.0447 45.3779C44.0447 45.6657 44.0624 45.8501 44.0977 45.9309C44.1583 46.0672 44.2467 46.1682 44.3628 46.2338C44.484 46.2944 44.686 46.3323 44.9688 46.3474V46.6201H41.1437V46.3474C41.4517 46.3222 41.6588 46.2389 41.7648 46.0975C41.8759 45.951 41.9315 45.5698 41.9315 44.9538V41.0378C41.9315 40.6339 41.9113 40.3763 41.8709 40.2652C41.8204 40.1238 41.7471 40.0203 41.6512 39.9547C41.5553 39.889 41.3861 39.8436 41.1437 39.8183V39.5381H44.0371ZM51.8993 45.5749C51.0358 46.3373 50.2607 46.7186 49.574 46.7186C49.17 46.7186 48.8342 46.5873 48.5666 46.3247C48.299 46.0571 48.1651 45.7238 48.1651 45.3249C48.1651 44.7846 48.3974 44.2998 48.862 43.8706C49.3265 43.4364 50.339 42.8607 51.8993 42.1437V41.4317C51.8993 40.8964 51.869 40.5606 51.8084 40.4243C51.7529 40.2829 51.6443 40.1617 51.4827 40.0607C51.3211 39.9547 51.1393 39.9017 50.9374 39.9017C50.6091 39.9017 50.339 39.9749 50.1269 40.1213C49.9956 40.2122 49.93 40.3183 49.93 40.4394C49.93 40.5455 50.0007 40.6768 50.1421 40.8333C50.3339 41.0504 50.4299 41.26 50.4299 41.462C50.4299 41.7094 50.3365 41.9215 50.1496 42.0982C49.9678 42.2699 49.728 42.3558 49.4301 42.3558C49.1119 42.3558 48.8443 42.2598 48.6272 42.0679C48.4151 41.876 48.3091 41.6513 48.3091 41.3938C48.3091 41.0302 48.453 40.6844 48.7408 40.3561C49.0286 40.0229 49.4301 39.7679 49.9451 39.5911C50.4602 39.4144 50.9954 39.326 51.5509 39.326C52.2225 39.326 52.7527 39.4699 53.1415 39.7578C53.5354 40.0405 53.7904 40.3486 53.9065 40.6818C53.9772 40.8939 54.0125 41.3812 54.0125 42.1437V44.8932C54.0125 45.2163 54.0252 45.4208 54.0504 45.5067C54.0757 45.5875 54.1135 45.6481 54.164 45.6885C54.2145 45.7289 54.2726 45.7491 54.3382 45.7491C54.4695 45.7491 54.6033 45.6556 54.7397 45.4688L54.9669 45.6506C54.7144 46.0243 54.4519 46.2969 54.1792 46.4686C53.9116 46.6353 53.6061 46.7186 53.2627 46.7186C52.8587 46.7186 52.5431 46.6252 52.3159 46.4383C52.0887 46.2464 51.9498 45.9586 51.8993 45.5749ZM51.8993 45.0219V42.6512C51.2883 43.0097 50.8338 43.3934 50.5359 43.8025C50.339 44.0751 50.2405 44.3503 50.2405 44.6281C50.2405 44.8603 50.3238 45.0649 50.4905 45.2416C50.6167 45.3779 50.7934 45.4461 51.0207 45.4461C51.2732 45.4461 51.566 45.3047 51.8993 45.0219ZM58.5572 36.9477V39.5381H60.2387V40.288H58.5572V44.6584C58.5572 45.0674 58.5748 45.3325 58.6102 45.4537C58.6506 45.5698 58.7187 45.6657 58.8147 45.7415C58.9106 45.8122 58.999 45.8475 59.0798 45.8475C59.408 45.8475 59.7186 45.5976 60.0114 45.0977L60.2387 45.2643C59.8297 46.2338 59.1656 46.7186 58.2466 46.7186C57.7972 46.7186 57.416 46.5949 57.1029 46.3474C56.7949 46.095 56.5979 45.8147 56.5121 45.5067C56.4616 45.335 56.4363 44.8704 56.4363 44.113V40.288H55.5123V40.0229C56.1485 39.5734 56.6888 39.1013 57.1332 38.6065C57.5826 38.1116 57.9739 37.5587 58.3072 36.9477H58.5572ZM64.2531 39.326C64.8691 39.326 65.4422 39.4851 65.9724 39.8032C66.5027 40.1213 66.9041 40.5733 67.1768 41.159C67.4545 41.7448 67.5934 42.3861 67.5934 43.0829C67.5934 44.0878 67.3384 44.9285 66.8284 45.6052C66.2123 46.4232 65.3615 46.8322 64.2758 46.8322C63.2103 46.8322 62.3898 46.4585 61.8141 45.7112C61.2385 44.9639 60.9507 44.0979 60.9507 43.1132C60.9507 42.0982 61.2435 41.2146 61.8293 40.4622C62.4201 39.7047 63.228 39.326 64.2531 39.326ZM64.2834 39.8638C64.0258 39.8638 63.8037 39.9623 63.6168 40.1592C63.435 40.3511 63.3139 40.7348 63.2533 41.3105C63.1977 41.8811 63.1699 42.6764 63.1699 43.6964C63.1699 44.2367 63.2053 44.7417 63.276 45.2113C63.3315 45.5698 63.4502 45.8425 63.632 46.0293C63.8138 46.2162 64.0208 46.3096 64.2531 46.3096C64.4803 46.3096 64.6697 46.2464 64.8211 46.1202C65.0181 45.9485 65.1494 45.7087 65.215 45.4006C65.316 44.9209 65.3665 43.9514 65.3665 42.4921C65.3665 41.6337 65.3185 41.0454 65.2226 40.7273C65.1266 40.4041 64.9853 40.1693 64.7984 40.0229C64.6671 39.9168 64.4955 39.8638 64.2834 39.8638ZM71.6078 39.5381V41.1439C72.0774 40.4117 72.4889 39.9269 72.8424 39.6896C73.1959 39.4472 73.5367 39.326 73.8649 39.326C74.1477 39.326 74.3724 39.4144 74.539 39.5911C74.7107 39.7628 74.7966 40.0077 74.7966 40.3258C74.7966 40.6642 74.7132 40.9267 74.5466 41.1136C74.385 41.3004 74.1881 41.3938 73.9558 41.3938C73.6882 41.3938 73.4559 41.308 73.259 41.1363C73.062 40.9646 72.9459 40.8687 72.9106 40.8485C72.8601 40.8182 72.802 40.803 72.7363 40.803C72.5899 40.803 72.451 40.8586 72.3198 40.9697C72.1127 41.1413 71.9562 41.3862 71.8501 41.7044C71.6886 42.1942 71.6078 42.7345 71.6078 43.3253V44.9538L71.6153 45.3779C71.6153 45.6657 71.633 45.8501 71.6684 45.9309C71.729 46.0672 71.8173 46.1682 71.9335 46.2338C72.0547 46.2944 72.2566 46.3323 72.5394 46.3474V46.6201H68.7144V46.3474C69.0224 46.3222 69.2294 46.2389 69.3355 46.0975C69.4465 45.951 69.5021 45.5698 69.5021 44.9538V41.0378C69.5021 40.6339 69.4819 40.3763 69.4415 40.2652C69.391 40.1238 69.3178 40.0203 69.2218 39.9547C69.1259 39.889 68.9567 39.8436 68.7144 39.8183V39.5381H71.6078Z" fill="url(#paint0_linear_415_1827)"/>
<circle cx="40.6308" cy="40.6308" r="40.1986" stroke="url(#paint1_linear_415_1827)" stroke-width="0.864486"/>
<path d="M12.9678 29.3932C15.3088 16.1318 26.9973 6.05176 41.064 6.05176C55.1307 6.05176 66.8191 16.1318 69.1602 29.3932" stroke="url(#paint2_linear_415_1827)" stroke-width="0.864486"/>
<line x1="15.5605" y1="66.9974" x2="65.7015" y2="66.9974" stroke="url(#paint3_linear_415_1827)" stroke-width="0.864486"/>
<line x1="15.5605" y1="68.7269" x2="65.7015" y2="68.7269" stroke="url(#paint4_linear_415_1827)" stroke-width="0.864486"/>
<line x1="5.18701" y1="28.9603" x2="19.019" y2="28.9603" stroke="url(#paint5_linear_415_1827)" stroke-width="0.864486"/>
<line x1="5.18701" y1="30.6898" x2="19.019" y2="30.6898" stroke="url(#paint6_linear_415_1827)" stroke-width="0.864486"/>
<line x1="5.18701" y1="32.4183" x2="19.019" y2="32.4183" stroke="url(#paint7_linear_415_1827)" stroke-width="0.864486"/>
<line x1="62.2432" y1="28.9603" x2="76.0751" y2="28.9603" stroke="url(#paint8_linear_415_1827)" stroke-width="0.864486"/>
<line x1="62.2432" y1="30.6898" x2="76.0751" y2="30.6898" stroke="url(#paint9_linear_415_1827)" stroke-width="0.864486"/>
<line x1="62.2432" y1="32.4183" x2="76.0751" y2="32.4183" stroke="url(#paint10_linear_415_1827)" stroke-width="0.864486"/>
<path fill-rule="evenodd" clip-rule="evenodd" d="M39.5262 15.6665L40.0091 14.6973L40.4921 15.6665L50.3464 35.4439H49.3805L40.0091 16.6357L30.6377 35.4439H29.6719L39.5262 15.6665ZM22.3492 50.1404L16.8565 61.1641L16.4258 62.0286H17.3916H62.6266H63.5925L63.1617 61.1641L57.6691 50.1404H56.7032L62.1959 61.1641H17.8224L23.315 50.1404H22.3492Z" fill="url(#paint11_linear_415_1827)"/>
<circle cx="40.6318" cy="12.9673" r="5.18699" fill="url(#paint12_linear_415_1827)"/>
<circle cx="15.561" cy="59.6509" r="5.18699" fill="url(#paint13_linear_415_1827)"/>
<circle cx="64.8364" cy="59.6499" r="5.18699" fill="url(#paint14_linear_415_1827)"/>
<defs>
<linearGradient id="paint0_linear_415_1827" x1="53.0332" y1="32.6201" x2="52.9323" y2="48.8606" gradientUnits="userSpaceOnUse">
<stop stop-color="#DECE98"/>
<stop offset="0.215625" stop-color="#D3BA65"/>
<stop offset="0.913541" stop-color="#9D894D"/>
</linearGradient>
<linearGradient id="paint1_linear_415_1827" x1="55.2032" y1="-6.01534e-08" x2="53.2715" y2="77.0051" gradientUnits="userSpaceOnUse">
<stop stop-color="#DECE98"/>
<stop offset="0.215625" stop-color="#D3BA65"/>
<stop offset="0.913541" stop-color="#9D894D"/>
</linearGradient>
<linearGradient id="paint2_linear_415_1827" x1="51.1408" y1="6.05176" x2="50.9102" y2="28.1821" gradientUnits="userSpaceOnUse">
<stop stop-color="#DECE98"/>
<stop offset="0.215625" stop-color="#D3BA65"/>
<stop offset="0.913541" stop-color="#9D894D"/>
</linearGradient>
<linearGradient id="paint3_linear_415_1827" x1="49.6226" y1="67.4297" x2="49.6221" y2="68.3779" gradientUnits="userSpaceOnUse">
<stop stop-color="#DECE98"/>
<stop offset="0.215625" stop-color="#D3BA65"/>
<stop offset="0.913541" stop-color="#9D894D"/>
</linearGradient>
<linearGradient id="paint4_linear_415_1827" x1="49.6226" y1="69.1592" x2="49.6221" y2="70.1074" gradientUnits="userSpaceOnUse">
<stop stop-color="#DECE98"/>
<stop offset="0.215625" stop-color="#D3BA65"/>
<stop offset="0.913541" stop-color="#9D894D"/>
</linearGradient>
<linearGradient id="paint5_linear_415_1827" x1="14.5834" y1="29.3926" x2="14.5817" y2="30.3408" gradientUnits="userSpaceOnUse">
<stop stop-color="#DECE98"/>
<stop offset="0.215625" stop-color="#D3BA65"/>
<stop offset="0.913541" stop-color="#9D894D"/>
</linearGradient>
<linearGradient id="paint6_linear_415_1827" x1="14.5834" y1="31.1221" x2="14.5817" y2="32.0703" gradientUnits="userSpaceOnUse">
<stop stop-color="#DECE98"/>
<stop offset="0.215625" stop-color="#D3BA65"/>
<stop offset="0.913541" stop-color="#9D894D"/>
</linearGradient>
<linearGradient id="paint7_linear_415_1827" x1="14.5834" y1="32.8506" x2="14.5817" y2="33.7988" gradientUnits="userSpaceOnUse">
<stop stop-color="#DECE98"/>
<stop offset="0.215625" stop-color="#D3BA65"/>
<stop offset="0.913541" stop-color="#9D894D"/>
</linearGradient>
<linearGradient id="paint8_linear_415_1827" x1="71.6396" y1="29.3926" x2="71.6379" y2="30.3408" gradientUnits="userSpaceOnUse">
<stop stop-color="#DECE98"/>
<stop offset="0.215625" stop-color="#D3BA65"/>
<stop offset="0.913541" stop-color="#9D894D"/>
</linearGradient>
<linearGradient id="paint9_linear_415_1827" x1="71.6396" y1="31.1221" x2="71.6379" y2="32.0703" gradientUnits="userSpaceOnUse">
<stop stop-color="#DECE98"/>
<stop offset="0.215625" stop-color="#D3BA65"/>
<stop offset="0.913541" stop-color="#9D894D"/>
</linearGradient>
<linearGradient id="paint10_linear_415_1827" x1="71.6396" y1="32.8506" x2="71.6379" y2="33.7988" gradientUnits="userSpaceOnUse">
<stop stop-color="#DECE98"/>
<stop offset="0.215625" stop-color="#D3BA65"/>
<stop offset="0.913541" stop-color="#9D894D"/>
</linearGradient>
<linearGradient id="paint11_linear_415_1827" x1="48.4674" y1="14.6973" x2="47.3383" y2="59.5491" gradientUnits="userSpaceOnUse">
<stop stop-color="#DECE98"/>
<stop offset="0.215625" stop-color="#D3BA65"/>
<stop offset="0.913541" stop-color="#9D894D"/>
</linearGradient>
<linearGradient id="paint12_linear_415_1827" x1="42.4921" y1="7.78027" x2="42.2455" y2="17.6109" gradientUnits="userSpaceOnUse">
<stop stop-color="#DECE98"/>
<stop offset="0.215625" stop-color="#D3BA65"/>
<stop offset="0.913541" stop-color="#9D894D"/>
</linearGradient>
<linearGradient id="paint13_linear_415_1827" x1="17.4213" y1="54.4639" x2="17.1747" y2="64.2945" gradientUnits="userSpaceOnUse">
<stop stop-color="#DECE98"/>
<stop offset="0.215625" stop-color="#D3BA65"/>
<stop offset="0.913541" stop-color="#9D894D"/>
</linearGradient>
<linearGradient id="paint14_linear_415_1827" x1="66.6967" y1="54.4629" x2="66.4501" y2="64.2935" gradientUnits="userSpaceOnUse">
<stop stop-color="#DECE98"/>
<stop offset="0.215625" stop-color="#D3BA65"/>
<stop offset="0.913541" stop-color="#9D894D"/>
</linearGradient>
</defs>
</svg>
