<svg width="166" height="166" viewBox="0 0 166 166" fill="none" xmlns="http://www.w3.org/2000/svg">
<mask id="mask0_410_6346" style="mask-type:alpha" maskUnits="userSpaceOnUse" x="11" y="11" width="144" height="144">
<circle cx="83" cy="83" r="72" fill="#8E7561"/>
</mask>
<g mask="url(#mask0_410_6346)">
<rect x="35.4039" y="-0.390625" width="62.7975" height="62.7975" transform="rotate(-45 35.4039 -0.390625)" stroke="url(#paint0_linear_410_6346)"/>
<rect x="41.8487" y="-0.390625" width="53.6835" height="53.6835" transform="rotate(-45 41.8487 -0.390625)" stroke="url(#paint1_linear_410_6346)"/>
<rect x="48.2935" y="-0.390625" width="44.5696" height="44.5696" transform="rotate(-45 48.2935 -0.390625)" stroke="url(#paint2_linear_410_6346)"/>
<rect x="54.7374" y="-0.390625" width="35.4557" height="35.4557" transform="rotate(-45 54.7374 -0.390625)" stroke="url(#paint3_linear_410_6346)"/>
<rect x="35.4039" y="160.923" width="62.7975" height="62.7975" transform="rotate(-45 35.4039 160.923)" stroke="url(#paint4_linear_410_6346)"/>
<rect x="41.8487" y="160.923" width="53.6835" height="53.6835" transform="rotate(-45 41.8487 160.923)" stroke="url(#paint5_linear_410_6346)"/>
<rect x="48.2935" y="160.923" width="44.5696" height="44.5696" transform="rotate(-45 48.2935 160.923)" stroke="url(#paint6_linear_410_6346)"/>
<rect x="54.7374" y="160.923" width="35.4557" height="35.4557" transform="rotate(-45 54.7374 160.923)" stroke="url(#paint7_linear_410_6346)"/>
<rect x="-58.4711" y="74.3408" width="62.7975" height="62.7975" transform="rotate(-45 -58.4711 74.3408)" stroke="url(#paint8_linear_410_6346)"/>
<rect x="-52.0263" y="74.3408" width="53.6835" height="53.6835" transform="rotate(-45 -52.0263 74.3408)" stroke="url(#paint9_linear_410_6346)"/>
<rect x="-45.5815" y="74.3408" width="44.5696" height="44.5696" transform="rotate(-45 -45.5815 74.3408)" stroke="url(#paint10_linear_410_6346)"/>
<rect x="-39.1376" y="74.3408" width="35.4557" height="35.4557" transform="rotate(-45 -39.1376 74.3408)" stroke="url(#paint11_linear_410_6346)"/>
<rect x="135.658" y="74.3408" width="62.7975" height="62.7975" transform="rotate(-45 135.658 74.3408)" stroke="url(#paint12_linear_410_6346)"/>
<rect x="142.103" y="74.3408" width="53.6835" height="53.6835" transform="rotate(-45 142.103 74.3408)" stroke="url(#paint13_linear_410_6346)"/>
<rect x="148.547" y="74.3408" width="44.5696" height="44.5696" transform="rotate(-45 148.547 74.3408)" stroke="url(#paint14_linear_410_6346)"/>
<rect x="154.991" y="74.3408" width="35.4557" height="35.4557" transform="rotate(-45 154.991 74.3408)" stroke="url(#paint15_linear_410_6346)"/>
</g>
<path d="M48.7502 46.6204V45.8301H64.1513V46.6204H63.2115C62.357 46.6204 61.6735 46.77 61.1608 47.069C60.8048 47.2684 60.52 47.6101 60.3064 48.0943C60.1498 48.4361 60.0714 49.3332 60.0714 50.7858V64.9693C60.0714 67.7462 59.7938 69.7684 59.2384 71.0358C58.683 72.2889 57.6933 73.3427 56.2692 74.1972C54.8594 75.0374 53.1577 75.4575 51.164 75.4575C48.7289 75.4575 46.7566 74.8166 45.2471 73.535C43.7518 72.2533 43.0042 70.8364 43.0042 69.2842C43.0042 68.2874 43.3104 67.4828 43.9227 66.8704C44.5351 66.2438 45.2827 65.9306 46.1656 65.9306C47.0343 65.9306 47.7605 66.2082 48.3444 66.7636C48.9425 67.319 49.2415 68.0025 49.2415 68.8143C49.2415 69.213 49.1917 69.5619 49.092 69.8609C49.0351 70.0033 48.8072 70.3665 48.4085 70.9503C48.024 71.52 47.8317 71.9258 47.8317 72.1679C47.8317 72.5381 48.0169 72.8586 48.3871 73.1291C48.9282 73.5279 49.6332 73.7272 50.5018 73.7272C51.1142 73.7272 51.6197 73.5706 52.0184 73.2573C52.4172 72.944 52.6949 72.4598 52.8515 71.8048C53.0224 71.1355 53.1078 69.2913 53.1078 66.2723V50.7858C53.1078 49.3048 53.0224 48.3791 52.8515 48.0089C52.6949 47.6386 52.3745 47.3182 51.8903 47.0476C51.4203 46.7628 50.7795 46.6204 49.9678 46.6204H48.7502Z" fill="url(#paint16_linear_410_6346)"/>
<path d="M74.7164 71.8475C72.2812 73.9978 70.0953 75.073 68.1586 75.073C67.0194 75.073 66.0724 74.7027 65.3176 73.9622C64.5629 73.2075 64.1855 72.2676 64.1855 71.1426C64.1855 69.6188 64.8406 68.2518 66.1507 67.0413C67.4608 65.8166 70.3161 64.1932 74.7164 62.1711V60.1631C74.7164 58.6537 74.6309 57.7067 74.46 57.3222C74.3034 56.9234 73.9972 56.5817 73.5415 56.2969C73.0858 55.9978 72.5732 55.8483 72.0036 55.8483C71.0779 55.8483 70.3161 56.0548 69.718 56.4677C69.3477 56.7241 69.1626 57.0231 69.1626 57.3649C69.1626 57.6639 69.3619 58.0342 69.7607 58.4756C70.3018 59.088 70.5724 59.679 70.5724 60.2486C70.5724 60.9464 70.3089 61.5445 69.782 62.0429C69.2694 62.5271 68.593 62.7692 67.7528 62.7692C66.8556 62.7692 66.1009 62.4986 65.4885 61.9575C64.8904 61.4163 64.5914 60.7826 64.5914 60.0563C64.5914 59.031 64.9972 58.0556 65.8089 57.1299C66.6207 56.19 67.7528 55.4709 69.2053 54.9725C70.6578 54.4741 72.1673 54.2249 73.7338 54.2249C75.6278 54.2249 77.123 54.6307 78.2195 55.4424C79.3303 56.2399 80.0494 57.1086 80.377 58.0484C80.5763 58.6465 80.676 60.0207 80.676 62.1711V69.925C80.676 70.8364 80.7116 71.4131 80.7828 71.6552C80.854 71.8831 80.9608 72.054 81.1032 72.1679C81.2457 72.2818 81.4094 72.3388 81.5945 72.3388C81.9648 72.3388 82.3422 72.0753 82.7267 71.5484L83.3675 72.0611C82.6555 73.1149 81.915 73.8839 81.146 74.3681C80.3912 74.838 79.5297 75.073 78.5613 75.073C77.4221 75.073 76.532 74.8095 75.8912 74.2826C75.2504 73.7415 74.8588 72.9298 74.7164 71.8475ZM74.7164 70.2881V63.6022C72.9933 64.6133 71.7116 65.6956 70.8714 66.8491C70.3161 67.6181 70.0384 68.3942 70.0384 69.1774C70.0384 69.8325 70.2733 70.4092 70.7433 70.9076C71.0993 71.2921 71.5977 71.4844 72.2385 71.4844C72.9506 71.4844 73.7765 71.0856 74.7164 70.2881Z" fill="url(#paint17_linear_410_6346)"/>
<path d="M92.3945 75.3934L85.6659 59.9068C84.8542 58.0413 84.2205 56.8594 83.7648 56.3609C83.4373 55.9907 82.9531 55.7415 82.3123 55.6133V54.823H92.9286V55.6133C92.2593 55.6133 91.8036 55.7344 91.5615 55.9764C91.2197 56.2897 91.0488 56.66 91.0488 57.0872C91.0488 57.6141 91.3621 58.6038 91.9887 60.0563L95.2782 67.554L97.9056 61.0817C98.6604 59.2304 99.0377 57.9203 99.0377 57.1513C99.0377 56.7098 98.874 56.3538 98.5464 56.0832C98.2332 55.7984 97.6707 55.6418 96.8589 55.6133V54.823H103.395V55.6133C102.769 55.6987 102.256 55.9337 101.857 56.3182C101.459 56.7027 100.861 57.8348 100.063 59.7146L93.3985 75.3934H92.3945Z" fill="url(#paint18_linear_410_6346)"/>
<path d="M114.089 71.8475C111.653 73.9978 109.467 75.073 107.531 75.073C106.392 75.073 105.445 74.7027 104.69 73.9622C103.935 73.2075 103.558 72.2676 103.558 71.1426C103.558 69.6188 104.213 68.2518 105.523 67.0413C106.833 65.8166 109.688 64.1932 114.089 62.1711V60.1631C114.089 58.6537 114.003 57.7067 113.832 57.3222C113.676 56.9234 113.369 56.5817 112.914 56.2969C112.458 55.9978 111.945 55.8483 111.376 55.8483C110.45 55.8483 109.688 56.0548 109.09 56.4677C108.72 56.7241 108.535 57.0231 108.535 57.3649C108.535 57.6639 108.734 58.0342 109.133 58.4756C109.674 59.088 109.945 59.679 109.945 60.2486C109.945 60.9464 109.681 61.5445 109.154 62.0429C108.642 62.5271 107.965 62.7692 107.125 62.7692C106.228 62.7692 105.473 62.4986 104.861 61.9575C104.263 61.4163 103.964 60.7826 103.964 60.0563C103.964 59.031 104.369 58.0556 105.181 57.1299C105.993 56.19 107.125 55.4709 108.577 54.9725C110.03 54.4741 111.539 54.2249 113.106 54.2249C115 54.2249 116.495 54.6307 117.592 55.4424C118.702 56.2399 119.422 57.1086 119.749 58.0484C119.949 58.6465 120.048 60.0207 120.048 62.1711V69.925C120.048 70.8364 120.084 71.4131 120.155 71.6552C120.226 71.8831 120.333 72.054 120.475 72.1679C120.618 72.2818 120.782 72.3388 120.967 72.3388C121.337 72.3388 121.714 72.0753 122.099 71.5484L122.74 72.0611C122.028 73.1149 121.287 73.8839 120.518 74.3681C119.763 74.838 118.902 75.073 117.933 75.073C116.794 75.073 115.904 74.8095 115.263 74.2826C114.623 73.7415 114.231 72.9298 114.089 71.8475ZM114.089 70.2881V63.6022C112.365 64.6133 111.084 65.6956 110.244 66.8491C109.688 67.6181 109.411 68.3942 109.411 69.1774C109.411 69.8325 109.645 70.4092 110.115 70.9076C110.471 71.2921 110.97 71.4844 111.611 71.4844C112.323 71.4844 113.149 71.0856 114.089 70.2881Z" fill="url(#paint19_linear_410_6346)"/>
<path d="M51.8561 78.8894L52.0911 88.5445H51.2153C50.8023 86.1236 49.7841 84.1798 48.1607 82.713C46.5515 81.232 44.807 80.4915 42.9273 80.4915C41.4748 80.4915 40.3213 80.8831 39.4669 81.6663C38.6267 82.4353 38.2066 83.3253 38.2066 84.3364C38.2066 84.9772 38.3561 85.5469 38.6551 86.0453C39.0681 86.7146 39.7303 87.3768 40.6417 88.0318C41.311 88.5018 42.8561 89.3348 45.277 90.531C48.6662 92.1972 50.9518 93.7707 52.1338 95.2518C53.3015 96.7328 53.8854 98.4274 53.8854 100.336C53.8854 102.757 52.9384 104.843 51.0444 106.594C49.1646 108.332 46.7722 109.2 43.8672 109.2C42.9558 109.2 42.0942 109.108 41.2825 108.923C40.4708 108.738 39.4526 108.389 38.2279 107.876C37.5444 107.591 36.9819 107.449 36.5404 107.449C36.1702 107.449 35.7786 107.591 35.3656 107.876C34.9526 108.161 34.618 108.595 34.3616 109.179H33.5713V98.2423H34.3616C34.9882 101.318 36.1915 103.668 37.9716 105.291C39.7659 106.9 41.6955 107.705 43.7604 107.705C45.3553 107.705 46.6227 107.271 47.5626 106.402C48.5167 105.533 48.9938 104.522 48.9938 103.369C48.9938 102.685 48.8086 102.023 48.4384 101.382C48.0824 100.741 47.5341 100.136 46.7936 99.5666C46.0531 98.9828 44.743 98.228 42.8632 97.3024C40.2287 96.0065 38.3347 94.9029 37.1813 93.9915C36.0278 93.0801 35.1377 92.0619 34.5112 90.9369C33.8988 89.8119 33.5926 88.573 33.5926 87.2201C33.5926 84.9132 34.44 82.948 36.1346 81.3245C37.8292 79.7011 39.9653 78.8894 42.5428 78.8894C43.4827 78.8894 44.3941 79.0033 45.277 79.2312C45.9463 79.4021 46.758 79.7225 47.7121 80.1924C48.6805 80.6481 49.3569 80.876 49.7414 80.876C50.1116 80.876 50.4036 80.762 50.6172 80.5342C50.8308 80.3063 51.0301 79.7581 51.2153 78.8894H51.8561Z" fill="url(#paint20_linear_410_6346)"/>
<path d="M71.2431 103.369L71.9053 103.882C70.9654 105.647 69.7906 106.965 68.3808 107.833C66.9852 108.688 65.4971 109.115 63.9164 109.115C61.2534 109.115 59.1245 108.111 57.5295 106.103C55.9346 104.095 55.1371 101.681 55.1371 98.8617C55.1371 96.1418 55.8634 93.7494 57.3159 91.6845C59.0675 89.1924 61.4813 87.9464 64.5572 87.9464C66.6221 87.9464 68.2597 88.4662 69.4702 89.5057C70.6949 90.5453 71.3072 91.7059 71.3072 92.9875C71.3072 93.7992 71.058 94.4472 70.5596 94.9313C70.0754 95.4155 69.4346 95.6576 68.6371 95.6576C67.7969 95.6576 67.0991 95.3799 66.5438 94.8245C66.0026 94.2692 65.668 93.2794 65.5398 91.8554C65.4544 90.9582 65.2479 90.3317 64.9203 89.9757C64.5928 89.6196 64.2083 89.4416 63.7669 89.4416C63.0833 89.4416 62.4995 89.8048 62.0153 90.531C61.2748 91.6275 60.9045 93.3079 60.9045 95.5722C60.9045 97.4519 61.2036 99.2533 61.8017 100.976C62.3998 102.685 63.2186 103.96 64.2582 104.8C65.0414 105.412 65.967 105.719 67.035 105.719C67.7328 105.719 68.395 105.555 69.0216 105.227C69.6482 104.9 70.3887 104.28 71.2431 103.369Z" fill="url(#paint21_linear_410_6346)"/>
<path d="M80.4838 88.5445V93.073C81.8082 91.0081 82.9688 89.641 83.9656 88.9717C84.9624 88.2882 85.9237 87.9464 86.8493 87.9464C87.6468 87.9464 88.2805 88.1956 88.7504 88.694C89.2346 89.1782 89.4767 89.8688 89.4767 90.766C89.4767 91.7201 89.2417 92.4606 88.7718 92.9875C88.3161 93.5144 87.7607 93.7779 87.1056 93.7779C86.3509 93.7779 85.6958 93.5358 85.1404 93.0516C84.5851 92.5674 84.2575 92.2969 84.1578 92.2399C84.0154 92.1544 83.8517 92.1117 83.6665 92.1117C83.2536 92.1117 82.8619 92.2684 82.4917 92.5817C81.9078 93.0658 81.4664 93.7565 81.1673 94.6537C80.7116 96.035 80.4838 97.5587 80.4838 99.2249V103.817L80.5051 105.014C80.5051 105.825 80.555 106.345 80.6547 106.573C80.8256 106.957 81.0748 107.242 81.4023 107.427C81.7441 107.598 82.3137 107.705 83.1112 107.748V108.517H72.324V107.748C73.1926 107.677 73.7765 107.442 74.0756 107.043C74.3889 106.63 74.5455 105.555 74.5455 103.817V92.7739C74.5455 91.6347 74.4885 90.9084 74.3746 90.5951C74.2322 90.1964 74.0257 89.9044 73.7551 89.7193C73.4846 89.5342 73.0075 89.406 72.324 89.3348V88.5445H80.4838Z" fill="url(#paint22_linear_410_6346)"/>
<path d="M94.2529 78.8681C95.1786 78.8681 95.9618 79.1956 96.6026 79.8507C97.2434 80.4915 97.5639 81.2676 97.5639 82.179C97.5639 83.0904 97.2363 83.8665 96.5813 84.5073C95.9404 85.1481 95.1643 85.4685 94.2529 85.4685C93.3415 85.4685 92.5654 85.1481 91.9246 84.5073C91.2838 83.8665 90.9634 83.0904 90.9634 82.179C90.9634 81.2676 91.2838 80.4915 91.9246 79.8507C92.5654 79.1956 93.3415 78.8681 94.2529 78.8681ZM97.2434 88.5445V104.373C97.2434 105.783 97.4072 106.687 97.7347 107.086C98.0623 107.47 98.7031 107.691 99.6572 107.748V108.517H88.87V107.748C89.7529 107.719 90.408 107.463 90.8352 106.979C91.12 106.651 91.2624 105.783 91.2624 104.373V92.7098C91.2624 91.3 91.0987 90.4029 90.7711 90.0184C90.4436 89.6196 89.8099 89.3918 88.87 89.3348V88.5445H97.2434Z" fill="url(#paint23_linear_410_6346)"/>
<path d="M107.168 106.488V113.921C107.168 114.946 107.246 115.644 107.403 116.014C107.574 116.385 107.83 116.655 108.172 116.826C108.513 116.997 109.183 117.082 110.18 117.082V117.873H98.7942V117.082C99.6771 117.054 100.332 116.805 100.759 116.335C101.044 116.007 101.187 115.16 101.187 113.793V92.7098C101.187 91.3 101.023 90.4029 100.695 90.0184C100.368 89.6196 99.7341 89.3918 98.7942 89.3348V88.5445H107.168V91.1719C107.865 90.1465 108.577 89.406 109.304 88.9503C110.343 88.281 111.475 87.9464 112.7 87.9464C114.167 87.9464 115.498 88.4092 116.695 89.3348C117.905 90.2605 118.824 91.5421 119.45 93.1798C120.077 94.8032 120.39 96.5548 120.39 98.4345C120.39 100.457 120.062 102.308 119.407 103.988C118.767 105.654 117.827 106.929 116.588 107.812C115.363 108.681 113.996 109.115 112.486 109.115C111.39 109.115 110.365 108.873 109.411 108.389C108.699 108.018 107.951 107.385 107.168 106.488ZM107.168 104.33C108.392 106.067 109.702 106.936 111.098 106.936C111.867 106.936 112.501 106.53 112.999 105.719C113.74 104.522 114.11 102.244 114.11 98.8831C114.11 95.4369 113.704 93.0801 112.892 91.8127C112.351 90.9725 111.625 90.5524 110.714 90.5524C109.275 90.5524 108.093 91.5919 107.168 93.6711V104.33Z" fill="url(#paint24_linear_410_6346)"/>
<path d="M129.524 81.2391V88.5445H134.266V90.6592H129.524V102.984C129.524 104.138 129.574 104.885 129.673 105.227C129.787 105.555 129.98 105.825 130.25 106.039C130.521 106.238 130.77 106.338 130.998 106.338C131.923 106.338 132.799 105.633 133.625 104.223L134.266 104.693C133.112 107.427 131.24 108.794 128.648 108.794C127.381 108.794 126.305 108.446 125.423 107.748C124.554 107.036 123.998 106.245 123.756 105.377C123.614 104.893 123.543 103.582 123.543 101.446V90.6592H120.937V89.9116C122.731 88.6442 124.255 87.3127 125.508 85.9171C126.775 84.5215 127.879 82.9622 128.819 81.2391H129.524Z" fill="url(#paint25_linear_410_6346)"/>
<circle cx="83" cy="83" r="77.5" stroke="url(#paint26_linear_410_6346)" stroke-width="11"/>
<defs>
<linearGradient id="paint0_linear_410_6346" x1="78.0361" y1="-0.390625" x2="76.5196" y2="60.0651" gradientUnits="userSpaceOnUse">
<stop stop-color="#DECE98"/>
<stop offset="0.215625" stop-color="#D3BA65"/>
<stop offset="0.913541" stop-color="#9D894D"/>
</linearGradient>
<linearGradient id="paint1_linear_410_6346" x1="78.2896" y1="-0.390625" x2="76.9897" y2="51.4285" gradientUnits="userSpaceOnUse">
<stop stop-color="#DECE98"/>
<stop offset="0.215625" stop-color="#D3BA65"/>
<stop offset="0.913541" stop-color="#9D894D"/>
</linearGradient>
<linearGradient id="paint2_linear_410_6346" x1="78.5431" y1="-0.390625" x2="77.4598" y2="42.792" gradientUnits="userSpaceOnUse">
<stop stop-color="#DECE98"/>
<stop offset="0.215625" stop-color="#D3BA65"/>
<stop offset="0.913541" stop-color="#9D894D"/>
</linearGradient>
<linearGradient id="paint3_linear_410_6346" x1="78.7956" y1="-0.390625" x2="77.929" y2="34.1555" gradientUnits="userSpaceOnUse">
<stop stop-color="#DECE98"/>
<stop offset="0.215625" stop-color="#D3BA65"/>
<stop offset="0.913541" stop-color="#9D894D"/>
</linearGradient>
<linearGradient id="paint4_linear_410_6346" x1="78.0361" y1="160.923" x2="76.5196" y2="221.379" gradientUnits="userSpaceOnUse">
<stop stop-color="#DECE98"/>
<stop offset="0.215625" stop-color="#D3BA65"/>
<stop offset="0.913541" stop-color="#9D894D"/>
</linearGradient>
<linearGradient id="paint5_linear_410_6346" x1="78.2896" y1="160.923" x2="76.9897" y2="212.742" gradientUnits="userSpaceOnUse">
<stop stop-color="#DECE98"/>
<stop offset="0.215625" stop-color="#D3BA65"/>
<stop offset="0.913541" stop-color="#9D894D"/>
</linearGradient>
<linearGradient id="paint6_linear_410_6346" x1="78.5431" y1="160.923" x2="77.4598" y2="204.105" gradientUnits="userSpaceOnUse">
<stop stop-color="#DECE98"/>
<stop offset="0.215625" stop-color="#D3BA65"/>
<stop offset="0.913541" stop-color="#9D894D"/>
</linearGradient>
<linearGradient id="paint7_linear_410_6346" x1="78.7956" y1="160.923" x2="77.929" y2="195.469" gradientUnits="userSpaceOnUse">
<stop stop-color="#DECE98"/>
<stop offset="0.215625" stop-color="#D3BA65"/>
<stop offset="0.913541" stop-color="#9D894D"/>
</linearGradient>
<linearGradient id="paint8_linear_410_6346" x1="-15.8389" y1="74.3408" x2="-17.3554" y2="134.797" gradientUnits="userSpaceOnUse">
<stop stop-color="#DECE98"/>
<stop offset="0.215625" stop-color="#D3BA65"/>
<stop offset="0.913541" stop-color="#9D894D"/>
</linearGradient>
<linearGradient id="paint9_linear_410_6346" x1="-15.5854" y1="74.3408" x2="-16.8853" y2="126.16" gradientUnits="userSpaceOnUse">
<stop stop-color="#DECE98"/>
<stop offset="0.215625" stop-color="#D3BA65"/>
<stop offset="0.913541" stop-color="#9D894D"/>
</linearGradient>
<linearGradient id="paint10_linear_410_6346" x1="-15.3319" y1="74.3408" x2="-16.4152" y2="117.523" gradientUnits="userSpaceOnUse">
<stop stop-color="#DECE98"/>
<stop offset="0.215625" stop-color="#D3BA65"/>
<stop offset="0.913541" stop-color="#9D894D"/>
</linearGradient>
<linearGradient id="paint11_linear_410_6346" x1="-15.0794" y1="74.3408" x2="-15.946" y2="108.887" gradientUnits="userSpaceOnUse">
<stop stop-color="#DECE98"/>
<stop offset="0.215625" stop-color="#D3BA65"/>
<stop offset="0.913541" stop-color="#9D894D"/>
</linearGradient>
<linearGradient id="paint12_linear_410_6346" x1="178.29" y1="74.3408" x2="176.773" y2="134.797" gradientUnits="userSpaceOnUse">
<stop stop-color="#DECE98"/>
<stop offset="0.215625" stop-color="#D3BA65"/>
<stop offset="0.913541" stop-color="#9D894D"/>
</linearGradient>
<linearGradient id="paint13_linear_410_6346" x1="178.543" y1="74.3408" x2="177.244" y2="126.16" gradientUnits="userSpaceOnUse">
<stop stop-color="#DECE98"/>
<stop offset="0.215625" stop-color="#D3BA65"/>
<stop offset="0.913541" stop-color="#9D894D"/>
</linearGradient>
<linearGradient id="paint14_linear_410_6346" x1="178.797" y1="74.3408" x2="177.714" y2="117.523" gradientUnits="userSpaceOnUse">
<stop stop-color="#DECE98"/>
<stop offset="0.215625" stop-color="#D3BA65"/>
<stop offset="0.913541" stop-color="#9D894D"/>
</linearGradient>
<linearGradient id="paint15_linear_410_6346" x1="179.05" y1="74.3408" x2="178.183" y2="108.887" gradientUnits="userSpaceOnUse">
<stop stop-color="#DECE98"/>
<stop offset="0.215625" stop-color="#D3BA65"/>
<stop offset="0.913541" stop-color="#9D894D"/>
</linearGradient>
<linearGradient id="paint16_linear_410_6346" x1="101.976" y1="45.8301" x2="100.75" y2="114.12" gradientUnits="userSpaceOnUse">
<stop stop-color="#DECE98"/>
<stop offset="0.215625" stop-color="#D3BA65"/>
<stop offset="0.913541" stop-color="#9D894D"/>
</linearGradient>
<linearGradient id="paint17_linear_410_6346" x1="101.976" y1="45.8301" x2="100.75" y2="114.12" gradientUnits="userSpaceOnUse">
<stop stop-color="#DECE98"/>
<stop offset="0.215625" stop-color="#D3BA65"/>
<stop offset="0.913541" stop-color="#9D894D"/>
</linearGradient>
<linearGradient id="paint18_linear_410_6346" x1="101.976" y1="45.8301" x2="100.75" y2="114.12" gradientUnits="userSpaceOnUse">
<stop stop-color="#DECE98"/>
<stop offset="0.215625" stop-color="#D3BA65"/>
<stop offset="0.913541" stop-color="#9D894D"/>
</linearGradient>
<linearGradient id="paint19_linear_410_6346" x1="101.976" y1="45.8301" x2="100.75" y2="114.12" gradientUnits="userSpaceOnUse">
<stop stop-color="#DECE98"/>
<stop offset="0.215625" stop-color="#D3BA65"/>
<stop offset="0.913541" stop-color="#9D894D"/>
</linearGradient>
<linearGradient id="paint20_linear_410_6346" x1="101.976" y1="45.8301" x2="100.75" y2="114.12" gradientUnits="userSpaceOnUse">
<stop stop-color="#DECE98"/>
<stop offset="0.215625" stop-color="#D3BA65"/>
<stop offset="0.913541" stop-color="#9D894D"/>
</linearGradient>
<linearGradient id="paint21_linear_410_6346" x1="101.976" y1="45.8301" x2="100.75" y2="114.12" gradientUnits="userSpaceOnUse">
<stop stop-color="#DECE98"/>
<stop offset="0.215625" stop-color="#D3BA65"/>
<stop offset="0.913541" stop-color="#9D894D"/>
</linearGradient>
<linearGradient id="paint22_linear_410_6346" x1="101.976" y1="45.8301" x2="100.75" y2="114.12" gradientUnits="userSpaceOnUse">
<stop stop-color="#DECE98"/>
<stop offset="0.215625" stop-color="#D3BA65"/>
<stop offset="0.913541" stop-color="#9D894D"/>
</linearGradient>
<linearGradient id="paint23_linear_410_6346" x1="101.976" y1="45.8301" x2="100.75" y2="114.12" gradientUnits="userSpaceOnUse">
<stop stop-color="#DECE98"/>
<stop offset="0.215625" stop-color="#D3BA65"/>
<stop offset="0.913541" stop-color="#9D894D"/>
</linearGradient>
<linearGradient id="paint24_linear_410_6346" x1="101.976" y1="45.8301" x2="100.75" y2="114.12" gradientUnits="userSpaceOnUse">
<stop stop-color="#DECE98"/>
<stop offset="0.215625" stop-color="#D3BA65"/>
<stop offset="0.913541" stop-color="#9D894D"/>
</linearGradient>
<linearGradient id="paint25_linear_410_6346" x1="101.976" y1="45.8301" x2="100.75" y2="114.12" gradientUnits="userSpaceOnUse">
<stop stop-color="#DECE98"/>
<stop offset="0.215625" stop-color="#D3BA65"/>
<stop offset="0.913541" stop-color="#9D894D"/>
</linearGradient>
<linearGradient id="paint26_linear_410_6346" x1="108.823" y1="11" x2="105.4" y2="147.457" gradientUnits="userSpaceOnUse">
<stop stop-color="#DECE98"/>
<stop offset="0.215625" stop-color="#D3BA65"/>
<stop offset="0.913541" stop-color="#9D894D"/>
</linearGradient>
</defs>
</svg>
