<svg width="211" height="223" viewBox="0 0 211 223" fill="none" xmlns="http://www.w3.org/2000/svg">
<path d="M27.9359 110.727V117.832C27.9359 119.218 28.0178 120.093 28.1816 120.458C28.3579 120.811 28.6603 121.095 29.0886 121.309C29.5295 121.523 30.3295 121.63 31.4884 121.63V122.329H18.4689V121.63C19.6531 121.63 20.453 121.523 20.8688 121.309C21.2971 121.082 21.5931 120.792 21.7569 120.439C21.9332 120.087 22.0214 119.218 22.0214 117.832V101.203C22.0214 99.8174 21.9332 98.9482 21.7569 98.5955C21.5931 98.2301 21.2971 97.9404 20.8688 97.7262C20.4404 97.5121 19.6405 97.405 18.4689 97.405V96.7058H29.6366C33.3151 96.7058 35.9542 97.3609 37.5541 98.671C39.154 99.9812 39.9539 101.619 39.9539 103.584C39.9539 105.247 39.4374 106.67 38.4044 107.855C37.3714 109.039 35.9479 109.845 34.1339 110.273C32.9119 110.576 30.846 110.727 27.9359 110.727ZM27.9359 98.1797V109.253C28.3517 109.278 28.6666 109.291 28.8807 109.291C30.4176 109.291 31.6018 108.837 32.4332 107.93C33.2647 107.011 33.6804 105.593 33.6804 103.679C33.6804 101.776 33.2647 100.384 32.4332 99.5025C31.6018 98.6207 30.3609 98.1797 28.7107 98.1797H27.9359ZM49.6666 96.7058V106.929C50.6366 105.908 51.5247 105.19 52.3309 104.775C53.1372 104.346 53.9749 104.132 54.8441 104.132C55.9527 104.132 56.8975 104.447 57.6786 105.077C58.4722 105.707 58.995 106.45 59.247 107.307C59.5115 108.151 59.6438 109.58 59.6438 111.596V118.493C59.6438 119.841 59.7698 120.685 60.0217 121.025C60.2737 121.353 60.7839 121.561 61.5523 121.649V122.329H52.5955V121.649C53.2254 121.561 53.6978 121.309 54.0127 120.893C54.2395 120.565 54.3528 119.766 54.3528 118.493V110.613C54.3528 109.152 54.2962 108.239 54.1828 107.873C54.0694 107.496 53.8741 107.206 53.597 107.004C53.3324 106.79 53.0301 106.683 52.69 106.683C52.1861 106.683 51.6948 106.859 51.2161 107.212C50.7374 107.552 50.2209 108.157 49.6666 109.026V118.493C49.6666 119.753 49.7611 120.54 49.95 120.855C50.1894 121.284 50.6807 121.548 51.4239 121.649V122.329H42.4671V121.649C43.2104 121.573 43.7395 121.334 44.0544 120.931C44.2686 120.654 44.3756 119.841 44.3756 118.493V100.542C44.3756 99.2064 44.2497 98.375 43.9977 98.0475C43.7584 97.7199 43.2482 97.5058 42.4671 97.405V96.7058H49.6666ZM72.3231 104.132C73.86 104.132 75.2898 104.529 76.6126 105.323C77.9353 106.116 78.9368 107.244 79.6171 108.705C80.3099 110.166 80.6564 111.766 80.6564 113.505C80.6564 116.011 80.0202 118.109 78.7479 119.797C77.211 121.838 75.0883 122.858 72.3798 122.858C69.7218 122.858 67.6747 121.926 66.2386 120.062C64.8024 118.197 64.0844 116.037 64.0844 113.58C64.0844 111.048 64.815 108.844 66.2763 106.966C67.7503 105.077 69.7659 104.132 72.3231 104.132ZM72.3987 105.474C71.7563 105.474 71.202 105.719 70.7359 106.211C70.2823 106.689 69.98 107.647 69.8288 109.083C69.6903 110.506 69.621 112.49 69.621 115.035C69.621 116.383 69.7092 117.643 69.8855 118.814C70.0241 119.709 70.3201 120.389 70.7736 120.855C71.2272 121.321 71.7437 121.554 72.3231 121.554C72.89 121.554 73.3624 121.397 73.7404 121.082C74.2317 120.654 74.5592 120.055 74.723 119.287C74.9749 118.09 75.1009 115.671 75.1009 112.031C75.1009 109.889 74.9812 108.421 74.7419 107.628C74.5025 106.822 74.1498 106.236 73.6837 105.871C73.3561 105.606 72.9278 105.474 72.3987 105.474ZM90.3501 98.1986V104.661H94.5451V106.532H90.3501V117.435C90.3501 118.455 90.3942 119.117 90.4824 119.419C90.5832 119.709 90.7532 119.948 90.9926 120.137C91.2319 120.314 91.4524 120.402 91.654 120.402C92.4728 120.402 93.2475 119.778 93.9782 118.531L94.5451 118.947C93.5247 121.365 91.8681 122.575 89.5754 122.575C88.4542 122.575 87.5031 122.266 86.7221 121.649C85.9536 121.019 85.4623 120.32 85.2481 119.551C85.1222 119.123 85.0592 117.964 85.0592 116.074V106.532H82.7538V105.871C84.3411 104.749 85.6891 103.571 86.7976 102.337C87.9188 101.102 88.8951 99.7229 89.7265 98.1986H90.3501ZM104.56 104.132C106.097 104.132 107.527 104.529 108.85 105.323C110.172 106.116 111.174 107.244 111.854 108.705C112.547 110.166 112.893 111.766 112.893 113.505C112.893 116.011 112.257 118.109 110.985 119.797C109.448 121.838 107.325 122.858 104.617 122.858C101.959 122.858 99.9116 121.926 98.4755 120.062C97.0394 118.197 96.3213 116.037 96.3213 113.58C96.3213 111.048 97.052 108.844 98.5133 106.966C99.9872 105.077 102.003 104.132 104.56 104.132ZM104.636 105.474C103.993 105.474 103.439 105.719 102.973 106.211C102.519 106.689 102.217 107.647 102.066 109.083C101.927 110.506 101.858 112.49 101.858 115.035C101.858 116.383 101.946 117.643 102.122 118.814C102.261 119.709 102.557 120.389 103.011 120.855C103.464 121.321 103.981 121.554 104.56 121.554C105.127 121.554 105.599 121.397 105.977 121.082C106.469 120.654 106.796 120.055 106.96 119.287C107.212 118.09 107.338 115.671 107.338 112.031C107.338 109.889 107.218 108.421 106.979 107.628C106.739 106.822 106.387 106.236 105.921 105.871C105.593 105.606 105.165 105.474 104.636 105.474ZM126.744 104.17L127.028 110.198H126.385C125.617 108.409 124.817 107.187 123.985 106.532C123.167 105.877 122.348 105.549 121.529 105.549C121.012 105.549 120.571 105.726 120.206 106.078C119.841 106.418 119.658 106.815 119.658 107.269C119.658 107.609 119.784 107.936 120.036 108.251C120.439 108.768 121.567 109.656 123.418 110.916C125.27 112.163 126.486 113.227 127.065 114.109C127.658 114.978 127.954 115.955 127.954 117.038C127.954 118.021 127.708 118.984 127.217 119.929C126.725 120.874 126.032 121.598 125.138 122.102C124.244 122.606 123.255 122.858 122.171 122.858C121.327 122.858 120.2 122.594 118.789 122.065C118.411 121.926 118.153 121.857 118.014 121.857C117.598 121.857 117.252 122.172 116.975 122.802H116.351L116.049 116.452H116.691C117.258 118.115 118.033 119.362 119.016 120.194C120.011 121.025 120.949 121.441 121.831 121.441C122.436 121.441 122.927 121.258 123.305 120.893C123.696 120.515 123.891 120.062 123.891 119.532C123.891 118.928 123.702 118.405 123.324 117.964C122.946 117.523 122.102 116.855 120.792 115.961C118.865 114.626 117.617 113.605 117.05 112.9C116.219 111.867 115.803 110.727 115.803 109.48C115.803 108.119 116.269 106.891 117.202 105.795C118.146 104.686 119.507 104.132 121.283 104.132C122.241 104.132 123.167 104.365 124.061 104.831C124.401 105.02 124.678 105.115 124.892 105.115C125.119 105.115 125.302 105.071 125.44 104.982C125.579 104.882 125.799 104.611 126.102 104.17H126.744ZM137.874 96.7058V106.929C138.844 105.908 139.732 105.19 140.538 104.775C141.345 104.346 142.182 104.132 143.052 104.132C144.16 104.132 145.105 104.447 145.886 105.077C146.68 105.707 147.203 106.45 147.454 107.307C147.719 108.151 147.851 109.58 147.851 111.596V118.493C147.851 119.841 147.977 120.685 148.229 121.025C148.481 121.353 148.991 121.561 149.76 121.649V122.329H140.803V121.649C141.433 121.561 141.905 121.309 142.22 120.893C142.447 120.565 142.56 119.766 142.56 118.493V110.613C142.56 109.152 142.504 108.239 142.39 107.873C142.277 107.496 142.082 107.206 141.805 107.004C141.54 106.79 141.238 106.683 140.897 106.683C140.394 106.683 139.902 106.859 139.424 107.212C138.945 107.552 138.428 108.157 137.874 109.026V118.493C137.874 119.753 137.969 120.54 138.158 120.855C138.397 121.284 138.888 121.548 139.631 121.649V122.329H130.675V121.649C131.418 121.573 131.947 121.334 132.262 120.931C132.476 120.654 132.583 119.841 132.583 118.493V100.542C132.583 99.2064 132.457 98.375 132.205 98.0475C131.966 97.7199 131.456 97.5058 130.675 97.405V96.7058H137.874ZM160.531 104.132C162.068 104.132 163.497 104.529 164.82 105.323C166.143 106.116 167.144 107.244 167.825 108.705C168.517 110.166 168.864 111.766 168.864 113.505C168.864 116.011 168.228 118.109 166.955 119.797C165.418 121.838 163.296 122.858 160.587 122.858C157.929 122.858 155.882 121.926 154.446 120.062C153.01 118.197 152.292 116.037 152.292 113.58C152.292 111.048 153.023 108.844 154.484 106.966C155.958 105.077 157.973 104.132 160.531 104.132ZM160.606 105.474C159.964 105.474 159.409 105.719 158.943 106.211C158.49 106.689 158.188 107.647 158.036 109.083C157.898 110.506 157.828 112.49 157.828 115.035C157.828 116.383 157.917 117.643 158.093 118.814C158.232 119.709 158.528 120.389 158.981 120.855C159.435 121.321 159.951 121.554 160.531 121.554C161.098 121.554 161.57 121.397 161.948 121.082C162.439 120.654 162.767 120.055 162.93 119.287C163.182 118.09 163.308 115.671 163.308 112.031C163.308 109.889 163.189 108.421 162.949 107.628C162.71 106.822 162.357 106.236 161.891 105.871C161.564 105.606 161.135 105.474 160.606 105.474ZM178.388 120.534V127.11C178.388 128.017 178.457 128.634 178.595 128.962C178.747 129.289 178.973 129.529 179.276 129.68C179.578 129.831 180.17 129.906 181.052 129.906V130.606H170.98V129.906C171.761 129.881 172.341 129.661 172.719 129.245C172.971 128.955 173.097 128.206 173.097 126.996V108.346C173.097 107.099 172.952 106.305 172.662 105.965C172.372 105.612 171.812 105.411 170.98 105.36V104.661H178.388V106.985C179.005 106.078 179.635 105.423 180.277 105.02C181.197 104.428 182.198 104.132 183.282 104.132C184.579 104.132 185.757 104.541 186.815 105.36C187.886 106.179 188.699 107.313 189.253 108.762C189.807 110.198 190.084 111.747 190.084 113.41C190.084 115.199 189.795 116.837 189.215 118.323C188.648 119.797 187.817 120.924 186.721 121.706C185.637 122.474 184.428 122.858 183.093 122.858C182.123 122.858 181.216 122.644 180.372 122.216C179.742 121.888 179.08 121.328 178.388 120.534ZM178.388 118.625C179.471 120.162 180.63 120.931 181.864 120.931C182.545 120.931 183.105 120.572 183.546 119.854C184.201 118.796 184.529 116.78 184.529 113.807C184.529 110.758 184.17 108.673 183.452 107.552C182.973 106.809 182.331 106.437 181.524 106.437C180.252 106.437 179.206 107.357 178.388 109.196V118.625Z" fill="url(#paint0_linear_414_1744)"/>
<path d="M69.0854 32.9785L105.635 93.1777" stroke="url(#paint1_linear_414_1744)" stroke-width="2.14997"/>
<path d="M105.635 93.1787L144.334 32.9796" stroke="url(#paint2_linear_414_1744)" stroke-width="2.14997"/>
<circle cx="69.0852" cy="32.9798" r="8.59988" fill="url(#paint3_linear_414_1744)"/>
<circle cx="142.185" cy="35.1292" r="8.59988" fill="url(#paint4_linear_414_1744)"/>
<path d="M105.635 27.6035V93.1776" stroke="url(#paint5_linear_414_1744)" stroke-width="2.14997"/>
<path fill-rule="evenodd" clip-rule="evenodd" d="M8.43785 110.377C8.43785 56.6968 51.9546 13.18 105.635 13.18C159.316 13.18 202.832 56.6968 202.832 110.377C202.832 158.963 167.184 199.223 120.616 206.427C120.318 209.544 119.069 212.382 117.164 214.651C169.674 208.911 210.535 164.416 210.535 110.377C210.535 52.4428 163.57 5.47754 105.635 5.47754C47.7006 5.47754 0.735352 52.4428 0.735352 110.377C0.735352 164.416 41.596 208.911 94.1063 214.651C92.2008 212.382 90.9524 209.544 90.6543 206.427C44.0865 199.223 8.43785 158.963 8.43785 110.377Z" fill="url(#paint6_linear_414_1744)"/>
<circle cx="105.635" cy="204.977" r="8.59988" fill="url(#paint7_linear_414_1744)"/>
<path fill-rule="evenodd" clip-rule="evenodd" d="M105.624 24.1182L106.265 24.5828L168.615 69.7322L169.346 70.2619L168.95 71.0738L158.177 93.1785H155.785L166.622 70.9438L105.646 26.7888L46.7814 70.9374L57.2478 93.1785H54.8716L44.4632 71.0606L44.0903 70.2683L44.7909 69.7429L104.99 24.5935L105.624 24.1182ZM135.875 134.028H138.267L112.506 186.882C111.833 186.626 111.141 186.407 110.434 186.226L135.875 134.028ZM101.014 186.182L76.471 134.028H74.0949L98.9368 186.817C99.6123 186.568 100.305 186.355 101.014 186.182Z" fill="url(#paint8_linear_414_1744)"/>
<circle cx="105.635" cy="204.976" r="16.1248" stroke="url(#paint9_linear_414_1744)" stroke-width="2.14997"/>
<circle cx="105.635" cy="17.9292" r="16.1248" stroke="url(#paint10_linear_414_1744)" stroke-width="2.14997"/>
<circle cx="43.2859" cy="71.678" r="8.59988" fill="url(#paint11_linear_414_1744)"/>
<circle cx="167.984" cy="71.678" r="8.59988" fill="url(#paint12_linear_414_1744)"/>
<circle cx="105.635" cy="17.929" r="8.59988" fill="url(#paint13_linear_414_1744)"/>
<defs>
<linearGradient id="paint0_linear_414_1744" x1="137.25" y1="52.3291" x2="135.499" y2="160.348" gradientUnits="userSpaceOnUse">
<stop stop-color="#DECE98"/>
<stop offset="0.215625" stop-color="#D3BA65"/>
<stop offset="0.913541" stop-color="#9D894D"/>
</linearGradient>
<linearGradient id="paint1_linear_414_1744" x1="93.9145" y1="32.9785" x2="91.5601" y2="89.963" gradientUnits="userSpaceOnUse">
<stop stop-color="#DECE98"/>
<stop offset="0.215625" stop-color="#D3BA65"/>
<stop offset="0.913541" stop-color="#9D894D"/>
</linearGradient>
<linearGradient id="paint2_linear_414_1744" x1="131.924" y1="93.1787" x2="129.7" y2="36.1838" gradientUnits="userSpaceOnUse">
<stop stop-color="#DECE98"/>
<stop offset="0.215625" stop-color="#D3BA65"/>
<stop offset="0.913541" stop-color="#9D894D"/>
</linearGradient>
<linearGradient id="paint3_linear_414_1744" x1="72.1696" y1="24.3799" x2="71.7607" y2="40.6787" gradientUnits="userSpaceOnUse">
<stop stop-color="#DECE98"/>
<stop offset="0.215625" stop-color="#D3BA65"/>
<stop offset="0.913541" stop-color="#9D894D"/>
</linearGradient>
<linearGradient id="paint4_linear_414_1744" x1="145.269" y1="26.5293" x2="144.86" y2="42.8281" gradientUnits="userSpaceOnUse">
<stop stop-color="#DECE98"/>
<stop offset="0.215625" stop-color="#D3BA65"/>
<stop offset="0.913541" stop-color="#9D894D"/>
</linearGradient>
<linearGradient id="paint5_linear_414_1744" x1="106.314" y1="27.6035" x2="78.7144" y2="44.3821" gradientUnits="userSpaceOnUse">
<stop stop-color="#DECE98"/>
<stop offset="0.215625" stop-color="#D3BA65"/>
<stop offset="0.913541" stop-color="#9D894D"/>
</linearGradient>
<linearGradient id="paint6_linear_414_1744" x1="143.258" y1="5.47754" x2="138.3" y2="203.695" gradientUnits="userSpaceOnUse">
<stop stop-color="#DECE98"/>
<stop offset="0.215625" stop-color="#D3BA65"/>
<stop offset="0.913541" stop-color="#9D894D"/>
</linearGradient>
<linearGradient id="paint7_linear_414_1744" x1="108.719" y1="196.377" x2="108.31" y2="212.676" gradientUnits="userSpaceOnUse">
<stop stop-color="#DECE98"/>
<stop offset="0.215625" stop-color="#D3BA65"/>
<stop offset="0.913541" stop-color="#9D894D"/>
</linearGradient>
<linearGradient id="paint8_linear_414_1744" x1="129.18" y1="24.1182" x2="124.154" y2="178.289" gradientUnits="userSpaceOnUse">
<stop stop-color="#DECE98"/>
<stop offset="0.215625" stop-color="#D3BA65"/>
<stop offset="0.913541" stop-color="#9D894D"/>
</linearGradient>
<linearGradient id="paint9_linear_414_1744" x1="111.804" y1="187.776" x2="110.986" y2="220.374" gradientUnits="userSpaceOnUse">
<stop stop-color="#DECE98"/>
<stop offset="0.215625" stop-color="#D3BA65"/>
<stop offset="0.913541" stop-color="#9D894D"/>
</linearGradient>
<linearGradient id="paint10_linear_414_1744" x1="111.804" y1="0.729492" x2="110.986" y2="33.3271" gradientUnits="userSpaceOnUse">
<stop stop-color="#DECE98"/>
<stop offset="0.215625" stop-color="#D3BA65"/>
<stop offset="0.913541" stop-color="#9D894D"/>
</linearGradient>
<linearGradient id="paint11_linear_414_1744" x1="46.3703" y1="63.0781" x2="45.9614" y2="79.3769" gradientUnits="userSpaceOnUse">
<stop stop-color="#DECE98"/>
<stop offset="0.215625" stop-color="#D3BA65"/>
<stop offset="0.913541" stop-color="#9D894D"/>
</linearGradient>
<linearGradient id="paint12_linear_414_1744" x1="171.068" y1="63.0781" x2="170.659" y2="79.3769" gradientUnits="userSpaceOnUse">
<stop stop-color="#DECE98"/>
<stop offset="0.215625" stop-color="#D3BA65"/>
<stop offset="0.913541" stop-color="#9D894D"/>
</linearGradient>
<linearGradient id="paint13_linear_414_1744" x1="108.719" y1="9.3291" x2="108.31" y2="25.6279" gradientUnits="userSpaceOnUse">
<stop stop-color="#DECE98"/>
<stop offset="0.215625" stop-color="#D3BA65"/>
<stop offset="0.913541" stop-color="#9D894D"/>
</linearGradient>
</defs>
</svg>
