<svg width="82" height="82" viewBox="0 0 82 82" fill="none" xmlns="http://www.w3.org/2000/svg">
<path d="M11.004 38.6528V42.02C11.004 42.6767 11.0429 43.0917 11.1205 43.2648C11.204 43.432 11.3473 43.5663 11.5503 43.6678C11.7593 43.7693 12.1384 43.82 12.6876 43.82V44.1514H6.51743V43.82C7.07863 43.82 7.45774 43.7693 7.65476 43.6678C7.85775 43.5603 7.99805 43.423 8.07566 43.2558C8.15924 43.0887 8.20103 42.6767 8.20103 42.02V34.1393C8.20103 33.4826 8.15924 33.0707 8.07566 32.9035C7.99805 32.7304 7.85775 32.593 7.65476 32.4916C7.45177 32.3901 7.07266 32.3393 6.51743 32.3393V32.008H11.81C13.5533 32.008 14.8041 32.3184 15.5623 32.9393C16.3205 33.5602 16.6996 34.3363 16.6996 35.2677C16.6996 36.0558 16.4548 36.7304 15.9653 37.2916C15.4757 37.8528 14.8011 38.2349 13.9414 38.4379C13.3623 38.5812 12.3832 38.6528 11.004 38.6528ZM11.004 32.7065V37.9543C11.2011 37.9662 11.3503 37.9722 11.4518 37.9722C12.1802 37.9722 12.7414 37.7573 13.1354 37.3274C13.5294 36.8916 13.7265 36.2199 13.7265 35.3125C13.7265 34.411 13.5294 33.7513 13.1354 33.3334C12.7414 32.9154 12.1533 32.7065 11.3712 32.7065H11.004ZM21.3564 35.7782V37.6767C21.9116 36.811 22.3982 36.2379 22.8161 35.9573C23.234 35.6707 23.637 35.5274 24.0251 35.5274C24.3594 35.5274 24.6251 35.6319 24.8221 35.8408C25.0251 36.0438 25.1266 36.3334 25.1266 36.7095C25.1266 37.1095 25.0281 37.42 24.831 37.6409C24.64 37.8618 24.4072 37.9722 24.1325 37.9722C23.8161 37.9722 23.5415 37.8707 23.3086 37.6677C23.0758 37.4647 22.9385 37.3513 22.8967 37.3274C22.837 37.2916 22.7683 37.2737 22.6907 37.2737C22.5176 37.2737 22.3534 37.3394 22.1982 37.4707C21.9534 37.6737 21.7683 37.9632 21.643 38.3394C21.4519 38.9185 21.3564 39.5573 21.3564 40.2558V42.1812L21.3653 42.6827C21.3653 43.023 21.3862 43.2409 21.428 43.3364C21.4997 43.4976 21.6041 43.617 21.7415 43.6946C21.8847 43.7663 22.1236 43.8111 22.4579 43.829V44.1514H17.9355V43.829C18.2996 43.7991 18.5444 43.7006 18.6698 43.5335C18.8011 43.3603 18.8668 42.9096 18.8668 42.1812V37.5513C18.8668 37.0737 18.8429 36.7692 18.7952 36.6379C18.7355 36.4707 18.6489 36.3483 18.5355 36.2707C18.422 36.1931 18.222 36.1393 17.9355 36.1095V35.7782H21.3564ZM28.046 31.7214C28.4341 31.7214 28.7624 31.8587 29.0311 32.1333C29.2997 32.402 29.4341 32.7274 29.4341 33.1095C29.4341 33.4916 29.2968 33.8169 29.0221 34.0856C28.7535 34.3543 28.4281 34.4886 28.046 34.4886C27.6639 34.4886 27.3385 34.3543 27.0699 34.0856C26.8012 33.8169 26.6669 33.4916 26.6669 33.1095C26.6669 32.7274 26.8012 32.402 27.0699 32.1333C27.3385 31.8587 27.6639 31.7214 28.046 31.7214ZM29.2997 35.7782V42.414C29.2997 43.0051 29.3684 43.3842 29.5057 43.5514C29.643 43.7126 29.9117 43.8051 30.3117 43.829V44.1514H25.7893V43.829C26.1594 43.817 26.434 43.7096 26.6132 43.5066C26.7326 43.3693 26.7923 43.0051 26.7923 42.414V37.5244C26.7923 36.9334 26.7236 36.5573 26.5863 36.3961C26.449 36.2289 26.1833 36.1334 25.7893 36.1095V35.7782H29.2997ZM34.6102 35.7782V36.8797C35.0699 36.3782 35.4938 36.0289 35.8819 35.8319C36.2759 35.6289 36.7058 35.5274 37.1715 35.5274C37.7088 35.5274 38.1595 35.6528 38.5237 35.9035C38.8879 36.1543 39.1685 36.5364 39.3655 37.0498C39.8431 36.5125 40.2998 36.1244 40.7357 35.8856C41.1775 35.6468 41.6372 35.5274 42.1148 35.5274C42.6939 35.5274 43.1536 35.6617 43.4939 35.9304C43.8402 36.1931 44.079 36.5304 44.2103 36.9423C44.3476 37.3483 44.4163 37.9991 44.4163 38.8946V42.3245C44.4163 42.9693 44.473 43.3693 44.5865 43.5245C44.7059 43.6797 44.9506 43.7812 45.3208 43.829V44.1514H40.9954V43.829C41.3357 43.7991 41.5864 43.6678 41.7476 43.4349C41.8551 43.2737 41.9088 42.9036 41.9088 42.3245V38.7244C41.9088 37.9782 41.879 37.5035 41.8193 37.3006C41.7596 37.0976 41.664 36.9483 41.5327 36.8528C41.4073 36.7513 41.2581 36.7005 41.0849 36.7005C40.8282 36.7005 40.5685 36.7961 40.3058 36.9871C40.0431 37.1722 39.7775 37.4528 39.5088 37.8289V42.3245C39.5088 42.9275 39.5595 43.3066 39.661 43.4618C39.7984 43.6827 40.061 43.8051 40.4491 43.829V44.1514H36.1147V43.829C36.3476 43.817 36.5297 43.7603 36.661 43.6588C36.7983 43.5514 36.8879 43.426 36.9297 43.2827C36.9774 43.1334 37.0013 42.814 37.0013 42.3245V38.7244C37.0013 37.9662 36.9715 37.4916 36.9118 37.3006C36.8521 37.1095 36.7506 36.9603 36.6073 36.8528C36.47 36.7453 36.3207 36.6916 36.1595 36.6916C35.9207 36.6916 35.7028 36.7543 35.5058 36.8797C35.2252 37.0647 34.9267 37.3812 34.6102 37.8289V42.3245C34.6102 42.9155 34.667 43.3066 34.7804 43.4976C34.8998 43.6827 35.1446 43.7932 35.5147 43.829V44.1514H31.1983V43.829C31.5505 43.7932 31.8013 43.6797 31.9505 43.4887C32.052 43.3573 32.1028 42.9693 32.1028 42.3245V37.5961C32.1028 36.9632 32.0431 36.5692 31.9236 36.414C31.8102 36.2588 31.5684 36.1573 31.1983 36.1095V35.7782H34.6102ZM48.4283 31.7214C48.8164 31.7214 49.1447 31.8587 49.4134 32.1333C49.682 32.402 49.8164 32.7274 49.8164 33.1095C49.8164 33.4916 49.679 33.8169 49.4044 34.0856C49.1358 34.3543 48.8104 34.4886 48.4283 34.4886C48.0462 34.4886 47.7208 34.3543 47.4522 34.0856C47.1835 33.8169 47.0492 33.4916 47.0492 33.1095C47.0492 32.7274 47.1835 32.402 47.4522 32.1333C47.7208 31.8587 48.0462 31.7214 48.4283 31.7214ZM49.682 35.7782V42.414C49.682 43.0051 49.7507 43.3842 49.888 43.5514C50.0253 43.7126 50.294 43.8051 50.694 43.829V44.1514H46.1715V43.829C46.5417 43.817 46.8163 43.7096 46.9954 43.5066C47.1148 43.3693 47.1745 43.0051 47.1745 42.414V37.5244C47.1745 36.9334 47.1059 36.5573 46.9686 36.3961C46.8313 36.2289 46.5656 36.1334 46.1715 36.1095V35.7782H49.682ZM58.6105 39.6648H54.0164C54.0701 40.7752 54.3657 41.6528 54.903 42.2976C55.3149 42.7931 55.8104 43.0409 56.3896 43.0409C56.7478 43.0409 57.0731 42.9424 57.3657 42.7454C57.6582 42.5424 57.9717 42.1812 58.306 41.6618L58.6105 41.8588C58.1567 42.7842 57.6552 43.4409 57.106 43.829C56.5567 44.2111 55.9209 44.4021 55.1985 44.4021C53.9567 44.4021 53.0164 43.9245 52.3776 42.9693C51.8641 42.1991 51.6074 41.2439 51.6074 40.1036C51.6074 38.7065 51.9835 37.5961 52.7358 36.7722C53.494 35.9423 54.3806 35.5274 55.3955 35.5274C56.2433 35.5274 56.9776 35.8767 57.5985 36.5752C58.2254 37.2677 58.5627 38.2976 58.6105 39.6648ZM56.4075 39.0648C56.4075 38.1035 56.3537 37.4438 56.2463 37.0856C56.1448 36.7274 55.9836 36.4558 55.7627 36.2707C55.6373 36.1632 55.4701 36.1095 55.2612 36.1095C54.9507 36.1095 54.697 36.2617 54.5 36.5662C54.1477 37.0976 53.9716 37.8259 53.9716 38.7513V39.0648H56.4075ZM63.1419 35.7782V37.6767C63.6971 36.811 64.1837 36.2379 64.6016 35.9573C65.0195 35.6707 65.4225 35.5274 65.8105 35.5274C66.1449 35.5274 66.4105 35.6319 66.6076 35.8408C66.8106 36.0438 66.912 36.3334 66.912 36.7095C66.912 37.1095 66.8135 37.42 66.6165 37.6409C66.4255 37.8618 66.1926 37.9722 65.918 37.9722C65.6016 37.9722 65.327 37.8707 65.0941 37.6677C64.8613 37.4647 64.724 37.3513 64.6822 37.3274C64.6225 37.2916 64.5538 37.2737 64.4762 37.2737C64.3031 37.2737 64.1389 37.3394 63.9837 37.4707C63.7389 37.6737 63.5538 37.9632 63.4284 38.3394C63.2374 38.9185 63.1419 39.5573 63.1419 40.2558V42.1812L63.1508 42.6827C63.1508 43.023 63.1717 43.2409 63.2135 43.3364C63.2851 43.4976 63.3896 43.617 63.5269 43.6946C63.6702 43.7663 63.909 43.8111 64.2434 43.829V44.1514H59.7209V43.829C60.0851 43.7991 60.3299 43.7006 60.4553 43.5335C60.5866 43.3603 60.6523 42.9096 60.6523 42.1812V37.5513C60.6523 37.0737 60.6284 36.7692 60.5806 36.6379C60.5209 36.4707 60.4344 36.3483 60.3209 36.2707C60.2075 36.1931 60.0075 36.1393 59.7209 36.1095V35.7782H63.1419ZM74.5688 39.6648H69.9748C70.0285 40.7752 70.324 41.6528 70.8613 42.2976C71.2733 42.7931 71.7688 43.0409 72.3479 43.0409C72.7061 43.0409 73.0315 42.9424 73.324 42.7454C73.6166 42.5424 73.93 42.1812 74.2644 41.6618L74.5688 41.8588C74.1151 42.7842 73.6136 43.4409 73.0643 43.829C72.5151 44.2111 71.8793 44.4021 71.1569 44.4021C69.9151 44.4021 68.9748 43.9245 68.3359 42.9693C67.8225 42.1991 67.5658 41.2439 67.5658 40.1036C67.5658 38.7065 67.9419 37.5961 68.6942 36.7722C69.4524 35.9423 70.3389 35.5274 71.3539 35.5274C72.2016 35.5274 72.936 35.8767 73.5569 36.5752C74.1838 37.2677 74.5211 38.2976 74.5688 39.6648ZM72.3658 39.0648C72.3658 38.1035 72.3121 37.4438 72.2046 37.0856C72.1031 36.7274 71.9419 36.4558 71.721 36.2707C71.5957 36.1632 71.4285 36.1095 71.2196 36.1095C70.9091 36.1095 70.6554 36.2617 70.4583 36.5662C70.1061 37.0976 69.93 37.8259 69.93 38.7513V39.0648H72.3658Z" fill="url(#paint0_linear_415_1825)"/>
<circle cx="40.6308" cy="40.6308" r="40.1986" stroke="url(#paint1_linear_415_1825)" stroke-width="0.864486"/>
<path d="M7.34814 24.2066C12.9673 20.6046 31.5538 14.2648 47.1145 22.9099C68.7971 34.9561 70.0234 31.9869 76.507 31.9869" stroke="url(#paint2_linear_415_1825)" stroke-width="0.864486"/>
<path d="M21.6128 8.64489C27.8084 7.34814 42.793 6.82944 53.167 15.1286C63.541 23.4278 72.4741 26.9437 75.644 27.6642" stroke="url(#paint3_linear_415_1825)" stroke-width="0.864486"/>
<path d="M34.1479 3.02539C34.8684 4.17806 37.6924 6.13759 43.2252 4.75439C50.1412 3.02539 53.5992 4.32214 57.4894 9.07688" stroke="url(#paint4_linear_415_1825)" stroke-width="0.864486"/>
<path d="M64.4053 11.6715C62.6763 10.3748 59.0454 8.55933 58.3538 11.6715C57.4893 15.5618 64.8374 23.7741 74.7792 23.7741" stroke="url(#paint5_linear_415_1825)" stroke-width="0.864486"/>
<path d="M15.1289 47.1152C16.8579 50.8614 22.7365 57.835 32.4189 55.7602C44.5219 53.1667 45.6386 49.7087 54.0313 49.7087C64.8376 49.7087 69.1601 62.244 64.8376 69.16" stroke="url(#paint6_linear_415_1825)" stroke-width="0.864486"/>
<path d="M6.48389 47.1152C7.78063 54.0312 13.3134 68.0361 25.0706 68.7277C36.8278 69.4193 48.7002 60.3709 53.1668 55.7602M58.3538 58.3537C56.6248 63.6848 49.1037 75.0385 32.8511 77.8049" stroke="url(#paint7_linear_415_1825)" stroke-width="0.864486"/>
<path d="M67.8623 49.708C69.7354 50.4284 73.0493 53.6847 71.3203 60.9465" stroke="url(#paint8_linear_415_1825)" stroke-width="0.864486"/>
<defs>
<linearGradient id="paint0_linear_415_1825" x1="53.0332" y1="28.1514" x2="52.8922" y2="47.3526" gradientUnits="userSpaceOnUse">
<stop stop-color="#DECE98"/>
<stop offset="0.215625" stop-color="#D3BA65"/>
<stop offset="0.913541" stop-color="#9D894D"/>
</linearGradient>
<linearGradient id="paint1_linear_415_1825" x1="55.2032" y1="-6.01534e-08" x2="53.2715" y2="77.0051" gradientUnits="userSpaceOnUse">
<stop stop-color="#DECE98"/>
<stop offset="0.215625" stop-color="#D3BA65"/>
<stop offset="0.913541" stop-color="#9D894D"/>
</linearGradient>
<linearGradient id="paint2_linear_415_1825" x1="54.3296" y1="18.5703" x2="54.2647" y2="31.5988" gradientUnits="userSpaceOnUse">
<stop stop-color="#DECE98"/>
<stop offset="0.215625" stop-color="#D3BA65"/>
<stop offset="0.913541" stop-color="#9D894D"/>
</linearGradient>
<linearGradient id="paint3_linear_415_1825" x1="58.3176" y1="7.90234" x2="58.1457" y2="26.6393" gradientUnits="userSpaceOnUse">
<stop stop-color="#DECE98"/>
<stop offset="0.215625" stop-color="#D3BA65"/>
<stop offset="0.913541" stop-color="#9D894D"/>
</linearGradient>
<linearGradient id="paint4_linear_415_1825" x1="50.0044" y1="3.02539" x2="49.9671" y2="8.76326" gradientUnits="userSpaceOnUse">
<stop stop-color="#DECE98"/>
<stop offset="0.215625" stop-color="#D3BA65"/>
<stop offset="0.913541" stop-color="#9D894D"/>
</linearGradient>
<linearGradient id="paint5_linear_415_1825" x1="69.4898" y1="9.95312" x2="69.2145" y2="23.0526" gradientUnits="userSpaceOnUse">
<stop stop-color="#DECE98"/>
<stop offset="0.215625" stop-color="#D3BA65"/>
<stop offset="0.913541" stop-color="#9D894D"/>
</linearGradient>
<linearGradient id="paint6_linear_415_1825" x1="50.0226" y1="47.1152" x2="49.7976" y2="68.0159" gradientUnits="userSpaceOnUse">
<stop stop-color="#DECE98"/>
<stop offset="0.215625" stop-color="#D3BA65"/>
<stop offset="0.913541" stop-color="#9D894D"/>
</linearGradient>
<linearGradient id="paint7_linear_415_1825" x1="41.7205" y1="47.1152" x2="41.2887" y2="76.2093" gradientUnits="userSpaceOnUse">
<stop stop-color="#DECE98"/>
<stop offset="0.215625" stop-color="#D3BA65"/>
<stop offset="0.913541" stop-color="#9D894D"/>
</linearGradient>
<linearGradient id="paint8_linear_415_1825" x1="70.5404" y1="49.708" x2="69.7822" y2="60.3103" gradientUnits="userSpaceOnUse">
<stop stop-color="#DECE98"/>
<stop offset="0.215625" stop-color="#D3BA65"/>
<stop offset="0.913541" stop-color="#9D894D"/>
</linearGradient>
</defs>
</svg>
