<svg width="60" height="60" viewBox="0 0 60 60" fill="none" xmlns="http://www.w3.org/2000/svg">
<circle cx="30" cy="30" r="29.5" stroke="url(#paint0_linear_402_2001)"/>
<path d="M51.2714 30C51.2714 41.5035 42.0167 50.8282 30.6014 50.8282C19.1861 50.8282 9.93139 41.5035 9.93139 30C9.93139 18.4964 19.1861 9.17174 30.6014 9.17174C42.0167 9.17174 51.2714 18.4964 51.2714 30Z" fill="url(#paint1_radial_402_2001)" stroke="url(#paint2_radial_402_2001)" stroke-width="0.115703"/>
<path d="M45.8637 30.9079C45.8637 36.8947 41.0474 41.7472 35.107 41.7472C29.1667 41.7472 24.3503 36.8947 24.3503 30.9079C24.3503 24.9212 29.1667 20.0687 35.107 20.0687C41.0474 20.0687 45.8637 24.9212 45.8637 30.9079Z" fill="url(#paint3_linear_402_2001)" stroke="url(#paint4_radial_402_2001)" stroke-width="0.115703"/>
<g filter="url(#filter0_f_402_2001)">
<ellipse cx="27.8973" cy="36.3567" rx="3.60485" ry="3.63236" fill="url(#paint5_radial_402_2001)"/>
</g>
<defs>
<filter id="filter0_f_402_2001" x="24.1768" y="32.6087" width="7.44088" height="7.49618" filterUnits="userSpaceOnUse" color-interpolation-filters="sRGB">
<feFlood flood-opacity="0" result="BackgroundImageFix"/>
<feBlend mode="normal" in="SourceGraphic" in2="BackgroundImageFix" result="shape"/>
<feGaussianBlur stdDeviation="0.0578516" result="effect1_foregroundBlur_402_2001"/>
</filter>
<linearGradient id="paint0_linear_402_2001" x1="40.7596" y1="-4.44146e-08" x2="39.3333" y2="56.8571" gradientUnits="userSpaceOnUse">
<stop stop-color="#DECE98"/>
<stop offset="0.215625" stop-color="#D3BA65"/>
<stop offset="0.913541" stop-color="#9D894D"/>
</linearGradient>
<radialGradient id="paint1_radial_402_2001" cx="0" cy="0" r="1" gradientUnits="userSpaceOnUse" gradientTransform="translate(26.9789 36.1481) rotate(-48.1309) scale(46.8432 116.4)">
<stop offset="0.139365"/>
<stop offset="0.50953" stop-color="#413B47"/>
<stop offset="0.753125" stop-color="#625664"/>
<stop offset="1" stop-color="#968387"/>
</radialGradient>
<radialGradient id="paint2_radial_402_2001" cx="0" cy="0" r="1" gradientUnits="userSpaceOnUse" gradientTransform="translate(26.9789 36.1481) rotate(-48.1309) scale(46.8432 116.4)">
<stop offset="0.139365"/>
<stop offset="0.50953" stop-color="#413B47"/>
<stop offset="0.753125" stop-color="#625664"/>
<stop offset="1" stop-color="#968387"/>
</radialGradient>
<linearGradient id="paint3_linear_402_2001" x1="38.9857" y1="20.0109" x2="38.4637" y2="40.6632" gradientUnits="userSpaceOnUse">
<stop stop-color="#DECE98"/>
<stop offset="0.215625" stop-color="#D3BA65"/>
<stop offset="0.913541" stop-color="#9D894D"/>
</linearGradient>
<radialGradient id="paint4_radial_402_2001" cx="0" cy="0" r="1" gradientUnits="userSpaceOnUse" gradientTransform="translate(33.217 34.1157) rotate(-48.1309) scale(24.4399 60.7302)">
<stop offset="0.139365"/>
<stop offset="0.50953" stop-color="#413B47"/>
<stop offset="0.753125" stop-color="#625664"/>
<stop offset="1" stop-color="#968387"/>
</radialGradient>
<radialGradient id="paint5_radial_402_2001" cx="0" cy="0" r="1" gradientUnits="userSpaceOnUse" gradientTransform="translate(27.8973 36.3567) rotate(90) scale(4.17807 4.14642)">
<stop stop-color="#A8B3B3"/>
<stop offset="0.387755" stop-color="#C9CACA"/>
<stop offset="0.675" stop-color="#E3E1DD"/>
<stop offset="1" stop-color="#FFFBF2"/>
</radialGradient>
</defs>
</svg>
