<svg width="54" height="48" viewBox="0 0 54 48" fill="none" xmlns="http://www.w3.org/2000/svg">
<path d="M39.6749 17.9336C43.9839 19.2516 41.7074 17.3328 42.1139 16.7047C32.5204 18.3359 28.8619 25.2319 27.8863 30.5568C26.7906 36.5371 30.5692 43.6605 37.1546 44.5654C43.74 45.4703 48.2928 43.2546 51.7075 38.0936C49.3053 46.1219 40.5313 50.2971 31.87 46.6954C26.7481 44.5654 24.1972 40.4693 23.0082 36.7828C21.0001 30.5568 24.0269 22.4393 27.3172 20.0708C23.0245 21.7806 20.9374 26.8952 20.5692 29.2388C20.7343 25.709 21.8028 22.5724 22.4391 20.7189C16.1301 18.0319 15.0407 24.7331 15.2846 28.4195C11.6423 25.9291 8.45531 31.751 7.3171 34.9733C10.5691 17.0816 3.79405 13.974 0 14.6567C15.7399 0.172952 28.347 -0.881107 32.683 0.402333C31.4364 0.92117 28.9269 2.66337 28.8619 5.48148C28.7968 8.29958 32.141 10.0964 33.8212 10.6425C38.5367 9.41371 44.011 11.1614 45.6099 12.1171C45.4473 11.0521 45.366 9.98716 45.4473 9.16795C45.5286 8.34873 46.3416 7.44759 46.6668 6.62838C46.848 6.172 46.9107 4.74418 46.6668 4.0888C46.4229 3.43343 45.6099 2.36845 45.4473 2.12268C45.2847 1.87692 45.2847 -0.00727972 45.6099 0.648094C45.9351 1.30347 46.992 1.795 47.3985 2.77806C47.805 3.76112 48.2928 5.23571 48.2928 6.13685C48.2928 7.03798 47.3985 8.10297 47.3985 9.41371C47.3985 10.7245 47.7237 10.7245 47.805 11.4618C47.8701 12.0516 48.1573 12.5814 48.2928 12.7725C48.4012 12.4448 48.6831 11.6256 48.9432 10.9702C49.2684 10.151 48.618 9.49564 48.618 8.5945C48.618 7.87359 48.9432 7.28375 49.431 7.28375C49.431 9.33179 49.9188 9.98717 49.9188 10.9702C49.9188 11.4432 49.6177 12.4661 49.3053 13.5098C49.9188 14.6567 49.0706 15.0817 48.9432 15.5578C48.8038 16.079 48.618 16.0286 48.618 16.2951C48.618 17.0816 49.8918 17.3874 50.1628 17.9336C49.1221 18.1957 47.7237 18.0501 47.3985 17.4493C48.4555 19.9142 50.6506 18.7601 51.1384 19.1697C51.6262 19.5793 54.2278 27.0342 53.9839 27.5257C53.74 28.0172 51.604 28.6726 51.7075 27.5257C51.7888 26.6245 48.862 23.9211 48.2115 23.2658C47.5611 22.6104 43.74 22.4465 42.7644 21.955C41.9839 21.5618 40.3253 19.2716 39.6749 17.9336Z" fill="url(#paint0_linear)"/>
<circle cx="40.5" cy="32.5" r="9" stroke="url(#paint1_linear)"/>
<path fill-rule="evenodd" clip-rule="evenodd" d="M43 40C45.7614 40 48 37.7614 48 35C48 32.2386 45.7614 30 43 30C40.6106 30 38.6127 31.676 38.1177 33.9165C38.3453 33.3779 38.8785 33 39.5 33C40.3284 33 41 33.6716 41 34.5C41 35.3284 40.3284 36 39.5 36C38.7313 36 38.0977 35.4218 38.0103 34.6766C38.0035 34.7835 38 34.8914 38 35C38 37.7614 40.2386 40 43 40Z" fill="url(#paint2_linear)"/>
<defs>
<linearGradient id="paint0_linear" x1="35.9351" y1="8.51986" x2="17.6451" y2="44.3615" gradientUnits="userSpaceOnUse">
<stop stop-color="#DECE98"/>
<stop offset="0.215625" stop-color="#D3BA65"/>
<stop offset="0.913541" stop-color="#9D894D"/>
</linearGradient>
<linearGradient id="paint1_linear" x1="43.9072" y1="23" x2="43.4556" y2="41.0048" gradientUnits="userSpaceOnUse">
<stop stop-color="#DECE98"/>
<stop offset="0.215625" stop-color="#D3BA65"/>
<stop offset="0.913541" stop-color="#9D894D"/>
</linearGradient>
<linearGradient id="paint2_linear" x1="44.7933" y1="30" x2="44.5556" y2="39.4762" gradientUnits="userSpaceOnUse">
<stop stop-color="#DECE98"/>
<stop offset="0.215625" stop-color="#D3BA65"/>
<stop offset="0.913541" stop-color="#9D894D"/>
</linearGradient>
</defs>
</svg>
