<svg width="209" height="69" viewBox="0 0 209 69" fill="none" xmlns="http://www.w3.org/2000/svg">
<path d="M107.997 33.3123C108.277 33.3123 108.674 33.6252 109.187 34.2489C109.498 34.5778 109.343 35.9769 109.077 36.4028C108.499 37.3249 109.077 36.4028 108.595 37.0433C108.081 37.6838 107.935 38.7417 107.437 39.3166C108.215 39.1358 108.78 39.8381 109.097 40.0953C110.02 40.846 110.02 40.846 110.051 41.3712C110.02 41.7001 109.748 42.2422 109.234 42.9975C108.611 43.8521 108.082 43.2978 107.647 43.8723C108.472 43.9215 109.008 44.0124 109.258 44.1431C109.522 44.2911 109.654 44.4884 109.654 44.7344C109.654 45.0221 109.018 45.9737 108.37 46.6727C108.103 46.96 107.675 47.6932 107.453 48.0718C106.764 49.2497 104.132 49.5852 103.478 49.8363L104.827 48.9138C105.211 48.6092 106.648 47.1877 106.902 46.6357C107.059 46.2946 107.158 46.0294 107.158 45.9915C107.158 45.8603 107.095 45.7942 106.971 45.7942C106.256 45.9259 105.781 45.9915 105.548 45.9915C104.925 45.9915 104.614 45.8032 104.614 45.4246C104.614 45.0802 104.793 44.6608 105.151 44.1679C105.633 43.5602 107.884 42.0403 107.899 41.6476C107.877 42.2192 107.24 40.4688 106.726 40.7152C106.244 40.8802 105.941 40.9621 105.817 40.9621C105.194 40.9621 104.883 40.6993 104.883 40.1731C104.883 39.8124 104.633 40.2683 105.442 39.1676C105.988 38.4044 106.404 37.6964 106.726 37.0475C107.542 35.4034 107.762 34.1369 107.997 33.3123Z" fill="url(#paint0_linear_405_1923)"/>
<path d="M102.216 51.7154C102.594 51.8701 102.89 51.9469 103.103 51.9469C103.411 51.9469 103.802 51.7375 104.276 51.3181C104.536 50.9869 104.737 50.821 104.879 50.821C105.068 50.821 105.258 50.8988 105.448 51.0525C105.66 51.1195 105.803 51.1523 105.873 51.1523C106.703 51.1523 107.614 50.2363 108.608 48.4033C108.798 48.4033 108.892 48.4483 108.892 48.5359C108.892 51.6274 108.454 53.1721 107.578 53.1721C107.223 53.1721 106.891 53.0063 106.583 52.676C106.3 52.3227 105.826 52.1451 105.163 52.1451C104.831 52.1451 104.643 52.3775 104.595 52.8404C104.524 53.9438 104.346 54.4967 104.062 54.4967C103.494 54.4967 103.008 54.2203 102.606 53.6683C102.132 52.9838 101.896 52.4318 101.896 52.013C101.896 51.8143 102.002 51.7154 102.216 51.7154Z" fill="url(#paint1_linear_405_1923)"/>
<path d="M116.914 43.4341C117.326 43.4341 117.655 43.5212 117.9 43.6936C118.205 44.023 118.359 44.4222 118.359 44.8898C118.359 45.3752 118.106 45.7393 117.602 45.982C117.006 46.242 116.47 46.407 115.996 46.4758C116.058 46.667 116.088 46.8662 116.088 47.0742C116.088 47.4903 115.973 48.0277 115.744 48.6855C115.606 49.154 115.438 49.5785 115.239 49.9604C116.341 49.7168 117.127 49.5186 117.602 49.3621C117.892 49.2585 118.137 49.2065 118.335 49.2065C118.886 49.2412 119.467 49.4408 120.079 49.8039C120.781 50.2031 121.133 50.7494 121.133 51.4429C121.133 51.754 120.705 51.9105 119.849 51.9105C118.764 51.7713 118.015 51.702 117.602 51.702C115.538 51.702 113.252 51.8065 110.744 52.014C109.919 52.1185 109.346 52.1705 109.025 52.1705C108.642 52.1705 108.428 52.0234 108.382 51.7287C108.382 51.6415 108.52 51.5895 108.795 51.5731C110.966 51.0174 112.709 50.5756 114.024 50.2472C114.192 49.7959 114.345 49.2496 114.483 48.6082C114.62 47.9677 114.688 47.456 114.688 47.0747C114.688 46.884 114.643 46.6933 114.551 46.5026C113.526 46.4337 112.716 46.2341 112.12 45.9042C111.646 45.6442 111.409 45.3673 111.409 45.0726C111.409 45.0042 111.524 44.9686 111.753 44.9686C113.144 44.9686 114.138 44.7258 114.734 44.2404C115.423 43.7025 116.149 43.4341 116.914 43.4341ZM112.488 36.8815C112.671 36.8815 112.847 37.0291 113.016 37.3238C113.168 37.6354 113.244 38.0346 113.244 38.5195C113.244 38.9361 113.061 39.369 112.694 39.8197C112.618 39.9237 112.58 40.0189 112.58 40.1055C112.58 40.1932 112.602 40.2442 112.648 40.2616C112.908 40.5216 113.145 40.895 113.359 41.38C113.512 41.7267 113.588 42.0992 113.588 42.4975C113.558 42.8615 113.382 43.0611 113.061 43.0958C112.954 43.0958 112.824 42.9393 112.671 42.6277C112.09 41.5875 111.647 40.9897 111.341 40.8337C111.203 40.799 111.135 40.6608 111.135 40.4171C111.135 40.1744 111.379 39.742 111.869 39.1179C112.22 38.6156 112.396 38.0692 112.396 37.4798C112.396 37.2896 112.373 37.1247 112.327 36.9855C112.327 36.9162 112.38 36.8815 112.488 36.8815ZM116.914 32.7996C118.198 32.8164 118.84 33.3454 118.84 34.386C118.81 34.8536 118.534 35.0875 118.015 35.0875C116.883 35.0875 115.805 35.1315 114.781 35.2177C114.262 35.2697 113.802 35.2955 113.405 35.2955C112.977 35.2955 112.602 35.2004 112.281 35.0101C111.976 34.871 111.8 34.7328 111.754 34.5936C111.754 34.5252 111.815 34.4896 111.938 34.4896C112.427 34.4896 113.176 34.2211 114.185 33.6837C115.24 33.1289 116.149 32.8347 116.914 32.7996ZM115.079 36.9855C115.247 36.9855 115.408 37.1326 115.561 37.4273C115.713 37.7394 115.79 38.1386 115.79 38.6235C115.79 38.9703 115.667 39.317 115.423 39.6632C115.362 39.7509 115.331 39.8197 115.331 39.8717C115.331 39.9589 115.354 40.0104 115.4 40.0273C115.614 40.2349 115.828 40.5389 116.042 40.9377C116.195 41.2492 116.272 41.5529 116.272 41.8471C116.225 42.2285 116.035 42.4454 115.698 42.497C115.606 42.497 115.484 42.3503 115.331 42.0551C114.781 41.1883 114.36 40.695 114.07 40.5736C113.947 40.5216 113.886 40.4007 113.886 40.2096C113.886 39.9847 114.1 39.5944 114.529 39.0396C114.834 38.5889 114.987 38.1035 114.987 37.5839C114.987 37.3936 114.957 37.2287 114.896 37.0891C114.896 37.0202 114.957 36.9855 115.079 36.9855ZM118.543 36.2316C118.664 36.2316 118.726 36.2663 118.726 36.3361C118.313 37.5496 118.107 38.312 118.107 38.624C118.107 38.9361 118.268 39.1961 118.589 39.4037C119.001 39.6988 119.208 40.0371 119.208 40.4176C119.208 40.8515 118.619 41.3631 117.442 41.9516C117.38 41.9516 117.35 41.8827 117.35 41.7436C117.793 41.224 118.015 40.8777 118.015 40.7039C118.015 40.5137 117.831 40.2269 117.465 39.8455C117.098 39.4997 116.914 39.0916 116.914 38.624C116.914 38.1391 117.105 37.6101 117.488 37.038C117.854 36.5006 118.206 36.2316 118.543 36.2316Z" fill="url(#paint2_linear_405_1923)"/>
<path fill-rule="evenodd" clip-rule="evenodd" d="M133.197 29.4229C133.467 28.7538 133.623 27.9498 134.03 27.4442C134.981 26.2635 134.977 24.8363 134.985 23.381C134.988 22.7461 134.93 22.1098 134.936 21.475C134.939 21.1985 135.033 20.923 135.11 20.513C135.394 20.9774 135.598 21.3236 135.813 21.6586C136.15 22.1811 136.547 22.2612 136.902 21.7912C137.24 21.3428 137.509 20.8143 137.783 20.3013C137.833 20.209 137.791 20.0056 137.743 19.8815C137.662 19.679 137.536 19.5043 137.44 19.3098C136.495 17.3911 136.497 17.4169 134.656 17.528C134.119 17.5598 133.575 17.3977 132.886 17.3035C133.576 15.9654 134.59 15.5873 135.509 14.9102C135.279 14.0884 134.268 12.4682 133.683 10.0018C133.347 8.58769 132.372 6.17657 132.387 3.64269C132.39 3.11652 132.49 2.52334 132.648 2.00279C132.789 1.538 133.165 1.39602 133.451 1.79428C133.771 2.24174 133.385 2.8382 133.448 3.40748C133.691 5.58011 134.752 7.69558 135.244 9.38515C135.818 11.3544 136.911 13.1527 137.017 13.6189C137.806 13.1255 138.086 13.0103 137.819 11.0668C138.873 11.0668 139.915 11.0668 141.131 11.0668C140.817 10.3419 140.574 9.84433 140.384 9.31768C140.286 9.04452 140.283 8.72029 140.237 8.41902C140.468 8.41246 140.699 8.39043 140.929 8.40402C141.75 8.45134 142.302 9.06514 142.8 9.76233C143.228 10.3635 143.24 10.9674 142.865 11.6281C142.624 12.0498 142.375 12.4644 142.13 12.8814C141.772 12.2255 141.478 12.0587 140.937 12.5075C140.202 13.1162 139.543 13.8616 138.866 14.5686C138.655 14.7893 138.497 15.0826 138.304 15.3291C137.702 16.098 137.947 15.9091 138.408 17.0702C138.699 17.8035 139.51 18.146 140.1 17.4872C140.485 17.0566 140.837 16.582 141.213 16.1383C141.408 15.9087 141.624 15.7035 141.928 15.3834C142.261 18.3868 144.294 20.1387 145.164 22.6515C145.108 22.71 145.051 22.7691 144.994 22.8277C144.71 22.5629 144.386 22.3413 144.15 22.0227C143.701 21.4145 143.274 20.7754 142.892 20.1031C142.6 19.5863 142.117 17.6128 141.768 17.959C141.302 18.4205 139.998 19.032 139.79 20.0225C139.487 21.2702 139.79 21.8723 140.747 23.9222C140.815 24.1363 141.055 24.341 141.249 24.4113C141.763 24.5983 142.294 24.7093 142.807 24.8466C142.78 25.5101 141.802 27.0703 141.489 26.8979C141.069 26.6669 141.003 27.0698 140.813 27.2071C140.079 27.7385 139.365 28.311 138.648 28.8765C138.401 29.0715 138.165 29.2884 137.935 29.4866C138.599 30.7784 138.595 32.4319 139.695 33.3891C140.169 31.685 140.638 29.9987 141.109 28.3044C142.195 28.1864 142.931 29.1352 142.744 30.449C142.476 32.3344 141.632 33.9003 140.844 35.4999C140.74 35.7112 140.619 36.0223 140.674 36.22C141.227 38.2399 141.923 40.1689 143.217 41.6814C144.529 43.214 146.096 42.8208 146.607 40.6876C146.926 39.3569 146.951 37.9175 147.066 36.5218C147.15 35.5163 147.164 34.5019 147.271 33.4856C147.84 34.4161 148.065 35.4661 148.182 36.5766C148.29 37.6074 148.513 38.6241 148.579 39.6573C148.633 40.5058 148.585 41.3782 148.485 42.223C148.284 43.9083 148.017 45.5815 147.777 47.2598C147.699 47.8108 147.378 48.0067 146.996 47.8549C146.488 47.652 145.954 47.4243 145.531 47.0438C143.224 44.9691 141.214 42.5435 139.761 39.4984C139.594 39.1498 139.463 38.7755 139.298 38.3674C138.896 38.8326 138.564 39.3368 138.143 39.6816C137.109 40.5292 136.041 42.4582 134.969 43.2332C134.722 43.4117 134.404 43.4721 134.111 43.5269C133.334 43.6727 132.959 43.3648 132.741 42.4507C132.448 41.2203 132.806 42.104 133.197 41.1641C133.273 41.2025 133.358 41.2301 133.431 41.2831C134.16 41.8083 134.903 41.7783 135.518 41.1177C136.357 40.2181 137.358 37.9368 138.138 36.958C138.471 36.5386 137.93 33.8356 137.759 33.294C137.449 32.3147 137.176 31.3181 136.875 30.2869C136.684 30.478 136.439 30.7479 136.173 30.9831C135.041 31.9853 133.916 33.0021 132.757 33.9574C132.413 34.2418 131.973 34.3674 131.567 34.5248C131.258 34.6448 131.086 34.4785 131.024 34.0708C130.843 32.9013 131.208 31.945 131.967 31.2108C132.421 30.7723 132.743 30.1313 133.124 29.5817C132.986 30.8847 133.281 31.4072 134.102 31.0928C134.952 30.7667 135.744 30.2119 136.463 29.8127C136.277 29.1071 136.121 28.6085 136.016 28.0936C135.912 27.5777 135.859 27.0464 135.749 26.2836C134.834 27.4077 134.016 28.415 133.197 29.4229ZM137.761 24.9436C137.308 24.8565 136.876 24.774 136.381 24.6789C136.448 25.9233 136.778 26.9729 137.201 27.9798C137.264 28.1287 137.577 28.2773 137.696 28.2121C138.269 27.8992 138.84 27.5599 139.361 27.1369C139.702 26.8595 139.904 26.3324 139.625 25.8849C139.335 25.4215 139.49 24.968 139.463 24.5083C139.454 24.3621 139.515 24.1733 139.46 24.0735C139.143 23.5042 138.801 22.9551 138.469 22.4022C137.042 23.6125 136.941 23.9887 137.761 24.9436Z" fill="url(#paint3_linear_405_1923)"/>
<path fill-rule="evenodd" clip-rule="evenodd" d="M121.419 42.6157C123.527 40.2603 125.235 37.5808 126.619 34.5305C125.854 33.6436 125.099 32.7679 124.345 31.8926C124.36 31.82 124.375 31.7465 124.39 31.6738C125.405 31.9222 126.42 32.171 127.504 32.4366C128.147 31.0675 128.836 29.616 129.153 27.9555C129.268 27.3529 128.977 27.0259 128.568 27.0531C128.099 27.083 127.63 27.2897 127.18 27.4841C126.758 27.6664 126.383 27.8421 126.107 28.4301C125.62 29.4684 124.985 30.42 124.332 31.3229C123.686 32.2164 122.942 33.0045 122.131 33.9706C122.131 33.1807 122.112 32.5331 122.143 31.8879C122.151 31.7197 122.292 31.4489 122.408 31.4175C123.135 31.217 123.559 30.5371 123.931 29.8891C124.98 28.0651 125.969 26.19 126.945 24.3079C127.287 23.651 127.116 23.2593 126.49 23.0807C125.614 22.8301 124.966 22.1849 124.368 21.4151C125.351 21.0951 126.31 20.8322 127.241 20.4658C128.201 20.0882 129.039 19.4613 129.602 18.3822C129.685 18.2215 129.909 18.0439 130.043 18.0687C130.627 18.1774 131.228 18.2754 131.771 18.5354C132.305 18.7903 132.324 19.488 131.814 19.8441C129.89 21.1836 128.973 23.5113 127.832 25.6184C128.485 26.3774 128.969 26.3891 129.541 25.6741C130.034 25.058 130.582 25.3686 131.107 25.5336C131.652 25.7051 132.028 26.1689 132.174 26.815C132.211 26.9781 131.976 27.2695 131.825 27.4518C130.444 29.1184 129.379 31.061 128.446 33.0851C128.887 33.9589 129.313 34.8056 129.74 35.6522C129.711 35.7202 129.683 35.7886 129.654 35.8574C129.124 35.7281 128.555 35.7038 128.073 35.4428C127.496 35.1317 127.273 35.4484 127.009 35.9516C126.437 37.0433 125.888 38.1613 125.239 39.1827C124.311 40.6441 123.124 41.747 121.719 42.4836C121.621 42.5347 121.519 42.5721 121.419 42.6157Z" fill="url(#paint4_linear_405_1923)"/>
<path d="M171.102 63.414C168.944 64.0053 163.872 61.8233 162.97 61.0741C160.342 58.8898 160.342 58.8898 160.217 57.3183C160.282 56.3325 160.62 53.6229 162.441 51.6602C163.111 50.9381 165.911 52.4197 166.956 51.7408C167.658 51.2839 168.313 50.799 168.742 50.2334C168.742 50.2334 168.811 49.83 168.4 49.57C168.118 49.3915 167.24 48.7894 166.881 48.5645C165.998 48.0126 165.211 48.0266 164.859 47.8378C164.11 47.4123 163.727 46.8313 163.71 46.0934C163.7 45.6469 163.477 45.7134 164.09 44.1157C164.481 43.099 164.953 42.0944 165.453 41.4108C165.917 40.7787 166.708 40.7576 167.48 40.5219C167.858 40.4067 168.232 40.239 168.561 39.9246C169.518 39.0067 170.099 37.8803 171.303 37.1171C172.034 36.6541 172.359 37.3973 173.17 37.0412L173.431 37.0346C171.729 38.5499 169.954 43.5647 169.962 43.8589C169.971 44.2525 170.149 44.4455 170.497 44.4371C172.485 43.9962 173.804 43.769 174.455 43.7535C176.192 43.7123 175.915 45.1812 175.942 46.3122C175.967 47.3444 176.656 47.686 175.691 49.1848C174.389 51.0351 166.221 55.1733 166.207 56.3503C166.229 54.6382 170.25 60.1178 171.67 60.8801" fill="url(#paint5_linear_405_1923)"/>
<path d="M166.039 55.0723C166.011 56.0389 166.747 56.7863 167.317 57.2862C167.745 57.6203 168.926 58.5124 169.483 59.0105C170.866 60.246 174.339 61.5289 175.773 61.8283C180.979 62.9125 188.914 61.8418 191.181 61.5846C193.442 61.3236 197.495 58.786 198.822 58.1811C200.003 57.5725 201.233 55.4716 201.637 54.8887C203.117 52.7526 202.643 53.7895 203.143 51.8183C203.361 50.9646 204.453 45.6246 204.856 42.3205C204.909 41.8768 205.142 39.0383 205.184 38.8982C205.344 38.3664 205.375 40.4266 205.452 41.8337C205.473 42.209 205.491 42.5969 205.511 42.9647C205.535 43.4295 205.56 43.8643 205.585 44.2082C205.647 45.039 205.745 45.2423 205.857 45.1809C206.043 45.0783 206.268 44.241 206.426 44.3629C206.611 44.5058 206.648 46.1297 206.781 46.4605C206.86 46.6582 206.975 46.3912 207.175 45.0577C207.362 43.817 207.465 42.6546 207.551 42.8396C207.962 43.7402 208.948 52.9517 208.921 53.9188C209.027 55.2148 209.027 56.5005 208.919 57.7899C208.808 59.0756 209.202 61.154 208.302 62.0963C207.406 62.8759 205.805 64.4629 204.3 65.8657C203.33 66.7719 197.406 67.1982 196.092 67.3224C192.182 67.9273 188.96 68.4516 183.88 68.3007C180.965 68.2126 172.901 65.5902 170.03 64.2183C167.306 62.689 161.639 60.4048 161.286 57.4914" fill="url(#paint6_linear_405_1923)"/>
<path fill-rule="evenodd" clip-rule="evenodd" d="M157.978 38.8242C157.971 38.8279 157.965 38.8317 157.958 38.8354C156.514 39.6692 155.386 40.3201 154.61 41.2258C153.905 42.214 152.977 42.2857 151.823 41.44C149.975 39.7143 148.968 38.781 148.804 38.6376C148.457 38.1967 148.744 37.8645 149.661 37.6363C151.171 37.0525 152.823 36.2251 154.61 35.1526C157.741 33.3562 159.841 32.3366 160.914 32.0972C161.088 31.4965 161.285 31.1901 161.482 30.8838C161.702 30.541 161.922 30.1983 162.111 29.4434C160.61 30.1837 159.119 31.0758 157.646 32.1239C157.182 32.1595 156.632 32.1258 156.002 32.0166C155.191 31.6123 154.52 30.9634 153.984 30.0703C153.447 29.1773 153.483 28.6309 154.091 28.4267C156.377 27.7834 158.193 27.0997 159.538 26.3712C160.431 25.8347 161.633 25.2748 163.146 24.6919L163.128 24.4595C163.795 20.9843 164.341 17.9819 164.77 15.456C164.077 16.6006 163.323 17.9032 162.502 19.3683C160.038 23.7628 158.262 26.0024 157.18 26.0858C156.858 25.9579 156.442 25.599 155.93 25.0143C155.346 23.5037 155.412 21.3165 156.125 18.4589C156.802 17.1619 157.185 17.0561 157.268 18.1365C157.339 19.0652 157.614 19.5913 158.09 19.7085C158.423 19.9957 160.769 18.0995 165.127 14.0265C165.124 12.0042 165.12 10.9139 165.109 10.7574C164.917 10.3053 164.517 10.1825 163.912 10.3821C163.316 10.742 163.013 10.8422 163.001 10.6857C162.977 10.3774 163.024 9.98293 163.144 9.50689C163.561 8.85421 164.071 8.42409 164.68 8.22027C165.273 7.86418 165.887 7.74095 166.519 7.84497C168.257 8.1781 169.401 8.87061 169.95 9.91686C170.51 11.121 170.385 12.5323 169.575 14.1501C169.158 14.8061 168.432 17.5087 167.397 22.2602L167.612 22.0104C172.267 17.7607 174.176 14.2631 173.344 11.524C173.128 10.7626 173.254 10.3624 173.719 10.3268C174.172 10.1385 174.647 10.2547 175.148 10.6839C176.637 11.8168 177.529 13.303 177.829 15.1486C177.913 16.2328 176.803 18.0301 174.507 20.5443C174.984 20.6643 175.471 20.937 175.972 21.3652C177.281 22.1988 177.973 23.0801 178.044 24.0097C177.949 24.7978 177.437 25.2242 176.508 25.2954C174.507 25.6065 171.728 26.9123 168.167 29.2096L167.721 29.4776C167.553 29.3366 167.541 29.181 167.685 29.0128C168.102 28.3601 168.524 27.7801 168.953 27.2797C169.226 26.7919 169.358 26.4714 169.346 26.3149C169.19 26.3266 168.807 26.4377 168.203 26.6373C167.594 26.8416 166.986 27.0454 166.381 27.245C166.215 27.7319 166.058 27.9522 165.928 28.135C165.758 28.3732 165.633 28.5479 165.595 29.166C165.572 29.2548 165.55 29.3435 165.527 29.4322C165.43 29.8203 165.332 30.2081 165.237 30.5955C165.378 30.4315 165.528 30.3393 165.684 30.3275C167.35 29.732 169.184 29.2808 171.186 28.9688C175.899 27.5181 178.817 26.9793 179.938 27.3598C181.831 27.6812 183.158 28.7462 183.922 30.5562C184.123 31.1648 183.914 31.4914 183.297 31.5392C180.371 31.7648 178.045 32.04 176.404 32.2718C176.782 32.6063 177.092 33.0701 177.334 33.6629C177.618 34.3657 178.111 34.988 178.81 35.5296C179.509 36.0722 180.371 36.6415 181.394 37.2346C182.418 37.8287 183.616 38.6703 184.991 39.7596C186.365 40.8495 187.611 41.4703 188.728 41.6225C189.844 41.7753 190.573 42.0939 190.91 42.5798C191.249 43.0647 191.45 43.3941 191.516 43.5637C191.582 43.7338 191.678 43.9662 191.807 44.2581C191.4 44.2094 191.094 44.2094 190.893 44.2581C190.691 44.3068 190.44 44.3265 190.141 44.3195C189.841 44.3129 189.537 44.3251 189.228 44.3551C188.918 44.3869 188.392 44.3837 187.648 44.3467L187.403 44.4994C187.331 44.4886 187.276 44.4563 187.238 44.4015C187.2 44.3485 187.038 44.3228 186.751 44.3246C186.465 44.3284 185.997 44.2778 185.348 44.1756C185.348 44.1756 183.275 43.2165 182.906 42.9729C179.852 40.9713 177.827 39.5188 176.828 38.6164C175.831 37.714 174.978 36.8237 174.268 35.9414C173.558 35.0611 173.104 34.3409 172.907 33.781C172.815 33.5198 172.683 33.1974 172.51 32.8141C170.062 33.1261 166.463 34.5972 163.636 35.9034C163.627 35.9198 163.618 35.9362 163.609 35.9527C163.208 36.6968 163.079 37.371 162.954 38.0238C162.891 38.356 162.828 38.6825 162.731 39.0099C162.549 39.3704 162.364 39.863 162.159 40.405C161.907 41.0725 161.627 41.8151 161.291 42.4786C160.683 43.6818 159.466 45.6642 158.403 47.3406C157.518 48.7339 154.307 52.564 152.723 54.4538L152.723 54.4538L152.722 54.4548C152.401 54.8384 152.146 55.142 151.992 55.3288C151.478 55.9489 150.935 56.2292 150.42 56.4952C150.016 56.7036 149.63 56.9032 149.287 57.2508C149.031 57.4007 148.712 57.6331 148.326 57.948C147.946 58.0946 147.5 58.3223 146.991 58.6316C146.486 58.7726 146.017 58.8382 145.583 58.8209C145.146 58.8035 144.747 58.7019 144.381 58.5271L144.067 57.0409C144.088 56.5503 144.165 56.1431 144.304 55.8217C144.571 55.3415 144.896 55.0247 145.274 54.8781C145.654 54.7281 146.03 54.663 146.403 54.6775L146.422 54.6784C146.784 54.6934 147.026 54.7034 147.149 54.7075C147.928 53.9185 148.807 52.9322 149.789 51.7445L149.826 51.7002L149.826 51.7001C150.875 50.43 155.152 45.2509 156.024 43.5047C156.897 41.7526 157.548 40.1928 157.978 38.8242Z" fill="url(#paint7_linear_405_1923)"/>
<path fill-rule="evenodd" clip-rule="evenodd" d="M86.6301 0C87.5499 0.629722 87.2453 0.936147 88.0372 1.72236C88.8056 2.48468 88.9119 3.42833 88.68 4.52613C88.263 6.49916 87.8249 7.69816 87.6263 9.704C87.3151 12.8512 87.1446 16.012 86.9155 19.1672C86.907 19.2777 86.9145 19.3907 86.9145 19.5757C89.6864 16.221 93.156 13.6679 95.9874 10.4607C96.0314 10.5033 96.075 10.546 96.1186 10.5877C95.4926 11.3434 94.8278 12.0715 94.2486 12.862C92.6992 14.9751 91.1994 17.1238 89.6536 19.2393C88.8716 20.3104 88.0625 21.3651 87.206 22.3767C86.8808 22.7604 86.7519 23.1367 86.6887 23.6169C86.4549 25.3946 86.1836 27.1675 85.8936 28.9368C85.8355 29.2919 85.6326 29.6232 85.4494 30.0847C84.5015 28.8515 84.1698 27.4941 83.713 26.1157C83.3962 26.4483 83.1175 26.7444 82.8354 27.0377C80.622 29.3383 78.1954 31.3961 75.6667 33.3368C75.1714 33.7178 74.6785 33.6911 74.1997 33.2881C73.6416 32.8196 72.9866 32.3946 73.0002 31.5578C73.0096 30.9885 73.7508 28.1407 73.7934 27.7968C74.4747 27.496 74.3838 29.6143 74.8388 29.3303C77.1913 27.8643 79.1194 25.8828 81.1702 24.0499C81.8116 23.4768 82.5041 22.9614 83.1526 22.3964C83.3166 22.2534 83.4965 22.0248 83.5078 21.8271C83.6877 18.5004 83.8423 15.1724 84.0002 11.8438C84.0049 11.7567 83.9843 11.6691 83.9688 11.5196C80.7729 13.2326 78.753 16.0181 76.6731 18.7834C77.1543 17.9396 77.546 17.0254 78.1369 16.2669C79.3077 14.7633 80.5667 13.3268 81.8388 11.9062C82.1593 11.5491 82.6475 11.3172 83.0954 11.1054C83.772 10.784 84.1464 10.2231 84.1037 9.26825C84.0297 7.60586 83.5382 9.4955 83.363 7.84295C83.1929 6.23725 85.1064 2.60136 85.1064 1.55604L86.6301 0Z" fill="url(#paint8_linear_405_1923)"/>
<path d="M85.3542 10.9795C85.3266 10.9551 85.2343 10.9893 85.074 11.0821C84.9152 11.1758 84.6495 11.2901 84.2766 11.4269L83.8507 11.4921L82.7876 11.3824C80.8726 10.9851 79.5888 10.6374 78.9361 10.338C78.2839 10.0386 77.7132 9.70224 77.2236 9.32506C76.7335 8.94882 76.4046 8.60209 76.234 8.2816C76.0649 7.96206 75.6418 7.03528 75.7416 7.0559C75.8414 7.07745 76.004 7.00062 76.2294 6.82491C76.4543 6.65015 76.7105 6.46366 76.9987 6.26593C77.2854 6.06821 77.5806 6.00918 77.8828 6.0893C78.1855 6.16989 78.4526 6.40416 78.6878 6.79258C78.9216 7.18148 79.2632 7.44994 79.7097 7.59846C80.1576 7.74699 80.6979 7.86227 81.3318 7.94145C81.9662 8.0211 82.7229 8.21507 83.6061 8.52197C84.4884 8.8298 85.2483 8.85791 85.886 8.60677C86.5251 8.35563 86.9646 8.34159 87.2045 8.56555C87.4453 8.78998 87.5929 8.95069 87.6473 9.04533C87.7016 9.14091 87.7803 9.2693 87.8844 9.4272C87.6515 9.52418 87.4814 9.62117 87.3741 9.71816C87.2673 9.81562 87.1295 9.90886 86.9623 9.99929C86.795 10.0907 86.6259 10.1951 86.4576 10.3151C86.288 10.435 85.9947 10.6004 85.5768 10.8113L85.3542 10.9795Z" fill="url(#paint9_linear_405_1923)"/>
<path fill-rule="evenodd" clip-rule="evenodd" d="M115.373 19.2113C114.07 17.8469 112.687 16.6076 110.717 16.245C109.561 16.0323 108.386 15.9151 107.228 15.7094C105.762 15.4489 104.444 15.7357 103.208 16.5256C102.737 16.8264 102.207 17.0448 101.692 17.2753C100.553 17.7837 99.3808 18.1332 98.0951 18.0489C97.6734 18.0203 97.4743 17.92 97.3553 17.4983C96.8872 15.8374 97.1145 14.1675 97.3455 12.5271C97.6406 10.4285 97.0985 8.50746 96.3714 6.59346C96.2664 6.31702 96.0902 6.06589 95.9417 5.79272C95.8621 5.85317 95.8114 5.87191 95.8016 5.90237C94.9906 8.46577 94.1903 11.0324 93.3713 13.594C92.6478 15.8608 92.5879 18.1412 93.0667 20.4647C93.3127 21.6595 94.083 22.5511 94.7263 23.5158C95.1864 24.2069 95.699 24.8915 96.3086 25.458C97.2878 26.3674 99.6034 26.1654 100.505 25.1698C101.378 24.2055 102.248 23.2389 103.109 22.2653C103.636 21.6698 104.226 21.1876 104.996 20.8821C106.497 20.2866 107.268 20.3414 108.492 19.6883C108.492 19.6883 109.703 19.7787 109.738 20.0828C109.956 21.406 109.389 22.4476 108.637 23.4666C105.703 27.4422 102.81 31.4469 99.8484 35.4042C98.209 37.5951 96.5611 39.793 94.7427 41.842C93.4327 43.3174 91.9488 44.6485 90.4996 46.0092C90.5019 46.0096 90.5057 46.0078 90.5118 46.0036C90.5216 45.9965 90.5352 45.9839 90.5483 45.9731C90.5427 45.9806 90.5371 45.9876 90.5356 45.9914C90.5174 46.0078 90.5005 46.0232 90.4855 46.0368C90.4715 46.0518 90.4574 46.0673 90.4462 46.0823C90.4218 46.1104 90.3993 46.1376 90.3763 46.1666C90.3721 46.1839 90.3375 46.2191 90.3061 46.2519C90.2808 46.2767 90.27 46.2931 90.2587 46.3076C90.255 46.3133 90.2676 46.3053 90.2723 46.303C90.2414 46.3442 90.2133 46.3817 90.1655 46.4313C90.1552 46.4426 90.1444 46.4585 90.1355 46.4712C90.1257 46.4838 90.1168 46.4969 90.1065 46.5101C90.1083 46.5105 90.1079 46.5133 90.1074 46.5152C90.098 46.5269 90.0887 46.5391 90.0723 46.5602C90.1032 46.5288 90.1275 46.5035 90.1458 46.4866C90.1646 46.4693 90.1777 46.4599 90.1945 46.4459C90.1842 46.4594 90.1744 46.4707 90.1693 46.4782C90.165 46.4838 90.1627 46.4904 90.1655 46.4876C90.1875 46.4693 90.1749 46.4876 90.1796 46.4862C90.2091 46.4515 90.2377 46.4182 90.2667 46.3845C90.278 46.3817 90.278 46.3836 90.314 46.3465C90.3337 46.3269 90.3548 46.303 90.3735 46.2819C90.382 46.272 90.3852 46.2645 90.3927 46.2552C90.4077 46.235 90.4246 46.213 90.4396 46.1933C90.4537 46.1741 90.4771 46.146 90.4691 46.1488C90.4602 46.1516 90.4771 46.1277 90.4954 46.1038C90.516 46.0781 90.5117 46.0799 90.5052 46.0818C90.4949 46.0865 90.4621 46.1174 90.4438 46.1305C90.479 46.0874 90.4471 46.1104 90.4635 46.0851C90.471 46.0781 90.4804 46.0692 90.4841 46.0635C90.5 46.0453 90.5094 46.0331 90.5286 46.0176C90.538 46.0101 90.5652 45.982 90.5792 45.9609C90.5816 45.9572 90.5895 45.9483 90.5905 45.9473C90.6111 45.9291 90.6242 45.9108 90.6401 45.8925C90.6668 45.863 90.6921 45.8368 90.7132 45.8194C90.7249 45.8087 90.7306 45.8068 90.7409 45.8012C90.747 45.7932 90.753 45.7866 90.7596 45.7796C90.769 45.7712 90.7784 45.7637 90.7887 45.7557C90.7929 45.7473 90.7971 45.7412 90.8037 45.7299C90.8182 45.7201 90.8294 45.7145 90.8393 45.7074C90.8477 45.699 90.8538 45.6906 90.8608 45.6826C90.8688 45.6789 90.8758 45.6742 90.8828 45.6713C90.8856 45.6681 90.8894 45.6643 90.8917 45.6611C90.8988 45.6512 90.9044 45.6409 90.911 45.6311C90.9433 45.5983 90.9194 45.6301 90.9311 45.6203C90.9527 45.602 90.9733 45.5828 90.9892 45.5683C90.9897 45.5748 90.9901 45.5772 90.9906 45.5819C90.9873 45.587 90.9597 45.6137 90.9667 45.6119C90.9686 45.6119 90.9541 45.6301 90.9437 45.6437C90.9545 45.6334 90.9709 45.6161 90.9714 45.6208C90.9714 45.6231 90.9976 45.5959 90.9953 45.6039C90.9953 45.6039 91.0117 45.5824 91.0178 45.58C91.0225 45.5786 91.0239 45.58 91.0286 45.5758C91.0337 45.5734 91.0426 45.5659 91.0501 45.5608C91.0511 45.5594 91.0506 45.5599 91.052 45.5594C91.0454 45.5669 91.0407 45.5739 91.0356 45.5805C91.0464 45.5734 91.0618 45.5631 91.0665 45.5631C91.0726 45.5645 91.0904 45.5491 91.1143 45.5275C91.1152 45.5266 91.1157 45.527 91.1157 45.527C91.1199 45.5299 91.1326 45.5247 91.1035 45.5594C91.0665 45.6053 91.0698 45.6091 91.0721 45.6142C91.0735 45.617 91.0679 45.6259 91.066 45.6315C91.0637 45.6362 91.0618 45.6409 91.0595 45.6451C91.0571 45.6517 91.0543 45.6578 91.052 45.6653C91.0487 45.6737 91.0421 45.6849 91.0436 45.6896C91.0445 45.6976 91.0361 45.7173 91.0112 45.7505C90.9798 45.7936 90.9414 45.8429 90.9161 45.8794C90.9119 45.886 90.9063 45.8939 90.9007 45.9014C90.8777 45.9323 90.8543 45.9633 90.8322 45.9942C90.851 45.9759 90.8711 45.9558 90.8889 45.9394C90.9222 45.908 90.9545 45.877 90.9925 45.8382C91.0211 45.8091 91.0464 45.7852 91.0679 45.7679C91.0979 45.7431 91.1326 45.7135 91.1813 45.6657C91.2179 45.6297 91.2511 45.5992 91.2567 45.6034C91.2605 45.6067 91.2853 45.5866 91.2989 45.5791C91.3073 45.5748 91.3186 45.5683 91.3176 45.5734C91.3139 45.5894 91.342 45.5706 91.3997 45.5149C91.4456 45.4713 91.4901 45.4296 91.521 45.4052C91.5491 45.3827 91.5805 45.3542 91.6199 45.3143C91.6424 45.2984 91.6442 45.305 91.6812 45.2726C91.6915 45.2628 91.6878 45.274 91.6864 45.2792C91.6845 45.2886 91.6841 45.289 91.7225 45.2497C91.7276 45.2431 91.7323 45.2394 91.7454 45.2258C91.7473 45.2276 91.7576 45.2216 91.7492 45.2328C91.7375 45.2478 91.7393 45.2478 91.7403 45.2492C91.7417 45.2515 91.7426 45.2544 91.7361 45.2642C91.7276 45.2778 91.7328 45.274 91.745 45.2661C91.7586 45.2562 91.7745 45.2445 91.7403 45.2843C91.7286 45.2979 91.7253 45.3054 91.7178 45.3171C91.7665 45.2665 91.7834 45.2469 91.7567 45.2909C91.7689 45.2806 91.7806 45.2712 91.7956 45.2595C91.7628 45.2951 91.7375 45.3232 91.7108 45.3513C91.6466 45.4197 91.5828 45.4882 91.5182 45.5561C91.4863 45.5898 91.4606 45.6198 91.4376 45.6475C91.4268 45.6592 91.4254 45.6662 91.4146 45.6774C91.3734 45.7234 91.3575 45.7473 91.3284 45.7829C91.3111 45.7993 91.2956 45.8138 91.2764 45.8316C91.2591 45.8536 91.2413 45.8761 91.2268 45.8939C91.2347 45.8883 91.2422 45.8813 91.2427 45.8822C91.2436 45.8836 91.2333 45.8963 91.2357 45.8958C91.2455 45.8944 91.2249 45.9225 91.1958 45.9581C91.1658 45.9956 91.1452 46.0237 91.1626 46.0148C91.1672 46.012 91.1687 46.0143 91.1635 46.0214C91.1523 46.0392 91.1359 46.0607 91.1274 46.0734C91.133 46.071 91.1401 46.0663 91.1382 46.071C91.1302 46.086 91.1307 46.0926 91.1462 46.0837C91.1532 46.0799 91.1574 46.079 91.1565 46.0837C91.1555 46.0916 91.1391 46.1151 91.1007 46.1573C91.0984 46.1643 91.096 46.1704 91.0937 46.1769C91.0909 46.1854 91.0853 46.1929 91.0534 46.2233C91.0318 46.2444 91.0014 46.2767 90.9761 46.3048C90.9653 46.3166 90.9578 46.3287 90.9466 46.3423C90.9231 46.3662 90.8978 46.3911 90.8777 46.4112C90.8543 46.4379 90.8346 46.4604 90.8158 46.4819C90.8135 46.4876 90.8112 46.4922 90.8088 46.4969C90.7868 46.5199 90.768 46.5391 90.7502 46.5574C90.7493 46.5588 90.7488 46.5597 90.7479 46.5611C91.0421 46.4515 91.3364 46.3409 91.6302 46.2303C91.655 46.2139 91.6737 46.2041 91.7201 46.161C91.7604 46.1315 91.8138 46.087 91.8405 46.0724C91.8532 46.0649 91.871 46.0532 91.8869 46.0439C91.8996 46.0321 91.9122 46.019 91.9258 46.0073C91.9492 45.9862 91.9521 45.9862 91.9492 45.9923C91.9488 45.9937 91.9652 45.9825 91.9741 45.975C91.9924 45.9595 92.0116 45.9427 92.0317 45.9253C92.1001 45.8817 92.0565 45.937 92.0987 45.9159C92.1488 45.8785 92.206 45.8344 92.2126 45.8405C92.2182 45.8447 92.2351 45.8382 92.2037 45.8733C92.1966 45.8813 92.2065 45.8775 92.2135 45.8738C92.2243 45.8686 92.2407 45.8593 92.2571 45.8499C92.2805 45.8288 92.3049 45.8068 92.333 45.7815C92.34 45.7782 92.3466 45.7749 92.355 45.7716C92.3822 45.7496 92.4122 45.7257 92.4459 45.6981C92.4717 45.6737 92.5026 45.6447 92.5321 45.617C92.5504 45.6039 92.5668 45.5941 92.5818 45.5814C92.6169 45.5514 92.6581 45.5153 92.6844 45.49C92.7214 45.4535 92.7327 45.446 92.7444 45.4418C92.7537 45.4385 92.7631 45.4348 92.7734 45.4315C92.8264 45.386 92.8587 45.3654 92.8709 45.3631C92.877 45.3617 92.8774 45.3659 92.8737 45.3734C92.8643 45.3893 92.8751 45.3888 92.8962 45.3785C92.9032 45.3757 92.8976 45.3842 92.8962 45.3898C92.913 45.379 92.9416 45.3593 92.965 45.3443C92.9749 45.3377 92.9777 45.3387 92.9758 45.3438C92.9665 45.3626 93.0044 45.3368 93.0536 45.3003C93.1009 45.2656 93.1375 45.2398 93.1384 45.2497C93.1384 45.252 93.1543 45.2398 93.1567 45.2398C93.1581 45.2403 93.1497 45.2497 93.1436 45.2581C93.167 45.2403 93.196 45.2188 93.2246 45.1972C93.2466 45.1752 93.2649 45.1569 93.2846 45.1372C93.331 45.1021 93.3642 45.0819 93.4223 45.0323C93.4364 45.0201 93.4472 45.0173 93.4631 45.0042C93.4992 44.9765 93.5371 44.9456 93.5802 44.9077C93.666 44.8322 93.7527 44.7558 93.8398 44.6804C93.8759 44.6495 93.9115 44.619 93.9574 44.5797C93.9424 44.597 93.9312 44.6096 93.919 44.6237C93.9804 44.59 93.9546 44.6101 93.8904 44.6677C93.9068 44.6579 93.9171 44.6532 93.9349 44.6391C93.9865 44.5979 93.9734 44.6153 93.9621 44.6307C93.9523 44.6434 93.9495 44.6499 93.9668 44.6391C93.9813 44.6307 93.986 44.6307 93.9893 44.6321C93.9921 44.6331 93.993 44.6354 94.0127 44.6204C94.0268 44.6101 94.0216 44.6214 94.024 44.6228C94.008 44.6378 94.0024 44.6438 93.9944 44.6499C93.9452 44.6954 93.9457 44.6944 93.9593 44.6912C93.9668 44.6888 93.9832 44.6823 93.9705 44.6954C93.9312 44.7376 93.9424 44.738 93.9242 44.7633C93.875 44.8092 93.8393 44.8458 93.8122 44.8777C93.7836 44.9123 93.7321 44.9643 93.6786 45.0168C93.6102 45.0843 93.5891 45.1147 93.6116 45.1086C93.621 45.1063 93.613 45.1189 93.6093 45.1283C93.6013 45.1428 93.5788 45.171 93.5845 45.1742C93.5929 45.1789 93.5549 45.2173 93.5104 45.26C93.4509 45.3171 93.4148 45.3565 93.3858 45.3902C93.3657 45.4151 93.3361 45.4446 93.2986 45.4783C93.2499 45.5233 93.2115 45.5603 93.1731 45.5992C93.1525 45.6198 93.1272 45.6432 93.1047 45.6653C93.1459 45.6371 93.1871 45.6086 93.2284 45.58C93.2382 45.5725 93.249 45.5659 93.2579 45.5608C93.3071 45.5294 93.3727 45.4821 93.4303 45.4427C93.4748 45.4123 93.5015 45.3996 93.5146 45.3996C93.5217 45.4006 93.5381 45.3912 93.5493 45.3869C93.5601 45.3832 93.569 45.3795 93.5788 45.3762C93.5849 45.3729 93.5915 45.3706 93.5985 45.3673C93.607 45.364 93.6187 45.357 93.6229 45.3574C93.6318 45.3593 93.6393 45.3612 93.6993 45.3162C93.7447 45.2815 93.7395 45.2942 93.7452 45.2979C93.7461 45.2979 93.7466 45.2989 93.7452 45.2998C93.7185 45.3275 93.7002 45.3476 93.7039 45.3527C93.7058 45.3579 93.6941 45.3748 93.6861 45.3865C93.695 45.3804 93.7044 45.3743 93.7142 45.3663C93.7142 45.3677 93.7152 45.3673 93.7128 45.3687C93.7067 45.3771 93.6974 45.387 93.695 45.3926C93.6913 45.3987 93.6932 45.3996 93.6927 45.4038C93.6913 45.4104 93.6613 45.4305 93.6627 45.4305C93.6725 45.4272 93.651 45.4479 93.6473 45.4535C93.6637 45.446 93.6805 45.4394 93.6974 45.4324L93.6988 45.431L93.7007 45.4305C95.1344 44.8238 96.3732 43.9588 97.4167 42.8006C99.5593 40.4213 101.73 38.065 103.917 35.7237C105.346 34.1939 106.94 32.8572 108.747 31.727C109.097 31.5073 109.435 31.2632 109.761 31.0022C109.761 31.0022 111.194 29.7273 111.539 29.3689C113.283 27.558 114.675 25.4973 116.03 23.4118C116.248 23.0763 116.428 22.6837 116.492 22.2967C116.696 21.0864 116.217 20.0955 115.373 19.2113Z" fill="url(#paint10_linear_405_1923)"/>
<circle cx="29.5" cy="34.5" r="29" stroke="url(#paint11_linear_405_1923)"/>
<path d="M50.4159 34.4999C50.4159 45.8112 41.3159 54.98 30.0914 54.98C18.8669 54.98 9.76684 45.8112 9.76684 34.4999C9.76684 23.1886 18.8669 14.0198 30.0914 14.0198C41.3159 14.0198 50.4159 23.1886 50.4159 34.4999Z" fill="url(#paint12_radial_405_1923)" stroke="url(#paint13_radial_405_1923)" stroke-width="0.115703"/>
<path d="M45.0984 35.3927C45.0984 41.2792 40.3628 46.0503 34.522 46.0503C28.6812 46.0503 23.9455 41.2792 23.9455 35.3927C23.9455 29.5063 28.6812 24.7351 34.522 24.7351C40.3628 24.7351 45.0984 29.5063 45.0984 35.3927Z" fill="url(#paint14_linear_405_1923)" stroke="url(#paint15_radial_405_1923)" stroke-width="0.115703"/>
<g filter="url(#filter0_f_405_1923)">
<ellipse cx="27.4325" cy="40.7508" rx="3.54476" ry="3.57182" fill="url(#paint16_radial_405_1923)"/>
</g>
<defs>
<filter id="filter0_f_405_1923" x="23.772" y="37.0633" width="7.32076" height="7.37496" filterUnits="userSpaceOnUse" color-interpolation-filters="sRGB">
<feFlood flood-opacity="0" result="BackgroundImageFix"/>
<feBlend mode="normal" in="SourceGraphic" in2="BackgroundImageFix" result="shape"/>
<feGaussianBlur stdDeviation="0.0578516" result="effect1_foregroundBlur_405_1923"/>
</filter>
<linearGradient id="paint0_linear_405_1923" x1="107.943" y1="33.3123" x2="106.959" y2="48.9186" gradientUnits="userSpaceOnUse">
<stop stop-color="#D3BA65"/>
<stop offset="0.538541" stop-color="#9D894D"/>
</linearGradient>
<linearGradient id="paint1_linear_405_1923" x1="106.649" y1="48.4033" x2="106.522" y2="54.1784" gradientUnits="userSpaceOnUse">
<stop stop-color="#D3BA65"/>
<stop offset="0.538541" stop-color="#9D894D"/>
</linearGradient>
<linearGradient id="paint2_linear_405_1923" x1="117.044" y1="32.7996" x2="116.345" y2="51.1408" gradientUnits="userSpaceOnUse">
<stop stop-color="#D3BA65"/>
<stop offset="0.538541" stop-color="#9D894D"/>
</linearGradient>
<linearGradient id="paint3_linear_405_1923" x1="142.95" y1="1.56177" x2="140.064" y2="45.3143" gradientUnits="userSpaceOnUse">
<stop stop-color="#DECE98"/>
<stop offset="0.215625" stop-color="#D3BA65"/>
<stop offset="0.913541" stop-color="#9D894D"/>
</linearGradient>
<linearGradient id="paint4_linear_405_1923" x1="128.732" y1="18.0664" x2="127.405" y2="41.2685" gradientUnits="userSpaceOnUse">
<stop stop-color="#DECE98"/>
<stop offset="0.215625" stop-color="#D3BA65"/>
<stop offset="0.913541" stop-color="#9D894D"/>
</linearGradient>
<linearGradient id="paint5_linear_405_1923" x1="171.077" y1="36.96" x2="170.03" y2="62.0957" gradientUnits="userSpaceOnUse">
<stop stop-color="#DECE98"/>
<stop offset="0.507291" stop-color="#9D894D"/>
</linearGradient>
<linearGradient id="paint6_linear_405_1923" x1="193.7" y1="38.8125" x2="193.266" y2="66.7918" gradientUnits="userSpaceOnUse">
<stop stop-color="#DECE98"/>
<stop offset="0.507291" stop-color="#9D894D"/>
</linearGradient>
<linearGradient id="paint7_linear_405_1923" x1="172.665" y1="7.80933" x2="171.878" y2="40.2339" gradientUnits="userSpaceOnUse">
<stop offset="0.325" stop-color="#DECE98"/>
<stop offset="0.621875" stop-color="#D3BA65"/>
<stop offset="1" stop-color="#9D894D"/>
</linearGradient>
<linearGradient id="paint8_linear_405_1923" x1="88.7051" y1="-2.48774e-08" x2="87.5446" y2="31.8245" gradientUnits="userSpaceOnUse">
<stop offset="0.226041" stop-color="#DECE98"/>
<stop offset="0.611458" stop-color="#D3BA65"/>
<stop offset="1" stop-color="#9D894D"/>
</linearGradient>
<linearGradient id="paint9_linear_405_1923" x1="83.9857" y1="6.05469" x2="83.9278" y2="11.2098" gradientUnits="userSpaceOnUse">
<stop offset="0.226041" stop-color="#DECE98"/>
<stop offset="0.611458" stop-color="#D3BA65"/>
<stop offset="1" stop-color="#9D894D"/>
</linearGradient>
<linearGradient id="paint10_linear_405_1923" x1="108.052" y1="5.79272" x2="106.56" y2="44.3923" gradientUnits="userSpaceOnUse">
<stop offset="0.226041" stop-color="#DECE98"/>
<stop offset="0.611458" stop-color="#D3BA65"/>
<stop offset="1" stop-color="#9D894D"/>
</linearGradient>
<linearGradient id="paint11_linear_405_1923" x1="40.0803" y1="5" x2="38.6778" y2="60.9095" gradientUnits="userSpaceOnUse">
<stop stop-color="#DECE98"/>
<stop offset="0.215625" stop-color="#D3BA65"/>
<stop offset="0.913541" stop-color="#9D894D"/>
</linearGradient>
<radialGradient id="paint12_radial_405_1923" cx="0" cy="0" r="1" gradientUnits="userSpaceOnUse" gradientTransform="translate(26.5293 40.5455) rotate(-48.1309) scale(46.0625 114.46)">
<stop offset="0.139365"/>
<stop offset="0.50953" stop-color="#413B47"/>
<stop offset="0.753125" stop-color="#625664"/>
<stop offset="1" stop-color="#968387"/>
</radialGradient>
<radialGradient id="paint13_radial_405_1923" cx="0" cy="0" r="1" gradientUnits="userSpaceOnUse" gradientTransform="translate(26.5293 40.5455) rotate(-48.1309) scale(46.0625 114.46)">
<stop offset="0.139365"/>
<stop offset="0.50953" stop-color="#413B47"/>
<stop offset="0.753125" stop-color="#625664"/>
<stop offset="1" stop-color="#968387"/>
</radialGradient>
<linearGradient id="paint14_linear_405_1923" x1="38.336" y1="24.6772" x2="37.8227" y2="44.9854" gradientUnits="userSpaceOnUse">
<stop stop-color="#DECE98"/>
<stop offset="0.215625" stop-color="#D3BA65"/>
<stop offset="0.913541" stop-color="#9D894D"/>
</linearGradient>
<radialGradient id="paint15_radial_405_1923" cx="0" cy="0" r="1" gradientUnits="userSpaceOnUse" gradientTransform="translate(32.6635 38.547) rotate(-48.1309) scale(24.0326 59.718)">
<stop offset="0.139365"/>
<stop offset="0.50953" stop-color="#413B47"/>
<stop offset="0.753125" stop-color="#625664"/>
<stop offset="1" stop-color="#968387"/>
</radialGradient>
<radialGradient id="paint16_radial_405_1923" cx="0" cy="0" r="1" gradientUnits="userSpaceOnUse" gradientTransform="translate(27.4325 40.7508) rotate(90) scale(4.10843 4.07731)">
<stop stop-color="#A8B3B3"/>
<stop offset="0.387755" stop-color="#C9CACA"/>
<stop offset="0.675" stop-color="#E3E1DD"/>
<stop offset="1" stop-color="#FFFBF2"/>
</radialGradient>
</defs>
</svg>
