<svg width="1366" height="1133" viewBox="0 0 1366 1133" fill="none" xmlns="http://www.w3.org/2000/svg">
<g clip-path="url(#clip0_2:211)">
<path d="M1333.45 259.94C1329.66 261.918 1325.21 266.551 1323.22 269.617C1322.45 271.354 1321.85 276.338 1325.65 282.381C1330.4 289.935 1340.5 292.582 1347.08 290.16C1352.46 288.182 1358.5 284.095 1359.17 278.179C1356.22 268.064 1345.93 268.783 1341.15 270.191C1338.87 271.528 1336.66 273.472 1336.93 277.708C1336.99 278.682 1337.26 279.48 1337.68 280.117C1337.84 280.33 1338.01 280.534 1338.17 280.73C1340.48 283.109 1345.27 282.371 1346.46 280.117C1346.75 278.937 1346.55 276.897 1343.42 278.179C1343.53 276.94 1344.57 274.602 1347.91 275.171C1352.07 275.883 1352.18 280.151 1351.11 281.574C1350.07 282.963 1344.79 288.692 1338.17 280.73C1337.99 280.545 1337.83 280.341 1337.68 280.117C1337.26 279.48 1336.99 278.682 1336.93 277.708C1336.66 273.472 1338.87 271.528 1341.15 270.191C1343.19 268.992 1344.64 267.118 1345.06 266.989C1345.71 266.791 1351.58 266.702 1355.37 269.209C1358.98 269.878 1366.01 274.063 1365.19 285.447C1364.16 299.678 1349.01 310.856 1328.41 310.6L1330.3 308.794C1331.26 308.776 1332.39 308.706 1333.66 308.572L1333.53 306.579C1330.55 306.808 1323.91 307.063 1321.22 306.249C1318.2 305.462 1313.44 303.78 1309.22 301.657C1302.91 301.819 1292.77 296.896 1287.24 287.622C1282.81 280.202 1286.22 268.395 1288.48 264.143C1287.91 263.615 1287.48 262.974 1287.24 262.19C1292.84 250.181 1309.93 232.919 1333.45 259.94Z" fill="url(#paint0_linear_2:211)"/>
<path d="M1301.57 296.29C1296.94 290.744 1295.62 282.381 1295.62 279.796C1295.62 277.055 1297.25 269.365 1298.25 267.832C1298.71 267.112 1296.66 266.98 1294.19 266.499M1301.57 296.29C1284.7 288.087 1289.62 273.011 1294.19 266.499M1301.57 296.29C1303.16 298.199 1306.04 300.054 1309.22 301.657M1355.37 269.209C1356.81 270.161 1358.04 271.644 1358.73 273.912C1359.19 275.425 1359.32 276.848 1359.17 278.179M1355.37 269.209C1351.58 266.702 1345.71 266.791 1345.06 266.989C1344.64 267.118 1343.19 268.992 1341.15 270.191M1355.37 269.209C1358.98 269.878 1366.01 274.063 1365.19 285.447C1364.16 299.678 1349.01 310.856 1328.41 310.6L1330.3 308.794C1331.26 308.776 1332.39 308.706 1333.66 308.572M1356.88 298.22C1351.48 305.135 1340.62 307.834 1333.66 308.572M1333.66 308.572L1333.53 306.579M1333.53 306.579C1337.71 306.394 1347.27 304.839 1352.07 300.096M1333.53 306.579C1330.55 306.808 1323.91 307.063 1321.22 306.249C1318.2 305.462 1313.44 303.78 1309.22 301.657M1309.22 286.173C1311.05 291.618 1319.78 301.858 1340.09 299.255M1337.68 280.117C1337.26 279.48 1336.99 278.682 1336.93 277.708C1336.66 273.472 1338.87 271.528 1341.15 270.191M1337.68 280.117C1339.71 283.214 1345.18 282.546 1346.46 280.117C1346.75 278.937 1346.55 276.897 1343.42 278.179C1343.53 276.94 1344.57 274.602 1347.91 275.171C1352.07 275.883 1352.18 280.151 1351.11 281.574C1350.04 282.997 1344.53 288.977 1337.68 280.117ZM1294.19 266.499C1292.19 266.109 1289.92 265.49 1288.48 264.143M1288.48 264.143C1287.91 263.615 1287.48 262.974 1287.24 262.19C1292.84 250.181 1309.93 232.919 1333.45 259.94C1329.66 261.918 1325.21 266.551 1323.22 269.617C1322.45 271.354 1321.85 276.338 1325.65 282.381C1330.4 289.935 1340.5 292.582 1347.08 290.16C1352.46 288.182 1358.5 284.095 1359.17 278.179M1288.48 264.143C1286.22 268.395 1282.81 280.202 1287.24 287.622C1292.77 296.896 1302.91 301.819 1309.22 301.657M1341.15 270.191C1345.93 268.783 1356.22 268.064 1359.17 278.179" stroke="#8E7561" stroke-width="0.355729" stroke-linecap="round" stroke-linejoin="round"/>
<path d="M1242.61 264.855C1226.25 267.346 1198.86 252.761 1209.53 222.168C1199.85 196.841 1224 180.073 1237.28 174.855C1235.5 167.622 1233.01 150.026 1237.28 137.504C1242.61 121.852 1272.49 100.508 1312.34 131.457C1321.61 138.66 1326.99 146.741 1329.69 154.935C1336.27 174.904 1326.91 195.547 1319.09 205.804C1331.19 220.033 1324.79 241.021 1319.09 255.606C1313.4 270.191 1297.39 274.46 1277.83 275.883C1262.18 277.021 1247.83 269.006 1242.61 264.855Z" fill="url(#paint1_radial_2:211)"/>
<path d="M1248.3 231.061C1248.66 229.757 1248.59 227.361 1245.46 228.215C1241.55 229.282 1245.1 234.619 1248.3 234.974C1251.51 235.33 1262.18 237.109 1264.31 222.168C1266.02 210.216 1254.35 204.144 1248.3 202.603C1239.41 200.824 1217.1 200.468 1209.53 222.168M1209.53 222.168C1198.86 252.761 1226.25 267.346 1242.61 264.855C1247.83 269.006 1262.18 277.021 1277.83 275.883C1297.39 274.46 1313.4 270.191 1319.09 255.606C1324.79 241.021 1331.19 220.033 1319.09 205.804C1326.91 195.547 1336.27 174.904 1329.69 154.935C1326.99 146.741 1321.61 138.66 1312.34 131.457C1272.49 100.508 1242.61 121.852 1237.28 137.504C1233.01 150.026 1235.5 167.622 1237.28 174.855C1224 180.073 1199.85 196.841 1209.53 222.168ZM1245.46 171.298C1258.15 171.061 1287.08 176.634 1301.31 200.824M1248.3 163.828C1261.47 164.302 1290.92 170.587 1303.44 191.93M1253.28 123.63C1264.07 117.702 1292.34 113.243 1319.09 142.84M1244.75 133.235C1250.84 127.662 1267.85 118.366 1287.08 125.765M1267.51 127.543C1272.14 125.765 1283.59 124.058 1292.41 131.457C1301.24 138.856 1288.5 142.128 1281.03 142.84" stroke="#8E7561" stroke-width="0.355729"/>
<path d="M1154.04 181.788C1152.97 178.647 1148.06 172.863 1136.96 174.855C1126.06 176.813 1124.79 179.575 1125.54 180.774C1125.55 180.795 1125.56 180.815 1125.58 180.836C1125.56 180.816 1125.55 180.795 1125.54 180.774C1123.61 177.91 1118.71 174.002 1114.19 180.836C1104.47 181.451 1087.23 187.449 1096.05 206.516C1098.07 208.531 1103.31 211.354 1108.15 206.516C1108.98 205.35 1109.25 204.262 1109.15 203.325C1108.95 202.679 1108.7 202.074 1108.43 201.535C1108.81 202.032 1109.08 202.638 1109.15 203.325C1110.54 207.801 1109.55 214.235 1097.12 213.986C1092.73 217.306 1081.54 224.018 1071.86 224.302H1043.4C1035.1 223.828 1015.8 222.096 1004.99 218.966C991.468 215.053 987.554 214.697 973.325 214.341C959.096 213.986 950.203 229.993 939.887 233.551C933.128 235.881 925.302 236.041 920.322 234.618C915.342 233.195 913.563 227.503 916.053 225.725C917.109 224.971 918.078 225.182 918.844 225.725C914.521 228.215 918.543 232.128 927.081 232.128C937.041 232.128 943.326 226.318 947.357 223.235C951.72 219.582 955.82 216.958 959.452 215.103C966.007 211.754 971.036 210.909 973.325 211.04C992.79 206.344 1017.45 216.073 1025.97 217.543C1036.29 219.322 1059.77 219.678 1071.86 215.764C1081.54 212.634 1081.11 205.414 1079.69 202.195C1077.07 200.422 1074.37 198.009 1072.93 195.132C1069.73 188.729 1072.57 168.808 1094.63 165.251C1095.7 160.864 1101.1 152.018 1114.19 151.733C1124.87 146.042 1129.49 158.136 1127 159.915C1125.01 161.338 1123.56 160.508 1123.09 159.915C1126.22 159.915 1125.58 157.544 1124.87 156.358C1120.88 152.374 1117.04 155.409 1115.62 157.425C1114.31 159.559 1113.62 163.97 1121.31 164.54C1121.55 166.199 1123.66 169.021 1130.2 167.029C1136.75 165.038 1139.57 159.797 1140.16 157.425L1136.96 154.935C1140.64 151.156 1151.47 144.411 1165.42 147.665C1163.36 140.721 1163.62 124.983 1181.07 117.583C1202.89 108.334 1228.74 102.287 1252.57 121.496C1258.03 126.425 1268.3 138.559 1265.73 147.665C1279.11 179.131 1237.4 192.42 1214.87 195.132C1190.96 201.108 1176.68 191.14 1172.53 185.409C1167.43 186.522 1160.85 186.192 1154.04 181.788Z" fill="url(#paint2_radial_2:211)"/>
<path d="M1207.87 150.511C1207.63 152.409 1206.3 155.634 1202.89 153.357C1198.62 150.511 1206.45 141.974 1212.14 147.665C1215.09 150.619 1214.63 155.872 1211.64 159.049M1150.83 167.029C1167.34 160.769 1175.5 169.638 1177.51 174.855C1179.61 176.657 1183.5 179.008 1188.9 180.836M1150.83 172.365C1151.66 169.638 1155.74 165.251 1165.42 169.52C1175.1 173.788 1171.11 176.516 1167.91 177.346C1169.62 179.048 1174.07 181.622 1180.72 181.788M1150.83 172.365C1149.7 171.227 1146.57 169.994 1145.14 169.52M1150.83 172.365C1152.14 173.433 1153.96 175.638 1150.83 175.923C1153.56 176.102 1161.15 177.346 1155.81 179.836C1157.24 181.788 1163.64 185.62 1171.47 183.581M1188.9 180.836C1192.81 182.161 1197.51 183.211 1202.89 183.581M1188.9 180.836C1185.89 181.586 1183.16 181.849 1180.72 181.788M1234.07 162.405C1236.17 167.985 1232.87 180.032 1202.89 183.581M1202.89 183.581C1204.49 183.691 1206.15 183.741 1207.87 183.72M1191.53 150.511C1192.07 153.692 1193.91 156.706 1197.55 159.049C1203.94 163.156 1208.88 161.995 1211.64 159.049M1191.53 150.511C1190.1 142.101 1197.78 132.525 1205.26 131.099C1215.58 129.135 1240.12 135.014 1234.07 155.646C1241.97 158.789 1241.23 174.047 1224.9 180.836M1191.53 150.511C1190.18 139.891 1195.51 120.571 1227.67 128.255C1234.79 130.286 1247.52 138.151 1241.55 153.357C1246.1 160.834 1249.14 176.798 1224.9 180.836M1224.9 180.836C1223.56 181.393 1222.11 181.893 1220.56 182.325C1216.05 183.249 1211.81 183.671 1207.87 183.72M1211.64 159.049C1208.57 163.622 1199.71 168.886 1188.9 153.357C1175.38 133.947 1195.18 118.294 1207.87 116.16C1220.56 114.026 1257.91 114.495 1265.73 147.665M1265.73 147.665C1273.56 180.836 1218.19 186.603 1207.87 183.72M1265.73 147.665C1268.3 138.559 1258.03 126.425 1252.57 121.496C1228.74 102.287 1202.89 108.334 1181.07 117.583C1163.62 124.983 1163.36 140.721 1165.42 147.665M1265.73 147.665C1279.11 179.131 1237.4 192.42 1214.87 195.132C1190.96 201.108 1176.68 191.14 1172.53 185.409M1180.72 181.788C1179.04 183.094 1176.16 184.617 1172.53 185.409M1104.59 203.67C1102.88 203.954 1103.17 202.365 1103.52 201.535C1104.37 199.422 1107.1 199.82 1108.43 201.535M1108.43 201.535C1109.33 202.707 1109.59 204.494 1108.15 206.516C1103.31 211.354 1098.07 208.531 1096.05 206.516C1087.23 187.449 1104.47 181.451 1114.19 180.836C1118.75 173.952 1123.68 177.968 1125.58 180.836C1124.75 179.673 1125.86 176.848 1136.96 174.855C1148.06 172.863 1152.97 178.647 1154.04 181.788C1160.85 186.192 1167.43 186.522 1172.53 185.409M1108.43 201.535C1110.59 205.804 1111.35 214.271 1097.12 213.986C1092.73 217.306 1081.54 224.018 1071.86 224.302H1043.4M1043.4 224.302C1052.65 223.353 1071.79 221.101 1074.35 219.678C1077.55 217.899 1085.02 217.188 1085.02 205.093C1083.72 204.573 1081.73 203.579 1079.69 202.195M1043.4 224.302C1035.1 223.828 1015.8 222.096 1004.99 218.966C991.468 215.053 987.554 214.697 973.325 214.341C959.096 213.986 950.203 229.993 939.887 233.551C933.128 235.881 925.302 236.041 920.322 234.618C915.342 233.195 913.563 227.503 916.053 225.725C917.109 224.971 918.078 225.182 918.844 225.725M1114.19 151.733C1101.1 152.018 1095.7 160.864 1094.63 165.251C1072.57 168.808 1069.73 188.729 1072.93 195.132C1074.37 198.009 1077.07 200.422 1079.69 202.195M1114.19 151.733C1124.87 146.042 1129.49 158.136 1127 159.915C1125.01 161.338 1123.56 160.508 1123.09 159.915C1126.22 159.915 1125.58 157.544 1124.87 156.358C1120.88 152.374 1117.04 155.409 1115.62 157.425C1114.31 159.559 1113.62 163.97 1121.31 164.54C1121.55 166.199 1123.66 169.021 1130.2 167.029C1136.75 165.038 1139.57 159.797 1140.16 157.425L1136.96 154.935C1140.64 151.156 1151.47 144.411 1165.42 147.665M1114.19 151.733C1111.37 153.038 1106 157.425 1107.08 164.54C1107.32 166.109 1107.8 167.431 1108.43 168.538M1117.04 173.789C1114.8 173.696 1110.66 172.451 1108.43 168.538M1108.43 168.538C1107.8 168.953 1107.04 169.794 1106.86 170.943M1108.43 174.855C1107.03 173.347 1106.69 172.011 1106.86 170.943M1106.86 170.943C1103.85 169.638 1096.55 167.813 1091.43 170.943M1077.2 184.46C1076.51 186.17 1076.18 187.709 1076.11 189.085M1088.08 172.365C1084.98 174.038 1081.11 177.063 1078.47 181.788M1077.2 194.103C1077.86 195.312 1078.76 196.261 1079.69 196.97M1165.42 147.665C1166.13 149.527 1167.85 152.895 1170.35 155.646M1174.67 159.049C1173.05 158.248 1171.6 157.024 1170.35 155.646M920.322 227.503C920.043 226.946 919.524 226.206 918.844 225.725M1079.69 202.195C1081.11 205.414 1081.54 212.634 1071.86 215.764C1059.77 219.678 1036.29 219.322 1025.97 217.543C1017.45 216.073 992.79 206.344 973.325 211.04M961.942 216.12C965.375 213.65 969.236 212.026 973.325 211.04M973.325 211.04C971.036 210.909 966.007 211.754 959.452 215.103M918.844 225.725C914.521 228.215 918.543 232.128 927.081 232.128C937.041 232.128 943.326 226.318 947.357 223.235C951.72 219.582 955.82 216.958 959.452 215.103M1170.35 155.646C1162.78 155.29 1147.13 157.567 1145.14 169.52M1145.14 169.52C1136.04 167.243 1126.64 172.128 1123.09 174.855M917.476 231.061C920.559 233.329 929.357 236.505 939.887 231.061C942.614 229.401 948.567 225.511 950.559 223.235L959.452 215.103" stroke="#8E7561" stroke-width="0.355729"/>
<path d="M1167.55 241.637C1163.99 229.542 1178.93 226.697 1194.58 221.004C1197.78 220.174 1205.89 221.361 1209.88 224.206C1208.97 227.171 1207.41 234.167 1208.51 238.436C1208.71 241.197 1209.31 243.454 1209.88 244.839C1203.33 235.447 1189.84 237.368 1184.27 240.57C1185.57 242.23 1186.26 246.902 1178.57 252.309C1175.56 254.428 1172.49 255.705 1169.68 256.433C1165.13 260.385 1154.03 261.748 1149.05 261.936C1137.87 264.152 1123.34 261.44 1118.46 258.356C1116.67 257.226 1114.98 256.584 1113.48 256.266C1110.43 255.622 1108.1 256.299 1107.07 256.934C1105.37 255.226 1100.2 255.036 1097.82 255.155C1083.31 255.439 1079.44 260.254 1079.33 262.625C1078.45 263.276 1077.5 263.844 1076.48 264.337C1070.26 267.354 1061.56 267.576 1052.65 266.846C1042.3 265.999 1031.65 263.869 1024.19 263.337C1012.24 262.483 1009.48 267.013 1009.6 269.384C1004.48 273.368 997.983 273.184 995.374 272.594C997.979 272.395 1001.24 271.197 1003.56 270.096C1006.4 266.681 1010.67 264.167 1012.45 263.337C1024.19 258.001 1035.93 262.625 1049.45 263.337C1056.87 263.727 1070.53 259.223 1081.82 254.749C1086.97 252.706 1091.63 250.669 1094.98 249.107C1100.08 247.922 1113.26 246.546 1125.22 250.53C1140.16 255.511 1157.59 253.376 1159.72 253.376C1161.86 253.376 1173.59 249.463 1172.88 242.704C1172.31 237.297 1169.09 239.74 1167.55 241.637Z" fill="url(#paint3_linear_2:211)"/>
<path d="M991.461 267.605C990.242 271.721 992.37 272.823 995.374 272.594M995.374 272.594C997.979 272.395 1001.24 271.197 1003.56 270.096C1006.4 266.681 1010.67 264.167 1012.45 263.337C1024.19 258.001 1035.93 262.625 1049.45 263.337C1056.87 263.727 1070.53 259.223 1081.82 254.749M995.374 272.594C997.983 273.184 1004.48 273.368 1009.6 269.384C1009.48 267.013 1012.24 262.483 1024.19 263.337C1031.65 263.869 1042.3 265.999 1052.65 266.846M1208.51 238.436C1208.71 241.197 1209.31 243.454 1209.88 244.839C1203.33 235.447 1189.84 237.368 1184.27 240.57C1185.57 242.23 1186.26 246.902 1178.57 252.309C1175.56 254.428 1172.49 255.705 1169.68 256.433M1208.51 238.436C1207.78 236.42 1202.12 230.682 1188.18 232.388C1185.45 232.625 1179.5 234.309 1177.51 239.147C1179.17 239.74 1181.99 241.708 1180 244.839C1177.51 248.752 1175.02 253.087 1169.68 256.433M1208.51 238.436C1207.41 234.167 1208.97 227.171 1209.88 224.206C1205.89 221.361 1197.78 220.174 1194.58 221.004C1178.93 226.697 1163.99 229.542 1167.55 241.637C1169.09 239.74 1172.31 237.297 1172.88 242.704C1173.59 249.463 1161.86 253.376 1159.72 253.376C1157.59 253.376 1140.16 255.511 1125.22 250.53C1113.26 246.546 1100.08 247.922 1094.98 249.107C1091.63 250.669 1086.97 252.706 1081.82 254.749M1169.68 256.433C1165.32 257.562 1161.6 257.366 1159.72 256.934C1157.15 259.502 1153.35 261.083 1149.05 261.936M1169.68 256.433C1165.13 260.385 1154.03 261.748 1149.05 261.936M1149.05 261.936C1137.87 264.152 1123.34 261.44 1118.46 258.356C1116.67 257.226 1114.98 256.584 1113.48 256.266M1149.05 261.936C1141.22 261.936 1132.33 258.356 1126.64 256.934C1122.08 255.795 1115.97 256.014 1113.48 256.266M1113.48 256.266C1110.43 255.622 1108.1 256.299 1107.07 256.934C1105.37 255.226 1100.2 255.036 1097.82 255.155C1083.31 255.439 1079.44 260.254 1079.33 262.625C1078.45 263.276 1077.5 263.844 1076.48 264.337M1113.48 256.266C1105.79 249.808 1089.17 252.564 1081.82 254.749M1052.65 266.846C1061.56 267.576 1070.26 267.354 1076.48 264.337M1052.65 266.846C1057.39 265.174 1068.8 262.331 1076.48 264.337" stroke="#8E7561" stroke-width="0.355729"/>
</g>
<defs>
<linearGradient id="paint0_linear_2:211" x1="1321.94" y1="275.883" x2="1361.07" y2="318.57" gradientUnits="userSpaceOnUse">
<stop/>
<stop offset="0.404167" stop-color="#413B47"/>
<stop offset="0.753125" stop-color="#625664"/>
<stop offset="1" stop-color="#968387"/>
</linearGradient>
<radialGradient id="paint1_radial_2:211" cx="0" cy="0" r="1" gradientUnits="userSpaceOnUse" gradientTransform="translate(1258.62 219.418) rotate(-54.8993) scale(163.668 384.952)">
<stop offset="0.139365"/>
<stop offset="0.50953" stop-color="#413B47"/>
<stop offset="0.753125" stop-color="#625664"/>
<stop offset="1" stop-color="#968387"/>
</radialGradient>
<radialGradient id="paint2_radial_2:211" cx="0" cy="0" r="1" gradientUnits="userSpaceOnUse" gradientTransform="translate(801.152 235.685) rotate(-15.481) scale(506.434 868.201)">
<stop stop-color="#968387"/>
<stop offset="0.233694" stop-color="#625664"/>
<stop offset="0.556188" stop-color="#413B47"/>
<stop offset="1"/>
</radialGradient>
<linearGradient id="paint3_linear_2:211" x1="991.111" y1="246.829" x2="1209.88" y2="246.829" gradientUnits="userSpaceOnUse">
<stop/>
<stop offset="0.217708" stop-color="#413B47"/>
<stop offset="0.446875" stop-color="#625664"/>
<stop offset="0.695927" stop-color="#3C3742"/>
<stop offset="0.878045" stop-color="#141216"/>
</linearGradient>
<clipPath id="clip0_2:211">
<rect width="1366" height="1132.64" fill="white"/>
</clipPath>
</defs>
</svg>
