<svg width="1366" height="1133" viewBox="0 0 1366 1133" fill="none" xmlns="http://www.w3.org/2000/svg">
<path d="M175.912 179.255C181.197 183.259 193.315 190.314 200.833 190.635C210.229 191.035 223.892 184.36 226.856 183.406C230.315 182.294 233.593 175.536 234.576 173.508C235.56 171.48 241.688 182.059 248.605 179.835C255.521 177.61 259.322 180.951 262.78 179.839C265.825 178.86 285.476 176.962 292.678 161.301C293.657 159.173 294.406 156.791 294.852 154.123C296.114 153.527 298.139 150.784 301.939 154.126C304.725 148.096 312.969 136.888 326.301 141.728C330.207 143.704 337.929 150.423 337.564 161.493C342.364 162.859 351.855 169.316 351.414 184.22C349.741 190.928 344.989 197.636 334.541 201.254C326.637 203.992 319.783 203.5 314.166 201.532C306.678 198.909 301.389 193.662 298.742 189.95C294.765 182.673 292.235 167.148 307.062 164.091C318.923 161.645 323.527 172.092 323.929 178.427C329.012 168.806 312.154 151.982 298.011 163.946C288.318 172.145 289.784 183.99 293.795 192.886C295.636 196.97 298.014 200.432 300.095 202.635C304.292 207.078 317.42 216.689 340.718 213.68C342.868 213.403 345.105 213.018 347.429 212.511C374.94 206.516 380.373 186.116 376.117 176.275C378.188 177.064 383.163 177.501 386.493 172.939C389.592 168.692 389.093 164.907 388.342 163.238C391.242 161.718 393.665 159.759 395.078 157.257C399.803 148.892 397.234 141.923 395.359 139.483C408.722 110.657 387.59 77.1564 352.497 77.4007C355.719 70.4698 358.597 53.9906 344.326 43.5206C326.488 30.4332 304.089 37.0663 296.85 41.6764C289.61 46.2865 277.291 62.227 284.084 74.8736C289.518 84.9909 296.92 87.0982 299.941 86.8873C303.393 87.5921 310.555 87.1999 311.589 79.9926C311.656 79.8818 311.723 79.769 311.789 79.6539C312.677 78.1141 313.174 76.6674 313.367 75.3325C314.317 68.7755 307.947 64.9173 304.664 65.9735C302.138 66.5956 297.815 69.0886 300.73 74.0837C305.143 80.8306 311.448 74.3723 309.702 71.4062C308.306 69.0333 305.33 69.9765 304.017 70.7447C304.347 70.6388 305.171 70.6019 305.832 71.302C306.659 72.177 307.157 73.7279 305.514 75.3974C304.199 76.733 301.777 75.0781 300.73 74.0837C297.815 69.0886 302.138 66.5956 304.664 65.9735C307.947 64.9173 314.317 68.7755 313.367 75.3325C308.497 86.5909 298.527 82.5031 294.15 79.0519C288.918 74.6498 282.865 63.2865 300.507 53.0494C301.498 53.8716 304.042 55.5638 306.284 55.7552C308.526 55.9467 309.191 54.0595 309.243 53.092C312.043 52.1916 318.602 51.6794 322.44 56.8338C327.238 63.2768 330.896 74.6495 313.618 85.3405C296.34 96.0315 279.851 93.9184 278.53 93.2022C277.21 92.486 264.013 88.744 260.692 80.1147C257.372 71.4854 269.576 73.835 266.963 82.6615C268.931 79.1764 270.461 71.8396 260.83 70.3732C258.963 70.7834 254.869 72.5183 253.429 76.176C244.728 73.0176 227.707 71.4385 216.019 83.5988C212.783 86.9655 209.956 91.3852 207.828 97.1161C205.524 97.5175 201.93 99.5757 203.914 104.649C202.536 105.663 200.211 108.35 201.932 110.991C200.672 112.157 198.746 115.325 201.129 118.665C203.512 122.006 207.525 121.742 209.234 121.192C208.787 121.146 206.752 120.017 206.22 118.363C206.957 118.468 207.725 118.643 208.5 118.908C209.511 119.254 210.535 119.755 211.518 120.458C216.473 123.998 217.808 129.844 218.316 134.814C218.824 139.784 216.867 147.259 214.9 151.314C213.532 153.275 208.455 157.38 199.095 158.109C187.394 159.019 177.318 151.421 175.319 143.508C173.319 135.595 174.113 124.501 184.982 121.006C187.975 120.043 190.483 120.145 192.554 120.819C189.253 117.899 179.656 114.276 167.68 123.147C152.711 134.237 151.124 156.423 166.012 175.593L166.663 172.532C166.008 171.624 165.279 170.507 164.531 169.224L166.815 167.919C168.677 170.885 173.103 177.303 175.912 179.255Z" fill="url(#paint0_linear_2:211)"/>
<path d="M263.508 144.809C265.484 144.174 265.983 145.724 266.316 146.758C266.981 148.826 264.182 150.296 262.368 149.739C260.553 149.182 256.586 145.324 259.375 140.434C260.58 139.095 263.98 136.785 267.94 138.25C271.24 139.47 277.286 144.257 275.071 153.64C272.301 165.369 259.109 163.337 256.795 161.229M256.795 161.229C254.482 159.121 247.375 152.279 251.142 143.652C254.91 135.025 254.9 131.605 260.164 127.631C265.428 123.656 277.17 126.283 283.256 133.324C286.729 137.341 296.353 160.486 271.821 170.657M256.795 161.229C253.11 159.942 245.898 154.807 246.53 144.565C247.319 131.762 254.549 123.732 258.825 120.076C263.1 116.419 284.363 116.425 289.513 130.741M231.38 150.007C234.363 155.893 243.759 168.159 257.479 170.136C259.292 170.123 264.005 169.748 268.353 168.35C273.788 166.602 274.301 173.282 262.438 175.386C250.576 177.49 240.173 170.568 237.855 166.75M296.42 125.097C290.098 103.743 261.903 100.832 250.041 102.935C240.552 104.618 237.865 110.844 237.709 113.747C232.829 113.491 229.639 116.342 228.654 117.799C225.256 120.794 219.586 128.93 224.093 137.52C229.727 148.257 234.007 146.31 235.161 146.509M288.7 134.996C289.451 128.289 299.689 114.92 322.389 134.651M291.028 142.233C294.583 136.336 306.216 126.738 324.305 135.524C329.202 137.752 339.597 145.78 342.01 160.063C342.78 160.196 345.179 161.44 348.618 165.353C350.969 168.029 353.433 176.125 351.414 184.22M298.742 189.95C307.446 198.369 333.239 207.377 345.696 181.695M298.742 189.95C294.765 182.673 292.235 167.148 307.062 164.091C318.923 161.645 323.527 172.092 323.929 178.427M298.742 189.95C301.389 193.662 306.678 198.909 314.166 201.532M298.742 189.95C301.263 197.226 313.189 212.159 340.718 213.68M293.355 149.471C297.297 144.21 308.117 135.026 319.868 140.374M351.414 184.22C349.741 190.928 344.989 197.636 334.541 201.254C326.637 203.992 319.783 203.5 314.166 201.532M351.414 184.22C351.855 169.316 342.364 162.859 337.564 161.493C337.929 150.423 330.207 143.704 326.301 141.728C312.969 136.888 304.725 148.096 301.939 154.126C298.139 150.784 296.114 153.527 294.852 154.123C294.406 156.791 293.657 159.173 292.678 161.301C285.476 176.962 265.825 178.86 262.78 179.839C259.322 180.951 255.521 177.61 248.605 179.835C241.688 182.059 235.56 171.48 234.576 173.508C233.593 175.536 230.315 182.294 226.856 183.406C223.892 184.36 210.229 191.035 200.833 190.635C193.315 190.314 181.197 183.259 175.912 179.255C173.103 177.303 168.677 170.885 166.815 167.919M314.366 177.51C313.321 177.085 311.233 176.92 311.24 179.656C311.25 183.075 318.846 188.048 323.929 178.427M323.929 178.427C329.012 168.806 312.154 151.982 298.011 163.946C288.318 172.145 289.784 183.99 293.795 192.886C295.636 196.97 298.014 200.432 300.095 202.635C304.292 207.078 317.42 216.689 340.718 213.68M357.53 169.333C361.77 172.912 368.018 182.958 359.083 194.503C347.914 208.933 324.641 211.283 314.166 201.532M340.718 213.68C342.868 213.403 345.105 213.018 347.429 212.511C374.94 206.516 380.373 186.116 376.117 176.275C378.188 177.064 383.163 177.501 386.493 172.939C389.823 168.376 388.999 164.346 388.171 162.901M366.922 168.023C374.339 167.92 390.354 165.621 395.078 157.257C399.803 148.892 397.234 141.923 395.359 139.483C408.722 110.657 387.59 77.1564 352.497 77.4007C355.719 70.4698 358.597 53.9906 344.326 43.5207C326.488 30.4332 304.089 37.0663 296.85 41.6764C289.61 46.2865 277.291 62.227 284.084 74.8736M389.924 141.231C391.251 144.227 391.386 149.373 387.82 155.028C384.209 160.752 371.53 165.401 358.162 159.432L356.333 153.745M347.421 149.766C351.686 153.339 363.263 159.161 375.454 153.871C387.645 148.581 384.898 140.376 382.001 136.934M284.084 74.8736C289.518 84.9909 296.92 87.0982 299.941 86.8873M284.084 74.8736C287.404 79.1188 292.178 79.428 294.15 79.0519M299.941 86.8873L298.943 83.7851C301.435 85.4165 307.397 86.8898 311.589 79.9926M299.941 86.8873C303.393 87.5921 310.555 87.1999 311.589 79.9926M300.73 74.0837C297.815 69.0886 302.138 66.5956 304.664 65.9735C307.947 64.9173 314.317 68.7755 313.367 75.3325M300.73 74.0837C301.777 75.0781 304.199 76.733 305.514 75.3974C307.157 73.7279 306.659 72.177 305.832 71.302C305.171 70.6019 304.347 70.6388 304.017 70.7447C305.33 69.9765 308.306 69.0333 309.702 71.4062C311.448 74.3723 305.143 80.8306 300.73 74.0837ZM294.15 79.0519C288.918 74.6498 282.865 63.2865 300.507 53.0494C301.498 53.8716 304.042 55.5638 306.284 55.7552C308.526 55.9467 309.191 54.0595 309.243 53.092C312.043 52.1916 318.602 51.6794 322.44 56.8338C327.238 63.2768 330.896 74.6495 313.618 85.3405C296.34 96.0315 279.851 93.9184 278.53 93.2022C277.21 92.486 264.013 88.744 260.692 80.1147C257.372 71.4854 269.576 73.835 266.963 82.6615C268.931 79.1764 270.461 71.8396 260.83 70.3732C258.963 70.7834 254.869 72.5183 253.429 76.176C244.728 73.0176 227.707 71.4385 216.019 83.5988M294.15 79.0519C298.527 82.5031 308.497 86.5909 313.367 75.3325M207.828 97.1161C205.524 97.5175 201.93 99.5757 203.914 104.649M207.828 97.1161C206.722 102.447 207.643 113.517 220.171 115.155C222.946 114.722 228.901 112.243 230.525 105.789C232.555 97.7203 224.814 93.935 223.076 94.4938C221.339 95.0527 215.41 96.9594 217.239 102.646C219.566 109.883 225.706 105.34 224.165 103.841C220.198 99.9829 223.172 102.449 221.685 101.216M207.828 97.1161C209.956 91.3852 212.783 86.9655 216.019 83.5988M207.367 109.243L204.887 106.618C204.474 105.917 204.153 105.261 203.914 104.649M203.914 104.649C202.536 105.663 200.211 108.35 201.932 110.991M201.932 110.991C203.654 113.632 205.183 114.319 205.732 114.332M201.932 110.991C200.672 112.157 198.746 115.325 201.129 118.665M201.129 118.665C203.512 122.006 207.525 121.742 209.234 121.192C208.787 121.146 206.752 120.017 206.22 118.363M201.129 118.665C202.491 118.227 205.437 117.86 208.5 118.908M208.5 118.908C209.511 119.254 210.535 119.755 211.518 120.458C216.473 123.998 217.808 129.844 218.316 134.814C218.824 139.784 216.867 147.259 214.9 151.314C213.532 153.275 208.455 157.38 199.095 158.108C187.394 159.019 177.318 151.421 175.319 143.508C173.319 135.595 174.113 124.501 184.982 121.006C187.975 120.043 190.483 120.145 192.554 120.819M208.5 118.908C208.019 118.192 207.552 116.6 209.528 115.964C211.998 115.17 215.794 116.802 218.44 119.943C220.557 122.457 222.197 127.671 222.753 129.964M253.835 163.891C247.842 162.206 235.581 155.273 234.487 141.022C233.393 126.771 242.661 116.717 247.433 113.471M191.129 138.424C190.327 134.574 187.935 135.838 186.839 136.951C184.706 140.489 189.708 147.917 196.254 144.191C205.471 138.945 200.996 130.117 200.663 129.083C200.422 128.333 198.004 122.593 192.554 120.819M192.554 120.819C189.253 117.899 179.656 114.276 167.68 123.147C152.711 134.237 151.124 156.423 166.012 175.593L166.663 172.532C166.008 171.624 165.279 170.507 164.531 169.224M159.485 140.044C155.684 150.034 160.405 162.153 164.531 169.224M164.531 169.224L166.815 167.919M166.815 167.919C164.056 163.863 158.996 153.777 160.82 145.889M206.562 176.242C199.261 178.401 181.775 177.483 170.245 156.549M216.019 83.5988C212.689 88.4988 207.348 99.6928 212.63 105.269C219.233 112.239 220.793 109.489 224.013 108.453C222.597 110.833 218.539 114.147 213.628 108.371M228.232 84.2793C232.784 81.4841 244.829 77.9145 256.588 85.9982C254.664 85.6662 251.049 85.726 251.98 88.621M251.98 88.621C250.108 87.3215 244.882 85.1993 238.954 87.1059M251.98 88.621C252.884 88.9006 255.504 90.1115 258.749 92.7187C262.805 95.9777 279.694 103.135 298.523 103.014C311.796 102.928 318.752 95.8001 321.241 88.8142C331.448 89.3153 333.164 72.096 332.025 65.4772C331.743 61.722 329.04 57.7683 326.849 55.2682M336.255 110.779C337.218 110.089 338.497 108.232 335.913 106.325C332.684 103.941 330.223 108.155 330.722 109.706C331.221 111.257 331.287 118.244 339.907 114.535C342.308 112.689 345.61 107.542 339.601 101.717C332.089 94.4351 326.067 95.2312 322.119 98.2121C318.171 101.193 312.71 114.725 326.253 124.63C327.879 125.819 329.464 126.823 331.003 127.666M331.003 127.666C342.285 133.847 351.042 131.352 354.453 129.252C358.934 125.651 364.821 116.855 352.514 110.48M331.003 127.666C330.809 130.702 331.673 137.099 336.676 138.391C342.929 140.006 357.225 145.472 364.447 134.023C370.224 124.864 366.322 118.969 363.65 117.166M311.589 79.9926C311.656 79.8818 311.723 79.769 311.789 79.6539C312.677 78.1141 313.174 76.6674 313.367 75.3325M294.643 52.8915C295.806 51.3024 298.743 48.9602 302.466 50.9279C307.12 53.3874 306.66 51.7461 309.158 49.6975C311.657 47.6489 320.079 46.9018 325.165 53.5207C325.639 53.9591 326.223 54.5544 326.849 55.2682M326.849 55.2682C331.026 63.4882 330.657 85.8001 308.761 92.7099" stroke="url(#paint1_radial_2:211)" stroke-width="0.355729" stroke-linecap="round" stroke-linejoin="round"/>
<path d="M168.972 185.308C166.6 186.375 161.857 187.442 161.857 183.174C162.569 182.462 166.837 182.462 163.636 177.838C160.434 173.213 154.742 168.233 146.916 170.723C139.09 173.213 141.581 179.616 141.936 180.683C142.292 181.75 146.205 188.51 151.897 183.174C152.797 182.329 153.372 181.485 153.687 180.683C151.136 191.213 141.47 186.731 136.956 183.174C132.806 186.257 121.019 189.221 107.075 176.415C104.602 171.16 96.92 164.08 84.3081 171.832C82.4043 173.003 80.3882 174.511 78.2607 176.415C78.6165 174.887 80.7508 170.472 86.4425 165.031C93.5571 158.229 112.411 160.406 121.66 167.877C129.059 173.854 132.332 167.047 133.043 162.897V156.849C135.604 155.71 137.668 154.24 138.379 153.647C144.071 148.81 154.031 150.209 158.3 151.513C160.434 152.225 165.557 154.573 168.972 158.272C173.24 162.897 178.576 178.906 196.007 177.838C199.446 177.245 206.394 176.983 206.679 180.683C206.964 184.383 203.477 186.02 201.699 186.375C200.875 187.055 199.795 187.776 198.497 188.449C192.324 191.65 181.199 193.773 168.972 185.308Z" fill="url(#paint2_linear_2:211)"/>
<path d="M201.699 186.375C203.477 186.02 206.964 184.383 206.679 180.683C206.394 176.983 199.446 177.245 196.007 177.838C178.576 178.906 173.24 162.897 168.972 158.272C165.557 154.573 160.434 152.225 158.3 151.513C154.031 150.209 144.071 148.81 138.379 153.647C137.668 154.24 135.604 155.71 133.043 156.849V162.897M201.699 186.375C196.292 187.229 192.094 183.647 190.671 181.75M201.699 186.375C200.875 187.055 199.795 187.776 198.497 188.449M168.972 185.308C170.632 184.715 172.742 182.391 167.904 177.838M168.972 185.308C166.6 186.375 161.857 187.442 161.857 183.174C162.569 182.462 166.837 182.462 163.636 177.838C160.434 173.213 154.742 168.233 146.916 170.723C139.09 173.213 141.581 179.616 141.936 180.683M168.972 185.308C181.199 193.773 192.324 191.65 198.497 188.449M141.936 180.683C142.292 181.75 146.205 188.51 151.897 183.174C152.797 182.329 153.372 181.485 153.687 180.683M141.936 180.683C139.365 178.786 138.379 172.501 144.426 167.877M149.762 180.683C146.378 181.822 146.455 179.261 146.916 177.838C149.726 173.346 155.368 176.416 153.687 180.683M136.956 183.174C141.47 186.731 151.136 191.213 153.687 180.683M136.956 183.174C132.806 186.257 121.019 189.221 107.075 176.415C104.602 171.16 96.92 164.08 84.3081 171.832M136.956 183.174C132.118 176.629 136.837 170.249 139.802 167.877C142.055 165.979 148.268 162.896 155.098 165.742M84.3081 171.832C82.4043 173.003 80.3882 174.511 78.2607 176.415C78.6165 174.887 80.7508 170.472 86.4425 165.031C93.5571 158.229 112.411 160.406 121.66 167.877C129.059 173.854 132.332 167.047 133.043 162.897M84.3081 171.832C86.3239 167.668 94.7666 161.047 112.411 167.877C117.51 173.331 128.774 180.968 133.043 167.877M133.043 167.877C137.075 163.134 147.913 155.711 159.011 163.964M133.043 167.877V162.897M133.043 162.897C136.245 158.154 145.92 150.589 159.011 158.272M183.912 178.904C185.217 182.777 189.96 190.108 198.497 188.449" stroke="url(#paint3_radial_2:211)" stroke-width="0.355729"/>
<path d="M386.083 68.0735C397.751 87.1406 379.324 93.8046 368.652 94.7532C368.644 94.8495 368.633 94.9446 368.621 95.0385C368.354 97.1747 367.314 98.6847 365.934 99.7332C360.751 103.669 356.249 99.8837 354.067 99.7332C348.72 100.773 345.199 98.7437 344.107 97.5988C345.648 98.6662 349.799 99.5913 354.067 94.7532C355.846 94.9903 360.751 94.1974 360.751 88.7904C352.214 95.0512 342.921 93.7706 339.127 86.5714C325.11 59.976 371.498 44.2397 386.083 68.0735Z" fill="url(#paint4_radial_2:211)"/>
<path d="M354.067 99.7332C363.737 99.7332 364.664 94.2786 363.737 92.6186C374.888 85.2193 368.383 80.0494 363.737 78.3895M354.067 99.7332C356.249 99.8837 360.751 103.669 365.934 99.7332C367.314 98.6847 368.354 97.1747 368.621 95.0385C368.633 94.9446 368.644 94.8495 368.652 94.7532C379.324 93.8046 397.751 87.1406 386.083 68.0735C371.498 44.2397 325.11 59.976 339.127 86.5714C342.921 93.7706 352.214 95.0512 360.751 88.7904M354.067 99.7332C348.72 100.773 345.199 98.7437 344.107 97.5988C345.648 98.6662 349.799 99.5913 354.067 94.7532C355.846 94.9903 360.751 94.1974 360.751 88.7904M360.751 88.7904C365.571 85.2556 364.98 81.2733 363.737 78.3895M363.737 78.3895C362.937 76.5332 361.309 75.097 359.403 74.4479M359.403 74.4479C357.715 73.8728 355.808 72.5776 354.067 73.494C347.309 77.0513 355.49 81.2353 355.846 80.5238C353.959 78.9633 352.029 75.5635 359.403 74.4479Z" stroke="url(#paint5_radial_2:211)" stroke-width="0.355729"/>
<path d="M379.792 106.926C383.349 107.756 391.246 111.124 394.377 117.954C398.29 126.492 416.432 127.559 421.768 123.646C426.037 120.515 429.238 116.531 429.238 112.262C429.357 108.942 428.029 102.444 421.768 103.013C421.412 100.642 419.491 95.8988 414.653 95.8988C409.815 95.8988 408.369 98.982 408.25 100.524C404.219 101.591 398.005 105.717 405.404 113.685C408.132 116.057 414.511 119.662 418.211 115.108C420.92 111.773 421.31 108.927 420.451 106.926C419.845 105.513 418.616 104.522 417.143 104.081C413.586 103.013 412.519 104.792 412.875 106.926C413.586 107.401 415.223 108.065 416.076 106.926C416.551 107.994 416.574 110.057 412.875 109.772C408.25 109.417 410.029 100.168 417.143 104.081C418.616 104.522 419.845 105.513 420.451 106.926C421.009 106.689 422.337 106.571 423.191 107.994C424.258 109.772 422.835 119.733 410.74 119.733C398.646 119.733 391.887 106.571 398.646 95.8988C398.764 89.2586 404.622 76.6895 427.104 79.5353C430.661 80.2468 438.558 83.0926 441.689 88.7843C446.432 87.1242 457.625 86.7922 464.455 98.7447C472.993 113.685 463.744 120.444 454.851 125.069C445.958 129.693 438.843 139.654 440.266 148.547C441.689 157.44 444.179 163.132 450.226 165.622C441.926 167.875 424.614 166.76 421.768 144.278C409.945 145.495 399.821 141.817 392.598 137.446C384.914 135.964 379.91 131.423 378.369 129.337C382.069 125.638 378.962 121.393 376.946 119.733C363.001 112.049 356.991 121.037 355.729 126.492C355.729 122.838 357.521 119.277 358.417 117.954C359.289 114.3 356.989 114.534 355.729 115.108C356.443 113.694 357.812 111.896 359.871 110.276C363.853 107.143 370.413 104.675 379.792 106.926Z" fill="url(#paint6_radial_2:211)"/>
<path d="M417.143 104.081C413.586 103.013 412.519 104.792 412.875 106.926C413.586 107.401 415.223 108.065 416.076 106.926C416.551 107.994 416.574 110.057 412.875 109.772C408.25 109.417 410.029 100.168 417.143 104.081ZM417.143 104.081C418.616 104.522 419.845 105.513 420.451 106.926M420.451 106.926C421.31 108.927 420.92 111.773 418.211 115.108C414.511 119.662 408.132 116.057 405.404 113.685C398.005 105.717 404.219 101.591 408.25 100.524C408.369 98.982 409.815 95.8988 414.653 95.8988C419.491 95.8988 421.412 100.642 421.768 103.013C428.029 102.444 429.357 108.942 429.238 112.262C429.238 116.531 426.037 120.515 421.768 123.646C416.432 127.559 398.29 126.492 394.377 117.954C391.246 111.124 383.349 107.756 379.792 106.926C370.413 104.675 363.853 107.143 359.871 110.276M420.451 106.926C421.009 106.689 422.337 106.571 423.191 107.994C424.258 109.772 422.835 119.733 410.74 119.733C398.646 119.733 391.887 106.571 398.646 95.8988C398.764 89.2586 404.622 76.6895 427.104 79.5353C430.661 80.2468 438.558 83.0926 441.689 88.7843C446.432 87.1242 457.625 86.7922 464.455 98.7447C472.993 113.685 463.744 120.444 454.851 125.069C445.958 129.693 438.843 139.654 440.266 148.547C441.689 157.44 444.179 163.132 450.226 165.622M450.226 165.622C456.274 168.112 467.301 169.535 473.349 165.622M450.226 165.622C441.926 167.875 424.614 166.76 421.768 144.278M421.768 144.278C425.918 144.752 434.432 143.495 435.286 134.673M421.768 144.278C409.945 145.495 399.821 141.817 392.598 137.446M435.286 134.673C424.471 140.934 415.128 137.282 411.808 134.673C401.847 140.365 391.531 133.488 387.618 129.337C390.235 126.492 385.738 116.531 381.698 113.685C377.658 110.839 370.314 107.994 359.871 110.276M435.286 134.673C438.962 133.25 446.242 127.772 445.958 117.243C445.644 115.938 444.945 114.32 443.823 113.379M358.417 117.954C362.325 111.409 372.804 111.848 376.946 114.397C381.786 117.375 384.006 120.147 384.744 122.522C385.698 125.592 384.176 128 382.638 129.337C384.575 131.598 387.999 134.662 392.598 137.446M358.417 117.954C359.289 114.3 356.989 114.534 355.729 115.108C356.443 113.694 357.812 111.896 359.871 110.276M358.417 117.954C357.521 119.277 355.729 122.838 355.729 126.492C356.991 121.037 363.001 112.049 376.946 119.733C378.962 121.393 382.069 125.638 378.369 129.337C379.91 131.423 384.914 135.964 392.598 137.446M443.823 113.379C442.397 112.183 440.287 112.082 437.42 115.108C441.12 100.025 430.661 99.1005 424.969 100.524C424.685 98.0574 421.839 95.2271 420.451 94.1202C410.242 89.8514 408.25 98.3889 407.539 98.7447C406.97 99.0293 404.456 100.049 403.27 100.524C403.27 98.7451 403.981 91.2744 413.586 89.14C421.27 87.4325 425.8 92.9344 427.104 95.8988C429.238 94.4759 434.859 92.9819 440.266 98.3889C442.4 101.505 446.1 108.866 443.823 113.379Z" stroke="url(#paint7_radial_2:211)" stroke-width="0.355729"/>
<path d="M459.185 143.754C459.913 147.853 464.322 155.266 476.136 152.135C477.543 151.762 478.83 151.313 480.005 150.803C488.699 147.036 491.306 140.005 491.474 136.589C492.012 131.438 489.443 119.443 476.377 116.659C463.31 113.875 453.296 119.175 449.952 124.443C449.134 125.733 446.61 129.206 445.423 133.893C442.857 135.911 438.042 141.766 439.314 149.043C440.904 158.14 456.974 182.266 485.465 165.133C493.37 167.828 521.8 168.59 541.304 154.132C549.594 147.987 556.88 142.491 567.944 135.422C577.604 129.25 595.982 125.309 612.268 125.383C623.712 125.435 644.532 130.649 662.532 131.219C662.572 131.221 662.609 131.222 662.643 131.223C670.219 131.455 677.29 130.86 682.945 128.705C696.682 123.472 701.597 117.946 705.1 112.998C707.306 109.881 708.952 106.994 711.888 104.552C722.642 101.596 730.719 100.802 738.24 104.785C743.449 112.488 738.215 116.209 736.577 116.833C734.939 117.457 731.093 117.21 731.402 113.097C731.259 111.63 731.891 108.802 735.557 109.232C733.159 107.862 728.411 108.53 726.63 112.062C724.849 115.594 725.229 116.591 727.84 120.162C731.106 123.483 740.493 122.19 742.797 116.746C745.64 110.027 740.756 105.919 738.24 104.785C733.943 98.4318 723.284 95.0734 711.888 104.552C708.952 106.994 707.306 109.881 705.1 112.998C696.441 119.158 680.455 122.717 673.544 123.726C671.029 123.829 668.523 123.834 666.041 123.76C652.91 122.133 633.082 113.721 610.632 112.88C583.354 111.859 544.939 125.922 517.113 151.363C501.744 163.547 493.957 152.955 493.301 149.591C488.956 152.959 480.432 158.489 467.916 157.55C457.903 156.799 451.398 149.575 449.975 139.274C449.311 130.966 458.309 120.118 472.815 123.723C487.32 127.329 489.693 140.123 480.005 150.803C478.83 151.313 477.543 151.762 476.136 152.135C463.98 151.744 460.781 142.956 460.701 138.612C459.444 140.148 458.792 142.057 459.185 143.754Z" fill="url(#paint8_linear_2:211)"/>
<path d="M469.964 142.501C471.286 141.047 472.899 137.731 468.778 136.105C465.71 134.895 462.55 136.35 460.7 138.612M476.136 152.135C464.322 155.266 459.913 147.853 459.185 143.754C458.792 142.057 459.444 140.148 460.7 138.612M476.136 152.135C463.98 151.744 460.781 142.956 460.7 138.612M476.136 152.135C477.543 151.762 478.83 151.313 480.005 150.803M445.653 144.344C448.715 154.022 456.145 162.035 464.573 162.819C466.906 163.739 473.263 164.349 481.889 160.671M445.653 144.344C444.445 140.524 444.649 136.95 445.423 133.893M445.653 144.344C446.222 153.715 450.194 159.545 452.109 161.289C467.188 171.98 478.245 165.332 481.889 160.671M480.005 150.803C488.699 147.036 491.306 140.005 491.474 136.589C492.012 131.438 489.443 119.443 476.377 116.659C463.31 113.875 453.296 119.175 449.952 124.443C449.134 125.733 446.61 129.206 445.423 133.893M480.005 150.803C489.693 140.123 487.32 127.329 472.815 123.723C458.309 120.118 449.311 130.966 449.975 139.274C451.398 149.575 457.903 156.799 467.916 157.55C480.432 158.489 488.956 152.959 493.301 149.591C493.957 152.955 501.744 163.547 517.113 151.364C544.939 125.922 583.354 111.859 610.632 112.88C637.91 113.902 661.317 126.101 673.544 123.726M445.423 133.893C442.857 135.911 438.042 141.766 439.314 149.043C440.904 158.14 456.974 182.266 485.465 165.133C493.37 167.828 521.8 168.59 541.304 154.132C549.594 147.987 556.88 142.491 567.944 135.422C577.604 129.25 595.982 125.309 612.268 125.383C623.736 125.435 644.618 130.67 662.643 131.223M711.888 104.552C723.284 95.0734 733.943 98.4318 738.24 104.785M711.888 104.552C708.952 106.994 707.306 109.881 705.1 112.998M711.888 104.552C722.642 101.596 730.719 100.802 738.24 104.785M738.24 104.785C743.449 112.488 738.215 116.209 736.577 116.833C734.939 117.457 731.093 117.21 731.402 113.097C731.259 111.63 731.891 108.802 735.557 109.232C733.159 107.862 728.411 108.53 726.63 112.062C724.849 115.594 725.229 116.591 727.84 120.162C731.106 123.483 740.493 122.19 742.797 116.746C745.64 110.027 740.756 105.919 738.24 104.785ZM673.544 123.726C680.455 122.717 696.441 119.158 705.1 112.998M673.544 123.726C655.074 124.485 637.079 119.926 625.707 117.981C601.004 114.855 590.786 117.69 588.766 119.498M705.1 112.998C701.597 117.946 696.682 123.472 682.945 128.705C677.29 130.86 670.219 131.455 662.643 131.223M588.766 119.498C565.38 122.129 545.437 135.436 540.38 140.216C535.323 144.997 522.501 157.301 511.034 161.67C501.86 165.165 490.593 161.086 486.106 158.61C484.649 159.413 483.241 160.094 481.889 160.671M588.766 119.498C612.151 116.868 658.252 131.187 662.643 131.223" stroke="url(#paint9_radial_2:211)" stroke-width="0.355729" stroke-linecap="round" stroke-linejoin="round"/>
<defs>
<linearGradient id="paint0_linear_2:211" x1="395.665" y1="103.126" x2="163.334" y2="177.844" gradientUnits="userSpaceOnUse">
<stop/>
<stop offset="0.304166" stop-color="#413B47"/>
<stop offset="0.523916" stop-color="#655866"/>
<stop offset="0.714413" stop-color="#625664"/>
<stop offset="1" stop-color="#141216"/>
</linearGradient>
<radialGradient id="paint1_radial_2:211" cx="0" cy="0" r="1" gradientUnits="userSpaceOnUse" gradientTransform="translate(224.673 112.953) rotate(72.1721) scale(46.6487 78.2605)">
<stop stop-color="#857800"/>
<stop offset="1" stop-color="#FFF065"/>
</radialGradient>
<linearGradient id="paint2_linear_2:211" x1="116.679" y1="158.45" x2="167.193" y2="176.592" gradientUnits="userSpaceOnUse">
<stop/>
<stop offset="0.403125" stop-color="#625664"/>
<stop offset="0.694791" stop-color="#968387"/>
<stop offset="0.979939" stop-color="#231F26"/>
</linearGradient>
<radialGradient id="paint3_radial_2:211" cx="0" cy="0" r="1" gradientUnits="userSpaceOnUse" gradientTransform="translate(165.51 160.934) rotate(90) scale(10.666 41.1857)">
<stop stop-color="#857800"/>
<stop offset="1" stop-color="#FFF065"/>
</radialGradient>
<radialGradient id="paint4_radial_2:211" cx="0" cy="0" r="1" gradientUnits="userSpaceOnUse" gradientTransform="translate(380.672 89.1456) rotate(-67.8467) scale(53.7716 67.6293)">
<stop offset="0.139365"/>
<stop offset="0.468117" stop-color="#413B47"/>
<stop offset="0.660554" stop-color="#625664"/>
<stop offset="1" stop-color="#968387"/>
</radialGradient>
<radialGradient id="paint5_radial_2:211" cx="0" cy="0" r="1" gradientUnits="userSpaceOnUse" gradientTransform="translate(372.728 68.1062) rotate(90) scale(11.7503 17.0917)">
<stop stop-color="#857800"/>
<stop offset="1" stop-color="#FFF065"/>
</radialGradient>
<radialGradient id="paint6_radial_2:211" cx="0" cy="0" r="1" gradientUnits="userSpaceOnUse" gradientTransform="translate(420.472 106.869) rotate(-27.4543) scale(71.7568 82.5482)">
<stop offset="0.139189"/>
<stop offset="0.448803" stop-color="#413B47"/>
<stop offset="0.753125" stop-color="#625664"/>
<stop offset="1" stop-color="#968387"/>
</radialGradient>
<radialGradient id="paint7_radial_2:211" cx="0" cy="0" r="1" gradientUnits="userSpaceOnUse" gradientTransform="translate(435.631 102.261) rotate(90) scale(23.1385 37.7174)">
<stop stop-color="#857800"/>
<stop offset="1" stop-color="#FFF065"/>
</radialGradient>
<linearGradient id="paint8_linear_2:211" x1="727.95" y1="70.0745" x2="449.381" y2="176.205" gradientUnits="userSpaceOnUse">
<stop/>
<stop offset="0.404167" stop-color="#413B47"/>
<stop offset="0.753125" stop-color="#625664"/>
<stop offset="1" stop-color="#968387"/>
</linearGradient>
<radialGradient id="paint9_radial_2:211" cx="0" cy="0" r="1" gradientUnits="userSpaceOnUse" gradientTransform="translate(529.964 119.213) rotate(69.1439) scale(26.6564 95.5933)">
<stop stop-color="#857800"/>
<stop offset="1" stop-color="#FFF065"/>
</radialGradient>
</defs>
</svg>
