<svg width="1366" height="1133" viewBox="0 0 1366 1133" fill="none" xmlns="http://www.w3.org/2000/svg">
<g clip-path="url(#clip0_2:211)">
<path d="M1446.86 265.409C1460.95 259.12 1479.63 224.085 1460.54 194.79C1446.08 172.608 1424.73 167.524 1413.43 168.351C1417.86 156.006 1414.64 146.747 1409.17 140.325C1404.51 134.87 1398.23 131.463 1393.62 129.954C1392.2 125.904 1385.14 117.598 1368.25 116.774C1362.65 116.501 1358.47 117.361 1355.39 118.809C1330.24 96.9564 1294.39 121.132 1279.56 136.027C1273.68 134.802 1256.56 142.654 1253.46 175.77C1250.98 202.263 1262.69 208.754 1269.9 210.947C1268.11 217.125 1267.95 219.643 1267.76 223.042C1267.34 244.901 1282.92 250.841 1290.17 251.145C1292.34 255.055 1303.77 262.8 1328.95 259.682C1344.1 272.87 1383.39 292.798 1419.27 267.005C1422.45 268.018 1425.49 268.623 1428.45 268.854C1434.86 269.356 1440.84 268.096 1446.86 265.409Z" fill="url(#paint0_radial_2:211)"/>
<path d="M1299.77 177.509C1302.22 177.603 1304.05 182.054 1299.77 183.705C1294.8 185.622 1290.93 179.643 1291.95 175.098C1292.49 172.673 1295.7 169.061 1300.97 168.871C1307.57 168.633 1319.7 183.616 1305.54 193.249C1304.3 194.088 1303.09 194.695 1301.9 195.107M1280.2 182.054C1279.61 182.164 1289.43 199.417 1301.9 195.107M1281.89 175.098C1282.69 172.292 1279.2 164.312 1283.4 156.556C1287.59 148.799 1298.92 133.067 1321.03 130.589C1343.15 128.111 1360.78 140.747 1366.57 159.252M1286.86 160.887C1286.29 162.544 1285.35 167.013 1286.22 171.632C1287.3 177.406 1283.93 180.692 1286.39 183.219C1288.86 185.746 1285.07 192.128 1301.9 195.107M1278.05 154.569C1277.1 156.924 1276.2 159.986 1275.61 163.418M1288.86 196.371C1275.14 188.846 1273.76 174.281 1275.61 163.418M1357.19 167.649C1356.27 158.634 1349.32 140.899 1328.83 142.079C1326.72 140.26 1320.95 137.577 1314.76 141.392C1307.02 146.16 1302.06 148.083 1302.96 152.894C1303.68 156.744 1301.26 161.514 1299.95 163.418M1342.62 139.498C1347.48 140.976 1356.83 146.55 1360.25 157.778M1360.25 157.778C1360.8 159.555 1361.19 161.474 1361.4 163.54L1360.25 157.778ZM1360.25 157.778C1370.04 156.988 1386.72 158.321 1399.77 165.988M1412.47 230.676C1416.36 231.322 1417.9 228.619 1416.62 226.247M1416.62 226.247C1416.04 225.179 1414.9 224.178 1413.14 223.579C1407.46 221.653 1406.34 229.832 1406.6 234.763C1406.86 239.695 1417.24 249.04 1425.29 249.524C1433.35 250.008 1455.85 242.479 1453.81 220.948C1452.18 203.723 1440.57 201.07 1434.97 201.897C1435.99 194.536 1423.4 189.123 1416.98 187.336C1414.89 180.292 1411.03 174.819 1406.21 170.602M1416.62 226.247C1418.24 226.054 1420.14 223.795 1414.76 216.304C1410.18 212.513 1399.98 207.914 1395.84 219.844C1393.8 217.238 1389.49 214.658 1388.54 225.194C1387.48 236.897 1388.66 247.92 1400.48 257.156C1401.96 258.314 1403.61 259.443 1405.44 260.543C1406.96 261.453 1408.44 262.284 1409.9 263.039M1406.21 170.602C1407.21 169.49 1409.8 168.616 1413.43 168.351M1406.21 170.602C1404.21 168.856 1402.04 167.326 1399.77 165.988M1317.56 225.532C1316.12 224.917 1314.01 221.638 1316.5 219.485C1320.41 216.101 1324.94 219.794 1326.46 223.042C1328.95 228.378 1323.74 239.797 1311.52 234.781C1305.31 232.236 1301.25 226.164 1300.67 219.485M1328.95 259.682C1303.77 262.8 1292.34 255.055 1290.17 251.145C1282.92 250.841 1267.34 244.901 1267.76 223.042C1267.95 219.643 1268.11 217.125 1269.9 210.947M1328.95 259.682C1344.1 272.87 1383.39 292.798 1419.27 267.005M1328.95 259.682C1333.88 259.072 1338.26 257.884 1342.11 256.251M1275.59 203.477C1274.23 205.885 1270.75 207.982 1269.9 210.947M1269.9 210.947C1262.69 208.754 1250.98 202.263 1253.46 175.77C1256.56 142.654 1273.68 134.802 1279.56 136.027C1294.46 121.064 1330.57 96.7332 1355.74 119.115M1347.54 130.278C1347.47 127.984 1348.33 124.65 1351.04 121.863M1413.43 168.351C1424.73 167.524 1446.08 172.608 1460.54 194.79C1479.63 224.085 1460.95 259.12 1446.86 265.409C1440.84 268.096 1434.86 269.356 1428.45 268.854C1425.49 268.623 1422.45 268.018 1419.27 267.005M1413.43 168.351C1417.86 156.006 1414.64 146.747 1409.17 140.325M1409.17 140.325C1404.51 134.87 1398.23 131.463 1393.62 129.954C1392.2 125.904 1385.14 117.598 1368.25 116.774C1359.36 116.34 1354.05 118.763 1351.04 121.863M1409.17 140.325C1411.43 147.059 1414.62 161.26 1409.33 164.199M1382.76 128.667C1385.54 128.147 1391.89 129.215 1395.06 137.652C1396.92 138.081 1401.21 139.956 1403.56 144.03C1406.51 149.123 1410.49 159.064 1399.77 165.988M1360.57 121.863C1358.23 121.194 1353.21 120.85 1351.83 124.827C1350.1 129.798 1349.48 138.878 1358.32 138.22C1359.08 142.283 1368.92 150.513 1374.86 141.434C1376.55 137.465 1377.59 129.435 1368.23 129.062C1364.66 129.503 1359.09 131.686 1365.38 136.9M1409.9 263.039C1413.17 264.739 1416.28 266.052 1419.27 267.005M1409.9 263.039C1377.04 280.522 1351.02 265.799 1342.11 256.251M1342.11 256.251C1362.83 247.458 1368.05 225.746 1359.54 211.659C1349.44 194.956 1324.81 190.929 1310.09 200.987C1302.84 205.942 1300.11 212.999 1300.67 219.485M1300.67 219.485C1301.92 213.319 1308.17 200.987 1323.25 200.987C1342.11 200.987 1353.85 210.947 1352.78 228.378M1352.78 228.378C1351.83 233.951 1347.59 245.595 1338.2 247.587C1337.96 249.248 1336.63 252.781 1333.21 253.635C1328.95 254.702 1302.98 258.615 1290.17 245.453M1352.78 228.378L1349.22 227.311C1348.71 231.09 1347.62 234.13 1346.19 236.56M1290.17 239.05C1296.22 248.655 1326.46 256.251 1331.08 245.453C1334.97 245.541 1342.02 243.644 1346.19 236.56M1346.19 236.56L1342.11 236.56C1339.83 241.682 1330.01 242.014 1325.39 241.54C1324.32 248.299 1313.65 247.587 1304.76 243.674C1297.64 240.544 1294.2 234.544 1293.37 231.935M1263.85 139.09C1257.21 146.442 1245.42 166.979 1251.4 190.315M1296.22 127.351C1298.35 125.928 1333.83 102.334 1351.04 121.863M1275.61 163.418C1274.18 164.315 1271.32 166.662 1271.32 168.871C1271.32 171.632 1274.16 175.356 1272.74 179.287C1271.32 183.219 1272.03 187.114 1275.59 190.671" stroke="#8E7561" stroke-width="0.355729" stroke-linecap="round" stroke-linejoin="round"/>
<path d="M1210.44 214.246C1209.53 213.543 1208.54 212.847 1207.45 212.157C1188.97 200.464 1162.76 205.09 1145.26 211.575C1143 212.41 1140.89 213.276 1138.96 214.142C1132.36 217.105 1127.86 220.066 1126.86 221.789C1113.72 222.412 1088.13 228.965 1079.51 255.494C1064.54 264.433 1060.03 295.47 1105.78 305.403C1112.97 311.998 1133.63 321.281 1158.79 305.656C1161.24 310.227 1172.43 318.265 1197.52 313.852C1222.61 309.439 1223.81 298.744 1221.27 293.948C1225.96 291.452 1234.51 284.095 1231.25 274.635L1228.26 269.241C1238.7 267.752 1258.32 257.784 1255.36 244.783C1253.03 234.621 1241.67 232.491 1237.8 230.044C1236.4 225.362 1230.38 216.578 1217.5 218.898C1215.51 217.346 1213.17 215.793 1210.44 214.246Z" fill="url(#paint1_radial_2:211)"/>
<path d="M1162.62 237.813C1161.65 239.028 1161.22 240.788 1163.67 240.853C1166.72 240.935 1167.15 238.897 1166.68 237.546C1166.22 236.194 1164.21 233.484 1158.75 235.366C1155.71 236.414 1150.8 243.018 1153.22 246.723C1153.73 247.512 1154.75 249.342 1156.63 250.836M1163.12 253.516C1168.54 253.913 1186.93 250.223 1192.96 243.608C1199 236.992 1202.58 222.152 1186.36 216.779C1170.15 211.406 1155.26 214.269 1142.25 223.668C1129.23 233.066 1127.79 246.416 1137.64 259.651C1145.52 270.239 1163.77 273.323 1171.91 273.542C1173.84 273.602 1176.27 273.535 1179 273.279M1163.12 253.516C1160.55 253.328 1158.33 252.177 1156.63 250.836M1163.12 253.516C1174.65 254.077 1198.71 250.624 1202.68 232.321C1207.65 209.443 1169.01 210.287 1167.99 210.637C1166.98 210.986 1136.49 213.555 1128.59 236.689C1122.27 255.196 1138.17 267.405 1146.91 271.197C1154.32 274.409 1172.97 279.029 1188.32 271.809M1217.16 255.68C1218.69 254.329 1220.32 252.607 1221.83 250.612M1217.16 255.68C1214.52 258.971 1211.35 261.692 1207.9 263.932M1217.16 255.68C1218.58 259.823 1212.33 269.272 1209.02 273.479C1191.67 294.218 1167.28 294.015 1157.25 291.322C1156 292.288 1154.67 293.121 1153.29 293.837M1210.44 214.246C1213.17 215.792 1215.51 217.346 1217.5 218.898M1156.63 250.836C1162.12 252.223 1179.08 250.473 1187.99 243.432C1193.08 239.409 1195.45 232.169 1187.14 226.715C1175.31 218.944 1161.92 222.936 1155.96 227.258C1150 231.579 1144.89 241.278 1148.82 248.237C1153.66 256.776 1162.39 260.191 1180.22 257.072C1198.04 253.953 1236.45 230.509 1207.45 212.157C1188.97 200.464 1162.76 205.09 1145.26 211.575M1079.51 255.494C1088.13 228.965 1113.72 222.412 1126.86 221.789C1127.86 220.066 1132.36 217.105 1138.96 214.142M1079.51 255.494C1064.54 264.433 1060.03 295.47 1105.78 305.403M1079.51 255.494C1089.04 252.082 1110.78 247.289 1121.44 255.408C1134.76 265.556 1122.85 284.727 1109 289.501C1095.14 294.274 1076.06 286.07 1084.63 270.359C1093.2 254.648 1115.31 263.945 1110.41 271.68C1105.52 279.414 1097.75 282.092 1096.58 278.714C1095.42 275.335 1095.04 270.932 1102.49 270.63M1138.96 214.142C1135.57 216.346 1128.67 221.771 1128.26 225.844C1117.03 226.183 1093.63 232.184 1089.77 253.469M1138.96 214.142C1140.89 213.276 1143 212.41 1145.26 211.575M1145.26 211.575C1140.29 215.081 1132.69 222.046 1132.4 229.101C1124.79 228.575 1106.39 233.682 1103.31 251.071M1188.32 271.809C1185 272.546 1181.83 273.014 1179 273.279M1188.32 271.809C1194.78 270.373 1201.78 267.913 1207.9 263.932M1179 273.279C1166.14 272.166 1139.3 264.904 1134.78 244.763M1221.83 250.612C1209.96 260.015 1179.02 275.097 1150.3 260.2C1149.05 259.497 1146.25 257.665 1145.06 255.959M1221.83 250.612C1227.67 242.904 1233.02 230.961 1217.5 218.898M1207.9 263.932C1202.45 266.014 1190.11 269.99 1184.41 269.234M1105.78 305.403C1112.97 311.998 1133.63 321.281 1158.79 305.656M1105.78 305.403C1108.02 305.361 1111.37 305.053 1114.91 304.298M1158.79 305.656C1161.24 310.227 1172.43 318.265 1197.52 313.852C1222.61 309.439 1223.81 298.744 1221.27 293.948M1158.79 305.656L1155.54 300.357M1221.27 293.948C1225.96 291.452 1234.51 284.095 1231.25 274.635L1228.26 269.241C1238.7 267.752 1258.32 257.784 1255.36 244.783C1253.03 234.621 1241.67 232.491 1237.8 230.044C1236.4 225.362 1230.38 216.578 1217.5 218.898M1221.27 293.948C1220.28 291.804 1217.1 288.591 1211.48 289.641M1210.77 278.547C1206.92 282.39 1196.11 290.855 1183.57 293.966C1171.04 297.076 1158.16 295.176 1153.29 293.837M1153.29 293.837C1149.47 295.82 1145.25 296.909 1141.31 297.443M1212.61 281.692C1207.65 285.623 1195.31 294.074 1185.56 296.43M1185.56 296.43C1190.93 303.258 1197.47 302.492 1200.07 301.255C1202.53 302.921 1208.74 304.45 1213.29 302.59M1185.56 296.43C1181.29 297.46 1175.94 298.584 1170.32 299.367M1141.31 297.443C1136.22 298.131 1131.59 297.896 1128.84 297.457C1127.6 298.927 1125.94 300.144 1124.06 301.145M1141.31 297.443C1142.74 298.176 1144.34 298.75 1146.07 299.189M1124.06 301.145C1126.85 303.397 1135.16 306.158 1146.07 299.189M1124.06 301.145C1122.72 301.859 1121.27 302.463 1119.78 302.972M1146.07 299.189C1147.35 299.515 1148.7 299.766 1150.11 299.952M1150.11 299.952C1144.84 304.035 1131.39 310.355 1119.78 302.972M1150.11 299.952C1151.34 300.114 1152.61 300.227 1153.91 300.295M1119.78 302.972C1118.17 303.518 1116.52 303.954 1114.91 304.298M1153.91 300.295C1146.76 306.178 1128.93 315.216 1114.91 304.298M1153.91 300.295C1154.45 300.323 1154.99 300.343 1155.54 300.357M1207.43 295.193C1206.07 294.529 1206.73 293.166 1209.92 292.822C1213.12 292.478 1212.91 296.831 1208.52 298.344C1204.13 299.858 1196.74 296.233 1207.16 291.127C1208.73 290.358 1210.17 289.885 1211.48 289.641M1211.48 289.641C1214.62 290.194 1220.26 292.736 1217.63 298.48C1216.69 300.542 1215.13 301.841 1213.29 302.59M1213.29 302.59C1209.48 305.057 1200.97 308.882 1194.94 306.367M1170.32 299.367C1175.94 308.677 1187.91 307.265 1193.18 305.395C1193.74 305.79 1194.32 306.111 1194.94 306.367M1170.32 299.367C1167.03 299.825 1163.65 300.167 1160.34 300.307M1194.94 306.367C1187.56 310.173 1170.3 314.289 1160.34 300.307M1160.34 300.307C1158.72 300.375 1157.11 300.395 1155.54 300.357" stroke="#8E7561" stroke-width="0.355729" stroke-linecap="round" stroke-linejoin="round"/>
<path d="M1067.3 295.474C1076.29 312.786 1104.82 306.733 1111.47 305.196C1118.12 303.66 1127.69 299.607 1130.72 297.43C1135.26 299.27 1147.28 300.73 1159.03 291.842C1168.88 294.115 1192.75 293.828 1209.37 274.493C1230.14 250.324 1244.09 254.59 1252.4 261.173C1260.72 267.757 1242.63 277.772 1235.94 275.918C1239.69 277.651 1249.32 278.563 1257.9 268.35C1268.62 255.585 1249.59 239.844 1230.91 248.17C1227.91 249.33 1220.92 252.746 1216.99 257.125C1212.07 262.6 1200.97 270.962 1193.3 272.848C1185.64 274.733 1171.1 278.61 1157.96 275.579C1160.17 278.344 1161.13 284.995 1147.25 289.475C1140.2 291.753 1132.92 292.471 1126.73 292.451C1123.89 292.442 1121.29 292.277 1119.03 292.036C1116.54 291.77 1114.48 291.41 1113.03 291.065C1117.87 289.389 1128.13 283.57 1130.48 273.7C1133.41 261.363 1119.93 247.487 1089.49 254.576C1076.39 257.627 1068.96 260.337 1064.98 262.43C1061.57 264.227 1060.72 265.568 1061.02 266.279C1061.55 267.102 1061.52 269.28 1057.11 271.404C1053.57 273.111 1048.12 275.164 1042.47 274.964C1039.33 274.853 1036.13 274.046 1033.16 272.099C1034.86 275.547 1036.21 282.917 1028.09 284.807C1017.95 287.17 1014.3 284.269 1013.16 283.15L1017.62 277.455L1012.28 280.593C1009.57 282.606 1006.39 288.056 1015.3 293.751C1024.22 299.447 1046.46 290.949 1056.47 285.988C1059.46 284.423 1065.84 280.701 1067.44 278.336C1064.79 283.015 1063.86 288.857 1067.3 295.474Z" fill="url(#paint2_linear_2:211)"/>
<path d="M1094.83 279.938C1096.45 280.261 1099.62 280.251 1099.33 277.633C1098.95 274.359 1093.08 274.87 1091.18 277.037C1089.28 279.203 1088.44 285.54 1094.33 286.159C1097.48 286.49 1102.14 286.19 1106.63 284.567M1113.03 291.065C1081.25 299.75 1080.64 284.829 1079.49 282.591C1078.34 280.353 1081.59 266.738 1100.46 266.67C1115.56 266.616 1110.87 278.579 1106.63 284.567M1113.03 291.065C1117.87 289.389 1128.13 283.57 1130.48 273.7C1133.41 261.363 1119.93 247.487 1089.49 254.576C1076.39 257.627 1068.96 260.337 1064.98 262.43M1113.03 291.065C1114.48 291.41 1116.54 291.77 1119.03 292.036M1106.63 284.567C1110.53 283.158 1114.3 280.75 1116.84 276.89C1122.29 268.585 1107.78 252.798 1078.88 267.669C1075.3 269.496 1070.34 273.221 1067.44 278.336M1137.75 266.292C1139.16 270.732 1137.38 282.098 1119.03 292.036M1119.03 292.036C1121.29 292.277 1123.89 292.442 1126.73 292.451M1145.48 271.186C1146.49 272.993 1146.9 279.249 1139.28 286.095M1150.7 273.167C1149.33 277.211 1142.6 286.729 1126.73 292.451M1126.73 292.451C1132.92 292.471 1140.2 291.753 1147.25 289.475C1161.13 284.995 1160.17 278.344 1157.96 275.579C1171.1 278.61 1185.64 274.733 1193.3 272.848C1200.97 270.962 1212.07 262.6 1216.99 257.125C1220.92 252.746 1227.91 249.33 1230.91 248.17C1249.59 239.844 1268.62 255.585 1257.9 268.35C1249.32 278.563 1239.69 277.651 1235.94 275.918C1242.63 277.772 1260.72 267.757 1252.4 261.173C1244.09 254.59 1230.14 250.324 1209.37 274.493C1192.75 293.828 1168.88 294.115 1159.03 291.842C1147.28 300.73 1135.26 299.27 1130.72 297.43C1127.69 299.607 1118.12 303.66 1111.47 305.196C1104.82 306.733 1076.29 312.786 1067.3 295.474C1063.86 288.857 1064.79 283.015 1067.44 278.336M1013.16 283.15C1014.3 284.269 1017.95 287.17 1028.09 284.807C1036.21 282.917 1034.86 275.547 1033.16 272.099C1036.13 274.046 1039.33 274.853 1042.47 274.964M1013.16 283.15C1012.61 284.098 1012.18 286.438 1014.91 288.218M1013.16 283.15L1017.62 277.455L1012.28 280.593C1009.57 282.606 1006.39 288.056 1015.3 293.751C1024.22 299.447 1046.46 290.949 1056.47 285.988C1059.46 284.423 1065.84 280.701 1067.44 278.336M1014.91 288.218C1018.32 290.444 1043.04 286.506 1042.47 274.964M1014.91 288.218C1016.52 291.065 1025.03 294.557 1046.19 285.754C1067.34 276.95 1067.53 266.536 1064.98 262.43M1042.47 274.964C1048.12 275.164 1053.57 273.111 1057.11 271.404C1061.52 269.28 1061.55 267.102 1061.02 266.279C1060.72 265.568 1061.57 264.227 1064.98 262.43" stroke="#8E7561" stroke-width="0.355729" stroke-linecap="round" stroke-linejoin="round"/>
<path d="M1015.26 288.67C1024.41 288.539 1042.55 285.613 1041.9 274.951C1041.67 271.191 1037.18 268.598 1030.53 267.152C1013.62 263.475 982.768 267.217 972.656 278.027C974.225 280.384 974.81 285.373 964.605 286.471C951.849 287.844 946.106 289.823 938.254 295.553C935.838 297.316 932.041 299.46 929.699 302.535C926.709 303.222 923.617 303.999 921.734 304.648C917.342 306.162 911.793 308.704 908.22 309.306C901.79 310.388 881.204 308.781 877.956 311.421C872.084 311.932 861.344 311.476 851.896 315.866C856.327 314.465 868.291 312.332 880.704 315.009C896.22 318.355 915.395 314.77 927.092 309.227C938.788 303.684 946.186 297.733 952.268 295.637C955.551 294.505 963.074 293.749 969.608 293.311C972.756 293.1 975.674 292.962 977.779 292.892C977.795 290.745 979.109 285.782 984.235 283.108C990.436 279.873 1005.7 275.641 1011.86 285.233C1012.01 285.585 1012.21 285.921 1012.44 286.237C1013.26 287.355 1013.44 287.784 1015.26 288.67Z" fill="url(#paint3_linear_2:211)"/>
<path d="M1018.12 281.634C1018.25 282.725 1019.31 284.854 1022.56 284.64C1026.63 284.373 1027.92 278.257 1023.05 277.29C1018.18 276.322 1012.79 279.315 1011.69 282.716M1011.69 282.716C1011.28 284.009 1011.71 285.225 1012.44 286.237M1011.69 282.716C1011.63 279.967 1009.08 274.697 999.415 275.608C987.334 276.748 979.459 280.218 976.441 283.526C973.424 286.834 969.895 291.949 969.608 293.311M1015.26 288.67C1024.41 288.539 1042.55 285.613 1041.9 274.951C1041.67 271.191 1037.18 268.598 1030.53 267.152M1015.26 288.67C1013.44 287.784 1013.26 287.355 1012.44 286.237M1015.26 288.67C1017.71 288.474 1024.32 287.105 1031.13 283.197C1037.95 279.289 1033.57 270.872 1030.53 267.152M929.699 302.535C932.041 299.46 935.838 297.316 938.254 295.553C946.106 289.823 951.849 287.844 964.605 286.471C974.81 285.373 974.225 280.384 972.656 278.027C982.768 267.217 1013.62 263.475 1030.53 267.152M972.29 288.736C968.034 288.817 956.395 290.284 949.647 293.516C945.441 295.531 941.298 298.276 936.386 301.101M877.956 311.421C883.827 310.909 903.746 313.871 918.39 309.203C925.731 306.862 931.448 303.941 936.386 301.101M877.956 311.421C872.084 311.932 861.344 311.476 851.896 315.866C856.327 314.465 868.291 312.332 880.704 315.009C896.22 318.355 915.395 314.77 927.092 309.227C938.788 303.684 946.186 297.733 952.268 295.637C955.551 294.505 963.074 293.749 969.608 293.311M877.956 311.421C881.204 308.781 901.79 310.388 908.22 309.306C911.793 308.704 917.342 306.162 921.734 304.648C925.247 303.437 932.966 301.779 936.386 301.101M1012.44 286.237C1006.72 275.358 990.642 279.766 984.235 283.108C979.109 285.782 977.795 290.745 977.779 292.892C975.674 292.962 972.756 293.1 969.608 293.311" stroke="#8E7561" stroke-width="0.355729" stroke-linecap="round" stroke-linejoin="round"/>
<path d="M1255.66 270.633C1248.83 277.144 1240.04 279.041 1234.12 275.033C1265.24 278.673 1257.54 244.283 1227.83 256.79C1198.13 269.296 1214.11 284.955 1224.19 287.904C1232.26 290.263 1243.59 287.142 1248.24 285.287C1253.28 286.321 1266.16 287.349 1277.37 283.183C1291.39 277.976 1317.28 261.872 1310.22 245.783C1304.57 232.912 1290.56 229.25 1284.26 229.028C1277.27 225.61 1267.98 224.891 1262.71 225.116C1258.53 223.684 1255.05 224.519 1253.06 225.796C1244.46 224.527 1232.34 228.906 1227.35 231.255C1228.63 232.327 1228 236.443 1227.53 238.367C1226.74 239.392 1226.89 240.884 1227.23 241.879C1225.95 243.147 1225.75 244.89 1225.96 246.096C1223.1 247.997 1221.84 250.727 1221.58 252.898C1229.81 247.195 1240.71 243.793 1249.66 247.001C1251.33 247.599 1252.93 248.427 1254.43 249.513C1263.99 256.423 1262.49 264.123 1255.66 270.633Z" fill="url(#paint4_radial_2:211)"/>
<path d="M1234.12 275.033C1228.2 271.025 1234.45 262.825 1238.1 265.726C1241.01 268.047 1238.28 268.813 1236.55 268.906C1238.89 269.862 1243.09 270.354 1241.14 264.678C1238.69 257.584 1227.67 262.894 1226.47 267.087C1225.27 271.281 1221.76 281.939 1242.44 281.616C1246.95 281.546 1255.1 278.462 1259.05 275.89C1257.8 277.077 1258.95 277.968 1273.53 272.034C1291.76 264.617 1298.04 248.845 1292.27 236.473C1290.72 233.157 1287.78 230.75 1284.26 229.028M1234.12 275.033C1240.04 279.041 1248.83 277.144 1255.66 270.633C1262.49 264.123 1263.99 256.423 1254.43 249.513C1252.93 248.427 1251.33 247.599 1249.66 247.001M1234.12 275.033C1265.24 278.673 1257.54 244.283 1227.83 256.79C1198.13 269.296 1214.11 284.955 1224.19 287.904C1232.26 290.263 1243.59 287.142 1248.24 285.287C1253.28 286.321 1266.16 287.349 1277.37 283.183C1291.39 277.976 1317.28 261.872 1310.22 245.783C1304.57 232.912 1290.56 229.25 1284.26 229.028M1249.66 247.001C1240.71 243.793 1229.81 247.195 1221.58 252.898C1221.84 250.727 1223.1 247.997 1225.96 246.096M1249.66 247.001C1237.35 242.368 1230.03 243.395 1225.96 246.096M1249.66 247.001C1248.64 245.987 1247.5 245.117 1246.32 244.372M1225.96 246.096C1225.75 244.89 1225.95 243.147 1227.23 241.879M1227.23 241.879C1228.48 240.648 1230.75 239.863 1234.68 240.447C1237.04 240.62 1242 241.656 1246.32 244.372M1227.23 241.879C1226.89 240.884 1226.74 239.392 1227.53 238.367M1246.32 244.372C1240.91 239.887 1234.32 237.797 1231.71 237.313C1229.43 237.012 1228.17 237.535 1227.53 238.367M1227.53 238.367C1228 236.443 1228.63 232.327 1227.35 231.255C1232.34 228.906 1244.46 224.527 1253.06 225.796M1253.06 225.796C1263.81 227.382 1273 231.018 1278.42 241.247M1253.06 225.796C1255.05 224.519 1258.53 223.684 1262.71 225.116M1278.42 241.247C1283.83 251.475 1283.5 263.683 1267.44 273C1262.94 275.181 1254.88 278.236 1258.62 273.015C1258.99 272.508 1260.21 271.559 1262.12 271.811M1278.42 241.247C1273.04 231.235 1267.43 226.732 1262.71 225.116M1262.71 225.116C1267.98 224.891 1277.27 225.61 1284.26 229.028" stroke="#8E7561" stroke-width="0.355729" stroke-linecap="round" stroke-linejoin="round"/>
</g>
<defs>
<radialGradient id="paint0_radial_2:211" cx="0" cy="0" r="1" gradientUnits="userSpaceOnUse" gradientTransform="translate(1380.98 216.978) rotate(-147.315) scale(216.203 539.492)">
<stop offset="0.139365"/>
<stop offset="0.50953" stop-color="#413B47"/>
<stop offset="0.753125" stop-color="#625664"/>
<stop offset="1" stop-color="#968387"/>
</radialGradient>
<radialGradient id="paint1_radial_2:211" cx="0" cy="0" r="1" gradientUnits="userSpaceOnUse" gradientTransform="translate(1173 231.467) rotate(127.2) scale(120.814 139.432)">
<stop offset="0.139365"/>
<stop offset="0.50953" stop-color="#413B47"/>
<stop offset="0.753125" stop-color="#625664"/>
<stop offset="1" stop-color="#968387"/>
</radialGradient>
<linearGradient id="paint2_linear_2:211" x1="1097.71" y1="274.043" x2="1038.44" y2="324.707" gradientUnits="userSpaceOnUse">
<stop/>
<stop offset="0.404167" stop-color="#413B47"/>
<stop offset="0.753125" stop-color="#625664"/>
<stop offset="1" stop-color="#968387"/>
</linearGradient>
<linearGradient id="paint3_linear_2:211" x1="1039.41" y1="267.177" x2="856.804" y2="330.109" gradientUnits="userSpaceOnUse">
<stop/>
<stop offset="0.404167" stop-color="#413B47"/>
<stop offset="0.753125" stop-color="#625664"/>
<stop offset="1" stop-color="#968387"/>
</linearGradient>
<radialGradient id="paint4_radial_2:211" cx="0" cy="0" r="1" gradientUnits="userSpaceOnUse" gradientTransform="translate(1229.89 270.443) rotate(-51.9523) scale(97.9284 99.1059)">
<stop offset="0.0706116"/>
<stop offset="0.50953" stop-color="#413B47"/>
<stop offset="0.753125" stop-color="#625664"/>
<stop offset="1" stop-color="#968387"/>
</radialGradient>
<clipPath id="clip0_2:211">
<rect width="1366" height="1132.64" fill="white"/>
</clipPath>
</defs>
</svg>
