<svg width="500" height="500" viewBox="0 0 500 500" fill="none" xmlns="http://www.w3.org/2000/svg">
<path d="M229.195 61.182C151.693 69.1256 89.9502 122.842 68.0445 192.753C67.4723 194.579 66.9273 196.416 66.41 198.263L86.1865 182.192C110.082 124.461 164.097 81.39 230.568 74.577C232.811 74.3471 235.048 74.1606 237.278 74.0166L255.694 60.3117C246.973 59.9889 238.125 60.2667 229.195 61.182Z" fill="#B0A16E"/>
<path d="M84.5374 343.339C120.583 406.019 191.159 445.048 267.735 437.199C275.179 436.436 282.478 435.25 289.611 433.669L271.14 423.249C269.555 423.455 267.962 423.64 266.362 423.804C200.377 430.567 139.164 399.854 103.926 348.845L81.1671 336.917L84.5374 343.339Z" fill="#B0A16E"/>
<path d="M412.208 343.594C431.4 310.368 440.685 271.008 436.474 229.92C432.212 188.346 414.78 151.306 388.741 122.518L391.256 147.056C408.474 171.08 419.849 199.784 423.079 231.293C426.249 262.223 421.185 292.098 409.661 318.741L412.208 343.594Z" fill="#B0A16E"/>
<path d="M126.775 165.527C179.977 160.074 227.527 198.783 232.98 251.985C238.433 305.188 199.724 352.737 146.522 358.19C93.3194 363.643 45.7697 324.935 40.3167 271.732C34.8637 218.53 73.5723 170.98 126.775 165.527Z" stroke="url(#paint0_linear_101_4929)" stroke-width="5.90063"/>
<path d="M285.599 52.5642C338.801 47.1112 386.351 85.8198 391.804 139.022C397.257 192.225 358.548 239.774 305.346 245.227C252.143 250.68 204.593 211.972 199.14 158.769C193.687 105.567 232.396 58.0172 285.599 52.5642Z" stroke="url(#paint1_linear_101_4929)" stroke-width="5.90063"/>
<path d="M301.703 55.2209C337.411 51.561 369.324 77.5408 372.984 113.248C376.644 148.956 350.664 180.87 314.956 184.53C279.249 188.189 247.335 162.21 243.675 126.502C240.015 90.7944 265.995 58.8807 301.703 55.2209Z" stroke="url(#paint2_linear_101_4929)" stroke-width="2.73114"/>
<path d="M331.706 298.834C367.414 295.174 399.328 321.154 402.987 356.862C406.647 392.569 380.667 424.483 344.96 428.143C309.252 431.803 277.339 405.823 273.679 370.115C270.019 334.408 295.999 302.494 331.706 298.834Z" stroke="url(#paint3_linear_101_4929)" stroke-width="2.73114"/>
<path d="M96.7469 200.412C132.454 196.752 164.368 222.732 168.028 258.439C171.688 294.147 145.708 326.061 110 329.72C74.2928 333.38 42.3791 307.4 38.7193 271.693C35.0594 235.985 61.0392 204.072 96.7469 200.412Z" stroke="url(#paint4_linear_101_4929)" stroke-width="2.73114"/>
<path d="M305.162 243.443C358.364 237.99 405.914 276.699 411.367 329.901C416.82 383.104 378.112 430.653 324.909 436.107C271.707 441.56 224.157 402.851 218.704 349.648C213.251 296.446 251.96 248.896 305.162 243.443Z" stroke="url(#paint5_linear_101_4929)" stroke-width="5.90063"/>
<circle cx="250" cy="250" r="221.062" transform="rotate(-95.8521 250 250)" stroke="url(#paint6_linear_101_4929)" stroke-width="13.7681"/>
<path d="M111.162 172.555C106.559 155.174 110.449 130.695 142.414 136.384C153.677 135.65 165.228 137.656 184.665 125.543C179.512 124.579 172.558 124.552 168.147 122.735C162.557 119.399 149.583 121.148 146.236 119.253C142.89 117.358 141.618 118.253 140.114 115.957C138.91 114.119 137.625 107.493 137.132 104.41C137.704 100.518 140.787 100.756 142.257 101.362C142.257 101.362 144.942 105.177 146.083 106.163C146.997 106.952 148.075 107.526 148.501 107.715C147.378 106.669 145.922 105.188 145.682 104.321C145.319 103.01 144.463 102.271 142.18 100.298C139.897 98.3258 139.404 98.8965 137.692 97.4172C136.322 96.2337 135.737 95.0643 135.616 94.6275C132.491 88.4386 138.134 88.829 139.484 88.9979C140.563 89.1331 142.683 90.1013 143.609 90.5685L149.407 93.0866C148.85 92.7708 147.612 91.9342 147.124 91.1142C146.515 90.0892 142.39 88.5185 143.506 85.496C144.622 82.4734 147.93 83.8363 148.748 84.044C149.401 84.2103 151.338 84.1225 152.224 84.0578C150.928 80.9439 156.532 80.8024 157.843 80.4394C159.153 80.0764 160.463 79.7134 162.954 80.8686C165.445 82.0237 166.378 83.8272 169.725 85.722C172.402 87.2379 172.276 88.9227 171.878 89.5756C172.676 94.6509 174.017 96.906 174.588 97.3991C180.101 99.6706 177.843 101.707 179.841 103.433C181.838 105.159 190.257 106.951 205.591 108.238C220.926 109.526 227.361 106.115 250.181 107.392C273.001 108.668 276.32 117.516 280.562 120.683C284.803 123.849 291.83 146.865 292.517 148.954C293.13 150.819 295.272 161.946 287.058 170.651C289.602 173.348 297.42 179.505 308.338 182.559C309.969 183.015 312.091 183.48 314.553 184.017C311.591 181.1 308.794 172.686 321.302 162.362C336.938 149.457 369.254 148.97 378.738 150.685C388.221 152.399 427.409 172.802 430.981 210.775C430.106 218.326 425.678 234.103 414.967 236.809C407.538 240.409 393.035 248.696 394.454 253.052C400.871 254.085 414.851 255.748 419.439 254.13C425.174 252.107 436.659 233.623 438.634 220.377C436.721 212.744 432.165 196.847 429.246 194.325C429.558 191.272 431.075 184.94 434.645 184.038C439.109 182.91 437.746 186.218 443.104 186.362C448.461 186.506 448.603 192.111 449.044 194.485C450.964 191.493 455.319 185.952 457.374 187.727C459.942 189.946 480.178 203.443 443.35 248.375C441.096 252.906 437.216 262.512 439.727 264.681C442.866 267.393 442.021 274.139 430.111 275.81C426.012 274.594 415.88 272.785 408.148 275.274C398.482 278.385 394.249 293.667 380.2 288.008C366.152 282.348 357.705 287.51 353.308 282.216C356.974 322.463 323.467 335.676 306.256 337.252C313.753 344.726 314.18 350.577 316.125 355.248C318.07 359.919 313.33 379.248 314.705 383.426C316.079 387.604 322.485 402.109 323.183 411.684C323.881 421.258 320.017 415.925 315.969 415.418C312.731 415.013 307.458 419.694 305.226 422.084C302.653 441.791 272.628 462.697 269.229 463.747C265.83 464.797 263.663 464.42 256.269 462.019C250.353 460.097 252.984 454.861 254.299 453.339C262.05 447.742 276.549 437.876 278.459 436.336C271.31 440.958 255.441 449.941 249.163 448.901C241.314 447.602 244.026 444.463 239.46 440.518C235.807 437.362 242.704 433.686 246.61 432.242C258.558 431.103 270.261 430.25 275.01 429.369C279.758 428.488 288.218 419.849 291.138 415.893C293.474 412.728 297.631 404.725 299.418 401.118C296.756 395.597 293.543 386.152 290.63 381.293C287.683 376.377 285.044 376.155 283.593 389.438C275.933 459.555 200.497 416.395 191.492 406.051C187.99 402.028 177.926 381.372 177.867 354.906C177.811 330.432 184.722 327.936 195.075 326.914C189.421 319.038 189.395 299.798 172.199 288.21C170.472 298.536 161.912 319.045 149.258 318.227C116.216 316.093 106.743 308.905 99.681 287.353C92.6187 265.802 100.596 252.261 93.4896 239.143C92.5903 237.483 88.3456 212.969 80.7281 211.172C78.6005 211.327 77.9521 209.77 77.3813 209.277C76.8106 208.784 69.5328 207.978 68.2224 208.341C67.1741 208.632 65.9349 207.528 65.4464 206.939C64.4739 204.604 61.659 202.67 59.6618 200.945C58.0641 199.564 58.1666 196.33 58.4175 194.886C58.5017 190.174 60.157 189.411 60.9742 189.619C61.1429 188.27 60.4949 186.713 60.0543 184.339C59.7018 182.439 60.2972 181.558 60.639 181.355C62.5804 178.647 66.0228 181.854 67.5013 183.796L69.5472 185.065C68.6791 183.45 67.6011 181.576 66.7365 180.643C66.0106 178.022 63.2347 176.621 64.0657 173.352C64.8967 170.082 68.2045 171.445 69.839 171.861C71.4736 172.276 73.5486 175.066 74.1193 175.559L78.3997 179.257L84.2371 182.307C82.7911 180.289 79.1323 178.217 77.4837 177.433C74.5159 174.869 77.0852 172.319 78.7408 171.364L81.0479 171.578C84.0058 171.807 90.1498 172.464 91.0629 173.253C91.9761 174.042 93.8298 176.973 94.6425 178.34C95.1502 182.367 96.2542 184.55 96.7427 185.138C96.3272 186.773 97.0911 189.71 97.7403 191.482C99.0757 195.128 101.414 197.421 103.451 199.87C105.489 202.318 105.364 210.977 108.582 217.795C108.704 202.745 114.03 183.384 111.162 172.555Z" fill="url(#paint7_radial_101_4929)"/>
<path d="M153.252 239.943C149.056 241.13 139.732 242.737 129.584 241.208M184.665 125.543C165.228 137.656 153.677 135.65 142.414 136.384C110.449 130.695 106.559 155.174 111.162 172.555C114.03 183.384 108.704 202.745 108.582 217.795M184.665 125.543C193.12 120.273 206.923 130.285 212.062 146.319M184.665 125.543C179.512 124.579 172.558 124.552 168.147 122.735C162.557 119.399 149.583 121.148 146.236 119.253C142.89 117.358 141.618 118.253 140.114 115.957C138.91 114.119 137.625 107.493 137.132 104.41C137.704 100.518 140.787 100.756 142.257 101.362C142.257 101.362 144.942 105.177 146.083 106.163C146.997 106.952 148.075 107.526 148.501 107.715M212.178 171.742C214.971 162.584 214.459 153.796 212.062 146.319M165.264 211.448C164.512 215.202 160.849 232.132 182.782 234.435C210.198 237.313 203.802 241.255 205.368 259.055M194.111 178.06C203.184 176.596 219.652 178.2 217.485 194.269C214.536 216.141 223.603 219.49 244.076 214.254M129.584 241.208C125.444 240.585 121.167 239.439 117.045 237.531C110.341 234.426 108.509 226.9 108.582 217.795M129.584 241.208C116.689 251.902 99.3905 276.038 133.347 287.036M165.499 265.974C168.419 275.426 174.08 276.963 172.199 288.21M108.582 217.795C105.364 210.977 105.489 202.318 103.451 199.87C101.414 197.421 99.0757 195.128 97.7403 191.482C97.0911 189.71 96.3272 186.773 96.7427 185.138C96.2542 184.55 95.1502 182.367 94.6425 178.34C93.8298 176.973 91.9761 174.042 91.0629 173.253C90.1498 172.464 84.0058 171.807 81.0479 171.578L78.7408 171.364C77.0852 172.319 74.5159 174.869 77.4837 177.433C79.1323 178.217 82.7911 180.289 84.2371 182.307M84.2371 182.307C85.683 184.325 87.6231 189.54 88.4125 191.895M84.2371 182.307L78.3997 179.257C77.1632 178.189 74.5759 175.953 74.1193 175.559C73.5486 175.066 71.4736 172.276 69.839 171.861C68.2045 171.445 64.8967 170.082 64.0657 173.352C63.2348 176.621 66.0106 178.022 66.7365 180.643C67.6011 181.576 68.6791 183.45 69.5472 185.065M80.3288 198.367C79.1486 196.849 75.4175 194.124 74.907 193.683C74.0508 192.943 71.6129 188.843 71.0033 187.818C70.788 187.456 70.2331 186.341 69.5472 185.065M69.5472 185.065L67.5013 183.796C66.0228 181.854 62.5804 178.647 60.639 181.355C60.2972 181.558 59.7018 182.439 60.0543 184.339C60.4949 186.713 61.1429 188.27 60.9742 189.619M60.9742 189.619C61.255 191.025 62.0526 194.139 62.9968 195.354C64.1771 196.872 66.5379 199.908 68.4577 200.57C69.9934 201.1 72.989 202.824 74.2948 203.62M60.9742 189.619C60.157 189.411 58.5017 190.174 58.4175 194.886C58.1666 196.33 58.0641 199.564 59.6618 200.945C61.659 202.67 64.4739 204.604 65.4464 206.939C65.9349 207.528 67.1741 208.632 68.2224 208.341C69.5328 207.978 76.8106 208.784 77.3813 209.277C77.9521 209.77 78.6005 211.327 80.7281 211.172C88.3456 212.969 92.5903 237.483 93.4896 239.143C100.596 252.261 92.6187 265.802 99.681 287.353C106.743 308.905 116.216 316.093 149.258 318.227C161.912 319.045 170.472 298.536 172.199 288.21M212.062 146.319C217.05 137.473 229.763 120.65 240.709 124.127C254.393 128.474 260.047 136.35 261.33 142.941M242.875 175.837C252.397 178.084 273.878 180.794 283.625 173.666C284.933 172.71 286.07 171.698 287.058 170.651M152.224 84.0578C150.928 80.9439 156.532 80.8024 157.843 80.4394C159.153 80.0764 160.463 79.7134 162.954 80.8686C165.445 82.0237 166.378 83.8272 169.725 85.722C172.402 87.2379 172.276 88.9227 171.878 89.5756C172.676 94.6509 174.017 96.906 174.588 97.3991C180.101 99.6706 177.843 101.707 179.841 103.433C181.838 105.159 190.257 106.951 205.591 108.238C220.926 109.526 227.361 106.115 250.181 107.392C273.001 108.668 276.32 117.516 280.562 120.683C284.803 123.849 291.83 146.865 292.517 148.954C293.13 150.819 295.272 161.946 287.058 170.651M152.224 84.0578C153.37 83.885 156.332 83.9185 159.009 85.4344C162.356 87.3292 164.068 88.8085 164.431 90.1189C164.721 91.1672 167.103 93.7563 168.257 94.9198M152.224 84.0578C151.338 84.1225 149.401 84.2103 148.748 84.0441C147.93 83.8363 144.622 82.4734 143.506 85.496C142.39 88.5185 146.515 90.0891 147.124 91.1142C147.612 91.9342 148.85 92.7708 149.407 93.0866M149.407 93.0866C152.24 94.0386 156.192 94.4632 159.007 96.3968C161.822 98.3304 165.565 101.266 165.856 102.314M149.407 93.0866L143.609 90.5685C142.683 90.1013 140.563 89.1331 139.484 88.9979C138.134 88.829 132.491 88.4386 135.616 94.6275C135.737 95.0643 136.322 96.2337 137.692 97.4172C139.404 98.8965 139.897 98.3258 142.18 100.298C144.463 102.271 145.319 103.01 145.682 104.321C145.922 105.188 147.378 106.669 148.501 107.715M149.754 108.836C150.325 109.329 158.135 110.096 158.705 110.59C159.276 111.083 162.506 111.382 163.077 111.875C163.534 112.269 154.385 110.013 149.754 108.836ZM149.754 108.836C149.561 108.67 149.074 108.249 148.501 107.715M172.199 288.21C189.395 299.798 189.421 319.038 195.075 326.914M195.075 326.914C202.993 337.942 223.763 375.623 257.55 354.976M195.075 326.914C184.722 327.936 177.811 330.432 177.867 354.906C177.926 381.372 187.99 402.028 191.492 406.051C200.497 416.395 275.933 459.555 283.593 389.438C285.044 376.155 287.683 376.377 290.63 381.293M290.63 381.293C293.543 386.152 296.756 395.597 299.418 401.118C297.631 404.725 293.474 412.728 291.138 415.893C288.218 419.849 279.758 428.488 275.009 429.369C270.261 430.25 258.558 431.103 246.61 432.242C242.704 433.686 235.807 437.362 239.46 440.518C244.026 444.463 241.314 447.602 249.163 448.901C255.441 449.941 271.31 440.958 278.459 436.336M290.63 381.293C289.531 379.105 285.542 374.377 278.381 372.975M278.459 436.336C281.411 434.501 290.148 425.005 294.147 420.486M278.459 436.336C276.549 437.876 262.05 447.742 254.299 453.339C252.984 454.861 250.353 460.097 256.269 462.019C263.663 464.42 265.83 464.797 269.229 463.747C272.628 462.697 302.653 441.791 305.226 422.084C307.458 419.694 312.731 415.013 315.969 415.418C320.017 415.925 323.881 421.258 323.183 411.684C322.485 402.109 316.079 387.604 314.705 383.426C313.33 379.248 318.07 359.919 316.125 355.248C314.18 350.577 313.753 344.726 306.256 337.252M306.256 337.252C323.467 335.676 356.974 322.463 353.308 282.216M306.256 337.252L286.444 342.063M287.058 170.651C289.602 173.348 297.42 179.505 308.338 182.559C309.969 183.015 312.091 183.48 314.553 184.017M364.346 231.947C369.284 195.76 332.688 187.968 314.553 184.017M314.553 184.017C311.591 181.1 308.794 172.686 321.302 162.362C336.938 149.457 369.254 148.97 378.738 150.685C388.221 152.399 427.409 172.802 430.981 210.775C430.106 218.326 425.678 234.103 414.967 236.809C407.538 240.409 393.035 248.696 394.454 253.052M394.454 253.052C391.747 251.186 386.434 246.645 386.839 243.407M394.454 253.052C400.871 254.085 414.851 255.748 419.439 254.13C425.174 252.107 436.659 233.623 438.634 220.377C436.721 212.744 432.165 196.847 429.246 194.325C429.558 191.272 431.075 184.94 434.645 184.038C439.109 182.91 437.746 186.218 443.104 186.362C448.462 186.506 448.603 192.111 449.044 194.485M449.044 194.485C443.148 195.77 443.594 200.408 444.553 202.566C448.818 208.244 440.962 231.526 436.501 242.457M449.044 194.485C450.964 191.493 455.319 185.952 457.374 187.727C459.942 189.946 480.178 203.443 443.35 248.375C441.096 252.906 437.216 262.512 439.727 264.681C442.866 267.393 442.021 274.139 430.111 275.81C426.012 274.594 415.88 272.785 408.148 275.274C398.482 278.385 394.249 293.667 380.2 288.008C366.152 282.348 357.705 287.51 353.308 282.216M353.308 282.216L353.506 264.445M155.387 200.142C159.914 188.903 152.035 182.295 147.529 180.395C155.298 203.056 144.242 216.616 137.743 220.563M182.863 168.342C174.339 180.514 162.33 173.84 157.391 168.981C167.993 169.356 191.134 164.648 198.883 142.811M195.359 275.825C195.79 281.015 198.448 290.451 207.899 302.608C222.062 320.825 255.129 344.851 303.975 298.122C321.407 281.068 333.95 251.316 314.245 221.054C303.964 208.962 290.013 192.466 262.568 192.851M200.865 374.777C199.406 372.427 198.15 367.767 204.792 367.924C213.095 368.12 213.724 378.352 211.289 380.016M230.121 407.251C228.777 402.767 228.621 394.492 238.75 397.264C251.412 400.728 255.976 407.661 248.386 412.068C242.315 415.594 240.809 411.688 240.815 409.294M249.873 377.469C252.024 379.401 257.833 382.329 263.858 378.587C271.388 373.91 263.118 361.561 257.923 365.267C252.729 368.972 248.914 371.656 253.817 372.903M357.776 170.671C358.539 166.678 361.508 159.741 367.288 163.937C374.512 169.183 374.277 176.954 372.305 179.237C370.332 181.519 360.095 185.632 358.267 181.063M380.372 213.398C381.601 215.55 385.48 219.132 391.165 216.244C398.27 212.635 393.681 201.692 391.851 200.112C390.022 198.532 383.868 196.424 382.808 202.266C381.96 206.94 384.031 210.081 385.172 211.067M425.449 217.179C421.248 218.274 413.245 218.572 414.838 211.001C416.829 201.538 416.941 200.492 423.221 201.299C429.5 202.107 430.917 207.729 429.437 209.442C427.958 211.154 424.191 213.102 421.791 211.029M271.352 237.82C270.107 240.991 269.61 247.104 277.577 246.189C287.536 245.045 291.702 236.185 289.057 232.902C286.411 229.62 276.318 226.88 277.407 230.811C277.849 225.877 277.088 216.182 270.508 216.876C262.283 217.744 261.634 224.16 268.781 228.342M233.054 302.912C224.402 303.235 225.815 293.408 227.603 288.454C229.018 285.471 232.664 279.943 235.934 281.697C240.02 283.889 246.644 287.183 244.78 289.34C242.916 291.497 242.702 297.513 241.029 296.565M137.037 298.917C138.27 297.49 141.123 290.486 146.83 295.417C152.537 300.348 153.232 304.158 147.191 307.689C141.149 311.221 135.213 308.863 136.583 307.276M264.063 167.23C262.303 163.691 260.268 155.818 266.206 152.636C273.63 148.659 280.014 150.263 281.335 155.316C282.655 160.368 279.306 167.941 276.491 167.502M101.646 246.19C100.13 246.023 98.5269 245.186 104.25 243.177C111.403 240.666 113.021 238.794 112.63 244.437C112.24 250.081 107.309 255.788 105.234 252.998M295.7 290.972C292.041 286.555 286.89 277.057 295.56 274.405C306.399 271.091 308.377 281.492 306.404 283.774C304.432 286.057 303.975 298.122 295.7 290.972ZM250.621 298.154C252.637 300.82 257.483 303.709 260.741 293.94C264.812 281.729 246.54 291.917 250.621 298.154ZM132.048 264.484C132.781 261.96 135.045 257.604 138.241 260.365C142.236 263.817 136.308 274.145 132.048 264.484ZM151.651 281.421C153.92 284.212 158.866 287.754 160.499 279.596C162.54 269.399 158.975 266.603 156.693 264.631C154.41 262.658 149.284 269.408 150.176 272.172C151.068 274.937 146.778 278.208 151.651 281.421ZM233.114 142.484C233.092 144.624 234.399 148.379 239.807 146.273C246.567 143.641 244.252 139.648 241.765 137.499C239.277 135.35 231.792 138.986 233.114 142.484ZM178.996 110.179C178.398 113.483 178.737 119.125 184.872 115.256C192.54 110.418 183.575 110.647 178.996 110.179Z" stroke="#8E7561" stroke-width="0.682785"/>
<g filter="url(#filter0_f_101_4929)">
<path d="M184.08 116.487C178.216 117.79 178.379 113.229 179.193 110.785H187.338C188.696 112.143 189.945 115.184 184.08 116.487Z" fill="url(#paint8_linear_101_4929)"/>
<path d="M235.396 145.81C232.138 145.158 232.952 142.552 233.767 140.923C236.211 136.036 243.541 135.722 243.541 140.108C243.541 144.181 239.469 146.625 235.396 145.81Z" fill="url(#paint9_linear_101_4929)"/>
<path d="M269.607 151.512C261.135 153.467 262.276 163.187 263.905 167.803C264.802 172.364 271.61 169.703 274.494 167.803C281.825 164.544 281.01 159.657 281.01 157.214C281.01 154.77 280.196 149.068 269.607 151.512Z" fill="url(#paint10_linear_101_4929)"/>
<path d="M269.607 217.489C260.484 220.096 265.805 225.635 269.607 228.078C264.346 231.988 269.044 236.224 272.05 237.853C268.395 248.279 278.13 245.998 283.454 243.555C286.983 241.111 292.577 235.409 286.712 232.151C280.847 228.893 277.752 229.707 276.938 230.522C277.589 220.096 272.322 217.489 269.607 217.489Z" fill="url(#paint11_linear_101_4929)"/>
<path d="M304.632 276.136C301.374 272.878 297.572 273.964 295.672 275.322C292.414 276.829 289.97 276.951 292.414 284.281C294.857 291.612 298.93 292.427 301.374 292.427C303.329 292.427 304.36 287.54 304.632 285.096C305.989 283.467 307.89 279.394 304.632 276.136Z" fill="url(#paint12_linear_101_4929)"/>
<path d="M227.251 297.314C227.251 301.224 231.595 302.744 233.767 303.016C238.983 305.459 238.654 298.129 240.283 297.314C241.587 296.662 241.912 294.87 241.912 294.056L244.356 288.354C244.356 286.399 238.383 283.738 235.396 282.652C228.065 283.467 227.251 292.427 227.251 297.314Z" fill="url(#paint13_linear_101_4929)"/>
<path d="M250.872 295.685C250.872 291.124 256.846 288.897 259.832 288.354C262.439 292.916 258.746 297.857 256.574 299.758C254.673 300.301 250.872 300.246 250.872 295.685Z" fill="url(#paint14_linear_101_4929)"/>
<path d="M105.885 243.555C100.672 244.858 101.541 245.727 102.627 245.998C96.3578 250.071 105.885 251.7 105.885 253.329C110.772 251.7 112.401 243.555 111.587 241.925C110.935 240.622 107.514 242.469 105.885 243.555Z" fill="url(#paint15_linear_101_4929)"/>
<path d="M136.837 260.66C134.231 260.008 133.036 263.103 132.764 264.733C133.308 266.09 134.882 268.479 136.837 267.176C139.281 265.547 140.095 261.474 136.837 260.66Z" fill="url(#paint16_linear_101_4929)"/>
<path d="M157.201 265.547C155.246 262.289 151.77 267.719 150.684 270.434C150.302 271.307 148.896 274.871 149.055 277.765C149.87 279.666 154.921 287.003 158.015 283.467C161.734 279.216 161.901 274.022 160.459 270.434C159.69 268.522 159.155 268.805 157.201 265.547Z" fill="url(#paint17_linear_101_4929)"/>
<path d="M144.168 294.056C140.91 292.427 138.466 298.943 136.837 299.758C132.927 303.016 135.208 306.002 136.837 307.088C137.652 308.989 140.91 311.65 147.426 307.088C155.572 301.387 147.426 295.685 144.168 294.056Z" fill="url(#paint18_linear_101_4929)"/>
<path d="M206.073 368.993C197.602 367.038 199.828 373.609 202 377.139C202 379.745 207.43 380.94 210.146 381.211C212.318 377.953 214.544 370.948 206.073 368.993Z" fill="url(#paint19_linear_101_4929)"/>
<path d="M253.316 369.808C250.709 371.763 252.773 372.251 254.131 372.251C255.217 373.881 256.574 376.65 253.316 374.695C250.058 372.74 249.243 375.51 249.243 377.139C251.144 378.768 256.411 381.374 262.276 378.768C269.607 375.51 264.719 366.55 261.461 365.735C258.203 364.921 256.574 367.364 253.316 369.808Z" fill="url(#paint20_linear_101_4929)"/>
<path d="M237.84 398.317C228.717 395.71 229.694 404.29 231.323 408.906C237.025 412.978 232.953 405.647 235.396 403.204C237.351 401.249 240.012 406.19 241.098 408.906C241.098 412.164 244.899 413.25 245.985 412.978C248.972 412.164 253.479 408.743 250.872 404.833C248.266 400.923 241.098 398.86 237.84 398.317Z" fill="url(#paint21_linear_101_4929)"/>
<path d="M366.537 164.544C362.627 160.635 358.934 167.803 357.577 171.875C357.153 173.046 357.577 177.577 359.206 180.835C360.835 184.093 369.795 183.279 372.238 178.392C374.682 173.504 371.424 169.432 366.537 164.544Z" fill="url(#paint22_linear_101_4929)"/>
<path d="M386.086 199.57C380.872 203.479 383.913 208.801 386.086 210.973C386.086 208.662 390.973 210.973 389.344 212.602C388.04 213.905 384.456 213.145 382.827 212.602C380.221 213.905 383.37 215.86 385.271 216.675C394.394 218.63 395.045 210.973 394.231 206.9C393.688 202.828 391.299 195.66 386.086 199.57Z" fill="url(#paint23_linear_101_4929)"/>
<path d="M415.409 212.602C415.409 218.467 421.925 217.761 425.183 216.675C433.329 206.086 427.627 202.828 421.925 202.013C416.223 201.199 415.409 205.271 415.409 212.602Z" fill="url(#paint24_linear_101_4929)"/>
</g>
<defs>
<filter id="filter0_f_101_4929" x="95.1605" y="105.455" width="339.412" height="312.894" filterUnits="userSpaceOnUse" color-interpolation-filters="sRGB">
<feFlood flood-opacity="0" result="BackgroundImageFix"/>
<feBlend mode="normal" in="SourceGraphic" in2="BackgroundImageFix" result="shape"/>
<feGaussianBlur stdDeviation="2.66517" result="effect1_foregroundBlur_101_4929"/>
</filter>
<linearGradient id="paint0_linear_101_4929" x1="33.7327" y1="236.431" x2="222.35" y2="221.867" gradientUnits="userSpaceOnUse">
<stop stop-color="#DECE98"/>
<stop offset="0.199447" stop-color="#AA9872"/>
<stop offset="0.690625" stop-color="#DECE98"/>
<stop offset="1" stop-color="#B1A277"/>
</linearGradient>
<linearGradient id="paint1_linear_101_4929" x1="192.556" y1="123.468" x2="381.174" y2="108.904" gradientUnits="userSpaceOnUse">
<stop stop-color="#DECE98"/>
<stop offset="0.199447" stop-color="#AA9872"/>
<stop offset="0.690625" stop-color="#DECE98"/>
<stop offset="1" stop-color="#B1A277"/>
</linearGradient>
<linearGradient id="paint2_linear_101_4929" x1="239.89" y1="102.966" x2="365.322" y2="93.2807" gradientUnits="userSpaceOnUse">
<stop stop-color="#DECE98"/>
<stop offset="0.199447" stop-color="#AA9872"/>
<stop offset="0.690625" stop-color="#DECE98"/>
<stop offset="1" stop-color="#B1A277"/>
</linearGradient>
<linearGradient id="paint3_linear_101_4929" x1="269.894" y1="346.579" x2="395.325" y2="336.894" gradientUnits="userSpaceOnUse">
<stop stop-color="#DECE98"/>
<stop offset="0.199447" stop-color="#AA9872"/>
<stop offset="0.690625" stop-color="#DECE98"/>
<stop offset="1" stop-color="#B1A277"/>
</linearGradient>
<linearGradient id="paint4_linear_101_4929" x1="34.9342" y1="248.156" x2="160.366" y2="238.472" gradientUnits="userSpaceOnUse">
<stop stop-color="#DECE98"/>
<stop offset="0.199447" stop-color="#AA9872"/>
<stop offset="0.690625" stop-color="#DECE98"/>
<stop offset="1" stop-color="#B1A277"/>
</linearGradient>
<linearGradient id="paint5_linear_101_4929" x1="212.12" y1="314.347" x2="400.737" y2="299.783" gradientUnits="userSpaceOnUse">
<stop stop-color="#DECE98"/>
<stop offset="0.199447" stop-color="#AA9872"/>
<stop offset="0.690625" stop-color="#DECE98"/>
<stop offset="1" stop-color="#B1A277"/>
</linearGradient>
<linearGradient id="paint6_linear_101_4929" x1="331.754" y1="22.0536" x2="320.917" y2="454.066" gradientUnits="userSpaceOnUse">
<stop stop-color="#DECE98"/>
<stop offset="0.199447" stop-color="#AA9872"/>
<stop offset="0.690625" stop-color="#DECE98"/>
<stop offset="1" stop-color="#B1A277"/>
</linearGradient>
<radialGradient id="paint7_radial_101_4929" cx="0" cy="0" r="1" gradientUnits="userSpaceOnUse" gradientTransform="translate(182.642 108.606) rotate(28.7325) scale(429.816 315.286)">
<stop stop-color="#F4E3A7"/>
<stop offset="0.199447" stop-color="#BCA77A"/>
<stop offset="0.629167" stop-color="#EFDFA8"/>
<stop offset="1" stop-color="#B1A277"/>
</radialGradient>
<linearGradient id="paint8_linear_101_4929" x1="264.867" y1="110.785" x2="264.867" y2="413.018" gradientUnits="userSpaceOnUse">
<stop stop-color="#EDE0B4"/>
<stop offset="1" stop-color="#2E2C26"/>
</linearGradient>
<linearGradient id="paint9_linear_101_4929" x1="264.867" y1="110.785" x2="264.867" y2="413.018" gradientUnits="userSpaceOnUse">
<stop stop-color="#EDE0B4"/>
<stop offset="1" stop-color="#2E2C26"/>
</linearGradient>
<linearGradient id="paint10_linear_101_4929" x1="264.867" y1="110.785" x2="264.867" y2="413.018" gradientUnits="userSpaceOnUse">
<stop stop-color="#EDE0B4"/>
<stop offset="1" stop-color="#2E2C26"/>
</linearGradient>
<linearGradient id="paint11_linear_101_4929" x1="264.867" y1="110.785" x2="264.867" y2="413.018" gradientUnits="userSpaceOnUse">
<stop stop-color="#EDE0B4"/>
<stop offset="1" stop-color="#2E2C26"/>
</linearGradient>
<linearGradient id="paint12_linear_101_4929" x1="264.867" y1="110.785" x2="264.867" y2="413.018" gradientUnits="userSpaceOnUse">
<stop stop-color="#EDE0B4"/>
<stop offset="1" stop-color="#2E2C26"/>
</linearGradient>
<linearGradient id="paint13_linear_101_4929" x1="264.867" y1="110.785" x2="264.867" y2="413.018" gradientUnits="userSpaceOnUse">
<stop stop-color="#EDE0B4"/>
<stop offset="1" stop-color="#2E2C26"/>
</linearGradient>
<linearGradient id="paint14_linear_101_4929" x1="264.867" y1="110.785" x2="264.867" y2="413.018" gradientUnits="userSpaceOnUse">
<stop stop-color="#EDE0B4"/>
<stop offset="1" stop-color="#2E2C26"/>
</linearGradient>
<linearGradient id="paint15_linear_101_4929" x1="264.867" y1="110.785" x2="264.867" y2="413.018" gradientUnits="userSpaceOnUse">
<stop stop-color="#EDE0B4"/>
<stop offset="1" stop-color="#2E2C26"/>
</linearGradient>
<linearGradient id="paint16_linear_101_4929" x1="264.867" y1="110.785" x2="264.867" y2="413.018" gradientUnits="userSpaceOnUse">
<stop stop-color="#EDE0B4"/>
<stop offset="1" stop-color="#2E2C26"/>
</linearGradient>
<linearGradient id="paint17_linear_101_4929" x1="264.867" y1="110.785" x2="264.867" y2="413.018" gradientUnits="userSpaceOnUse">
<stop stop-color="#EDE0B4"/>
<stop offset="1" stop-color="#2E2C26"/>
</linearGradient>
<linearGradient id="paint18_linear_101_4929" x1="264.867" y1="110.785" x2="264.867" y2="413.018" gradientUnits="userSpaceOnUse">
<stop stop-color="#EDE0B4"/>
<stop offset="1" stop-color="#2E2C26"/>
</linearGradient>
<linearGradient id="paint19_linear_101_4929" x1="264.867" y1="110.785" x2="264.867" y2="413.018" gradientUnits="userSpaceOnUse">
<stop stop-color="#EDE0B4"/>
<stop offset="1" stop-color="#2E2C26"/>
</linearGradient>
<linearGradient id="paint20_linear_101_4929" x1="264.867" y1="110.785" x2="264.867" y2="413.018" gradientUnits="userSpaceOnUse">
<stop stop-color="#EDE0B4"/>
<stop offset="1" stop-color="#2E2C26"/>
</linearGradient>
<linearGradient id="paint21_linear_101_4929" x1="264.867" y1="110.785" x2="264.867" y2="413.018" gradientUnits="userSpaceOnUse">
<stop stop-color="#EDE0B4"/>
<stop offset="1" stop-color="#2E2C26"/>
</linearGradient>
<linearGradient id="paint22_linear_101_4929" x1="264.867" y1="110.785" x2="264.867" y2="413.018" gradientUnits="userSpaceOnUse">
<stop stop-color="#EDE0B4"/>
<stop offset="1" stop-color="#2E2C26"/>
</linearGradient>
<linearGradient id="paint23_linear_101_4929" x1="264.867" y1="110.785" x2="264.867" y2="413.018" gradientUnits="userSpaceOnUse">
<stop stop-color="#EDE0B4"/>
<stop offset="1" stop-color="#2E2C26"/>
</linearGradient>
<linearGradient id="paint24_linear_101_4929" x1="264.867" y1="110.785" x2="264.867" y2="413.018" gradientUnits="userSpaceOnUse">
<stop stop-color="#EDE0B4"/>
<stop offset="1" stop-color="#2E2C26"/>
</linearGradient>
</defs>
</svg>
