<svg width="257" height="466" viewBox="0 0 257 466" fill="none" xmlns="http://www.w3.org/2000/svg">
<path d="M171.011 115.514C171.837 115.514 173.009 116.436 174.524 118.278C175.443 119.248 174.985 123.38 174.197 124.635C172.493 127.357 174.197 124.635 172.775 126.527C171.259 128.418 170.828 131.539 169.358 133.235C171.654 132.702 173.321 134.775 174.256 135.534C176.981 137.749 176.981 137.749 177.072 139.3C176.98 140.271 176.176 141.871 174.661 144.1C172.823 146.622 171.262 144.986 169.976 146.683C172.411 146.829 173.995 147.097 174.73 147.483C175.51 147.921 175.901 148.501 175.901 149.228C175.901 150.076 174.021 152.885 172.108 154.949C171.321 155.797 170.057 157.961 169.403 159.077C167.371 162.554 159.601 163.545 157.67 164.286L161.651 161.563C162.786 160.664 167.025 156.469 167.774 154.837C168.238 153.831 168.53 153.047 168.53 152.935C168.53 152.549 168.346 152.354 167.978 152.354C165.866 152.743 164.465 152.935 163.777 152.935C161.94 152.935 161.022 152.379 161.022 151.263C161.022 150.245 161.548 149.008 162.606 147.555C164.028 145.762 170.672 141.275 170.715 140.116C170.652 141.803 168.771 136.637 167.254 137.364C165.832 137.85 164.937 138.092 164.569 138.092C162.73 138.092 161.812 137.317 161.812 135.764C161.812 134.699 161.075 136.044 163.462 132.795C165.074 130.544 166.301 128.454 167.255 126.537C169.667 121.685 170.317 117.947 171.011 115.514Z" fill="url(#paint0_linear_402_2077)"/>
<path d="M153.945 169.833C155.061 170.289 155.935 170.518 156.565 170.518C157.472 170.518 158.626 169.899 160.025 168.66C160.794 167.682 161.386 167.193 161.806 167.193C162.366 167.193 162.923 167.422 163.484 167.879C164.112 168.073 164.532 168.171 164.741 168.171C167.188 168.171 169.879 165.469 172.813 160.06C173.373 160.06 173.652 160.191 173.652 160.452C173.652 169.574 172.358 174.135 169.773 174.135C168.725 174.135 167.745 173.646 166.837 172.67C165.999 171.627 164.6 171.106 162.645 171.106C161.665 171.106 161.108 171.79 160.967 173.159C160.758 176.415 160.234 178.046 159.395 178.046C157.718 178.046 156.286 177.23 155.098 175.602C153.699 173.581 153 171.955 153 170.715C153.001 170.126 153.315 169.833 153.945 169.833Z" fill="url(#paint1_linear_402_2077)"/>
<path d="M197.332 145.389C198.549 145.389 199.52 145.645 200.242 146.155C201.144 147.128 201.596 148.305 201.596 149.686C201.596 151.118 200.852 152.192 199.363 152.908C197.603 153.675 196.023 154.163 194.624 154.366C194.805 154.93 194.894 155.517 194.894 156.132C194.894 157.36 194.557 158.946 193.878 160.89C193.474 162.272 192.977 163.525 192.39 164.65C195.64 163.934 197.963 163.345 199.364 162.886C200.22 162.579 200.943 162.427 201.529 162.427C203.154 162.53 204.869 163.115 206.675 164.191C208.749 165.366 209.788 166.979 209.788 169.026C209.788 169.947 208.523 170.406 205.997 170.406C202.793 169.997 200.582 169.794 199.364 169.794C193.271 169.794 186.524 170.1 179.123 170.715C176.686 171.022 174.994 171.174 174.048 171.174C172.919 171.174 172.287 170.741 172.152 169.872C172.152 169.614 172.559 169.461 173.371 169.41C179.779 167.771 184.924 166.468 188.806 165.496C189.302 164.164 189.753 162.555 190.16 160.661C190.566 158.77 190.768 157.26 190.768 156.133C190.768 155.57 190.632 155.008 190.363 154.445C187.34 154.241 184.946 153.652 183.186 152.68C181.789 151.913 181.088 151.095 181.088 150.224C181.088 150.02 181.427 149.916 182.104 149.916C186.209 149.916 189.143 149.2 190.904 147.769C192.931 146.182 195.075 145.389 197.332 145.389ZM184.267 126.048C184.807 126.048 185.327 126.485 185.825 127.354C186.274 128.274 186.501 129.452 186.501 130.884C186.501 132.113 185.96 133.391 184.877 134.722C184.651 135.028 184.538 135.309 184.538 135.566C184.538 135.823 184.605 135.975 184.741 136.026C185.509 136.793 186.207 137.895 186.839 139.326C187.29 140.35 187.517 141.449 187.517 142.625C187.426 143.7 186.908 144.289 185.96 144.39C185.644 144.39 185.259 143.929 184.808 143.009C183.093 139.939 181.787 138.174 180.884 137.713C180.477 137.612 180.273 137.203 180.273 136.485C180.273 135.769 180.995 134.49 182.441 132.649C183.478 131.166 183.999 129.554 183.999 127.814C183.999 127.252 183.93 126.767 183.795 126.356C183.794 126.151 183.95 126.048 184.267 126.048ZM197.332 114C201.123 114.05 203.018 115.611 203.018 118.682C202.927 120.063 202.115 120.753 200.581 120.753C197.24 120.753 194.06 120.883 191.037 121.138C189.503 121.292 188.148 121.367 186.975 121.367C185.711 121.367 184.605 121.087 183.657 120.523C182.755 120.114 182.236 119.705 182.101 119.294C182.101 119.091 182.281 118.988 182.643 118.988C184.086 118.988 186.297 118.195 189.276 116.609C192.389 114.972 195.075 114.103 197.332 114ZM191.916 126.356C192.413 126.356 192.886 126.791 193.339 127.66C193.788 128.582 194.014 129.759 194.014 131.19C194.014 132.214 193.654 133.237 192.932 134.26C192.752 134.517 192.661 134.721 192.661 134.874C192.661 135.131 192.728 135.284 192.865 135.335C193.496 135.948 194.128 136.845 194.76 138.021C195.211 138.941 195.438 139.837 195.438 140.707C195.302 141.833 194.739 142.473 193.745 142.625C193.475 142.625 193.113 142.191 192.662 141.32C191.039 138.762 189.796 137.304 188.94 136.946C188.578 136.791 188.398 136.435 188.398 135.871C188.398 135.207 189.03 134.056 190.294 132.418C191.196 131.087 191.647 129.654 191.647 128.12C191.647 127.558 191.557 127.072 191.376 126.661C191.374 126.458 191.555 126.356 191.916 126.356ZM202.138 124.13C202.497 124.13 202.68 124.233 202.68 124.437C201.46 128.019 200.852 130.27 200.852 131.19C200.852 132.112 201.325 132.878 202.273 133.493C203.492 134.363 204.1 135.361 204.1 136.486C204.1 137.766 202.362 139.276 198.889 141.014C198.707 141.014 198.618 140.811 198.618 140.4C199.927 138.866 200.581 137.844 200.581 137.331C200.581 136.769 200.038 135.924 198.956 134.799C197.874 133.777 197.332 132.573 197.332 131.192C197.332 129.761 197.896 128.2 199.024 126.511C200.107 124.924 201.144 124.13 202.138 124.13Z" fill="url(#paint2_linear_402_2077)"/>
<path fill-rule="evenodd" clip-rule="evenodd" d="M211.354 208.738C212.153 206.765 212.613 204.392 213.815 202.898C216.623 199.414 216.608 195.201 216.632 190.907C216.643 189.031 216.471 187.153 216.488 185.279C216.497 184.463 216.773 183.65 217.003 182.44C217.842 183.812 218.441 184.833 219.078 185.822C220.073 187.364 221.245 187.601 222.291 186.214C223.289 184.89 224.083 183.332 224.894 181.817C225.041 181.544 224.916 180.944 224.774 180.579C224.538 179.98 224.163 179.465 223.881 178.891C221.092 173.227 221.097 173.303 215.664 173.632C214.079 173.727 212.474 173.245 210.436 172.97C212.474 169.018 215.467 167.905 218.177 165.904C217.499 163.479 214.516 158.697 212.787 151.417C211.796 147.244 208.918 140.127 208.964 132.647C208.974 131.094 209.268 129.343 209.734 127.806C210.149 126.435 211.261 126.015 212.103 127.191C213.048 128.512 211.909 130.272 212.096 131.954C212.81 138.366 215.945 144.611 217.397 149.596C219.089 155.409 222.316 160.718 222.629 162.093C224.958 160.637 225.784 160.297 224.995 154.559C228.108 154.559 231.182 154.559 234.772 154.559C233.844 152.42 233.127 150.95 232.569 149.397C232.278 148.589 232.268 147.633 232.132 146.744C232.814 146.726 233.496 146.66 234.175 146.7C236.597 146.84 238.226 148.652 239.696 150.71C240.962 152.483 240.995 154.268 239.887 156.216C239.178 157.463 238.441 158.686 237.718 159.915C236.66 157.978 235.795 157.487 234.197 158.811C232.028 160.609 230.083 162.809 228.085 164.895C227.462 165.546 226.996 166.413 226.425 167.14C224.648 169.409 225.372 168.852 226.732 172.28C227.59 174.445 229.985 175.454 231.726 173.509C232.863 172.239 233.902 170.838 235.012 169.53C235.588 168.85 236.223 168.245 237.122 167.3C238.104 176.167 244.104 181.338 246.675 188.754C246.507 188.927 246.34 189.102 246.173 189.275C245.334 188.491 244.376 187.837 243.682 186.898C242.356 185.104 241.095 183.217 239.97 181.233C239.105 179.709 237.682 173.882 236.652 174.905C235.275 176.267 231.425 178.072 230.812 180.996C229.916 184.679 230.812 186.456 233.637 192.507C233.837 193.139 234.546 193.742 235.118 193.95C236.635 194.502 238.206 194.828 239.718 195.235C239.64 197.192 236.752 201.798 235.827 201.29C234.587 200.606 234.391 201.798 233.831 202.202C231.663 203.769 229.557 205.462 227.44 207.131C226.711 207.705 226.015 208.347 225.336 208.931C227.296 212.743 227.284 217.623 230.53 220.449C231.928 215.422 233.314 210.442 234.704 205.443C237.91 205.093 240.08 207.896 239.529 211.773C238.739 217.337 236.248 221.961 233.923 226.682C233.615 227.306 233.259 228.224 233.42 228.808C235.051 234.768 237.107 240.463 240.928 244.928C244.798 249.452 249.422 248.29 250.932 241.994C251.873 238.066 251.948 233.817 252.288 229.697C252.534 226.73 252.577 223.736 252.892 220.735C254.573 223.483 255.236 226.581 255.581 229.858C255.9 232.902 256.56 235.903 256.753 238.951C256.912 241.455 256.771 244.031 256.475 246.524C255.883 251.498 255.095 256.437 254.387 261.39C254.155 263.016 253.209 263.594 252.082 263.146C250.581 262.549 249.006 261.876 247.757 260.753C240.946 254.629 235.014 247.469 230.724 238.482C230.233 237.453 229.846 236.348 229.358 235.144C228.171 236.516 227.191 238.004 225.95 239.022C222.896 241.524 219.746 247.217 216.58 249.505C215.851 250.031 214.913 250.21 214.05 250.372C211.755 250.802 210.649 249.893 210.006 247.195C209.14 243.562 210.194 246.172 211.35 243.397C211.576 243.509 211.827 243.591 212.041 243.748C214.191 245.3 216.386 245.21 218.202 243.26C220.678 240.605 223.633 233.871 225.932 230.983C226.915 229.747 225.321 221.768 224.814 220.169C223.9 217.277 223.095 214.337 222.208 211.292C221.642 211.856 220.92 212.654 220.135 213.349C216.794 216.307 213.473 219.306 210.053 222.127C209.036 222.968 207.739 223.336 206.539 223.801C205.627 224.155 205.121 223.664 204.935 222.462C204.402 219.009 205.478 216.188 207.72 214.02C209.06 212.727 210.009 210.835 211.133 209.212C210.727 213.059 211.598 214.601 214.02 213.673C216.532 212.71 218.868 211.073 220.988 209.894C220.44 207.811 219.979 206.338 219.672 204.821C219.362 203.298 219.206 201.729 218.882 199.478C216.188 202.792 213.772 205.764 211.354 208.738ZM224.827 195.518C223.488 195.262 222.214 195.016 220.753 194.737C220.949 198.409 221.925 201.508 223.172 204.478C223.358 204.919 224.282 205.356 224.632 205.166C226.323 204.242 228.011 203.241 229.548 201.991C230.553 201.173 231.15 199.616 230.325 198.296C229.47 196.929 229.928 195.591 229.848 194.234C229.822 193.803 230.001 193.246 229.838 192.951C228.903 191.27 227.893 189.65 226.914 188.017C222.705 191.589 222.406 192.699 224.827 195.518Z" fill="url(#paint3_linear_402_2077)"/>
<path fill-rule="evenodd" clip-rule="evenodd" d="M176.59 247.679C182.812 240.727 187.854 232.818 191.938 223.815C189.681 221.198 187.453 218.613 185.224 216.029C185.269 215.813 185.314 215.597 185.357 215.383C188.354 216.115 191.351 216.85 194.551 217.633C196.447 213.592 198.482 209.309 199.417 204.405C199.758 202.628 198.898 201.663 197.689 201.742C196.306 201.833 194.92 202.442 193.593 203.014C192.348 203.551 191.24 204.07 190.426 205.807C188.988 208.871 187.113 211.679 185.186 214.345C183.28 216.982 181.084 219.309 178.688 222.16C178.688 219.829 178.634 217.916 178.726 216.013C178.748 215.515 179.164 214.718 179.506 214.623C181.653 214.033 182.905 212.024 184.004 210.113C187.1 204.73 190.02 199.195 192.9 193.637C193.907 191.698 193.404 190.543 191.558 190.015C188.971 189.275 187.057 187.37 185.293 185.099C188.193 184.157 191.023 183.378 193.772 182.298C196.605 181.184 199.08 179.332 200.741 176.148C200.986 175.673 201.647 175.15 202.045 175.223C203.767 175.542 205.541 175.831 207.146 176.599C208.721 177.352 208.778 179.411 207.27 180.461C201.592 184.417 198.884 191.287 195.519 197.505C197.444 199.747 198.873 199.779 200.561 197.67C202.015 195.852 203.633 196.768 205.184 197.257C206.791 197.762 207.903 199.133 208.334 201.038C208.443 201.518 207.749 202.381 207.304 202.918C203.227 207.837 200.085 213.571 197.328 219.548C198.63 222.127 199.889 224.626 201.148 227.123C201.064 227.324 200.98 227.526 200.894 227.727C199.33 227.345 197.651 227.275 196.227 226.505C194.525 225.585 193.867 226.521 193.087 228.007C191.399 231.23 189.779 234.528 187.864 237.544C185.124 241.857 181.619 245.112 177.472 247.286C177.186 247.438 176.886 247.55 176.59 247.679Z" fill="url(#paint4_linear_402_2077)"/>
<path d="M195.637 304.791C186.623 298.88 180.647 294.592 177.699 291.929C174.755 289.267 172.236 286.637 170.14 284.034C168.047 281.434 166.706 279.311 166.124 277.658C165.542 276.008 164.421 273.539 162.764 270.249C163.562 270.896 164.191 271.376 164.661 271.684C165.13 271.995 165.979 272.059 167.208 271.872C168.437 271.691 169.828 271.531 171.378 271.397C172.924 271.264 174.404 271.697 175.812 272.699C177.222 273.704 178.347 275.238 179.191 277.308C180.031 279.381 181.486 281.218 183.549 282.817C185.612 284.421 188.154 286.099 191.174 287.85C194.196 289.602 197.733 292.088 201.791 295.303C205.847 298.52 209.522 300.353 212.819 300.801C216.114 301.252 218.264 302.192 219.262 303.626C220.262 305.061 220.856 306.03 221.049 306.531C221.243 307.035 221.528 307.718 221.909 308.581C220.705 308.436 219.804 308.439 219.209 308.58C218.615 308.723 217.875 308.782 216.992 308.764C216.107 308.743 215.209 308.778 214.296 308.869C213.382 308.961 211.827 308.952 209.634 308.842L208.908 309.293C208.696 309.261 208.534 309.166 208.424 309.004C208.311 308.848 207.832 308.772 206.986 308.779C206.14 308.79 204.758 308.639 202.844 308.337C202.845 308.338 196.726 305.507 195.637 304.791Z" fill="url(#paint5_linear_402_2077)"/>
<path fill-rule="evenodd" clip-rule="evenodd" d="M122.006 292.571L122.059 292.541C120.792 296.58 118.868 301.188 116.289 306.362C113.73 311.491 101.215 326.652 98.0426 330.495L97.888 330.683C94.99 334.192 92.394 337.101 90.094 339.43C89.9979 339.426 89.8772 339.421 89.7318 339.415L89.5817 339.409L89.5522 339.408L89.5374 339.408C89.1351 339.392 88.5874 339.37 87.893 339.342C86.793 339.296 85.682 339.491 84.562 339.934C83.444 340.364 82.486 341.298 81.696 342.719C81.287 343.665 81.06 344.868 81 346.314L81.927 350.701C83.007 351.219 84.183 351.516 85.473 351.568C86.756 351.62 88.14 351.424 89.628 351.01C91.131 350.096 92.448 349.423 93.569 348.992C94.709 348.064 95.649 347.377 96.407 346.932C97.4167 345.907 98.5576 345.318 99.749 344.703C101.269 343.918 102.872 343.091 104.389 341.261C104.855 340.696 105.631 339.77 106.612 338.6C111.31 332.994 120.712 321.776 123.314 317.683C126.449 312.735 130.042 306.885 131.837 303.333C132.828 301.372 133.655 299.18 134.399 297.21L134.399 297.21C135.003 295.609 135.551 294.155 136.088 293.09C136.374 292.122 136.559 291.157 136.747 290.175L136.747 290.175C137.116 288.25 137.496 286.262 138.679 284.066C138.705 284.018 138.731 283.969 138.758 283.921C148.425 279.456 161.145 274.337 168.103 274.641C167.65 274.621 178.043 272.486 196.784 271.041C198.606 270.901 199.223 269.937 198.629 268.142C196.376 262.799 192.459 259.651 186.869 258.705C183.563 257.58 174.949 259.171 161.037 263.455C155.127 264.373 149.714 265.708 144.798 267.464C144.339 267.5 143.894 267.772 143.481 268.256C143.781 267.024 144.092 265.792 144.403 264.559L144.403 264.557L144.534 264.038C144.649 262.211 145.017 261.695 145.518 260.992C145.903 260.453 146.366 259.803 146.854 258.369C148.639 257.777 150.436 257.175 152.232 256.572C154.016 255.983 155.147 255.659 155.606 255.624C155.642 256.084 155.254 257.031 154.447 258.472C153.181 259.949 151.935 261.66 150.705 263.586C150.279 264.082 150.314 264.544 150.81 264.957L152.128 264.165C162.637 257.386 170.84 253.534 176.747 252.615C179.49 252.403 180.998 251.144 181.281 248.817C181.07 246.076 179.028 243.474 175.164 241.013C173.687 239.749 172.247 238.944 170.84 238.59C177.619 231.172 180.892 225.866 180.645 222.666C179.76 217.217 177.128 212.831 172.732 209.485C171.256 208.219 169.852 207.873 168.514 208.43C167.143 208.536 166.772 209.718 167.409 211.963C169.865 220.049 164.229 230.371 150.49 242.916L149.855 243.654C152.912 229.628 155.056 221.653 156.286 219.715C158.674 214.943 159.043 210.776 157.39 207.22C155.772 204.132 152.394 202.089 147.264 201.106C145.399 200.797 143.585 201.164 141.835 202.215C140.039 202.816 138.531 204.084 137.3 206.013C136.945 207.418 136.81 208.582 136.88 209.492C136.916 209.953 137.808 209.658 139.568 208.596C141.355 208.004 142.535 208.366 143.101 209.702C143.136 210.162 143.147 213.381 143.157 219.351C130.293 231.374 123.367 236.971 122.385 236.121C120.981 235.777 120.17 234.223 119.96 231.482C119.714 228.288 118.585 228.602 116.586 232.431C114.48 240.867 114.286 247.324 116.009 251.782C117.52 253.508 118.747 254.566 119.7 254.945C122.892 254.699 128.136 248.089 135.409 235.116C137.832 230.793 140.057 226.947 142.103 223.568C140.836 231.024 139.225 239.886 137.255 250.142L137.308 250.829C132.844 252.553 129.296 254.205 126.659 255.787C122.688 257.935 117.329 259.953 110.581 261.852C108.786 262.455 108.683 264.067 110.265 266.703C111.847 269.34 113.828 271.255 116.224 272.45C118.082 272.77 119.705 272.869 121.076 272.764C125.425 269.671 129.825 267.038 134.255 264.853C133.698 267.081 133.048 268.092 132.398 269.104C131.818 270.008 131.237 270.913 130.722 272.686C127.557 273.394 121.356 276.403 112.114 281.705C106.842 284.871 101.966 287.315 97.5098 289.038C94.8038 289.71 93.9548 290.692 94.9788 291.991C95.4648 292.416 98.4348 295.171 103.892 300.267C107.297 302.763 110.037 302.551 112.118 299.632C114.41 296.956 117.74 295.034 122.006 292.571ZM151.173 413.244C151.238 412.852 151.304 412.451 151.372 412.043C152.557 404.843 154.149 395.172 158.552 383.203C160.73 377.285 163.595 370.808 167.436 363.789C168.948 361.101 169.94 359.419 170.577 358.338C171.49 356.788 171.675 356.474 171.624 356.204C171.611 356.136 171.583 356.07 171.547 355.988L171.547 355.987C171.453 355.767 171.307 355.428 171.264 354.598C171.02 349.91 168.507 347.695 163.727 347.943C162.77 347.993 160.479 348.846 156.85 350.504C154.686 351.862 151.92 347.547 149.943 344.462L149.943 344.462C148.922 342.869 148.111 341.603 147.701 341.617C148.879 339.112 153.447 334.382 157.948 329.722C161.936 325.594 165.871 321.52 167.348 319.096C169.871 314.561 171.05 310.755 170.89 307.679C170.714 304.31 168.235 302.751 163.456 302.999C161.663 303.094 158.048 303.868 152.612 305.328C151.655 305.376 151.147 304.814 151.087 303.645C151.04 302.767 155.477 287.69 160.026 283.048L159.31 283.086C142.615 291.589 132.221 310.719 132.487 315.845C132.602 318.041 133.709 319.745 135.809 320.958C137.782 322.028 141.948 322.619 148.306 322.73C146.92 325.114 145.283 325.467 143.501 325.852C141.324 326.322 138.932 326.838 136.521 331.163C132.928 338.102 131.09 343.043 131 345.987C131.485 350.658 131.485 350.658 138.923 356.977L138.923 356.977C139.347 357.337 139.83 357.804 140.366 358.323L140.366 358.323C143.059 360.93 147.119 364.859 152.031 363.257C150.236 365.944 149.185 369.691 148.116 373.504C147.067 377.245 146 381.05 144.194 383.98C142.492 386.932 142.642 386.296 142.718 385.978C142.793 385.66 142.793 385.66 140.789 389.885C140.39 390.726 140.052 391.968 139.793 393.428C137.614 400.433 132.022 420.771 139.793 433.417C139.794 433.422 139.802 433.436 139.818 433.459C140.766 434.994 141.912 436.415 143.285 437.684C143.882 438.236 144.464 438.755 145.031 439.244C151.544 446.479 162.532 458.369 168.518 462.494C174.504 466.62 181.563 465.747 184.195 465.421C184.553 465.377 184.829 465.343 185.009 465.333C187.246 465.207 189.57 465.045 191.751 464.892L191.76 464.892L191.764 464.892L191.769 464.891C194.904 464.672 197.744 464.474 199.605 464.434C203.051 464.04 208.044 461.56 210.458 459.119C211.472 458.09 212.664 457.246 213.854 456.405C215.501 455.239 217.142 454.077 218.296 452.435C219.997 450.503 230.307 424.944 230.997 422.405C231.095 422.046 230.094 422.969 228.649 424.303L228.649 424.303L228.649 424.304L228.649 424.304C227.99 424.912 227.239 425.606 226.457 426.302C223.78 428.685 223.088 429.04 223.262 428.498C223.385 428.117 224.268 426.717 225.237 425.181C226.566 423.074 228.057 420.71 227.977 420.359C227.921 420.106 226.992 421.075 225.993 422.117L225.992 422.117C224.952 423.202 223.835 424.366 223.551 424.311C223.219 424.246 223.367 423.664 224.652 421.858C224.899 421.511 224.631 421.377 224.345 421.233C224.015 421.067 223.661 420.89 224.059 420.359C224.352 419.967 224.775 419.202 225.201 418.434L225.201 418.433C225.631 417.658 226.062 416.879 226.363 416.476C228.599 413.466 230.363 407.826 229.13 408.639C228.995 408.728 228.284 409.922 227.436 411.343C226.249 413.333 224.796 415.77 224.289 416.245C219.428 420.827 213.93 428.949 210.888 433.443L210.887 433.444L210.886 433.445C209.896 434.908 209.166 435.986 208.803 436.433C204.35 441.92 202.245 442.485 197.005 443.892L197.004 443.892C196.425 444.048 195.807 444.214 195.143 444.398C193.325 444.9 186.658 444.043 183.207 443.28C182.841 443.18 182.457 443.084 182.048 442.982C178.985 442.219 174.571 441.119 166.26 435.243C166.26 435.243 166.26 435.243 166.26 435.243C166.26 435.243 166.259 435.242 166.257 435.241C164.683 434.128 162.968 432.843 161.096 431.357C157.43 427.918 152.868 422.06 151.173 413.244Z" fill="url(#paint6_linear_402_2077)"/>
<path d="M26.8582 119.615H21.787L20.8983 121.682C20.6794 122.19 20.5699 122.57 20.5699 122.822C20.5699 123.021 20.6633 123.198 20.85 123.353C21.0432 123.501 21.4553 123.598 22.0864 123.643V124H17.9618V123.643C18.5092 123.546 18.8634 123.42 19.0244 123.266C19.3528 122.957 19.7166 122.329 20.1159 121.382L24.7234 110.602H25.0615L29.6208 121.498C29.9878 122.374 30.3195 122.944 30.6157 123.208C30.9184 123.466 31.3369 123.61 31.8714 123.643V124H26.7036V123.643C27.2252 123.617 27.5762 123.53 27.7565 123.382C27.9433 123.234 28.0366 123.053 28.0366 122.841C28.0366 122.558 27.9078 122.11 27.6502 121.498L26.8582 119.615ZM26.5877 118.9L24.366 113.606L22.0864 118.9H26.5877ZM35.3005 116.765C36.3373 115.516 37.3258 114.891 38.266 114.891C38.7489 114.891 39.1643 115.014 39.512 115.258C39.8598 115.496 40.1367 115.893 40.3427 116.446C40.4844 116.833 40.5552 117.425 40.5552 118.224V122C40.5552 122.561 40.6003 122.941 40.6905 123.14C40.7613 123.301 40.874 123.427 41.0286 123.517C41.1895 123.607 41.4825 123.652 41.9076 123.652V124H37.5318V123.652H37.7154C38.1275 123.652 38.4141 123.591 38.5751 123.469C38.7425 123.34 38.8584 123.153 38.9228 122.908C38.9486 122.812 38.9614 122.509 38.9614 122V118.378C38.9614 117.573 38.8552 116.99 38.6427 116.63C38.4366 116.263 38.0856 116.079 37.5898 116.079C36.8235 116.079 36.0604 116.498 35.3005 117.335V122C35.3005 122.599 35.3359 122.97 35.4068 123.111C35.4969 123.298 35.6193 123.437 35.7738 123.527C35.9348 123.61 36.2568 123.652 36.7398 123.652V124H32.364V123.652H32.5572C33.008 123.652 33.3107 123.54 33.4652 123.314C33.6262 123.082 33.7067 122.644 33.7067 122V118.716C33.7067 117.654 33.6809 117.007 33.6294 116.775C33.5844 116.543 33.5103 116.385 33.4073 116.301C33.3107 116.218 33.1787 116.176 33.0112 116.176C32.8309 116.176 32.6152 116.224 32.364 116.321L32.2192 115.973L34.8852 114.891H35.3005V116.765ZM50.1277 120.639C49.8895 121.804 49.4226 122.702 48.7271 123.333C48.0316 123.958 47.2621 124.27 46.4185 124.27C45.4139 124.27 44.5381 123.849 43.7911 123.005C43.0442 122.161 42.6707 121.022 42.6707 119.586C42.6707 118.195 43.0828 117.065 43.9071 116.195C44.7378 115.326 45.7327 114.891 46.8918 114.891C47.7612 114.891 48.476 115.123 49.0362 115.587C49.5965 116.044 49.8766 116.52 49.8766 117.016C49.8766 117.261 49.7961 117.461 49.6351 117.615C49.4805 117.763 49.2616 117.837 48.9783 117.837C48.5983 117.837 48.3118 117.715 48.1186 117.47C48.0091 117.335 47.935 117.077 47.8964 116.697C47.8642 116.318 47.7354 116.028 47.51 115.828C47.2846 115.635 46.9723 115.538 46.5731 115.538C45.9291 115.538 45.4107 115.777 45.0179 116.253C44.4963 116.884 44.2355 117.718 44.2355 118.755C44.2355 119.811 44.4931 120.745 45.0082 121.556C45.5298 122.361 46.2318 122.764 47.114 122.764C47.7451 122.764 48.3118 122.548 48.814 122.116C49.1682 121.82 49.5127 121.282 49.8476 120.503L50.1277 120.639ZM53.6534 110.264C53.9239 110.264 54.1525 110.361 54.3392 110.554C54.5324 110.741 54.629 110.969 54.629 111.24C54.629 111.51 54.5324 111.742 54.3392 111.935C54.1525 112.129 53.9239 112.225 53.6534 112.225C53.383 112.225 53.1511 112.129 52.9579 111.935C52.7648 111.742 52.6682 111.51 52.6682 111.24C52.6682 110.969 52.7615 110.741 52.9483 110.554C53.1415 110.361 53.3765 110.264 53.6534 110.264ZM54.4551 114.891V122C54.4551 122.554 54.4938 122.925 54.5711 123.111C54.6548 123.292 54.7739 123.427 54.9285 123.517C55.0895 123.607 55.3792 123.652 55.7978 123.652V124H51.4994V123.652C51.9308 123.652 52.2206 123.61 52.3687 123.527C52.5168 123.443 52.6327 123.305 52.7165 123.111C52.8066 122.918 52.8517 122.548 52.8517 122V118.591C52.8517 117.631 52.8227 117.01 52.7648 116.726C52.7197 116.52 52.6488 116.379 52.5522 116.301C52.4556 116.218 52.3236 116.176 52.1562 116.176C51.9759 116.176 51.757 116.224 51.4994 116.321L51.3641 115.973L54.0301 114.891H54.4551ZM58.3962 118.484C58.3898 119.798 58.7085 120.828 59.3525 121.575C59.9964 122.322 60.7531 122.696 61.6224 122.696C62.202 122.696 62.7043 122.538 63.1293 122.223C63.5608 121.901 63.9214 121.353 64.2112 120.581L64.5106 120.774C64.3754 121.656 63.9826 122.461 63.3322 123.189C62.6818 123.91 61.8671 124.27 60.8883 124.27C59.8258 124.27 58.9146 123.858 58.1547 123.034C57.4013 122.203 57.0246 121.089 57.0246 119.692C57.0246 118.179 57.4109 117 58.1837 116.157C58.9629 115.307 59.9385 114.882 61.1105 114.882C62.1022 114.882 62.9168 115.21 63.5543 115.867C64.1918 116.517 64.5106 117.39 64.5106 118.484H58.3962ZM58.3962 117.924H62.4918C62.4596 117.358 62.392 116.958 62.2889 116.726C62.128 116.366 61.8865 116.082 61.5645 115.876C61.2489 115.67 60.9173 115.567 60.5696 115.567C60.0351 115.567 59.5553 115.777 59.1303 116.195C58.7117 116.607 58.467 117.184 58.3962 117.924ZM68.2778 116.765C69.3146 115.516 70.303 114.891 71.2432 114.891C71.7262 114.891 72.1416 115.014 72.4893 115.258C72.837 115.496 73.1139 115.893 73.32 116.446C73.4617 116.833 73.5325 117.425 73.5325 118.224V122C73.5325 122.561 73.5776 122.941 73.6677 123.14C73.7386 123.301 73.8513 123.427 74.0058 123.517C74.1668 123.607 74.4598 123.652 74.8848 123.652V124H70.5091V123.652H70.6926C71.1048 123.652 71.3913 123.591 71.5523 123.469C71.7198 123.34 71.8357 123.153 71.9001 122.908C71.9258 122.812 71.9387 122.509 71.9387 122V118.378C71.9387 117.573 71.8325 116.99 71.6199 116.63C71.4139 116.263 71.0629 116.079 70.5671 116.079C69.8008 116.079 69.0377 116.498 68.2778 117.335V122C68.2778 122.599 68.3132 122.97 68.384 123.111C68.4742 123.298 68.5965 123.437 68.7511 123.527C68.9121 123.61 69.2341 123.652 69.717 123.652V124H65.3413V123.652H65.5345C65.9853 123.652 66.2879 123.54 66.4425 123.314C66.6035 123.082 66.684 122.644 66.684 122V118.716C66.684 117.654 66.6582 117.007 66.6067 116.775C66.5616 116.543 66.4876 116.385 66.3845 116.301C66.2879 116.218 66.1559 116.176 65.9885 116.176C65.8082 116.176 65.5925 116.224 65.3413 116.321L65.1964 115.973L67.8624 114.891H68.2778V116.765ZM78.1594 112.244V115.152H80.2265V115.828H78.1594V121.566C78.1594 122.139 78.2399 122.525 78.4009 122.725C78.5683 122.925 78.7808 123.024 79.0384 123.024C79.2509 123.024 79.457 122.96 79.6566 122.831C79.8562 122.696 80.0108 122.5 80.1202 122.242H80.497C80.2716 122.873 79.9528 123.35 79.5407 123.672C79.1285 123.987 78.7035 124.145 78.2656 124.145C77.9694 124.145 77.6796 124.064 77.3963 123.903C77.1129 123.736 76.9036 123.501 76.7684 123.198C76.6332 122.889 76.5656 122.416 76.5656 121.778V115.828H75.165V115.509C75.5191 115.368 75.8797 115.129 76.2468 114.795C76.6203 114.453 76.9519 114.051 77.2417 113.587C77.3898 113.342 77.5959 112.895 77.8599 112.244H78.1594ZM94.5611 117.316C95.4691 117.509 96.1484 117.818 96.5992 118.243C97.2239 118.835 97.5362 119.56 97.5362 120.416C97.5362 121.067 97.3301 121.691 96.918 122.29C96.5058 122.883 95.9392 123.317 95.2179 123.594C94.5031 123.865 93.4084 124 91.9337 124H85.7517V123.643H86.2443C86.7917 123.643 87.1845 123.469 87.4228 123.121C87.5709 122.896 87.6449 122.416 87.6449 121.682V113.22C87.6449 112.409 87.5516 111.897 87.3648 111.684C87.1137 111.401 86.7402 111.259 86.2443 111.259H85.7517V110.902H91.4121C92.4682 110.902 93.315 110.979 93.9525 111.134C94.9185 111.365 95.6558 111.778 96.1645 112.37C96.6733 112.956 96.9276 113.632 96.9276 114.399C96.9276 115.055 96.728 115.645 96.3288 116.166C95.9295 116.681 95.3403 117.065 94.5611 117.316ZM89.4995 116.794C89.7378 116.839 90.0083 116.875 90.3109 116.9C90.62 116.92 90.9581 116.929 91.3252 116.929C92.2654 116.929 92.9705 116.829 93.4406 116.63C93.9171 116.424 94.281 116.111 94.5321 115.693C94.7832 115.274 94.9088 114.817 94.9088 114.321C94.9088 113.555 94.5965 112.901 93.9719 112.36C93.3472 111.819 92.436 111.549 91.2382 111.549C90.5943 111.549 90.0147 111.62 89.4995 111.762V116.794ZM89.4995 123.053C90.2465 123.227 90.9839 123.314 91.7115 123.314C92.8771 123.314 93.7658 123.053 94.3775 122.532C94.9893 122.004 95.2952 121.353 95.2952 120.581C95.2952 120.072 95.1567 119.582 94.8798 119.112C94.6029 118.642 94.1522 118.272 93.5275 118.001C92.9029 117.731 92.1301 117.596 91.2093 117.596C90.81 117.596 90.4687 117.602 90.1854 117.615C89.902 117.628 89.6734 117.651 89.4995 117.683V123.053ZM103.564 114.891C104.903 114.891 105.979 115.4 106.79 116.417C107.479 117.287 107.823 118.285 107.823 119.412C107.823 120.204 107.633 121.006 107.254 121.817C106.874 122.628 106.349 123.24 105.679 123.652C105.016 124.064 104.275 124.27 103.457 124.27C102.124 124.27 101.065 123.739 100.279 122.677C99.6162 121.782 99.2845 120.777 99.2845 119.663C99.2845 118.852 99.4842 118.047 99.8834 117.248C100.289 116.443 100.82 115.851 101.477 115.471C102.134 115.084 102.83 114.891 103.564 114.891ZM103.264 115.519C102.923 115.519 102.578 115.622 102.231 115.828C101.889 116.028 101.612 116.382 101.4 116.891C101.187 117.399 101.081 118.053 101.081 118.852C101.081 120.139 101.336 121.25 101.844 122.184C102.359 123.118 103.036 123.585 103.873 123.585C104.497 123.585 105.013 123.327 105.418 122.812C105.824 122.297 106.027 121.411 106.027 120.156C106.027 118.584 105.689 117.348 105.013 116.446C104.555 115.828 103.973 115.519 103.264 115.519ZM113.455 114.891C114.794 114.891 115.87 115.4 116.681 116.417C117.37 117.287 117.715 118.285 117.715 119.412C117.715 120.204 117.525 121.006 117.145 121.817C116.765 122.628 116.24 123.24 115.57 123.652C114.907 124.064 114.166 124.27 113.349 124.27C112.016 124.27 110.956 123.739 110.171 122.677C109.507 121.782 109.176 120.777 109.176 119.663C109.176 118.852 109.375 118.047 109.775 117.248C110.18 116.443 110.712 115.851 111.368 115.471C112.025 115.084 112.721 114.891 113.455 114.891ZM113.155 115.519C112.814 115.519 112.47 115.622 112.122 115.828C111.781 116.028 111.504 116.382 111.291 116.891C111.079 117.399 110.972 118.053 110.972 118.852C110.972 120.139 111.227 121.25 111.736 122.184C112.251 123.118 112.927 123.585 113.764 123.585C114.389 123.585 114.904 123.327 115.31 122.812C115.715 122.297 115.918 121.411 115.918 120.156C115.918 118.584 115.58 117.348 114.904 116.446C114.447 115.828 113.864 115.519 113.155 115.519ZM121.636 110.264V119.064L123.887 117.016C124.364 116.578 124.641 116.301 124.718 116.186C124.769 116.108 124.795 116.031 124.795 115.954C124.795 115.825 124.74 115.715 124.631 115.625C124.528 115.529 124.354 115.474 124.109 115.461V115.152H127.954V115.461C127.426 115.474 126.985 115.554 126.63 115.703C126.283 115.851 125.899 116.115 125.481 116.495L123.211 118.591L125.481 121.46C126.112 122.252 126.537 122.754 126.756 122.966C127.065 123.269 127.336 123.466 127.567 123.556C127.728 123.62 128.008 123.652 128.408 123.652V124H124.109V123.652C124.354 123.646 124.518 123.61 124.602 123.546C124.692 123.475 124.737 123.379 124.737 123.256C124.737 123.108 124.608 122.87 124.351 122.541L121.636 119.074V122.01C121.636 122.583 121.675 122.96 121.752 123.14C121.836 123.321 121.952 123.449 122.1 123.527C122.248 123.604 122.57 123.646 123.066 123.652V124H118.565V123.652C119.016 123.652 119.354 123.598 119.579 123.488C119.714 123.417 119.817 123.308 119.888 123.16C119.985 122.947 120.033 122.58 120.033 122.058V114.002C120.033 112.979 120.01 112.354 119.965 112.129C119.92 111.897 119.846 111.739 119.743 111.655C119.64 111.565 119.505 111.52 119.337 111.52C119.202 111.52 118.999 111.575 118.729 111.684L118.565 111.346L121.192 110.264H121.636ZM134.628 114.891V117.905H134.31C134.065 116.958 133.749 116.314 133.363 115.973C132.983 115.632 132.497 115.461 131.904 115.461C131.454 115.461 131.09 115.58 130.813 115.818C130.536 116.057 130.398 116.321 130.398 116.611C130.398 116.971 130.501 117.28 130.707 117.538C130.906 117.802 131.312 118.082 131.924 118.378L133.334 119.064C134.641 119.702 135.295 120.542 135.295 121.585C135.295 122.39 134.989 123.04 134.377 123.536C133.772 124.026 133.093 124.27 132.339 124.27C131.798 124.27 131.18 124.174 130.484 123.981C130.272 123.916 130.098 123.884 129.963 123.884C129.815 123.884 129.699 123.968 129.615 124.135H129.296V120.977H129.615C129.795 121.878 130.14 122.558 130.649 123.015C131.157 123.472 131.727 123.701 132.358 123.701C132.803 123.701 133.163 123.572 133.44 123.314C133.724 123.05 133.865 122.735 133.865 122.368C133.865 121.923 133.708 121.55 133.392 121.247C133.083 120.944 132.461 120.561 131.528 120.098C130.594 119.634 129.982 119.215 129.692 118.842C129.403 118.475 129.258 118.011 129.258 117.451C129.258 116.723 129.506 116.115 130.002 115.625C130.504 115.136 131.151 114.891 131.943 114.891C132.291 114.891 132.713 114.965 133.208 115.113C133.537 115.21 133.756 115.258 133.865 115.258C133.968 115.258 134.049 115.236 134.107 115.191C134.165 115.146 134.232 115.046 134.31 114.891H134.628ZM26.6167 137.891C27.9561 137.891 29.0315 138.4 29.8429 139.417C30.532 140.287 30.8765 141.285 30.8765 142.412C30.8765 143.204 30.6865 144.006 30.3066 144.817C29.9267 145.628 29.4018 146.24 28.7321 146.652C28.0688 147.064 27.3283 147.27 26.5104 147.27C25.1774 147.27 24.1181 146.739 23.3325 145.677C22.6692 144.782 22.3376 143.777 22.3376 142.663C22.3376 141.852 22.5372 141.047 22.9365 140.248C23.3421 139.443 23.8734 138.851 24.5303 138.471C25.1871 138.084 25.8826 137.891 26.6167 137.891ZM26.3172 138.519C25.9759 138.519 25.6314 138.622 25.2837 138.828C24.9424 139.028 24.6655 139.382 24.453 139.891C24.2405 140.399 24.1342 141.053 24.1342 141.852C24.1342 143.139 24.3886 144.25 24.8973 145.184C25.4125 146.118 26.0886 146.585 26.9258 146.585C27.5504 146.585 28.0656 146.327 28.4713 145.812C28.877 145.297 29.0798 144.411 29.0798 143.156C29.0798 141.584 28.7418 140.348 28.0656 139.446C27.6084 138.828 27.0256 138.519 26.3172 138.519ZM35.6386 138.847V144.662C35.6386 145.487 35.7287 146.008 35.9091 146.227C36.1473 146.511 36.4661 146.652 36.8653 146.652H37.6671V147H32.3834V146.652H32.7794C33.037 146.652 33.272 146.588 33.4845 146.459C33.697 146.33 33.8419 146.156 33.9192 145.937C34.0029 145.719 34.0448 145.294 34.0448 144.662V138.847H32.3254V138.152H34.0448V137.572C34.0448 136.69 34.1865 135.943 34.4698 135.331C34.7531 134.72 35.1846 134.227 35.7642 133.854C36.3502 133.474 37.007 133.284 37.7347 133.284C38.4108 133.284 39.0323 133.503 39.599 133.94C39.9725 134.23 40.1592 134.555 40.1592 134.916C40.1592 135.109 40.0755 135.293 39.9081 135.467C39.7406 135.634 39.5603 135.718 39.3671 135.718C39.219 135.718 39.0612 135.666 38.8938 135.563C38.7328 135.454 38.5332 135.225 38.2949 134.877C38.0567 134.523 37.8377 134.285 37.6381 134.163C37.4385 134.04 37.2163 133.979 36.9716 133.979C36.6754 133.979 36.4242 134.06 36.2182 134.221C36.0121 134.375 35.864 134.62 35.7738 134.955C35.6837 135.283 35.6386 136.136 35.6386 137.514V138.152H37.9182V138.847H35.6386ZM56.1359 147L51.0744 135.979V144.73C51.0744 145.535 51.1613 146.037 51.3352 146.237C51.5734 146.507 51.9501 146.643 52.4653 146.643H52.929V147H48.3697V146.643H48.8334C49.3872 146.643 49.78 146.475 50.0118 146.14C50.1535 145.934 50.2243 145.464 50.2243 144.73V136.172C50.2243 135.592 50.1599 135.174 50.0311 134.916C49.941 134.729 49.7735 134.575 49.5288 134.452C49.2906 134.324 48.9042 134.259 48.3697 134.259V133.902H52.0789L56.8314 144.15L61.5065 133.902H65.2157V134.259H64.7618C64.2015 134.259 63.8055 134.427 63.5736 134.762C63.432 134.968 63.3611 135.438 63.3611 136.172V144.73C63.3611 145.535 63.4513 146.037 63.6316 146.237C63.8699 146.507 64.2466 146.643 64.7618 146.643H65.2157V147H59.6519V146.643H60.1156C60.6758 146.643 61.0686 146.475 61.294 146.14C61.4357 145.934 61.5065 145.464 61.5065 144.73V135.979L56.4547 147H56.1359ZM65.7567 138.152H69.8812V138.509H69.6784C69.3886 138.509 69.1697 138.574 69.0216 138.703C68.8799 138.825 68.8091 138.979 68.8091 139.166C68.8091 139.417 68.9153 139.765 69.1278 140.209L71.2819 144.672L73.262 139.784C73.3715 139.52 73.4263 139.26 73.4263 139.002C73.4263 138.886 73.4037 138.799 73.3586 138.741C73.3071 138.67 73.2266 138.616 73.1172 138.577C73.0077 138.532 72.8145 138.509 72.5376 138.509V138.152H75.4161V138.509C75.1778 138.535 74.9943 138.587 74.8655 138.664C74.7367 138.741 74.595 138.886 74.4405 139.099C74.3825 139.189 74.2731 139.437 74.1121 139.842L70.5091 148.671C70.1614 149.528 69.7042 150.175 69.1375 150.613C68.5772 151.051 68.0363 151.269 67.5147 151.269C67.1348 151.269 66.8224 151.16 66.5777 150.941C66.333 150.722 66.2107 150.471 66.2107 150.188C66.2107 149.917 66.2976 149.698 66.4715 149.531C66.6518 149.37 66.8965 149.289 67.2056 149.289C67.4181 149.289 67.7079 149.36 68.0749 149.502C68.3325 149.598 68.4935 149.647 68.5579 149.647C68.7511 149.647 68.9604 149.547 69.1858 149.347C69.4176 149.148 69.6494 148.761 69.8812 148.188L70.5091 146.652L67.3312 139.978C67.2346 139.778 67.08 139.53 66.8675 139.234C66.7065 139.008 66.5745 138.857 66.4715 138.78C66.3234 138.677 66.0851 138.587 65.7567 138.509V138.152ZM78.7196 135.244V138.152H80.7867V138.828H78.7196V144.566C78.7196 145.139 78.8001 145.525 78.9611 145.725C79.1285 145.925 79.341 146.024 79.5986 146.024C79.8111 146.024 80.0172 145.96 80.2168 145.831C80.4165 145.696 80.571 145.5 80.6805 145.242H81.0572C80.8318 145.873 80.5131 146.35 80.1009 146.672C79.6888 146.987 79.2638 147.145 78.8259 147.145C78.5297 147.145 78.2399 147.064 77.9565 146.903C77.6732 146.736 77.4639 146.501 77.3287 146.198C77.1934 145.889 77.1258 145.416 77.1258 144.778V138.828H75.7252V138.509C76.0794 138.368 76.44 138.129 76.8071 137.795C77.1806 137.453 77.5122 137.051 77.802 136.587C77.9501 136.342 78.1562 135.895 78.4202 135.244H78.7196ZM84.2545 133.264V139.736C84.9693 138.95 85.536 138.448 85.9545 138.229C86.3731 138.004 86.7917 137.891 87.2103 137.891C87.7125 137.891 88.144 138.03 88.5046 138.307C88.8652 138.583 89.1325 139.018 89.3064 139.611C89.4287 140.023 89.4899 140.776 89.4899 141.871V145C89.4899 145.561 89.535 145.944 89.6251 146.15C89.6895 146.305 89.799 146.427 89.9535 146.517C90.1081 146.607 90.3914 146.652 90.8036 146.652V147H86.4568V146.652H86.6597C87.0718 146.652 87.3584 146.591 87.5194 146.469C87.6804 146.34 87.793 146.153 87.8574 145.908C87.8768 145.805 87.8864 145.503 87.8864 145V141.871C87.8864 140.905 87.8349 140.271 87.7319 139.968C87.6353 139.665 87.4775 139.44 87.2586 139.292C87.0396 139.137 86.7756 139.06 86.4665 139.06C86.1509 139.06 85.8225 139.144 85.4812 139.311C85.1399 139.479 84.731 139.817 84.2545 140.325V145C84.2545 145.606 84.2867 145.983 84.3511 146.131C84.4219 146.279 84.5475 146.404 84.7278 146.507C84.9145 146.604 85.2333 146.652 85.6841 146.652V147H81.2987V146.652C81.6915 146.652 82.0006 146.591 82.226 146.469C82.3548 146.404 82.4578 146.282 82.5351 146.102C82.6124 145.921 82.651 145.554 82.651 145V136.993C82.651 135.982 82.6253 135.36 82.5737 135.129C82.5287 134.897 82.4546 134.739 82.3516 134.655C82.255 134.572 82.123 134.53 81.9555 134.53C81.8203 134.53 81.6014 134.581 81.2987 134.684L81.1635 134.346L83.8101 133.264H84.2545ZM95.8748 137.891C97.2142 137.891 98.2896 138.4 99.101 139.417C99.79 140.287 100.135 141.285 100.135 142.412C100.135 143.204 99.9446 144.006 99.5647 144.817C99.1847 145.628 98.6599 146.24 97.9902 146.652C97.3269 147.064 96.5863 147.27 95.7685 147.27C94.4355 147.27 93.3762 146.739 92.5906 145.677C91.9273 144.782 91.5956 143.777 91.5956 142.663C91.5956 141.852 91.7953 141.047 92.1945 140.248C92.6002 139.443 93.1315 138.851 93.7883 138.471C94.4452 138.084 95.1406 137.891 95.8748 137.891ZM95.5753 138.519C95.234 138.519 94.8895 138.622 94.5418 138.828C94.2005 139.028 93.9236 139.382 93.711 139.891C93.4985 140.399 93.3923 141.053 93.3923 141.852C93.3923 143.139 93.6466 144.25 94.1554 145.184C94.6705 146.118 95.3467 146.585 96.1839 146.585C96.8085 146.585 97.3237 146.327 97.7294 145.812C98.1351 145.297 98.3379 144.411 98.3379 143.156C98.3379 141.584 97.9998 140.348 97.3237 139.446C96.8665 138.828 96.2837 138.519 95.5753 138.519ZM104.481 133.264V145C104.481 145.554 104.52 145.921 104.597 146.102C104.681 146.282 104.807 146.42 104.974 146.517C105.141 146.607 105.454 146.652 105.911 146.652V147H101.574V146.652C101.98 146.652 102.256 146.61 102.405 146.527C102.553 146.443 102.669 146.305 102.752 146.111C102.836 145.918 102.878 145.548 102.878 145V136.964C102.878 135.966 102.855 135.354 102.81 135.129C102.765 134.897 102.691 134.739 102.588 134.655C102.491 134.572 102.366 134.53 102.211 134.53C102.044 134.53 101.831 134.581 101.574 134.684L101.41 134.346L104.047 133.264H104.481ZM111.272 137.891C112.611 137.891 113.687 138.4 114.498 139.417C115.187 140.287 115.532 141.285 115.532 142.412C115.532 143.204 115.342 144.006 114.962 144.817C114.582 145.628 114.057 146.24 113.387 146.652C112.724 147.064 111.983 147.27 111.166 147.27C109.833 147.27 108.773 146.739 107.988 145.677C107.324 144.782 106.993 143.777 106.993 142.663C106.993 141.852 107.192 141.047 107.592 140.248C107.997 139.443 108.529 138.851 109.185 138.471C109.842 138.084 110.538 137.891 111.272 137.891ZM110.972 138.519C110.631 138.519 110.287 138.622 109.939 138.828C109.598 139.028 109.321 139.382 109.108 139.891C108.896 140.399 108.789 141.053 108.789 141.852C108.789 143.139 109.044 144.25 109.553 145.184C110.068 146.118 110.744 146.585 111.581 146.585C112.206 146.585 112.721 146.327 113.126 145.812C113.532 145.297 113.735 144.411 113.735 143.156C113.735 141.584 113.397 140.348 112.721 139.446C112.264 138.828 111.681 138.519 110.972 138.519ZM119.202 143.774C118.661 143.51 118.246 143.143 117.956 142.673C117.666 142.196 117.522 141.671 117.522 141.098C117.522 140.222 117.85 139.469 118.507 138.838C119.17 138.207 120.017 137.891 121.047 137.891C121.891 137.891 122.622 138.097 123.24 138.509H125.114C125.391 138.509 125.552 138.519 125.597 138.538C125.642 138.551 125.674 138.577 125.693 138.616C125.732 138.674 125.751 138.777 125.751 138.925C125.751 139.092 125.735 139.208 125.703 139.272C125.684 139.305 125.648 139.33 125.597 139.35C125.552 139.369 125.391 139.379 125.114 139.379H123.964C124.325 139.842 124.505 140.435 124.505 141.156C124.505 141.98 124.19 142.685 123.559 143.271C122.928 143.857 122.081 144.15 121.018 144.15C120.58 144.15 120.133 144.086 119.676 143.957C119.392 144.202 119.199 144.418 119.096 144.604C118.999 144.785 118.951 144.939 118.951 145.068C118.951 145.178 119.003 145.284 119.106 145.387C119.215 145.49 119.424 145.564 119.734 145.609C119.914 145.635 120.365 145.657 121.086 145.677C122.412 145.709 123.272 145.754 123.665 145.812C124.264 145.896 124.74 146.118 125.095 146.478C125.455 146.839 125.635 147.283 125.635 147.811C125.635 148.539 125.294 149.222 124.612 149.859C123.607 150.799 122.297 151.269 120.68 151.269C119.437 151.269 118.388 150.989 117.531 150.429C117.048 150.107 116.807 149.772 116.807 149.425C116.807 149.27 116.842 149.115 116.913 148.961C117.022 148.723 117.248 148.391 117.589 147.966C117.634 147.908 117.963 147.56 118.574 146.923C118.24 146.723 118.001 146.546 117.86 146.391C117.724 146.23 117.657 146.05 117.657 145.851C117.657 145.625 117.747 145.361 117.927 145.058C118.114 144.756 118.539 144.328 119.202 143.774ZM120.883 138.355C120.406 138.355 120.007 138.545 119.685 138.925C119.363 139.305 119.202 139.887 119.202 140.673C119.202 141.691 119.421 142.479 119.859 143.04C120.194 143.465 120.619 143.677 121.134 143.677C121.624 143.677 122.026 143.494 122.342 143.127C122.657 142.76 122.815 142.183 122.815 141.398C122.815 140.374 122.593 139.572 122.148 138.992C121.82 138.567 121.398 138.355 120.883 138.355ZM119.106 147C118.803 147.328 118.574 147.634 118.42 147.918C118.265 148.201 118.188 148.462 118.188 148.7C118.188 149.009 118.375 149.28 118.748 149.511C119.392 149.911 120.323 150.11 121.54 150.11C122.699 150.11 123.552 149.904 124.1 149.492C124.653 149.086 124.93 148.652 124.93 148.188C124.93 147.853 124.766 147.615 124.438 147.473C124.103 147.332 123.44 147.248 122.448 147.222C120.999 147.184 119.885 147.109 119.106 147ZM126.225 138.152H130.349V138.509H130.146C129.857 138.509 129.638 138.574 129.49 138.703C129.348 138.825 129.277 138.979 129.277 139.166C129.277 139.417 129.383 139.765 129.596 140.209L131.75 144.672L133.73 139.784C133.84 139.52 133.894 139.26 133.894 139.002C133.894 138.886 133.872 138.799 133.827 138.741C133.775 138.67 133.695 138.616 133.585 138.577C133.476 138.532 133.282 138.509 133.006 138.509V138.152H135.884V138.509C135.646 138.535 135.462 138.587 135.333 138.664C135.205 138.741 135.063 138.886 134.908 139.099C134.851 139.189 134.741 139.437 134.58 139.842L130.977 148.671C130.629 149.528 130.172 150.175 129.605 150.613C129.045 151.051 128.504 151.269 127.983 151.269C127.603 151.269 127.29 151.16 127.046 150.941C126.801 150.722 126.679 150.471 126.679 150.188C126.679 149.917 126.766 149.698 126.939 149.531C127.12 149.37 127.364 149.289 127.674 149.289C127.886 149.289 128.176 149.36 128.543 149.502C128.801 149.598 128.961 149.647 129.026 149.647C129.219 149.647 129.428 149.547 129.654 149.347C129.886 149.148 130.117 148.761 130.349 148.188L130.977 146.652L127.799 139.978C127.703 139.778 127.548 139.53 127.335 139.234C127.175 139.008 127.042 138.857 126.939 138.78C126.791 138.677 126.553 138.587 126.225 138.509V138.152Z" fill="#D1B764"/>
<path d="M12.1565 159.602L12.456 164.055H12.1565C11.7573 162.722 11.1874 161.763 10.4468 161.177C9.70626 160.591 8.81759 160.298 7.78081 160.298C6.91146 160.298 6.12583 160.52 5.42391 160.964C4.72199 161.402 4.16819 162.104 3.76249 163.07C3.36323 164.036 3.16361 165.237 3.16361 166.673C3.16361 167.858 3.35357 168.885 3.73351 169.754C4.11345 170.624 4.68336 171.29 5.44323 171.754C6.20954 172.218 7.08211 172.449 8.06093 172.449C8.91096 172.449 9.66118 172.269 10.3116 171.908C10.962 171.541 11.6768 170.817 12.456 169.735L12.7554 169.928C12.0986 171.094 11.3323 171.947 10.4565 172.488C9.58068 173.029 8.54068 173.299 7.33648 173.299C5.16633 173.299 3.48559 172.494 2.29426 170.885C1.40559 169.687 0.961257 168.277 0.961257 166.654C0.961257 165.347 1.25426 164.146 1.84026 163.051C2.42627 161.956 3.23122 161.109 4.25512 160.51C5.28546 159.905 6.40917 159.602 7.62626 159.602C8.57288 159.602 9.50663 159.834 10.4275 160.298C10.698 160.44 10.8911 160.51 11.0071 160.51C11.1809 160.51 11.3323 160.449 11.4611 160.327C11.6285 160.153 11.7476 159.911 11.8184 159.602H12.1565ZM16.6578 159.264V165.736C17.3726 164.95 17.9393 164.448 18.3579 164.229C18.7765 164.004 19.195 163.891 19.6136 163.891C20.1159 163.891 20.5473 164.03 20.908 164.307C21.2686 164.583 21.5358 165.018 21.7097 165.611C21.8321 166.023 21.8932 166.776 21.8932 167.871V171C21.8932 171.561 21.9383 171.944 22.0285 172.15C22.0929 172.305 22.2023 172.427 22.3569 172.517C22.5114 172.607 22.7948 172.652 23.2069 172.652V173H18.8602V172.652H19.063C19.4752 172.652 19.7617 172.591 19.9227 172.469C20.0837 172.34 20.1964 172.153 20.2608 171.908C20.2801 171.805 20.2898 171.503 20.2898 171V167.871C20.2898 166.905 20.2382 166.271 20.1352 165.968C20.0386 165.665 19.8808 165.44 19.6619 165.292C19.443 165.137 19.1789 165.06 18.8698 165.06C18.5543 165.06 18.2259 165.144 17.8846 165.311C17.5433 165.479 17.1344 165.817 16.6578 166.325V171C16.6578 171.606 16.69 171.983 16.7544 172.131C16.8253 172.279 16.9508 172.404 17.1311 172.507C17.3179 172.604 17.6366 172.652 18.0874 172.652V173H13.702V172.652C14.0949 172.652 14.404 172.591 14.6293 172.469C14.7581 172.404 14.8612 172.282 14.9384 172.102C15.0157 171.921 15.0544 171.554 15.0544 171V162.993C15.0544 161.982 15.0286 161.36 14.9771 161.129C14.932 160.897 14.8579 160.739 14.7549 160.655C14.6583 160.572 14.5263 160.53 14.3589 160.53C14.2236 160.53 14.0047 160.581 13.702 160.684L13.5668 160.346L16.2135 159.264H16.6578ZM26.2013 159.264C26.4718 159.264 26.7004 159.361 26.8871 159.554C27.0803 159.741 27.1769 159.969 27.1769 160.24C27.1769 160.51 27.0803 160.742 26.8871 160.935C26.7004 161.129 26.4718 161.225 26.2013 161.225C25.9309 161.225 25.699 161.129 25.5059 160.935C25.3127 160.742 25.2161 160.51 25.2161 160.24C25.2161 159.969 25.3094 159.741 25.4962 159.554C25.6894 159.361 25.9244 159.264 26.2013 159.264ZM27.0031 163.891V171C27.0031 171.554 27.0417 171.925 27.119 172.111C27.2027 172.292 27.3218 172.427 27.4764 172.517C27.6374 172.607 27.9271 172.652 28.3457 172.652V173H24.0473V172.652C24.4787 172.652 24.7685 172.61 24.9166 172.527C25.0647 172.443 25.1807 172.305 25.2644 172.111C25.3545 171.918 25.3996 171.548 25.3996 171V167.591C25.3996 166.631 25.3706 166.01 25.3127 165.726C25.2676 165.52 25.1968 165.379 25.1002 165.301C25.0036 165.218 24.8715 165.176 24.7041 165.176C24.5238 165.176 24.3049 165.224 24.0473 165.321L23.912 164.973L26.578 163.891H27.0031ZM30.9441 167.484C30.9377 168.798 31.2564 169.828 31.9004 170.575C32.5444 171.322 33.301 171.696 34.1704 171.696C34.7499 171.696 35.2522 171.538 35.6772 171.223C36.1087 170.901 36.4693 170.353 36.7591 169.581L37.0585 169.774C36.9233 170.656 36.5305 171.461 35.8801 172.189C35.2297 172.91 34.4151 173.27 33.4362 173.27C32.3737 173.27 31.4625 172.858 30.7026 172.034C29.9492 171.203 29.5725 170.089 29.5725 168.692C29.5725 167.179 29.9588 166 30.7316 165.157C31.5108 164.307 32.4864 163.882 33.6584 163.882C34.6501 163.882 35.4647 164.21 36.1022 164.867C36.7398 165.517 37.0585 166.39 37.0585 167.484H30.9441ZM30.9441 166.924H35.0397C35.0075 166.358 34.9399 165.958 34.8369 165.726C34.6759 165.366 34.4344 165.082 34.1124 164.876C33.7969 164.67 33.4652 164.567 33.1175 164.567C32.583 164.567 32.1032 164.777 31.6782 165.195C31.2596 165.607 31.0149 166.184 30.9441 166.924ZM40.8257 165.765C41.8625 164.516 42.851 163.891 43.7911 163.891C44.2741 163.891 44.6895 164.014 45.0372 164.258C45.3849 164.496 45.6618 164.893 45.8679 165.446C46.0096 165.833 46.0804 166.425 46.0804 167.224V171C46.0804 171.561 46.1255 171.941 46.2157 172.14C46.2865 172.301 46.3992 172.427 46.5537 172.517C46.7147 172.607 47.0077 172.652 47.4327 172.652V173H43.057V172.652H43.2406C43.6527 172.652 43.9393 172.591 44.1002 172.469C44.2677 172.34 44.3836 172.153 44.448 171.908C44.4737 171.812 44.4866 171.509 44.4866 171V167.378C44.4866 166.573 44.3804 165.99 44.1679 165.63C43.9618 165.263 43.6108 165.079 43.115 165.079C42.3487 165.079 41.5856 165.498 40.8257 166.335V171C40.8257 171.599 40.8611 171.97 40.932 172.111C41.0221 172.298 41.1445 172.437 41.299 172.527C41.46 172.61 41.782 172.652 42.265 172.652V173H37.8892V172.652H38.0824C38.5332 172.652 38.8359 172.54 38.9904 172.314C39.1514 172.082 39.2319 171.644 39.2319 171V167.716C39.2319 166.654 39.2061 166.007 39.1546 165.775C39.1095 165.543 39.0355 165.385 38.9325 165.301C38.8359 165.218 38.7038 165.176 38.5364 165.176C38.3561 165.176 38.1404 165.224 37.8892 165.321L37.7443 164.973L40.4103 163.891H40.8257V165.765ZM56.5319 165.978H62.6174V162.23C62.6174 161.56 62.5755 161.119 62.4918 160.906C62.4274 160.745 62.2922 160.607 62.0861 160.491C61.8092 160.336 61.5162 160.259 61.2071 160.259H60.7434V159.902H66.3459V160.259H65.8822C65.5731 160.259 65.2801 160.333 65.0032 160.481C64.7972 160.584 64.6555 160.742 64.5782 160.955C64.5074 161.161 64.472 161.586 64.472 162.23V170.682C64.472 171.345 64.5138 171.783 64.5975 171.995C64.6619 172.156 64.7939 172.295 64.9936 172.411C65.2769 172.565 65.5731 172.643 65.8822 172.643H66.3459V173H60.7434V172.643H61.2071C61.7416 172.643 62.1312 172.485 62.3759 172.169C62.5369 171.963 62.6174 171.467 62.6174 170.682V166.692H56.5319V170.682C56.5319 171.345 56.5738 171.783 56.6575 171.995C56.7219 172.156 56.8571 172.295 57.0632 172.411C57.3401 172.565 57.6331 172.643 57.9422 172.643H58.4155V173H52.8034V172.643H53.267C53.808 172.643 54.2008 172.485 54.4455 172.169C54.6 171.963 54.6773 171.467 54.6773 170.682V162.23C54.6773 161.56 54.6355 161.119 54.5517 160.906C54.4873 160.745 54.3553 160.607 54.1557 160.491C53.8724 160.336 53.5761 160.259 53.267 160.259H52.8034V159.902H58.4155V160.259H57.9422C57.6331 160.259 57.3401 160.333 57.0632 160.481C56.8636 160.584 56.7251 160.742 56.6478 160.955C56.5706 161.161 56.5319 161.586 56.5319 162.23V165.978ZM75.136 164.152V169.513C75.136 170.537 75.1585 171.165 75.2036 171.397C75.2551 171.622 75.3324 171.78 75.4354 171.87C75.5449 171.96 75.6705 172.005 75.8121 172.005C76.0118 172.005 76.2371 171.95 76.4883 171.841L76.6235 172.179L73.9768 173.27H73.5422V171.397C72.7823 172.221 72.2027 172.739 71.8035 172.952C71.4042 173.164 70.9824 173.27 70.5381 173.27C70.0422 173.27 69.6108 173.129 69.2437 172.845C68.8831 172.556 68.632 172.185 68.4903 171.735C68.3486 171.284 68.2778 170.646 68.2778 169.822V165.871C68.2778 165.453 68.2327 165.163 68.1426 165.002C68.0524 164.841 67.9172 164.719 67.7369 164.635C67.563 164.545 67.2442 164.503 66.7806 164.509V164.152H69.8812V170.073C69.8812 170.897 70.0229 171.438 70.3063 171.696C70.596 171.954 70.9438 172.082 71.3495 172.082C71.6264 172.082 71.9387 171.995 72.2864 171.822C72.6406 171.648 73.0592 171.316 73.5422 170.827V165.813C73.5422 165.311 73.4488 164.973 73.262 164.799C73.0817 164.619 72.7018 164.522 72.1222 164.509V164.152H75.136ZM79.8498 165.765C80.8865 164.516 81.875 163.891 82.8152 163.891C83.2982 163.891 83.7135 164.014 84.0613 164.258C84.409 164.496 84.6859 164.893 84.892 165.446C85.0337 165.833 85.1045 166.425 85.1045 167.224V171C85.1045 171.561 85.1496 171.941 85.2397 172.14C85.3106 172.301 85.4233 172.427 85.5778 172.517C85.7388 172.607 86.0318 172.652 86.4568 172.652V173H82.0811V172.652H82.2646C82.6768 172.652 82.9633 172.591 83.1243 172.469C83.2917 172.34 83.4077 172.153 83.472 171.908C83.4978 171.812 83.5107 171.509 83.5107 171V167.378C83.5107 166.573 83.4044 165.99 83.1919 165.63C82.9859 165.263 82.6349 165.079 82.139 165.079C81.3727 165.079 80.6096 165.498 79.8498 166.335V171C79.8498 171.599 79.8852 171.97 79.956 172.111C80.0462 172.298 80.1685 172.437 80.3231 172.527C80.4841 172.61 80.806 172.652 81.289 172.652V173H76.9133V172.652H77.1065C77.5573 172.652 77.8599 172.54 78.0145 172.314C78.1755 172.082 78.256 171.644 78.256 171V167.716C78.256 166.654 78.2302 166.007 78.1787 165.775C78.1336 165.543 78.0596 165.385 77.9565 165.301C77.8599 165.218 77.7279 165.176 77.5605 165.176C77.3802 165.176 77.1644 165.224 76.9133 165.321L76.7684 164.973L79.4344 163.891H79.8498V165.765ZM89.5285 169.774C88.9876 169.51 88.5722 169.143 88.2824 168.673C87.9927 168.196 87.8478 167.671 87.8478 167.098C87.8478 166.222 88.1762 165.469 88.833 164.838C89.4963 164.207 90.3431 163.891 91.3735 163.891C92.217 163.891 92.9479 164.097 93.5661 164.509H95.4401C95.717 164.509 95.878 164.519 95.923 164.538C95.9681 164.551 96.0003 164.577 96.0196 164.616C96.0583 164.674 96.0776 164.777 96.0776 164.925C96.0776 165.092 96.0615 165.208 96.0293 165.272C96.01 165.305 95.9746 165.33 95.923 165.35C95.878 165.369 95.717 165.379 95.4401 165.379H94.2906C94.6512 165.842 94.8315 166.435 94.8315 167.156C94.8315 167.98 94.516 168.685 93.8849 169.271C93.2538 169.857 92.407 170.15 91.3445 170.15C90.9066 170.15 90.459 170.086 90.0018 169.957C89.7185 170.202 89.5253 170.418 89.4223 170.604C89.3257 170.785 89.2774 170.939 89.2774 171.068C89.2774 171.178 89.3289 171.284 89.4319 171.387C89.5414 171.49 89.7507 171.564 90.0598 171.609C90.2401 171.635 90.6909 171.657 91.4121 171.677C92.7387 171.709 93.5983 171.754 93.9912 171.812C94.59 171.896 95.0666 172.118 95.4208 172.478C95.7814 172.839 95.9617 173.283 95.9617 173.811C95.9617 174.539 95.6204 175.222 94.9378 175.859C93.9332 176.799 92.6227 177.269 91.0064 177.269C89.7636 177.269 88.7139 176.989 87.8574 176.429C87.3745 176.107 87.133 175.772 87.133 175.425C87.133 175.27 87.1684 175.115 87.2392 174.961C87.3487 174.723 87.5741 174.391 87.9154 173.966C87.9605 173.908 88.2889 173.56 88.9006 172.923C88.5658 172.723 88.3275 172.546 88.1858 172.391C88.0506 172.23 87.983 172.05 87.983 171.851C87.983 171.625 88.0732 171.361 88.2535 171.058C88.4402 170.756 88.8652 170.328 89.5285 169.774ZM91.2092 164.355C90.7327 164.355 90.3335 164.545 90.0115 164.925C89.6895 165.305 89.5285 165.887 89.5285 166.673C89.5285 167.691 89.7475 168.479 90.1853 169.04C90.5202 169.465 90.9452 169.677 91.4604 169.677C91.9498 169.677 92.3523 169.494 92.6678 169.127C92.9834 168.76 93.1411 168.183 93.1411 167.398C93.1411 166.374 92.919 165.572 92.4746 164.992C92.1462 164.567 91.7244 164.355 91.2092 164.355ZM89.4319 173C89.1293 173.328 88.9006 173.634 88.7461 173.918C88.5915 174.201 88.5143 174.462 88.5143 174.7C88.5143 175.009 88.701 175.28 89.0745 175.511C89.7185 175.911 90.649 176.11 91.8661 176.11C93.0252 176.11 93.8785 175.904 94.4258 175.492C94.9796 175.086 95.2565 174.652 95.2565 174.188C95.2565 173.853 95.0923 173.615 94.7639 173.473C94.4291 173.332 93.7658 173.248 92.7741 173.222C91.3252 173.184 90.2111 173.109 89.4319 173ZM97.2367 167.832H102.231V169.291H97.2367V167.832ZM103.139 164.152H107.263V164.509H107.06C106.771 164.509 106.552 164.574 106.404 164.703C106.262 164.825 106.191 164.979 106.191 165.166C106.191 165.417 106.297 165.765 106.51 166.209L108.664 170.672L110.644 165.784C110.753 165.52 110.808 165.26 110.808 165.002C110.808 164.886 110.786 164.799 110.741 164.741C110.689 164.67 110.609 164.616 110.499 164.577C110.39 164.532 110.196 164.509 109.92 164.509V164.152H112.798V164.509C112.56 164.535 112.376 164.587 112.247 164.664C112.119 164.741 111.977 164.886 111.822 165.099C111.765 165.189 111.655 165.437 111.494 165.842L107.891 174.671C107.543 175.528 107.086 176.175 106.519 176.613C105.959 177.051 105.418 177.269 104.897 177.269C104.517 177.269 104.204 177.16 103.96 176.941C103.715 176.722 103.593 176.471 103.593 176.188C103.593 175.917 103.68 175.698 103.853 175.531C104.034 175.37 104.278 175.289 104.588 175.289C104.8 175.289 105.09 175.36 105.457 175.502C105.714 175.598 105.875 175.647 105.94 175.647C106.133 175.647 106.342 175.547 106.568 175.347C106.8 175.148 107.031 174.761 107.263 174.188L107.891 172.652L104.713 165.978C104.617 165.778 104.462 165.53 104.249 165.234C104.088 165.008 103.956 164.857 103.853 164.78C103.705 164.677 103.467 164.587 103.139 164.509V164.152ZM121.289 164.152V169.513C121.289 170.537 121.311 171.165 121.356 171.397C121.408 171.622 121.485 171.78 121.588 171.87C121.698 171.96 121.823 172.005 121.965 172.005C122.164 172.005 122.39 171.95 122.641 171.841L122.776 172.179L120.13 173.27H119.695V171.397C118.935 172.221 118.355 172.739 117.956 172.952C117.557 173.164 117.135 173.27 116.691 173.27C116.195 173.27 115.764 173.129 115.396 172.845C115.036 172.556 114.785 172.185 114.643 171.735C114.501 171.284 114.431 170.646 114.431 169.822V165.871C114.431 165.453 114.385 165.163 114.295 165.002C114.205 164.841 114.07 164.719 113.89 164.635C113.716 164.545 113.397 164.503 112.933 164.509V164.152H116.034V170.073C116.034 170.897 116.176 171.438 116.459 171.696C116.749 171.954 117.097 172.082 117.502 172.082C117.779 172.082 118.091 171.995 118.439 171.822C118.793 171.648 119.212 171.316 119.695 170.827V165.813C119.695 165.311 119.602 164.973 119.415 164.799C119.234 164.619 118.855 164.522 118.275 164.509V164.152H121.289ZM125.104 164.606V164.152C125.767 163.759 126.218 163.392 126.456 163.051C126.624 162.806 126.708 162.513 126.708 162.172C126.708 161.972 126.672 161.824 126.601 161.727C126.524 161.631 126.44 161.583 126.35 161.583C126.279 161.583 126.186 161.605 126.07 161.65C125.903 161.708 125.764 161.737 125.655 161.737C125.397 161.737 125.169 161.641 124.969 161.447C124.769 161.254 124.669 161.013 124.669 160.723C124.669 160.401 124.769 160.15 124.969 159.969C125.239 159.725 125.561 159.602 125.935 159.602C126.366 159.602 126.753 159.786 127.094 160.153C127.442 160.514 127.616 160.964 127.616 161.505C127.616 162.265 127.329 162.957 126.756 163.582C126.376 163.994 125.825 164.335 125.104 164.606ZM134.628 163.891V166.905H134.31C134.065 165.958 133.749 165.314 133.363 164.973C132.983 164.632 132.497 164.461 131.904 164.461C131.454 164.461 131.09 164.58 130.813 164.818C130.536 165.057 130.398 165.321 130.398 165.611C130.398 165.971 130.501 166.28 130.707 166.538C130.906 166.802 131.312 167.082 131.924 167.378L133.334 168.064C134.641 168.702 135.295 169.542 135.295 170.585C135.295 171.39 134.989 172.04 134.377 172.536C133.772 173.026 133.093 173.27 132.339 173.27C131.798 173.27 131.18 173.174 130.484 172.981C130.272 172.916 130.098 172.884 129.963 172.884C129.815 172.884 129.699 172.968 129.615 173.135H129.296V169.977H129.615C129.795 170.878 130.14 171.558 130.649 172.015C131.157 172.472 131.727 172.701 132.358 172.701C132.803 172.701 133.163 172.572 133.44 172.314C133.724 172.05 133.865 171.735 133.865 171.368C133.865 170.923 133.707 170.55 133.392 170.247C133.083 169.944 132.461 169.561 131.528 169.098C130.594 168.634 129.982 168.215 129.692 167.842C129.403 167.475 129.258 167.011 129.258 166.451C129.258 165.723 129.506 165.115 130.001 164.625C130.504 164.136 131.151 163.891 131.943 163.891C132.291 163.891 132.713 163.965 133.208 164.113C133.537 164.21 133.756 164.258 133.865 164.258C133.968 164.258 134.049 164.236 134.107 164.191C134.165 164.146 134.232 164.046 134.31 163.891H134.628ZM69.6784 189.866V193.682C69.6784 194.506 69.7685 195.018 69.9489 195.218C70.1936 195.501 70.5638 195.643 71.0597 195.643H71.562V196H65.9499V195.643H66.4425C66.9963 195.643 67.3923 195.462 67.6306 195.102C67.7594 194.902 67.8238 194.429 67.8238 193.682V185.22C67.8238 184.396 67.7369 183.884 67.563 183.684C67.3118 183.401 66.9383 183.259 66.4425 183.259H65.9499V182.902H70.7506C71.9226 182.902 72.8467 183.024 73.5228 183.269C74.199 183.507 74.7689 183.913 75.2326 184.486C75.6962 185.059 75.928 185.738 75.928 186.524C75.928 187.593 75.5739 188.462 74.8655 189.132C74.1636 189.802 73.1687 190.137 71.8807 190.137C71.5652 190.137 71.2239 190.114 70.8568 190.069C70.4898 190.024 70.097 189.956 69.6784 189.866ZM69.6784 189.316C70.0197 189.38 70.3224 189.428 70.5864 189.461C70.8504 189.493 71.0758 189.509 71.2625 189.509C71.9323 189.509 72.5086 189.251 72.9916 188.736C73.481 188.215 73.7257 187.542 73.7257 186.717C73.7257 186.151 73.6098 185.626 73.378 185.143C73.1461 184.653 72.8177 184.29 72.3927 184.051C71.9677 183.807 71.4847 183.684 70.9438 183.684C70.6154 183.684 70.1936 183.745 69.6784 183.868V189.316ZM81.5788 186.891C82.9182 186.891 83.9937 187.4 84.8051 188.417C85.4941 189.287 85.8386 190.285 85.8386 191.412C85.8386 192.204 85.6486 193.006 85.2687 193.817C84.8888 194.628 84.3639 195.24 83.6942 195.652C83.0309 196.064 82.2904 196.27 81.4725 196.27C80.1395 196.27 79.0802 195.739 78.2946 194.677C77.6313 193.782 77.2997 192.777 77.2997 191.663C77.2997 190.852 77.4993 190.047 77.8986 189.248C78.3043 188.443 78.8355 187.851 79.4924 187.471C80.1492 187.084 80.8447 186.891 81.5788 186.891ZM81.2794 187.519C80.9381 187.519 80.5935 187.622 80.2458 187.828C79.9045 188.028 79.6276 188.382 79.4151 188.891C79.2026 189.399 79.0963 190.053 79.0963 190.852C79.0963 192.139 79.3507 193.25 79.8594 194.184C80.3746 195.118 81.0508 195.585 81.8879 195.585C82.5125 195.585 83.0277 195.327 83.4334 194.812C83.8391 194.297 84.042 193.411 84.042 192.156C84.042 190.584 83.7039 189.348 83.0277 188.446C82.5705 187.828 81.9877 187.519 81.2794 187.519ZM89.7314 186.891V188.881C90.4719 187.554 91.2318 186.891 92.011 186.891C92.3652 186.891 92.6582 187.001 92.89 187.22C93.1218 187.432 93.2377 187.68 93.2377 187.963C93.2377 188.215 93.154 188.427 92.9866 188.601C92.8192 188.775 92.6195 188.862 92.3877 188.862C92.1623 188.862 91.9079 188.752 91.6246 188.533C91.3477 188.308 91.1416 188.195 91.0064 188.195C90.8905 188.195 90.7649 188.26 90.6297 188.388C90.3399 188.652 90.0405 189.087 89.7314 189.692V193.933C89.7314 194.422 89.7925 194.793 89.9149 195.044C89.9986 195.218 90.1467 195.362 90.3592 195.478C90.5717 195.594 90.8776 195.652 91.2769 195.652V196H86.7466V195.652C87.1974 195.652 87.5322 195.581 87.7512 195.44C87.9122 195.337 88.0249 195.173 88.0893 194.947C88.1215 194.838 88.1376 194.525 88.1376 194.01V190.581C88.1376 189.551 88.115 188.939 88.0699 188.746C88.0313 188.546 87.954 188.401 87.8381 188.311C87.7286 188.221 87.5902 188.176 87.4228 188.176C87.2231 188.176 86.9977 188.224 86.7466 188.321L86.65 187.973L89.3257 186.891H89.7314ZM96.2998 184.244V187.152H98.3669V187.828H96.2998V193.566C96.2998 194.139 96.3803 194.525 96.5413 194.725C96.7087 194.925 96.9212 195.024 97.1788 195.024C97.3913 195.024 97.5974 194.96 97.797 194.831C97.9966 194.696 98.1512 194.5 98.2606 194.242H98.6373C98.412 194.873 98.0932 195.35 97.6811 195.672C97.2689 195.987 96.8439 196.145 96.406 196.145C96.1098 196.145 95.82 196.064 95.5367 195.903C95.2533 195.736 95.044 195.501 94.9088 195.198C94.7736 194.889 94.706 194.416 94.706 193.778V187.828H93.3053V187.509C93.6595 187.368 94.0201 187.129 94.3872 186.795C94.7607 186.453 95.0923 186.051 95.3821 185.587C95.5302 185.342 95.7363 184.895 96.0003 184.244H96.2998ZM102.694 187.847V193.662C102.694 194.487 102.784 195.008 102.965 195.227C103.203 195.511 103.522 195.652 103.921 195.652H104.723V196H99.4391V195.652H99.8351C100.093 195.652 100.328 195.588 100.54 195.459C100.753 195.33 100.898 195.156 100.975 194.937C101.059 194.719 101.1 194.294 101.1 193.662V187.847H99.3811V187.152H101.1V186.572C101.1 185.69 101.242 184.943 101.526 184.331C101.809 183.72 102.24 183.227 102.82 182.854C103.406 182.474 104.063 182.284 104.79 182.284C105.467 182.284 106.088 182.503 106.655 182.94C107.028 183.23 107.215 183.555 107.215 183.916C107.215 184.109 107.131 184.293 106.964 184.467C106.796 184.634 106.616 184.718 106.423 184.718C106.275 184.718 106.117 184.666 105.95 184.563C105.789 184.454 105.589 184.225 105.351 183.877C105.112 183.523 104.893 183.285 104.694 183.163C104.494 183.04 104.272 182.979 104.027 182.979C103.731 182.979 103.48 183.06 103.274 183.221C103.068 183.375 102.92 183.62 102.83 183.955C102.739 184.283 102.694 185.136 102.694 186.514V187.152H104.974V187.847H102.694ZM110.151 186.891C111.491 186.891 112.566 187.4 113.378 188.417C114.067 189.287 114.411 190.285 114.411 191.412C114.411 192.204 114.221 193.006 113.841 193.817C113.461 194.628 112.937 195.24 112.267 195.652C111.604 196.064 110.863 196.27 110.045 196.27C108.712 196.27 107.653 195.739 106.867 194.677C106.204 193.782 105.872 192.777 105.872 191.663C105.872 190.852 106.072 190.047 106.471 189.248C106.877 188.443 107.408 187.851 108.065 187.471C108.722 187.084 109.417 186.891 110.151 186.891ZM109.852 187.519C109.511 187.519 109.166 187.622 108.818 187.828C108.477 188.028 108.2 188.382 107.988 188.891C107.775 189.399 107.669 190.053 107.669 190.852C107.669 192.139 107.923 193.25 108.432 194.184C108.947 195.118 109.623 195.585 110.46 195.585C111.085 195.585 111.6 195.327 112.006 194.812C112.412 194.297 112.615 193.411 112.615 192.156C112.615 190.584 112.276 189.348 111.6 188.446C111.143 187.828 110.56 187.519 109.852 187.519ZM118.758 182.264V194C118.758 194.554 118.797 194.921 118.874 195.102C118.958 195.282 119.083 195.42 119.251 195.517C119.418 195.607 119.73 195.652 120.188 195.652V196H115.85V195.652C116.256 195.652 116.533 195.61 116.681 195.527C116.829 195.443 116.945 195.305 117.029 195.111C117.113 194.918 117.154 194.548 117.154 194V185.964C117.154 184.966 117.132 184.354 117.087 184.129C117.042 183.897 116.968 183.739 116.865 183.655C116.768 183.572 116.643 183.53 116.488 183.53C116.321 183.53 116.108 183.581 115.85 183.684L115.686 183.346L118.323 182.264H118.758ZM123.472 182.264C123.742 182.264 123.971 182.361 124.158 182.554C124.351 182.741 124.447 182.969 124.447 183.24C124.447 183.51 124.351 183.742 124.158 183.935C123.971 184.129 123.742 184.225 123.472 184.225C123.201 184.225 122.969 184.129 122.776 183.935C122.583 183.742 122.486 183.51 122.486 183.24C122.486 182.969 122.58 182.741 122.767 182.554C122.96 182.361 123.195 182.264 123.472 182.264ZM124.273 186.891V194C124.273 194.554 124.312 194.925 124.389 195.111C124.473 195.292 124.592 195.427 124.747 195.517C124.908 195.607 125.198 195.652 125.616 195.652V196H121.318V195.652C121.749 195.652 122.039 195.61 122.187 195.527C122.335 195.443 122.451 195.305 122.535 195.111C122.625 194.918 122.67 194.548 122.67 194V190.591C122.67 189.631 122.641 189.01 122.583 188.726C122.538 188.52 122.467 188.379 122.371 188.301C122.274 188.218 122.142 188.176 121.975 188.176C121.794 188.176 121.575 188.224 121.318 188.321L121.182 187.973L123.848 186.891H124.273ZM131.054 186.891C132.394 186.891 133.469 187.4 134.281 188.417C134.97 189.287 135.314 190.285 135.314 191.412C135.314 192.204 135.124 193.006 134.744 193.817C134.364 194.628 133.84 195.24 133.17 195.652C132.507 196.064 131.766 196.27 130.948 196.27C129.615 196.27 128.556 195.739 127.77 194.677C127.107 193.782 126.775 192.777 126.775 191.663C126.775 190.852 126.975 190.047 127.374 189.248C127.78 188.443 128.311 187.851 128.968 187.471C129.625 187.084 130.32 186.891 131.054 186.891ZM130.755 187.519C130.414 187.519 130.069 187.622 129.721 187.828C129.38 188.028 129.103 188.382 128.891 188.891C128.678 189.399 128.572 190.053 128.572 190.852C128.572 192.139 128.826 193.25 129.335 194.184C129.85 195.118 130.526 195.585 131.363 195.585C131.988 195.585 132.503 195.327 132.909 194.812C133.315 194.297 133.518 193.411 133.518 192.156C133.518 190.584 133.179 189.348 132.503 188.446C132.046 187.828 131.463 187.519 130.755 187.519Z" fill="#D1B764"/>
<path fill-rule="evenodd" clip-rule="evenodd" d="M132.231 0C134.946 1.858 134.046 2.76301 136.384 5.08301C138.652 7.33301 138.966 10.118 138.281 13.359C137.051 19.181 135.757 22.721 135.171 28.641C134.253 37.93 133.749 47.26 133.073 56.573C133.049 56.901 133.07 57.233 133.07 57.78C141.252 47.878 151.494 40.342 159.851 30.876C159.98 31.001 160.109 31.126 160.238 31.251C158.39 33.482 156.428 35.631 154.718 37.963C150.146 44.199 145.718 50.543 141.155 56.788C138.847 59.949 136.46 63.062 133.931 66.048C132.971 67.182 132.591 68.291 132.405 69.71C132.081 72.1719 131.733 74.6308 131.366 77.087C130.951 79.8656 130.511 82.6407 130.057 85.413C129.886 86.461 129.287 87.439 128.746 88.802C126.774 86.2376 125.706 83.4921 124.776 80.6715C124.385 79.4873 124.018 78.2899 123.62 77.087C122.685 78.068 121.861 78.942 121.03 79.808C114.497 86.599 107.334 92.671 99.8706 98.402C98.4086 99.525 96.9526 99.447 95.5406 98.259C93.8926 96.875 91.9606 95.621 92.0006 93.151C92.0276 91.471 94.2156 83.064 94.3426 82.048C96.3536 81.162 96.0846 87.414 97.4286 86.577C104.373 82.249 110.064 76.4 116.117 70.99C118.01 69.299 120.054 67.778 121.969 66.109C122.452 65.687 122.985 65.013 123.017 64.43C123.547 54.61 124.004 44.786 124.47 34.962C124.484 34.706 124.423 34.447 124.377 34.005C114.943 39.061 108.981 47.282 102.842 55.445C104.263 52.954 105.419 50.257 107.162 48.017C110.618 43.58 114.334 39.338 118.09 35.147C119.035 34.092 120.477 33.408 121.799 32.782C123.796 31.835 124.901 30.179 124.776 27.36C124.557 22.454 123.106 28.031 122.589 23.152C122.086 18.413 127.735 7.682 127.735 4.595L132.231 0Z" fill="url(#paint7_linear_402_2077)"/>
<path d="M128.466 32.408C128.386 32.337 128.112 32.437 127.64 32.711C127.171 32.987 126.387 33.325 125.286 33.728L124.028 33.92L120.891 33.596C115.239 32.425 111.449 31.397 109.523 30.514C107.598 29.631 105.913 28.636 104.467 27.523C103.021 26.414 102.05 25.389 101.546 24.444C101.047 23.502 99.7986 20.765 100.093 20.826C100.387 20.89 100.867 20.663 101.532 20.145C102.197 19.629 102.953 19.078 103.803 18.494C104.65 17.911 105.521 17.737 106.412 17.973C107.305 18.211 108.094 18.902 108.788 20.049C109.477 21.197 110.485 21.99 111.804 22.427C113.126 22.866 114.721 23.205 116.592 23.44C118.463 23.676 120.697 24.249 123.304 25.155C125.908 26.064 128.151 26.146 130.033 25.404C131.92 24.663 133.217 24.622 133.926 25.284C134.637 25.946 135.072 26.42 135.234 26.7C135.394 26.983 135.627 27.36 135.933 27.827C135.245 28.113 134.744 28.4 134.427 28.687C134.113 28.974 133.704 29.25 133.211 29.516C132.717 29.785 132.219 30.093 131.722 30.447C131.221 30.801 130.355 31.289 129.122 31.911L128.466 32.408Z" fill="url(#paint8_linear_402_2077)"/>
<path fill-rule="evenodd" clip-rule="evenodd" d="M217.07 56.7039C213.223 52.6759 209.143 49.0199 203.329 47.9479C199.917 47.3199 196.448 46.975 193.03 46.368C188.704 45.599 184.813 46.4439 181.164 48.7779C179.774 49.6659 178.21 50.3109 176.689 50.9899C173.328 52.4909 169.868 53.5229 166.073 53.2729C164.827 53.1899 164.24 52.8919 163.888 51.6489C162.506 46.7469 163.178 41.8169 163.86 36.9749C164.731 30.7799 163.131 25.1099 160.985 19.4609C160.675 18.6459 160.156 17.9029 159.716 17.0969C159.482 17.2759 159.331 17.3309 159.303 17.4209C156.908 24.9879 154.546 32.5629 152.13 40.1239C149.994 46.8149 149.818 53.5449 151.231 60.4049C151.958 63.9299 154.231 66.5619 156.129 69.4099C157.487 71.4489 159 73.4689 160.799 75.1399C163.69 77.8269 170.525 77.2289 173.186 74.2899C175.762 71.4439 178.332 68.5909 180.874 65.7159C182.429 63.9589 184.169 62.5359 186.443 61.6339C190.873 59.8769 193.149 60.0379 196.761 58.1109C196.761 58.1109 200.334 58.3789 200.44 59.2759C201.083 63.1799 199.41 66.2549 197.191 69.2619C188.531 80.9979 179.989 92.8169 171.249 104.496C166.41 110.964 161.547 117.451 156.179 123.5C152.312 127.855 147.933 131.784 143.656 135.799C143.662 135.799 143.674 135.796 143.692 135.783C143.72 135.762 143.761 135.724 143.8 135.693C143.783 135.714 143.766 135.735 143.762 135.746C143.708 135.794 143.658 135.841 143.614 135.88C143.572 135.924 143.531 135.971 143.498 136.013C143.426 136.096 143.36 136.177 143.291 136.262C143.279 136.314 143.176 136.417 143.083 136.513C143.009 136.587 142.977 136.635 142.944 136.678C142.933 136.695 142.969 136.672 142.984 136.665C142.892 136.787 142.81 136.896 142.67 137.044C142.639 137.077 142.607 137.123 142.581 137.162C142.553 137.2 142.525 137.238 142.496 137.277C142.501 137.277 142.5 137.286 142.498 137.292C142.472 137.328 142.443 137.362 142.394 137.424C142.486 137.331 142.557 137.257 142.611 137.207C142.667 137.156 142.706 137.128 142.756 137.087C142.726 137.127 142.697 137.16 142.682 137.182C142.67 137.198 142.663 137.219 142.671 137.209C142.736 137.155 142.698 137.209 142.713 137.205C142.8 137.103 142.885 137.004 142.97 136.905C143.004 136.898 143.004 136.902 143.11 136.793C143.168 136.734 143.229 136.665 143.285 136.602C143.309 136.572 143.32 136.551 143.342 136.524C143.387 136.464 143.437 136.399 143.48 136.342C143.522 136.285 143.591 136.202 143.567 136.211C143.541 136.219 143.589 136.149 143.644 136.078C143.705 136.003 143.693 136.009 143.673 136.013C143.642 136.027 143.546 136.119 143.492 136.156C143.596 136.031 143.501 136.098 143.55 136.023C143.571 136.002 143.601 135.976 143.611 135.959C143.659 135.906 143.685 135.87 143.743 135.826C143.769 135.803 143.85 135.72 143.892 135.659C143.899 135.647 143.923 135.621 143.926 135.617C143.987 135.563 144.026 135.509 144.073 135.456C144.151 135.368 144.226 135.29 144.289 135.239C144.324 135.207 144.34 135.202 144.37 135.185C144.388 135.163 144.406 135.143 144.425 135.122C144.452 135.098 144.481 135.076 144.511 135.052C144.523 135.028 144.534 135.009 144.555 134.977C144.599 134.949 144.631 134.931 144.66 134.911C144.684 134.886 144.703 134.861 144.723 134.837C144.746 134.827 144.768 134.814 144.787 134.804C144.796 134.794 144.807 134.783 144.813 134.773C144.834 134.745 144.851 134.713 144.87 134.684C144.966 134.587 144.894 134.681 144.93 134.652C144.993 134.597 145.054 134.54 145.101 134.498C145.103 134.516 145.104 134.523 145.106 134.539C145.096 134.554 145.014 134.634 145.036 134.628C145.041 134.627 144.998 134.681 144.968 134.722C145.001 134.691 145.048 134.641 145.05 134.654C145.05 134.661 145.126 134.582 145.119 134.605C145.119 134.607 145.168 134.542 145.185 134.535C145.199 134.531 145.203 134.535 145.217 134.524C145.233 134.517 145.259 134.494 145.28 134.479C145.283 134.474 145.282 134.477 145.286 134.475C145.267 134.496 145.252 134.517 145.237 134.537C145.269 134.517 145.314 134.485 145.329 134.486C145.347 134.489 145.399 134.444 145.47 134.38C145.473 134.378 145.475 134.379 145.474 134.38C145.487 134.388 145.524 134.373 145.438 134.476C145.329 134.611 145.337 134.623 145.344 134.638C145.348 134.646 145.332 134.672 145.326 134.689C145.319 134.704 145.314 134.717 145.307 134.729C145.3 134.749 145.292 134.768 145.286 134.79C145.276 134.813 145.256 134.847 145.262 134.861C145.265 134.884 145.241 134.942 145.166 135.04C145.072 135.167 144.959 135.313 144.885 135.422C144.873 135.441 144.857 135.464 144.839 135.486C144.772 135.577 144.702 135.668 144.637 135.76C144.692 135.706 144.751 135.647 144.804 135.598C144.903 135.506 144.997 135.414 145.11 135.3C145.193 135.215 145.269 135.143 145.333 135.092C145.422 135.02 145.523 134.931 145.668 134.791C145.776 134.685 145.874 134.595 145.891 134.607C145.902 134.616 145.975 134.558 146.015 134.536C146.039 134.523 146.074 134.503 146.071 134.52C146.06 134.566 146.142 134.51 146.312 134.347C146.448 134.218 146.58 134.095 146.67 134.023C146.752 133.956 146.846 133.871 146.962 133.753C147.028 133.705 147.033 133.726 147.143 133.631C147.174 133.601 147.162 133.634 147.158 133.65C147.153 133.677 147.151 133.679 147.265 133.563C147.28 133.545 147.294 133.532 147.331 133.493C147.337 133.498 147.368 133.481 147.343 133.514C147.308 133.559 147.313 133.559 147.318 133.562C147.322 133.569 147.324 133.578 147.305 133.607C147.281 133.646 147.295 133.636 147.33 133.612C147.371 133.582 147.417 133.549 147.317 133.667C147.282 133.707 147.272 133.728 147.251 133.763C147.394 133.613 147.444 133.556 147.365 133.686C147.401 133.656 147.435 133.628 147.48 133.593C147.382 133.698 147.308 133.781 147.23 133.864C147.041 134.065 146.852 134.268 146.662 134.468C146.567 134.567 146.491 134.655 146.424 134.737C146.392 134.773 146.388 134.793 146.357 134.827C146.236 134.961 146.188 135.034 146.103 135.138C146.052 135.187 146.005 135.23 145.949 135.282C145.898 135.346 145.845 135.412 145.803 135.464C145.825 135.449 145.849 135.427 145.85 135.43C145.853 135.433 145.823 135.471 145.829 135.47C145.857 135.466 145.797 135.548 145.712 135.653C145.623 135.764 145.563 135.847 145.613 135.82C145.627 135.814 145.631 135.82 145.616 135.841C145.582 135.893 145.535 135.957 145.51 135.993C145.526 135.987 145.547 135.973 145.542 135.987C145.519 136.031 145.521 136.051 145.564 136.025C145.585 136.014 145.598 136.012 145.595 136.025C145.592 136.049 145.544 136.118 145.431 136.243C145.423 136.263 145.417 136.282 145.41 136.301C145.401 136.325 145.386 136.348 145.291 136.438C145.228 136.5 145.137 136.596 145.062 136.677C145.03 136.712 145.008 136.748 144.976 136.788C144.907 136.858 144.832 136.931 144.772 136.992C144.703 137.07 144.645 137.138 144.589 137.2C144.582 137.216 144.575 137.232 144.568 137.245C144.504 137.312 144.448 137.369 144.396 137.423C144.393 137.427 144.391 137.43 144.388 137.434C145.257 137.11 146.125 136.784 146.992 136.458C147.065 136.408 147.12 136.38 147.258 136.252C147.377 136.166 147.535 136.033 147.613 135.989C147.651 135.968 147.704 135.933 147.75 135.905C147.788 135.87 147.824 135.833 147.864 135.798C147.933 135.736 147.941 135.737 147.933 135.754C147.932 135.759 147.98 135.724 148.006 135.703C148.06 135.657 148.116 135.607 148.176 135.555C148.377 135.428 148.248 135.59 148.373 135.53C148.521 135.418 148.688 135.289 148.709 135.306C148.725 135.317 148.775 135.299 148.684 135.403C148.663 135.426 148.692 135.415 148.713 135.404C148.745 135.389 148.793 135.361 148.842 135.334C148.91 135.272 148.983 135.208 149.066 135.131C149.087 135.122 149.106 135.112 149.131 135.102C149.21 135.036 149.299 134.967 149.4 134.884C149.475 134.813 149.567 134.726 149.654 134.645C149.708 134.606 149.757 134.579 149.801 134.539C149.905 134.452 150.026 134.345 150.103 134.27C150.212 134.161 150.245 134.14 150.28 134.127C150.307 134.118 150.336 134.107 150.366 134.097C150.522 133.963 150.617 133.901 150.653 133.893C150.671 133.889 150.673 133.902 150.661 133.924C150.635 133.972 150.665 133.97 150.727 133.94C150.748 133.931 150.731 133.956 150.727 133.973C150.777 133.94 150.861 133.882 150.931 133.838C150.959 133.82 150.969 133.823 150.963 133.838C150.936 133.893 151.047 133.818 151.192 133.709C151.332 133.606 151.439 133.531 151.442 133.56C151.442 133.566 151.49 133.53 151.496 133.533C151.501 133.533 151.476 133.561 151.457 133.585C151.526 133.533 151.613 133.469 151.696 133.406C151.761 133.341 151.815 133.287 151.873 133.228C152.01 133.125 152.108 133.065 152.279 132.919C152.322 132.883 152.352 132.875 152.4 132.837C152.506 132.755 152.619 132.664 152.746 132.552C152.998 132.328 153.255 132.104 153.512 131.88C153.618 131.788 153.724 131.699 153.859 131.584C153.815 131.634 153.782 131.674 153.746 131.714C153.927 131.612 153.851 131.673 153.663 131.842C153.711 131.813 153.741 131.8 153.794 131.759C153.946 131.638 153.907 131.69 153.873 131.735C153.845 131.774 153.835 131.791 153.887 131.759C153.93 131.735 153.944 131.736 153.953 131.739C153.961 131.741 153.964 131.748 154.021 131.704C154.063 131.673 154.047 131.706 154.055 131.711C154.008 131.755 153.992 131.773 153.968 131.79C153.822 131.924 153.823 131.922 153.864 131.912C153.885 131.905 153.934 131.886 153.898 131.923C153.781 132.048 153.815 132.049 153.761 132.124C153.615 132.26 153.511 132.367 153.43 132.462C153.346 132.564 153.194 132.717 153.035 132.873C152.833 133.071 152.77 133.162 152.838 133.144C152.865 133.138 152.842 133.175 152.831 133.202C152.809 133.245 152.741 133.328 152.759 133.337C152.782 133.351 152.672 133.464 152.54 133.59C152.364 133.759 152.257 133.875 152.172 133.976C152.112 134.047 152.025 134.136 151.915 134.235C151.772 134.366 151.659 134.477 151.546 134.59C151.485 134.652 151.41 134.721 151.343 134.786C151.465 134.703 151.586 134.618 151.708 134.535C151.736 134.514 151.769 134.493 151.794 134.478C151.94 134.385 152.133 134.245 152.304 134.13C152.435 134.039 152.514 134.003 152.552 134.003C152.573 134.005 152.62 133.979 152.655 133.965C152.687 133.954 152.713 133.943 152.742 133.932C152.76 133.924 152.779 133.916 152.8 133.907C152.824 133.898 152.86 133.877 152.871 133.88C152.896 133.884 152.92 133.891 153.097 133.757C153.231 133.654 153.216 133.693 153.233 133.703C153.235 133.702 153.237 133.705 153.233 133.708C153.155 133.789 153.1 133.849 153.111 133.865C153.117 133.879 153.082 133.929 153.058 133.964C153.084 133.946 153.112 133.928 153.141 133.905C153.141 133.909 153.143 133.908 153.137 133.911C153.119 133.935 153.09 133.965 153.084 133.981C153.072 133.999 153.078 134.002 153.076 134.016C153.072 134.034 152.983 134.094 152.987 134.094C153.015 134.084 152.952 134.145 152.941 134.161C152.99 134.14 153.04 134.119 153.089 134.098C153.089 134.097 153.092 134.095 153.093 134.095C153.095 134.095 153.098 134.095 153.099 134.094C157.33 132.303 160.988 129.751 164.067 126.33C170.392 119.307 176.798 112.352 183.254 105.441C187.472 100.926 192.178 96.9789 197.509 93.6449C198.545 92.9959 199.541 92.275 200.503 91.506C200.503 91.506 204.732 87.7429 205.752 86.6839C210.899 81.3369 215.01 75.2559 219.007 69.1009C219.651 68.1119 220.182 66.9529 220.373 65.8099C220.975 62.2389 219.561 59.3139 217.07 56.7039Z" fill="url(#paint9_linear_402_2077)"/>
<defs>
<linearGradient id="paint0_linear_402_2077" x1="170.85" y1="115.514" x2="167.946" y2="161.577" gradientUnits="userSpaceOnUse">
<stop stop-color="#DECE98"/>
<stop offset="0.215625" stop-color="#D3BA65"/>
<stop offset="0.913541" stop-color="#9D894D"/>
</linearGradient>
<linearGradient id="paint1_linear_402_2077" x1="167.029" y1="160.06" x2="166.657" y2="177.106" gradientUnits="userSpaceOnUse">
<stop stop-color="#DECE98"/>
<stop offset="0.215625" stop-color="#D3BA65"/>
<stop offset="0.913541" stop-color="#9D894D"/>
</linearGradient>
<linearGradient id="paint2_linear_402_2077" x1="197.719" y1="114" x2="195.656" y2="168.135" gradientUnits="userSpaceOnUse">
<stop stop-color="#DECE98"/>
<stop offset="0.215625" stop-color="#D3BA65"/>
<stop offset="0.913541" stop-color="#9D894D"/>
</linearGradient>
<linearGradient id="paint3_linear_402_2077" x1="240.138" y1="126.505" x2="231.619" y2="255.647" gradientUnits="userSpaceOnUse">
<stop stop-color="#DECE98"/>
<stop offset="0.215625" stop-color="#D3BA65"/>
<stop offset="0.913541" stop-color="#9D894D"/>
</linearGradient>
<linearGradient id="paint4_linear_402_2077" x1="198.176" y1="175.216" x2="194.258" y2="243.703" gradientUnits="userSpaceOnUse">
<stop stop-color="#DECE98"/>
<stop offset="0.215625" stop-color="#D3BA65"/>
<stop offset="0.913541" stop-color="#9D894D"/>
</linearGradient>
<linearGradient id="paint5_linear_402_2077" x1="202.943" y1="270.249" x2="202.33" y2="307.261" gradientUnits="userSpaceOnUse">
<stop stop-color="#DECE98"/>
<stop offset="0.215625" stop-color="#D3BA65"/>
<stop offset="0.913541" stop-color="#9D894D"/>
</linearGradient>
<linearGradient id="paint6_linear_402_2077" x1="182.902" y1="201" x2="171.811" y2="451.527" gradientUnits="userSpaceOnUse">
<stop stop-color="#DECE98"/>
<stop offset="0.215625" stop-color="#D3BA65"/>
<stop offset="0.913541" stop-color="#9D894D"/>
</linearGradient>
<linearGradient id="paint7_linear_402_2077" x1="138.356" y1="-7.34315e-08" x2="134.93" y2="93.9372" gradientUnits="userSpaceOnUse">
<stop stop-color="#DECE98"/>
<stop offset="0.215625" stop-color="#D3BA65"/>
<stop offset="0.913541" stop-color="#9D894D"/>
</linearGradient>
<linearGradient id="paint8_linear_402_2077" x1="124.425" y1="17.8711" x2="124.255" y2="33.087" gradientUnits="userSpaceOnUse">
<stop stop-color="#DECE98"/>
<stop offset="0.215625" stop-color="#D3BA65"/>
<stop offset="0.913541" stop-color="#9D894D"/>
</linearGradient>
<linearGradient id="paint9_linear_402_2077" x1="195.461" y1="17.0969" x2="191.058" y2="131.032" gradientUnits="userSpaceOnUse">
<stop stop-color="#DECE98"/>
<stop offset="0.215625" stop-color="#D3BA65"/>
<stop offset="0.913541" stop-color="#9D894D"/>
</linearGradient>
</defs>
</svg>
