<svg width="1366" height="1133" viewBox="0 0 1366 1133" fill="none" xmlns="http://www.w3.org/2000/svg">
<path d="M585.656 340.028C586.833 340.028 588.498 341.36 590.655 344.012C591.961 345.411 591.31 351.362 590.19 353.174C587.766 357.096 590.19 353.174 588.167 355.898C586.01 358.623 585.396 363.123 583.304 365.568C586.571 364.799 588.943 367.786 590.275 368.881C594.152 372.073 594.152 372.073 594.282 374.307C594.152 375.707 593.008 378.012 590.851 381.225C588.236 384.86 586.014 382.503 584.184 384.946C587.65 385.155 589.903 385.542 590.95 386.098C592.06 386.728 592.617 387.567 592.617 388.613C592.617 389.837 589.942 393.884 587.221 396.858C586.101 398.08 584.302 401.199 583.371 402.809C580.478 407.819 569.423 409.246 566.675 410.314L572.341 406.39C573.955 405.095 579.988 399.048 581.055 396.7C581.714 395.25 582.13 394.122 582.13 393.96C582.13 393.402 581.868 393.121 581.346 393.121C578.341 393.681 576.348 393.96 575.368 393.96C572.754 393.96 571.448 393.159 571.448 391.549C571.448 390.084 572.197 388.3 573.703 386.204C575.726 383.619 585.182 377.153 585.243 375.483C585.152 377.915 582.476 370.469 580.317 371.517C578.294 372.219 577.019 372.568 576.497 372.568C573.882 372.568 572.575 371.45 572.575 369.211C572.575 367.677 571.526 369.616 574.923 364.935C577.218 361.688 578.963 358.677 580.319 355.916C583.743 348.923 584.67 343.536 585.656 340.028Z" fill="url(#paint0_linear_2:211)"/>
<path d="M561.372 418.309C562.962 418.967 564.204 419.293 565.101 419.293C566.392 419.293 568.033 418.403 570.025 416.619C571.119 415.21 571.961 414.504 572.56 414.504C573.355 414.504 574.15 414.835 574.947 415.489C575.84 415.774 576.438 415.913 576.736 415.913C580.219 415.913 584.046 412.017 588.222 404.221C589.017 404.221 589.415 404.412 589.415 404.785C589.415 417.934 587.573 424.505 583.895 424.505C582.403 424.505 581.008 423.8 579.717 422.395C578.526 420.892 576.535 420.137 573.752 420.137C572.357 420.137 571.566 421.125 571.365 423.094C571.068 427.787 570.322 430.139 569.128 430.139C566.74 430.139 564.702 428.963 563.013 426.616C561.022 423.704 560.028 421.356 560.028 419.574C560.028 418.729 560.476 418.309 561.372 418.309Z" fill="url(#paint1_linear_2:211)"/>
<path d="M623.11 383.083C624.842 383.083 626.223 383.454 627.251 384.187C628.534 385.588 629.177 387.286 629.177 389.275C629.177 391.34 628.118 392.889 625.999 393.921C623.496 395.027 621.246 395.729 619.255 396.022C619.513 396.835 619.639 397.682 619.639 398.567C619.639 400.336 619.158 402.622 618.194 405.42C617.618 407.413 616.911 409.219 616.077 410.843C620.701 409.807 624.005 408.964 625.999 408.298C627.217 407.858 628.246 407.637 629.079 407.637C631.391 407.784 633.831 408.633 636.402 410.178C639.353 411.876 640.831 414.199 640.831 417.149C640.831 418.472 639.033 419.138 635.437 419.138C630.88 418.546 627.733 418.251 625.999 418.251C617.33 418.251 607.729 418.696 597.196 419.578C593.729 420.023 591.322 420.244 589.974 420.244C588.368 420.244 587.469 419.618 587.276 418.365C587.276 417.994 587.854 417.773 589.01 417.703C598.129 415.339 605.45 413.46 610.972 412.063C611.678 410.144 612.322 407.82 612.898 405.092C613.475 402.367 613.762 400.191 613.762 398.569C613.762 397.757 613.57 396.946 613.186 396.135C608.882 395.842 605.477 394.993 602.974 393.59C600.985 392.484 599.989 391.306 599.989 390.053C599.989 389.762 600.471 389.61 601.433 389.61C607.276 389.61 611.45 388.578 613.955 386.513C616.848 384.225 619.898 383.083 623.11 383.083ZM604.521 355.211C605.29 355.211 606.028 355.839 606.737 357.093C607.376 358.418 607.697 360.116 607.697 362.179C607.697 363.951 606.928 365.792 605.387 367.709C605.066 368.152 604.905 368.556 604.905 368.925C604.905 369.298 605.001 369.515 605.192 369.589C606.286 370.695 607.28 372.283 608.179 374.346C608.821 375.821 609.142 377.405 609.142 379.099C609.014 380.648 608.276 381.497 606.928 381.644C606.477 381.644 605.93 380.979 605.288 379.653C602.848 375.229 600.986 372.686 599.703 372.022C599.125 371.875 598.836 371.287 598.836 370.25C598.836 369.218 599.861 367.379 601.919 364.724C603.395 362.587 604.135 360.264 604.135 357.756C604.135 356.947 604.037 356.246 603.846 355.654C603.846 355.359 604.068 355.211 604.521 355.211ZM623.11 337.849C628.504 337.92 631.2 340.17 631.2 344.597C631.072 346.586 629.915 347.58 627.733 347.58C622.978 347.58 618.452 347.768 614.152 348.134C611.97 348.356 610.041 348.465 608.372 348.465C606.574 348.465 604.999 348.061 603.651 347.251C602.368 346.66 601.63 346.072 601.437 345.48C601.437 345.189 601.693 345.037 602.209 345.037C604.263 345.037 607.41 343.895 611.647 341.609C616.079 339.25 619.898 337.998 623.11 337.849ZM615.404 355.654C616.11 355.654 616.783 356.28 617.427 357.533C618.066 358.861 618.387 360.559 618.387 362.621C618.387 364.096 617.873 365.571 616.848 367.044C616.592 367.416 616.462 367.709 616.462 367.931C616.462 368.301 616.559 368.52 616.752 368.592C617.649 369.475 618.548 370.769 619.448 372.465C620.089 373.79 620.412 375.081 620.412 376.333C620.217 377.955 619.416 378.878 618.001 379.097C617.618 379.097 617.102 378.473 616.46 377.218C614.15 373.531 612.383 371.432 611.165 370.916C610.649 370.695 610.393 370.181 610.393 369.368C610.393 368.411 611.293 366.751 613.091 364.391C614.374 362.474 615.018 360.409 615.018 358.199C615.018 357.39 614.89 356.688 614.632 356.094C614.632 355.801 614.89 355.654 615.404 355.654ZM629.951 352.447C630.462 352.447 630.722 352.595 630.722 352.892C628.986 358.053 628.122 361.296 628.122 362.623C628.122 363.951 628.795 365.057 630.143 365.94C631.877 367.195 632.743 368.634 632.743 370.252C632.743 372.098 630.269 374.274 625.326 376.777C625.068 376.777 624.94 376.484 624.94 375.893C626.802 373.682 627.735 372.21 627.735 371.47C627.735 370.661 626.961 369.441 625.422 367.819C623.882 366.348 623.11 364.612 623.11 362.623C623.11 360.561 623.913 358.31 625.519 355.877C627.06 353.591 628.536 352.447 629.951 352.447Z" fill="url(#paint2_linear_2:211)"/>
<path fill-rule="evenodd" clip-rule="evenodd" d="M687.942 321.973C689.078 319.127 689.733 315.707 691.443 313.556C695.438 308.534 695.418 302.463 695.452 296.273C695.467 293.573 695.223 290.866 695.247 288.166C695.259 286.99 695.652 285.818 695.979 284.074C697.172 286.049 698.026 287.522 698.931 288.947C700.348 291.169 702.015 291.51 703.503 289.511C704.923 287.604 706.053 285.356 707.206 283.173C707.415 282.781 707.24 281.916 707.035 281.388C706.698 280.527 706.167 279.783 705.764 278.956C701.794 270.795 701.802 270.904 694.072 271.377C691.817 271.512 689.532 270.823 686.635 270.422C689.536 264.73 693.795 263.122 697.652 260.242C696.688 256.746 692.443 249.855 689.983 239.364C688.572 233.349 684.477 223.093 684.541 212.315C684.555 210.077 684.974 207.554 685.638 205.34C686.228 203.363 687.81 202.759 689.009 204.453C690.355 206.356 688.731 208.893 688.999 211.315C690.016 220.556 694.476 229.554 696.542 236.741C698.951 245.117 703.542 252.766 703.987 254.749C707.303 252.651 708.476 252.161 707.354 243.894C711.784 243.894 716.158 243.894 721.267 243.894C719.947 240.811 718.927 238.694 718.13 236.454C717.717 235.292 717.703 233.913 717.51 232.631C718.48 232.604 719.451 232.51 720.419 232.568C723.865 232.769 726.183 235.38 728.275 238.345C730.076 240.902 730.123 243.471 728.548 246.281C727.539 248.075 726.49 249.839 725.463 251.613C723.957 248.822 722.725 248.113 720.452 250.022C717.367 252.611 714.598 255.782 711.754 258.789C710.868 259.728 710.205 260.976 709.393 262.024C706.864 265.294 707.895 264.491 709.829 269.43C711.052 272.549 714.46 274.006 716.936 271.203C718.553 269.372 720.031 267.353 721.612 265.466C722.432 264.489 723.335 263.616 724.615 262.255C726.012 275.03 734.551 282.482 738.207 293.17C737.969 293.419 737.731 293.67 737.493 293.919C736.3 292.793 734.936 291.851 733.948 290.495C732.061 287.909 730.266 285.19 728.665 282.33C727.435 280.132 725.41 271.738 723.944 273.21C721.985 275.173 716.507 277.774 715.633 281.987C714.36 287.295 715.633 289.856 719.653 298.575C719.939 299.486 720.946 300.357 721.761 300.656C723.92 301.451 726.153 301.923 728.306 302.507C728.194 305.329 724.085 311.966 722.771 311.232C721.007 310.25 720.728 311.964 719.931 312.548C716.847 314.808 713.848 317.243 710.837 319.649C709.8 320.478 708.81 321.401 707.844 322.244C710.632 327.738 710.615 334.771 715.235 338.843C717.225 331.595 719.197 324.422 721.175 317.215C725.736 316.713 728.826 320.749 728.041 326.337C726.917 334.357 723.371 341.017 720.063 347.821C719.624 348.72 719.118 350.044 719.346 350.885C721.669 359.476 724.593 367.681 730.03 374.115C735.538 380.634 742.119 378.962 744.266 369.888C745.606 364.227 745.711 358.105 746.195 352.168C746.545 347.891 746.606 343.576 747.055 339.254C749.446 343.212 750.389 347.678 750.881 352.401C751.335 356.786 752.274 361.111 752.549 365.505C752.776 369.114 752.575 372.825 752.154 376.419C751.311 383.587 750.19 390.704 749.182 397.843C748.852 400.187 747.506 401.02 745.902 400.374C743.766 399.511 741.525 398.543 739.748 396.924C730.056 388.099 721.613 377.782 715.511 364.829C714.812 363.347 714.261 361.754 713.567 360.018C711.88 361.997 710.485 364.142 708.718 365.609C704.372 369.214 699.889 377.419 695.385 380.715C694.348 381.475 693.013 381.732 691.783 381.965C688.519 382.585 686.944 381.275 686.029 377.387C684.797 372.154 686.299 375.912 687.942 371.914C688.263 372.078 688.621 372.195 688.926 372.421C691.986 374.655 695.109 374.527 697.693 371.717C701.216 367.891 705.421 358.187 708.694 354.024C710.093 352.24 707.824 340.742 707.102 338.438C705.801 334.273 704.656 330.034 703.392 325.648C702.587 326.461 701.558 327.609 700.442 328.609C695.688 332.872 690.963 337.197 686.096 341.261C684.65 342.47 682.802 343.004 681.096 343.674C679.799 344.184 679.079 343.477 678.815 341.743C678.055 336.768 679.588 332.701 682.778 329.578C684.685 327.712 686.035 324.986 687.635 322.648C687.057 328.191 688.296 330.413 691.744 329.075C695.316 327.688 698.642 325.329 701.659 323.631C700.879 320.629 700.224 318.509 699.785 316.318C699.344 314.124 699.122 311.864 698.661 308.62C694.82 313.401 691.382 317.686 687.942 321.973ZM707.114 302.92C705.209 302.549 703.394 302.198 701.318 301.794C701.598 307.087 702.985 311.551 704.76 315.834C705.024 316.468 706.34 317.1 706.838 316.823C709.245 315.491 711.646 314.048 713.834 312.249C715.265 311.069 716.113 308.827 714.94 306.924C713.724 304.952 714.375 303.023 714.261 301.068C714.224 300.446 714.48 299.643 714.247 299.219C712.917 296.797 711.481 294.461 710.087 292.11C704.093 297.258 703.67 298.858 707.114 302.92Z" fill="url(#paint3_linear_2:211)"/>
<path fill-rule="evenodd" clip-rule="evenodd" d="M638.474 378.088C647.328 368.069 654.503 356.671 660.314 343.697C657.103 339.924 653.932 336.199 650.762 332.477C650.825 332.168 650.888 331.855 650.951 331.546C655.215 332.602 659.48 333.66 664.034 334.79C666.732 328.967 669.627 322.793 670.959 315.73C671.443 313.167 670.221 311.776 668.501 311.891C666.533 312.019 664.561 312.898 662.672 313.725C660.901 314.5 659.324 315.247 658.165 317.748C656.121 322.165 653.45 326.213 650.709 330.053C647.997 333.854 644.872 337.206 641.464 341.315C641.464 337.955 641.387 335.201 641.517 332.457C641.55 331.741 642.14 330.589 642.627 330.456C645.683 329.603 647.464 326.711 649.026 323.955C653.43 316.196 657.587 308.22 661.686 300.214C663.119 297.42 662.402 295.754 659.775 294.995C656.095 293.928 653.371 291.184 650.862 287.91C654.989 286.549 659.017 285.43 662.928 283.872C666.96 282.266 670.481 279.599 672.844 275.009C673.194 274.326 674.133 273.57 674.698 273.676C677.148 274.138 679.673 274.555 681.956 275.661C684.197 276.745 684.278 279.713 682.133 281.227C674.054 286.925 670.201 296.826 665.411 305.789C668.151 309.017 670.186 309.067 672.586 306.026C674.657 303.405 676.959 304.726 679.165 305.428C681.454 306.157 683.034 308.13 683.648 310.879C683.804 311.572 682.816 312.812 682.182 313.587C676.381 320.676 671.909 328.939 667.987 337.549C669.839 341.266 671.632 344.867 673.425 348.468C673.303 348.757 673.185 349.048 673.063 349.341C670.835 348.791 668.446 348.688 666.421 347.577C664 346.254 663.062 347.601 661.952 349.742C659.549 354.385 657.244 359.141 654.521 363.485C650.622 369.701 645.634 374.393 639.734 377.526C639.322 377.743 638.893 377.902 638.474 378.088Z" fill="url(#paint4_linear_2:211)"/>
<path d="M843.947 485.111C834.882 487.626 813.579 478.345 809.793 475.158C798.753 465.867 798.753 465.867 798.229 459.182C798.501 454.989 799.922 443.464 807.567 435.115C810.383 432.044 822.142 438.346 826.532 435.458C829.482 433.515 832.232 431.452 834.036 429.047C834.036 429.047 834.325 427.331 832.6 426.225C831.415 425.465 827.727 422.904 826.22 421.948C822.51 419.6 819.202 419.66 817.724 418.857C814.581 417.047 812.971 414.576 812.901 411.437C812.855 409.537 811.922 409.82 814.495 403.024C816.136 398.7 818.119 394.427 820.221 391.519C822.167 388.83 825.489 388.741 828.734 387.738C830.321 387.248 831.891 386.535 833.275 385.197C837.293 381.293 839.735 376.502 844.789 373.255C847.863 371.286 849.227 374.447 852.633 372.933L853.727 372.905C846.582 379.35 839.125 400.681 839.157 401.932C839.196 403.606 839.944 404.427 841.404 404.392C849.754 402.516 855.296 401.55 858.029 401.484C865.324 401.308 864.163 407.556 864.275 412.367C864.38 416.758 867.273 418.211 863.221 424.586C857.752 432.457 823.447 450.059 823.388 455.065C823.478 447.783 840.367 471.09 846.332 474.333" fill="url(#paint5_linear_2:211)"/>
<path d="M822.677 449.629C822.561 453.741 825.654 456.92 828.047 459.046C829.842 460.467 834.805 464.262 837.143 466.38C842.953 471.636 857.541 477.092 863.565 478.366C885.429 482.978 918.758 478.424 928.277 477.33C937.776 476.219 954.796 465.426 960.37 462.853C965.331 460.264 970.497 451.327 972.193 448.848C978.412 439.762 976.42 444.172 978.522 435.788C979.435 432.157 984.024 409.443 985.715 395.388C985.939 393.501 986.917 381.428 987.092 380.832C987.763 378.57 987.893 387.333 988.218 393.318C988.306 394.914 988.383 396.564 988.468 398.129C988.568 400.106 988.671 401.955 988.777 403.418C989.038 406.952 989.45 407.817 989.92 407.556C990.701 407.119 991.646 403.558 992.307 404.076C993.087 404.684 993.242 411.591 993.799 412.998C994.133 413.839 994.614 412.703 995.456 407.031C996.241 401.754 996.674 396.81 997.032 397.597C998.76 401.427 1002.9 440.609 1002.79 444.723C1003.23 450.235 1003.24 455.704 1002.78 461.188C1002.31 466.657 1003.97 475.498 1000.19 479.506C996.426 482.822 989.702 489.572 983.381 495.539C979.305 499.394 954.423 501.207 948.904 501.736C932.484 504.309 918.949 506.539 897.614 505.897C885.372 505.522 851.499 494.368 839.44 488.532C828.002 482.027 804.2 472.311 802.716 459.919" fill="url(#paint6_linear_2:211)"/>
<path fill-rule="evenodd" clip-rule="evenodd" d="M788.817 380.52C788.791 380.535 788.764 380.551 788.738 380.566C782.671 384.113 777.934 386.881 774.675 390.734C771.713 394.937 767.815 395.242 762.97 391.645C755.206 384.305 750.979 380.335 750.288 379.725C748.83 377.849 750.039 376.436 753.89 375.466C760.23 372.983 767.169 369.463 774.673 364.901C787.825 357.26 796.647 352.923 801.152 351.905C801.884 349.35 802.711 348.046 803.538 346.744C804.463 345.285 805.388 343.828 806.18 340.617C799.876 343.766 793.614 347.56 787.427 352.019C785.477 352.17 783.167 352.026 780.524 351.562C777.113 349.842 774.295 347.082 772.044 343.283C769.791 339.485 769.94 337.161 772.495 336.292C782.096 333.556 789.724 330.648 795.374 327.549C799.125 325.267 804.175 322.885 810.527 320.406L810.452 319.417C813.255 304.636 815.547 291.865 817.35 281.12C814.439 285.989 811.273 291.53 807.823 297.762C797.474 316.454 790.013 325.98 785.471 326.335C784.115 325.791 782.37 324.264 780.219 321.777C777.767 315.352 778.042 306.049 781.039 293.893C783.883 288.377 785.491 287.926 785.839 292.522C786.138 296.472 787.292 298.71 789.291 299.209C790.688 300.43 800.544 292.365 818.849 275.04C818.836 266.438 818.82 261.801 818.771 261.135C817.966 259.212 816.285 258.69 813.743 259.539C811.239 261.069 809.968 261.496 809.919 260.83C809.819 259.519 810.013 257.841 810.517 255.816C812.271 253.039 814.414 251.21 816.97 250.343C819.461 248.828 822.041 248.304 824.696 248.747C831.995 250.164 836.801 253.109 839.103 257.56C841.455 262.682 840.932 268.684 837.531 275.566C835.78 278.356 832.731 289.852 828.382 310.062L829.285 309C848.837 290.924 856.856 276.046 853.359 264.395C852.454 261.157 852.983 259.455 854.933 259.303C856.836 258.502 858.834 258.996 860.936 260.822C867.19 265.641 870.937 271.963 872.196 279.813C872.548 284.425 867.89 292.07 858.243 302.764C860.247 303.274 862.295 304.434 864.397 306.256C869.896 309.801 872.802 313.55 873.101 317.504C872.7 320.856 870.553 322.67 866.651 322.973C858.245 324.296 846.572 329.851 831.617 339.622L829.742 340.762C829.037 340.162 828.986 339.501 829.592 338.785C831.344 336.009 833.115 333.542 834.918 331.413C836.065 329.338 836.618 327.975 836.567 327.31C835.913 327.359 834.306 327.832 831.767 328.681C829.211 329.55 826.654 330.417 824.114 331.266C823.419 333.337 822.759 334.274 822.212 335.051C821.498 336.064 820.975 336.808 820.811 339.437C820.718 339.814 820.624 340.192 820.53 340.569C820.119 342.22 819.709 343.869 819.312 345.517C819.9 344.82 820.534 344.427 821.187 344.377C828.183 341.844 835.886 339.925 844.295 338.598C864.092 332.428 876.348 330.136 881.054 331.754C889.008 333.121 894.581 337.651 897.787 345.35C898.633 347.939 897.754 349.328 895.162 349.531C882.872 350.491 873.105 351.662 866.209 352.648C867.8 354.07 869.101 356.043 870.116 358.564C871.311 361.553 873.381 364.2 876.317 366.504C879.253 368.812 882.87 371.233 887.168 373.756C891.47 376.284 896.5 379.863 902.276 384.497C908.048 389.132 913.279 391.773 917.971 392.421C922.66 393.07 925.72 394.426 927.139 396.492C928.562 398.555 929.406 399.956 929.682 400.678C929.959 401.401 930.363 402.389 930.906 403.631C929.194 403.424 927.911 403.424 927.064 403.631C926.218 403.838 925.165 403.922 923.908 403.892C922.648 403.864 921.371 403.916 920.072 404.044C918.771 404.179 916.56 404.165 913.438 404.008L912.407 404.658C912.106 404.612 911.874 404.474 911.716 404.241C911.555 404.016 910.874 403.906 909.67 403.914C908.467 403.93 906.501 403.715 903.776 403.28C903.776 403.28 895.07 399.201 893.519 398.164C880.692 389.65 872.186 383.472 867.993 379.634C863.803 375.795 860.219 372.009 857.238 368.256C854.259 364.511 852.352 361.448 851.523 359.066C851.135 357.956 850.58 356.584 849.857 354.954C839.571 356.282 824.456 362.54 812.581 368.096C812.544 368.165 812.506 368.235 812.469 368.304C810.786 371.469 810.244 374.337 809.719 377.114C809.452 378.526 809.189 379.915 808.783 381.308C808.02 382.841 807.239 384.936 806.38 387.242L806.38 387.242C805.322 390.081 804.145 393.24 802.734 396.062C800.18 401.18 795.067 409.612 790.606 416.743C786.888 422.669 773.401 438.961 766.747 446.999L766.747 447C765.395 448.633 764.325 449.926 763.676 450.721C761.517 453.359 759.237 454.551 757.074 455.682C755.378 456.569 753.755 457.418 752.317 458.896C751.239 459.534 749.901 460.523 748.279 461.862C746.683 462.486 744.81 463.454 742.671 464.77C740.553 465.37 738.583 465.649 736.757 465.575C734.921 465.501 733.248 465.069 731.711 464.325L730.393 458.004C730.477 455.917 730.802 454.185 731.384 452.818C732.508 450.775 733.872 449.428 735.462 448.804C737.056 448.166 738.636 447.889 740.201 447.951L740.282 447.954C741.803 448.018 742.817 448.061 743.334 448.078C746.606 444.722 750.3 440.527 754.425 435.475L754.578 435.287L754.579 435.286C758.984 429.884 776.949 407.854 780.61 400.427C784.278 392.975 787.014 386.341 788.817 380.52Z" fill="url(#paint7_linear_2:211)"/>
<path fill-rule="evenodd" clip-rule="evenodd" d="M526.636 177.865C530.499 180.543 529.22 181.847 532.546 185.191C535.773 188.433 536.22 192.447 535.246 197.117C533.495 205.509 531.655 210.609 530.82 219.141C529.513 232.528 528.797 245.972 527.835 259.393C527.799 259.863 527.831 260.344 527.831 261.131C539.473 246.861 554.046 236.002 565.938 222.36C566.123 222.541 566.306 222.722 566.489 222.9C563.86 226.114 561.067 229.212 558.635 232.574C552.127 241.562 545.828 250.702 539.335 259.7C536.051 264.256 532.652 268.742 529.055 273.045C527.689 274.677 527.148 276.278 526.882 278.32C525.9 285.882 524.761 293.423 523.543 300.949C523.299 302.459 522.447 303.868 521.677 305.831C517.696 300.586 516.303 294.812 514.384 288.949C513.054 290.364 511.883 291.624 510.698 292.871C501.401 302.657 491.21 311.41 480.589 319.665C478.508 321.285 476.438 321.171 474.427 319.457C472.083 317.464 469.332 315.657 469.389 312.097C469.428 309.676 472.542 297.563 472.721 296.1C475.582 294.82 475.2 303.83 477.111 302.623C486.992 296.387 495.09 287.958 503.704 280.162C506.398 277.725 509.307 275.532 512.03 273.129C512.719 272.521 513.475 271.548 513.522 270.707C514.278 256.557 514.927 242.401 515.59 228.243C515.61 227.872 515.523 227.5 515.458 226.864C502.035 234.15 493.551 245.998 484.816 257.761C486.837 254.172 488.482 250.283 490.964 247.057C495.881 240.661 501.169 234.551 506.512 228.508C507.858 226.989 509.909 226.003 511.79 225.102C514.632 223.735 516.204 221.349 516.025 217.288C515.714 210.217 513.65 218.254 512.914 211.225C512.2 204.395 520.237 188.93 520.237 184.483L526.636 177.865Z" fill="url(#paint8_linear_2:211)"/>
<path d="M521.278 224.567C521.162 224.464 520.774 224.609 520.101 225.004C519.434 225.402 518.318 225.889 516.751 226.471L514.963 226.748L510.497 226.281C502.454 224.591 497.062 223.112 494.321 221.839C491.582 220.565 489.185 219.135 487.128 217.53C485.07 215.93 483.688 214.455 482.972 213.092C482.261 211.733 480.484 207.79 480.904 207.878C481.323 207.97 482.006 207.643 482.952 206.896C483.897 206.152 484.973 205.359 486.183 204.518C487.388 203.677 488.628 203.426 489.897 203.767C491.168 204.109 492.29 205.106 493.278 206.758C494.26 208.412 495.695 209.554 497.57 210.186C499.451 210.818 501.72 211.308 504.383 211.645C507.048 211.984 510.226 212.809 513.935 214.114C517.641 215.424 520.833 215.543 523.511 214.475C526.196 213.407 528.041 213.347 529.049 214.3C530.061 215.254 530.68 215.938 530.909 216.34C531.137 216.747 531.468 217.293 531.905 217.965C530.926 218.377 530.212 218.79 529.761 219.202C529.313 219.617 528.734 220.013 528.032 220.398C527.329 220.787 526.619 221.231 525.912 221.741C525.2 222.251 523.968 222.955 522.212 223.852L521.278 224.567Z" fill="url(#paint9_linear_2:211)"/>
<path fill-rule="evenodd" clip-rule="evenodd" d="M647.357 259.581C641.885 253.777 636.079 248.506 627.804 246.963C622.947 246.058 618.012 245.56 613.149 244.685C606.993 243.577 601.457 244.797 596.264 248.157C594.286 249.437 592.06 250.365 589.898 251.346C585.114 253.508 580.19 254.995 574.79 254.636C573.019 254.515 572.182 254.088 571.682 252.295C569.716 245.229 570.671 238.126 571.641 231.149C572.881 222.223 570.604 214.051 567.55 205.91C567.109 204.734 566.369 203.666 565.745 202.504C565.411 202.761 565.198 202.841 565.157 202.97C561.75 213.874 558.389 224.791 554.949 235.687C551.91 245.329 551.659 255.029 553.67 264.912C554.703 269.994 557.938 273.787 560.64 277.89C562.573 280.83 564.726 283.742 567.286 286.151C571.399 290.02 581.125 289.161 584.911 284.925C588.577 280.824 592.234 276.712 595.851 272.571C598.063 270.038 600.54 267.987 603.776 266.688C610.079 264.155 613.318 264.388 618.458 261.61C618.458 261.61 623.543 261.994 623.693 263.288C624.608 268.916 622.227 273.346 619.068 277.681C606.745 294.591 594.591 311.625 582.154 328.458C575.268 337.777 568.347 347.126 560.709 355.841C555.207 362.117 548.974 367.779 542.888 373.567C542.897 373.569 542.913 373.561 542.939 373.543C542.98 373.513 543.037 373.459 543.092 373.414C543.069 373.445 543.045 373.475 543.039 373.491C542.962 373.561 542.891 373.627 542.828 373.685C542.769 373.748 542.71 373.814 542.663 373.878C542.561 373.997 542.466 374.113 542.37 374.237C542.352 374.31 542.207 374.46 542.075 374.599C541.968 374.705 541.923 374.775 541.876 374.837C541.86 374.86 541.913 374.827 541.933 374.817C541.803 374.992 541.685 375.151 541.484 375.363C541.441 375.41 541.396 375.478 541.358 375.532C541.317 375.586 541.28 375.642 541.236 375.697C541.244 375.699 541.242 375.711 541.24 375.719C541.201 375.769 541.162 375.821 541.093 375.911C541.223 375.777 541.325 375.67 541.402 375.598C541.48 375.524 541.536 375.484 541.606 375.424C541.563 375.482 541.522 375.53 541.5 375.562C541.482 375.586 541.473 375.614 541.484 375.602C541.577 375.524 541.524 375.602 541.543 375.596C541.667 375.448 541.787 375.307 541.909 375.163C541.957 375.151 541.957 375.159 542.108 375.002C542.191 374.918 542.279 374.817 542.358 374.727C542.394 374.685 542.407 374.653 542.439 374.613C542.502 374.528 542.573 374.434 542.636 374.35C542.695 374.268 542.793 374.149 542.76 374.161C542.722 374.173 542.793 374.071 542.87 373.97C542.956 373.86 542.939 373.868 542.911 373.876C542.868 373.896 542.73 374.027 542.653 374.083C542.801 373.9 542.667 373.998 542.736 373.89C542.767 373.86 542.807 373.822 542.823 373.798C542.889 373.72 542.929 373.669 543.01 373.603C543.049 373.571 543.163 373.451 543.222 373.362C543.232 373.346 543.265 373.308 543.269 373.304C543.356 373.226 543.411 373.148 543.478 373.071C543.59 372.945 543.696 372.834 543.785 372.76C543.834 372.714 543.858 372.706 543.901 372.682C543.927 372.648 543.952 372.62 543.98 372.59C544.019 372.555 544.058 372.523 544.102 372.489C544.119 372.453 544.137 372.427 544.165 372.379C544.226 372.337 544.273 372.313 544.314 372.283C544.35 372.248 544.375 372.212 544.405 372.178C544.438 372.162 544.468 372.142 544.497 372.13C544.509 372.116 544.525 372.1 544.535 372.086C544.564 372.044 544.588 372 544.615 371.959C544.751 371.819 544.651 371.955 544.7 371.913C544.791 371.835 544.877 371.753 544.944 371.692C544.946 371.719 544.948 371.729 544.95 371.749C544.936 371.771 544.82 371.885 544.85 371.877C544.857 371.877 544.796 371.955 544.753 372.012C544.798 371.969 544.867 371.895 544.869 371.915C544.869 371.925 544.979 371.809 544.97 371.843C544.97 371.843 545.038 371.751 545.064 371.741C545.084 371.735 545.09 371.741 545.109 371.723C545.131 371.713 545.168 371.682 545.2 371.66C545.204 371.654 545.202 371.656 545.208 371.654C545.18 371.686 545.16 371.715 545.139 371.743C545.184 371.714 545.249 371.67 545.269 371.67C545.294 371.676 545.369 371.61 545.469 371.518C545.473 371.514 545.475 371.516 545.475 371.516C545.493 371.528 545.546 371.506 545.424 371.654C545.269 371.849 545.283 371.865 545.292 371.887C545.298 371.899 545.275 371.937 545.267 371.961C545.257 371.981 545.249 372.001 545.239 372.018C545.229 372.046 545.218 372.072 545.208 372.104C545.194 372.14 545.166 372.188 545.172 372.208C545.176 372.242 545.141 372.325 545.037 372.467C544.905 372.65 544.743 372.859 544.637 373.015C544.619 373.043 544.596 373.077 544.572 373.109C544.476 373.24 544.377 373.372 544.285 373.503C544.364 373.425 544.448 373.34 544.523 373.27C544.663 373.136 544.798 373.005 544.958 372.84C545.078 372.716 545.184 372.614 545.275 372.541C545.401 372.435 545.546 372.309 545.751 372.106C545.904 371.953 546.044 371.823 546.068 371.841C546.083 371.855 546.188 371.769 546.245 371.737C546.28 371.72 546.327 371.692 546.324 371.713C546.308 371.781 546.426 371.702 546.668 371.464C546.861 371.279 547.048 371.102 547.178 370.998C547.296 370.902 547.428 370.781 547.593 370.611C547.687 370.544 547.695 370.572 547.851 370.434C547.894 370.392 547.878 370.44 547.872 370.462C547.864 370.502 547.862 370.504 548.024 370.336C548.045 370.308 548.065 370.292 548.12 370.235C548.128 370.243 548.171 370.217 548.136 370.265C548.087 370.328 548.095 370.328 548.099 370.334C548.105 370.344 548.108 370.356 548.081 370.398C548.045 370.456 548.067 370.44 548.118 370.406C548.175 370.364 548.242 370.314 548.099 370.484C548.049 370.542 548.036 370.574 548.004 370.623C548.209 370.408 548.28 370.324 548.168 370.512C548.219 370.468 548.268 370.428 548.331 370.378C548.193 370.53 548.087 370.649 547.975 370.769C547.705 371.06 547.437 371.351 547.166 371.64C547.032 371.783 546.924 371.911 546.827 372.028C546.782 372.078 546.776 372.108 546.731 372.156C546.558 372.351 546.491 372.453 546.369 372.604C546.296 372.674 546.231 372.736 546.15 372.812C546.078 372.905 546.003 373.001 545.942 373.077C545.975 373.053 546.007 373.023 546.009 373.027C546.013 373.033 545.969 373.087 545.979 373.085C546.02 373.079 545.934 373.198 545.812 373.35C545.686 373.509 545.599 373.629 545.672 373.591C545.692 373.579 545.698 373.589 545.676 373.619C545.629 373.694 545.56 373.786 545.525 373.84C545.548 373.83 545.578 373.81 545.57 373.83C545.536 373.894 545.538 373.922 545.603 373.884C545.633 373.868 545.651 373.864 545.647 373.884C545.643 373.918 545.574 374.017 545.412 374.197C545.403 374.227 545.393 374.253 545.383 374.28C545.371 374.316 545.347 374.348 545.214 374.478C545.123 374.567 544.995 374.705 544.889 374.825C544.844 374.874 544.812 374.926 544.765 374.984C544.667 375.086 544.56 375.191 544.476 375.277C544.377 375.391 544.295 375.486 544.216 375.578C544.206 375.602 544.196 375.622 544.186 375.642C544.094 375.739 544.015 375.821 543.94 375.899C543.936 375.905 543.934 375.909 543.931 375.915C545.166 375.448 546.402 374.978 547.636 374.508C547.74 374.438 547.819 374.396 548.014 374.213C548.183 374.087 548.408 373.898 548.52 373.836C548.573 373.804 548.648 373.754 548.715 373.714C548.768 373.665 548.821 373.609 548.878 373.559C548.976 373.469 548.988 373.469 548.976 373.495C548.974 373.501 549.043 373.453 549.081 373.421C549.157 373.356 549.238 373.284 549.323 373.21C549.61 373.025 549.427 373.26 549.604 373.17C549.815 373.011 550.055 372.824 550.082 372.849C550.106 372.867 550.177 372.84 550.045 372.989C550.015 373.023 550.057 373.007 550.086 372.991C550.132 372.969 550.2 372.929 550.269 372.889C550.368 372.8 550.47 372.706 550.588 372.598C550.618 372.584 550.645 372.571 550.681 372.557C550.795 372.463 550.921 372.361 551.062 372.244C551.171 372.14 551.3 372.016 551.424 371.899C551.501 371.843 551.57 371.801 551.633 371.747C551.781 371.62 551.954 371.466 552.064 371.359C552.219 371.203 552.267 371.171 552.316 371.153C552.355 371.139 552.395 371.124 552.438 371.11C552.66 370.916 552.796 370.829 552.847 370.819C552.873 370.813 552.875 370.831 552.859 370.862C552.82 370.93 552.865 370.928 552.954 370.884C552.983 370.872 552.959 370.908 552.954 370.932C553.024 370.886 553.144 370.803 553.243 370.739C553.284 370.711 553.296 370.715 553.288 370.737C553.249 370.817 553.408 370.707 553.615 370.552C553.814 370.404 553.967 370.295 553.971 370.336C553.971 370.346 554.038 370.295 554.048 370.295C554.054 370.297 554.018 370.336 553.993 370.372C554.091 370.297 554.213 370.205 554.333 370.113C554.426 370.02 554.502 369.942 554.585 369.858C554.78 369.709 554.919 369.623 555.164 369.412C555.223 369.36 555.268 369.348 555.335 369.292C555.486 369.174 555.646 369.043 555.827 368.882C556.187 368.561 556.551 368.236 556.917 367.915C557.068 367.783 557.218 367.654 557.411 367.486C557.348 367.56 557.301 367.614 557.25 367.674C557.507 367.53 557.399 367.616 557.129 367.861C557.198 367.819 557.242 367.799 557.316 367.739C557.533 367.564 557.478 367.638 557.431 367.704C557.389 367.758 557.377 367.785 557.45 367.739C557.511 367.704 557.531 367.704 557.545 367.71C557.557 367.714 557.56 367.724 557.643 367.66C557.702 367.616 557.68 367.664 557.69 367.67C557.623 367.734 557.6 367.759 557.566 367.785C557.36 367.979 557.362 367.975 557.419 367.961C557.45 367.951 557.519 367.923 557.466 367.979C557.301 368.158 557.348 368.16 557.271 368.268C557.065 368.463 556.915 368.618 556.801 368.754C556.681 368.901 556.464 369.123 556.24 369.346C555.953 369.633 555.864 369.762 555.959 369.736C555.998 369.726 555.964 369.78 555.949 369.82C555.915 369.882 555.821 370.002 555.844 370.015C555.88 370.035 555.72 370.199 555.533 370.38C555.284 370.623 555.132 370.791 555.01 370.934C554.925 371.04 554.801 371.165 554.644 371.309C554.439 371.5 554.278 371.658 554.117 371.823C554.03 371.911 553.924 372.01 553.829 372.104C554.002 371.984 554.176 371.863 554.349 371.741C554.39 371.71 554.435 371.682 554.473 371.66C554.679 371.526 554.955 371.325 555.197 371.157C555.384 371.028 555.496 370.974 555.551 370.974C555.581 370.978 555.65 370.938 555.697 370.92C555.742 370.904 555.78 370.888 555.821 370.875C555.846 370.861 555.874 370.851 555.903 370.837C555.939 370.823 555.988 370.793 556.006 370.795C556.043 370.803 556.075 370.811 556.327 370.619C556.517 370.472 556.496 370.526 556.519 370.542C556.523 370.542 556.525 370.546 556.519 370.55C556.407 370.667 556.331 370.753 556.346 370.775C556.354 370.797 556.305 370.868 556.271 370.918C556.309 370.892 556.348 370.866 556.39 370.833C556.39 370.839 556.393 370.837 556.384 370.843C556.358 370.878 556.319 370.92 556.309 370.944C556.293 370.97 556.301 370.974 556.299 370.992C556.293 371.02 556.167 371.106 556.173 371.106C556.214 371.092 556.124 371.179 556.108 371.203C556.177 371.171 556.248 371.144 556.319 371.114L556.325 371.108L556.332 371.106C562.354 368.525 567.558 364.846 571.94 359.919C580.94 349.799 590.057 339.776 599.241 329.817C605.244 323.31 611.94 317.624 619.527 312.817C621.001 311.882 622.42 310.844 623.787 309.734C623.787 309.734 629.805 304.311 631.256 302.786C638.582 295.084 644.429 286.319 650.118 277.448C651.033 276.021 651.791 274.351 652.061 272.705C652.915 267.557 650.904 263.342 647.357 259.581Z" fill="url(#paint10_linear_2:211)"/>
<defs>
<linearGradient id="paint0_linear_2:211" x1="585.429" y1="340.028" x2="581.19" y2="406.404" gradientUnits="userSpaceOnUse">
<stop stop-color="#D3BA65"/>
<stop offset="0.538541" stop-color="#9D894D"/>
</linearGradient>
<linearGradient id="paint1_linear_2:211" x1="579.991" y1="404.221" x2="579.448" y2="428.785" gradientUnits="userSpaceOnUse">
<stop stop-color="#D3BA65"/>
<stop offset="0.538541" stop-color="#9D894D"/>
</linearGradient>
<linearGradient id="paint2_linear_2:211" x1="623.658" y1="337.849" x2="620.647" y2="415.861" gradientUnits="userSpaceOnUse">
<stop stop-color="#D3BA65"/>
<stop offset="0.538541" stop-color="#9D894D"/>
</linearGradient>
<linearGradient id="paint3_linear_2:211" x1="728.907" y1="203.464" x2="716.476" y2="389.547" gradientUnits="userSpaceOnUse">
<stop stop-color="#DECE98"/>
<stop offset="0.215625" stop-color="#D3BA65"/>
<stop offset="0.913541" stop-color="#9D894D"/>
</linearGradient>
<linearGradient id="paint4_linear_2:211" x1="669.191" y1="273.666" x2="663.474" y2="372.349" gradientUnits="userSpaceOnUse">
<stop stop-color="#DECE98"/>
<stop offset="0.215625" stop-color="#D3BA65"/>
<stop offset="0.913541" stop-color="#9D894D"/>
</linearGradient>
<linearGradient id="paint5_linear_2:211" x1="843.842" y1="372.587" x2="839.33" y2="479.499" gradientUnits="userSpaceOnUse">
<stop stop-color="#DECE98"/>
<stop offset="0.507291" stop-color="#9D894D"/>
</linearGradient>
<linearGradient id="paint6_linear_2:211" x1="938.857" y1="380.467" x2="936.987" y2="499.478" gradientUnits="userSpaceOnUse">
<stop stop-color="#DECE98"/>
<stop offset="0.507291" stop-color="#9D894D"/>
</linearGradient>
<linearGradient id="paint7_linear_2:211" x1="850.508" y1="248.595" x2="847.115" y2="386.512" gradientUnits="userSpaceOnUse">
<stop offset="0.325" stop-color="#DECE98"/>
<stop offset="0.621875" stop-color="#D3BA65"/>
<stop offset="1" stop-color="#9D894D"/>
</linearGradient>
<linearGradient id="paint8_linear_2:211" x1="535.351" y1="177.865" x2="530.352" y2="313.227" gradientUnits="userSpaceOnUse">
<stop offset="0.226041" stop-color="#DECE98"/>
<stop offset="0.611458" stop-color="#D3BA65"/>
<stop offset="1" stop-color="#9D894D"/>
</linearGradient>
<linearGradient id="paint9_linear_2:211" x1="515.53" y1="203.619" x2="515.28" y2="225.547" gradientUnits="userSpaceOnUse">
<stop offset="0.226041" stop-color="#DECE98"/>
<stop offset="0.611458" stop-color="#D3BA65"/>
<stop offset="1" stop-color="#9D894D"/>
</linearGradient>
<linearGradient id="paint10_linear_2:211" x1="616.609" y1="202.504" x2="610.184" y2="366.683" gradientUnits="userSpaceOnUse">
<stop offset="0.226041" stop-color="#DECE98"/>
<stop offset="0.611458" stop-color="#D3BA65"/>
<stop offset="1" stop-color="#9D894D"/>
</linearGradient>
</defs>
</svg>
