<svg width="801" height="471" viewBox="0 0 801 471" fill="none" xmlns="http://www.w3.org/2000/svg">
<path d="M195.045 232.426C196.754 232.426 199.17 234.334 202.301 238.136C204.198 240.141 203.252 248.671 201.627 251.267C198.108 256.889 201.627 251.267 198.69 255.172C195.56 259.077 194.668 265.527 191.632 269.032C196.374 267.929 199.816 272.211 201.75 273.779C207.377 278.355 207.377 278.355 207.565 281.558C207.377 283.563 205.717 286.868 202.587 291.472C198.79 296.682 195.565 293.303 192.909 296.805C197.939 297.105 201.21 297.659 202.729 298.456C204.34 299.359 205.149 300.562 205.149 302.061C205.149 303.815 201.267 309.617 197.316 313.878C195.691 315.629 193.08 320.1 191.729 322.408C187.53 329.589 171.482 331.634 167.495 333.165L175.719 327.541C178.061 325.684 186.819 317.018 188.367 313.653C189.324 311.573 189.927 309.957 189.927 309.725C189.927 308.925 189.547 308.523 188.79 308.523C184.428 309.325 181.534 309.725 180.112 309.725C176.318 309.725 174.422 308.577 174.422 306.269C174.422 304.169 175.51 301.613 177.695 298.608C180.632 294.903 194.357 285.636 194.446 283.243C194.314 286.728 190.429 276.056 187.296 277.558C184.359 278.564 182.508 279.064 181.751 279.064C177.955 279.064 176.058 277.461 176.058 274.253C176.058 272.054 174.536 274.833 179.466 268.123C182.797 263.47 185.331 259.154 187.299 255.198C192.269 245.174 193.614 237.453 195.045 232.426Z" fill="url(#paint0_linear_402_1952)"/>
<path d="M159.797 344.622C162.105 345.565 163.907 346.033 165.21 346.033C167.083 346.033 169.466 344.757 172.357 342.2C173.945 340.181 175.167 339.169 176.036 339.169C177.19 339.169 178.344 339.644 179.501 340.58C180.797 340.989 181.666 341.189 182.097 341.189C187.153 341.189 192.709 335.604 198.77 324.43C199.924 324.43 200.502 324.704 200.502 325.238C200.502 344.085 197.828 353.503 192.489 353.503C190.324 353.503 188.299 352.492 186.425 350.478C184.697 348.324 181.806 347.242 177.767 347.242C175.741 347.242 174.593 348.659 174.302 351.481C173.87 358.208 172.788 361.578 171.054 361.578C167.589 361.578 164.63 359.893 162.179 356.528C159.288 352.355 157.846 348.99 157.846 346.436C157.846 345.225 158.497 344.622 159.797 344.622Z" fill="url(#paint1_linear_402_1952)"/>
<path d="M249.41 294.135C251.924 294.135 253.929 294.667 255.42 295.718C257.283 297.726 258.217 300.159 258.217 303.01C258.217 305.97 256.68 308.189 253.603 309.669C249.97 311.254 246.705 312.26 243.814 312.679C244.188 313.845 244.371 315.059 244.371 316.327C244.371 318.864 243.674 322.14 242.275 326.151C241.438 329.007 240.412 331.595 239.201 333.923C245.914 332.438 250.71 331.23 253.603 330.275C255.372 329.644 256.866 329.327 258.074 329.327C261.43 329.538 264.972 330.755 268.703 332.969C272.988 335.403 275.133 338.733 275.133 342.961C275.133 344.858 272.522 345.812 267.303 345.812C260.688 344.963 256.12 344.541 253.603 344.541C241.021 344.541 227.084 345.178 211.796 346.443C206.763 347.08 203.269 347.397 201.313 347.397C198.982 347.397 197.676 346.5 197.396 344.703C197.396 344.172 198.236 343.855 199.913 343.755C213.15 340.367 223.776 337.674 231.791 335.671C232.817 332.92 233.751 329.59 234.588 325.679C235.425 321.775 235.842 318.655 235.842 316.33C235.842 315.167 235.562 314.005 235.005 312.842C228.758 312.422 223.816 311.206 220.183 309.195C217.295 307.609 215.849 305.921 215.849 304.124C215.849 303.707 216.549 303.49 217.946 303.49C226.427 303.49 232.485 302.011 236.122 299.051C240.321 295.772 244.748 294.135 249.41 294.135ZM222.428 254.187C223.545 254.187 224.616 255.087 225.644 256.884C226.573 258.784 227.038 261.217 227.038 264.174C227.038 266.713 225.921 269.352 223.685 272.1C223.219 272.734 222.985 273.314 222.985 273.843C222.985 274.377 223.125 274.688 223.402 274.794C224.99 276.379 226.433 278.656 227.738 281.612C228.669 283.726 229.135 285.997 229.135 288.425C228.949 290.645 227.878 291.861 225.921 292.073C225.267 292.073 224.473 291.119 223.542 289.219C220 282.878 217.298 279.233 215.435 278.282C214.595 278.07 214.176 277.228 214.176 275.742C214.176 274.263 215.664 271.626 218.651 267.821C220.794 264.759 221.868 261.428 221.868 257.835C221.868 256.675 221.725 255.67 221.448 254.821C221.448 254.399 221.771 254.187 222.428 254.187ZM249.41 229.302C257.24 229.405 261.153 232.63 261.153 238.974C260.967 241.825 259.288 243.25 256.12 243.25C249.219 243.25 242.649 243.518 236.407 244.044C233.24 244.361 230.44 244.518 228.018 244.518C225.407 244.518 223.122 243.938 221.165 242.779C219.303 241.93 218.232 241.088 217.952 240.239C217.952 239.822 218.323 239.605 219.071 239.605C222.054 239.605 226.621 237.968 232.771 234.692C239.204 231.31 244.748 229.516 249.41 229.302ZM238.224 254.821C239.25 254.821 240.226 255.718 241.161 257.515C242.089 259.417 242.555 261.851 242.555 264.808C242.555 266.922 241.809 269.035 240.321 271.146C239.949 271.68 239.761 272.1 239.761 272.417C239.761 272.949 239.901 273.263 240.181 273.366C241.483 274.631 242.789 276.485 244.094 278.916C245.025 280.815 245.494 282.667 245.494 284.46C245.211 286.786 244.049 288.108 241.995 288.422C241.438 288.422 240.689 287.528 239.758 285.729C236.405 280.444 233.84 277.436 232.071 276.696C231.323 276.379 230.952 275.642 230.952 274.477C230.952 273.106 232.257 270.726 234.868 267.344C236.73 264.596 237.664 261.637 237.664 258.469C237.664 257.31 237.479 256.304 237.104 255.453C237.104 255.033 237.479 254.821 238.224 254.821ZM259.339 250.225C260.082 250.225 260.459 250.437 260.459 250.862C257.94 258.261 256.686 262.908 256.686 264.811C256.686 266.713 257.663 268.298 259.619 269.564C262.136 271.363 263.393 273.426 263.393 275.745C263.393 278.39 259.802 281.51 252.627 285.097C252.252 285.097 252.067 284.677 252.067 283.829C254.769 280.661 256.123 278.55 256.123 277.491C256.123 276.331 255 274.583 252.767 272.257C250.53 270.149 249.41 267.661 249.41 264.811C249.41 261.854 250.576 258.629 252.906 255.141C255.143 251.865 257.285 250.225 259.339 250.225Z" fill="url(#paint2_linear_402_1952)"/>
<path fill-rule="evenodd" clip-rule="evenodd" d="M343.514 206.546C345.162 202.467 346.113 197.565 348.595 194.483C354.394 187.285 354.365 178.584 354.414 169.712C354.437 165.841 354.082 161.962 354.117 158.092C354.134 156.406 354.705 154.727 355.179 152.227C356.91 155.058 358.15 157.169 359.464 159.211C361.521 162.396 363.94 162.885 366.1 160.02C368.162 157.286 369.802 154.064 371.476 150.936C371.778 150.373 371.524 149.134 371.227 148.377C370.739 147.143 369.967 146.077 369.382 144.892C363.62 133.194 363.632 133.352 352.411 134.029C349.138 134.223 345.822 133.235 341.617 132.66C345.827 124.502 352.009 122.197 357.607 118.069C356.208 113.059 350.046 103.181 346.476 88.1449C344.428 79.5241 338.483 64.8246 338.577 49.3768C338.597 46.169 339.206 42.5527 340.169 39.3791C341.025 36.5455 343.322 35.68 345.062 38.108C347.016 40.8359 344.659 44.4722 345.047 47.9428C346.524 61.1883 352.997 74.0853 355.996 84.3858C359.493 96.3916 366.157 107.355 366.802 110.197C371.616 107.189 373.318 106.486 371.69 94.6377C378.12 94.6377 384.47 94.6377 391.885 94.6377C389.969 90.2188 388.489 87.1852 387.332 83.9745C386.732 82.3092 386.712 80.3325 386.432 78.4958C387.84 78.4558 389.249 78.3215 390.654 78.4043C395.656 78.6928 399.021 82.4349 402.057 86.6853C404.671 90.3502 404.739 94.0322 402.454 98.0598C400.989 100.631 399.466 103.159 397.975 105.701C395.79 101.702 394.002 100.685 390.703 103.421C386.224 107.132 382.204 111.677 378.077 115.987C376.791 117.332 375.829 119.121 374.649 120.623C370.978 125.311 372.475 124.159 375.283 131.238C377.057 135.708 382.004 137.796 385.598 133.78C387.946 131.155 390.091 128.261 392.385 125.556C393.576 124.157 394.887 122.905 396.744 120.954C398.772 139.264 411.166 149.945 416.474 165.264C416.128 165.621 415.782 165.981 415.437 166.338C413.706 164.724 411.726 163.373 410.292 161.431C407.553 157.723 404.948 153.827 402.623 149.728C400.837 146.577 397.898 134.546 395.77 136.657C392.928 139.47 384.975 143.198 383.707 149.236C381.859 156.843 383.707 160.514 389.543 173.011C389.957 174.316 391.42 175.565 392.602 175.993C395.736 177.133 398.978 177.81 402.103 178.647C401.94 182.692 395.976 192.204 394.067 191.152C391.508 189.744 391.102 192.201 389.946 193.038C385.47 196.277 381.116 199.768 376.746 203.215C375.24 204.404 373.804 205.726 372.401 206.934C376.449 214.81 376.423 224.89 383.13 230.726C386.018 220.337 388.88 210.057 391.751 199.728C398.372 199.008 402.857 204.792 401.717 212.802C400.086 224.296 394.939 233.843 390.137 243.595C389.5 244.883 388.766 246.78 389.097 247.985C392.468 260.299 396.712 272.059 404.605 281.28C412.6 290.624 422.152 288.227 425.269 275.221C427.214 267.109 427.366 258.334 428.068 249.824C428.577 243.694 428.665 237.51 429.316 231.315C432.787 236.988 434.155 243.389 434.869 250.159C435.529 256.443 436.892 262.642 437.292 268.94C437.62 274.113 437.329 279.432 436.717 284.582C435.495 294.857 433.867 305.057 432.404 315.289C431.924 318.649 429.97 319.842 427.642 318.917C424.543 317.68 421.29 316.292 418.71 313.973C404.642 301.324 392.388 286.536 383.53 267.972C382.516 265.847 381.716 263.564 380.708 261.076C378.26 263.913 376.235 266.986 373.669 269.089C367.362 274.256 360.855 286.016 354.317 290.741C352.811 291.829 350.875 292.197 349.089 292.532C344.35 293.42 342.065 291.543 340.737 285.97C338.949 278.469 341.128 283.857 343.514 278.127C343.979 278.361 344.499 278.529 344.942 278.852C349.384 282.054 353.917 281.871 357.667 277.844C362.781 272.359 368.885 258.451 373.635 252.484C375.666 249.927 372.373 233.448 371.324 230.146C369.436 224.176 367.774 218.1 365.94 211.813C364.771 212.979 363.277 214.624 361.658 216.058C354.757 222.168 347.898 228.367 340.834 234.191C338.735 235.925 336.052 236.69 333.576 237.65C331.693 238.382 330.648 237.367 330.265 234.882C329.163 227.753 331.388 221.922 336.018 217.446C338.786 214.773 340.746 210.865 343.068 207.514C342.228 215.458 344.028 218.643 349.032 216.727C354.217 214.738 359.044 211.356 363.423 208.923C362.292 204.621 361.341 201.581 360.704 198.442C360.064 195.297 359.741 192.058 359.073 187.408C353.497 194.26 348.507 200.402 343.514 206.546ZM371.341 179.238C368.576 178.707 365.943 178.204 362.929 177.624C363.335 185.211 365.349 191.609 367.925 197.748C368.308 198.656 370.219 199.562 370.941 199.165C374.435 197.257 377.92 195.189 381.096 192.609C383.173 190.918 384.404 187.705 382.702 184.977C380.936 182.152 381.882 179.387 381.716 176.584C381.662 175.693 382.033 174.542 381.696 173.934C379.765 170.463 377.68 167.115 375.657 163.745C366.957 171.123 366.343 173.417 371.341 179.238Z" fill="url(#paint3_linear_402_1952)"/>
<path fill-rule="evenodd" clip-rule="evenodd" d="M271.71 286.974C284.562 272.615 294.977 256.279 303.412 237.683C298.75 232.276 294.148 226.937 289.546 221.601C289.638 221.158 289.729 220.71 289.821 220.267C296.011 221.781 302.201 223.298 308.811 224.917C312.727 216.571 316.929 207.721 318.862 197.598C319.565 193.925 317.791 191.931 315.295 192.096C312.438 192.279 309.576 193.539 306.834 194.724C304.263 195.836 301.975 196.907 300.293 200.492C297.325 206.822 293.448 212.623 289.469 218.128C285.533 223.575 280.997 228.379 276.05 234.269C276.05 229.453 275.938 225.506 276.127 221.572C276.175 220.547 277.032 218.896 277.738 218.705C282.174 217.482 284.759 213.337 287.027 209.387C293.42 198.266 299.453 186.835 305.403 175.36C307.482 171.356 306.442 168.968 302.629 167.879C297.287 166.351 293.334 162.418 289.692 157.724C295.682 155.773 301.529 154.171 307.205 151.937C313.058 149.635 318.168 145.813 321.599 139.234C322.107 138.255 323.47 137.172 324.29 137.323C327.846 137.986 331.511 138.583 334.824 140.169C338.078 141.722 338.195 145.976 335.081 148.147C323.356 156.313 317.763 170.504 310.81 183.35C314.786 187.977 317.74 188.049 321.225 183.69C324.23 179.934 327.572 181.827 330.774 182.833C334.096 183.878 336.39 186.706 337.281 190.645C337.507 191.639 336.073 193.416 335.153 194.527C326.732 204.688 320.242 216.531 314.549 228.871C317.237 234.198 319.839 239.36 322.442 244.521C322.264 244.936 322.093 245.353 321.916 245.772C318.682 244.984 315.215 244.836 312.275 243.245C308.762 241.348 307.399 243.279 305.788 246.347C302.3 253.002 298.956 259.818 295.002 266.045C289.343 274.954 282.102 281.679 273.539 286.169C272.942 286.48 272.319 286.709 271.71 286.974Z" fill="url(#paint4_linear_402_1952)"/>
<path d="M569.956 440.37C556.799 443.975 525.877 430.672 520.381 426.104C504.356 412.787 504.357 412.788 503.597 403.207C503.991 397.197 506.053 380.678 517.151 368.712C521.238 364.31 538.306 373.342 544.679 369.203C548.96 366.418 552.951 363.462 555.57 360.014C555.57 360.014 555.99 357.555 553.485 355.969C551.766 354.881 546.413 351.21 544.224 349.839C538.84 346.474 534.038 346.56 531.893 345.409C527.331 342.815 524.995 339.273 524.892 334.774C524.826 332.052 523.472 332.458 527.206 322.717C529.588 316.518 532.467 310.394 535.518 306.227C538.343 302.373 543.165 302.245 547.875 300.808C550.177 300.105 552.457 299.083 554.465 297.166C560.298 291.57 563.843 284.703 571.178 280.05C575.64 277.228 577.62 281.758 582.564 279.587L584.152 279.547C573.78 288.785 562.957 319.358 563.003 321.152C563.06 323.551 564.146 324.728 566.265 324.677C578.385 321.989 586.429 320.603 590.397 320.509C600.986 320.258 599.3 329.213 599.463 336.108C599.614 342.401 603.813 344.483 597.932 353.621C589.994 364.901 540.2 390.13 540.114 397.305C540.245 386.868 564.76 420.274 573.418 424.922" fill="url(#paint5_linear_402_1952)"/>
<path d="M539.082 389.514C538.914 395.407 543.404 399.963 546.878 403.011C549.483 405.047 556.687 410.486 560.081 413.523C568.513 421.055 589.688 428.876 598.432 430.702C630.167 437.311 678.544 430.784 692.361 429.216C706.15 427.625 730.855 412.154 738.945 408.467C746.146 404.756 753.644 391.948 756.106 388.394C765.133 375.372 762.242 381.693 765.293 369.676C766.618 364.471 773.28 331.916 775.733 311.772C776.059 309.067 777.479 291.762 777.733 290.908C778.707 287.666 778.895 300.226 779.367 308.804C779.495 311.092 779.607 313.457 779.73 315.7C779.875 318.533 780.024 321.184 780.178 323.281C780.558 328.345 781.155 329.585 781.838 329.211C782.972 328.585 784.343 323.481 785.303 324.223C786.434 325.095 786.659 334.995 787.468 337.012C787.953 338.217 788.65 336.589 789.873 328.46C791.013 320.896 791.641 313.809 792.161 314.937C794.669 320.427 800.682 376.586 800.513 382.481C801.162 390.382 801.165 398.22 800.505 406.082C799.828 413.92 802.227 426.591 796.74 432.336C791.281 437.089 781.521 446.764 772.346 455.316C766.43 460.84 730.312 463.44 722.303 464.197C698.468 467.884 678.822 471.081 647.854 470.161C630.084 469.624 580.919 453.636 563.414 445.273C546.812 435.949 512.263 422.024 510.109 404.262" fill="url(#paint6_linear_402_1952)"/>
<path fill-rule="evenodd" clip-rule="evenodd" d="M489.934 290.462C489.896 290.484 489.858 290.506 489.82 290.528C481.013 295.611 474.138 299.579 469.407 305.101C465.108 311.125 459.45 311.563 452.417 306.407C441.148 295.886 435.013 290.196 434.01 289.322C431.893 286.634 433.647 284.609 439.237 283.218C448.441 279.659 458.513 274.614 469.405 268.076C488.495 257.124 501.3 250.908 507.838 249.448C508.902 245.786 510.102 243.918 511.302 242.051C512.645 239.961 513.987 237.872 515.137 233.269C505.987 237.783 496.898 243.221 487.917 249.611C485.087 249.828 481.733 249.623 477.897 248.957C472.947 246.492 468.856 242.536 465.588 237.091C462.318 231.647 462.535 228.316 466.242 227.071C480.179 223.149 491.251 218.981 499.452 214.539C504.896 211.269 512.226 207.855 521.447 204.302L521.338 202.885C525.406 181.698 528.734 163.394 531.35 147.995C527.125 154.973 522.529 162.914 517.522 171.846C502.5 198.637 491.671 212.291 485.078 212.8C483.11 212.02 480.576 209.832 477.454 206.267C473.895 197.058 474.295 183.724 478.645 166.302C482.773 158.395 485.107 157.75 485.612 164.337C486.046 169.998 487.72 173.206 490.623 173.92C492.651 175.671 506.956 164.111 533.527 139.28C533.507 126.951 533.484 120.304 533.413 119.35C532.244 116.594 529.805 115.845 526.114 117.062C522.481 119.256 520.636 119.867 520.564 118.913C520.418 117.033 520.701 114.628 521.433 111.726C523.978 107.747 527.088 105.125 530.799 103.882C534.415 101.711 538.16 100.96 542.013 101.594C552.608 103.625 559.584 107.847 562.926 114.226C566.339 121.567 565.579 130.17 560.643 140.034C558.101 144.033 553.677 160.509 547.364 189.477L548.675 187.954C577.054 162.046 588.694 140.722 583.618 124.023C582.304 119.382 583.073 116.942 585.903 116.725C588.666 115.577 591.565 116.285 594.616 118.902C603.693 125.809 609.132 134.869 610.96 146.121C611.472 152.731 604.71 163.688 590.708 179.016C593.616 179.747 596.589 181.41 599.64 184.021C607.621 189.102 611.84 194.476 612.274 200.143C611.692 204.947 608.575 207.547 602.911 207.981C590.711 209.878 573.766 217.839 552.06 231.844L549.337 233.478C548.315 232.618 548.241 231.67 549.12 230.644C551.663 226.665 554.233 223.129 556.85 220.078C558.515 217.104 559.318 215.151 559.244 214.197C558.295 214.268 555.962 214.945 552.277 216.162C548.566 217.407 544.856 218.65 541.168 219.867C540.159 222.835 539.202 224.178 538.407 225.293C537.372 226.745 536.612 227.81 536.375 231.578C536.239 232.119 536.102 232.66 535.966 233.201C535.37 235.567 534.775 237.931 534.198 240.293C535.052 239.294 535.972 238.731 536.92 238.66C547.075 235.029 558.255 232.278 570.461 230.376C599.197 221.532 616.987 218.247 623.817 220.567C635.363 222.526 643.453 229.019 648.106 240.053C649.334 243.764 648.057 245.755 644.295 246.046C626.456 247.422 612.28 249.1 602.27 250.513C604.58 252.552 606.468 255.379 607.941 258.993C609.675 263.277 612.68 267.071 616.942 270.373C621.204 273.681 626.454 277.151 632.692 280.768C638.937 284.39 646.238 289.52 654.621 296.161C663 302.805 670.592 306.59 677.402 307.519C684.209 308.45 688.651 310.392 690.71 313.354C692.776 316.311 694.001 318.319 694.401 319.353C694.804 320.39 695.389 321.807 696.178 323.586C693.692 323.289 691.83 323.289 690.602 323.586C689.373 323.883 687.845 324.003 686.02 323.961C684.192 323.921 682.338 323.995 680.453 324.178C678.565 324.372 675.354 324.352 670.824 324.126L669.327 325.057C668.89 324.992 668.553 324.795 668.324 324.46C668.09 324.138 667.101 323.98 665.353 323.992C663.608 324.015 660.754 323.706 656.798 323.084C656.798 323.084 644.161 317.236 641.91 315.751C623.292 303.548 610.946 294.693 604.859 289.191C598.777 283.69 593.576 278.262 589.248 272.884C584.923 267.516 582.155 263.126 580.953 259.713C580.39 258.121 579.584 256.155 578.535 253.819C563.604 255.722 541.665 264.692 524.429 272.655C524.374 272.754 524.32 272.853 524.266 272.953C521.822 277.489 521.035 281.6 520.274 285.579C519.886 287.604 519.505 289.595 518.916 291.591C517.807 293.789 516.674 296.792 515.427 300.096C513.891 304.166 512.183 308.693 510.135 312.738C506.427 320.073 499.006 332.159 492.531 342.379C487.134 350.873 467.559 374.224 457.9 385.745C455.937 388.086 454.384 389.939 453.443 391.079C450.309 394.86 446.999 396.569 443.859 398.19L443.859 398.19C441.398 399.461 439.041 400.678 436.955 402.797C435.39 403.711 433.447 405.128 431.093 407.047C428.777 407.941 426.057 409.329 422.952 411.215C419.879 412.074 417.02 412.474 414.369 412.369C411.704 412.263 409.276 411.643 407.045 410.578L405.131 401.517C405.254 398.526 405.725 396.044 406.571 394.084C408.202 391.156 410.181 389.226 412.489 388.331C414.803 387.417 417.097 387.02 419.368 387.109L419.477 387.113L419.499 387.114C421.7 387.206 423.167 387.266 423.915 387.292C428.665 382.481 434.027 376.469 440.014 369.227L440.237 368.958C446.631 361.215 472.708 329.639 478.023 318.993C483.345 308.314 487.317 298.805 489.934 290.462Z" fill="url(#paint7_linear_402_1952)"/>
<path fill-rule="evenodd" clip-rule="evenodd" d="M109.377 0C114.984 3.83911 113.128 5.70723 117.955 10.5004C122.64 15.1479 123.288 20.9009 121.874 27.5936C119.332 39.6222 116.661 46.932 115.45 59.1605C113.553 78.3475 112.513 97.6173 111.117 116.853C111.065 117.527 111.111 118.215 111.111 119.344C128.01 98.8913 149.162 83.3263 166.424 63.7737C166.692 64.0337 166.958 64.2937 167.224 64.5479C163.407 69.1554 159.354 73.5943 155.823 78.4132C146.377 91.2959 137.233 104.396 127.81 117.293C123.042 123.823 118.109 130.253 112.888 136.42C110.905 138.759 110.12 141.053 109.734 143.981C108.309 154.818 106.655 165.627 104.887 176.413C104.532 178.579 103.296 180.598 102.179 183.412C96.4001 175.893 94.3777 167.618 91.5926 159.214C89.6616 161.243 87.962 163.048 86.2424 164.836C72.7484 178.861 57.9547 191.407 42.5383 203.239C39.519 205.561 36.5139 205.398 33.5946 202.941C30.1925 200.085 26.1992 197.494 26.282 192.392C26.3392 188.922 30.8581 171.56 31.118 169.463C35.2714 167.63 34.7172 180.544 37.4909 178.813C51.8333 169.875 63.5877 157.795 76.0905 146.62C80.001 143.127 84.2229 139.985 88.1762 136.54C89.176 135.668 90.2729 134.275 90.3414 133.069C91.4383 112.788 92.3809 92.4986 93.3436 72.2061C93.3721 71.6748 93.2465 71.1406 93.1522 70.2294C73.6682 80.6727 61.3539 97.6544 48.6739 114.513C51.6075 109.369 53.9956 103.796 57.5977 99.1712C64.736 90.0048 72.4114 81.2469 80.1667 72.586C82.1205 70.4094 85.0969 68.9954 87.8277 67.7043C91.9525 65.7447 94.2348 62.3255 93.9749 56.504C93.5236 46.3693 90.5271 57.8895 89.4588 47.8147C88.4219 38.0255 100.088 15.8592 100.088 9.48641L109.377 0Z" fill="url(#paint8_linear_402_1952)"/>
<path d="M101.599 66.9383C101.431 66.7898 100.868 66.9984 99.8909 67.564C98.9225 68.1353 97.3028 68.8322 95.0291 69.6663L92.4326 70.0634L85.9513 69.395C74.2768 66.9727 66.4501 64.8531 62.471 63.0278C58.4948 61.2026 55.0156 59.1516 52.0306 56.8522C49.0427 54.5584 47.0374 52.4446 45.9977 50.4907C44.9665 48.5426 42.3871 42.8925 42.9955 43.0182C43.604 43.1496 44.5951 42.6812 45.9691 41.61C47.3402 40.5445 48.9027 39.4076 50.6594 38.2022C52.4076 36.9967 54.2071 36.6369 56.0496 37.1253C57.8949 37.6166 59.5231 39.0449 60.9571 41.4129C62.3824 43.7838 64.4648 45.4205 67.187 46.326C69.9178 47.2315 73.2114 47.9342 77.0762 48.417C80.9439 48.9026 85.557 50.0851 90.9415 51.9561C96.3202 53.8328 100.954 54.0042 104.841 52.4731C108.737 50.9421 111.417 50.8564 112.879 52.2218C114.348 53.5901 115.247 54.5698 115.579 55.1468C115.91 55.7295 116.39 56.5122 117.024 57.4749C115.604 58.0661 114.567 58.6574 113.913 59.2487C113.262 59.8429 112.422 60.4113 111.402 60.9626C110.383 61.5196 109.351 62.1566 108.326 62.8878C107.292 63.6191 105.504 64.6275 102.956 65.9129L101.599 66.9383Z" fill="url(#paint9_linear_402_1952)"/>
<path fill-rule="evenodd" clip-rule="evenodd" d="M284.605 117.122C276.661 108.804 268.234 101.249 256.223 99.0376C249.173 97.7408 242.009 97.0267 234.951 95.7727C226.016 94.1845 217.98 95.9326 210.442 100.749C207.571 102.582 204.341 103.914 201.202 105.319C194.257 108.418 187.111 110.549 179.272 110.035C176.702 109.861 175.487 109.25 174.762 106.679C171.908 96.5525 173.294 86.372 174.702 76.3714C176.501 63.5773 173.197 51.8657 168.763 40.197C168.123 38.5117 167.049 36.9806 166.144 35.3153C165.658 35.6838 165.35 35.7981 165.29 35.9837C160.345 51.6115 155.466 67.2593 150.473 82.8757C146.063 96.6953 145.697 110.598 148.617 124.763C150.116 132.047 154.812 137.483 158.734 143.364C161.539 147.578 164.664 151.751 168.38 155.205C174.351 160.749 188.467 159.518 193.963 153.448C199.285 147.569 204.592 141.676 209.842 135.741C213.053 132.11 216.649 129.171 221.345 127.308C230.495 123.678 235.197 124.012 242.658 120.03C242.658 120.03 250.039 120.581 250.256 122.435C251.584 130.502 248.128 136.852 243.543 143.065C225.656 167.302 208.014 191.716 189.961 215.842C179.967 229.199 169.92 242.599 158.834 255.09C150.847 264.085 141.801 272.2 132.966 280.495C132.98 280.498 133.003 280.487 133.04 280.461C133.1 280.418 133.183 280.341 133.263 280.276C133.229 280.321 133.194 280.364 133.186 280.387C133.074 280.487 132.972 280.581 132.88 280.664C132.795 280.755 132.709 280.85 132.64 280.941C132.492 281.112 132.355 281.278 132.215 281.455C132.189 281.561 131.978 281.775 131.786 281.975C131.632 282.127 131.566 282.227 131.498 282.315C131.475 282.349 131.552 282.301 131.581 282.287C131.392 282.538 131.221 282.766 130.929 283.069C130.866 283.138 130.801 283.235 130.746 283.312C130.687 283.389 130.632 283.469 130.569 283.549C130.581 283.552 130.578 283.569 130.575 283.581C130.518 283.652 130.461 283.726 130.361 283.855C130.549 283.663 130.698 283.509 130.809 283.406C130.924 283.301 131.004 283.243 131.106 283.158C131.043 283.241 130.984 283.309 130.952 283.355C130.926 283.389 130.912 283.429 130.929 283.412C131.064 283.301 130.986 283.412 131.015 283.403C131.195 283.192 131.369 282.989 131.546 282.784C131.615 282.766 131.615 282.778 131.835 282.552C131.955 282.432 132.083 282.287 132.198 282.158C132.249 282.098 132.269 282.052 132.315 281.995C132.406 281.872 132.509 281.738 132.6 281.618C132.686 281.501 132.829 281.33 132.78 281.347C132.726 281.364 132.829 281.218 132.94 281.073C133.066 280.915 133.04 280.927 133 280.938C132.937 280.967 132.737 281.155 132.626 281.235C132.84 280.973 132.646 281.113 132.746 280.958C132.792 280.916 132.849 280.861 132.872 280.827C132.969 280.715 133.026 280.641 133.143 280.547C133.2 280.501 133.366 280.33 133.452 280.201C133.466 280.178 133.514 280.124 133.52 280.119C133.646 280.007 133.726 279.896 133.823 279.784C133.986 279.604 134.14 279.444 134.268 279.339C134.34 279.273 134.374 279.262 134.437 279.227C134.474 279.179 134.511 279.139 134.551 279.096C134.608 279.044 134.666 278.999 134.728 278.95C134.754 278.899 134.78 278.862 134.82 278.793C134.908 278.733 134.977 278.699 135.037 278.656C135.088 278.605 135.125 278.553 135.168 278.505C135.217 278.482 135.26 278.453 135.302 278.436C135.32 278.416 135.343 278.393 135.357 278.373C135.4 278.313 135.434 278.25 135.474 278.19C135.671 277.99 135.525 278.185 135.597 278.125C135.728 278.013 135.854 277.896 135.951 277.808C135.954 277.848 135.957 277.862 135.96 277.89C135.94 277.922 135.771 278.085 135.814 278.073C135.825 278.073 135.737 278.185 135.674 278.267C135.74 278.205 135.84 278.099 135.842 278.127C135.842 278.142 136.002 277.976 135.988 278.025C135.988 278.025 136.088 277.893 136.125 277.879C136.154 277.87 136.162 277.879 136.191 277.853C136.222 277.839 136.277 277.793 136.322 277.762C136.328 277.753 136.325 277.756 136.334 277.753C136.294 277.799 136.265 277.842 136.234 277.882C136.299 277.839 136.394 277.776 136.422 277.776C136.459 277.785 136.568 277.691 136.714 277.559C136.719 277.553 136.722 277.556 136.722 277.556C136.748 277.573 136.825 277.542 136.648 277.753C136.422 278.033 136.442 278.056 136.457 278.088C136.465 278.105 136.431 278.159 136.419 278.193C136.405 278.222 136.394 278.25 136.379 278.276C136.365 278.316 136.348 278.353 136.334 278.399C136.314 278.45 136.274 278.519 136.282 278.547C136.288 278.596 136.237 278.716 136.085 278.919C135.894 279.181 135.66 279.481 135.505 279.704C135.48 279.744 135.445 279.793 135.411 279.839C135.271 280.027 135.128 280.216 134.994 280.404C135.108 280.293 135.231 280.17 135.34 280.07C135.542 279.878 135.74 279.69 135.971 279.453C136.145 279.276 136.299 279.13 136.431 279.025C136.614 278.873 136.825 278.693 137.122 278.402C137.345 278.182 137.548 277.996 137.582 278.022C137.605 278.042 137.756 277.919 137.839 277.873C137.89 277.848 137.959 277.808 137.953 277.839C137.93 277.936 138.102 277.822 138.453 277.482C138.733 277.216 139.004 276.962 139.193 276.813C139.364 276.676 139.556 276.502 139.796 276.259C139.933 276.162 139.944 276.202 140.17 276.005C140.233 275.945 140.21 276.014 140.201 276.045C140.19 276.102 140.187 276.105 140.421 275.865C140.453 275.825 140.481 275.802 140.561 275.719C140.573 275.731 140.636 275.694 140.584 275.762C140.513 275.854 140.524 275.854 140.53 275.862C140.538 275.877 140.544 275.894 140.504 275.954C140.453 276.037 140.484 276.014 140.558 275.965C140.641 275.905 140.738 275.834 140.53 276.076C140.458 276.159 140.438 276.205 140.393 276.276C140.69 275.968 140.793 275.848 140.63 276.117C140.704 276.054 140.776 275.997 140.867 275.925C140.667 276.142 140.513 276.314 140.35 276.485C139.959 276.902 139.57 277.319 139.176 277.733C138.982 277.939 138.825 278.122 138.685 278.29C138.619 278.362 138.61 278.404 138.545 278.473C138.293 278.753 138.196 278.899 138.019 279.116C137.913 279.216 137.819 279.304 137.702 279.413C137.596 279.547 137.488 279.684 137.399 279.793C137.448 279.759 137.493 279.716 137.496 279.721C137.502 279.73 137.439 279.807 137.453 279.804C137.513 279.796 137.388 279.967 137.211 280.184C137.028 280.413 136.902 280.584 137.008 280.53C137.036 280.513 137.045 280.527 137.014 280.57C136.945 280.678 136.845 280.81 136.794 280.887C136.828 280.873 136.871 280.844 136.859 280.873C136.811 280.964 136.814 281.004 136.908 280.95C136.951 280.927 136.976 280.921 136.971 280.95C136.965 280.998 136.865 281.141 136.631 281.398C136.617 281.441 136.602 281.478 136.588 281.518C136.571 281.57 136.537 281.615 136.342 281.801C136.211 281.93 136.025 282.127 135.871 282.298C135.805 282.369 135.76 282.444 135.691 282.526C135.548 282.672 135.394 282.824 135.271 282.946C135.128 283.109 135.008 283.246 134.894 283.378C134.88 283.412 134.865 283.441 134.851 283.469C134.717 283.609 134.603 283.726 134.494 283.838C134.488 283.846 134.486 283.852 134.48 283.861C136.274 283.192 138.068 282.518 139.859 281.844C140.01 281.744 140.124 281.684 140.407 281.421C140.653 281.241 140.978 280.97 141.141 280.881C141.218 280.835 141.327 280.764 141.424 280.707C141.501 280.636 141.578 280.556 141.661 280.484C141.804 280.356 141.821 280.355 141.804 280.393C141.801 280.401 141.901 280.333 141.955 280.287C142.067 280.193 142.184 280.09 142.307 279.984C142.724 279.719 142.458 280.056 142.715 279.927C143.021 279.699 143.369 279.43 143.409 279.467C143.443 279.493 143.546 279.453 143.355 279.667C143.312 279.716 143.372 279.693 143.415 279.67C143.481 279.639 143.581 279.581 143.681 279.524C143.823 279.396 143.972 279.262 144.143 279.107C144.186 279.087 144.226 279.067 144.278 279.047C144.443 278.913 144.626 278.767 144.832 278.599C144.989 278.45 145.177 278.273 145.357 278.105C145.469 278.025 145.569 277.965 145.66 277.888C145.874 277.705 146.126 277.485 146.286 277.331C146.511 277.108 146.58 277.062 146.651 277.036C146.708 277.016 146.766 276.993 146.828 276.974C147.151 276.696 147.348 276.571 147.423 276.556C147.46 276.548 147.463 276.574 147.44 276.619C147.383 276.716 147.448 276.713 147.577 276.651C147.62 276.633 147.585 276.685 147.577 276.719C147.68 276.654 147.854 276.534 147.997 276.442C148.057 276.402 148.074 276.408 148.062 276.439C148.005 276.554 148.237 276.396 148.537 276.174C148.825 275.962 149.048 275.805 149.054 275.865C149.054 275.879 149.151 275.805 149.165 275.805C149.174 275.808 149.122 275.865 149.085 275.917C149.228 275.808 149.405 275.677 149.579 275.545C149.713 275.411 149.825 275.3 149.945 275.18C150.228 274.965 150.43 274.843 150.785 274.54C150.87 274.466 150.936 274.448 151.033 274.368C151.253 274.2 151.485 274.011 151.747 273.78C152.27 273.32 152.798 272.854 153.33 272.394C153.55 272.206 153.767 272.02 154.047 271.78C153.955 271.886 153.887 271.963 153.813 272.049C154.187 271.843 154.03 271.966 153.638 272.317C153.738 272.257 153.801 272.229 153.91 272.143C154.224 271.892 154.144 271.998 154.075 272.092C154.015 272.169 153.998 272.209 154.104 272.143C154.192 272.092 154.221 272.092 154.241 272.1C154.258 272.106 154.264 272.12 154.384 272.029C154.47 271.966 154.438 272.035 154.452 272.043C154.355 272.135 154.321 272.172 154.272 272.209C153.973 272.486 153.975 272.48 154.058 272.46C154.104 272.446 154.204 272.406 154.127 272.486C153.887 272.743 153.955 272.746 153.844 272.9C153.544 273.18 153.327 273.403 153.161 273.597C152.987 273.809 152.673 274.126 152.347 274.445C151.93 274.857 151.802 275.042 151.939 275.005C151.996 274.991 151.947 275.068 151.924 275.125C151.876 275.214 151.739 275.385 151.773 275.405C151.824 275.434 151.593 275.668 151.322 275.928C150.959 276.276 150.739 276.516 150.562 276.722C150.439 276.873 150.259 277.053 150.031 277.259C149.733 277.533 149.499 277.759 149.265 277.996C149.139 278.122 148.985 278.265 148.848 278.399C149.099 278.227 149.351 278.053 149.602 277.879C149.662 277.833 149.728 277.793 149.782 277.762C150.082 277.571 150.482 277.282 150.833 277.042C151.105 276.856 151.267 276.779 151.347 276.779C151.39 276.785 151.49 276.728 151.559 276.702C151.624 276.679 151.679 276.656 151.739 276.636C151.776 276.616 151.816 276.602 151.859 276.582C151.91 276.562 151.982 276.519 152.007 276.522C152.062 276.534 152.107 276.545 152.473 276.271C152.75 276.059 152.718 276.136 152.753 276.159C152.758 276.159 152.761 276.165 152.753 276.171C152.59 276.339 152.479 276.462 152.501 276.494C152.513 276.525 152.441 276.628 152.393 276.699C152.447 276.662 152.504 276.625 152.564 276.576C152.564 276.585 152.57 276.582 152.556 276.591C152.519 276.642 152.461 276.702 152.447 276.736C152.424 276.774 152.436 276.779 152.433 276.805C152.424 276.845 152.241 276.968 152.25 276.968C152.31 276.948 152.179 277.073 152.156 277.108C152.256 277.062 152.359 277.022 152.461 276.979L152.47 276.971L152.481 276.968C161.222 273.269 168.775 267.996 175.136 260.934C188.199 246.429 201.433 232.064 214.764 217.79C223.476 208.464 233.197 200.314 244.209 193.424C246.348 192.085 248.408 190.596 250.393 189.005C250.393 189.005 259.128 181.233 261.233 179.048C271.868 168.007 280.354 155.445 288.613 142.73C289.941 140.685 291.041 138.291 291.432 135.932C292.672 128.554 289.752 122.512 284.605 117.122Z" fill="url(#paint10_linear_402_1952)"/>
<path d="M15.2 394.47H6.68345L5.19103 397.942C4.82333 398.796 4.63948 399.434 4.63948 399.856C4.63948 400.191 4.79629 400.489 5.10992 400.748C5.43436 400.997 6.12649 401.159 7.18633 401.235V401.835H0.259551V401.235C1.1788 401.073 1.7736 400.862 2.04397 400.602C2.59551 400.083 3.20654 399.029 3.87705 397.439L11.6149 379.335H12.1827L19.8395 397.633C20.4559 399.104 21.0128 400.061 21.5103 400.505C22.0186 400.937 22.7216 401.181 23.6192 401.235V401.835H14.9404V401.235C15.8164 401.191 16.4058 401.045 16.7086 400.797C17.0222 400.548 17.1791 400.245 17.1791 399.888C17.1791 399.412 16.9628 398.661 16.5302 397.633L15.2 394.47ZM14.7458 393.27L11.0147 384.38L7.18633 393.27H14.7458ZM29.378 389.685C31.1191 387.587 32.7792 386.538 34.3581 386.538C35.1692 386.538 35.8668 386.743 36.4507 387.154C37.0347 387.554 37.4998 388.219 37.8458 389.149C38.0838 389.798 38.2027 390.793 38.2027 392.134V398.477C38.2027 399.418 38.2784 400.056 38.4298 400.391C38.5488 400.662 38.738 400.872 38.9976 401.024C39.268 401.175 39.76 401.251 40.4738 401.251V401.835H33.1252V401.251H33.4335C34.1256 401.251 34.6068 401.148 34.8772 400.943C35.1584 400.726 35.3531 400.413 35.4612 400.002C35.5045 399.84 35.5261 399.331 35.5261 398.477V392.394C35.5261 391.042 35.3476 390.063 34.9908 389.458C34.6447 388.841 34.0553 388.533 33.2226 388.533C31.9356 388.533 30.6541 389.236 29.378 390.642V398.477C29.378 399.483 29.4374 400.105 29.5564 400.343C29.7078 400.656 29.9133 400.889 30.1728 401.04C30.4432 401.181 30.9839 401.251 31.795 401.251V401.835H24.4465V401.251H24.7709C25.528 401.251 26.0362 401.062 26.2958 400.683C26.5662 400.294 26.7013 399.558 26.7013 398.477V392.962C26.7013 391.177 26.6581 390.09 26.5716 389.701C26.4959 389.312 26.3715 389.047 26.1985 388.906C26.0362 388.765 25.8145 388.695 25.5334 388.695C25.2306 388.695 24.8683 388.776 24.4465 388.939L24.2032 388.355L28.6804 386.538H29.378V389.685ZM54.2787 396.19C53.8785 398.147 53.0945 399.656 51.9265 400.716C50.7585 401.765 49.4662 402.289 48.0494 402.289C46.3624 402.289 44.8916 401.581 43.6371 400.164C42.3826 398.747 41.7553 396.833 41.7553 394.422C41.7553 392.086 42.4475 390.188 43.8317 388.728C45.2268 387.268 46.8977 386.538 48.8443 386.538C50.3043 386.538 51.5047 386.927 52.4456 387.706C53.3865 388.473 53.8569 389.274 53.8569 390.106C53.8569 390.517 53.7217 390.853 53.4514 391.112C53.1918 391.361 52.8241 391.485 52.3483 391.485C51.7102 391.485 51.2289 391.28 50.9045 390.869C50.7207 390.642 50.5963 390.209 50.5314 389.571C50.4773 388.933 50.261 388.446 49.8825 388.111C49.504 387.787 48.9795 387.625 48.309 387.625C47.2275 387.625 46.357 388.025 45.6973 388.825C44.8213 389.885 44.3833 391.285 44.3833 393.026C44.3833 394.8 44.8159 396.368 45.681 397.731C46.557 399.083 47.7358 399.759 49.2174 399.759C50.2773 399.759 51.2289 399.396 52.0725 398.672C52.6673 398.174 53.2459 397.271 53.8082 395.963L54.2787 396.19ZM60.1997 378.767C60.6539 378.767 61.0378 378.93 61.3514 379.254C61.6759 379.568 61.8381 379.952 61.8381 380.406C61.8381 380.86 61.6759 381.249 61.3514 381.574C61.0378 381.898 60.6539 382.06 60.1997 382.06C59.7455 382.06 59.3561 381.898 59.0317 381.574C58.7073 381.249 58.545 380.86 58.545 380.406C58.545 379.952 58.7019 379.568 59.0155 379.254C59.3399 378.93 59.7347 378.767 60.1997 378.767ZM61.5461 386.538V398.477C61.5461 399.407 61.611 400.029 61.7408 400.343C61.8814 400.645 62.0814 400.872 62.341 401.024C62.6114 401.175 63.098 401.251 63.801 401.251V401.835H56.5822V401.251C57.3068 401.251 57.7934 401.181 58.0422 401.04C58.2909 400.899 58.4856 400.667 58.6262 400.343C58.7776 400.018 58.8533 399.396 58.8533 398.477V392.751C58.8533 391.139 58.8046 390.096 58.7073 389.62C58.6316 389.274 58.5126 389.036 58.3504 388.906C58.1882 388.765 57.9665 388.695 57.6853 388.695C57.3825 388.695 57.0148 388.776 56.5822 388.939L56.3551 388.355L60.8323 386.538H61.5461ZM68.1647 392.572C68.1539 394.778 68.6892 396.509 69.7706 397.763C70.8521 399.018 72.1228 399.645 73.5828 399.645C74.5561 399.645 75.3997 399.38 76.1134 398.85C76.838 398.309 77.4436 397.39 77.9303 396.092L78.4332 396.417C78.2061 397.898 77.5464 399.25 76.4541 400.472C75.3618 401.684 73.9938 402.289 72.3499 402.289C70.5655 402.289 69.0353 401.597 67.7591 400.213C66.4938 398.818 65.8612 396.947 65.8612 394.6C65.8612 392.059 66.51 390.079 67.8078 388.663C69.1164 387.235 70.7548 386.521 72.723 386.521C74.3885 386.521 75.7566 387.073 76.8272 388.176C77.8979 389.268 78.4332 390.734 78.4332 392.572H68.1647ZM68.1647 391.631H75.0428C74.9887 390.68 74.8752 390.009 74.7021 389.62C74.4318 389.014 74.0262 388.538 73.4855 388.192C72.9556 387.846 72.3986 387.673 71.8146 387.673C70.917 387.673 70.1113 388.025 69.3975 388.728C68.6946 389.42 68.2836 390.388 68.1647 391.631ZM84.7597 389.685C86.5009 387.587 88.1609 386.538 89.7399 386.538C90.551 386.538 91.2485 386.743 91.8325 387.154C92.4165 387.554 92.8815 388.219 93.2276 389.149C93.4655 389.798 93.5845 390.793 93.5845 392.134V398.477C93.5845 399.418 93.6602 400.056 93.8116 400.391C93.9305 400.662 94.1198 400.872 94.3794 401.024C94.6497 401.175 95.1418 401.251 95.8556 401.251V401.835H88.507V401.251H88.8152C89.5074 401.251 89.9886 401.148 90.259 400.943C90.5402 400.726 90.7348 400.413 90.843 400.002C90.8862 399.84 90.9079 399.331 90.9079 398.477V392.394C90.9079 391.042 90.7294 390.063 90.3725 389.458C90.0265 388.841 89.4371 388.533 88.6043 388.533C87.3174 388.533 86.0359 389.236 84.7597 390.642V398.477C84.7597 399.483 84.8192 400.105 84.9382 400.343C85.0896 400.656 85.2951 400.889 85.5546 401.04C85.825 401.181 86.3657 401.251 87.1768 401.251V401.835H79.8283V401.251H80.1527C80.9097 401.251 81.418 401.062 81.6776 400.683C81.9479 400.294 82.0831 399.558 82.0831 398.477V392.962C82.0831 391.177 82.0399 390.09 81.9533 389.701C81.8776 389.312 81.7533 389.047 81.5802 388.906C81.418 388.765 81.1963 388.695 80.9151 388.695C80.6123 388.695 80.25 388.776 79.8283 388.939L79.5849 388.355L84.0622 386.538H84.7597V389.685ZM101.355 382.093V386.976H104.826V388.111H101.355V397.747C101.355 398.71 101.49 399.358 101.76 399.694C102.042 400.029 102.398 400.197 102.831 400.197C103.188 400.197 103.534 400.088 103.869 399.872C104.204 399.645 104.464 399.315 104.648 398.883H105.281C104.902 399.942 104.367 400.743 103.675 401.283C102.982 401.813 102.269 402.078 101.533 402.078C101.036 402.078 100.549 401.943 100.073 401.673C99.5974 401.392 99.2459 400.997 99.0188 400.489C98.7917 399.969 98.6782 399.175 98.6782 398.104V388.111H96.326V387.576C96.9208 387.338 97.5264 386.938 98.1429 386.375C98.7701 385.802 99.3271 385.126 99.8137 384.348C100.062 383.937 100.409 383.185 100.852 382.093H101.355ZM128.9 390.609C130.425 390.934 131.565 391.453 132.323 392.167C133.372 393.162 133.896 394.378 133.896 395.817C133.896 396.909 133.55 397.958 132.858 398.964C132.166 399.959 131.214 400.689 130.003 401.154C128.802 401.608 126.964 401.835 124.487 401.835H114.105V401.235H114.933C115.852 401.235 116.512 400.943 116.912 400.359C117.16 399.98 117.285 399.175 117.285 397.942V383.731C117.285 382.369 117.128 381.509 116.814 381.152C116.393 380.676 115.765 380.438 114.933 380.438H114.105V379.838H123.611C125.385 379.838 126.807 379.968 127.878 380.227C129.5 380.617 130.738 381.309 131.593 382.304C132.447 383.288 132.874 384.423 132.874 385.71C132.874 386.813 132.539 387.803 131.868 388.679C131.198 389.544 130.208 390.188 128.9 390.609ZM120.399 389.733C120.8 389.809 121.254 389.869 121.762 389.912C122.281 389.944 122.849 389.96 123.465 389.96C125.044 389.96 126.228 389.793 127.018 389.458C127.818 389.112 128.429 388.587 128.851 387.884C129.273 387.181 129.484 386.413 129.484 385.581C129.484 384.294 128.959 383.196 127.91 382.288C126.861 381.379 125.331 380.925 123.319 380.925C122.238 380.925 121.265 381.044 120.399 381.282V389.733ZM120.399 400.245C121.654 400.537 122.892 400.683 124.114 400.683C126.072 400.683 127.564 400.245 128.591 399.369C129.619 398.482 130.133 397.39 130.133 396.092C130.133 395.238 129.9 394.416 129.435 393.627C128.97 392.837 128.213 392.215 127.164 391.761C126.115 391.307 124.817 391.08 123.271 391.08C122.6 391.08 122.027 391.091 121.551 391.112C121.075 391.134 120.691 391.172 120.399 391.226V400.245ZM144.019 386.538C146.268 386.538 148.074 387.392 149.437 389.101C150.594 390.561 151.172 392.237 151.172 394.13C151.172 395.46 150.853 396.806 150.215 398.169C149.577 399.531 148.696 400.559 147.571 401.251C146.457 401.943 145.214 402.289 143.84 402.289C141.601 402.289 139.822 401.397 138.503 399.613C137.389 398.109 136.832 396.422 136.832 394.551C136.832 393.189 137.167 391.837 137.838 390.496C138.519 389.144 139.412 388.149 140.515 387.511C141.618 386.862 142.786 386.538 144.019 386.538ZM143.516 387.592C142.942 387.592 142.364 387.765 141.78 388.111C141.207 388.446 140.742 389.041 140.385 389.896C140.028 390.75 139.85 391.848 139.85 393.189C139.85 395.352 140.277 397.217 141.131 398.785C141.996 400.353 143.132 401.137 144.538 401.137C145.587 401.137 146.452 400.705 147.133 399.84C147.814 398.974 148.155 397.487 148.155 395.379C148.155 392.74 147.587 390.663 146.452 389.149C145.684 388.111 144.705 387.592 143.516 387.592ZM160.63 386.538C162.879 386.538 164.685 387.392 166.048 389.101C167.205 390.561 167.784 392.237 167.784 394.13C167.784 395.46 167.465 396.806 166.827 398.169C166.189 399.531 165.307 400.559 164.182 401.251C163.069 401.943 161.825 402.289 160.451 402.289C158.213 402.289 156.434 401.397 155.114 399.613C154 398.109 153.444 396.422 153.444 394.551C153.444 393.189 153.779 391.837 154.449 390.496C155.131 389.144 156.023 388.149 157.126 387.511C158.229 386.862 159.397 386.538 160.63 386.538ZM160.127 387.592C159.554 387.592 158.975 387.765 158.391 388.111C157.818 388.446 157.353 389.041 156.996 389.896C156.639 390.75 156.461 391.848 156.461 393.189C156.461 395.352 156.888 397.217 157.742 398.785C158.608 400.353 159.743 401.137 161.149 401.137C162.198 401.137 163.063 400.705 163.744 399.84C164.426 398.974 164.766 397.487 164.766 395.379C164.766 392.74 164.199 390.663 163.063 389.149C162.295 388.111 161.317 387.592 160.127 387.592ZM174.37 378.767V393.546L178.15 390.106C178.95 389.371 179.415 388.906 179.545 388.711C179.631 388.582 179.674 388.452 179.674 388.322C179.674 388.106 179.582 387.922 179.399 387.771C179.226 387.608 178.934 387.516 178.523 387.495V386.976H184.979V387.495C184.092 387.516 183.351 387.652 182.757 387.9C182.173 388.149 181.529 388.592 180.826 389.23L177.014 392.751L180.826 397.569C181.886 398.899 182.6 399.742 182.967 400.099C183.487 400.607 183.941 400.937 184.33 401.089C184.6 401.197 185.071 401.251 185.741 401.251V401.835H178.523V401.251C178.934 401.24 179.209 401.181 179.35 401.073C179.501 400.954 179.577 400.791 179.577 400.586C179.577 400.337 179.361 399.937 178.928 399.385L174.37 393.562V398.493C174.37 399.456 174.435 400.088 174.565 400.391C174.705 400.694 174.9 400.91 175.148 401.04C175.397 401.17 175.938 401.24 176.771 401.251V401.835H169.211V401.251C169.968 401.251 170.536 401.159 170.915 400.975C171.142 400.856 171.315 400.672 171.434 400.424C171.596 400.067 171.677 399.45 171.677 398.574V385.045C171.677 383.326 171.639 382.277 171.563 381.898C171.488 381.509 171.363 381.244 171.19 381.103C171.017 380.952 170.79 380.876 170.509 380.876C170.282 380.876 169.941 380.968 169.487 381.152L169.211 380.584L173.624 378.767H174.37ZM196.188 386.538V391.599H195.653C195.242 390.009 194.712 388.928 194.063 388.355C193.425 387.781 192.609 387.495 191.614 387.495C190.857 387.495 190.246 387.695 189.781 388.095C189.316 388.495 189.083 388.939 189.083 389.425C189.083 390.031 189.256 390.55 189.602 390.982C189.938 391.426 190.619 391.896 191.646 392.394L194.015 393.546C196.21 394.616 197.308 396.027 197.308 397.779C197.308 399.131 196.794 400.224 195.767 401.056C194.75 401.878 193.609 402.289 192.344 402.289C191.435 402.289 190.397 402.127 189.229 401.803C188.872 401.694 188.58 401.64 188.353 401.64C188.104 401.64 187.91 401.781 187.769 402.062H187.234V396.757H187.769C188.072 398.272 188.651 399.412 189.505 400.18C190.359 400.948 191.316 401.332 192.376 401.332C193.122 401.332 193.728 401.116 194.193 400.683C194.669 400.24 194.907 399.71 194.907 399.093C194.907 398.347 194.642 397.72 194.112 397.212C193.593 396.703 192.549 396.06 190.981 395.281C189.413 394.503 188.386 393.8 187.899 393.172C187.412 392.556 187.169 391.777 187.169 390.836C187.169 389.614 187.585 388.592 188.418 387.771C189.262 386.949 190.348 386.538 191.679 386.538C192.263 386.538 192.971 386.662 193.804 386.911C194.355 387.073 194.723 387.154 194.907 387.154C195.08 387.154 195.215 387.116 195.312 387.041C195.41 386.965 195.523 386.797 195.653 386.538H196.188ZM215.103 386.538C217.353 386.538 219.159 387.392 220.521 389.101C221.678 390.561 222.257 392.237 222.257 394.13C222.257 395.46 221.938 396.806 221.3 398.169C220.662 399.531 219.781 400.559 218.656 401.251C217.542 401.943 216.298 402.289 214.925 402.289C212.686 402.289 210.907 401.397 209.588 399.613C208.474 398.109 207.917 396.422 207.917 394.551C207.917 393.189 208.252 391.837 208.923 390.496C209.604 389.144 210.496 388.149 211.599 387.511C212.702 386.862 213.87 386.538 215.103 386.538ZM214.6 387.592C214.027 387.592 213.449 387.765 212.865 388.111C212.291 388.446 211.826 389.041 211.469 389.896C211.113 390.75 210.934 391.848 210.934 393.189C210.934 395.352 211.361 397.217 212.216 398.785C213.081 400.353 214.216 401.137 215.622 401.137C216.671 401.137 217.536 400.705 218.218 399.84C218.899 398.974 219.24 397.487 219.24 395.379C219.24 392.74 218.672 390.663 217.536 389.149C216.769 388.111 215.79 387.592 214.6 387.592ZM230.254 388.144V397.909C230.254 399.294 230.406 400.17 230.709 400.537C231.109 401.013 231.644 401.251 232.315 401.251H233.661V401.835H224.788V401.251H225.453C225.885 401.251 226.28 401.143 226.637 400.927C226.994 400.71 227.237 400.418 227.367 400.051C227.508 399.683 227.578 398.969 227.578 397.909V388.144H224.69V386.976H227.578V386.002C227.578 384.521 227.816 383.266 228.292 382.239C228.767 381.211 229.492 380.384 230.465 379.757C231.45 379.119 232.553 378.8 233.775 378.8C234.91 378.8 235.954 379.167 236.905 379.903C237.533 380.39 237.846 380.936 237.846 381.541C237.846 381.866 237.706 382.174 237.425 382.466C237.143 382.747 236.841 382.888 236.516 382.888C236.267 382.888 236.002 382.801 235.721 382.628C235.451 382.444 235.116 382.06 234.716 381.476C234.315 380.882 233.948 380.481 233.612 380.276C233.277 380.07 232.904 379.968 232.493 379.968C231.996 379.968 231.574 380.103 231.228 380.373C230.882 380.633 230.633 381.044 230.482 381.606C230.33 382.158 230.254 383.591 230.254 385.905V386.976H234.083V388.144H230.254ZM256.372 401.835L247.872 383.326V398.023C247.872 399.375 248.018 400.218 248.31 400.553C248.71 401.008 249.342 401.235 250.208 401.235H250.986V401.835H243.329V401.235H244.108C245.038 401.235 245.698 400.954 246.087 400.391C246.325 400.045 246.444 399.256 246.444 398.023V383.65C246.444 382.677 246.336 381.974 246.12 381.541C245.968 381.228 245.687 380.968 245.276 380.763C244.876 380.546 244.227 380.438 243.329 380.438V379.838H249.559L257.54 397.049L265.391 379.838H271.62V380.438H270.858C269.917 380.438 269.252 380.719 268.863 381.282C268.625 381.628 268.506 382.417 268.506 383.65V398.023C268.506 399.375 268.657 400.218 268.96 400.553C269.36 401.008 269.993 401.235 270.858 401.235H271.62V401.835H262.277V401.235H263.055C263.996 401.235 264.656 400.954 265.034 400.391C265.272 400.045 265.391 399.256 265.391 398.023V383.326L256.907 401.835H256.372ZM272.529 386.976H279.456V387.576H279.115C278.628 387.576 278.261 387.684 278.012 387.9C277.774 388.106 277.655 388.365 277.655 388.679C277.655 389.101 277.834 389.685 278.19 390.431L281.808 397.925L285.133 389.717C285.317 389.274 285.409 388.836 285.409 388.403C285.409 388.209 285.371 388.063 285.296 387.965C285.209 387.846 285.074 387.754 284.89 387.689C284.706 387.614 284.382 387.576 283.917 387.576V386.976H288.751V387.576C288.351 387.619 288.043 387.706 287.826 387.835C287.61 387.965 287.372 388.209 287.112 388.565C287.015 388.717 286.831 389.133 286.561 389.814L280.51 404.641C279.926 406.08 279.158 407.167 278.207 407.902C277.266 408.637 276.357 409.005 275.481 409.005C274.843 409.005 274.319 408.821 273.908 408.454C273.497 408.086 273.291 407.664 273.291 407.188C273.291 406.734 273.437 406.366 273.729 406.085C274.032 405.815 274.443 405.68 274.962 405.68C275.319 405.68 275.806 405.799 276.422 406.036C276.855 406.199 277.125 406.28 277.233 406.28C277.558 406.28 277.909 406.112 278.288 405.777C278.677 405.442 279.066 404.793 279.456 403.83L280.51 401.251L275.173 390.042C275.011 389.706 274.751 389.29 274.394 388.793C274.124 388.414 273.902 388.16 273.729 388.03C273.481 387.857 273.08 387.706 272.529 387.576V386.976ZM294.299 382.093V386.976H297.77V388.111H294.299V397.747C294.299 398.71 294.434 399.358 294.704 399.694C294.986 400.029 295.342 400.197 295.775 400.197C296.132 400.197 296.478 400.088 296.813 399.872C297.148 399.645 297.408 399.315 297.592 398.883H298.224C297.846 399.942 297.311 400.743 296.619 401.283C295.926 401.813 295.213 402.078 294.477 402.078C293.98 402.078 293.493 401.943 293.017 401.673C292.541 401.392 292.19 400.997 291.963 400.489C291.736 399.969 291.622 399.175 291.622 398.104V388.111H289.27V387.576C289.865 387.338 290.47 386.938 291.087 386.375C291.714 385.802 292.271 385.126 292.758 384.348C293.006 383.937 293.352 383.185 293.796 382.093H294.299ZM303.594 378.767V389.636C304.794 388.317 305.746 387.473 306.449 387.105C307.152 386.727 307.855 386.538 308.558 386.538C309.401 386.538 310.126 386.77 310.732 387.235C311.337 387.7 311.786 388.43 312.078 389.425C312.284 390.117 312.386 391.383 312.386 393.221V398.477C312.386 399.418 312.462 400.061 312.613 400.407C312.722 400.667 312.905 400.872 313.165 401.024C313.424 401.175 313.9 401.251 314.592 401.251V401.835H307.293V401.251H307.633C308.325 401.251 308.807 401.148 309.077 400.943C309.347 400.726 309.537 400.413 309.645 400.002C309.677 399.829 309.693 399.321 309.693 398.477V393.221C309.693 391.599 309.607 390.534 309.434 390.025C309.272 389.517 309.007 389.139 308.639 388.89C308.271 388.63 307.828 388.501 307.309 388.501C306.779 388.501 306.227 388.641 305.654 388.922C305.081 389.203 304.394 389.771 303.594 390.626V398.477C303.594 399.494 303.648 400.126 303.756 400.375C303.875 400.624 304.086 400.835 304.389 401.008C304.702 401.17 305.238 401.251 305.995 401.251V401.835H298.63V401.251C299.29 401.251 299.809 401.148 300.187 400.943C300.404 400.835 300.577 400.629 300.706 400.326C300.836 400.024 300.901 399.407 300.901 398.477V385.029C300.901 383.331 300.858 382.288 300.771 381.898C300.696 381.509 300.571 381.244 300.398 381.103C300.236 380.963 300.014 380.892 299.733 380.892C299.506 380.892 299.138 380.979 298.63 381.152L298.403 380.584L302.848 378.767H303.594ZM323.109 386.538C325.358 386.538 327.164 387.392 328.527 389.101C329.684 390.561 330.263 392.237 330.263 394.13C330.263 395.46 329.944 396.806 329.306 398.169C328.668 399.531 327.786 400.559 326.662 401.251C325.548 401.943 324.304 402.289 322.931 402.289C320.692 402.289 318.913 401.397 317.594 399.613C316.48 398.109 315.923 396.422 315.923 394.551C315.923 393.189 316.258 391.837 316.928 390.496C317.61 389.144 318.502 388.149 319.605 387.511C320.708 386.862 321.876 386.538 323.109 386.538ZM322.606 387.592C322.033 387.592 321.454 387.765 320.87 388.111C320.297 388.446 319.832 389.041 319.475 389.896C319.118 390.75 318.94 391.848 318.94 393.189C318.94 395.352 319.367 397.217 320.221 398.785C321.087 400.353 322.222 401.137 323.628 401.137C324.677 401.137 325.542 400.705 326.224 399.84C326.905 398.974 327.246 397.487 327.246 395.379C327.246 392.74 326.678 390.663 325.542 389.149C324.774 388.111 323.796 387.592 322.606 387.592ZM337.563 378.767V398.477C337.563 399.407 337.628 400.024 337.757 400.326C337.898 400.629 338.109 400.862 338.39 401.024C338.671 401.175 339.196 401.251 339.964 401.251V401.835H332.68V401.251C333.361 401.251 333.826 401.181 334.075 401.04C334.324 400.899 334.518 400.667 334.659 400.343C334.8 400.018 334.87 399.396 334.87 398.477V384.98C334.87 383.304 334.832 382.277 334.756 381.898C334.681 381.509 334.556 381.244 334.383 381.103C334.221 380.963 334.01 380.892 333.751 380.892C333.469 380.892 333.113 380.979 332.68 381.152L332.404 380.584L336.833 378.767H337.563ZM348.967 386.538C351.216 386.538 353.022 387.392 354.385 389.101C355.542 390.561 356.121 392.237 356.121 394.13C356.121 395.46 355.802 396.806 355.164 398.169C354.526 399.531 353.644 400.559 352.519 401.251C351.405 401.943 350.162 402.289 348.788 402.289C346.55 402.289 344.771 401.397 343.451 399.613C342.337 398.109 341.78 396.422 341.78 394.551C341.78 393.189 342.116 391.837 342.786 390.496C343.468 389.144 344.36 388.149 345.463 387.511C346.566 386.862 347.734 386.538 348.967 386.538ZM348.464 387.592C347.891 387.592 347.312 387.765 346.728 388.111C346.155 388.446 345.69 389.041 345.333 389.896C344.976 390.75 344.798 391.848 344.798 393.189C344.798 395.352 345.225 397.217 346.079 398.785C346.944 400.353 348.08 401.137 349.486 401.137C350.535 401.137 351.4 400.705 352.081 399.84C352.763 398.974 353.103 397.487 353.103 395.379C353.103 392.74 352.536 390.663 351.4 389.149C350.632 388.111 349.654 387.592 348.464 387.592ZM362.285 396.417C361.377 395.973 360.679 395.357 360.192 394.568C359.706 393.767 359.462 392.886 359.462 391.923C359.462 390.453 360.014 389.187 361.117 388.127C362.231 387.068 363.653 386.538 365.383 386.538C366.8 386.538 368.028 386.884 369.066 387.576H372.213C372.678 387.576 372.948 387.592 373.024 387.625C373.1 387.646 373.154 387.689 373.186 387.754C373.251 387.852 373.284 388.025 373.284 388.273C373.284 388.555 373.256 388.749 373.202 388.857C373.17 388.911 373.11 388.955 373.024 388.987C372.948 389.02 372.678 389.036 372.213 389.036H370.282C370.888 389.814 371.191 390.809 371.191 392.021C371.191 393.405 370.661 394.589 369.601 395.573C368.541 396.557 367.119 397.049 365.335 397.049C364.599 397.049 363.848 396.941 363.08 396.725C362.604 397.136 362.28 397.498 362.107 397.812C361.944 398.115 361.863 398.374 361.863 398.591C361.863 398.774 361.95 398.953 362.123 399.126C362.307 399.299 362.658 399.423 363.177 399.499C363.48 399.542 364.237 399.58 365.448 399.613C367.676 399.667 369.12 399.742 369.78 399.84C370.785 399.98 371.586 400.353 372.18 400.959C372.786 401.565 373.089 402.311 373.089 403.198C373.089 404.42 372.516 405.566 371.369 406.637C369.682 408.216 367.481 409.005 364.767 409.005C362.68 409.005 360.917 408.535 359.479 407.594C358.668 407.053 358.262 406.491 358.262 405.907C358.262 405.647 358.321 405.388 358.44 405.128C358.624 404.728 359.003 404.171 359.576 403.457C359.652 403.36 360.203 402.776 361.231 401.705C360.668 401.37 360.268 401.073 360.03 400.813C359.803 400.543 359.69 400.24 359.69 399.905C359.69 399.526 359.841 399.083 360.144 398.574C360.457 398.066 361.171 397.347 362.285 396.417ZM365.108 387.316C364.307 387.316 363.637 387.635 363.096 388.273C362.555 388.911 362.285 389.89 362.285 391.21C362.285 392.918 362.653 394.243 363.388 395.184C363.95 395.898 364.664 396.255 365.529 396.255C366.351 396.255 367.027 395.946 367.557 395.33C368.087 394.714 368.352 393.746 368.352 392.426C368.352 390.707 367.979 389.36 367.233 388.387C366.681 387.673 365.973 387.316 365.108 387.316ZM362.123 401.835C361.615 402.387 361.231 402.9 360.971 403.376C360.711 403.852 360.582 404.29 360.582 404.69C360.582 405.209 360.895 405.663 361.523 406.053C362.604 406.723 364.167 407.058 366.211 407.058C368.157 407.058 369.59 406.712 370.51 406.02C371.44 405.339 371.905 404.609 371.905 403.83C371.905 403.268 371.629 402.868 371.077 402.63C370.515 402.392 369.401 402.251 367.736 402.208C365.302 402.143 363.431 402.019 362.123 401.835ZM374.078 386.976H381.005V387.576H380.665C380.178 387.576 379.81 387.684 379.561 387.9C379.323 388.106 379.205 388.365 379.205 388.679C379.205 389.101 379.383 389.685 379.74 390.431L383.357 397.925L386.683 389.717C386.867 389.274 386.959 388.836 386.959 388.403C386.959 388.209 386.921 388.063 386.845 387.965C386.759 387.846 386.623 387.754 386.44 387.689C386.256 387.614 385.931 387.576 385.466 387.576V386.976H390.3V387.576C389.9 387.619 389.592 387.706 389.376 387.835C389.159 387.965 388.921 388.209 388.662 388.565C388.565 388.717 388.381 389.133 388.11 389.814L382.06 404.641C381.476 406.08 380.708 407.167 379.756 407.902C378.815 408.637 377.907 409.005 377.031 409.005C376.393 409.005 375.868 408.821 375.457 408.454C375.046 408.086 374.841 407.664 374.841 407.188C374.841 406.734 374.987 406.366 375.279 406.085C375.582 405.815 375.993 405.68 376.512 405.68C376.869 405.68 377.355 405.799 377.972 406.036C378.404 406.199 378.675 406.28 378.783 406.28C379.107 406.28 379.459 406.112 379.837 405.777C380.227 405.442 380.616 404.793 381.005 403.83L382.06 401.251L376.723 390.042C376.56 389.706 376.301 389.29 375.944 388.793C375.674 388.414 375.452 388.16 375.279 388.03C375.03 387.857 374.63 387.706 374.078 387.576V386.976Z" fill="#D1B764"/>
<path d="M52.0017 418.5L52.5046 425.978H52.0017C51.3312 423.74 50.3741 422.128 49.1304 421.144C47.8867 420.16 46.3943 419.668 44.6531 419.668C43.1932 419.668 41.8738 420.041 40.695 420.787C39.5162 421.523 38.5861 422.702 37.9048 424.324C37.2343 425.946 36.899 427.963 36.899 430.375C36.899 432.365 37.2181 434.089 37.8561 435.549C38.4942 437.009 39.4513 438.129 40.7274 438.907C42.0144 439.686 43.4797 440.075 45.1236 440.075C46.5511 440.075 47.811 439.773 48.9033 439.167C49.9956 438.55 51.196 437.334 52.5046 435.517L53.0074 435.841C51.9043 437.799 50.6174 439.232 49.1466 440.14C47.6758 441.049 45.9293 441.503 43.9069 441.503C40.2624 441.503 37.4398 440.151 35.4391 437.447C33.9466 435.436 33.2004 433.067 33.2004 430.342C33.2004 428.147 33.6925 426.13 34.6766 424.291C35.6608 422.453 37.0126 421.031 38.7321 420.025C40.4625 419.008 42.3496 418.5 44.3936 418.5C45.9833 418.5 47.5515 418.889 49.0979 419.668C49.5522 419.906 49.8766 420.025 50.0713 420.025C50.3633 420.025 50.6174 419.922 50.8337 419.717C51.1149 419.425 51.3149 419.019 51.4339 418.5H52.0017ZM59.5611 417.932V428.801C60.7615 427.482 61.7132 426.638 62.4162 426.27C63.1191 425.892 63.8221 425.703 64.525 425.703C65.3686 425.703 66.0932 425.935 66.6988 426.4C67.3044 426.865 67.7532 427.595 68.0452 428.59C68.2507 429.282 68.3534 430.548 68.3534 432.386V437.642C68.3534 438.583 68.4291 439.226 68.5805 439.572C68.6887 439.832 68.8725 440.037 69.1321 440.189C69.3916 440.34 69.8675 440.416 70.5596 440.416V441H63.2597V440.416H63.6004C64.2925 440.416 64.7738 440.313 65.0441 440.108C65.3145 439.891 65.5038 439.578 65.6119 439.167C65.6443 438.994 65.6606 438.486 65.6606 437.642V432.386C65.6606 430.764 65.574 429.699 65.401 429.19C65.2388 428.682 64.9738 428.304 64.6061 428.055C64.2384 427.795 63.795 427.666 63.2759 427.666C62.746 427.666 62.1945 427.806 61.6213 428.087C61.0481 428.369 60.3614 428.936 59.5611 429.791V437.642C59.5611 438.659 59.6152 439.291 59.7233 439.54C59.8423 439.789 60.0532 440 60.356 440.173C60.6696 440.335 61.2049 440.416 61.962 440.416V441H54.5972V440.416C55.2569 440.416 55.776 440.313 56.1545 440.108C56.3708 440 56.5438 439.794 56.6736 439.491C56.8034 439.189 56.8683 438.572 56.8683 437.642V424.194C56.8683 422.496 56.825 421.453 56.7385 421.063C56.6628 420.674 56.5384 420.409 56.3654 420.268C56.2032 420.128 55.9815 420.057 55.7003 420.057C55.4732 420.057 55.1055 420.144 54.5972 420.317L54.3701 419.749L58.8149 417.932H59.5611ZM75.5884 417.932C76.0426 417.932 76.4265 418.095 76.7402 418.419C77.0646 418.733 77.2268 419.117 77.2268 419.571C77.2268 420.025 77.0646 420.414 76.7402 420.739C76.4265 421.063 76.0426 421.225 75.5884 421.225C75.1342 421.225 74.7449 421.063 74.4204 420.739C74.096 420.414 73.9338 420.025 73.9338 419.571C73.9338 419.117 74.0906 418.733 74.4042 418.419C74.7286 418.095 75.1234 417.932 75.5884 417.932ZM76.9348 425.703V437.642C76.9348 438.572 76.9997 439.194 77.1295 439.508C77.2701 439.81 77.4702 440.037 77.7297 440.189C78.0001 440.34 78.4867 440.416 79.1897 440.416V441H71.9709V440.416C72.6955 440.416 73.1821 440.346 73.4309 440.205C73.6796 440.065 73.8743 439.832 74.0149 439.508C74.1663 439.183 74.242 438.561 74.242 437.642V431.916C74.242 430.304 74.1933 429.261 74.096 428.785C74.0203 428.439 73.9013 428.201 73.7391 428.071C73.5769 427.931 73.3552 427.86 73.074 427.86C72.7712 427.86 72.4035 427.941 71.9709 428.104L71.7438 427.52L76.2211 425.703H76.9348ZM83.5534 431.737C83.5426 433.943 84.0779 435.674 85.1594 436.928C86.2408 438.183 87.5115 438.81 88.9715 438.81C89.9448 438.81 90.7884 438.545 91.5021 438.015C92.2267 437.474 92.8323 436.555 93.319 435.257L93.8219 435.582C93.5948 437.063 92.9351 438.415 91.8428 439.637C90.7505 440.849 89.3825 441.454 87.7387 441.454C85.9542 441.454 84.424 440.762 83.1478 439.378C81.8825 437.983 81.2499 436.112 81.2499 433.765C81.2499 431.224 81.8987 429.244 83.1965 427.828C84.5051 426.4 86.1435 425.686 88.1118 425.686C89.7772 425.686 91.1453 426.238 92.2159 427.341C93.2866 428.433 93.8219 429.899 93.8219 431.737H83.5534ZM83.5534 430.796H90.4315C90.3774 429.845 90.2639 429.174 90.0908 428.785C89.8205 428.179 89.4149 427.703 88.8742 427.357C88.3443 427.011 87.7873 426.838 87.2033 426.838C86.3057 426.838 85.5 427.19 84.7863 427.893C84.0833 428.585 83.6723 429.553 83.5534 430.796ZM100.148 428.85C101.89 426.752 103.55 425.703 105.129 425.703C105.94 425.703 106.637 425.908 107.221 426.319C107.805 426.719 108.27 427.384 108.616 428.314C108.854 428.963 108.973 429.958 108.973 431.299V437.642C108.973 438.583 109.049 439.221 109.2 439.556C109.319 439.827 109.509 440.037 109.768 440.189C110.038 440.34 110.531 440.416 111.244 440.416V441H103.896V440.416H104.204C104.896 440.416 105.377 440.313 105.648 440.108C105.929 439.891 106.124 439.578 106.232 439.167C106.275 439.005 106.297 438.496 106.297 437.642V431.559C106.297 430.207 106.118 429.228 105.761 428.623C105.415 428.006 104.826 427.698 103.993 427.698C102.706 427.698 101.425 428.401 100.148 429.807V437.642C100.148 438.648 100.208 439.27 100.327 439.508C100.478 439.821 100.684 440.054 100.943 440.205C101.214 440.346 101.754 440.416 102.566 440.416V441H95.217V440.416H95.5414C96.2984 440.416 96.8067 440.227 97.0663 439.848C97.3366 439.459 97.4718 438.724 97.4718 437.642V432.127C97.4718 430.342 97.4286 429.255 97.3421 428.866C97.2664 428.477 97.142 428.212 96.9689 428.071C96.8067 427.931 96.585 427.86 96.3038 427.86C96.001 427.86 95.6387 427.941 95.217 428.104L94.9736 427.52L99.4509 425.703H100.148V428.85ZM126.525 429.207H136.745V422.913C136.745 421.788 136.675 421.047 136.534 420.69C136.426 420.42 136.199 420.187 135.853 419.993C135.388 419.733 134.896 419.603 134.377 419.603H133.598V419.003H143.007V419.603H142.228C141.709 419.603 141.217 419.728 140.752 419.976C140.406 420.149 140.168 420.414 140.038 420.771C139.919 421.117 139.86 421.831 139.86 422.913V437.107C139.86 438.221 139.93 438.956 140.071 439.313C140.179 439.583 140.401 439.816 140.736 440.01C141.212 440.27 141.709 440.4 142.228 440.4H143.007V441H133.598V440.4H134.377C135.274 440.4 135.929 440.135 136.34 439.605C136.61 439.259 136.745 438.426 136.745 437.107V430.407H126.525V437.107C126.525 438.221 126.596 438.956 126.736 439.313C126.844 439.583 127.071 439.816 127.418 440.01C127.883 440.27 128.375 440.4 128.894 440.4H129.689V441H120.264V440.4H121.042C121.951 440.4 122.61 440.135 123.021 439.605C123.281 439.259 123.411 438.426 123.411 437.107V422.913C123.411 421.788 123.34 421.047 123.2 420.69C123.092 420.42 122.87 420.187 122.535 419.993C122.059 419.733 121.561 419.603 121.042 419.603H120.264V419.003H129.689V419.603H128.894C128.375 419.603 127.883 419.728 127.418 419.976C127.082 420.149 126.85 420.414 126.72 420.771C126.59 421.117 126.525 421.831 126.525 422.913V429.207ZM157.769 426.141V435.144C157.769 436.863 157.807 437.918 157.882 438.307C157.969 438.686 158.099 438.951 158.272 439.102C158.456 439.253 158.666 439.329 158.904 439.329C159.24 439.329 159.618 439.237 160.04 439.053L160.267 439.621L155.822 441.454H155.092V438.307C153.816 439.691 152.843 440.562 152.172 440.919C151.502 441.276 150.793 441.454 150.047 441.454C149.214 441.454 148.49 441.216 147.873 440.74C147.268 440.254 146.846 439.632 146.608 438.875C146.37 438.118 146.251 437.047 146.251 435.663V429.028C146.251 428.325 146.176 427.839 146.024 427.568C145.873 427.298 145.646 427.092 145.343 426.952C145.051 426.8 144.516 426.73 143.737 426.741V426.141H148.944V436.085C148.944 437.469 149.182 438.377 149.658 438.81C150.145 439.243 150.729 439.459 151.41 439.459C151.875 439.459 152.399 439.313 152.983 439.021C153.578 438.729 154.281 438.172 155.092 437.35V428.931C155.092 428.087 154.935 427.52 154.622 427.228C154.319 426.925 153.681 426.763 152.708 426.741V426.141H157.769ZM165.685 428.85C167.426 426.752 169.086 425.703 170.665 425.703C171.476 425.703 172.174 425.908 172.758 426.319C173.342 426.719 173.807 427.384 174.153 428.314C174.391 428.963 174.51 429.958 174.51 431.299V437.642C174.51 438.583 174.586 439.221 174.737 439.556C174.856 439.827 175.045 440.037 175.305 440.189C175.575 440.34 176.067 440.416 176.781 440.416V441H169.432V440.416H169.741C170.433 440.416 170.914 440.313 171.184 440.108C171.466 439.891 171.66 439.578 171.768 439.167C171.812 439.005 171.833 438.496 171.833 437.642V431.559C171.833 430.207 171.655 429.228 171.298 428.623C170.952 428.006 170.363 427.698 169.53 427.698C168.243 427.698 166.961 428.401 165.685 429.807V437.642C165.685 438.648 165.745 439.27 165.864 439.508C166.015 439.821 166.22 440.054 166.48 440.205C166.75 440.346 167.291 440.416 168.102 440.416V441H160.754V440.416H161.078C161.835 440.416 162.343 440.227 162.603 439.848C162.873 439.459 163.009 438.724 163.009 437.642V432.127C163.009 430.342 162.965 429.255 162.879 428.866C162.803 428.477 162.679 428.212 162.506 428.071C162.343 427.931 162.122 427.86 161.841 427.86C161.538 427.86 161.175 427.941 160.754 428.104L160.51 427.52L164.988 425.703H165.685V428.85ZM181.94 435.582C181.031 435.138 180.334 434.522 179.847 433.733C179.36 432.932 179.117 432.051 179.117 431.088C179.117 429.618 179.668 428.352 180.772 427.292C181.885 426.233 183.308 425.703 185.038 425.703C186.455 425.703 187.682 426.049 188.72 426.741H191.867C192.332 426.741 192.603 426.757 192.679 426.79C192.754 426.811 192.808 426.854 192.841 426.919C192.906 427.017 192.938 427.19 192.938 427.438C192.938 427.72 192.911 427.914 192.857 428.022C192.825 428.077 192.765 428.12 192.679 428.152C192.603 428.185 192.332 428.201 191.867 428.201H189.937C190.543 428.98 190.845 429.974 190.845 431.186C190.845 432.57 190.316 433.754 189.256 434.738C188.196 435.722 186.774 436.215 184.989 436.215C184.254 436.215 183.502 436.106 182.734 435.89C182.259 436.301 181.934 436.663 181.761 436.977C181.599 437.28 181.518 437.539 181.518 437.756C181.518 437.939 181.604 438.118 181.777 438.291C181.961 438.464 182.313 438.588 182.832 438.664C183.135 438.707 183.892 438.745 185.103 438.778C187.331 438.832 188.774 438.907 189.434 439.005C190.44 439.145 191.24 439.518 191.835 440.124C192.441 440.73 192.743 441.476 192.743 442.363C192.743 443.585 192.17 444.731 191.024 445.802C189.337 447.381 187.136 448.17 184.422 448.17C182.334 448.17 180.572 447.7 179.133 446.759C178.322 446.218 177.917 445.656 177.917 445.072C177.917 444.812 177.976 444.553 178.095 444.293C178.279 443.893 178.657 443.336 179.231 442.622C179.306 442.525 179.858 441.941 180.885 440.87C180.323 440.535 179.923 440.238 179.685 439.978C179.458 439.708 179.344 439.405 179.344 439.07C179.344 438.691 179.495 438.248 179.798 437.739C180.112 437.231 180.826 436.512 181.94 435.582ZM184.762 426.481C183.962 426.481 183.291 426.8 182.751 427.438C182.21 428.077 181.94 429.055 181.94 430.375C181.94 432.083 182.307 433.408 183.043 434.349C183.605 435.063 184.319 435.42 185.184 435.42C186.006 435.42 186.682 435.111 187.212 434.495C187.742 433.879 188.007 432.911 188.007 431.591C188.007 429.872 187.633 428.525 186.887 427.552C186.336 426.838 185.627 426.481 184.762 426.481ZM181.777 441C181.269 441.552 180.885 442.065 180.626 442.541C180.366 443.017 180.236 443.455 180.236 443.855C180.236 444.374 180.55 444.828 181.177 445.218C182.259 445.888 183.821 446.223 185.865 446.223C187.812 446.223 189.245 445.877 190.164 445.185C191.094 444.504 191.559 443.774 191.559 442.995C191.559 442.433 191.283 442.033 190.732 441.795C190.17 441.557 189.056 441.416 187.39 441.373C184.957 441.308 183.086 441.184 181.777 441ZM194.885 432.321H203.271V434.771H194.885V432.321ZM204.796 426.141H211.723V426.741H211.382C210.896 426.741 210.528 426.849 210.279 427.065C210.041 427.271 209.922 427.53 209.922 427.844C209.922 428.266 210.101 428.85 210.458 429.596L214.075 437.091L217.401 428.882C217.585 428.439 217.677 428.001 217.677 427.568C217.677 427.374 217.639 427.228 217.563 427.13C217.476 427.011 217.341 426.919 217.157 426.854C216.974 426.779 216.649 426.741 216.184 426.741V426.141H221.018V426.741C220.618 426.784 220.31 426.871 220.094 427C219.877 427.13 219.639 427.374 219.38 427.73C219.283 427.882 219.099 428.298 218.828 428.98L212.778 443.806C212.194 445.245 211.426 446.332 210.474 447.067C209.533 447.802 208.625 448.17 207.749 448.17C207.111 448.17 206.586 447.986 206.175 447.619C205.764 447.251 205.559 446.829 205.559 446.353C205.559 445.899 205.705 445.531 205.997 445.25C206.3 444.98 206.711 444.845 207.23 444.845C207.586 444.845 208.073 444.964 208.69 445.201C209.122 445.364 209.393 445.445 209.501 445.445C209.825 445.445 210.177 445.277 210.555 444.942C210.944 444.607 211.334 443.958 211.723 442.995L212.778 440.416L207.44 429.207C207.278 428.871 207.019 428.455 206.662 427.958C206.391 427.579 206.17 427.325 205.997 427.195C205.748 427.022 205.348 426.871 204.796 426.741V426.141ZM235.277 426.141V435.144C235.277 436.863 235.315 437.918 235.391 438.307C235.477 438.686 235.607 438.951 235.78 439.102C235.964 439.253 236.175 439.329 236.413 439.329C236.748 439.329 237.127 439.237 237.548 439.053L237.776 439.621L233.331 441.454H232.601V438.307C231.325 439.691 230.351 440.562 229.681 440.919C229.01 441.276 228.302 441.454 227.556 441.454C226.723 441.454 225.998 441.216 225.382 440.74C224.776 440.254 224.355 439.632 224.117 438.875C223.879 438.118 223.76 437.047 223.76 435.663V429.028C223.76 428.325 223.684 427.839 223.533 427.568C223.381 427.298 223.154 427.092 222.851 426.952C222.559 426.8 222.024 426.73 221.245 426.741V426.141H226.453V436.085C226.453 437.469 226.691 438.377 227.166 438.81C227.653 439.243 228.237 439.459 228.918 439.459C229.383 439.459 229.908 439.313 230.492 439.021C231.087 438.729 231.79 438.172 232.601 437.35V428.931C232.601 428.087 232.444 427.52 232.13 427.228C231.828 426.925 231.189 426.763 230.216 426.741V426.141H235.277ZM241.685 426.903V426.141C242.799 425.481 243.556 424.865 243.956 424.291C244.237 423.88 244.378 423.388 244.378 422.815C244.378 422.48 244.318 422.231 244.199 422.069C244.07 421.907 243.929 421.826 243.778 421.826C243.659 421.826 243.502 421.863 243.307 421.939C243.026 422.037 242.794 422.085 242.61 422.085C242.177 422.085 241.793 421.923 241.458 421.599C241.123 421.274 240.955 420.869 240.955 420.382C240.955 419.841 241.123 419.419 241.458 419.117C241.912 418.706 242.453 418.5 243.08 418.5C243.805 418.5 244.454 418.808 245.027 419.425C245.611 420.03 245.903 420.787 245.903 421.696C245.903 422.972 245.422 424.135 244.459 425.184C243.821 425.876 242.896 426.449 241.685 426.903ZM257.68 425.703V430.764H257.145C256.734 429.174 256.204 428.093 255.555 427.52C254.917 426.946 254.1 426.66 253.105 426.66C252.348 426.66 251.737 426.86 251.272 427.26C250.807 427.66 250.575 428.104 250.575 428.59C250.575 429.196 250.748 429.715 251.094 430.148C251.429 430.591 252.11 431.061 253.138 431.559L255.506 432.711C257.702 433.781 258.799 435.193 258.799 436.945C258.799 438.296 258.286 439.389 257.258 440.221C256.242 441.043 255.101 441.454 253.835 441.454C252.927 441.454 251.889 441.292 250.721 440.968C250.364 440.859 250.072 440.805 249.845 440.805C249.596 440.805 249.401 440.946 249.261 441.227H248.725V435.923H249.261C249.564 437.437 250.142 438.578 250.996 439.345C251.851 440.113 252.808 440.497 253.868 440.497C254.614 440.497 255.22 440.281 255.685 439.848C256.16 439.405 256.398 438.875 256.398 438.258C256.398 437.512 256.133 436.885 255.603 436.377C255.084 435.868 254.041 435.225 252.473 434.446C250.905 433.668 249.877 432.965 249.39 432.337C248.904 431.721 248.66 430.942 248.66 430.002C248.66 428.779 249.077 427.757 249.91 426.936C250.753 426.114 251.84 425.703 253.17 425.703C253.754 425.703 254.463 425.827 255.295 426.076C255.847 426.238 256.215 426.319 256.398 426.319C256.571 426.319 256.707 426.281 256.804 426.206C256.901 426.13 257.015 425.962 257.145 425.703H257.68ZM275.102 430.699V437.107C275.102 438.491 275.254 439.351 275.557 439.686C275.967 440.162 276.589 440.4 277.422 440.4H278.266V441H268.841V440.4H269.668C270.598 440.4 271.263 440.097 271.663 439.491C271.88 439.156 271.988 438.361 271.988 437.107V422.896C271.988 421.512 271.842 420.652 271.55 420.317C271.128 419.841 270.501 419.603 269.668 419.603H268.841V419.003H276.903C278.871 419.003 280.423 419.209 281.559 419.619C282.694 420.02 283.651 420.701 284.43 421.663C285.209 422.626 285.598 423.767 285.598 425.086C285.598 426.881 285.003 428.341 283.813 429.466C282.635 430.591 280.964 431.153 278.801 431.153C278.271 431.153 277.698 431.115 277.081 431.04C276.465 430.964 275.805 430.85 275.102 430.699ZM275.102 429.774C275.675 429.883 276.184 429.964 276.627 430.018C277.071 430.072 277.449 430.099 277.763 430.099C278.887 430.099 279.855 429.666 280.666 428.801C281.488 427.925 281.899 426.795 281.899 425.411C281.899 424.459 281.705 423.578 281.315 422.767C280.926 421.945 280.374 421.334 279.661 420.933C278.947 420.522 278.136 420.317 277.227 420.317C276.676 420.317 275.967 420.42 275.102 420.625V429.774ZM295.088 425.703C297.337 425.703 299.143 426.557 300.506 428.266C301.663 429.726 302.242 431.402 302.242 433.295C302.242 434.625 301.923 435.971 301.285 437.334C300.646 438.696 299.765 439.724 298.64 440.416C297.526 441.108 296.283 441.454 294.909 441.454C292.671 441.454 290.892 440.562 289.572 438.778C288.458 437.274 287.901 435.587 287.901 433.716C287.901 432.354 288.237 431.002 288.907 429.661C289.588 428.309 290.481 427.314 291.584 426.676C292.687 426.027 293.855 425.703 295.088 425.703ZM294.585 426.757C294.012 426.757 293.433 426.93 292.849 427.276C292.276 427.611 291.811 428.206 291.454 429.061C291.097 429.915 290.919 431.013 290.919 432.354C290.919 434.517 291.346 436.382 292.2 437.95C293.065 439.518 294.201 440.302 295.607 440.302C296.656 440.302 297.521 439.87 298.202 439.005C298.884 438.14 299.224 436.653 299.224 434.544C299.224 431.905 298.657 429.828 297.521 428.314C296.753 427.276 295.774 426.757 294.585 426.757ZM308.779 425.703V429.044C310.023 426.817 311.299 425.703 312.607 425.703C313.202 425.703 313.694 425.887 314.084 426.254C314.473 426.611 314.668 427.027 314.668 427.503C314.668 427.925 314.527 428.282 314.246 428.574C313.965 428.866 313.629 429.012 313.24 429.012C312.862 429.012 312.434 428.828 311.959 428.46C311.494 428.082 311.147 427.893 310.92 427.893C310.726 427.893 310.515 428.001 310.288 428.217C309.801 428.66 309.298 429.39 308.779 430.407V437.529C308.779 438.35 308.882 438.972 309.087 439.394C309.228 439.686 309.477 439.929 309.833 440.124C310.19 440.319 310.704 440.416 311.375 440.416V441H303.766V440.416C304.524 440.416 305.086 440.297 305.454 440.059C305.724 439.886 305.913 439.61 306.021 439.232C306.075 439.048 306.102 438.523 306.102 437.658V431.899C306.102 430.169 306.065 429.142 305.989 428.817C305.924 428.482 305.794 428.239 305.6 428.087C305.416 427.936 305.183 427.86 304.902 427.86C304.567 427.86 304.188 427.941 303.766 428.104L303.604 427.52L308.098 425.703H308.779ZM319.81 421.258V426.141H323.282V427.276H319.81V436.912C319.81 437.875 319.945 438.523 320.216 438.859C320.497 439.194 320.854 439.362 321.286 439.362C321.643 439.362 321.989 439.253 322.324 439.037C322.66 438.81 322.919 438.48 323.103 438.048H323.736C323.357 439.107 322.822 439.908 322.13 440.448C321.438 440.978 320.724 441.243 319.988 441.243C319.491 441.243 319.004 441.108 318.528 440.838C318.053 440.557 317.701 440.162 317.474 439.654C317.247 439.134 317.133 438.34 317.133 437.269V427.276H314.781V426.741C315.376 426.503 315.982 426.103 316.598 425.54C317.225 424.967 317.782 424.291 318.269 423.513C318.518 423.102 318.864 422.35 319.307 421.258H319.81ZM330.549 427.309V437.074C330.549 438.459 330.7 439.335 331.003 439.702C331.403 440.178 331.939 440.416 332.609 440.416H333.956V441H325.082V440.416H325.747C326.18 440.416 326.575 440.308 326.931 440.092C327.288 439.875 327.532 439.583 327.661 439.216C327.802 438.848 327.872 438.134 327.872 437.074V427.309H324.985V426.141H327.872V425.167C327.872 423.686 328.11 422.431 328.586 421.404C329.062 420.376 329.787 419.549 330.76 418.922C331.744 418.284 332.847 417.965 334.069 417.965C335.205 417.965 336.248 418.333 337.2 419.068C337.827 419.555 338.141 420.101 338.141 420.706C338.141 421.031 338 421.339 337.719 421.631C337.438 421.912 337.135 422.053 336.811 422.053C336.562 422.053 336.297 421.966 336.016 421.793C335.745 421.609 335.41 421.225 335.01 420.641C334.61 420.047 334.242 419.646 333.907 419.441C333.572 419.236 333.199 419.133 332.788 419.133C332.29 419.133 331.868 419.268 331.522 419.538C331.176 419.798 330.927 420.209 330.776 420.771C330.625 421.323 330.549 422.756 330.549 425.07V426.141H334.377V427.309H330.549ZM343.072 425.703C345.322 425.703 347.128 426.557 348.49 428.266C349.648 429.726 350.226 431.402 350.226 433.295C350.226 434.625 349.907 435.971 349.269 437.334C348.631 438.696 347.75 439.724 346.625 440.416C345.511 441.108 344.267 441.454 342.894 441.454C340.655 441.454 338.876 440.562 337.557 438.778C336.443 437.274 335.886 435.587 335.886 433.716C335.886 432.354 336.221 431.002 336.892 429.661C337.573 428.309 338.465 427.314 339.568 426.676C340.671 426.027 341.839 425.703 343.072 425.703ZM342.569 426.757C341.996 426.757 341.418 426.93 340.834 427.276C340.26 427.611 339.795 428.206 339.439 429.061C339.082 429.915 338.903 431.013 338.903 432.354C338.903 434.517 339.33 436.382 340.185 437.95C341.05 439.518 342.186 440.302 343.591 440.302C344.64 440.302 345.506 439.87 346.187 439.005C346.868 438.14 347.209 436.653 347.209 434.544C347.209 431.905 346.641 429.828 345.506 428.314C344.738 427.276 343.759 426.757 342.569 426.757ZM357.526 417.932V437.642C357.526 438.572 357.591 439.189 357.721 439.491C357.861 439.794 358.072 440.027 358.353 440.189C358.635 440.34 359.159 440.416 359.927 440.416V441H352.643V440.416C353.325 440.416 353.79 440.346 354.038 440.205C354.287 440.065 354.482 439.832 354.622 439.508C354.763 439.183 354.833 438.561 354.833 437.642V424.145C354.833 422.469 354.795 421.442 354.72 421.063C354.644 420.674 354.52 420.409 354.347 420.268C354.184 420.128 353.973 420.057 353.714 420.057C353.433 420.057 353.076 420.144 352.643 420.317L352.367 419.749L356.796 417.932H357.526ZM365.442 417.932C365.897 417.932 366.281 418.095 366.594 418.419C366.919 418.733 367.081 419.117 367.081 419.571C367.081 420.025 366.919 420.414 366.594 420.739C366.281 421.063 365.897 421.225 365.442 421.225C364.988 421.225 364.599 421.063 364.274 420.739C363.95 420.414 363.788 420.025 363.788 419.571C363.788 419.117 363.945 418.733 364.258 418.419C364.583 418.095 364.977 417.932 365.442 417.932ZM366.789 425.703V437.642C366.789 438.572 366.854 439.194 366.983 439.508C367.124 439.81 367.324 440.037 367.584 440.189C367.854 440.34 368.341 440.416 369.044 440.416V441H361.825V440.416C362.549 440.416 363.036 440.346 363.285 440.205C363.534 440.065 363.728 439.832 363.869 439.508C364.02 439.183 364.096 438.561 364.096 437.642V431.916C364.096 430.304 364.047 429.261 363.95 428.785C363.874 428.439 363.755 428.201 363.593 428.071C363.431 427.931 363.209 427.86 362.928 427.86C362.625 427.86 362.257 427.941 361.825 428.104L361.598 427.52L366.075 425.703H366.789ZM378.177 425.703C380.426 425.703 382.232 426.557 383.595 428.266C384.752 429.726 385.33 431.402 385.33 433.295C385.33 434.625 385.011 435.971 384.373 437.334C383.735 438.696 382.854 439.724 381.729 440.416C380.615 441.108 379.372 441.454 377.998 441.454C375.76 441.454 373.981 440.562 372.661 438.778C371.547 437.274 370.99 435.587 370.99 433.716C370.99 432.354 371.326 431.002 371.996 429.661C372.677 428.309 373.57 427.314 374.673 426.676C375.776 426.027 376.944 425.703 378.177 425.703ZM377.674 426.757C377.101 426.757 376.522 426.93 375.938 427.276C375.365 427.611 374.9 428.206 374.543 429.061C374.186 429.915 374.008 431.013 374.008 432.354C374.008 434.517 374.435 436.382 375.289 437.95C376.154 439.518 377.29 440.302 378.696 440.302C379.745 440.302 380.61 439.87 381.291 439.005C381.973 438.14 382.313 436.653 382.313 434.544C382.313 431.905 381.745 429.828 380.61 428.314C379.842 427.276 378.863 426.757 377.674 426.757Z" fill="#D1B764"/>
<defs>
<linearGradient id="paint0_linear_402_1952" x1="194.716" y1="232.426" x2="188.715" y2="327.57" gradientUnits="userSpaceOnUse">
<stop stop-color="#D3BA65"/>
<stop offset="0.538541" stop-color="#9D894D"/>
</linearGradient>
<linearGradient id="paint1_linear_402_1952" x1="186.823" y1="324.43" x2="186.054" y2="359.638" gradientUnits="userSpaceOnUse">
<stop stop-color="#D3BA65"/>
<stop offset="0.538541" stop-color="#9D894D"/>
</linearGradient>
<linearGradient id="paint2_linear_402_1952" x1="250.205" y1="229.302" x2="245.944" y2="341.119" gradientUnits="userSpaceOnUse">
<stop stop-color="#D3BA65"/>
<stop offset="0.538541" stop-color="#9D894D"/>
</linearGradient>
<linearGradient id="paint3_linear_402_1952" x1="402.975" y1="36.6904" x2="385.38" y2="303.428" gradientUnits="userSpaceOnUse">
<stop stop-color="#DECE98"/>
<stop offset="0.215625" stop-color="#D3BA65"/>
<stop offset="0.913541" stop-color="#9D894D"/>
</linearGradient>
<linearGradient id="paint4_linear_402_1952" x1="316.296" y1="137.309" x2="308.205" y2="278.761" gradientUnits="userSpaceOnUse">
<stop stop-color="#DECE98"/>
<stop offset="0.215625" stop-color="#D3BA65"/>
<stop offset="0.913541" stop-color="#9D894D"/>
</linearGradient>
<linearGradient id="paint5_linear_402_1952" x1="569.804" y1="279.092" x2="563.418" y2="432.332" gradientUnits="userSpaceOnUse">
<stop stop-color="#DECE98"/>
<stop offset="0.507291" stop-color="#9D894D"/>
</linearGradient>
<linearGradient id="paint6_linear_402_1952" x1="707.719" y1="290.386" x2="705.072" y2="460.962" gradientUnits="userSpaceOnUse">
<stop stop-color="#DECE98"/>
<stop offset="0.507291" stop-color="#9D894D"/>
</linearGradient>
<linearGradient id="paint7_linear_402_1952" x1="579.48" y1="101.377" x2="574.678" y2="299.053" gradientUnits="userSpaceOnUse">
<stop offset="0.325" stop-color="#DECE98"/>
<stop offset="0.621875" stop-color="#D3BA65"/>
<stop offset="1" stop-color="#9D894D"/>
</linearGradient>
<linearGradient id="paint8_linear_402_1952" x1="122.027" y1="-1.51666e-07" x2="114.952" y2="194.018" gradientUnits="userSpaceOnUse">
<stop offset="0.226041" stop-color="#DECE98"/>
<stop offset="0.611458" stop-color="#D3BA65"/>
<stop offset="1" stop-color="#9D894D"/>
</linearGradient>
<linearGradient id="paint9_linear_402_1952" x1="93.2556" y1="36.9143" x2="92.9031" y2="68.3428" gradientUnits="userSpaceOnUse">
<stop offset="0.226041" stop-color="#DECE98"/>
<stop offset="0.611458" stop-color="#D3BA65"/>
<stop offset="1" stop-color="#9D894D"/>
</linearGradient>
<linearGradient id="paint10_linear_402_1952" x1="239.974" y1="35.3153" x2="230.881" y2="270.638" gradientUnits="userSpaceOnUse">
<stop offset="0.226041" stop-color="#DECE98"/>
<stop offset="0.611458" stop-color="#D3BA65"/>
<stop offset="1" stop-color="#9D894D"/>
</linearGradient>
</defs>
</svg>
